<?xml version="1.0" encoding="utf-8" standalone="no"?>
<!DOCTYPE svg PUBLIC "-//W3C//DTD SVG 1.1//EN"
  "http://www.w3.org/Graphics/SVG/1.1/DTD/svg11.dtd">
<!-- Created with matplotlib (https://matplotlib.org/) -->
<svg height="306.453625pt" version="1.1" viewBox="0 0 466.519062 306.453625" width="466.519062pt" xmlns="http://www.w3.org/2000/svg" xmlns:xlink="http://www.w3.org/1999/xlink">
 <defs>
  <style type="text/css">
*{stroke-linecap:butt;stroke-linejoin:round;}
  </style>
 </defs>
 <g id="figure_1">
  <g id="patch_1">
   <path d="M 0 306.453625 
L 466.519062 306.453625 
L 466.519062 0 
L 0 0 
z
" style="fill:#ffffff;"/>
  </g>
  <g id="axes_1">
   <g id="patch_2">
    <path d="M 56.959063 270.46175 
L 459.319063 270.46175 
L 459.319063 24.14175 
L 56.959063 24.14175 
z
" style="fill:#eeeeee;"/>
   </g>
   <g id="PolyCollection_1">
    <defs>
     <path d="M 77.077063 -223.055944 
L 77.077063 -103.990528 
L 117.313063 -65.476052 
L 157.549063 -48.344778 
L 197.785063 -102.464398 
L 238.021063 -119.835075 
L 278.257063 -97.627046 
L 318.493063 -104.731516 
L 358.729063 -83.718796 
L 398.965063 -148.549943 
L 439.201063 -47.188239 
L 439.201063 -173.553669 
L 439.201063 -173.553669 
L 398.965063 -264.350043 
L 358.729063 -226.186472 
L 318.493063 -196.830259 
L 278.257063 -219.276806 
L 238.021063 -271.115511 
L 197.785063 -237.87438 
L 157.549063 -173.985033 
L 117.313063 -190.811345 
L 77.077063 -223.055944 
z
" id="me10c9c1ec2" style="stroke:#0d0887;stroke-opacity:0.2;stroke-width:0.5;"/>
    </defs>
    <g clip-path="url(#pde8b5aba51)">
     <use style="fill:#0d0887;fill-opacity:0.2;stroke:#0d0887;stroke-opacity:0.2;stroke-width:0.5;" x="0" xlink:href="#me10c9c1ec2" y="306.453625"/>
    </g>
   </g>
   <g id="PolyCollection_2">
    <defs>
     <path d="M 77.077063 -183.035622 
L 77.077063 -144.662896 
L 117.313063 -146.655096 
L 157.549063 -129.007641 
L 197.785063 -140.167476 
L 238.021063 -117.799576 
L 278.257063 -107.1716 
L 318.493063 -118.971736 
L 358.729063 -79.963821 
L 398.965063 -84.795598 
L 439.201063 -88.629308 
L 439.201063 -134.723267 
L 439.201063 -134.723267 
L 398.965063 -146.608051 
L 358.729063 -125.598187 
L 318.493063 -160.891347 
L 278.257063 -167.302456 
L 238.021063 -174.651502 
L 197.785063 -187.930509 
L 157.549063 -179.919178 
L 117.313063 -191.421025 
L 77.077063 -183.035622 
z
" id="m3e80b474b5" style="stroke:#9c179e;stroke-opacity:0.2;stroke-width:0.5;"/>
    </defs>
    <g clip-path="url(#pde8b5aba51)">
     <use style="fill:#9c179e;fill-opacity:0.2;stroke:#9c179e;stroke-opacity:0.2;stroke-width:0.5;" x="0" xlink:href="#m3e80b474b5" y="306.453625"/>
    </g>
   </g>
   <g id="PolyCollection_3">
    <defs>
     <path d="M 77.077063 -214.710253 
L 77.077063 -192.813198 
L 117.313063 -185.995473 
L 157.549063 -187.617158 
L 197.785063 -189.735 
L 238.021063 -177.048026 
L 278.257063 -166.542413 
L 318.493063 -159.233334 
L 358.729063 -149.424571 
L 398.965063 -138.865954 
L 439.201063 -128.848166 
L 439.201063 -148.942204 
L 439.201063 -148.942204 
L 398.965063 -161.429434 
L 358.729063 -169.013366 
L 318.493063 -176.872915 
L 278.257063 -183.26869 
L 238.021063 -190.523242 
L 197.785063 -209.010647 
L 157.549063 -213.375119 
L 117.313063 -206.160006 
L 77.077063 -214.710253 
z
" id="meb1a38b4e8" style="stroke:#f0f921;stroke-opacity:0.2;stroke-width:0.5;"/>
    </defs>
    <g clip-path="url(#pde8b5aba51)">
     <use style="fill:#f0f921;fill-opacity:0.2;stroke:#f0f921;stroke-opacity:0.2;stroke-width:0.5;" x="0" xlink:href="#meb1a38b4e8" y="306.453625"/>
    </g>
   </g>
   <g id="PathCollection_1">
    <defs>
     <path d="M 0 1.804772 
C 0.478631 1.804772 0.937723 1.61461 1.276167 1.276167 
C 1.61461 0.937723 1.804772 0.478631 1.804772 0 
C 1.804772 -0.478631 1.61461 -0.937723 1.276167 -1.276167 
C 0.937723 -1.61461 0.478631 -1.804772 0 -1.804772 
C -0.478631 -1.804772 -0.937723 -1.61461 -1.276167 -1.276167 
C -1.61461 -0.937723 -1.804772 -0.478631 -1.804772 0 
C -1.804772 0.478631 -1.61461 0.937723 -1.276167 1.276167 
C -0.937723 1.61461 -0.478631 1.804772 0 1.804772 
z
" id="C0_0_7c27529505"/>
    </defs>
    <g clip-path="url(#pde8b5aba51)">
     <use style="fill:#7e03a8;stroke:#7e03a8;stroke-width:1.08;" x="77.077063" xlink:href="#C0_0_7c27529505" y="143.217205"/>
    </g>
    <g clip-path="url(#pde8b5aba51)">
     <use style="fill:#7e03a8;stroke:#7e03a8;stroke-width:1.08;" x="117.313063" xlink:href="#C0_0_7c27529505" y="177.17342"/>
    </g>
    <g clip-path="url(#pde8b5aba51)">
     <use style="fill:#7e03a8;stroke:#7e03a8;stroke-width:1.08;" x="157.549063" xlink:href="#C0_0_7c27529505" y="194.303835"/>
    </g>
    <g clip-path="url(#pde8b5aba51)">
     <use style="fill:#7e03a8;stroke:#7e03a8;stroke-width:1.08;" x="197.785063" xlink:href="#C0_0_7c27529505" y="135.448915"/>
    </g>
    <g clip-path="url(#pde8b5aba51)">
     <use style="fill:#7e03a8;stroke:#7e03a8;stroke-width:1.08;" x="238.021063" xlink:href="#C0_0_7c27529505" y="108.95814"/>
    </g>
    <g clip-path="url(#pde8b5aba51)">
     <use style="fill:#7e03a8;stroke:#7e03a8;stroke-width:1.08;" x="278.257063" xlink:href="#C0_0_7c27529505" y="148.488022"/>
    </g>
    <g clip-path="url(#pde8b5aba51)">
     <use style="fill:#7e03a8;stroke:#7e03a8;stroke-width:1.08;" x="318.493063" xlink:href="#C0_0_7c27529505" y="154.758047"/>
    </g>
    <g clip-path="url(#pde8b5aba51)">
     <use style="fill:#7e03a8;stroke:#7e03a8;stroke-width:1.08;" x="358.729063" xlink:href="#C0_0_7c27529505" y="149.14405"/>
    </g>
    <g clip-path="url(#pde8b5aba51)">
     <use style="fill:#7e03a8;stroke:#7e03a8;stroke-width:1.08;" x="398.965063" xlink:href="#C0_0_7c27529505" y="99.364633"/>
    </g>
    <g clip-path="url(#pde8b5aba51)">
     <use style="fill:#7e03a8;stroke:#7e03a8;stroke-width:1.08;" x="439.201063" xlink:href="#C0_0_7c27529505" y="195.738467"/>
    </g>
   </g>
   <g id="line2d_1">
    <path clip-path="url(#pde8b5aba51)" d="M 77.077063 143.217205 
L 117.313063 177.17342 
L 157.549063 194.303835 
L 197.785063 135.448915 
L 238.021063 108.95814 
L 278.257063 148.488022 
L 318.493063 154.758047 
L 358.729063 149.14405 
L 398.965063 99.364633 
L 439.201063 195.738467 
" style="fill:none;stroke:#7e03a8;stroke-dasharray:5.328,2.304;stroke-dashoffset:0;stroke-width:1.44;"/>
   </g>
   <g id="line2d_2">
    <path clip-path="url(#pde8b5aba51)" d="M 0 0 
" style="fill:none;"/>
   </g>
   <g id="line2d_3">
    <path clip-path="url(#pde8b5aba51)" d="M 0 0 
" style="fill:none;"/>
   </g>
   <g id="line2d_4">
    <path clip-path="url(#pde8b5aba51)" d="M 0 0 
" style="fill:none;"/>
   </g>
   <g id="line2d_5">
    <path clip-path="url(#pde8b5aba51)" d="M 0 0 
" style="fill:none;"/>
   </g>
   <g id="line2d_6">
    <path clip-path="url(#pde8b5aba51)" d="M 0 0 
" style="fill:none;"/>
   </g>
   <g id="line2d_7">
    <path clip-path="url(#pde8b5aba51)" d="M 0 0 
" style="fill:none;"/>
   </g>
   <g id="line2d_8">
    <path clip-path="url(#pde8b5aba51)" d="M 0 0 
" style="fill:none;"/>
   </g>
   <g id="line2d_9">
    <path clip-path="url(#pde8b5aba51)" d="M 0 0 
" style="fill:none;"/>
   </g>
   <g id="line2d_10">
    <path clip-path="url(#pde8b5aba51)" d="M 0 0 
" style="fill:none;"/>
   </g>
   <g id="line2d_11">
    <path clip-path="url(#pde8b5aba51)" d="M 0 0 
" style="fill:none;"/>
   </g>
   <g id="matplotlib.axis_1">
    <g id="xtick_1">
     <g id="line2d_12">
      <defs>
       <path d="M 0 0 
L 0 -3.5 
" id="m5b5b1b88ea" style="stroke:#000000;stroke-width:0.8;"/>
      </defs>
      <g>
       <use style="stroke:#000000;stroke-width:0.8;" x="77.077063" xlink:href="#m5b5b1b88ea" y="270.46175"/>
      </g>
     </g>
     <g id="text_1">
      <!-- 0 -->
      <defs>
       <path d="M 31.78125 66.40625 
Q 24.171875 66.40625 20.328125 58.90625 
Q 16.5 51.421875 16.5 36.375 
Q 16.5 21.390625 20.328125 13.890625 
Q 24.171875 6.390625 31.78125 6.390625 
Q 39.453125 6.390625 43.28125 13.890625 
Q 47.125 21.390625 47.125 36.375 
Q 47.125 51.421875 43.28125 58.90625 
Q 39.453125 66.40625 31.78125 66.40625 
z
M 31.78125 74.21875 
Q 44.046875 74.21875 50.515625 64.515625 
Q 56.984375 54.828125 56.984375 36.375 
Q 56.984375 17.96875 50.515625 8.265625 
Q 44.046875 -1.421875 31.78125 -1.421875 
Q 19.53125 -1.421875 13.0625 8.265625 
Q 6.59375 17.96875 6.59375 36.375 
Q 6.59375 54.828125 13.0625 64.515625 
Q 19.53125 74.21875 31.78125 74.21875 
z
" id="DejaVuSans-48"/>
      </defs>
      <g transform="translate(73.895813 281.560187)scale(0.1 -0.1)">
       <use xlink:href="#DejaVuSans-48"/>
      </g>
     </g>
    </g>
    <g id="xtick_2">
     <g id="line2d_13">
      <g>
       <use style="stroke:#000000;stroke-width:0.8;" x="117.313063" xlink:href="#m5b5b1b88ea" y="270.46175"/>
      </g>
     </g>
     <g id="text_2">
      <!-- 1 -->
      <defs>
       <path d="M 12.40625 8.296875 
L 28.515625 8.296875 
L 28.515625 63.921875 
L 10.984375 60.40625 
L 10.984375 69.390625 
L 28.421875 72.90625 
L 38.28125 72.90625 
L 38.28125 8.296875 
L 54.390625 8.296875 
L 54.390625 0 
L 12.40625 0 
z
" id="DejaVuSans-49"/>
      </defs>
      <g transform="translate(114.131813 281.560187)scale(0.1 -0.1)">
       <use xlink:href="#DejaVuSans-49"/>
      </g>
     </g>
    </g>
    <g id="xtick_3">
     <g id="line2d_14">
      <g>
       <use style="stroke:#000000;stroke-width:0.8;" x="157.549063" xlink:href="#m5b5b1b88ea" y="270.46175"/>
      </g>
     </g>
     <g id="text_3">
      <!-- 2 -->
      <defs>
       <path d="M 19.1875 8.296875 
L 53.609375 8.296875 
L 53.609375 0 
L 7.328125 0 
L 7.328125 8.296875 
Q 12.9375 14.109375 22.625 23.890625 
Q 32.328125 33.6875 34.8125 36.53125 
Q 39.546875 41.84375 41.421875 45.53125 
Q 43.3125 49.21875 43.3125 52.78125 
Q 43.3125 58.59375 39.234375 62.25 
Q 35.15625 65.921875 28.609375 65.921875 
Q 23.96875 65.921875 18.8125 64.3125 
Q 13.671875 62.703125 7.8125 59.421875 
L 7.8125 69.390625 
Q 13.765625 71.78125 18.9375 73 
Q 24.125 74.21875 28.421875 74.21875 
Q 39.75 74.21875 46.484375 68.546875 
Q 53.21875 62.890625 53.21875 53.421875 
Q 53.21875 48.921875 51.53125 44.890625 
Q 49.859375 40.875 45.40625 35.40625 
Q 44.1875 33.984375 37.640625 27.21875 
Q 31.109375 20.453125 19.1875 8.296875 
z
" id="DejaVuSans-50"/>
      </defs>
      <g transform="translate(154.367813 281.560187)scale(0.1 -0.1)">
       <use xlink:href="#DejaVuSans-50"/>
      </g>
     </g>
    </g>
    <g id="xtick_4">
     <g id="line2d_15">
      <g>
       <use style="stroke:#000000;stroke-width:0.8;" x="197.785063" xlink:href="#m5b5b1b88ea" y="270.46175"/>
      </g>
     </g>
     <g id="text_4">
      <!-- 3 -->
      <defs>
       <path d="M 40.578125 39.3125 
Q 47.65625 37.796875 51.625 33 
Q 55.609375 28.21875 55.609375 21.1875 
Q 55.609375 10.40625 48.1875 4.484375 
Q 40.765625 -1.421875 27.09375 -1.421875 
Q 22.515625 -1.421875 17.65625 -0.515625 
Q 12.796875 0.390625 7.625 2.203125 
L 7.625 11.71875 
Q 11.71875 9.328125 16.59375 8.109375 
Q 21.484375 6.890625 26.8125 6.890625 
Q 36.078125 6.890625 40.9375 10.546875 
Q 45.796875 14.203125 45.796875 21.1875 
Q 45.796875 27.640625 41.28125 31.265625 
Q 36.765625 34.90625 28.71875 34.90625 
L 20.21875 34.90625 
L 20.21875 43.015625 
L 29.109375 43.015625 
Q 36.375 43.015625 40.234375 45.921875 
Q 44.09375 48.828125 44.09375 54.296875 
Q 44.09375 59.90625 40.109375 62.90625 
Q 36.140625 65.921875 28.71875 65.921875 
Q 24.65625 65.921875 20.015625 65.03125 
Q 15.375 64.15625 9.8125 62.3125 
L 9.8125 71.09375 
Q 15.4375 72.65625 20.34375 73.4375 
Q 25.25 74.21875 29.59375 74.21875 
Q 40.828125 74.21875 47.359375 69.109375 
Q 53.90625 64.015625 53.90625 55.328125 
Q 53.90625 49.265625 50.4375 45.09375 
Q 46.96875 40.921875 40.578125 39.3125 
z
" id="DejaVuSans-51"/>
      </defs>
      <g transform="translate(194.603813 281.560187)scale(0.1 -0.1)">
       <use xlink:href="#DejaVuSans-51"/>
      </g>
     </g>
    </g>
    <g id="xtick_5">
     <g id="line2d_16">
      <g>
       <use style="stroke:#000000;stroke-width:0.8;" x="238.021063" xlink:href="#m5b5b1b88ea" y="270.46175"/>
      </g>
     </g>
     <g id="text_5">
      <!-- 4 -->
      <defs>
       <path d="M 37.796875 64.3125 
L 12.890625 25.390625 
L 37.796875 25.390625 
z
M 35.203125 72.90625 
L 47.609375 72.90625 
L 47.609375 25.390625 
L 58.015625 25.390625 
L 58.015625 17.1875 
L 47.609375 17.1875 
L 47.609375 0 
L 37.796875 0 
L 37.796875 17.1875 
L 4.890625 17.1875 
L 4.890625 26.703125 
z
" id="DejaVuSans-52"/>
      </defs>
      <g transform="translate(234.839813 281.560187)scale(0.1 -0.1)">
       <use xlink:href="#DejaVuSans-52"/>
      </g>
     </g>
    </g>
    <g id="xtick_6">
     <g id="line2d_17">
      <g>
       <use style="stroke:#000000;stroke-width:0.8;" x="278.257063" xlink:href="#m5b5b1b88ea" y="270.46175"/>
      </g>
     </g>
     <g id="text_6">
      <!-- 5 -->
      <defs>
       <path d="M 10.796875 72.90625 
L 49.515625 72.90625 
L 49.515625 64.59375 
L 19.828125 64.59375 
L 19.828125 46.734375 
Q 21.96875 47.46875 24.109375 47.828125 
Q 26.265625 48.1875 28.421875 48.1875 
Q 40.625 48.1875 47.75 41.5 
Q 54.890625 34.8125 54.890625 23.390625 
Q 54.890625 11.625 47.5625 5.09375 
Q 40.234375 -1.421875 26.90625 -1.421875 
Q 22.3125 -1.421875 17.546875 -0.640625 
Q 12.796875 0.140625 7.71875 1.703125 
L 7.71875 11.625 
Q 12.109375 9.234375 16.796875 8.0625 
Q 21.484375 6.890625 26.703125 6.890625 
Q 35.15625 6.890625 40.078125 11.328125 
Q 45.015625 15.765625 45.015625 23.390625 
Q 45.015625 31 40.078125 35.4375 
Q 35.15625 39.890625 26.703125 39.890625 
Q 22.75 39.890625 18.8125 39.015625 
Q 14.890625 38.140625 10.796875 36.28125 
z
" id="DejaVuSans-53"/>
      </defs>
      <g transform="translate(275.075813 281.560187)scale(0.1 -0.1)">
       <use xlink:href="#DejaVuSans-53"/>
      </g>
     </g>
    </g>
    <g id="xtick_7">
     <g id="line2d_18">
      <g>
       <use style="stroke:#000000;stroke-width:0.8;" x="318.493063" xlink:href="#m5b5b1b88ea" y="270.46175"/>
      </g>
     </g>
     <g id="text_7">
      <!-- 6 -->
      <defs>
       <path d="M 33.015625 40.375 
Q 26.375 40.375 22.484375 35.828125 
Q 18.609375 31.296875 18.609375 23.390625 
Q 18.609375 15.53125 22.484375 10.953125 
Q 26.375 6.390625 33.015625 6.390625 
Q 39.65625 6.390625 43.53125 10.953125 
Q 47.40625 15.53125 47.40625 23.390625 
Q 47.40625 31.296875 43.53125 35.828125 
Q 39.65625 40.375 33.015625 40.375 
z
M 52.59375 71.296875 
L 52.59375 62.3125 
Q 48.875 64.0625 45.09375 64.984375 
Q 41.3125 65.921875 37.59375 65.921875 
Q 27.828125 65.921875 22.671875 59.328125 
Q 17.53125 52.734375 16.796875 39.40625 
Q 19.671875 43.65625 24.015625 45.921875 
Q 28.375 48.1875 33.59375 48.1875 
Q 44.578125 48.1875 50.953125 41.515625 
Q 57.328125 34.859375 57.328125 23.390625 
Q 57.328125 12.15625 50.6875 5.359375 
Q 44.046875 -1.421875 33.015625 -1.421875 
Q 20.359375 -1.421875 13.671875 8.265625 
Q 6.984375 17.96875 6.984375 36.375 
Q 6.984375 53.65625 15.1875 63.9375 
Q 23.390625 74.21875 37.203125 74.21875 
Q 40.921875 74.21875 44.703125 73.484375 
Q 48.484375 72.75 52.59375 71.296875 
z
" id="DejaVuSans-54"/>
      </defs>
      <g transform="translate(315.311813 281.560187)scale(0.1 -0.1)">
       <use xlink:href="#DejaVuSans-54"/>
      </g>
     </g>
    </g>
    <g id="xtick_8">
     <g id="line2d_19">
      <g>
       <use style="stroke:#000000;stroke-width:0.8;" x="358.729063" xlink:href="#m5b5b1b88ea" y="270.46175"/>
      </g>
     </g>
     <g id="text_8">
      <!-- 7 -->
      <defs>
       <path d="M 8.203125 72.90625 
L 55.078125 72.90625 
L 55.078125 68.703125 
L 28.609375 0 
L 18.3125 0 
L 43.21875 64.59375 
L 8.203125 64.59375 
z
" id="DejaVuSans-55"/>
      </defs>
      <g transform="translate(355.547813 281.560187)scale(0.1 -0.1)">
       <use xlink:href="#DejaVuSans-55"/>
      </g>
     </g>
    </g>
    <g id="xtick_9">
     <g id="line2d_20">
      <g>
       <use style="stroke:#000000;stroke-width:0.8;" x="398.965063" xlink:href="#m5b5b1b88ea" y="270.46175"/>
      </g>
     </g>
     <g id="text_9">
      <!-- 8 -->
      <defs>
       <path d="M 31.78125 34.625 
Q 24.75 34.625 20.71875 30.859375 
Q 16.703125 27.09375 16.703125 20.515625 
Q 16.703125 13.921875 20.71875 10.15625 
Q 24.75 6.390625 31.78125 6.390625 
Q 38.8125 6.390625 42.859375 10.171875 
Q 46.921875 13.96875 46.921875 20.515625 
Q 46.921875 27.09375 42.890625 30.859375 
Q 38.875 34.625 31.78125 34.625 
z
M 21.921875 38.8125 
Q 15.578125 40.375 12.03125 44.71875 
Q 8.5 49.078125 8.5 55.328125 
Q 8.5 64.0625 14.71875 69.140625 
Q 20.953125 74.21875 31.78125 74.21875 
Q 42.671875 74.21875 48.875 69.140625 
Q 55.078125 64.0625 55.078125 55.328125 
Q 55.078125 49.078125 51.53125 44.71875 
Q 48 40.375 41.703125 38.8125 
Q 48.828125 37.15625 52.796875 32.3125 
Q 56.78125 27.484375 56.78125 20.515625 
Q 56.78125 9.90625 50.3125 4.234375 
Q 43.84375 -1.421875 31.78125 -1.421875 
Q 19.734375 -1.421875 13.25 4.234375 
Q 6.78125 9.90625 6.78125 20.515625 
Q 6.78125 27.484375 10.78125 32.3125 
Q 14.796875 37.15625 21.921875 38.8125 
z
M 18.3125 54.390625 
Q 18.3125 48.734375 21.84375 45.5625 
Q 25.390625 42.390625 31.78125 42.390625 
Q 38.140625 42.390625 41.71875 45.5625 
Q 45.3125 48.734375 45.3125 54.390625 
Q 45.3125 60.0625 41.71875 63.234375 
Q 38.140625 66.40625 31.78125 66.40625 
Q 25.390625 66.40625 21.84375 63.234375 
Q 18.3125 60.0625 18.3125 54.390625 
z
" id="DejaVuSans-56"/>
      </defs>
      <g transform="translate(395.783813 281.560187)scale(0.1 -0.1)">
       <use xlink:href="#DejaVuSans-56"/>
      </g>
     </g>
    </g>
    <g id="xtick_10">
     <g id="line2d_21">
      <g>
       <use style="stroke:#000000;stroke-width:0.8;" x="439.201063" xlink:href="#m5b5b1b88ea" y="270.46175"/>
      </g>
     </g>
     <g id="text_10">
      <!-- 9 -->
      <defs>
       <path d="M 10.984375 1.515625 
L 10.984375 10.5 
Q 14.703125 8.734375 18.5 7.8125 
Q 22.3125 6.890625 25.984375 6.890625 
Q 35.75 6.890625 40.890625 13.453125 
Q 46.046875 20.015625 46.78125 33.40625 
Q 43.953125 29.203125 39.59375 26.953125 
Q 35.25 24.703125 29.984375 24.703125 
Q 19.046875 24.703125 12.671875 31.3125 
Q 6.296875 37.9375 6.296875 49.421875 
Q 6.296875 60.640625 12.9375 67.421875 
Q 19.578125 74.21875 30.609375 74.21875 
Q 43.265625 74.21875 49.921875 64.515625 
Q 56.59375 54.828125 56.59375 36.375 
Q 56.59375 19.140625 48.40625 8.859375 
Q 40.234375 -1.421875 26.421875 -1.421875 
Q 22.703125 -1.421875 18.890625 -0.6875 
Q 15.09375 0.046875 10.984375 1.515625 
z
M 30.609375 32.421875 
Q 37.25 32.421875 41.125 36.953125 
Q 45.015625 41.5 45.015625 49.421875 
Q 45.015625 57.28125 41.125 61.84375 
Q 37.25 66.40625 30.609375 66.40625 
Q 23.96875 66.40625 20.09375 61.84375 
Q 16.21875 57.28125 16.21875 49.421875 
Q 16.21875 41.5 20.09375 36.953125 
Q 23.96875 32.421875 30.609375 32.421875 
z
" id="DejaVuSans-57"/>
      </defs>
      <g transform="translate(436.019813 281.560187)scale(0.1 -0.1)">
       <use xlink:href="#DejaVuSans-57"/>
      </g>
     </g>
    </g>
    <g id="text_11">
     <!-- α -->
     <defs>
      <path d="M 41.3125 25.4375 
L 39.15625 36.71875 
Q 36.96875 48.296875 28.265625 48.296875 
Q 21.734375 48.296875 18.75 42.921875 
Q 14.984375 36.1875 14.984375 27.296875 
Q 14.984375 16.546875 18.65625 11.421875 
Q 22.359375 6.203125 28.265625 6.203125 
Q 34.8125 6.203125 38.328125 16.609375 
z
M 46.34375 40.375 
L 51.171875 54.6875 
L 59.1875 54.6875 
L 49.171875 25.046875 
L 51.125 14.359375 
Q 51.5625 11.96875 53.265625 9.96875 
Q 55.28125 7.625 56.84375 7.625 
L 61.140625 7.625 
L 61.140625 0 
L 55.765625 0 
Q 51.171875 0 47.078125 4.109375 
Q 45.0625 6.15625 44.234375 10.453125 
Q 42 5.03125 37.40625 0.78125 
Q 35.25 -1.21875 28.265625 -1.21875 
Q 16.796875 -1.21875 11.234375 6.203125 
Q 5.515625 13.875 5.515625 27.296875 
Q 5.515625 41.65625 11.71875 48.390625 
Q 18.609375 55.90625 28.265625 55.90625 
Q 43.453125 55.90625 46.34375 40.375 
z
" id="DejaVuSans-945"/>
     </defs>
     <g transform="translate(254.18375 296.758)scale(0.12 -0.12)">
      <use xlink:href="#DejaVuSans-945"/>
     </g>
    </g>
   </g>
   <g id="matplotlib.axis_2">
    <g id="ytick_1">
     <g id="line2d_22">
      <path clip-path="url(#pde8b5aba51)" d="M 56.959063 256.177826 
L 459.319063 256.177826 
" style="fill:none;stroke:#b2b2b2;stroke-dasharray:1.85,0.8;stroke-dashoffset:0;stroke-width:0.5;"/>
     </g>
     <g id="line2d_23">
      <defs>
       <path d="M 0 0 
L 3.5 0 
" id="m15aba70c44" style="stroke:#000000;stroke-width:0.8;"/>
      </defs>
      <g>
       <use style="stroke:#000000;stroke-width:0.8;" x="56.959063" xlink:href="#m15aba70c44" y="256.177826"/>
      </g>
     </g>
     <g id="text_12">
      <!-- −0.02 -->
      <defs>
       <path d="M 10.59375 35.5 
L 73.1875 35.5 
L 73.1875 27.203125 
L 10.59375 27.203125 
z
" id="DejaVuSans-8722"/>
       <path d="M 10.6875 12.40625 
L 21 12.40625 
L 21 0 
L 10.6875 0 
z
" id="DejaVuSans-46"/>
      </defs>
      <g transform="translate(22.81375 259.977045)scale(0.1 -0.1)">
       <use xlink:href="#DejaVuSans-8722"/>
       <use x="83.789062" xlink:href="#DejaVuSans-48"/>
       <use x="147.412109" xlink:href="#DejaVuSans-46"/>
       <use x="179.199219" xlink:href="#DejaVuSans-48"/>
       <use x="242.822266" xlink:href="#DejaVuSans-50"/>
      </g>
     </g>
    </g>
    <g id="ytick_2">
     <g id="line2d_24">
      <path clip-path="url(#pde8b5aba51)" d="M 56.959063 221.903931 
L 459.319063 221.903931 
" style="fill:none;stroke:#b2b2b2;stroke-dasharray:1.85,0.8;stroke-dashoffset:0;stroke-width:0.5;"/>
     </g>
     <g id="line2d_25">
      <g>
       <use style="stroke:#000000;stroke-width:0.8;" x="56.959063" xlink:href="#m15aba70c44" y="221.903931"/>
      </g>
     </g>
     <g id="text_13">
      <!-- 0.00 -->
      <g transform="translate(31.193438 225.70315)scale(0.1 -0.1)">
       <use xlink:href="#DejaVuSans-48"/>
       <use x="63.623047" xlink:href="#DejaVuSans-46"/>
       <use x="95.410156" xlink:href="#DejaVuSans-48"/>
       <use x="159.033203" xlink:href="#DejaVuSans-48"/>
      </g>
     </g>
    </g>
    <g id="ytick_3">
     <g id="line2d_26">
      <path clip-path="url(#pde8b5aba51)" d="M 56.959063 187.630036 
L 459.319063 187.630036 
" style="fill:none;stroke:#b2b2b2;stroke-dasharray:1.85,0.8;stroke-dashoffset:0;stroke-width:0.5;"/>
     </g>
     <g id="line2d_27">
      <g>
       <use style="stroke:#000000;stroke-width:0.8;" x="56.959063" xlink:href="#m15aba70c44" y="187.630036"/>
      </g>
     </g>
     <g id="text_14">
      <!-- 0.02 -->
      <g transform="translate(31.193438 191.429254)scale(0.1 -0.1)">
       <use xlink:href="#DejaVuSans-48"/>
       <use x="63.623047" xlink:href="#DejaVuSans-46"/>
       <use x="95.410156" xlink:href="#DejaVuSans-48"/>
       <use x="159.033203" xlink:href="#DejaVuSans-50"/>
      </g>
     </g>
    </g>
    <g id="ytick_4">
     <g id="line2d_28">
      <path clip-path="url(#pde8b5aba51)" d="M 56.959063 153.35614 
L 459.319063 153.35614 
" style="fill:none;stroke:#b2b2b2;stroke-dasharray:1.85,0.8;stroke-dashoffset:0;stroke-width:0.5;"/>
     </g>
     <g id="line2d_29">
      <g>
       <use style="stroke:#000000;stroke-width:0.8;" x="56.959063" xlink:href="#m15aba70c44" y="153.35614"/>
      </g>
     </g>
     <g id="text_15">
      <!-- 0.04 -->
      <g transform="translate(31.193438 157.155359)scale(0.1 -0.1)">
       <use xlink:href="#DejaVuSans-48"/>
       <use x="63.623047" xlink:href="#DejaVuSans-46"/>
       <use x="95.410156" xlink:href="#DejaVuSans-48"/>
       <use x="159.033203" xlink:href="#DejaVuSans-52"/>
      </g>
     </g>
    </g>
    <g id="ytick_5">
     <g id="line2d_30">
      <path clip-path="url(#pde8b5aba51)" d="M 56.959063 119.082245 
L 459.319063 119.082245 
" style="fill:none;stroke:#b2b2b2;stroke-dasharray:1.85,0.8;stroke-dashoffset:0;stroke-width:0.5;"/>
     </g>
     <g id="line2d_31">
      <g>
       <use style="stroke:#000000;stroke-width:0.8;" x="56.959063" xlink:href="#m15aba70c44" y="119.082245"/>
      </g>
     </g>
     <g id="text_16">
      <!-- 0.06 -->
      <g transform="translate(31.193438 122.881464)scale(0.1 -0.1)">
       <use xlink:href="#DejaVuSans-48"/>
       <use x="63.623047" xlink:href="#DejaVuSans-46"/>
       <use x="95.410156" xlink:href="#DejaVuSans-48"/>
       <use x="159.033203" xlink:href="#DejaVuSans-54"/>
      </g>
     </g>
    </g>
    <g id="ytick_6">
     <g id="line2d_32">
      <path clip-path="url(#pde8b5aba51)" d="M 56.959063 84.808349 
L 459.319063 84.808349 
" style="fill:none;stroke:#b2b2b2;stroke-dasharray:1.85,0.8;stroke-dashoffset:0;stroke-width:0.5;"/>
     </g>
     <g id="line2d_33">
      <g>
       <use style="stroke:#000000;stroke-width:0.8;" x="56.959063" xlink:href="#m15aba70c44" y="84.808349"/>
      </g>
     </g>
     <g id="text_17">
      <!-- 0.08 -->
      <g transform="translate(31.193438 88.607568)scale(0.1 -0.1)">
       <use xlink:href="#DejaVuSans-48"/>
       <use x="63.623047" xlink:href="#DejaVuSans-46"/>
       <use x="95.410156" xlink:href="#DejaVuSans-48"/>
       <use x="159.033203" xlink:href="#DejaVuSans-56"/>
      </g>
     </g>
    </g>
    <g id="ytick_7">
     <g id="line2d_34">
      <path clip-path="url(#pde8b5aba51)" d="M 56.959063 50.534454 
L 459.319063 50.534454 
" style="fill:none;stroke:#b2b2b2;stroke-dasharray:1.85,0.8;stroke-dashoffset:0;stroke-width:0.5;"/>
     </g>
     <g id="line2d_35">
      <g>
       <use style="stroke:#000000;stroke-width:0.8;" x="56.959063" xlink:href="#m15aba70c44" y="50.534454"/>
      </g>
     </g>
     <g id="text_18">
      <!-- 0.10 -->
      <g transform="translate(31.193438 54.333673)scale(0.1 -0.1)">
       <use xlink:href="#DejaVuSans-48"/>
       <use x="63.623047" xlink:href="#DejaVuSans-46"/>
       <use x="95.410156" xlink:href="#DejaVuSans-49"/>
       <use x="159.033203" xlink:href="#DejaVuSans-48"/>
      </g>
     </g>
    </g>
    <g id="text_19">
     <!-- Relative loss disadvantage -->
     <defs>
      <path d="M 44.390625 34.1875 
Q 47.5625 33.109375 50.5625 29.59375 
Q 53.5625 26.078125 56.59375 19.921875 
L 66.609375 0 
L 56 0 
L 46.6875 18.703125 
Q 43.0625 26.03125 39.671875 28.421875 
Q 36.28125 30.8125 30.421875 30.8125 
L 19.671875 30.8125 
L 19.671875 0 
L 9.8125 0 
L 9.8125 72.90625 
L 32.078125 72.90625 
Q 44.578125 72.90625 50.734375 67.671875 
Q 56.890625 62.453125 56.890625 51.90625 
Q 56.890625 45.015625 53.6875 40.46875 
Q 50.484375 35.9375 44.390625 34.1875 
z
M 19.671875 64.796875 
L 19.671875 38.921875 
L 32.078125 38.921875 
Q 39.203125 38.921875 42.84375 42.21875 
Q 46.484375 45.515625 46.484375 51.90625 
Q 46.484375 58.296875 42.84375 61.546875 
Q 39.203125 64.796875 32.078125 64.796875 
z
" id="DejaVuSans-82"/>
      <path d="M 56.203125 29.59375 
L 56.203125 25.203125 
L 14.890625 25.203125 
Q 15.484375 15.921875 20.484375 11.0625 
Q 25.484375 6.203125 34.421875 6.203125 
Q 39.59375 6.203125 44.453125 7.46875 
Q 49.3125 8.734375 54.109375 11.28125 
L 54.109375 2.78125 
Q 49.265625 0.734375 44.1875 -0.34375 
Q 39.109375 -1.421875 33.890625 -1.421875 
Q 20.796875 -1.421875 13.15625 6.1875 
Q 5.515625 13.8125 5.515625 26.8125 
Q 5.515625 40.234375 12.765625 48.109375 
Q 20.015625 56 32.328125 56 
Q 43.359375 56 49.78125 48.890625 
Q 56.203125 41.796875 56.203125 29.59375 
z
M 47.21875 32.234375 
Q 47.125 39.59375 43.09375 43.984375 
Q 39.0625 48.390625 32.421875 48.390625 
Q 24.90625 48.390625 20.390625 44.140625 
Q 15.875 39.890625 15.1875 32.171875 
z
" id="DejaVuSans-101"/>
      <path d="M 9.421875 75.984375 
L 18.40625 75.984375 
L 18.40625 0 
L 9.421875 0 
z
" id="DejaVuSans-108"/>
      <path d="M 34.28125 27.484375 
Q 23.390625 27.484375 19.1875 25 
Q 14.984375 22.515625 14.984375 16.5 
Q 14.984375 11.71875 18.140625 8.90625 
Q 21.296875 6.109375 26.703125 6.109375 
Q 34.1875 6.109375 38.703125 11.40625 
Q 43.21875 16.703125 43.21875 25.484375 
L 43.21875 27.484375 
z
M 52.203125 31.203125 
L 52.203125 0 
L 43.21875 0 
L 43.21875 8.296875 
Q 40.140625 3.328125 35.546875 0.953125 
Q 30.953125 -1.421875 24.3125 -1.421875 
Q 15.921875 -1.421875 10.953125 3.296875 
Q 6 8.015625 6 15.921875 
Q 6 25.140625 12.171875 29.828125 
Q 18.359375 34.515625 30.609375 34.515625 
L 43.21875 34.515625 
L 43.21875 35.40625 
Q 43.21875 41.609375 39.140625 45 
Q 35.0625 48.390625 27.6875 48.390625 
Q 23 48.390625 18.546875 47.265625 
Q 14.109375 46.140625 10.015625 43.890625 
L 10.015625 52.203125 
Q 14.9375 54.109375 19.578125 55.046875 
Q 24.21875 56 28.609375 56 
Q 40.484375 56 46.34375 49.84375 
Q 52.203125 43.703125 52.203125 31.203125 
z
" id="DejaVuSans-97"/>
      <path d="M 18.3125 70.21875 
L 18.3125 54.6875 
L 36.8125 54.6875 
L 36.8125 47.703125 
L 18.3125 47.703125 
L 18.3125 18.015625 
Q 18.3125 11.328125 20.140625 9.421875 
Q 21.96875 7.515625 27.59375 7.515625 
L 36.8125 7.515625 
L 36.8125 0 
L 27.59375 0 
Q 17.1875 0 13.234375 3.875 
Q 9.28125 7.765625 9.28125 18.015625 
L 9.28125 47.703125 
L 2.6875 47.703125 
L 2.6875 54.6875 
L 9.28125 54.6875 
L 9.28125 70.21875 
z
" id="DejaVuSans-116"/>
      <path d="M 9.421875 54.6875 
L 18.40625 54.6875 
L 18.40625 0 
L 9.421875 0 
z
M 9.421875 75.984375 
L 18.40625 75.984375 
L 18.40625 64.59375 
L 9.421875 64.59375 
z
" id="DejaVuSans-105"/>
      <path d="M 2.984375 54.6875 
L 12.5 54.6875 
L 29.59375 8.796875 
L 46.6875 54.6875 
L 56.203125 54.6875 
L 35.6875 0 
L 23.484375 0 
z
" id="DejaVuSans-118"/>
      <path id="DejaVuSans-32"/>
      <path d="M 30.609375 48.390625 
Q 23.390625 48.390625 19.1875 42.75 
Q 14.984375 37.109375 14.984375 27.296875 
Q 14.984375 17.484375 19.15625 11.84375 
Q 23.34375 6.203125 30.609375 6.203125 
Q 37.796875 6.203125 41.984375 11.859375 
Q 46.1875 17.53125 46.1875 27.296875 
Q 46.1875 37.015625 41.984375 42.703125 
Q 37.796875 48.390625 30.609375 48.390625 
z
M 30.609375 56 
Q 42.328125 56 49.015625 48.375 
Q 55.71875 40.765625 55.71875 27.296875 
Q 55.71875 13.875 49.015625 6.21875 
Q 42.328125 -1.421875 30.609375 -1.421875 
Q 18.84375 -1.421875 12.171875 6.21875 
Q 5.515625 13.875 5.515625 27.296875 
Q 5.515625 40.765625 12.171875 48.375 
Q 18.84375 56 30.609375 56 
z
" id="DejaVuSans-111"/>
      <path d="M 44.28125 53.078125 
L 44.28125 44.578125 
Q 40.484375 46.53125 36.375 47.5 
Q 32.28125 48.484375 27.875 48.484375 
Q 21.1875 48.484375 17.84375 46.4375 
Q 14.5 44.390625 14.5 40.28125 
Q 14.5 37.15625 16.890625 35.375 
Q 19.28125 33.59375 26.515625 31.984375 
L 29.59375 31.296875 
Q 39.15625 29.25 43.1875 25.515625 
Q 47.21875 21.78125 47.21875 15.09375 
Q 47.21875 7.46875 41.1875 3.015625 
Q 35.15625 -1.421875 24.609375 -1.421875 
Q 20.21875 -1.421875 15.453125 -0.5625 
Q 10.6875 0.296875 5.421875 2 
L 5.421875 11.28125 
Q 10.40625 8.6875 15.234375 7.390625 
Q 20.0625 6.109375 24.8125 6.109375 
Q 31.15625 6.109375 34.5625 8.28125 
Q 37.984375 10.453125 37.984375 14.40625 
Q 37.984375 18.0625 35.515625 20.015625 
Q 33.0625 21.96875 24.703125 23.78125 
L 21.578125 24.515625 
Q 13.234375 26.265625 9.515625 29.90625 
Q 5.8125 33.546875 5.8125 39.890625 
Q 5.8125 47.609375 11.28125 51.796875 
Q 16.75 56 26.8125 56 
Q 31.78125 56 36.171875 55.265625 
Q 40.578125 54.546875 44.28125 53.078125 
z
" id="DejaVuSans-115"/>
      <path d="M 45.40625 46.390625 
L 45.40625 75.984375 
L 54.390625 75.984375 
L 54.390625 0 
L 45.40625 0 
L 45.40625 8.203125 
Q 42.578125 3.328125 38.25 0.953125 
Q 33.9375 -1.421875 27.875 -1.421875 
Q 17.96875 -1.421875 11.734375 6.484375 
Q 5.515625 14.40625 5.515625 27.296875 
Q 5.515625 40.1875 11.734375 48.09375 
Q 17.96875 56 27.875 56 
Q 33.9375 56 38.25 53.625 
Q 42.578125 51.265625 45.40625 46.390625 
z
M 14.796875 27.296875 
Q 14.796875 17.390625 18.875 11.75 
Q 22.953125 6.109375 30.078125 6.109375 
Q 37.203125 6.109375 41.296875 11.75 
Q 45.40625 17.390625 45.40625 27.296875 
Q 45.40625 37.203125 41.296875 42.84375 
Q 37.203125 48.484375 30.078125 48.484375 
Q 22.953125 48.484375 18.875 42.84375 
Q 14.796875 37.203125 14.796875 27.296875 
z
" id="DejaVuSans-100"/>
      <path d="M 54.890625 33.015625 
L 54.890625 0 
L 45.90625 0 
L 45.90625 32.71875 
Q 45.90625 40.484375 42.875 44.328125 
Q 39.84375 48.1875 33.796875 48.1875 
Q 26.515625 48.1875 22.3125 43.546875 
Q 18.109375 38.921875 18.109375 30.90625 
L 18.109375 0 
L 9.078125 0 
L 9.078125 54.6875 
L 18.109375 54.6875 
L 18.109375 46.1875 
Q 21.34375 51.125 25.703125 53.5625 
Q 30.078125 56 35.796875 56 
Q 45.21875 56 50.046875 50.171875 
Q 54.890625 44.34375 54.890625 33.015625 
z
" id="DejaVuSans-110"/>
      <path d="M 45.40625 27.984375 
Q 45.40625 37.75 41.375 43.109375 
Q 37.359375 48.484375 30.078125 48.484375 
Q 22.859375 48.484375 18.828125 43.109375 
Q 14.796875 37.75 14.796875 27.984375 
Q 14.796875 18.265625 18.828125 12.890625 
Q 22.859375 7.515625 30.078125 7.515625 
Q 37.359375 7.515625 41.375 12.890625 
Q 45.40625 18.265625 45.40625 27.984375 
z
M 54.390625 6.78125 
Q 54.390625 -7.171875 48.1875 -13.984375 
Q 42 -20.796875 29.203125 -20.796875 
Q 24.46875 -20.796875 20.265625 -20.09375 
Q 16.0625 -19.390625 12.109375 -17.921875 
L 12.109375 -9.1875 
Q 16.0625 -11.328125 19.921875 -12.34375 
Q 23.78125 -13.375 27.78125 -13.375 
Q 36.625 -13.375 41.015625 -8.765625 
Q 45.40625 -4.15625 45.40625 5.171875 
L 45.40625 9.625 
Q 42.625 4.78125 38.28125 2.390625 
Q 33.9375 0 27.875 0 
Q 17.828125 0 11.671875 7.65625 
Q 5.515625 15.328125 5.515625 27.984375 
Q 5.515625 40.671875 11.671875 48.328125 
Q 17.828125 56 27.875 56 
Q 33.9375 56 38.28125 53.609375 
Q 42.625 51.21875 45.40625 46.390625 
L 45.40625 54.6875 
L 54.390625 54.6875 
z
" id="DejaVuSans-103"/>
     </defs>
     <g transform="translate(16.318125 227.816125)rotate(-90)scale(0.12 -0.12)">
      <use xlink:href="#DejaVuSans-82"/>
      <use x="69.419922" xlink:href="#DejaVuSans-101"/>
      <use x="130.943359" xlink:href="#DejaVuSans-108"/>
      <use x="158.726562" xlink:href="#DejaVuSans-97"/>
      <use x="220.005859" xlink:href="#DejaVuSans-116"/>
      <use x="259.214844" xlink:href="#DejaVuSans-105"/>
      <use x="286.998047" xlink:href="#DejaVuSans-118"/>
      <use x="346.177734" xlink:href="#DejaVuSans-101"/>
      <use x="407.701172" xlink:href="#DejaVuSans-32"/>
      <use x="439.488281" xlink:href="#DejaVuSans-108"/>
      <use x="467.271484" xlink:href="#DejaVuSans-111"/>
      <use x="528.453125" xlink:href="#DejaVuSans-115"/>
      <use x="580.552734" xlink:href="#DejaVuSans-115"/>
      <use x="632.652344" xlink:href="#DejaVuSans-32"/>
      <use x="664.439453" xlink:href="#DejaVuSans-100"/>
      <use x="727.916016" xlink:href="#DejaVuSans-105"/>
      <use x="755.699219" xlink:href="#DejaVuSans-115"/>
      <use x="807.798828" xlink:href="#DejaVuSans-97"/>
      <use x="869.078125" xlink:href="#DejaVuSans-100"/>
      <use x="932.554688" xlink:href="#DejaVuSans-118"/>
      <use x="991.734375" xlink:href="#DejaVuSans-97"/>
      <use x="1053.013672" xlink:href="#DejaVuSans-110"/>
      <use x="1116.392578" xlink:href="#DejaVuSans-116"/>
      <use x="1155.601562" xlink:href="#DejaVuSans-97"/>
      <use x="1216.880859" xlink:href="#DejaVuSans-103"/>
      <use x="1280.357422" xlink:href="#DejaVuSans-101"/>
     </g>
    </g>
   </g>
   <g id="PathCollection_2">
    <defs>
     <path d="M 0 1.804772 
C 0.478631 1.804772 0.937723 1.61461 1.276167 1.276167 
C 1.61461 0.937723 1.804772 0.478631 1.804772 0 
C 1.804772 -0.478631 1.61461 -0.937723 1.276167 -1.276167 
C 0.937723 -1.61461 0.478631 -1.804772 0 -1.804772 
C -0.478631 -1.804772 -0.937723 -1.61461 -1.276167 -1.276167 
C -1.61461 -0.937723 -1.804772 -0.478631 -1.804772 0 
C -1.804772 0.478631 -1.61461 0.937723 -1.276167 1.276167 
C -0.937723 1.61461 -0.478631 1.804772 0 1.804772 
z
" id="C1_0_183d0607a7"/>
    </defs>
    <g clip-path="url(#pde8b5aba51)">
     <use style="fill:#cc4778;stroke:#cc4778;stroke-width:1.08;" x="77.077063" xlink:href="#C1_0_183d0607a7" y="142.541733"/>
    </g>
    <g clip-path="url(#pde8b5aba51)">
     <use style="fill:#cc4778;stroke:#cc4778;stroke-width:1.08;" x="117.313063" xlink:href="#C1_0_183d0607a7" y="137.063981"/>
    </g>
    <g clip-path="url(#pde8b5aba51)">
     <use style="fill:#cc4778;stroke:#cc4778;stroke-width:1.08;" x="157.549063" xlink:href="#C1_0_183d0607a7" y="152.495128"/>
    </g>
    <g clip-path="url(#pde8b5aba51)">
     <use style="fill:#cc4778;stroke:#cc4778;stroke-width:1.08;" x="197.785063" xlink:href="#C1_0_183d0607a7" y="142.976902"/>
    </g>
    <g clip-path="url(#pde8b5aba51)">
     <use style="fill:#cc4778;stroke:#cc4778;stroke-width:1.08;" x="238.021063" xlink:href="#C1_0_183d0607a7" y="158.965056"/>
    </g>
    <g clip-path="url(#pde8b5aba51)">
     <use style="fill:#cc4778;stroke:#cc4778;stroke-width:1.08;" x="278.257063" xlink:href="#C1_0_183d0607a7" y="168.079796"/>
    </g>
    <g clip-path="url(#pde8b5aba51)">
     <use style="fill:#cc4778;stroke:#cc4778;stroke-width:1.08;" x="318.493063" xlink:href="#C1_0_183d0607a7" y="165.830548"/>
    </g>
    <g clip-path="url(#pde8b5aba51)">
     <use style="fill:#cc4778;stroke:#cc4778;stroke-width:1.08;" x="358.729063" xlink:href="#C1_0_183d0607a7" y="203.141119"/>
    </g>
    <g clip-path="url(#pde8b5aba51)">
     <use style="fill:#cc4778;stroke:#cc4778;stroke-width:1.08;" x="398.965063" xlink:href="#C1_0_183d0607a7" y="192.121111"/>
    </g>
    <g clip-path="url(#pde8b5aba51)">
     <use style="fill:#cc4778;stroke:#cc4778;stroke-width:1.08;" x="439.201063" xlink:href="#C1_0_183d0607a7" y="194.710786"/>
    </g>
   </g>
   <g id="line2d_36">
    <path clip-path="url(#pde8b5aba51)" d="M 77.077063 143.217205 
L 117.313063 177.17342 
L 157.549063 194.303835 
L 197.785063 135.448915 
L 238.021063 108.95814 
L 278.257063 148.488022 
L 318.493063 154.758047 
L 358.729063 149.14405 
L 398.965063 99.364633 
L 439.201063 195.738467 
" style="fill:none;stroke:#0d0887;stroke-linecap:square;"/>
   </g>
   <g id="line2d_37">
    <path clip-path="url(#pde8b5aba51)" d="M 77.077063 142.541733 
L 117.313063 137.063981 
L 157.549063 152.495128 
L 197.785063 142.976902 
L 238.021063 158.965056 
L 278.257063 168.079796 
L 318.493063 165.830548 
L 358.729063 203.141119 
L 398.965063 192.121111 
L 439.201063 194.710786 
" style="fill:none;stroke:#9c179e;stroke-linecap:square;"/>
   </g>
   <g id="line2d_38">
    <path clip-path="url(#pde8b5aba51)" d="M 77.077063 102.663509 
L 117.313063 110.015076 
L 157.549063 106.436063 
L 197.785063 107.223737 
L 238.021063 122.888904 
L 278.257063 131.770231 
L 318.493063 138.907923 
L 358.729063 147.312384 
L 398.965063 156.205672 
L 439.201063 167.024152 
" style="fill:none;stroke:#f0f921;stroke-linecap:square;"/>
   </g>
   <g id="line2d_39">
    <path clip-path="url(#pde8b5aba51)" d="M 77.077063 142.541733 
L 117.313063 137.063981 
L 157.549063 152.495128 
L 197.785063 142.976902 
L 238.021063 158.965056 
L 278.257063 168.079796 
L 318.493063 165.830548 
L 358.729063 203.141119 
L 398.965063 192.121111 
L 439.201063 194.710786 
" style="fill:none;stroke:#cc4778;stroke-dasharray:5.328,2.304;stroke-dashoffset:0;stroke-width:1.44;"/>
   </g>
   <g id="line2d_40">
    <path clip-path="url(#pde8b5aba51)" d="M 0 0 
" style="fill:none;"/>
   </g>
   <g id="line2d_41">
    <path clip-path="url(#pde8b5aba51)" d="M 0 0 
" style="fill:none;"/>
   </g>
   <g id="line2d_42">
    <path clip-path="url(#pde8b5aba51)" d="M 0 0 
" style="fill:none;"/>
   </g>
   <g id="line2d_43">
    <path clip-path="url(#pde8b5aba51)" d="M 0 0 
" style="fill:none;"/>
   </g>
   <g id="line2d_44">
    <path clip-path="url(#pde8b5aba51)" d="M 0 0 
" style="fill:none;"/>
   </g>
   <g id="line2d_45">
    <path clip-path="url(#pde8b5aba51)" d="M 0 0 
" style="fill:none;"/>
   </g>
   <g id="line2d_46">
    <path clip-path="url(#pde8b5aba51)" d="M 0 0 
" style="fill:none;"/>
   </g>
   <g id="line2d_47">
    <path clip-path="url(#pde8b5aba51)" d="M 0 0 
" style="fill:none;"/>
   </g>
   <g id="line2d_48">
    <path clip-path="url(#pde8b5aba51)" d="M 0 0 
" style="fill:none;"/>
   </g>
   <g id="line2d_49">
    <path clip-path="url(#pde8b5aba51)" d="M 0 0 
" style="fill:none;"/>
   </g>
   <g id="patch_3">
    <path d="M 56.959063 270.46175 
L 56.959063 24.14175 
" style="fill:none;stroke:#bcbcbc;stroke-linecap:square;stroke-linejoin:miter;stroke-width:0.8;"/>
   </g>
   <g id="patch_4">
    <path d="M 56.959063 270.46175 
L 459.319063 270.46175 
" style="fill:none;stroke:#bcbcbc;stroke-linecap:square;stroke-linejoin:miter;stroke-width:0.8;"/>
   </g>
   <g id="PathCollection_3">
    <defs>
     <path d="M 0 1.804772 
C 0.478631 1.804772 0.937723 1.61461 1.276167 1.276167 
C 1.61461 0.937723 1.804772 0.478631 1.804772 0 
C 1.804772 -0.478631 1.61461 -0.937723 1.276167 -1.276167 
C 0.937723 -1.61461 0.478631 -1.804772 0 -1.804772 
C -0.478631 -1.804772 -0.937723 -1.61461 -1.276167 -1.276167 
C -1.61461 -0.937723 -1.804772 -0.478631 -1.804772 0 
C -1.804772 0.478631 -1.61461 0.937723 -1.276167 1.276167 
C -0.937723 1.61461 -0.478631 1.804772 0 1.804772 
z
" id="C2_0_a538b36f04"/>
    </defs>
    <g clip-path="url(#pde8b5aba51)">
     <use style="fill:#f89540;stroke:#f89540;stroke-width:1.08;" x="77.077063" xlink:href="#C2_0_a538b36f04" y="102.663509"/>
    </g>
    <g clip-path="url(#pde8b5aba51)">
     <use style="fill:#f89540;stroke:#f89540;stroke-width:1.08;" x="117.313063" xlink:href="#C2_0_a538b36f04" y="110.015076"/>
    </g>
    <g clip-path="url(#pde8b5aba51)">
     <use style="fill:#f89540;stroke:#f89540;stroke-width:1.08;" x="157.549063" xlink:href="#C2_0_a538b36f04" y="106.436063"/>
    </g>
    <g clip-path="url(#pde8b5aba51)">
     <use style="fill:#f89540;stroke:#f89540;stroke-width:1.08;" x="197.785063" xlink:href="#C2_0_a538b36f04" y="107.223737"/>
    </g>
    <g clip-path="url(#pde8b5aba51)">
     <use style="fill:#f89540;stroke:#f89540;stroke-width:1.08;" x="238.021063" xlink:href="#C2_0_a538b36f04" y="122.888904"/>
    </g>
    <g clip-path="url(#pde8b5aba51)">
     <use style="fill:#f89540;stroke:#f89540;stroke-width:1.08;" x="278.257063" xlink:href="#C2_0_a538b36f04" y="131.770231"/>
    </g>
    <g clip-path="url(#pde8b5aba51)">
     <use style="fill:#f89540;stroke:#f89540;stroke-width:1.08;" x="318.493063" xlink:href="#C2_0_a538b36f04" y="138.907923"/>
    </g>
    <g clip-path="url(#pde8b5aba51)">
     <use style="fill:#f89540;stroke:#f89540;stroke-width:1.08;" x="358.729063" xlink:href="#C2_0_a538b36f04" y="147.312384"/>
    </g>
    <g clip-path="url(#pde8b5aba51)">
     <use style="fill:#f89540;stroke:#f89540;stroke-width:1.08;" x="398.965063" xlink:href="#C2_0_a538b36f04" y="156.205672"/>
    </g>
    <g clip-path="url(#pde8b5aba51)">
     <use style="fill:#f89540;stroke:#f89540;stroke-width:1.08;" x="439.201063" xlink:href="#C2_0_a538b36f04" y="167.024152"/>
    </g>
   </g>
   <g id="line2d_50">
    <path clip-path="url(#pde8b5aba51)" d="M 77.077063 102.663509 
L 117.313063 110.015076 
L 157.549063 106.436063 
L 197.785063 107.223737 
L 238.021063 122.888904 
L 278.257063 131.770231 
L 318.493063 138.907923 
L 358.729063 147.312384 
L 398.965063 156.205672 
L 439.201063 167.024152 
" style="fill:none;stroke:#f89540;stroke-dasharray:5.328,2.304;stroke-dashoffset:0;stroke-width:1.44;"/>
   </g>
   <g id="line2d_51">
    <path clip-path="url(#pde8b5aba51)" d="M 0 0 
" style="fill:none;"/>
   </g>
   <g id="line2d_52">
    <path clip-path="url(#pde8b5aba51)" d="M 0 0 
" style="fill:none;"/>
   </g>
   <g id="line2d_53">
    <path clip-path="url(#pde8b5aba51)" d="M 0 0 
" style="fill:none;"/>
   </g>
   <g id="line2d_54">
    <path clip-path="url(#pde8b5aba51)" d="M 0 0 
" style="fill:none;"/>
   </g>
   <g id="line2d_55">
    <path clip-path="url(#pde8b5aba51)" d="M 0 0 
" style="fill:none;"/>
   </g>
   <g id="line2d_56">
    <path clip-path="url(#pde8b5aba51)" d="M 0 0 
" style="fill:none;"/>
   </g>
   <g id="line2d_57">
    <path clip-path="url(#pde8b5aba51)" d="M 0 0 
" style="fill:none;"/>
   </g>
   <g id="line2d_58">
    <path clip-path="url(#pde8b5aba51)" d="M 0 0 
" style="fill:none;"/>
   </g>
   <g id="line2d_59">
    <path clip-path="url(#pde8b5aba51)" d="M 0 0 
" style="fill:none;"/>
   </g>
   <g id="line2d_60">
    <path clip-path="url(#pde8b5aba51)" d="M 0 0 
" style="fill:none;"/>
   </g>
   <g id="text_20">
    <!-- Decrease of relative errors  -->
    <defs>
     <path d="M 19.671875 64.796875 
L 19.671875 8.109375 
L 31.59375 8.109375 
Q 46.6875 8.109375 53.6875 14.9375 
Q 60.6875 21.78125 60.6875 36.53125 
Q 60.6875 51.171875 53.6875 57.984375 
Q 46.6875 64.796875 31.59375 64.796875 
z
M 9.8125 72.90625 
L 30.078125 72.90625 
Q 51.265625 72.90625 61.171875 64.09375 
Q 71.09375 55.28125 71.09375 36.53125 
Q 71.09375 17.671875 61.125 8.828125 
Q 51.171875 0 30.078125 0 
L 9.8125 0 
z
" id="DejaVuSans-68"/>
     <path d="M 48.78125 52.59375 
L 48.78125 44.1875 
Q 44.96875 46.296875 41.140625 47.34375 
Q 37.3125 48.390625 33.40625 48.390625 
Q 24.65625 48.390625 19.8125 42.84375 
Q 14.984375 37.3125 14.984375 27.296875 
Q 14.984375 17.28125 19.8125 11.734375 
Q 24.65625 6.203125 33.40625 6.203125 
Q 37.3125 6.203125 41.140625 7.25 
Q 44.96875 8.296875 48.78125 10.40625 
L 48.78125 2.09375 
Q 45.015625 0.34375 40.984375 -0.53125 
Q 36.96875 -1.421875 32.421875 -1.421875 
Q 20.0625 -1.421875 12.78125 6.34375 
Q 5.515625 14.109375 5.515625 27.296875 
Q 5.515625 40.671875 12.859375 48.328125 
Q 20.21875 56 33.015625 56 
Q 37.15625 56 41.109375 55.140625 
Q 45.0625 54.296875 48.78125 52.59375 
z
" id="DejaVuSans-99"/>
     <path d="M 41.109375 46.296875 
Q 39.59375 47.171875 37.8125 47.578125 
Q 36.03125 48 33.890625 48 
Q 26.265625 48 22.1875 43.046875 
Q 18.109375 38.09375 18.109375 28.8125 
L 18.109375 0 
L 9.078125 0 
L 9.078125 54.6875 
L 18.109375 54.6875 
L 18.109375 46.1875 
Q 20.953125 51.171875 25.484375 53.578125 
Q 30.03125 56 36.53125 56 
Q 37.453125 56 38.578125 55.875 
Q 39.703125 55.765625 41.0625 55.515625 
z
" id="DejaVuSans-114"/>
     <path d="M 37.109375 75.984375 
L 37.109375 68.5 
L 28.515625 68.5 
Q 23.6875 68.5 21.796875 66.546875 
Q 19.921875 64.59375 19.921875 59.515625 
L 19.921875 54.6875 
L 34.71875 54.6875 
L 34.71875 47.703125 
L 19.921875 47.703125 
L 19.921875 0 
L 10.890625 0 
L 10.890625 47.703125 
L 2.296875 47.703125 
L 2.296875 54.6875 
L 10.890625 54.6875 
L 10.890625 58.5 
Q 10.890625 67.625 15.140625 71.796875 
Q 19.390625 75.984375 28.609375 75.984375 
z
" id="DejaVuSans-102"/>
    </defs>
    <g transform="translate(159.353938 18.14175)scale(0.144 -0.144)">
     <use xlink:href="#DejaVuSans-68"/>
     <use x="77.001953" xlink:href="#DejaVuSans-101"/>
     <use x="138.525391" xlink:href="#DejaVuSans-99"/>
     <use x="193.505859" xlink:href="#DejaVuSans-114"/>
     <use x="234.587891" xlink:href="#DejaVuSans-101"/>
     <use x="296.111328" xlink:href="#DejaVuSans-97"/>
     <use x="357.390625" xlink:href="#DejaVuSans-115"/>
     <use x="409.490234" xlink:href="#DejaVuSans-101"/>
     <use x="471.013672" xlink:href="#DejaVuSans-32"/>
     <use x="502.800781" xlink:href="#DejaVuSans-111"/>
     <use x="563.982422" xlink:href="#DejaVuSans-102"/>
     <use x="599.1875" xlink:href="#DejaVuSans-32"/>
     <use x="630.974609" xlink:href="#DejaVuSans-114"/>
     <use x="672.056641" xlink:href="#DejaVuSans-101"/>
     <use x="733.580078" xlink:href="#DejaVuSans-108"/>
     <use x="761.363281" xlink:href="#DejaVuSans-97"/>
     <use x="822.642578" xlink:href="#DejaVuSans-116"/>
     <use x="861.851562" xlink:href="#DejaVuSans-105"/>
     <use x="889.634766" xlink:href="#DejaVuSans-118"/>
     <use x="948.814453" xlink:href="#DejaVuSans-101"/>
     <use x="1010.337891" xlink:href="#DejaVuSans-32"/>
     <use x="1042.125" xlink:href="#DejaVuSans-101"/>
     <use x="1103.648438" xlink:href="#DejaVuSans-114"/>
     <use x="1144.746094" xlink:href="#DejaVuSans-114"/>
     <use x="1185.828125" xlink:href="#DejaVuSans-111"/>
     <use x="1247.009766" xlink:href="#DejaVuSans-114"/>
     <use x="1288.123047" xlink:href="#DejaVuSans-115"/>
     <use x="1340.222656" xlink:href="#DejaVuSans-32"/>
    </g>
   </g>
   <g id="legend_1">
    <g id="patch_5">
     <path d="M 394.869063 90.85425 
L 452.319063 90.85425 
Q 454.319063 90.85425 454.319063 88.85425 
L 454.319063 31.14175 
Q 454.319063 29.14175 452.319063 29.14175 
L 394.869063 29.14175 
Q 392.869063 29.14175 392.869063 31.14175 
L 392.869063 88.85425 
Q 392.869063 90.85425 394.869063 90.85425 
z
" style="fill:#eeeeee;opacity:0.8;stroke:#cccccc;stroke-linejoin:miter;stroke-width:0.5;"/>
    </g>
    <g id="text_21">
     <!-- #nodes -->
     <defs>
      <path d="M 51.125 44 
L 36.921875 44 
L 32.8125 27.6875 
L 47.125 27.6875 
z
M 43.796875 71.78125 
L 38.71875 51.515625 
L 52.984375 51.515625 
L 58.109375 71.78125 
L 65.921875 71.78125 
L 60.890625 51.515625 
L 76.125 51.515625 
L 76.125 44 
L 58.984375 44 
L 54.984375 27.6875 
L 70.515625 27.6875 
L 70.515625 20.21875 
L 53.078125 20.21875 
L 48 0 
L 40.1875 0 
L 45.21875 20.21875 
L 30.90625 20.21875 
L 25.875 0 
L 18.015625 0 
L 23.09375 20.21875 
L 7.71875 20.21875 
L 7.71875 27.6875 
L 24.90625 27.6875 
L 29 44 
L 13.28125 44 
L 13.28125 51.515625 
L 30.90625 51.515625 
L 35.890625 71.78125 
z
" id="DejaVuSans-35"/>
     </defs>
     <g transform="translate(404.320625 40.740187)scale(0.1 -0.1)">
      <use xlink:href="#DejaVuSans-35"/>
      <use x="83.789062" xlink:href="#DejaVuSans-110"/>
      <use x="147.167969" xlink:href="#DejaVuSans-111"/>
      <use x="208.349609" xlink:href="#DejaVuSans-100"/>
      <use x="271.826172" xlink:href="#DejaVuSans-101"/>
      <use x="333.349609" xlink:href="#DejaVuSans-115"/>
     </g>
    </g>
    <g id="PathCollection_4">
     <path d="M 406.869063 54.598085 
C 407.347694 54.598085 407.806786 54.407923 408.145229 54.069479 
C 408.483673 53.731036 408.673835 53.271944 408.673835 52.793312 
C 408.673835 52.314681 408.483673 51.855589 408.145229 51.517146 
C 407.806786 51.178702 407.347694 50.98854 406.869063 50.98854 
C 406.390431 50.98854 405.931339 51.178702 405.592896 51.517146 
C 405.254452 51.855589 405.06429 52.314681 405.06429 52.793312 
C 405.06429 53.271944 405.254452 53.731036 405.592896 54.069479 
C 405.931339 54.407923 406.390431 54.598085 406.869063 54.598085 
z
" style="fill:#7e03a8;stroke:#7e03a8;stroke-width:1.08;"/>
    </g>
    <g id="text_22">
     <!-- 250 -->
     <g transform="translate(424.869063 55.418312)scale(0.1 -0.1)">
      <use xlink:href="#DejaVuSans-50"/>
      <use x="63.623047" xlink:href="#DejaVuSans-53"/>
      <use x="127.246094" xlink:href="#DejaVuSans-48"/>
     </g>
    </g>
    <g id="PathCollection_5">
     <path d="M 406.869063 69.27621 
C 407.347694 69.27621 407.806786 69.086048 408.145229 68.747604 
C 408.483673 68.409161 408.673835 67.950069 408.673835 67.471437 
C 408.673835 66.992806 408.483673 66.533714 408.145229 66.195271 
C 407.806786 65.856827 407.347694 65.666665 406.869063 65.666665 
C 406.390431 65.666665 405.931339 65.856827 405.592896 66.195271 
C 405.254452 66.533714 405.06429 66.992806 405.06429 67.471437 
C 405.06429 67.950069 405.254452 68.409161 405.592896 68.747604 
C 405.931339 69.086048 406.390431 69.27621 406.869063 69.27621 
z
" style="fill:#cc4778;stroke:#cc4778;stroke-width:1.08;"/>
    </g>
    <g id="text_23">
     <!-- 500 -->
     <g transform="translate(424.869063 70.096437)scale(0.1 -0.1)">
      <use xlink:href="#DejaVuSans-53"/>
      <use x="63.623047" xlink:href="#DejaVuSans-48"/>
      <use x="127.246094" xlink:href="#DejaVuSans-48"/>
     </g>
    </g>
    <g id="PathCollection_6">
     <path d="M 406.869063 83.954335 
C 407.347694 83.954335 407.806786 83.764173 408.145229 83.425729 
C 408.483673 83.087286 408.673835 82.628194 408.673835 82.149563 
C 408.673835 81.670931 408.483673 81.211839 408.145229 80.873396 
C 407.806786 80.534952 407.347694 80.34479 406.869063 80.34479 
C 406.390431 80.34479 405.931339 80.534952 405.592896 80.873396 
C 405.254452 81.211839 405.06429 81.670931 405.06429 82.149563 
C 405.06429 82.628194 405.254452 83.087286 405.592896 83.425729 
C 405.931339 83.764173 406.390431 83.954335 406.869063 83.954335 
z
" style="fill:#f89540;stroke:#f89540;stroke-width:1.08;"/>
    </g>
    <g id="text_24">
     <!-- 1000 -->
     <g transform="translate(424.869063 84.774563)scale(0.1 -0.1)">
      <use xlink:href="#DejaVuSans-49"/>
      <use x="63.623047" xlink:href="#DejaVuSans-48"/>
      <use x="127.246094" xlink:href="#DejaVuSans-48"/>
      <use x="190.869141" xlink:href="#DejaVuSans-48"/>
     </g>
    </g>
   </g>
  </g>
 </g>
 <defs>
  <clipPath id="pde8b5aba51">
   <rect height="246.32" width="402.36" x="56.959063" y="24.14175"/>
  </clipPath>
 </defs>
</svg>
