<?xml version="1.0" encoding="utf-8" standalone="no"?>
<!DOCTYPE svg PUBLIC "-//W3C//DTD SVG 1.1//EN"
  "http://www.w3.org/Graphics/SVG/1.1/DTD/svg11.dtd">
<!-- Created with matplotlib (https://matplotlib.org/) -->
<svg height="367.795313pt" version="1.1" viewBox="0 0 1869.9 367.795313" width="1869.9pt" xmlns="http://www.w3.org/2000/svg" xmlns:xlink="http://www.w3.org/1999/xlink">
 <defs>
  <style type="text/css">
*{stroke-linecap:butt;stroke-linejoin:round;}
  </style>
 </defs>
 <g id="figure_1">
  <g id="patch_1">
   <path d="M 0 367.795313 
L 1869.9 367.795313 
L 1869.9 0 
L 0 0 
z
" style="fill:#ffffff;"/>
  </g>
  <g id="axes_1">
   <g id="patch_2">
    <path d="M 69.655951 330.239063 
L 373.650438 330.239063 
L 373.650438 36.839063 
L 69.655951 36.839063 
z
" style="fill:#ffffff;"/>
   </g>
   <g id="PolyCollection_1">
    <defs>
     <path d="M 217.047218 -317.619886 
L 217.047218 -298.954466 
L 226.259172 -298.971605 
L 226.259172 -317.464724 
L 226.259172 -317.464724 
L 217.047218 -317.619886 
z
" id="m0faf1dbbea" style="stroke:#edd1cb;stroke-opacity:0.2;"/>
    </defs>
    <g clip-path="url(#p9216726fcd)">
     <use style="fill:#edd1cb;fill-opacity:0.2;stroke:#edd1cb;stroke-opacity:0.2;" x="0" xlink:href="#m0faf1dbbea" y="367.795313"/>
    </g>
   </g>
   <g id="PolyCollection_2">
    <defs>
     <path d="M 147.957562 -302.47378 
L 147.957562 -279.162852 
L 157.169516 -297.107867 
L 166.38147 -276.112179 
L 175.593424 -297.966586 
L 184.805378 -286.32835 
L 194.017332 -290.243746 
L 203.229286 -250.656929 
L 212.441241 -284.180061 
L 221.653195 -290.657085 
L 230.865149 -276.290658 
L 240.077103 -285.309966 
L 249.289057 -280.79565 
L 258.501011 -277.627299 
L 267.712965 -271.936604 
L 276.92492 -249.13134 
L 286.136874 -294.348859 
L 295.348828 -257.303476 
L 295.348828 -305.617665 
L 295.348828 -305.617665 
L 286.136874 -307.312753 
L 276.92492 -304.632156 
L 267.712965 -312.139867 
L 258.501011 -298.804233 
L 249.289057 -315.8632 
L 240.077103 -307.007528 
L 230.865149 -309.123539 
L 221.653195 -307.666447 
L 212.441241 -294.97141 
L 203.229286 -295.053058 
L 194.017332 -313.139329 
L 184.805378 -307.283487 
L 175.593424 -307.858467 
L 166.38147 -299.567066 
L 157.169516 -312.4384 
L 147.957562 -302.47378 
z
" id="mafe33723fd" style="stroke:#a9678f;stroke-opacity:0.2;"/>
    </defs>
    <g clip-path="url(#p9216726fcd)">
     <use style="fill:#a9678f;fill-opacity:0.2;stroke:#a9678f;stroke-opacity:0.2;" x="0" xlink:href="#mafe33723fd" y="367.795313"/>
    </g>
   </g>
   <g id="PolyCollection_3">
    <defs>
     <path d="M 83.473883 -98.629646 
L 83.473883 -50.892614 
L 92.685837 -207.758259 
L 101.897791 -241.509794 
L 111.109745 -245.519811 
L 120.321699 -246.995012 
L 129.533653 -257.270574 
L 138.745607 -239.829801 
L 147.957562 -284.559156 
L 157.169516 -273.278943 
L 166.38147 -250.793592 
L 175.593424 -273.110051 
L 184.805378 -271.180143 
L 194.017332 -254.932107 
L 203.229286 -269.704826 
L 212.441241 -254.529582 
L 221.653195 -265.799159 
L 230.865149 -268.014734 
L 240.077103 -248.814328 
L 249.289057 -273.217264 
L 258.501011 -267.366856 
L 267.712965 -271.976878 
L 276.92492 -227.870655 
L 286.136874 -257.277779 
L 295.348828 -257.039937 
L 304.560782 -227.765074 
L 313.772736 -238.352249 
L 322.98469 -252.712399 
L 332.196644 -219.831463 
L 341.408598 -233.312945 
L 350.620553 -212.083167 
L 359.832507 -227.521362 
L 359.832507 -265.200678 
L 359.832507 -265.200678 
L 350.620553 -254.630911 
L 341.408598 -266.530801 
L 332.196644 -267.084947 
L 322.98469 -281.824712 
L 313.772736 -272.397442 
L 304.560782 -270.597463 
L 295.348828 -286.479033 
L 286.136874 -285.447552 
L 276.92492 -286.912032 
L 267.712965 -293.974 
L 258.501011 -293.610497 
L 249.289057 -289.227842 
L 240.077103 -281.876098 
L 230.865149 -291.61041 
L 221.653195 -288.201748 
L 212.441241 -286.562588 
L 203.229286 -284.410336 
L 194.017332 -282.235211 
L 184.805378 -290.243536 
L 175.593424 -291.744193 
L 166.38147 -287.777871 
L 157.169516 -300.943804 
L 147.957562 -301.479813 
L 138.745607 -281.733021 
L 129.533653 -277.51331 
L 120.321699 -271.963833 
L 111.109745 -275.747471 
L 101.897791 -274.045124 
L 92.685837 -227.629566 
L 83.473883 -98.629646 
z
" id="me2a72b563a" style="stroke:#2d1e3e;stroke-opacity:0.2;"/>
    </defs>
    <g clip-path="url(#p9216726fcd)">
     <use style="fill:#2d1e3e;fill-opacity:0.2;stroke:#2d1e3e;stroke-opacity:0.2;" x="0" xlink:href="#me2a72b563a" y="367.795313"/>
    </g>
   </g>
   <g id="matplotlib.axis_1">
    <g id="xtick_1">
     <g id="line2d_1">
      <defs>
       <path d="M 0 0 
L 0 3.5 
" id="mf04a7544bc" style="stroke:#000000;stroke-width:0.8;"/>
      </defs>
      <g>
       <use style="stroke:#000000;stroke-width:0.8;" x="83.473883" xlink:href="#mf04a7544bc" y="330.239063"/>
      </g>
     </g>
     <g id="text_1">
      <!-- −15 -->
      <defs>
       <path d="M 10.59375 35.5 
L 73.1875 35.5 
L 73.1875 27.203125 
L 10.59375 27.203125 
z
" id="DejaVuSans-8722"/>
       <path d="M 12.40625 8.296875 
L 28.515625 8.296875 
L 28.515625 63.921875 
L 10.984375 60.40625 
L 10.984375 69.390625 
L 28.421875 72.90625 
L 38.28125 72.90625 
L 38.28125 8.296875 
L 54.390625 8.296875 
L 54.390625 0 
L 12.40625 0 
z
" id="DejaVuSans-49"/>
       <path d="M 10.796875 72.90625 
L 49.515625 72.90625 
L 49.515625 64.59375 
L 19.828125 64.59375 
L 19.828125 46.734375 
Q 21.96875 47.46875 24.109375 47.828125 
Q 26.265625 48.1875 28.421875 48.1875 
Q 40.625 48.1875 47.75 41.5 
Q 54.890625 34.8125 54.890625 23.390625 
Q 54.890625 11.625 47.5625 5.09375 
Q 40.234375 -1.421875 26.90625 -1.421875 
Q 22.3125 -1.421875 17.546875 -0.640625 
Q 12.796875 0.140625 7.71875 1.703125 
L 7.71875 11.625 
Q 12.109375 9.234375 16.796875 8.0625 
Q 21.484375 6.890625 26.703125 6.890625 
Q 35.15625 6.890625 40.078125 11.328125 
Q 45.015625 15.765625 45.015625 23.390625 
Q 45.015625 31 40.078125 35.4375 
Q 35.15625 39.890625 26.703125 39.890625 
Q 22.75 39.890625 18.8125 39.015625 
Q 14.890625 38.140625 10.796875 36.28125 
z
" id="DejaVuSans-53"/>
      </defs>
      <g transform="translate(72.921539 344.8375)scale(0.1 -0.1)">
       <use xlink:href="#DejaVuSans-8722"/>
       <use x="83.789062" xlink:href="#DejaVuSans-49"/>
       <use x="147.412109" xlink:href="#DejaVuSans-53"/>
      </g>
     </g>
    </g>
    <g id="xtick_2">
     <g id="line2d_2">
      <g>
       <use style="stroke:#000000;stroke-width:0.8;" x="129.533653" xlink:href="#mf04a7544bc" y="330.239063"/>
      </g>
     </g>
     <g id="text_2">
      <!-- −10 -->
      <defs>
       <path d="M 31.78125 66.40625 
Q 24.171875 66.40625 20.328125 58.90625 
Q 16.5 51.421875 16.5 36.375 
Q 16.5 21.390625 20.328125 13.890625 
Q 24.171875 6.390625 31.78125 6.390625 
Q 39.453125 6.390625 43.28125 13.890625 
Q 47.125 21.390625 47.125 36.375 
Q 47.125 51.421875 43.28125 58.90625 
Q 39.453125 66.40625 31.78125 66.40625 
z
M 31.78125 74.21875 
Q 44.046875 74.21875 50.515625 64.515625 
Q 56.984375 54.828125 56.984375 36.375 
Q 56.984375 17.96875 50.515625 8.265625 
Q 44.046875 -1.421875 31.78125 -1.421875 
Q 19.53125 -1.421875 13.0625 8.265625 
Q 6.59375 17.96875 6.59375 36.375 
Q 6.59375 54.828125 13.0625 64.515625 
Q 19.53125 74.21875 31.78125 74.21875 
z
" id="DejaVuSans-48"/>
      </defs>
      <g transform="translate(118.98131 344.8375)scale(0.1 -0.1)">
       <use xlink:href="#DejaVuSans-8722"/>
       <use x="83.789062" xlink:href="#DejaVuSans-49"/>
       <use x="147.412109" xlink:href="#DejaVuSans-48"/>
      </g>
     </g>
    </g>
    <g id="xtick_3">
     <g id="line2d_3">
      <g>
       <use style="stroke:#000000;stroke-width:0.8;" x="175.593424" xlink:href="#mf04a7544bc" y="330.239063"/>
      </g>
     </g>
     <g id="text_3">
      <!-- −5 -->
      <g transform="translate(168.22233 344.8375)scale(0.1 -0.1)">
       <use xlink:href="#DejaVuSans-8722"/>
       <use x="83.789062" xlink:href="#DejaVuSans-53"/>
      </g>
     </g>
    </g>
    <g id="xtick_4">
     <g id="line2d_4">
      <g>
       <use style="stroke:#000000;stroke-width:0.8;" x="221.653195" xlink:href="#mf04a7544bc" y="330.239063"/>
      </g>
     </g>
     <g id="text_4">
      <!-- 0 -->
      <g transform="translate(218.471945 344.8375)scale(0.1 -0.1)">
       <use xlink:href="#DejaVuSans-48"/>
      </g>
     </g>
    </g>
    <g id="xtick_5">
     <g id="line2d_5">
      <g>
       <use style="stroke:#000000;stroke-width:0.8;" x="267.712965" xlink:href="#mf04a7544bc" y="330.239063"/>
      </g>
     </g>
     <g id="text_5">
      <!-- 5 -->
      <g transform="translate(264.531715 344.8375)scale(0.1 -0.1)">
       <use xlink:href="#DejaVuSans-53"/>
      </g>
     </g>
    </g>
    <g id="xtick_6">
     <g id="line2d_6">
      <g>
       <use style="stroke:#000000;stroke-width:0.8;" x="313.772736" xlink:href="#mf04a7544bc" y="330.239063"/>
      </g>
     </g>
     <g id="text_6">
      <!-- 10 -->
      <g transform="translate(307.410236 344.8375)scale(0.1 -0.1)">
       <use xlink:href="#DejaVuSans-49"/>
       <use x="63.623047" xlink:href="#DejaVuSans-48"/>
      </g>
     </g>
    </g>
    <g id="xtick_7">
     <g id="line2d_7">
      <g>
       <use style="stroke:#000000;stroke-width:0.8;" x="359.832507" xlink:href="#mf04a7544bc" y="330.239063"/>
      </g>
     </g>
     <g id="text_7">
      <!-- 15 -->
      <g transform="translate(353.470007 344.8375)scale(0.1 -0.1)">
       <use xlink:href="#DejaVuSans-49"/>
       <use x="63.623047" xlink:href="#DejaVuSans-53"/>
      </g>
     </g>
    </g>
    <g id="text_8">
     <!-- spill -->
     <defs>
      <path d="M 44.28125 53.078125 
L 44.28125 44.578125 
Q 40.484375 46.53125 36.375 47.5 
Q 32.28125 48.484375 27.875 48.484375 
Q 21.1875 48.484375 17.84375 46.4375 
Q 14.5 44.390625 14.5 40.28125 
Q 14.5 37.15625 16.890625 35.375 
Q 19.28125 33.59375 26.515625 31.984375 
L 29.59375 31.296875 
Q 39.15625 29.25 43.1875 25.515625 
Q 47.21875 21.78125 47.21875 15.09375 
Q 47.21875 7.46875 41.1875 3.015625 
Q 35.15625 -1.421875 24.609375 -1.421875 
Q 20.21875 -1.421875 15.453125 -0.5625 
Q 10.6875 0.296875 5.421875 2 
L 5.421875 11.28125 
Q 10.40625 8.6875 15.234375 7.390625 
Q 20.0625 6.109375 24.8125 6.109375 
Q 31.15625 6.109375 34.5625 8.28125 
Q 37.984375 10.453125 37.984375 14.40625 
Q 37.984375 18.0625 35.515625 20.015625 
Q 33.0625 21.96875 24.703125 23.78125 
L 21.578125 24.515625 
Q 13.234375 26.265625 9.515625 29.90625 
Q 5.8125 33.546875 5.8125 39.890625 
Q 5.8125 47.609375 11.28125 51.796875 
Q 16.75 56 26.8125 56 
Q 31.78125 56 36.171875 55.265625 
Q 40.578125 54.546875 44.28125 53.078125 
z
" id="DejaVuSans-115"/>
      <path d="M 18.109375 8.203125 
L 18.109375 -20.796875 
L 9.078125 -20.796875 
L 9.078125 54.6875 
L 18.109375 54.6875 
L 18.109375 46.390625 
Q 20.953125 51.265625 25.265625 53.625 
Q 29.59375 56 35.59375 56 
Q 45.5625 56 51.78125 48.09375 
Q 58.015625 40.1875 58.015625 27.296875 
Q 58.015625 14.40625 51.78125 6.484375 
Q 45.5625 -1.421875 35.59375 -1.421875 
Q 29.59375 -1.421875 25.265625 0.953125 
Q 20.953125 3.328125 18.109375 8.203125 
z
M 48.6875 27.296875 
Q 48.6875 37.203125 44.609375 42.84375 
Q 40.53125 48.484375 33.40625 48.484375 
Q 26.265625 48.484375 22.1875 42.84375 
Q 18.109375 37.203125 18.109375 27.296875 
Q 18.109375 17.390625 22.1875 11.75 
Q 26.265625 6.109375 33.40625 6.109375 
Q 40.53125 6.109375 44.609375 11.75 
Q 48.6875 17.390625 48.6875 27.296875 
z
" id="DejaVuSans-112"/>
      <path d="M 9.421875 54.6875 
L 18.40625 54.6875 
L 18.40625 0 
L 9.421875 0 
z
M 9.421875 75.984375 
L 18.40625 75.984375 
L 18.40625 64.59375 
L 9.421875 64.59375 
z
" id="DejaVuSans-105"/>
      <path d="M 9.421875 75.984375 
L 18.40625 75.984375 
L 18.40625 0 
L 9.421875 0 
z
" id="DejaVuSans-108"/>
     </defs>
     <g transform="translate(211.707101 358.515625)scale(0.1 -0.1)">
      <use xlink:href="#DejaVuSans-115"/>
      <use x="52.099609" xlink:href="#DejaVuSans-112"/>
      <use x="115.576172" xlink:href="#DejaVuSans-105"/>
      <use x="143.359375" xlink:href="#DejaVuSans-108"/>
      <use x="171.142578" xlink:href="#DejaVuSans-108"/>
     </g>
    </g>
   </g>
   <g id="matplotlib.axis_2">
    <g id="ytick_1">
     <g id="line2d_8">
      <defs>
       <path d="M 0 0 
L -3.5 0 
" id="me02aa64f06" style="stroke:#000000;stroke-width:0.8;"/>
      </defs>
      <g>
       <use style="stroke:#000000;stroke-width:0.8;" x="69.655951" xlink:href="#me02aa64f06" y="314.629297"/>
      </g>
     </g>
     <g id="text_9">
      <!-- 0.750 -->
      <defs>
       <path d="M 10.6875 12.40625 
L 21 12.40625 
L 21 0 
L 10.6875 0 
z
" id="DejaVuSans-46"/>
       <path d="M 8.203125 72.90625 
L 55.078125 72.90625 
L 55.078125 68.703125 
L 28.609375 0 
L 18.3125 0 
L 43.21875 64.59375 
L 8.203125 64.59375 
z
" id="DejaVuSans-55"/>
      </defs>
      <g transform="translate(34.027826 318.428515)scale(0.1 -0.1)">
       <use xlink:href="#DejaVuSans-48"/>
       <use x="63.623047" xlink:href="#DejaVuSans-46"/>
       <use x="95.410156" xlink:href="#DejaVuSans-55"/>
       <use x="159.033203" xlink:href="#DejaVuSans-53"/>
       <use x="222.65625" xlink:href="#DejaVuSans-48"/>
      </g>
     </g>
    </g>
    <g id="ytick_2">
     <g id="line2d_9">
      <g>
       <use style="stroke:#000000;stroke-width:0.8;" x="69.655951" xlink:href="#me02aa64f06" y="277.18574"/>
      </g>
     </g>
     <g id="text_10">
      <!-- 0.775 -->
      <g transform="translate(34.027826 280.984958)scale(0.1 -0.1)">
       <use xlink:href="#DejaVuSans-48"/>
       <use x="63.623047" xlink:href="#DejaVuSans-46"/>
       <use x="95.410156" xlink:href="#DejaVuSans-55"/>
       <use x="159.033203" xlink:href="#DejaVuSans-55"/>
       <use x="222.65625" xlink:href="#DejaVuSans-53"/>
      </g>
     </g>
    </g>
    <g id="ytick_3">
     <g id="line2d_10">
      <g>
       <use style="stroke:#000000;stroke-width:0.8;" x="69.655951" xlink:href="#me02aa64f06" y="239.742183"/>
      </g>
     </g>
     <g id="text_11">
      <!-- 0.800 -->
      <defs>
       <path d="M 31.78125 34.625 
Q 24.75 34.625 20.71875 30.859375 
Q 16.703125 27.09375 16.703125 20.515625 
Q 16.703125 13.921875 20.71875 10.15625 
Q 24.75 6.390625 31.78125 6.390625 
Q 38.8125 6.390625 42.859375 10.171875 
Q 46.921875 13.96875 46.921875 20.515625 
Q 46.921875 27.09375 42.890625 30.859375 
Q 38.875 34.625 31.78125 34.625 
z
M 21.921875 38.8125 
Q 15.578125 40.375 12.03125 44.71875 
Q 8.5 49.078125 8.5 55.328125 
Q 8.5 64.0625 14.71875 69.140625 
Q 20.953125 74.21875 31.78125 74.21875 
Q 42.671875 74.21875 48.875 69.140625 
Q 55.078125 64.0625 55.078125 55.328125 
Q 55.078125 49.078125 51.53125 44.71875 
Q 48 40.375 41.703125 38.8125 
Q 48.828125 37.15625 52.796875 32.3125 
Q 56.78125 27.484375 56.78125 20.515625 
Q 56.78125 9.90625 50.3125 4.234375 
Q 43.84375 -1.421875 31.78125 -1.421875 
Q 19.734375 -1.421875 13.25 4.234375 
Q 6.78125 9.90625 6.78125 20.515625 
Q 6.78125 27.484375 10.78125 32.3125 
Q 14.796875 37.15625 21.921875 38.8125 
z
M 18.3125 54.390625 
Q 18.3125 48.734375 21.84375 45.5625 
Q 25.390625 42.390625 31.78125 42.390625 
Q 38.140625 42.390625 41.71875 45.5625 
Q 45.3125 48.734375 45.3125 54.390625 
Q 45.3125 60.0625 41.71875 63.234375 
Q 38.140625 66.40625 31.78125 66.40625 
Q 25.390625 66.40625 21.84375 63.234375 
Q 18.3125 60.0625 18.3125 54.390625 
z
" id="DejaVuSans-56"/>
      </defs>
      <g transform="translate(34.027826 243.541401)scale(0.1 -0.1)">
       <use xlink:href="#DejaVuSans-48"/>
       <use x="63.623047" xlink:href="#DejaVuSans-46"/>
       <use x="95.410156" xlink:href="#DejaVuSans-56"/>
       <use x="159.033203" xlink:href="#DejaVuSans-48"/>
       <use x="222.65625" xlink:href="#DejaVuSans-48"/>
      </g>
     </g>
    </g>
    <g id="ytick_4">
     <g id="line2d_11">
      <g>
       <use style="stroke:#000000;stroke-width:0.8;" x="69.655951" xlink:href="#me02aa64f06" y="202.298626"/>
      </g>
     </g>
     <g id="text_12">
      <!-- 0.825 -->
      <defs>
       <path d="M 19.1875 8.296875 
L 53.609375 8.296875 
L 53.609375 0 
L 7.328125 0 
L 7.328125 8.296875 
Q 12.9375 14.109375 22.625 23.890625 
Q 32.328125 33.6875 34.8125 36.53125 
Q 39.546875 41.84375 41.421875 45.53125 
Q 43.3125 49.21875 43.3125 52.78125 
Q 43.3125 58.59375 39.234375 62.25 
Q 35.15625 65.921875 28.609375 65.921875 
Q 23.96875 65.921875 18.8125 64.3125 
Q 13.671875 62.703125 7.8125 59.421875 
L 7.8125 69.390625 
Q 13.765625 71.78125 18.9375 73 
Q 24.125 74.21875 28.421875 74.21875 
Q 39.75 74.21875 46.484375 68.546875 
Q 53.21875 62.890625 53.21875 53.421875 
Q 53.21875 48.921875 51.53125 44.890625 
Q 49.859375 40.875 45.40625 35.40625 
Q 44.1875 33.984375 37.640625 27.21875 
Q 31.109375 20.453125 19.1875 8.296875 
z
" id="DejaVuSans-50"/>
      </defs>
      <g transform="translate(34.027826 206.097844)scale(0.1 -0.1)">
       <use xlink:href="#DejaVuSans-48"/>
       <use x="63.623047" xlink:href="#DejaVuSans-46"/>
       <use x="95.410156" xlink:href="#DejaVuSans-56"/>
       <use x="159.033203" xlink:href="#DejaVuSans-50"/>
       <use x="222.65625" xlink:href="#DejaVuSans-53"/>
      </g>
     </g>
    </g>
    <g id="ytick_5">
     <g id="line2d_12">
      <g>
       <use style="stroke:#000000;stroke-width:0.8;" x="69.655951" xlink:href="#me02aa64f06" y="164.855069"/>
      </g>
     </g>
     <g id="text_13">
      <!-- 0.850 -->
      <g transform="translate(34.027826 168.654287)scale(0.1 -0.1)">
       <use xlink:href="#DejaVuSans-48"/>
       <use x="63.623047" xlink:href="#DejaVuSans-46"/>
       <use x="95.410156" xlink:href="#DejaVuSans-56"/>
       <use x="159.033203" xlink:href="#DejaVuSans-53"/>
       <use x="222.65625" xlink:href="#DejaVuSans-48"/>
      </g>
     </g>
    </g>
    <g id="ytick_6">
     <g id="line2d_13">
      <g>
       <use style="stroke:#000000;stroke-width:0.8;" x="69.655951" xlink:href="#me02aa64f06" y="127.411512"/>
      </g>
     </g>
     <g id="text_14">
      <!-- 0.875 -->
      <g transform="translate(34.027826 131.21073)scale(0.1 -0.1)">
       <use xlink:href="#DejaVuSans-48"/>
       <use x="63.623047" xlink:href="#DejaVuSans-46"/>
       <use x="95.410156" xlink:href="#DejaVuSans-56"/>
       <use x="159.033203" xlink:href="#DejaVuSans-55"/>
       <use x="222.65625" xlink:href="#DejaVuSans-53"/>
      </g>
     </g>
    </g>
    <g id="ytick_7">
     <g id="line2d_14">
      <g>
       <use style="stroke:#000000;stroke-width:0.8;" x="69.655951" xlink:href="#me02aa64f06" y="89.967955"/>
      </g>
     </g>
     <g id="text_15">
      <!-- 0.900 -->
      <defs>
       <path d="M 10.984375 1.515625 
L 10.984375 10.5 
Q 14.703125 8.734375 18.5 7.8125 
Q 22.3125 6.890625 25.984375 6.890625 
Q 35.75 6.890625 40.890625 13.453125 
Q 46.046875 20.015625 46.78125 33.40625 
Q 43.953125 29.203125 39.59375 26.953125 
Q 35.25 24.703125 29.984375 24.703125 
Q 19.046875 24.703125 12.671875 31.3125 
Q 6.296875 37.9375 6.296875 49.421875 
Q 6.296875 60.640625 12.9375 67.421875 
Q 19.578125 74.21875 30.609375 74.21875 
Q 43.265625 74.21875 49.921875 64.515625 
Q 56.59375 54.828125 56.59375 36.375 
Q 56.59375 19.140625 48.40625 8.859375 
Q 40.234375 -1.421875 26.421875 -1.421875 
Q 22.703125 -1.421875 18.890625 -0.6875 
Q 15.09375 0.046875 10.984375 1.515625 
z
M 30.609375 32.421875 
Q 37.25 32.421875 41.125 36.953125 
Q 45.015625 41.5 45.015625 49.421875 
Q 45.015625 57.28125 41.125 61.84375 
Q 37.25 66.40625 30.609375 66.40625 
Q 23.96875 66.40625 20.09375 61.84375 
Q 16.21875 57.28125 16.21875 49.421875 
Q 16.21875 41.5 20.09375 36.953125 
Q 23.96875 32.421875 30.609375 32.421875 
z
" id="DejaVuSans-57"/>
      </defs>
      <g transform="translate(34.027826 93.767173)scale(0.1 -0.1)">
       <use xlink:href="#DejaVuSans-48"/>
       <use x="63.623047" xlink:href="#DejaVuSans-46"/>
       <use x="95.410156" xlink:href="#DejaVuSans-57"/>
       <use x="159.033203" xlink:href="#DejaVuSans-48"/>
       <use x="222.65625" xlink:href="#DejaVuSans-48"/>
      </g>
     </g>
    </g>
    <g id="ytick_8">
     <g id="line2d_15">
      <g>
       <use style="stroke:#000000;stroke-width:0.8;" x="69.655951" xlink:href="#me02aa64f06" y="52.524398"/>
      </g>
     </g>
     <g id="text_16">
      <!-- 0.925 -->
      <g transform="translate(34.027826 56.323616)scale(0.1 -0.1)">
       <use xlink:href="#DejaVuSans-48"/>
       <use x="63.623047" xlink:href="#DejaVuSans-46"/>
       <use x="95.410156" xlink:href="#DejaVuSans-57"/>
       <use x="159.033203" xlink:href="#DejaVuSans-50"/>
       <use x="222.65625" xlink:href="#DejaVuSans-53"/>
      </g>
     </g>
    </g>
    <g id="text_17">
     <!-- last -->
     <defs>
      <path d="M 34.28125 27.484375 
Q 23.390625 27.484375 19.1875 25 
Q 14.984375 22.515625 14.984375 16.5 
Q 14.984375 11.71875 18.140625 8.90625 
Q 21.296875 6.109375 26.703125 6.109375 
Q 34.1875 6.109375 38.703125 11.40625 
Q 43.21875 16.703125 43.21875 25.484375 
L 43.21875 27.484375 
z
M 52.203125 31.203125 
L 52.203125 0 
L 43.21875 0 
L 43.21875 8.296875 
Q 40.140625 3.328125 35.546875 0.953125 
Q 30.953125 -1.421875 24.3125 -1.421875 
Q 15.921875 -1.421875 10.953125 3.296875 
Q 6 8.015625 6 15.921875 
Q 6 25.140625 12.171875 29.828125 
Q 18.359375 34.515625 30.609375 34.515625 
L 43.21875 34.515625 
L 43.21875 35.40625 
Q 43.21875 41.609375 39.140625 45 
Q 35.0625 48.390625 27.6875 48.390625 
Q 23 48.390625 18.546875 47.265625 
Q 14.109375 46.140625 10.015625 43.890625 
L 10.015625 52.203125 
Q 14.9375 54.109375 19.578125 55.046875 
Q 24.21875 56 28.609375 56 
Q 40.484375 56 46.34375 49.84375 
Q 52.203125 43.703125 52.203125 31.203125 
z
" id="DejaVuSans-97"/>
      <path d="M 18.3125 70.21875 
L 18.3125 54.6875 
L 36.8125 54.6875 
L 36.8125 47.703125 
L 18.3125 47.703125 
L 18.3125 18.015625 
Q 18.3125 11.328125 20.140625 9.421875 
Q 21.96875 7.515625 27.59375 7.515625 
L 36.8125 7.515625 
L 36.8125 0 
L 27.59375 0 
Q 17.1875 0 13.234375 3.875 
Q 9.28125 7.765625 9.28125 18.015625 
L 9.28125 47.703125 
L 2.6875 47.703125 
L 2.6875 54.6875 
L 9.28125 54.6875 
L 9.28125 70.21875 
z
" id="DejaVuSans-116"/>
     </defs>
     <g transform="translate(27.948139 192.557031)rotate(-90)scale(0.1 -0.1)">
      <use xlink:href="#DejaVuSans-108"/>
      <use x="27.783203" xlink:href="#DejaVuSans-97"/>
      <use x="89.0625" xlink:href="#DejaVuSans-115"/>
      <use x="141.162109" xlink:href="#DejaVuSans-116"/>
     </g>
    </g>
   </g>
   <g id="line2d_16">
    <path clip-path="url(#p9216726fcd)" d="M 217.047218 59.225226 
L 226.259172 59.225226 
" style="fill:none;stroke:#edd1cb;stroke-linecap:square;stroke-width:1.5;"/>
   </g>
   <g id="line2d_17">
    <path clip-path="url(#p9216726fcd)" d="M 147.957562 75.263024 
L 157.169516 63.426669 
L 166.38147 79.929595 
L 175.593424 64.796904 
L 184.805378 71.076139 
L 194.017332 65.683235 
L 203.229286 89.879895 
L 212.441241 78.035265 
L 221.653195 69.568947 
L 230.865149 73.696632 
L 240.077103 70.592337 
L 249.289057 68.078674 
L 258.501011 78.771224 
L 267.712965 74.228513 
L 276.92492 86.029915 
L 286.136874 67.134465 
L 295.348828 86.04137 
" style="fill:none;stroke:#a9678f;stroke-linecap:square;stroke-width:1.5;"/>
   </g>
   <g id="line2d_18">
    <path clip-path="url(#p9216726fcd)" d="M 83.473883 287.694088 
L 92.685837 150.629887 
L 101.897791 108.967152 
L 111.109745 106.541467 
L 120.321699 108.83693 
L 129.533653 100.181989 
L 138.745607 103.525419 
L 147.957562 74.312883 
L 157.169516 79.078911 
L 166.38147 97.755877 
L 175.593424 84.39464 
L 184.805378 87.406961 
L 194.017332 97.168721 
L 203.229286 90.676659 
L 212.441241 94.87033 
L 221.653195 89.611577 
L 230.865149 88.224255 
L 240.077103 100.2004 
L 249.289057 86.477472 
L 258.501011 87.604902 
L 267.712965 84.840546 
L 276.92492 103.808992 
L 286.136874 95.441999 
L 295.348828 95.788656 
L 304.560782 117.364215 
L 313.772736 111.364118 
L 322.98469 99.024311 
L 332.196644 122.533197 
L 341.408598 116.096388 
L 350.620553 133.902673 
L 359.832507 120.108559 
" style="fill:none;stroke:#2d1e3e;stroke-linecap:square;stroke-width:1.5;"/>
   </g>
   <g id="line2d_19"/>
   <g id="line2d_20"/>
   <g id="line2d_21"/>
   <g id="line2d_22"/>
   <g id="patch_3">
    <path d="M 69.655951 330.239063 
L 69.655951 36.839063 
" style="fill:none;stroke:#000000;stroke-linecap:square;stroke-linejoin:miter;stroke-width:0.8;"/>
   </g>
   <g id="patch_4">
    <path d="M 69.655951 330.239063 
L 373.650438 330.239063 
" style="fill:none;stroke:#000000;stroke-linecap:square;stroke-linejoin:miter;stroke-width:0.8;"/>
   </g>
   <g id="text_18">
    <!-- loss = ap -->
    <defs>
     <path d="M 30.609375 48.390625 
Q 23.390625 48.390625 19.1875 42.75 
Q 14.984375 37.109375 14.984375 27.296875 
Q 14.984375 17.484375 19.15625 11.84375 
Q 23.34375 6.203125 30.609375 6.203125 
Q 37.796875 6.203125 41.984375 11.859375 
Q 46.1875 17.53125 46.1875 27.296875 
Q 46.1875 37.015625 41.984375 42.703125 
Q 37.796875 48.390625 30.609375 48.390625 
z
M 30.609375 56 
Q 42.328125 56 49.015625 48.375 
Q 55.71875 40.765625 55.71875 27.296875 
Q 55.71875 13.875 49.015625 6.21875 
Q 42.328125 -1.421875 30.609375 -1.421875 
Q 18.84375 -1.421875 12.171875 6.21875 
Q 5.515625 13.875 5.515625 27.296875 
Q 5.515625 40.765625 12.171875 48.375 
Q 18.84375 56 30.609375 56 
z
" id="DejaVuSans-111"/>
     <path id="DejaVuSans-32"/>
     <path d="M 10.59375 45.40625 
L 73.1875 45.40625 
L 73.1875 37.203125 
L 10.59375 37.203125 
z
M 10.59375 25.484375 
L 73.1875 25.484375 
L 73.1875 17.1875 
L 10.59375 17.1875 
z
" id="DejaVuSans-61"/>
    </defs>
    <g transform="translate(198.389132 30.839063)scale(0.1 -0.1)">
     <use xlink:href="#DejaVuSans-108"/>
     <use x="27.783203" xlink:href="#DejaVuSans-111"/>
     <use x="88.964844" xlink:href="#DejaVuSans-115"/>
     <use x="141.064453" xlink:href="#DejaVuSans-115"/>
     <use x="193.164062" xlink:href="#DejaVuSans-32"/>
     <use x="224.951172" xlink:href="#DejaVuSans-61"/>
     <use x="308.740234" xlink:href="#DejaVuSans-32"/>
     <use x="340.527344" xlink:href="#DejaVuSans-97"/>
     <use x="401.806641" xlink:href="#DejaVuSans-112"/>
    </g>
   </g>
  </g>
  <g id="axes_2">
   <g id="patch_5">
    <path d="M 423.392092 330.239063 
L 727.386578 330.239063 
L 727.386578 36.839063 
L 423.392092 36.839063 
z
" style="fill:#ffffff;"/>
   </g>
   <g id="PolyCollection_4">
    <defs>
     <path d="M 570.783358 -316.826586 
L 570.783358 -302.940406 
L 579.995312 -303.01952 
L 579.995312 -317.619886 
L 579.995312 -317.619886 
L 570.783358 -316.826586 
z
" id="m9051f9cc0f" style="stroke:#edd1cb;stroke-opacity:0.2;"/>
    </defs>
    <g clip-path="url(#p3c10925eb4)">
     <use style="fill:#edd1cb;fill-opacity:0.2;stroke:#edd1cb;stroke-opacity:0.2;" x="0" xlink:href="#m9051f9cc0f" y="367.795313"/>
    </g>
   </g>
   <g id="PolyCollection_5">
    <defs>
     <path d="M 501.693702 -298.770642 
L 501.693702 -282.366189 
L 510.905656 -295.011379 
L 520.11761 -280.671807 
L 529.329564 -294.822868 
L 538.541519 -285.517389 
L 547.753473 -289.879638 
L 556.965427 -277.740956 
L 566.177381 -282.403208 
L 575.389335 -291.608718 
L 584.601289 -281.368291 
L 593.813243 -286.527438 
L 603.025198 -284.196949 
L 612.237152 -281.724412 
L 621.449106 -277.785956 
L 630.66106 -258.814492 
L 639.873014 -292.469044 
L 649.084968 -264.151586 
L 649.084968 -302.472775 
L 649.084968 -302.472775 
L 639.873014 -304.779054 
L 630.66106 -299.060263 
L 621.449106 -310.36669 
L 612.237152 -295.007998 
L 603.025198 -310.948303 
L 593.813243 -307.803306 
L 584.601289 -304.704278 
L 575.389335 -305.871724 
L 566.177381 -294.586545 
L 556.965427 -296.96929 
L 547.753473 -308.650066 
L 538.541519 -304.664935 
L 529.329564 -304.093926 
L 520.11761 -296.639741 
L 510.905656 -306.488644 
L 501.693702 -298.770642 
z
" id="m7a9ebe8764" style="stroke:#a9678f;stroke-opacity:0.2;"/>
    </defs>
    <g clip-path="url(#p3c10925eb4)">
     <use style="fill:#a9678f;fill-opacity:0.2;stroke:#a9678f;stroke-opacity:0.2;" x="0" xlink:href="#m7a9ebe8764" y="367.795313"/>
    </g>
   </g>
   <g id="PolyCollection_6">
    <defs>
     <path d="M 437.210023 -121.871894 
L 437.210023 -50.892614 
L 446.421977 -216.039102 
L 455.633931 -244.423682 
L 464.845886 -251.558178 
L 474.05784 -255.320674 
L 483.269794 -253.788581 
L 492.481748 -252.676022 
L 501.693702 -281.153612 
L 510.905656 -271.228377 
L 520.11761 -257.760961 
L 529.329564 -270.248742 
L 538.541519 -268.176621 
L 547.753473 -268.264165 
L 556.965427 -264.125581 
L 566.177381 -265.353368 
L 575.389335 -267.42628 
L 584.601289 -268.063064 
L 593.813243 -253.22161 
L 603.025198 -275.292513 
L 612.237152 -267.716652 
L 621.449106 -272.113979 
L 630.66106 -235.527381 
L 639.873014 -263.906096 
L 649.084968 -259.370817 
L 658.296922 -238.81001 
L 667.508877 -242.14863 
L 676.720831 -255.532903 
L 685.932785 -227.238705 
L 695.144739 -236.415935 
L 704.356693 -221.774028 
L 713.568647 -234.322447 
L 713.568647 -264.769187 
L 713.568647 -264.769187 
L 704.356693 -258.064359 
L 695.144739 -262.379952 
L 685.932785 -265.153662 
L 676.720831 -281.241733 
L 667.508877 -270.607611 
L 658.296922 -272.852382 
L 649.084968 -284.576391 
L 639.873014 -283.820881 
L 630.66106 -282.635385 
L 621.449106 -288.488174 
L 612.237152 -289.214458 
L 603.025198 -291.710727 
L 593.813243 -279.786159 
L 584.601289 -288.267318 
L 575.389335 -282.347192 
L 566.177381 -284.778407 
L 556.965427 -280.745557 
L 547.753473 -285.320149 
L 538.541519 -288.479546 
L 529.329564 -290.018921 
L 520.11761 -282.106146 
L 510.905656 -295.422118 
L 501.693702 -297.371512 
L 492.481748 -279.709673 
L 483.269794 -276.279054 
L 474.05784 -278.350853 
L 464.845886 -275.583702 
L 455.633931 -273.432829 
L 446.421977 -235.301084 
L 437.210023 -121.871894 
z
" id="m7a72c6e01c" style="stroke:#2d1e3e;stroke-opacity:0.2;"/>
    </defs>
    <g clip-path="url(#p3c10925eb4)">
     <use style="fill:#2d1e3e;fill-opacity:0.2;stroke:#2d1e3e;stroke-opacity:0.2;" x="0" xlink:href="#m7a72c6e01c" y="367.795313"/>
    </g>
   </g>
   <g id="matplotlib.axis_3">
    <g id="xtick_8">
     <g id="line2d_23">
      <g>
       <use style="stroke:#000000;stroke-width:0.8;" x="437.210023" xlink:href="#mf04a7544bc" y="330.239063"/>
      </g>
     </g>
     <g id="text_19">
      <!-- −15 -->
      <g transform="translate(426.657679 344.8375)scale(0.1 -0.1)">
       <use xlink:href="#DejaVuSans-8722"/>
       <use x="83.789062" xlink:href="#DejaVuSans-49"/>
       <use x="147.412109" xlink:href="#DejaVuSans-53"/>
      </g>
     </g>
    </g>
    <g id="xtick_9">
     <g id="line2d_24">
      <g>
       <use style="stroke:#000000;stroke-width:0.8;" x="483.269794" xlink:href="#mf04a7544bc" y="330.239063"/>
      </g>
     </g>
     <g id="text_20">
      <!-- −10 -->
      <g transform="translate(472.71745 344.8375)scale(0.1 -0.1)">
       <use xlink:href="#DejaVuSans-8722"/>
       <use x="83.789062" xlink:href="#DejaVuSans-49"/>
       <use x="147.412109" xlink:href="#DejaVuSans-48"/>
      </g>
     </g>
    </g>
    <g id="xtick_10">
     <g id="line2d_25">
      <g>
       <use style="stroke:#000000;stroke-width:0.8;" x="529.329564" xlink:href="#mf04a7544bc" y="330.239063"/>
      </g>
     </g>
     <g id="text_21">
      <!-- −5 -->
      <g transform="translate(521.958471 344.8375)scale(0.1 -0.1)">
       <use xlink:href="#DejaVuSans-8722"/>
       <use x="83.789062" xlink:href="#DejaVuSans-53"/>
      </g>
     </g>
    </g>
    <g id="xtick_11">
     <g id="line2d_26">
      <g>
       <use style="stroke:#000000;stroke-width:0.8;" x="575.389335" xlink:href="#mf04a7544bc" y="330.239063"/>
      </g>
     </g>
     <g id="text_22">
      <!-- 0 -->
      <g transform="translate(572.208085 344.8375)scale(0.1 -0.1)">
       <use xlink:href="#DejaVuSans-48"/>
      </g>
     </g>
    </g>
    <g id="xtick_12">
     <g id="line2d_27">
      <g>
       <use style="stroke:#000000;stroke-width:0.8;" x="621.449106" xlink:href="#mf04a7544bc" y="330.239063"/>
      </g>
     </g>
     <g id="text_23">
      <!-- 5 -->
      <g transform="translate(618.267856 344.8375)scale(0.1 -0.1)">
       <use xlink:href="#DejaVuSans-53"/>
      </g>
     </g>
    </g>
    <g id="xtick_13">
     <g id="line2d_28">
      <g>
       <use style="stroke:#000000;stroke-width:0.8;" x="667.508877" xlink:href="#mf04a7544bc" y="330.239063"/>
      </g>
     </g>
     <g id="text_24">
      <!-- 10 -->
      <g transform="translate(661.146377 344.8375)scale(0.1 -0.1)">
       <use xlink:href="#DejaVuSans-49"/>
       <use x="63.623047" xlink:href="#DejaVuSans-48"/>
      </g>
     </g>
    </g>
    <g id="xtick_14">
     <g id="line2d_29">
      <g>
       <use style="stroke:#000000;stroke-width:0.8;" x="713.568647" xlink:href="#mf04a7544bc" y="330.239063"/>
      </g>
     </g>
     <g id="text_25">
      <!-- 15 -->
      <g transform="translate(707.206147 344.8375)scale(0.1 -0.1)">
       <use xlink:href="#DejaVuSans-49"/>
       <use x="63.623047" xlink:href="#DejaVuSans-53"/>
      </g>
     </g>
    </g>
    <g id="text_26">
     <!-- spill -->
     <g transform="translate(565.443241 358.515625)scale(0.1 -0.1)">
      <use xlink:href="#DejaVuSans-115"/>
      <use x="52.099609" xlink:href="#DejaVuSans-112"/>
      <use x="115.576172" xlink:href="#DejaVuSans-105"/>
      <use x="143.359375" xlink:href="#DejaVuSans-108"/>
      <use x="171.142578" xlink:href="#DejaVuSans-108"/>
     </g>
    </g>
   </g>
   <g id="matplotlib.axis_4">
    <g id="ytick_9">
     <g id="line2d_30">
      <g>
       <use style="stroke:#000000;stroke-width:0.8;" x="423.392092" xlink:href="#me02aa64f06" y="313.531425"/>
      </g>
     </g>
     <g id="text_27">
      <!-- 0.725 -->
      <g transform="translate(387.763967 317.330643)scale(0.1 -0.1)">
       <use xlink:href="#DejaVuSans-48"/>
       <use x="63.623047" xlink:href="#DejaVuSans-46"/>
       <use x="95.410156" xlink:href="#DejaVuSans-55"/>
       <use x="159.033203" xlink:href="#DejaVuSans-50"/>
       <use x="222.65625" xlink:href="#DejaVuSans-53"/>
      </g>
     </g>
    </g>
    <g id="ytick_10">
     <g id="line2d_31">
      <g>
       <use style="stroke:#000000;stroke-width:0.8;" x="423.392092" xlink:href="#me02aa64f06" y="280.223985"/>
      </g>
     </g>
     <g id="text_28">
      <!-- 0.750 -->
      <g transform="translate(387.763967 284.023204)scale(0.1 -0.1)">
       <use xlink:href="#DejaVuSans-48"/>
       <use x="63.623047" xlink:href="#DejaVuSans-46"/>
       <use x="95.410156" xlink:href="#DejaVuSans-55"/>
       <use x="159.033203" xlink:href="#DejaVuSans-53"/>
       <use x="222.65625" xlink:href="#DejaVuSans-48"/>
      </g>
     </g>
    </g>
    <g id="ytick_11">
     <g id="line2d_32">
      <g>
       <use style="stroke:#000000;stroke-width:0.8;" x="423.392092" xlink:href="#me02aa64f06" y="246.916545"/>
      </g>
     </g>
     <g id="text_29">
      <!-- 0.775 -->
      <g transform="translate(387.763967 250.715764)scale(0.1 -0.1)">
       <use xlink:href="#DejaVuSans-48"/>
       <use x="63.623047" xlink:href="#DejaVuSans-46"/>
       <use x="95.410156" xlink:href="#DejaVuSans-55"/>
       <use x="159.033203" xlink:href="#DejaVuSans-55"/>
       <use x="222.65625" xlink:href="#DejaVuSans-53"/>
      </g>
     </g>
    </g>
    <g id="ytick_12">
     <g id="line2d_33">
      <g>
       <use style="stroke:#000000;stroke-width:0.8;" x="423.392092" xlink:href="#me02aa64f06" y="213.609105"/>
      </g>
     </g>
     <g id="text_30">
      <!-- 0.800 -->
      <g transform="translate(387.763967 217.408324)scale(0.1 -0.1)">
       <use xlink:href="#DejaVuSans-48"/>
       <use x="63.623047" xlink:href="#DejaVuSans-46"/>
       <use x="95.410156" xlink:href="#DejaVuSans-56"/>
       <use x="159.033203" xlink:href="#DejaVuSans-48"/>
       <use x="222.65625" xlink:href="#DejaVuSans-48"/>
      </g>
     </g>
    </g>
    <g id="ytick_13">
     <g id="line2d_34">
      <g>
       <use style="stroke:#000000;stroke-width:0.8;" x="423.392092" xlink:href="#me02aa64f06" y="180.301665"/>
      </g>
     </g>
     <g id="text_31">
      <!-- 0.825 -->
      <g transform="translate(387.763967 184.100884)scale(0.1 -0.1)">
       <use xlink:href="#DejaVuSans-48"/>
       <use x="63.623047" xlink:href="#DejaVuSans-46"/>
       <use x="95.410156" xlink:href="#DejaVuSans-56"/>
       <use x="159.033203" xlink:href="#DejaVuSans-50"/>
       <use x="222.65625" xlink:href="#DejaVuSans-53"/>
      </g>
     </g>
    </g>
    <g id="ytick_14">
     <g id="line2d_35">
      <g>
       <use style="stroke:#000000;stroke-width:0.8;" x="423.392092" xlink:href="#me02aa64f06" y="146.994225"/>
      </g>
     </g>
     <g id="text_32">
      <!-- 0.850 -->
      <g transform="translate(387.763967 150.793444)scale(0.1 -0.1)">
       <use xlink:href="#DejaVuSans-48"/>
       <use x="63.623047" xlink:href="#DejaVuSans-46"/>
       <use x="95.410156" xlink:href="#DejaVuSans-56"/>
       <use x="159.033203" xlink:href="#DejaVuSans-53"/>
       <use x="222.65625" xlink:href="#DejaVuSans-48"/>
      </g>
     </g>
    </g>
    <g id="ytick_15">
     <g id="line2d_36">
      <g>
       <use style="stroke:#000000;stroke-width:0.8;" x="423.392092" xlink:href="#me02aa64f06" y="113.686785"/>
      </g>
     </g>
     <g id="text_33">
      <!-- 0.875 -->
      <g transform="translate(387.763967 117.486004)scale(0.1 -0.1)">
       <use xlink:href="#DejaVuSans-48"/>
       <use x="63.623047" xlink:href="#DejaVuSans-46"/>
       <use x="95.410156" xlink:href="#DejaVuSans-56"/>
       <use x="159.033203" xlink:href="#DejaVuSans-55"/>
       <use x="222.65625" xlink:href="#DejaVuSans-53"/>
      </g>
     </g>
    </g>
    <g id="ytick_16">
     <g id="line2d_37">
      <g>
       <use style="stroke:#000000;stroke-width:0.8;" x="423.392092" xlink:href="#me02aa64f06" y="80.379345"/>
      </g>
     </g>
     <g id="text_34">
      <!-- 0.900 -->
      <g transform="translate(387.763967 84.178564)scale(0.1 -0.1)">
       <use xlink:href="#DejaVuSans-48"/>
       <use x="63.623047" xlink:href="#DejaVuSans-46"/>
       <use x="95.410156" xlink:href="#DejaVuSans-57"/>
       <use x="159.033203" xlink:href="#DejaVuSans-48"/>
       <use x="222.65625" xlink:href="#DejaVuSans-48"/>
      </g>
     </g>
    </g>
    <g id="ytick_17">
     <g id="line2d_38">
      <g>
       <use style="stroke:#000000;stroke-width:0.8;" x="423.392092" xlink:href="#me02aa64f06" y="47.071906"/>
      </g>
     </g>
     <g id="text_35">
      <!-- 0.925 -->
      <g transform="translate(387.763967 50.871124)scale(0.1 -0.1)">
       <use xlink:href="#DejaVuSans-48"/>
       <use x="63.623047" xlink:href="#DejaVuSans-46"/>
       <use x="95.410156" xlink:href="#DejaVuSans-57"/>
       <use x="159.033203" xlink:href="#DejaVuSans-50"/>
       <use x="222.65625" xlink:href="#DejaVuSans-53"/>
      </g>
     </g>
    </g>
   </g>
   <g id="line2d_39">
    <path clip-path="url(#p3c10925eb4)" d="M 570.783358 57.765711 
L 579.995312 57.765711 
" style="fill:none;stroke:#edd1cb;stroke-linecap:square;stroke-width:1.5;"/>
   </g>
   <g id="line2d_40">
    <path clip-path="url(#p3c10925eb4)" d="M 501.693702 76.866516 
L 510.905656 67.354315 
L 520.11761 79.086505 
L 529.329564 68.781243 
L 538.541519 72.816458 
L 547.753473 68.190722 
L 556.965427 79.446691 
L 566.177381 79.18462 
L 575.389335 69.758718 
L 584.601289 73.328591 
L 593.813243 70.231385 
L 603.025198 68.586183 
L 612.237152 78.690205 
L 621.449106 73.212493 
L 630.66106 85.370135 
L 639.873014 69.349852 
L 649.084968 83.756184 
" style="fill:none;stroke:#a9678f;stroke-linecap:square;stroke-width:1.5;"/>
   </g>
   <g id="line2d_41">
    <path clip-path="url(#p3c10925eb4)" d="M 437.210023 272.13526 
L 446.421977 142.274863 
L 455.633931 109.293138 
L 464.845886 104.101248 
L 474.05784 101.340998 
L 483.269794 102.976398 
L 492.481748 100.547068 
L 501.693702 78.629562 
L 510.905656 83.249666 
L 520.11761 97.630056 
L 529.329564 86.65546 
L 538.541519 90.104345 
L 547.753473 90.236003 
L 556.965427 94.991832 
L 566.177381 91.220252 
L 575.389335 92.860279 
L 584.601289 89.454757 
L 593.813243 99.582409 
L 603.025198 84.141409 
L 612.237152 89.607172 
L 621.449106 86.807307 
L 630.66106 105.40414 
L 639.873014 94.323224 
L 649.084968 95.049309 
L 658.296922 110.976242 
L 667.508877 109.954117 
L 676.720831 98.594153 
L 685.932785 120.401292 
L 695.144739 116.633732 
L 704.356693 127.543502 
L 713.568647 116.843784 
" style="fill:none;stroke:#2d1e3e;stroke-linecap:square;stroke-width:1.5;"/>
   </g>
   <g id="patch_6">
    <path d="M 423.392092 330.239063 
L 423.392092 36.839063 
" style="fill:none;stroke:#000000;stroke-linecap:square;stroke-linejoin:miter;stroke-width:0.8;"/>
   </g>
   <g id="patch_7">
    <path d="M 423.392092 330.239063 
L 727.386578 330.239063 
" style="fill:none;stroke:#000000;stroke-linecap:square;stroke-linejoin:miter;stroke-width:0.8;"/>
   </g>
   <g id="text_36">
    <!-- loss = auc -->
    <defs>
     <path d="M 8.5 21.578125 
L 8.5 54.6875 
L 17.484375 54.6875 
L 17.484375 21.921875 
Q 17.484375 14.15625 20.5 10.265625 
Q 23.53125 6.390625 29.59375 6.390625 
Q 36.859375 6.390625 41.078125 11.03125 
Q 45.3125 15.671875 45.3125 23.6875 
L 45.3125 54.6875 
L 54.296875 54.6875 
L 54.296875 0 
L 45.3125 0 
L 45.3125 8.40625 
Q 42.046875 3.421875 37.71875 1 
Q 33.40625 -1.421875 27.6875 -1.421875 
Q 18.265625 -1.421875 13.375 4.4375 
Q 8.5 10.296875 8.5 21.578125 
z
M 31.109375 56 
z
" id="DejaVuSans-117"/>
     <path d="M 48.78125 52.59375 
L 48.78125 44.1875 
Q 44.96875 46.296875 41.140625 47.34375 
Q 37.3125 48.390625 33.40625 48.390625 
Q 24.65625 48.390625 19.8125 42.84375 
Q 14.984375 37.3125 14.984375 27.296875 
Q 14.984375 17.28125 19.8125 11.734375 
Q 24.65625 6.203125 33.40625 6.203125 
Q 37.3125 6.203125 41.140625 7.25 
Q 44.96875 8.296875 48.78125 10.40625 
L 48.78125 2.09375 
Q 45.015625 0.34375 40.984375 -0.53125 
Q 36.96875 -1.421875 32.421875 -1.421875 
Q 20.0625 -1.421875 12.78125 6.34375 
Q 5.515625 14.109375 5.515625 27.296875 
Q 5.515625 40.671875 12.859375 48.328125 
Q 20.21875 56 33.015625 56 
Q 37.15625 56 41.109375 55.140625 
Q 45.0625 54.296875 48.78125 52.59375 
z
" id="DejaVuSans-99"/>
    </defs>
    <g transform="translate(549.381523 30.839063)scale(0.1 -0.1)">
     <use xlink:href="#DejaVuSans-108"/>
     <use x="27.783203" xlink:href="#DejaVuSans-111"/>
     <use x="88.964844" xlink:href="#DejaVuSans-115"/>
     <use x="141.064453" xlink:href="#DejaVuSans-115"/>
     <use x="193.164062" xlink:href="#DejaVuSans-32"/>
     <use x="224.951172" xlink:href="#DejaVuSans-61"/>
     <use x="308.740234" xlink:href="#DejaVuSans-32"/>
     <use x="340.527344" xlink:href="#DejaVuSans-97"/>
     <use x="401.806641" xlink:href="#DejaVuSans-117"/>
     <use x="465.185547" xlink:href="#DejaVuSans-99"/>
    </g>
   </g>
  </g>
  <g id="axes_3">
   <g id="patch_8">
    <path d="M 777.128232 330.239063 
L 1081.122719 330.239063 
L 1081.122719 36.839063 
L 777.128232 36.839063 
z
" style="fill:#ffffff;"/>
   </g>
   <g id="PolyCollection_7">
    <defs>
     <path d="M 924.519499 -197.257755 
L 924.519499 -103.665476 
L 933.731453 -102.186911 
L 933.731453 -191.083108 
L 933.731453 -191.083108 
L 924.519499 -197.257755 
z
" id="m4c2a9edd27" style="stroke:#edd1cb;stroke-opacity:0.2;"/>
    </defs>
    <g clip-path="url(#pc486e10057)">
     <use style="fill:#edd1cb;fill-opacity:0.2;stroke:#edd1cb;stroke-opacity:0.2;" x="0" xlink:href="#m4c2a9edd27" y="367.795313"/>
    </g>
   </g>
   <g id="PolyCollection_8">
    <defs>
     <path d="M 855.429843 -94.607104 
L 855.429843 -69.234951 
L 864.641797 -84.740459 
L 873.853751 -80.787821 
L 883.065705 -79.660129 
L 892.277659 -84.946013 
L 901.489613 -86.651814 
L 910.701567 -88.057921 
L 919.913522 -84.800864 
L 929.125476 -91.623688 
L 938.33743 -86.177923 
L 947.549384 -85.412363 
L 956.761338 -84.370942 
L 965.973292 -96.940585 
L 975.185246 -98.772054 
L 984.397201 -94.648626 
L 993.609155 -110.075857 
L 1002.821109 -125.917799 
L 1002.821109 -190.449328 
L 1002.821109 -190.449328 
L 993.609155 -120.508286 
L 984.397201 -152.22429 
L 975.185246 -183.683448 
L 965.973292 -134.272748 
L 956.761338 -124.193256 
L 947.549384 -102.092338 
L 938.33743 -166.934695 
L 929.125476 -124.426383 
L 919.913522 -110.731259 
L 910.701567 -199.051249 
L 901.489613 -116.928375 
L 892.277659 -107.007119 
L 883.065705 -93.333964 
L 873.853751 -140.050779 
L 864.641797 -118.28712 
L 855.429843 -94.607104 
z
" id="m74c773ef95" style="stroke:#a9678f;stroke-opacity:0.2;"/>
    </defs>
    <g clip-path="url(#pc486e10057)">
     <use style="fill:#a9678f;fill-opacity:0.2;stroke:#a9678f;stroke-opacity:0.2;" x="0" xlink:href="#m74c773ef95" y="367.795313"/>
    </g>
   </g>
   <g id="PolyCollection_9">
    <defs>
     <path d="M 790.946164 -317.619886 
L 790.946164 -277.77369 
L 800.158118 -114.073556 
L 809.370072 -69.490807 
L 818.582026 -71.246729 
L 827.79398 -62.911405 
L 837.005934 -68.8522 
L 846.217888 -63.253983 
L 855.429843 -50.892614 
L 864.641797 -54.659906 
L 873.853751 -67.143622 
L 883.065705 -63.100628 
L 892.277659 -64.092579 
L 901.489613 -77.841902 
L 910.701567 -63.686963 
L 919.913522 -68.236531 
L 929.125476 -70.082392 
L 938.33743 -67.535907 
L 947.549384 -73.777125 
L 956.761338 -74.362764 
L 965.973292 -73.926019 
L 975.185246 -73.330161 
L 984.397201 -76.892123 
L 993.609155 -84.099439 
L 1002.821109 -87.393241 
L 1012.033063 -107.072537 
L 1021.245017 -102.531784 
L 1030.456971 -99.067768 
L 1039.668925 -143.203181 
L 1048.880879 -136.318294 
L 1058.092834 -219.171126 
L 1067.304788 -219.766868 
L 1067.304788 -277.092351 
L 1067.304788 -277.092351 
L 1058.092834 -278.398755 
L 1048.880879 -166.043646 
L 1039.668925 -195.345583 
L 1030.456971 -165.850507 
L 1021.245017 -167.621526 
L 1012.033063 -163.196877 
L 1002.821109 -129.021559 
L 993.609155 -102.647437 
L 984.397201 -230.174034 
L 975.185246 -92.807496 
L 965.973292 -96.937204 
L 956.761338 -132.994344 
L 947.549384 -116.628766 
L 938.33743 -162.777908 
L 929.125476 -93.262325 
L 919.913522 -139.241702 
L 910.701567 -90.969899 
L 901.489613 -129.1792 
L 892.277659 -141.460378 
L 883.065705 -94.693935 
L 873.853751 -107.79733 
L 864.641797 -83.726677 
L 855.429843 -62.627707 
L 846.217888 -117.29765 
L 837.005934 -98.441113 
L 827.79398 -113.842201 
L 818.582026 -101.649119 
L 809.370072 -113.014821 
L 800.158118 -130.987942 
L 790.946164 -317.619886 
z
" id="mcd6db4972c" style="stroke:#2d1e3e;stroke-opacity:0.2;"/>
    </defs>
    <g clip-path="url(#pc486e10057)">
     <use style="fill:#2d1e3e;fill-opacity:0.2;stroke:#2d1e3e;stroke-opacity:0.2;" x="0" xlink:href="#mcd6db4972c" y="367.795313"/>
    </g>
   </g>
   <g id="matplotlib.axis_5">
    <g id="xtick_15">
     <g id="line2d_42">
      <g>
       <use style="stroke:#000000;stroke-width:0.8;" x="790.946164" xlink:href="#mf04a7544bc" y="330.239063"/>
      </g>
     </g>
     <g id="text_37">
      <!-- −15 -->
      <g transform="translate(780.39382 344.8375)scale(0.1 -0.1)">
       <use xlink:href="#DejaVuSans-8722"/>
       <use x="83.789062" xlink:href="#DejaVuSans-49"/>
       <use x="147.412109" xlink:href="#DejaVuSans-53"/>
      </g>
     </g>
    </g>
    <g id="xtick_16">
     <g id="line2d_43">
      <g>
       <use style="stroke:#000000;stroke-width:0.8;" x="837.005934" xlink:href="#mf04a7544bc" y="330.239063"/>
      </g>
     </g>
     <g id="text_38">
      <!-- −10 -->
      <g transform="translate(826.453591 344.8375)scale(0.1 -0.1)">
       <use xlink:href="#DejaVuSans-8722"/>
       <use x="83.789062" xlink:href="#DejaVuSans-49"/>
       <use x="147.412109" xlink:href="#DejaVuSans-48"/>
      </g>
     </g>
    </g>
    <g id="xtick_17">
     <g id="line2d_44">
      <g>
       <use style="stroke:#000000;stroke-width:0.8;" x="883.065705" xlink:href="#mf04a7544bc" y="330.239063"/>
      </g>
     </g>
     <g id="text_39">
      <!-- −5 -->
      <g transform="translate(875.694611 344.8375)scale(0.1 -0.1)">
       <use xlink:href="#DejaVuSans-8722"/>
       <use x="83.789062" xlink:href="#DejaVuSans-53"/>
      </g>
     </g>
    </g>
    <g id="xtick_18">
     <g id="line2d_45">
      <g>
       <use style="stroke:#000000;stroke-width:0.8;" x="929.125476" xlink:href="#mf04a7544bc" y="330.239063"/>
      </g>
     </g>
     <g id="text_40">
      <!-- 0 -->
      <g transform="translate(925.944226 344.8375)scale(0.1 -0.1)">
       <use xlink:href="#DejaVuSans-48"/>
      </g>
     </g>
    </g>
    <g id="xtick_19">
     <g id="line2d_46">
      <g>
       <use style="stroke:#000000;stroke-width:0.8;" x="975.185246" xlink:href="#mf04a7544bc" y="330.239063"/>
      </g>
     </g>
     <g id="text_41">
      <!-- 5 -->
      <g transform="translate(972.003996 344.8375)scale(0.1 -0.1)">
       <use xlink:href="#DejaVuSans-53"/>
      </g>
     </g>
    </g>
    <g id="xtick_20">
     <g id="line2d_47">
      <g>
       <use style="stroke:#000000;stroke-width:0.8;" x="1021.245017" xlink:href="#mf04a7544bc" y="330.239063"/>
      </g>
     </g>
     <g id="text_42">
      <!-- 10 -->
      <g transform="translate(1014.882517 344.8375)scale(0.1 -0.1)">
       <use xlink:href="#DejaVuSans-49"/>
       <use x="63.623047" xlink:href="#DejaVuSans-48"/>
      </g>
     </g>
    </g>
    <g id="xtick_21">
     <g id="line2d_48">
      <g>
       <use style="stroke:#000000;stroke-width:0.8;" x="1067.304788" xlink:href="#mf04a7544bc" y="330.239063"/>
      </g>
     </g>
     <g id="text_43">
      <!-- 15 -->
      <g transform="translate(1060.942288 344.8375)scale(0.1 -0.1)">
       <use xlink:href="#DejaVuSans-49"/>
       <use x="63.623047" xlink:href="#DejaVuSans-53"/>
      </g>
     </g>
    </g>
    <g id="text_44">
     <!-- spill -->
     <g transform="translate(919.179382 358.515625)scale(0.1 -0.1)">
      <use xlink:href="#DejaVuSans-115"/>
      <use x="52.099609" xlink:href="#DejaVuSans-112"/>
      <use x="115.576172" xlink:href="#DejaVuSans-105"/>
      <use x="143.359375" xlink:href="#DejaVuSans-108"/>
      <use x="171.142578" xlink:href="#DejaVuSans-108"/>
     </g>
    </g>
   </g>
   <g id="matplotlib.axis_6">
    <g id="ytick_18">
     <g id="line2d_49">
      <g>
       <use style="stroke:#000000;stroke-width:0.8;" x="777.128232" xlink:href="#me02aa64f06" y="315.484838"/>
      </g>
     </g>
     <g id="text_45">
      <!-- 0.4 -->
      <defs>
       <path d="M 37.796875 64.3125 
L 12.890625 25.390625 
L 37.796875 25.390625 
z
M 35.203125 72.90625 
L 47.609375 72.90625 
L 47.609375 25.390625 
L 58.015625 25.390625 
L 58.015625 17.1875 
L 47.609375 17.1875 
L 47.609375 0 
L 37.796875 0 
L 37.796875 17.1875 
L 4.890625 17.1875 
L 4.890625 26.703125 
z
" id="DejaVuSans-52"/>
      </defs>
      <g transform="translate(754.225107 319.284057)scale(0.1 -0.1)">
       <use xlink:href="#DejaVuSans-48"/>
       <use x="63.623047" xlink:href="#DejaVuSans-46"/>
       <use x="95.410156" xlink:href="#DejaVuSans-52"/>
      </g>
     </g>
    </g>
    <g id="ytick_19">
     <g id="line2d_50">
      <g>
       <use style="stroke:#000000;stroke-width:0.8;" x="777.128232" xlink:href="#me02aa64f06" y="280.953548"/>
      </g>
     </g>
     <g id="text_46">
      <!-- 0.5 -->
      <g transform="translate(754.225107 284.752767)scale(0.1 -0.1)">
       <use xlink:href="#DejaVuSans-48"/>
       <use x="63.623047" xlink:href="#DejaVuSans-46"/>
       <use x="95.410156" xlink:href="#DejaVuSans-53"/>
      </g>
     </g>
    </g>
    <g id="ytick_20">
     <g id="line2d_51">
      <g>
       <use style="stroke:#000000;stroke-width:0.8;" x="777.128232" xlink:href="#me02aa64f06" y="246.422257"/>
      </g>
     </g>
     <g id="text_47">
      <!-- 0.6 -->
      <defs>
       <path d="M 33.015625 40.375 
Q 26.375 40.375 22.484375 35.828125 
Q 18.609375 31.296875 18.609375 23.390625 
Q 18.609375 15.53125 22.484375 10.953125 
Q 26.375 6.390625 33.015625 6.390625 
Q 39.65625 6.390625 43.53125 10.953125 
Q 47.40625 15.53125 47.40625 23.390625 
Q 47.40625 31.296875 43.53125 35.828125 
Q 39.65625 40.375 33.015625 40.375 
z
M 52.59375 71.296875 
L 52.59375 62.3125 
Q 48.875 64.0625 45.09375 64.984375 
Q 41.3125 65.921875 37.59375 65.921875 
Q 27.828125 65.921875 22.671875 59.328125 
Q 17.53125 52.734375 16.796875 39.40625 
Q 19.671875 43.65625 24.015625 45.921875 
Q 28.375 48.1875 33.59375 48.1875 
Q 44.578125 48.1875 50.953125 41.515625 
Q 57.328125 34.859375 57.328125 23.390625 
Q 57.328125 12.15625 50.6875 5.359375 
Q 44.046875 -1.421875 33.015625 -1.421875 
Q 20.359375 -1.421875 13.671875 8.265625 
Q 6.984375 17.96875 6.984375 36.375 
Q 6.984375 53.65625 15.1875 63.9375 
Q 23.390625 74.21875 37.203125 74.21875 
Q 40.921875 74.21875 44.703125 73.484375 
Q 48.484375 72.75 52.59375 71.296875 
z
" id="DejaVuSans-54"/>
      </defs>
      <g transform="translate(754.225107 250.221476)scale(0.1 -0.1)">
       <use xlink:href="#DejaVuSans-48"/>
       <use x="63.623047" xlink:href="#DejaVuSans-46"/>
       <use x="95.410156" xlink:href="#DejaVuSans-54"/>
      </g>
     </g>
    </g>
    <g id="ytick_21">
     <g id="line2d_52">
      <g>
       <use style="stroke:#000000;stroke-width:0.8;" x="777.128232" xlink:href="#me02aa64f06" y="211.890967"/>
      </g>
     </g>
     <g id="text_48">
      <!-- 0.7 -->
      <g transform="translate(754.225107 215.690186)scale(0.1 -0.1)">
       <use xlink:href="#DejaVuSans-48"/>
       <use x="63.623047" xlink:href="#DejaVuSans-46"/>
       <use x="95.410156" xlink:href="#DejaVuSans-55"/>
      </g>
     </g>
    </g>
    <g id="ytick_22">
     <g id="line2d_53">
      <g>
       <use style="stroke:#000000;stroke-width:0.8;" x="777.128232" xlink:href="#me02aa64f06" y="177.359676"/>
      </g>
     </g>
     <g id="text_49">
      <!-- 0.8 -->
      <g transform="translate(754.225107 181.158895)scale(0.1 -0.1)">
       <use xlink:href="#DejaVuSans-48"/>
       <use x="63.623047" xlink:href="#DejaVuSans-46"/>
       <use x="95.410156" xlink:href="#DejaVuSans-56"/>
      </g>
     </g>
    </g>
    <g id="ytick_23">
     <g id="line2d_54">
      <g>
       <use style="stroke:#000000;stroke-width:0.8;" x="777.128232" xlink:href="#me02aa64f06" y="142.828386"/>
      </g>
     </g>
     <g id="text_50">
      <!-- 0.9 -->
      <g transform="translate(754.225107 146.627604)scale(0.1 -0.1)">
       <use xlink:href="#DejaVuSans-48"/>
       <use x="63.623047" xlink:href="#DejaVuSans-46"/>
       <use x="95.410156" xlink:href="#DejaVuSans-57"/>
      </g>
     </g>
    </g>
    <g id="ytick_24">
     <g id="line2d_55">
      <g>
       <use style="stroke:#000000;stroke-width:0.8;" x="777.128232" xlink:href="#me02aa64f06" y="108.297095"/>
      </g>
     </g>
     <g id="text_51">
      <!-- 1.0 -->
      <g transform="translate(754.225107 112.096314)scale(0.1 -0.1)">
       <use xlink:href="#DejaVuSans-49"/>
       <use x="63.623047" xlink:href="#DejaVuSans-46"/>
       <use x="95.410156" xlink:href="#DejaVuSans-48"/>
      </g>
     </g>
    </g>
    <g id="ytick_25">
     <g id="line2d_56">
      <g>
       <use style="stroke:#000000;stroke-width:0.8;" x="777.128232" xlink:href="#me02aa64f06" y="73.765805"/>
      </g>
     </g>
     <g id="text_52">
      <!-- 1.1 -->
      <g transform="translate(754.225107 77.565023)scale(0.1 -0.1)">
       <use xlink:href="#DejaVuSans-49"/>
       <use x="63.623047" xlink:href="#DejaVuSans-46"/>
       <use x="95.410156" xlink:href="#DejaVuSans-49"/>
      </g>
     </g>
    </g>
    <g id="ytick_26">
     <g id="line2d_57">
      <g>
       <use style="stroke:#000000;stroke-width:0.8;" x="777.128232" xlink:href="#me02aa64f06" y="39.234514"/>
      </g>
     </g>
     <g id="text_53">
      <!-- 1.2 -->
      <g transform="translate(754.225107 43.033733)scale(0.1 -0.1)">
       <use xlink:href="#DejaVuSans-49"/>
       <use x="63.623047" xlink:href="#DejaVuSans-46"/>
       <use x="95.410156" xlink:href="#DejaVuSans-50"/>
      </g>
     </g>
    </g>
   </g>
   <g id="line2d_58">
    <path clip-path="url(#pc486e10057)" d="M 924.519499 227.513657 
L 933.731453 227.513657 
" style="fill:none;stroke:#edd1cb;stroke-linecap:square;stroke-width:1.5;"/>
   </g>
   <g id="line2d_59">
    <path clip-path="url(#pc486e10057)" d="M 855.429843 287.56659 
L 864.641797 269.191214 
L 873.853751 260.673423 
L 883.065705 281.849172 
L 892.277659 272.607119 
L 901.489613 266.452329 
L 910.701567 234.203826 
L 919.913522 270.462491 
L 929.125476 260.761941 
L 938.33743 248.139275 
L 947.549384 274.047587 
L 956.761338 264.679349 
L 965.973292 253.342591 
L 975.185246 230.541924 
L 984.397201 247.793115 
L 993.609155 252.650653 
L 1002.821109 209.885688 
" style="fill:none;stroke:#a9678f;stroke-linecap:square;stroke-width:1.5;"/>
   </g>
   <g id="line2d_60">
    <path clip-path="url(#pc486e10057)" d="M 790.946164 75.962758 
L 800.158118 245.304931 
L 809.370072 279.82713 
L 818.582026 281.959752 
L 827.79398 284.97615 
L 837.005934 285.158308 
L 846.217888 284.08058 
L 855.429843 311.386898 
L 864.641797 300.23863 
L 873.853751 280.90323 
L 883.065705 290.135156 
L 892.277659 268.835898 
L 901.489613 265.51947 
L 910.701567 290.945413 
L 919.913522 270.36293 
L 929.125476 286.439868 
L 938.33743 265.880859 
L 947.549384 274.457957 
L 956.761338 267.243879 
L 965.973292 283.058015 
L 975.185246 285.245232 
L 984.397201 235.900211 
L 993.609155 274.410442 
L 1002.821109 260.838761 
L 1012.033063 233.988081 
L 1021.245017 236.31403 
L 1030.456971 239.588093 
L 1039.668925 198.331778 
L 1048.880879 217.398311 
L 1058.092834 119.487418 
L 1067.304788 119.260777 
" style="fill:none;stroke:#2d1e3e;stroke-linecap:square;stroke-width:1.5;"/>
   </g>
   <g id="patch_9">
    <path d="M 777.128232 330.239062 
L 777.128232 36.839062 
" style="fill:none;stroke:#000000;stroke-linecap:square;stroke-linejoin:miter;stroke-width:0.8;"/>
   </g>
   <g id="patch_10">
    <path d="M 777.128232 330.239063 
L 1081.122719 330.239063 
" style="fill:none;stroke:#000000;stroke-linecap:square;stroke-linejoin:miter;stroke-width:0.8;"/>
   </g>
   <g id="text_54">
    <!-- loss = total loss -->
    <g transform="translate(889.420007 30.839063)scale(0.1 -0.1)">
     <use xlink:href="#DejaVuSans-108"/>
     <use x="27.783203" xlink:href="#DejaVuSans-111"/>
     <use x="88.964844" xlink:href="#DejaVuSans-115"/>
     <use x="141.064453" xlink:href="#DejaVuSans-115"/>
     <use x="193.164062" xlink:href="#DejaVuSans-32"/>
     <use x="224.951172" xlink:href="#DejaVuSans-61"/>
     <use x="308.740234" xlink:href="#DejaVuSans-32"/>
     <use x="340.527344" xlink:href="#DejaVuSans-116"/>
     <use x="379.736328" xlink:href="#DejaVuSans-111"/>
     <use x="440.917969" xlink:href="#DejaVuSans-116"/>
     <use x="480.126953" xlink:href="#DejaVuSans-97"/>
     <use x="541.40625" xlink:href="#DejaVuSans-108"/>
     <use x="569.189453" xlink:href="#DejaVuSans-32"/>
     <use x="600.976562" xlink:href="#DejaVuSans-108"/>
     <use x="628.759766" xlink:href="#DejaVuSans-111"/>
     <use x="689.941406" xlink:href="#DejaVuSans-115"/>
     <use x="742.041016" xlink:href="#DejaVuSans-115"/>
    </g>
   </g>
  </g>
  <g id="axes_4">
   <g id="patch_11">
    <path d="M 1130.864373 330.239063 
L 1434.858859 330.239063 
L 1434.858859 36.839063 
L 1130.864373 36.839063 
z
" style="fill:#ffffff;"/>
   </g>
   <g id="PolyCollection_10">
    <defs>
     <path d="M 1278.255639 -131.646699 
L 1278.255639 -56.223729 
L 1287.467593 -56.594489 
L 1287.467593 -137.991165 
L 1287.467593 -137.991165 
L 1278.255639 -131.646699 
z
" id="m0f7a7e1a01" style="stroke:#edd1cb;stroke-opacity:0.2;"/>
    </defs>
    <g clip-path="url(#p25a5dedd17)">
     <use style="fill:#edd1cb;fill-opacity:0.2;stroke:#edd1cb;stroke-opacity:0.2;" x="0" xlink:href="#m0f7a7e1a01" y="367.795313"/>
    </g>
   </g>
   <g id="PolyCollection_11">
    <defs>
     <path d="M 1209.165983 -69.291882 
L 1209.165983 -50.892614 
L 1218.377937 -60.242875 
L 1227.589891 -57.924392 
L 1236.801846 -56.642165 
L 1246.0138 -61.500711 
L 1255.225754 -61.835548 
L 1264.437708 -63.311209 
L 1273.649662 -56.437957 
L 1282.861616 -62.730111 
L 1292.07357 -56.851334 
L 1301.285524 -55.325279 
L 1310.497479 -53.393749 
L 1319.709433 -60.152612 
L 1328.921387 -57.977372 
L 1338.133341 -55.358082 
L 1347.345295 -59.724974 
L 1356.557249 -67.715694 
L 1356.557249 -119.358115 
L 1356.557249 -119.358115 
L 1347.345295 -66.200167 
L 1338.133341 -105.228461 
L 1328.921387 -136.564608 
L 1319.709433 -91.242929 
L 1310.497479 -81.979189 
L 1301.285524 -70.743988 
L 1292.07357 -119.543882 
L 1282.861616 -92.660623 
L 1273.649662 -79.53423 
L 1264.437708 -167.895779 
L 1255.225754 -88.334234 
L 1246.0138 -79.025079 
L 1236.801846 -67.184753 
L 1227.589891 -120.417914 
L 1218.377937 -84.341193 
L 1209.165983 -69.291882 
z
" id="mc66950c9cb" style="stroke:#a9678f;stroke-opacity:0.2;"/>
    </defs>
    <g clip-path="url(#p25a5dedd17)">
     <use style="fill:#a9678f;fill-opacity:0.2;stroke:#a9678f;stroke-opacity:0.2;" x="0" xlink:href="#mc66950c9cb" y="367.795313"/>
    </g>
   </g>
   <g id="PolyCollection_12">
    <defs>
     <path d="M 1144.682304 -317.619886 
L 1144.682304 -278.172899 
L 1153.894258 -117.584807 
L 1163.106212 -70.445703 
L 1172.318167 -74.842849 
L 1181.530121 -65.386374 
L 1190.742075 -70.396392 
L 1199.954029 -64.038585 
L 1209.165983 -52.382628 
L 1218.377937 -55.022704 
L 1227.589891 -66.181396 
L 1236.801846 -61.690794 
L 1246.0138 -67.328278 
L 1255.225754 -75.298427 
L 1264.437708 -63.17786 
L 1273.649662 -62.30013 
L 1282.861616 -62.823721 
L 1292.07357 -60.289273 
L 1301.285524 -63.891449 
L 1310.497479 -65.712079 
L 1319.709433 -65.593279 
L 1328.921387 -61.66353 
L 1338.133341 -62.561391 
L 1347.345295 -68.159561 
L 1356.557249 -71.924221 
L 1365.769203 -87.872111 
L 1374.981158 -76.043861 
L 1384.193112 -68.016943 
L 1393.405066 -95.548723 
L 1402.61702 -73.091649 
L 1411.828974 -115.549449 
L 1421.040928 -81.234038 
L 1421.040928 -136.495929 
L 1421.040928 -136.495929 
L 1411.828974 -171.983924 
L 1402.61702 -100.45881 
L 1393.405066 -148.736044 
L 1384.193112 -133.795936 
L 1374.981158 -140.769788 
L 1365.769203 -135.006544 
L 1356.557249 -109.196394 
L 1347.345295 -86.610591 
L 1338.133341 -212.686283 
L 1328.921387 -79.970011 
L 1319.709433 -86.800623 
L 1310.497479 -124.174483 
L 1301.285524 -106.810156 
L 1292.07357 -157.194651 
L 1282.861616 -85.213285 
L 1273.649662 -137.154609 
L 1264.437708 -87.157518 
L 1255.225754 -125.15157 
L 1246.0138 -147.871272 
L 1236.801846 -94.023896 
L 1227.589891 -107.655755 
L 1218.377937 -85.059076 
L 1209.165983 -63.24667 
L 1199.954029 -117.124446 
L 1190.742075 -98.170614 
L 1181.530121 -115.609146 
L 1172.318167 -106.282275 
L 1163.106212 -111.19644 
L 1153.894258 -133.311781 
L 1144.682304 -317.619886 
z
" id="m14ab7e7f5b" style="stroke:#2d1e3e;stroke-opacity:0.2;"/>
    </defs>
    <g clip-path="url(#p25a5dedd17)">
     <use style="fill:#2d1e3e;fill-opacity:0.2;stroke:#2d1e3e;stroke-opacity:0.2;" x="0" xlink:href="#m14ab7e7f5b" y="367.795313"/>
    </g>
   </g>
   <g id="matplotlib.axis_7">
    <g id="xtick_22">
     <g id="line2d_61">
      <g>
       <use style="stroke:#000000;stroke-width:0.8;" x="1144.682304" xlink:href="#mf04a7544bc" y="330.239063"/>
      </g>
     </g>
     <g id="text_55">
      <!-- −15 -->
      <g transform="translate(1134.12996 344.8375)scale(0.1 -0.1)">
       <use xlink:href="#DejaVuSans-8722"/>
       <use x="83.789062" xlink:href="#DejaVuSans-49"/>
       <use x="147.412109" xlink:href="#DejaVuSans-53"/>
      </g>
     </g>
    </g>
    <g id="xtick_23">
     <g id="line2d_62">
      <g>
       <use style="stroke:#000000;stroke-width:0.8;" x="1190.742075" xlink:href="#mf04a7544bc" y="330.239063"/>
      </g>
     </g>
     <g id="text_56">
      <!-- −10 -->
      <g transform="translate(1180.189731 344.8375)scale(0.1 -0.1)">
       <use xlink:href="#DejaVuSans-8722"/>
       <use x="83.789062" xlink:href="#DejaVuSans-49"/>
       <use x="147.412109" xlink:href="#DejaVuSans-48"/>
      </g>
     </g>
    </g>
    <g id="xtick_24">
     <g id="line2d_63">
      <g>
       <use style="stroke:#000000;stroke-width:0.8;" x="1236.801846" xlink:href="#mf04a7544bc" y="330.239063"/>
      </g>
     </g>
     <g id="text_57">
      <!-- −5 -->
      <g transform="translate(1229.430752 344.8375)scale(0.1 -0.1)">
       <use xlink:href="#DejaVuSans-8722"/>
       <use x="83.789062" xlink:href="#DejaVuSans-53"/>
      </g>
     </g>
    </g>
    <g id="xtick_25">
     <g id="line2d_64">
      <g>
       <use style="stroke:#000000;stroke-width:0.8;" x="1282.861616" xlink:href="#mf04a7544bc" y="330.239063"/>
      </g>
     </g>
     <g id="text_58">
      <!-- 0 -->
      <g transform="translate(1279.680366 344.8375)scale(0.1 -0.1)">
       <use xlink:href="#DejaVuSans-48"/>
      </g>
     </g>
    </g>
    <g id="xtick_26">
     <g id="line2d_65">
      <g>
       <use style="stroke:#000000;stroke-width:0.8;" x="1328.921387" xlink:href="#mf04a7544bc" y="330.239063"/>
      </g>
     </g>
     <g id="text_59">
      <!-- 5 -->
      <g transform="translate(1325.740137 344.8375)scale(0.1 -0.1)">
       <use xlink:href="#DejaVuSans-53"/>
      </g>
     </g>
    </g>
    <g id="xtick_27">
     <g id="line2d_66">
      <g>
       <use style="stroke:#000000;stroke-width:0.8;" x="1374.981158" xlink:href="#mf04a7544bc" y="330.239063"/>
      </g>
     </g>
     <g id="text_60">
      <!-- 10 -->
      <g transform="translate(1368.618658 344.8375)scale(0.1 -0.1)">
       <use xlink:href="#DejaVuSans-49"/>
       <use x="63.623047" xlink:href="#DejaVuSans-48"/>
      </g>
     </g>
    </g>
    <g id="xtick_28">
     <g id="line2d_67">
      <g>
       <use style="stroke:#000000;stroke-width:0.8;" x="1421.040928" xlink:href="#mf04a7544bc" y="330.239063"/>
      </g>
     </g>
     <g id="text_61">
      <!-- 15 -->
      <g transform="translate(1414.678428 344.8375)scale(0.1 -0.1)">
       <use xlink:href="#DejaVuSans-49"/>
       <use x="63.623047" xlink:href="#DejaVuSans-53"/>
      </g>
     </g>
    </g>
    <g id="text_62">
     <!-- spill -->
     <g transform="translate(1272.915522 358.515625)scale(0.1 -0.1)">
      <use xlink:href="#DejaVuSans-115"/>
      <use x="52.099609" xlink:href="#DejaVuSans-112"/>
      <use x="115.576172" xlink:href="#DejaVuSans-105"/>
      <use x="143.359375" xlink:href="#DejaVuSans-108"/>
      <use x="171.142578" xlink:href="#DejaVuSans-108"/>
     </g>
    </g>
   </g>
   <g id="matplotlib.axis_8">
    <g id="ytick_27">
     <g id="line2d_68">
      <g>
       <use style="stroke:#000000;stroke-width:0.8;" x="1130.864373" xlink:href="#me02aa64f06" y="303.396524"/>
      </g>
     </g>
     <g id="text_63">
      <!-- 0.1 -->
      <g transform="translate(1107.961248 307.195743)scale(0.1 -0.1)">
       <use xlink:href="#DejaVuSans-48"/>
       <use x="63.623047" xlink:href="#DejaVuSans-46"/>
       <use x="95.410156" xlink:href="#DejaVuSans-49"/>
      </g>
     </g>
    </g>
    <g id="ytick_28">
     <g id="line2d_69">
      <g>
       <use style="stroke:#000000;stroke-width:0.8;" x="1130.864373" xlink:href="#me02aa64f06" y="269.249735"/>
      </g>
     </g>
     <g id="text_64">
      <!-- 0.2 -->
      <g transform="translate(1107.961248 273.048954)scale(0.1 -0.1)">
       <use xlink:href="#DejaVuSans-48"/>
       <use x="63.623047" xlink:href="#DejaVuSans-46"/>
       <use x="95.410156" xlink:href="#DejaVuSans-50"/>
      </g>
     </g>
    </g>
    <g id="ytick_29">
     <g id="line2d_70">
      <g>
       <use style="stroke:#000000;stroke-width:0.8;" x="1130.864373" xlink:href="#me02aa64f06" y="235.102947"/>
      </g>
     </g>
     <g id="text_65">
      <!-- 0.3 -->
      <defs>
       <path d="M 40.578125 39.3125 
Q 47.65625 37.796875 51.625 33 
Q 55.609375 28.21875 55.609375 21.1875 
Q 55.609375 10.40625 48.1875 4.484375 
Q 40.765625 -1.421875 27.09375 -1.421875 
Q 22.515625 -1.421875 17.65625 -0.515625 
Q 12.796875 0.390625 7.625 2.203125 
L 7.625 11.71875 
Q 11.71875 9.328125 16.59375 8.109375 
Q 21.484375 6.890625 26.8125 6.890625 
Q 36.078125 6.890625 40.9375 10.546875 
Q 45.796875 14.203125 45.796875 21.1875 
Q 45.796875 27.640625 41.28125 31.265625 
Q 36.765625 34.90625 28.71875 34.90625 
L 20.21875 34.90625 
L 20.21875 43.015625 
L 29.109375 43.015625 
Q 36.375 43.015625 40.234375 45.921875 
Q 44.09375 48.828125 44.09375 54.296875 
Q 44.09375 59.90625 40.109375 62.90625 
Q 36.140625 65.921875 28.71875 65.921875 
Q 24.65625 65.921875 20.015625 65.03125 
Q 15.375 64.15625 9.8125 62.3125 
L 9.8125 71.09375 
Q 15.4375 72.65625 20.34375 73.4375 
Q 25.25 74.21875 29.59375 74.21875 
Q 40.828125 74.21875 47.359375 69.109375 
Q 53.90625 64.015625 53.90625 55.328125 
Q 53.90625 49.265625 50.4375 45.09375 
Q 46.96875 40.921875 40.578125 39.3125 
z
" id="DejaVuSans-51"/>
      </defs>
      <g transform="translate(1107.961248 238.902166)scale(0.1 -0.1)">
       <use xlink:href="#DejaVuSans-48"/>
       <use x="63.623047" xlink:href="#DejaVuSans-46"/>
       <use x="95.410156" xlink:href="#DejaVuSans-51"/>
      </g>
     </g>
    </g>
    <g id="ytick_30">
     <g id="line2d_71">
      <g>
       <use style="stroke:#000000;stroke-width:0.8;" x="1130.864373" xlink:href="#me02aa64f06" y="200.956158"/>
      </g>
     </g>
     <g id="text_66">
      <!-- 0.4 -->
      <g transform="translate(1107.961248 204.755377)scale(0.1 -0.1)">
       <use xlink:href="#DejaVuSans-48"/>
       <use x="63.623047" xlink:href="#DejaVuSans-46"/>
       <use x="95.410156" xlink:href="#DejaVuSans-52"/>
      </g>
     </g>
    </g>
    <g id="ytick_31">
     <g id="line2d_72">
      <g>
       <use style="stroke:#000000;stroke-width:0.8;" x="1130.864373" xlink:href="#me02aa64f06" y="166.80937"/>
      </g>
     </g>
     <g id="text_67">
      <!-- 0.5 -->
      <g transform="translate(1107.961248 170.608588)scale(0.1 -0.1)">
       <use xlink:href="#DejaVuSans-48"/>
       <use x="63.623047" xlink:href="#DejaVuSans-46"/>
       <use x="95.410156" xlink:href="#DejaVuSans-53"/>
      </g>
     </g>
    </g>
    <g id="ytick_32">
     <g id="line2d_73">
      <g>
       <use style="stroke:#000000;stroke-width:0.8;" x="1130.864373" xlink:href="#me02aa64f06" y="132.662581"/>
      </g>
     </g>
     <g id="text_68">
      <!-- 0.6 -->
      <g transform="translate(1107.961248 136.4618)scale(0.1 -0.1)">
       <use xlink:href="#DejaVuSans-48"/>
       <use x="63.623047" xlink:href="#DejaVuSans-46"/>
       <use x="95.410156" xlink:href="#DejaVuSans-54"/>
      </g>
     </g>
    </g>
    <g id="ytick_33">
     <g id="line2d_74">
      <g>
       <use style="stroke:#000000;stroke-width:0.8;" x="1130.864373" xlink:href="#me02aa64f06" y="98.515793"/>
      </g>
     </g>
     <g id="text_69">
      <!-- 0.7 -->
      <g transform="translate(1107.961248 102.315011)scale(0.1 -0.1)">
       <use xlink:href="#DejaVuSans-48"/>
       <use x="63.623047" xlink:href="#DejaVuSans-46"/>
       <use x="95.410156" xlink:href="#DejaVuSans-55"/>
      </g>
     </g>
    </g>
    <g id="ytick_34">
     <g id="line2d_75">
      <g>
       <use style="stroke:#000000;stroke-width:0.8;" x="1130.864373" xlink:href="#me02aa64f06" y="64.369004"/>
      </g>
     </g>
     <g id="text_70">
      <!-- 0.8 -->
      <g transform="translate(1107.961248 68.168223)scale(0.1 -0.1)">
       <use xlink:href="#DejaVuSans-48"/>
       <use x="63.623047" xlink:href="#DejaVuSans-46"/>
       <use x="95.410156" xlink:href="#DejaVuSans-56"/>
      </g>
     </g>
    </g>
   </g>
   <g id="line2d_76">
    <path clip-path="url(#p25a5dedd17)" d="M 1278.255639 280.993449 
L 1287.467593 280.993449 
" style="fill:none;stroke:#edd1cb;stroke-linecap:square;stroke-width:1.5;"/>
   </g>
   <g id="line2d_77">
    <path clip-path="url(#p25a5dedd17)" d="M 1209.165983 309.219379 
L 1218.377937 297.169808 
L 1227.589891 284.275537 
L 1236.801846 306.235487 
L 1246.0138 298.27237 
L 1255.225754 293.470099 
L 1264.437708 263.958841 
L 1273.649662 300.097313 
L 1282.861616 290.51486 
L 1292.07357 282.913192 
L 1301.285524 304.723124 
L 1310.497479 301.403565 
L 1319.709433 293.274421 
L 1328.921387 276.064079 
L 1338.133341 291.911126 
L 1347.345295 304.951935 
L 1356.557249 275.239815 
" style="fill:none;stroke:#a9678f;stroke-linecap:square;stroke-width:1.5;"/>
   </g>
   <g id="line2d_78">
    <path clip-path="url(#p25a5dedd17)" d="M 1144.682304 75.494952 
L 1153.894258 242.32459 
L 1163.106212 280.133129 
L 1172.318167 279.316343 
L 1181.530121 282.450642 
L 1190.742075 284.477252 
L 1199.954029 283.059633 
L 1209.165983 310.403104 
L 1218.377937 299.573139 
L 1227.589891 281.686932 
L 1236.801846 290.827162 
L 1246.0138 267.290494 
L 1255.225754 268.267739 
L 1264.437708 293.085356 
L 1273.649662 274.582862 
L 1282.861616 294.013532 
L 1292.07357 271.861513 
L 1301.285524 284.912718 
L 1310.497479 275.906394 
L 1319.709433 292.271597 
L 1328.921387 297.761755 
L 1338.133341 252.478498 
L 1347.345295 290.389842 
L 1356.557249 277.409393 
L 1365.769203 257.465899 
L 1374.981158 262.381362 
L 1384.193112 271.100116 
L 1393.405066 247.676351 
L 1402.61702 281.47346 
L 1411.828974 223.204953 
L 1421.040928 260.369492 
" style="fill:none;stroke:#2d1e3e;stroke-linecap:square;stroke-width:1.5;"/>
   </g>
   <g id="patch_12">
    <path d="M 1130.864373 330.239063 
L 1130.864373 36.839063 
" style="fill:none;stroke:#000000;stroke-linecap:square;stroke-linejoin:miter;stroke-width:0.8;"/>
   </g>
   <g id="patch_13">
    <path d="M 1130.864373 330.239063 
L 1434.858859 330.239063 
" style="fill:none;stroke:#000000;stroke-linecap:square;stroke-linejoin:miter;stroke-width:0.8;"/>
   </g>
   <g id="text_71">
    <!-- loss = adj -->
    <defs>
     <path d="M 45.40625 46.390625 
L 45.40625 75.984375 
L 54.390625 75.984375 
L 54.390625 0 
L 45.40625 0 
L 45.40625 8.203125 
Q 42.578125 3.328125 38.25 0.953125 
Q 33.9375 -1.421875 27.875 -1.421875 
Q 17.96875 -1.421875 11.734375 6.484375 
Q 5.515625 14.40625 5.515625 27.296875 
Q 5.515625 40.1875 11.734375 48.09375 
Q 17.96875 56 27.875 56 
Q 33.9375 56 38.25 53.625 
Q 42.578125 51.265625 45.40625 46.390625 
z
M 14.796875 27.296875 
Q 14.796875 17.390625 18.875 11.75 
Q 22.953125 6.109375 30.078125 6.109375 
Q 37.203125 6.109375 41.296875 11.75 
Q 45.40625 17.390625 45.40625 27.296875 
Q 45.40625 37.203125 41.296875 42.84375 
Q 37.203125 48.484375 30.078125 48.484375 
Q 22.953125 48.484375 18.875 42.84375 
Q 14.796875 37.203125 14.796875 27.296875 
z
" id="DejaVuSans-100"/>
     <path d="M 9.421875 54.6875 
L 18.40625 54.6875 
L 18.40625 -0.984375 
Q 18.40625 -11.421875 14.421875 -16.109375 
Q 10.453125 -20.796875 1.609375 -20.796875 
L -1.8125 -20.796875 
L -1.8125 -13.1875 
L 0.59375 -13.1875 
Q 5.71875 -13.1875 7.5625 -10.8125 
Q 9.421875 -8.453125 9.421875 -0.984375 
z
M 9.421875 75.984375 
L 18.40625 75.984375 
L 18.40625 64.59375 
L 9.421875 64.59375 
z
" id="DejaVuSans-106"/>
    </defs>
    <g transform="translate(1258.208491 30.839063)scale(0.1 -0.1)">
     <use xlink:href="#DejaVuSans-108"/>
     <use x="27.783203" xlink:href="#DejaVuSans-111"/>
     <use x="88.964844" xlink:href="#DejaVuSans-115"/>
     <use x="141.064453" xlink:href="#DejaVuSans-115"/>
     <use x="193.164062" xlink:href="#DejaVuSans-32"/>
     <use x="224.951172" xlink:href="#DejaVuSans-61"/>
     <use x="308.740234" xlink:href="#DejaVuSans-32"/>
     <use x="340.527344" xlink:href="#DejaVuSans-97"/>
     <use x="401.806641" xlink:href="#DejaVuSans-100"/>
     <use x="465.283203" xlink:href="#DejaVuSans-106"/>
    </g>
   </g>
  </g>
  <g id="axes_5">
   <g id="patch_14">
    <path d="M 1484.600513 330.239063 
L 1788.595 330.239063 
L 1788.595 36.839063 
L 1484.600513 36.839063 
z
" style="fill:#ffffff;"/>
   </g>
   <g id="PolyCollection_13">
    <defs>
     <path d="M 1631.99178 -162.869295 
L 1631.99178 -136.008412 
L 1641.203734 -135.94348 
L 1641.203734 -162.969089 
L 1641.203734 -162.969089 
L 1631.99178 -162.869295 
z
" id="mdef9ab5648" style="stroke:#edd1cb;stroke-opacity:0.2;"/>
    </defs>
    <g clip-path="url(#p68565bd4d9)">
     <use style="fill:#edd1cb;fill-opacity:0.2;stroke:#edd1cb;stroke-opacity:0.2;" x="0" xlink:href="#mdef9ab5648" y="367.795313"/>
    </g>
   </g>
   <g id="PolyCollection_14">
    <defs>
     <path d="M 1562.902124 -103.807297 
L 1562.902124 -89.485931 
L 1572.114078 -100.419389 
L 1581.326032 -90.9386 
L 1590.537986 -94.504699 
L 1599.74994 -96.652968 
L 1608.961894 -98.118485 
L 1618.173848 -100.408469 
L 1627.385803 -103.107649 
L 1636.597757 -102.411454 
L 1645.809711 -103.174908 
L 1655.021665 -106.50217 
L 1664.233619 -110.92968 
L 1673.445573 -119.118509 
L 1682.657527 -122.356068 
L 1691.869482 -122.994497 
L 1701.081436 -143.12799 
L 1710.29339 -160.589592 
L 1710.29339 -182.018326 
L 1710.29339 -182.018326 
L 1701.081436 -151.578612 
L 1691.869482 -144.630209 
L 1682.657527 -149.184665 
L 1673.445573 -132.675227 
L 1664.233619 -130.667852 
L 1655.021665 -113.870322 
L 1645.809711 -133.844834 
L 1636.597757 -114.590538 
L 1627.385803 -114.701069 
L 1618.173848 -115.184162 
L 1608.961894 -109.196875 
L 1599.74994 -107.045759 
L 1590.537986 -105.837929 
L 1581.326032 -104.864799 
L 1572.114078 -112.812506 
L 1562.902124 -103.807297 
z
" id="m1eae9b00f4" style="stroke:#a9678f;stroke-opacity:0.2;"/>
    </defs>
    <g clip-path="url(#p68565bd4d9)">
     <use style="fill:#a9678f;fill-opacity:0.2;stroke:#a9678f;stroke-opacity:0.2;" x="0" xlink:href="#m1eae9b00f4" y="367.795313"/>
    </g>
   </g>
   <g id="PolyCollection_15">
    <defs>
     <path d="M 1498.418445 -58.458824 
L 1498.418445 -53.387988 
L 1507.630399 -50.892614 
L 1516.842353 -57.009534 
L 1526.054307 -52.01387 
L 1535.266261 -52.390933 
L 1544.478215 -54.895217 
L 1553.690169 -55.70727 
L 1562.902124 -55.039731 
L 1572.114078 -54.336098 
L 1581.326032 -58.242138 
L 1590.537986 -56.688031 
L 1599.74994 -53.623374 
L 1608.961894 -61.306702 
L 1618.173848 -59.220092 
L 1627.385803 -62.361114 
L 1636.597757 -66.840497 
L 1645.809711 -65.673235 
L 1655.021665 -70.483753 
L 1664.233619 -68.662084 
L 1673.445573 -69.645912 
L 1682.657527 -73.884592 
L 1691.869482 -81.153806 
L 1701.081436 -79.048235 
L 1710.29339 -80.676802 
L 1719.505344 -91.833143 
L 1728.717298 -95.586424 
L 1737.929252 -104.591461 
L 1747.141206 -130.653758 
L 1756.353161 -163.856038 
L 1765.565115 -238.412373 
L 1774.777069 -317.343368 
L 1774.777069 -317.619886 
L 1774.777069 -317.619886 
L 1765.565115 -253.066299 
L 1756.353161 -178.298395 
L 1747.141206 -163.217752 
L 1737.929252 -120.628709 
L 1728.717298 -110.190646 
L 1719.505344 -106.269354 
L 1710.29339 -91.222238 
L 1701.081436 -91.970426 
L 1691.869482 -90.759521 
L 1682.657527 -86.723761 
L 1673.445573 -77.721839 
L 1664.233619 -78.496525 
L 1655.021665 -84.235492 
L 1645.809711 -71.440271 
L 1636.597757 -77.494607 
L 1627.385803 -70.079435 
L 1618.173848 -67.526934 
L 1608.961894 -66.031761 
L 1599.74994 -59.457104 
L 1590.537986 -64.753504 
L 1581.326032 -64.005207 
L 1572.114078 -63.262645 
L 1562.902124 -62.33077 
L 1553.690169 -60.163223 
L 1544.478215 -62.690737 
L 1535.266261 -59.105851 
L 1526.054307 -58.90628 
L 1516.842353 -63.03882 
L 1507.630399 -57.974686 
L 1498.418445 -58.458824 
z
" id="mec50b4395d" style="stroke:#2d1e3e;stroke-opacity:0.2;"/>
    </defs>
    <g clip-path="url(#p68565bd4d9)">
     <use style="fill:#2d1e3e;fill-opacity:0.2;stroke:#2d1e3e;stroke-opacity:0.2;" x="0" xlink:href="#mec50b4395d" y="367.795313"/>
    </g>
   </g>
   <g id="matplotlib.axis_9">
    <g id="xtick_29">
     <g id="line2d_79">
      <g>
       <use style="stroke:#000000;stroke-width:0.8;" x="1498.418445" xlink:href="#mf04a7544bc" y="330.239063"/>
      </g>
     </g>
     <g id="text_72">
      <!-- −15 -->
      <g transform="translate(1487.866101 344.8375)scale(0.1 -0.1)">
       <use xlink:href="#DejaVuSans-8722"/>
       <use x="83.789062" xlink:href="#DejaVuSans-49"/>
       <use x="147.412109" xlink:href="#DejaVuSans-53"/>
      </g>
     </g>
    </g>
    <g id="xtick_30">
     <g id="line2d_80">
      <g>
       <use style="stroke:#000000;stroke-width:0.8;" x="1544.478215" xlink:href="#mf04a7544bc" y="330.239063"/>
      </g>
     </g>
     <g id="text_73">
      <!-- −10 -->
      <g transform="translate(1533.925872 344.8375)scale(0.1 -0.1)">
       <use xlink:href="#DejaVuSans-8722"/>
       <use x="83.789062" xlink:href="#DejaVuSans-49"/>
       <use x="147.412109" xlink:href="#DejaVuSans-48"/>
      </g>
     </g>
    </g>
    <g id="xtick_31">
     <g id="line2d_81">
      <g>
       <use style="stroke:#000000;stroke-width:0.8;" x="1590.537986" xlink:href="#mf04a7544bc" y="330.239063"/>
      </g>
     </g>
     <g id="text_74">
      <!-- −5 -->
      <g transform="translate(1583.166892 344.8375)scale(0.1 -0.1)">
       <use xlink:href="#DejaVuSans-8722"/>
       <use x="83.789062" xlink:href="#DejaVuSans-53"/>
      </g>
     </g>
    </g>
    <g id="xtick_32">
     <g id="line2d_82">
      <g>
       <use style="stroke:#000000;stroke-width:0.8;" x="1636.597757" xlink:href="#mf04a7544bc" y="330.239063"/>
      </g>
     </g>
     <g id="text_75">
      <!-- 0 -->
      <g transform="translate(1633.416507 344.8375)scale(0.1 -0.1)">
       <use xlink:href="#DejaVuSans-48"/>
      </g>
     </g>
    </g>
    <g id="xtick_33">
     <g id="line2d_83">
      <g>
       <use style="stroke:#000000;stroke-width:0.8;" x="1682.657527" xlink:href="#mf04a7544bc" y="330.239063"/>
      </g>
     </g>
     <g id="text_76">
      <!-- 5 -->
      <g transform="translate(1679.476277 344.8375)scale(0.1 -0.1)">
       <use xlink:href="#DejaVuSans-53"/>
      </g>
     </g>
    </g>
    <g id="xtick_34">
     <g id="line2d_84">
      <g>
       <use style="stroke:#000000;stroke-width:0.8;" x="1728.717298" xlink:href="#mf04a7544bc" y="330.239063"/>
      </g>
     </g>
     <g id="text_77">
      <!-- 10 -->
      <g transform="translate(1722.354798 344.8375)scale(0.1 -0.1)">
       <use xlink:href="#DejaVuSans-49"/>
       <use x="63.623047" xlink:href="#DejaVuSans-48"/>
      </g>
     </g>
    </g>
    <g id="xtick_35">
     <g id="line2d_85">
      <g>
       <use style="stroke:#000000;stroke-width:0.8;" x="1774.777069" xlink:href="#mf04a7544bc" y="330.239063"/>
      </g>
     </g>
     <g id="text_78">
      <!-- 15 -->
      <g transform="translate(1768.414569 344.8375)scale(0.1 -0.1)">
       <use xlink:href="#DejaVuSans-49"/>
       <use x="63.623047" xlink:href="#DejaVuSans-53"/>
      </g>
     </g>
    </g>
    <g id="text_79">
     <!-- spill -->
     <g transform="translate(1626.651663 358.515625)scale(0.1 -0.1)">
      <use xlink:href="#DejaVuSans-115"/>
      <use x="52.099609" xlink:href="#DejaVuSans-112"/>
      <use x="115.576172" xlink:href="#DejaVuSans-105"/>
      <use x="143.359375" xlink:href="#DejaVuSans-108"/>
      <use x="171.142578" xlink:href="#DejaVuSans-108"/>
     </g>
    </g>
   </g>
   <g id="matplotlib.axis_10">
    <g id="ytick_35">
     <g id="line2d_86">
      <g>
       <use style="stroke:#000000;stroke-width:0.8;" x="1484.600513" xlink:href="#me02aa64f06" y="308.479419"/>
      </g>
     </g>
     <g id="text_80">
      <!-- 0.3 -->
      <g transform="translate(1461.697388 312.278638)scale(0.1 -0.1)">
       <use xlink:href="#DejaVuSans-48"/>
       <use x="63.623047" xlink:href="#DejaVuSans-46"/>
       <use x="95.410156" xlink:href="#DejaVuSans-51"/>
      </g>
     </g>
    </g>
    <g id="ytick_36">
     <g id="line2d_87">
      <g>
       <use style="stroke:#000000;stroke-width:0.8;" x="1484.600513" xlink:href="#me02aa64f06" y="249.279474"/>
      </g>
     </g>
     <g id="text_81">
      <!-- 0.4 -->
      <g transform="translate(1461.697388 253.078693)scale(0.1 -0.1)">
       <use xlink:href="#DejaVuSans-48"/>
       <use x="63.623047" xlink:href="#DejaVuSans-46"/>
       <use x="95.410156" xlink:href="#DejaVuSans-52"/>
      </g>
     </g>
    </g>
    <g id="ytick_37">
     <g id="line2d_88">
      <g>
       <use style="stroke:#000000;stroke-width:0.8;" x="1484.600513" xlink:href="#me02aa64f06" y="190.079528"/>
      </g>
     </g>
     <g id="text_82">
      <!-- 0.5 -->
      <g transform="translate(1461.697388 193.878747)scale(0.1 -0.1)">
       <use xlink:href="#DejaVuSans-48"/>
       <use x="63.623047" xlink:href="#DejaVuSans-46"/>
       <use x="95.410156" xlink:href="#DejaVuSans-53"/>
      </g>
     </g>
    </g>
    <g id="ytick_38">
     <g id="line2d_89">
      <g>
       <use style="stroke:#000000;stroke-width:0.8;" x="1484.600513" xlink:href="#me02aa64f06" y="130.879583"/>
      </g>
     </g>
     <g id="text_83">
      <!-- 0.6 -->
      <g transform="translate(1461.697388 134.678802)scale(0.1 -0.1)">
       <use xlink:href="#DejaVuSans-48"/>
       <use x="63.623047" xlink:href="#DejaVuSans-46"/>
       <use x="95.410156" xlink:href="#DejaVuSans-54"/>
      </g>
     </g>
    </g>
    <g id="ytick_39">
     <g id="line2d_90">
      <g>
       <use style="stroke:#000000;stroke-width:0.8;" x="1484.600513" xlink:href="#me02aa64f06" y="71.679638"/>
      </g>
     </g>
     <g id="text_84">
      <!-- 0.7 -->
      <g transform="translate(1461.697388 75.478856)scale(0.1 -0.1)">
       <use xlink:href="#DejaVuSans-48"/>
       <use x="63.623047" xlink:href="#DejaVuSans-46"/>
       <use x="95.410156" xlink:href="#DejaVuSans-55"/>
      </g>
     </g>
    </g>
   </g>
   <g id="line2d_91">
    <path clip-path="url(#p68565bd4d9)" d="M 1631.99178 219.433031 
L 1641.203734 219.433031 
" style="fill:none;stroke:#edd1cb;stroke-linecap:square;stroke-width:1.5;"/>
   </g>
   <g id="line2d_92">
    <path clip-path="url(#p68565bd4d9)" d="M 1562.902124 272.012624 
L 1572.114078 261.522645 
L 1581.326032 269.423153 
L 1590.537986 267.894495 
L 1599.74994 266.085362 
L 1608.961894 263.631449 
L 1618.173848 259.659417 
L 1627.385803 259.182036 
L 1636.597757 259.329226 
L 1645.809711 250.643127 
L 1655.021665 257.843829 
L 1664.233619 247.126269 
L 1673.445573 241.658325 
L 1682.657527 232.589822 
L 1691.869482 234.651103 
L 1701.081436 220.289175 
L 1710.29339 197.505957 
" style="fill:none;stroke:#a9678f;stroke-linecap:square;stroke-width:1.5;"/>
   </g>
   <g id="line2d_93">
    <path clip-path="url(#p68565bd4d9)" d="M 1498.418445 312.024795 
L 1507.630399 313.489623 
L 1516.842353 307.511971 
L 1526.054307 312.281394 
L 1535.266261 312.202649 
L 1544.478215 309.086977 
L 1553.690169 309.800455 
L 1562.902124 309.247397 
L 1572.114078 309.025068 
L 1581.326032 306.854118 
L 1590.537986 306.973501 
L 1599.74994 311.267031 
L 1608.961894 304.178156 
L 1618.173848 304.734172 
L 1627.385803 301.601116 
L 1636.597757 295.669294 
L 1645.809711 299.064737 
L 1655.021665 291.243307 
L 1664.233619 294.757071 
L 1673.445573 293.614903 
L 1682.657527 287.804561 
L 1691.869482 281.821207 
L 1701.081436 282.396602 
L 1710.29339 281.63284 
L 1719.505344 270.190431 
L 1728.717298 265.666347 
L 1737.929252 255.88544 
L 1747.141206 223.854255 
L 1756.353161 196.53613 
L 1765.565115 121.582176 
L 1774.777069 50.282741 
" style="fill:none;stroke:#2d1e3e;stroke-linecap:square;stroke-width:1.5;"/>
   </g>
   <g id="patch_15">
    <path d="M 1484.600513 330.239063 
L 1484.600513 36.839063 
" style="fill:none;stroke:#000000;stroke-linecap:square;stroke-linejoin:miter;stroke-width:0.8;"/>
   </g>
   <g id="patch_16">
    <path d="M 1484.600513 330.239063 
L 1788.595 330.239063 
" style="fill:none;stroke:#000000;stroke-linecap:square;stroke-linejoin:miter;stroke-width:0.8;"/>
   </g>
   <g id="text_85">
    <!-- loss = feat -->
    <defs>
     <path d="M 37.109375 75.984375 
L 37.109375 68.5 
L 28.515625 68.5 
Q 23.6875 68.5 21.796875 66.546875 
Q 19.921875 64.59375 19.921875 59.515625 
L 19.921875 54.6875 
L 34.71875 54.6875 
L 34.71875 47.703125 
L 19.921875 47.703125 
L 19.921875 0 
L 10.890625 0 
L 10.890625 47.703125 
L 2.296875 47.703125 
L 2.296875 54.6875 
L 10.890625 54.6875 
L 10.890625 58.5 
Q 10.890625 67.625 15.140625 71.796875 
Q 19.390625 75.984375 28.609375 75.984375 
z
" id="DejaVuSans-102"/>
     <path d="M 56.203125 29.59375 
L 56.203125 25.203125 
L 14.890625 25.203125 
Q 15.484375 15.921875 20.484375 11.0625 
Q 25.484375 6.203125 34.421875 6.203125 
Q 39.59375 6.203125 44.453125 7.46875 
Q 49.3125 8.734375 54.109375 11.28125 
L 54.109375 2.78125 
Q 49.265625 0.734375 44.1875 -0.34375 
Q 39.109375 -1.421875 33.890625 -1.421875 
Q 20.796875 -1.421875 13.15625 6.1875 
Q 5.515625 13.8125 5.515625 26.8125 
Q 5.515625 40.234375 12.765625 48.109375 
Q 20.015625 56 32.328125 56 
Q 43.359375 56 49.78125 48.890625 
Q 56.203125 41.796875 56.203125 29.59375 
z
M 47.21875 32.234375 
Q 47.125 39.59375 43.09375 43.984375 
Q 39.0625 48.390625 32.421875 48.390625 
Q 24.90625 48.390625 20.390625 44.140625 
Q 15.875 39.890625 15.1875 32.171875 
z
" id="DejaVuSans-101"/>
    </defs>
    <g transform="translate(1609.711038 30.839063)scale(0.1 -0.1)">
     <use xlink:href="#DejaVuSans-108"/>
     <use x="27.783203" xlink:href="#DejaVuSans-111"/>
     <use x="88.964844" xlink:href="#DejaVuSans-115"/>
     <use x="141.064453" xlink:href="#DejaVuSans-115"/>
     <use x="193.164062" xlink:href="#DejaVuSans-32"/>
     <use x="224.951172" xlink:href="#DejaVuSans-61"/>
     <use x="308.740234" xlink:href="#DejaVuSans-32"/>
     <use x="340.527344" xlink:href="#DejaVuSans-102"/>
     <use x="375.732422" xlink:href="#DejaVuSans-101"/>
     <use x="437.255859" xlink:href="#DejaVuSans-97"/>
     <use x="498.535156" xlink:href="#DejaVuSans-116"/>
    </g>
   </g>
  </g>
  <g id="text_86">
   <g id="patch_17">
    <path d="M 3.2 20.878125 
L 103.720313 20.878125 
L 103.720313 3.2 
L 3.2 3.2 
z
" style="fill:none;stroke:#8b0000;stroke-linejoin:miter;"/>
   </g>
   <!-- dataset = citeseer -->
   <defs>
    <path d="M 41.109375 46.296875 
Q 39.59375 47.171875 37.8125 47.578125 
Q 36.03125 48 33.890625 48 
Q 26.265625 48 22.1875 43.046875 
Q 18.109375 38.09375 18.109375 28.8125 
L 18.109375 0 
L 9.078125 0 
L 9.078125 54.6875 
L 18.109375 54.6875 
L 18.109375 46.1875 
Q 20.953125 51.171875 25.484375 53.578125 
Q 30.03125 56 36.53125 56 
Q 37.453125 56 38.578125 55.875 
Q 39.703125 55.765625 41.0625 55.515625 
z
" id="DejaVuSans-114"/>
   </defs>
   <g style="fill:#8b0000;" transform="translate(7.2 14.798437)scale(0.1 -0.1)">
    <use xlink:href="#DejaVuSans-100"/>
    <use x="63.476562" xlink:href="#DejaVuSans-97"/>
    <use x="124.755859" xlink:href="#DejaVuSans-116"/>
    <use x="163.964844" xlink:href="#DejaVuSans-97"/>
    <use x="225.244141" xlink:href="#DejaVuSans-115"/>
    <use x="277.34375" xlink:href="#DejaVuSans-101"/>
    <use x="338.867188" xlink:href="#DejaVuSans-116"/>
    <use x="378.076172" xlink:href="#DejaVuSans-32"/>
    <use x="409.863281" xlink:href="#DejaVuSans-61"/>
    <use x="493.652344" xlink:href="#DejaVuSans-32"/>
    <use x="525.439453" xlink:href="#DejaVuSans-99"/>
    <use x="580.419922" xlink:href="#DejaVuSans-105"/>
    <use x="608.203125" xlink:href="#DejaVuSans-116"/>
    <use x="647.412109" xlink:href="#DejaVuSans-101"/>
    <use x="708.935547" xlink:href="#DejaVuSans-115"/>
    <use x="761.035156" xlink:href="#DejaVuSans-101"/>
    <use x="822.558594" xlink:href="#DejaVuSans-101"/>
    <use x="884.082031" xlink:href="#DejaVuSans-114"/>
   </g>
  </g>
  <g id="legend_1">
   <g id="line2d_94">
    <path d="M 1808.45625 161.129688 
L 1828.45625 161.129688 
" style="fill:none;"/>
   </g>
   <g id="line2d_95"/>
   <g id="text_87">
    <!-- dimξ -->
    <defs>
     <path d="M 52 44.1875 
Q 55.375 50.25 60.0625 53.125 
Q 64.75 56 71.09375 56 
Q 79.640625 56 84.28125 50.015625 
Q 88.921875 44.046875 88.921875 33.015625 
L 88.921875 0 
L 79.890625 0 
L 79.890625 32.71875 
Q 79.890625 40.578125 77.09375 44.375 
Q 74.3125 48.1875 68.609375 48.1875 
Q 61.625 48.1875 57.5625 43.546875 
Q 53.515625 38.921875 53.515625 30.90625 
L 53.515625 0 
L 44.484375 0 
L 44.484375 32.71875 
Q 44.484375 40.625 41.703125 44.40625 
Q 38.921875 48.1875 33.109375 48.1875 
Q 26.21875 48.1875 22.15625 43.53125 
Q 18.109375 38.875 18.109375 30.90625 
L 18.109375 0 
L 9.078125 0 
L 9.078125 54.6875 
L 18.109375 54.6875 
L 18.109375 46.1875 
Q 21.1875 51.21875 25.484375 53.609375 
Q 29.78125 56 35.6875 56 
Q 41.65625 56 45.828125 52.96875 
Q 50 49.953125 52 44.1875 
z
" id="DejaVuSans-109"/>
     <path d="M 35.640625 6.203125 
Q 42.09375 6.15625 45.953125 2.484375 
Q 50.046875 -1.375 50.046875 -7.234375 
Q 50.046875 -12.84375 46.4375 -16.75 
Q 42.53125 -21 34.578125 -21 
Q 34.578125 -17.328125 34.578125 -13.625 
Q 37.9375 -13.875 39.984375 -11.71875 
Q 41.546875 -10.015625 41.546875 -8.203125 
Q 41.546875 -5.609375 39.984375 -3.46875 
Q 38.484375 -1.421875 35.640625 -1.421875 
Q 5.21875 -1.421875 5.21875 19.921875 
Q 5.21875 34.578125 21.484375 38.875 
Q 7.8125 40.625 7.8125 53.328125 
Q 7.8125 62.9375 18.5625 66.9375 
L 8.40625 66.9375 
L 8.40625 75.984375 
L 46.921875 75.984375 
L 46.921875 66.9375 
Q 16.21875 66.9375 16.21875 52.734375 
Q 16.21875 43.40625 42 42.96875 
L 42 34.671875 
Q 14.15625 35.75 14.265625 19.921875 
Q 14.3125 6.6875 35.640625 6.203125 
z
" id="DejaVuSans-958"/>
    </defs>
    <g transform="translate(1836.45625 164.629688)scale(0.1 -0.1)">
     <use xlink:href="#DejaVuSans-100"/>
     <use x="63.476562" xlink:href="#DejaVuSans-105"/>
     <use x="91.259766" xlink:href="#DejaVuSans-109"/>
     <use x="188.671875" xlink:href="#DejaVuSans-958"/>
    </g>
   </g>
   <g id="line2d_96">
    <path d="M 1808.45625 175.828125 
L 1828.45625 175.828125 
" style="fill:none;stroke:#edd1cb;stroke-linecap:square;stroke-width:1.5;"/>
   </g>
   <g id="line2d_97"/>
   <g id="text_88">
    <!-- 16 -->
    <g transform="translate(1836.45625 179.328125)scale(0.1 -0.1)">
     <use xlink:href="#DejaVuSans-49"/>
     <use x="63.623047" xlink:href="#DejaVuSans-54"/>
    </g>
   </g>
   <g id="line2d_98">
    <path d="M 1808.45625 190.50625 
L 1828.45625 190.50625 
" style="fill:none;stroke:#a9678f;stroke-linecap:square;stroke-width:1.5;"/>
   </g>
   <g id="line2d_99"/>
   <g id="text_89">
    <!-- 24 -->
    <g transform="translate(1836.45625 194.00625)scale(0.1 -0.1)">
     <use xlink:href="#DejaVuSans-50"/>
     <use x="63.623047" xlink:href="#DejaVuSans-52"/>
    </g>
   </g>
   <g id="line2d_100">
    <path d="M 1808.45625 205.184375 
L 1828.45625 205.184375 
" style="fill:none;stroke:#2d1e3e;stroke-linecap:square;stroke-width:1.5;"/>
   </g>
   <g id="line2d_101"/>
   <g id="text_90">
    <!-- 32 -->
    <g transform="translate(1836.45625 208.684375)scale(0.1 -0.1)">
     <use xlink:href="#DejaVuSans-51"/>
     <use x="63.623047" xlink:href="#DejaVuSans-50"/>
    </g>
   </g>
  </g>
 </g>
 <defs>
  <clipPath id="p9216726fcd">
   <rect height="293.4" width="303.994487" x="69.655951" y="36.839063"/>
  </clipPath>
  <clipPath id="p3c10925eb4">
   <rect height="293.4" width="303.994487" x="423.392092" y="36.839063"/>
  </clipPath>
  <clipPath id="pc486e10057">
   <rect height="293.4" width="303.994487" x="777.128232" y="36.839063"/>
  </clipPath>
  <clipPath id="p25a5dedd17">
   <rect height="293.4" width="303.994487" x="1130.864373" y="36.839063"/>
  </clipPath>
  <clipPath id="p68565bd4d9">
   <rect height="293.4" width="303.994487" x="1484.600513" y="36.839063"/>
  </clipPath>
 </defs>
</svg>
