<?xml version="1.0" encoding="utf-8" standalone="no"?>
<!DOCTYPE svg PUBLIC "-//W3C//DTD SVG 1.1//EN"
  "http://www.w3.org/Graphics/SVG/1.1/DTD/svg11.dtd">
<!-- Created with matplotlib (https://matplotlib.org/) -->
<svg height="367.795313pt" version="1.1" viewBox="0 0 1869.9 367.795313" width="1869.9pt" xmlns="http://www.w3.org/2000/svg" xmlns:xlink="http://www.w3.org/1999/xlink">
 <defs>
  <style type="text/css">
*{stroke-linecap:butt;stroke-linejoin:round;}
  </style>
 </defs>
 <g id="figure_1">
  <g id="patch_1">
   <path d="M 0 367.795313 
L 1869.9 367.795313 
L 1869.9 0 
L 0 0 
z
" style="fill:#ffffff;"/>
  </g>
  <g id="axes_1">
   <g id="patch_2">
    <path d="M 56.47741 330.239063 
L 368.179346 330.239063 
L 368.179346 36.839063 
L 56.47741 36.839063 
z
" style="fill:#ffffff;"/>
   </g>
   <g id="PolyCollection_1">
    <defs>
     <path d="M 207.605621 -129.161077 
L 207.605621 -88.585671 
L 217.051135 -88.276047 
L 217.051135 -130.852136 
L 217.051135 -130.852136 
L 207.605621 -129.161077 
z
" id="m4c0f0dbf7c" style="stroke:#edd1cb;stroke-opacity:0.2;"/>
    </defs>
    <g clip-path="url(#pf2b42feab8)">
     <use style="fill:#edd1cb;fill-opacity:0.2;stroke:#edd1cb;stroke-opacity:0.2;" x="0" xlink:href="#m4c0f0dbf7c" y="367.795313"/>
    </g>
   </g>
   <g id="PolyCollection_2">
    <defs>
     <path d="M 136.764272 -236.165618 
L 136.764272 -190.185295 
L 146.209785 -204.006693 
L 155.655299 -230.973647 
L 165.100812 -217.545532 
L 174.546325 -201.295933 
L 183.991838 -213.890282 
L 193.437352 -209.352093 
L 202.882865 -203.839335 
L 212.328378 -211.81633 
L 221.773891 -195.161098 
L 231.219404 -191.030167 
L 240.664918 -190.851264 
L 250.110431 -201.352567 
L 259.555944 -175.696599 
L 269.001457 -181.665835 
L 278.446971 -170.670456 
L 287.892484 -139.796882 
L 287.892484 -174.0082 
L 287.892484 -174.0082 
L 278.446971 -201.704071 
L 269.001457 -210.357915 
L 259.555944 -227.103412 
L 250.110431 -225.561609 
L 240.664918 -250.194537 
L 231.219404 -242.269525 
L 221.773891 -227.643054 
L 212.328378 -253.639902 
L 202.882865 -232.640896 
L 193.437352 -231.849081 
L 183.991838 -236.527226 
L 174.546325 -240.831423 
L 165.100812 -265.837994 
L 155.655299 -255.243378 
L 146.209785 -247.860379 
L 136.764272 -236.165618 
z
" id="mb65041e294" style="stroke:#a9678f;stroke-opacity:0.2;"/>
    </defs>
    <g clip-path="url(#pf2b42feab8)">
     <use style="fill:#a9678f;fill-opacity:0.2;stroke:#a9678f;stroke-opacity:0.2;" x="0" xlink:href="#mb65041e294" y="367.795313"/>
    </g>
   </g>
   <g id="PolyCollection_3">
    <defs>
     <path d="M 70.64568 -311.741545 
L 70.64568 -286.021489 
L 80.091193 -275.912786 
L 89.536706 -286.231027 
L 98.982219 -293.259922 
L 108.427732 -293.194635 
L 117.873246 -297.413274 
L 127.318759 -296.137888 
L 136.764272 -287.515598 
L 146.209785 -302.355267 
L 155.655299 -299.532897 
L 165.100812 -285.577071 
L 174.546325 -300.719362 
L 183.991838 -282.225115 
L 193.437352 -302.608208 
L 202.882865 -286.846673 
L 212.328378 -289.562472 
L 221.773891 -289.061017 
L 231.219404 -285.747313 
L 240.664918 -279.177169 
L 250.110431 -276.685299 
L 259.555944 -270.273355 
L 269.001457 -274.227435 
L 278.446971 -274.04968 
L 287.892484 -239.009878 
L 297.337997 -212.584237 
L 306.78351 -229.748395 
L 316.229023 -208.145079 
L 325.674537 -196.869098 
L 335.12005 -136.475093 
L 344.565563 -112.221543 
L 354.011076 -50.892614 
L 354.011076 -81.958757 
L 354.011076 -81.958757 
L 344.565563 -149.983157 
L 335.12005 -165.404431 
L 325.674537 -225.702798 
L 316.229023 -238.669232 
L 306.78351 -254.01571 
L 297.337997 -258.905465 
L 287.892484 -264.82946 
L 278.446971 -282.050891 
L 269.001457 -297.294307 
L 259.555944 -295.597111 
L 250.110431 -302.055432 
L 240.664918 -308.60269 
L 231.219404 -299.385134 
L 221.773891 -302.866015 
L 212.328378 -307.11329 
L 202.882865 -310.084696 
L 193.437352 -317.128859 
L 183.991838 -314.572186 
L 174.546325 -316.567897 
L 165.100812 -307.901872 
L 155.655299 -312.833026 
L 146.209785 -317.619886 
L 136.764272 -311.887118 
L 127.318759 -309.477701 
L 117.873246 -311.026691 
L 108.427732 -308.820851 
L 98.982219 -300.42332 
L 89.536706 -309.878385 
L 80.091193 -305.95324 
L 70.64568 -311.741545 
z
" id="m70425cfe64" style="stroke:#2d1e3e;stroke-opacity:0.2;"/>
    </defs>
    <g clip-path="url(#pf2b42feab8)">
     <use style="fill:#2d1e3e;fill-opacity:0.2;stroke:#2d1e3e;stroke-opacity:0.2;" x="0" xlink:href="#m70425cfe64" y="367.795313"/>
    </g>
   </g>
   <g id="matplotlib.axis_1">
    <g id="xtick_1">
     <g id="line2d_1">
      <defs>
       <path d="M 0 0 
L 0 3.5 
" id="m215e3be674" style="stroke:#000000;stroke-width:0.8;"/>
      </defs>
      <g>
       <use style="stroke:#000000;stroke-width:0.8;" x="70.64568" xlink:href="#m215e3be674" y="330.239063"/>
      </g>
     </g>
     <g id="text_1">
      <!-- −15 -->
      <defs>
       <path d="M 10.59375 35.5 
L 73.1875 35.5 
L 73.1875 27.203125 
L 10.59375 27.203125 
z
" id="DejaVuSans-8722"/>
       <path d="M 12.40625 8.296875 
L 28.515625 8.296875 
L 28.515625 63.921875 
L 10.984375 60.40625 
L 10.984375 69.390625 
L 28.421875 72.90625 
L 38.28125 72.90625 
L 38.28125 8.296875 
L 54.390625 8.296875 
L 54.390625 0 
L 12.40625 0 
z
" id="DejaVuSans-49"/>
       <path d="M 10.796875 72.90625 
L 49.515625 72.90625 
L 49.515625 64.59375 
L 19.828125 64.59375 
L 19.828125 46.734375 
Q 21.96875 47.46875 24.109375 47.828125 
Q 26.265625 48.1875 28.421875 48.1875 
Q 40.625 48.1875 47.75 41.5 
Q 54.890625 34.8125 54.890625 23.390625 
Q 54.890625 11.625 47.5625 5.09375 
Q 40.234375 -1.421875 26.90625 -1.421875 
Q 22.3125 -1.421875 17.546875 -0.640625 
Q 12.796875 0.140625 7.71875 1.703125 
L 7.71875 11.625 
Q 12.109375 9.234375 16.796875 8.0625 
Q 21.484375 6.890625 26.703125 6.890625 
Q 35.15625 6.890625 40.078125 11.328125 
Q 45.015625 15.765625 45.015625 23.390625 
Q 45.015625 31 40.078125 35.4375 
Q 35.15625 39.890625 26.703125 39.890625 
Q 22.75 39.890625 18.8125 39.015625 
Q 14.890625 38.140625 10.796875 36.28125 
z
" id="DejaVuSans-53"/>
      </defs>
      <g transform="translate(60.093336 344.8375)scale(0.1 -0.1)">
       <use xlink:href="#DejaVuSans-8722"/>
       <use x="83.789062" xlink:href="#DejaVuSans-49"/>
       <use x="147.412109" xlink:href="#DejaVuSans-53"/>
      </g>
     </g>
    </g>
    <g id="xtick_2">
     <g id="line2d_2">
      <g>
       <use style="stroke:#000000;stroke-width:0.8;" x="117.873246" xlink:href="#m215e3be674" y="330.239063"/>
      </g>
     </g>
     <g id="text_2">
      <!-- −10 -->
      <defs>
       <path d="M 31.78125 66.40625 
Q 24.171875 66.40625 20.328125 58.90625 
Q 16.5 51.421875 16.5 36.375 
Q 16.5 21.390625 20.328125 13.890625 
Q 24.171875 6.390625 31.78125 6.390625 
Q 39.453125 6.390625 43.28125 13.890625 
Q 47.125 21.390625 47.125 36.375 
Q 47.125 51.421875 43.28125 58.90625 
Q 39.453125 66.40625 31.78125 66.40625 
z
M 31.78125 74.21875 
Q 44.046875 74.21875 50.515625 64.515625 
Q 56.984375 54.828125 56.984375 36.375 
Q 56.984375 17.96875 50.515625 8.265625 
Q 44.046875 -1.421875 31.78125 -1.421875 
Q 19.53125 -1.421875 13.0625 8.265625 
Q 6.59375 17.96875 6.59375 36.375 
Q 6.59375 54.828125 13.0625 64.515625 
Q 19.53125 74.21875 31.78125 74.21875 
z
" id="DejaVuSans-48"/>
      </defs>
      <g transform="translate(107.320902 344.8375)scale(0.1 -0.1)">
       <use xlink:href="#DejaVuSans-8722"/>
       <use x="83.789062" xlink:href="#DejaVuSans-49"/>
       <use x="147.412109" xlink:href="#DejaVuSans-48"/>
      </g>
     </g>
    </g>
    <g id="xtick_3">
     <g id="line2d_3">
      <g>
       <use style="stroke:#000000;stroke-width:0.8;" x="165.100812" xlink:href="#m215e3be674" y="330.239063"/>
      </g>
     </g>
     <g id="text_3">
      <!-- −5 -->
      <g transform="translate(157.729718 344.8375)scale(0.1 -0.1)">
       <use xlink:href="#DejaVuSans-8722"/>
       <use x="83.789062" xlink:href="#DejaVuSans-53"/>
      </g>
     </g>
    </g>
    <g id="xtick_4">
     <g id="line2d_4">
      <g>
       <use style="stroke:#000000;stroke-width:0.8;" x="212.328378" xlink:href="#m215e3be674" y="330.239063"/>
      </g>
     </g>
     <g id="text_4">
      <!-- 0 -->
      <g transform="translate(209.147128 344.8375)scale(0.1 -0.1)">
       <use xlink:href="#DejaVuSans-48"/>
      </g>
     </g>
    </g>
    <g id="xtick_5">
     <g id="line2d_5">
      <g>
       <use style="stroke:#000000;stroke-width:0.8;" x="259.555944" xlink:href="#m215e3be674" y="330.239063"/>
      </g>
     </g>
     <g id="text_5">
      <!-- 5 -->
      <g transform="translate(256.374694 344.8375)scale(0.1 -0.1)">
       <use xlink:href="#DejaVuSans-53"/>
      </g>
     </g>
    </g>
    <g id="xtick_6">
     <g id="line2d_6">
      <g>
       <use style="stroke:#000000;stroke-width:0.8;" x="306.78351" xlink:href="#m215e3be674" y="330.239063"/>
      </g>
     </g>
     <g id="text_6">
      <!-- 10 -->
      <g transform="translate(300.42101 344.8375)scale(0.1 -0.1)">
       <use xlink:href="#DejaVuSans-49"/>
       <use x="63.623047" xlink:href="#DejaVuSans-48"/>
      </g>
     </g>
    </g>
    <g id="xtick_7">
     <g id="line2d_7">
      <g>
       <use style="stroke:#000000;stroke-width:0.8;" x="354.011076" xlink:href="#m215e3be674" y="330.239063"/>
      </g>
     </g>
     <g id="text_7">
      <!-- 15 -->
      <g transform="translate(347.648576 344.8375)scale(0.1 -0.1)">
       <use xlink:href="#DejaVuSans-49"/>
       <use x="63.623047" xlink:href="#DejaVuSans-53"/>
      </g>
     </g>
    </g>
    <g id="text_8">
     <!-- spill -->
     <defs>
      <path d="M 44.28125 53.078125 
L 44.28125 44.578125 
Q 40.484375 46.53125 36.375 47.5 
Q 32.28125 48.484375 27.875 48.484375 
Q 21.1875 48.484375 17.84375 46.4375 
Q 14.5 44.390625 14.5 40.28125 
Q 14.5 37.15625 16.890625 35.375 
Q 19.28125 33.59375 26.515625 31.984375 
L 29.59375 31.296875 
Q 39.15625 29.25 43.1875 25.515625 
Q 47.21875 21.78125 47.21875 15.09375 
Q 47.21875 7.46875 41.1875 3.015625 
Q 35.15625 -1.421875 24.609375 -1.421875 
Q 20.21875 -1.421875 15.453125 -0.5625 
Q 10.6875 0.296875 5.421875 2 
L 5.421875 11.28125 
Q 10.40625 8.6875 15.234375 7.390625 
Q 20.0625 6.109375 24.8125 6.109375 
Q 31.15625 6.109375 34.5625 8.28125 
Q 37.984375 10.453125 37.984375 14.40625 
Q 37.984375 18.0625 35.515625 20.015625 
Q 33.0625 21.96875 24.703125 23.78125 
L 21.578125 24.515625 
Q 13.234375 26.265625 9.515625 29.90625 
Q 5.8125 33.546875 5.8125 39.890625 
Q 5.8125 47.609375 11.28125 51.796875 
Q 16.75 56 26.8125 56 
Q 31.78125 56 36.171875 55.265625 
Q 40.578125 54.546875 44.28125 53.078125 
z
" id="DejaVuSans-115"/>
      <path d="M 18.109375 8.203125 
L 18.109375 -20.796875 
L 9.078125 -20.796875 
L 9.078125 54.6875 
L 18.109375 54.6875 
L 18.109375 46.390625 
Q 20.953125 51.265625 25.265625 53.625 
Q 29.59375 56 35.59375 56 
Q 45.5625 56 51.78125 48.09375 
Q 58.015625 40.1875 58.015625 27.296875 
Q 58.015625 14.40625 51.78125 6.484375 
Q 45.5625 -1.421875 35.59375 -1.421875 
Q 29.59375 -1.421875 25.265625 0.953125 
Q 20.953125 3.328125 18.109375 8.203125 
z
M 48.6875 27.296875 
Q 48.6875 37.203125 44.609375 42.84375 
Q 40.53125 48.484375 33.40625 48.484375 
Q 26.265625 48.484375 22.1875 42.84375 
Q 18.109375 37.203125 18.109375 27.296875 
Q 18.109375 17.390625 22.1875 11.75 
Q 26.265625 6.109375 33.40625 6.109375 
Q 40.53125 6.109375 44.609375 11.75 
Q 48.6875 17.390625 48.6875 27.296875 
z
" id="DejaVuSans-112"/>
      <path d="M 9.421875 54.6875 
L 18.40625 54.6875 
L 18.40625 0 
L 9.421875 0 
z
M 9.421875 75.984375 
L 18.40625 75.984375 
L 18.40625 64.59375 
L 9.421875 64.59375 
z
" id="DejaVuSans-105"/>
      <path d="M 9.421875 75.984375 
L 18.40625 75.984375 
L 18.40625 0 
L 9.421875 0 
z
" id="DejaVuSans-108"/>
     </defs>
     <g transform="translate(202.382284 358.515625)scale(0.1 -0.1)">
      <use xlink:href="#DejaVuSans-115"/>
      <use x="52.099609" xlink:href="#DejaVuSans-112"/>
      <use x="115.576172" xlink:href="#DejaVuSans-105"/>
      <use x="143.359375" xlink:href="#DejaVuSans-108"/>
      <use x="171.142578" xlink:href="#DejaVuSans-108"/>
     </g>
    </g>
   </g>
   <g id="matplotlib.axis_2">
    <g id="ytick_1">
     <g id="line2d_8">
      <defs>
       <path d="M 0 0 
L -3.5 0 
" id="m3b31d4503d" style="stroke:#000000;stroke-width:0.8;"/>
      </defs>
      <g>
       <use style="stroke:#000000;stroke-width:0.8;" x="56.47741" xlink:href="#m3b31d4503d" y="301.235093"/>
      </g>
     </g>
     <g id="text_9">
      <!-- 0.2 -->
      <defs>
       <path d="M 10.6875 12.40625 
L 21 12.40625 
L 21 0 
L 10.6875 0 
z
" id="DejaVuSans-46"/>
       <path d="M 19.1875 8.296875 
L 53.609375 8.296875 
L 53.609375 0 
L 7.328125 0 
L 7.328125 8.296875 
Q 12.9375 14.109375 22.625 23.890625 
Q 32.328125 33.6875 34.8125 36.53125 
Q 39.546875 41.84375 41.421875 45.53125 
Q 43.3125 49.21875 43.3125 52.78125 
Q 43.3125 58.59375 39.234375 62.25 
Q 35.15625 65.921875 28.609375 65.921875 
Q 23.96875 65.921875 18.8125 64.3125 
Q 13.671875 62.703125 7.8125 59.421875 
L 7.8125 69.390625 
Q 13.765625 71.78125 18.9375 73 
Q 24.125 74.21875 28.421875 74.21875 
Q 39.75 74.21875 46.484375 68.546875 
Q 53.21875 62.890625 53.21875 53.421875 
Q 53.21875 48.921875 51.53125 44.890625 
Q 49.859375 40.875 45.40625 35.40625 
Q 44.1875 33.984375 37.640625 27.21875 
Q 31.109375 20.453125 19.1875 8.296875 
z
" id="DejaVuSans-50"/>
      </defs>
      <g transform="translate(33.574285 305.034311)scale(0.1 -0.1)">
       <use xlink:href="#DejaVuSans-48"/>
       <use x="63.623047" xlink:href="#DejaVuSans-46"/>
       <use x="95.410156" xlink:href="#DejaVuSans-50"/>
      </g>
     </g>
    </g>
    <g id="ytick_2">
     <g id="line2d_9">
      <g>
       <use style="stroke:#000000;stroke-width:0.8;" x="56.47741" xlink:href="#m3b31d4503d" y="253.95977"/>
      </g>
     </g>
     <g id="text_10">
      <!-- 0.3 -->
      <defs>
       <path d="M 40.578125 39.3125 
Q 47.65625 37.796875 51.625 33 
Q 55.609375 28.21875 55.609375 21.1875 
Q 55.609375 10.40625 48.1875 4.484375 
Q 40.765625 -1.421875 27.09375 -1.421875 
Q 22.515625 -1.421875 17.65625 -0.515625 
Q 12.796875 0.390625 7.625 2.203125 
L 7.625 11.71875 
Q 11.71875 9.328125 16.59375 8.109375 
Q 21.484375 6.890625 26.8125 6.890625 
Q 36.078125 6.890625 40.9375 10.546875 
Q 45.796875 14.203125 45.796875 21.1875 
Q 45.796875 27.640625 41.28125 31.265625 
Q 36.765625 34.90625 28.71875 34.90625 
L 20.21875 34.90625 
L 20.21875 43.015625 
L 29.109375 43.015625 
Q 36.375 43.015625 40.234375 45.921875 
Q 44.09375 48.828125 44.09375 54.296875 
Q 44.09375 59.90625 40.109375 62.90625 
Q 36.140625 65.921875 28.71875 65.921875 
Q 24.65625 65.921875 20.015625 65.03125 
Q 15.375 64.15625 9.8125 62.3125 
L 9.8125 71.09375 
Q 15.4375 72.65625 20.34375 73.4375 
Q 25.25 74.21875 29.59375 74.21875 
Q 40.828125 74.21875 47.359375 69.109375 
Q 53.90625 64.015625 53.90625 55.328125 
Q 53.90625 49.265625 50.4375 45.09375 
Q 46.96875 40.921875 40.578125 39.3125 
z
" id="DejaVuSans-51"/>
      </defs>
      <g transform="translate(33.574285 257.758989)scale(0.1 -0.1)">
       <use xlink:href="#DejaVuSans-48"/>
       <use x="63.623047" xlink:href="#DejaVuSans-46"/>
       <use x="95.410156" xlink:href="#DejaVuSans-51"/>
      </g>
     </g>
    </g>
    <g id="ytick_3">
     <g id="line2d_10">
      <g>
       <use style="stroke:#000000;stroke-width:0.8;" x="56.47741" xlink:href="#m3b31d4503d" y="206.684448"/>
      </g>
     </g>
     <g id="text_11">
      <!-- 0.4 -->
      <defs>
       <path d="M 37.796875 64.3125 
L 12.890625 25.390625 
L 37.796875 25.390625 
z
M 35.203125 72.90625 
L 47.609375 72.90625 
L 47.609375 25.390625 
L 58.015625 25.390625 
L 58.015625 17.1875 
L 47.609375 17.1875 
L 47.609375 0 
L 37.796875 0 
L 37.796875 17.1875 
L 4.890625 17.1875 
L 4.890625 26.703125 
z
" id="DejaVuSans-52"/>
      </defs>
      <g transform="translate(33.574285 210.483667)scale(0.1 -0.1)">
       <use xlink:href="#DejaVuSans-48"/>
       <use x="63.623047" xlink:href="#DejaVuSans-46"/>
       <use x="95.410156" xlink:href="#DejaVuSans-52"/>
      </g>
     </g>
    </g>
    <g id="ytick_4">
     <g id="line2d_11">
      <g>
       <use style="stroke:#000000;stroke-width:0.8;" x="56.47741" xlink:href="#m3b31d4503d" y="159.409126"/>
      </g>
     </g>
     <g id="text_12">
      <!-- 0.5 -->
      <g transform="translate(33.574285 163.208345)scale(0.1 -0.1)">
       <use xlink:href="#DejaVuSans-48"/>
       <use x="63.623047" xlink:href="#DejaVuSans-46"/>
       <use x="95.410156" xlink:href="#DejaVuSans-53"/>
      </g>
     </g>
    </g>
    <g id="ytick_5">
     <g id="line2d_12">
      <g>
       <use style="stroke:#000000;stroke-width:0.8;" x="56.47741" xlink:href="#m3b31d4503d" y="112.133804"/>
      </g>
     </g>
     <g id="text_13">
      <!-- 0.6 -->
      <defs>
       <path d="M 33.015625 40.375 
Q 26.375 40.375 22.484375 35.828125 
Q 18.609375 31.296875 18.609375 23.390625 
Q 18.609375 15.53125 22.484375 10.953125 
Q 26.375 6.390625 33.015625 6.390625 
Q 39.65625 6.390625 43.53125 10.953125 
Q 47.40625 15.53125 47.40625 23.390625 
Q 47.40625 31.296875 43.53125 35.828125 
Q 39.65625 40.375 33.015625 40.375 
z
M 52.59375 71.296875 
L 52.59375 62.3125 
Q 48.875 64.0625 45.09375 64.984375 
Q 41.3125 65.921875 37.59375 65.921875 
Q 27.828125 65.921875 22.671875 59.328125 
Q 17.53125 52.734375 16.796875 39.40625 
Q 19.671875 43.65625 24.015625 45.921875 
Q 28.375 48.1875 33.59375 48.1875 
Q 44.578125 48.1875 50.953125 41.515625 
Q 57.328125 34.859375 57.328125 23.390625 
Q 57.328125 12.15625 50.6875 5.359375 
Q 44.046875 -1.421875 33.015625 -1.421875 
Q 20.359375 -1.421875 13.671875 8.265625 
Q 6.984375 17.96875 6.984375 36.375 
Q 6.984375 53.65625 15.1875 63.9375 
Q 23.390625 74.21875 37.203125 74.21875 
Q 40.921875 74.21875 44.703125 73.484375 
Q 48.484375 72.75 52.59375 71.296875 
z
" id="DejaVuSans-54"/>
      </defs>
      <g transform="translate(33.574285 115.933023)scale(0.1 -0.1)">
       <use xlink:href="#DejaVuSans-48"/>
       <use x="63.623047" xlink:href="#DejaVuSans-46"/>
       <use x="95.410156" xlink:href="#DejaVuSans-54"/>
      </g>
     </g>
    </g>
    <g id="ytick_6">
     <g id="line2d_13">
      <g>
       <use style="stroke:#000000;stroke-width:0.8;" x="56.47741" xlink:href="#m3b31d4503d" y="64.858482"/>
      </g>
     </g>
     <g id="text_14">
      <!-- 0.7 -->
      <defs>
       <path d="M 8.203125 72.90625 
L 55.078125 72.90625 
L 55.078125 68.703125 
L 28.609375 0 
L 18.3125 0 
L 43.21875 64.59375 
L 8.203125 64.59375 
z
" id="DejaVuSans-55"/>
      </defs>
      <g transform="translate(33.574285 68.657701)scale(0.1 -0.1)">
       <use xlink:href="#DejaVuSans-48"/>
       <use x="63.623047" xlink:href="#DejaVuSans-46"/>
       <use x="95.410156" xlink:href="#DejaVuSans-55"/>
      </g>
     </g>
    </g>
    <g id="text_15">
     <!-- last -->
     <defs>
      <path d="M 34.28125 27.484375 
Q 23.390625 27.484375 19.1875 25 
Q 14.984375 22.515625 14.984375 16.5 
Q 14.984375 11.71875 18.140625 8.90625 
Q 21.296875 6.109375 26.703125 6.109375 
Q 34.1875 6.109375 38.703125 11.40625 
Q 43.21875 16.703125 43.21875 25.484375 
L 43.21875 27.484375 
z
M 52.203125 31.203125 
L 52.203125 0 
L 43.21875 0 
L 43.21875 8.296875 
Q 40.140625 3.328125 35.546875 0.953125 
Q 30.953125 -1.421875 24.3125 -1.421875 
Q 15.921875 -1.421875 10.953125 3.296875 
Q 6 8.015625 6 15.921875 
Q 6 25.140625 12.171875 29.828125 
Q 18.359375 34.515625 30.609375 34.515625 
L 43.21875 34.515625 
L 43.21875 35.40625 
Q 43.21875 41.609375 39.140625 45 
Q 35.0625 48.390625 27.6875 48.390625 
Q 23 48.390625 18.546875 47.265625 
Q 14.109375 46.140625 10.015625 43.890625 
L 10.015625 52.203125 
Q 14.9375 54.109375 19.578125 55.046875 
Q 24.21875 56 28.609375 56 
Q 40.484375 56 46.34375 49.84375 
Q 52.203125 43.703125 52.203125 31.203125 
z
" id="DejaVuSans-97"/>
      <path d="M 18.3125 70.21875 
L 18.3125 54.6875 
L 36.8125 54.6875 
L 36.8125 47.703125 
L 18.3125 47.703125 
L 18.3125 18.015625 
Q 18.3125 11.328125 20.140625 9.421875 
Q 21.96875 7.515625 27.59375 7.515625 
L 36.8125 7.515625 
L 36.8125 0 
L 27.59375 0 
Q 17.1875 0 13.234375 3.875 
Q 9.28125 7.765625 9.28125 18.015625 
L 9.28125 47.703125 
L 2.6875 47.703125 
L 2.6875 54.6875 
L 9.28125 54.6875 
L 9.28125 70.21875 
z
" id="DejaVuSans-116"/>
     </defs>
     <g transform="translate(27.494597 192.557031)rotate(-90)scale(0.1 -0.1)">
      <use xlink:href="#DejaVuSans-108"/>
      <use x="27.783203" xlink:href="#DejaVuSans-97"/>
      <use x="89.0625" xlink:href="#DejaVuSans-115"/>
      <use x="141.162109" xlink:href="#DejaVuSans-116"/>
     </g>
    </g>
   </g>
   <g id="line2d_14">
    <path clip-path="url(#pf2b42feab8)" d="M 207.605621 258.981693 
L 217.051135 258.981693 
" style="fill:none;stroke:#edd1cb;stroke-linecap:square;stroke-width:1.5;"/>
   </g>
   <g id="line2d_15">
    <path clip-path="url(#pf2b42feab8)" d="M 136.764272 154.647433 
L 146.209785 140.410034 
L 155.655299 124.488287 
L 165.100812 124.579656 
L 174.546325 146.307254 
L 183.991838 141.748059 
L 193.437352 146.781651 
L 202.882865 148.542974 
L 212.328378 134.527719 
L 221.773891 156.215065 
L 231.219404 150.893535 
L 240.664918 147.15749 
L 250.110431 154.660857 
L 259.555944 166.498629 
L 269.001457 172.449429 
L 278.446971 181.624326 
L 287.892484 211.198502 
" style="fill:none;stroke:#a9678f;stroke-linecap:square;stroke-width:1.5;"/>
   </g>
   <g id="line2d_16">
    <path clip-path="url(#pf2b42feab8)" d="M 70.64568 68.071732 
L 80.091193 75.990199 
L 89.536706 69.4713 
L 98.982219 70.766101 
L 108.427732 67.218084 
L 117.873246 63.233627 
L 127.318759 64.729249 
L 136.764272 68.160391 
L 146.209785 57.249933 
L 155.655299 62.081822 
L 165.100812 70.916271 
L 174.546325 58.909801 
L 183.991838 68.450745 
L 193.437352 58.321006 
L 202.882865 69.863178 
L 212.328378 68.415364 
L 221.773891 71.294453 
L 231.219404 75.612324 
L 240.664918 74.096239 
L 250.110431 78.59957 
L 259.555944 84.842184 
L 269.001457 81.926816 
L 278.446971 89.852846 
L 287.892484 115.900561 
L 297.337997 131.228075 
L 306.78351 124.86573 
L 316.229023 144.728784 
L 325.674537 156.798072 
L 335.12005 217.180241 
L 344.565563 232.943657 
L 354.011076 299.753211 
" style="fill:none;stroke:#2d1e3e;stroke-linecap:square;stroke-width:1.5;"/>
   </g>
   <g id="line2d_17"/>
   <g id="line2d_18"/>
   <g id="line2d_19"/>
   <g id="line2d_20"/>
   <g id="patch_3">
    <path d="M 56.47741 330.239063 
L 56.47741 36.839063 
" style="fill:none;stroke:#000000;stroke-linecap:square;stroke-linejoin:miter;stroke-width:0.8;"/>
   </g>
   <g id="patch_4">
    <path d="M 56.47741 330.239063 
L 368.179346 330.239063 
" style="fill:none;stroke:#000000;stroke-linecap:square;stroke-linejoin:miter;stroke-width:0.8;"/>
   </g>
   <g id="text_16">
    <!-- loss = f1macro -->
    <defs>
     <path d="M 30.609375 48.390625 
Q 23.390625 48.390625 19.1875 42.75 
Q 14.984375 37.109375 14.984375 27.296875 
Q 14.984375 17.484375 19.15625 11.84375 
Q 23.34375 6.203125 30.609375 6.203125 
Q 37.796875 6.203125 41.984375 11.859375 
Q 46.1875 17.53125 46.1875 27.296875 
Q 46.1875 37.015625 41.984375 42.703125 
Q 37.796875 48.390625 30.609375 48.390625 
z
M 30.609375 56 
Q 42.328125 56 49.015625 48.375 
Q 55.71875 40.765625 55.71875 27.296875 
Q 55.71875 13.875 49.015625 6.21875 
Q 42.328125 -1.421875 30.609375 -1.421875 
Q 18.84375 -1.421875 12.171875 6.21875 
Q 5.515625 13.875 5.515625 27.296875 
Q 5.515625 40.765625 12.171875 48.375 
Q 18.84375 56 30.609375 56 
z
" id="DejaVuSans-111"/>
     <path id="DejaVuSans-32"/>
     <path d="M 10.59375 45.40625 
L 73.1875 45.40625 
L 73.1875 37.203125 
L 10.59375 37.203125 
z
M 10.59375 25.484375 
L 73.1875 25.484375 
L 73.1875 17.1875 
L 10.59375 17.1875 
z
" id="DejaVuSans-61"/>
     <path d="M 37.109375 75.984375 
L 37.109375 68.5 
L 28.515625 68.5 
Q 23.6875 68.5 21.796875 66.546875 
Q 19.921875 64.59375 19.921875 59.515625 
L 19.921875 54.6875 
L 34.71875 54.6875 
L 34.71875 47.703125 
L 19.921875 47.703125 
L 19.921875 0 
L 10.890625 0 
L 10.890625 47.703125 
L 2.296875 47.703125 
L 2.296875 54.6875 
L 10.890625 54.6875 
L 10.890625 58.5 
Q 10.890625 67.625 15.140625 71.796875 
Q 19.390625 75.984375 28.609375 75.984375 
z
" id="DejaVuSans-102"/>
     <path d="M 52 44.1875 
Q 55.375 50.25 60.0625 53.125 
Q 64.75 56 71.09375 56 
Q 79.640625 56 84.28125 50.015625 
Q 88.921875 44.046875 88.921875 33.015625 
L 88.921875 0 
L 79.890625 0 
L 79.890625 32.71875 
Q 79.890625 40.578125 77.09375 44.375 
Q 74.3125 48.1875 68.609375 48.1875 
Q 61.625 48.1875 57.5625 43.546875 
Q 53.515625 38.921875 53.515625 30.90625 
L 53.515625 0 
L 44.484375 0 
L 44.484375 32.71875 
Q 44.484375 40.625 41.703125 44.40625 
Q 38.921875 48.1875 33.109375 48.1875 
Q 26.21875 48.1875 22.15625 43.53125 
Q 18.109375 38.875 18.109375 30.90625 
L 18.109375 0 
L 9.078125 0 
L 9.078125 54.6875 
L 18.109375 54.6875 
L 18.109375 46.1875 
Q 21.1875 51.21875 25.484375 53.609375 
Q 29.78125 56 35.6875 56 
Q 41.65625 56 45.828125 52.96875 
Q 50 49.953125 52 44.1875 
z
" id="DejaVuSans-109"/>
     <path d="M 48.78125 52.59375 
L 48.78125 44.1875 
Q 44.96875 46.296875 41.140625 47.34375 
Q 37.3125 48.390625 33.40625 48.390625 
Q 24.65625 48.390625 19.8125 42.84375 
Q 14.984375 37.3125 14.984375 27.296875 
Q 14.984375 17.28125 19.8125 11.734375 
Q 24.65625 6.203125 33.40625 6.203125 
Q 37.3125 6.203125 41.140625 7.25 
Q 44.96875 8.296875 48.78125 10.40625 
L 48.78125 2.09375 
Q 45.015625 0.34375 40.984375 -0.53125 
Q 36.96875 -1.421875 32.421875 -1.421875 
Q 20.0625 -1.421875 12.78125 6.34375 
Q 5.515625 14.109375 5.515625 27.296875 
Q 5.515625 40.671875 12.859375 48.328125 
Q 20.21875 56 33.015625 56 
Q 37.15625 56 41.109375 55.140625 
Q 45.0625 54.296875 48.78125 52.59375 
z
" id="DejaVuSans-99"/>
     <path d="M 41.109375 46.296875 
Q 39.59375 47.171875 37.8125 47.578125 
Q 36.03125 48 33.890625 48 
Q 26.265625 48 22.1875 43.046875 
Q 18.109375 38.09375 18.109375 28.8125 
L 18.109375 0 
L 9.078125 0 
L 9.078125 54.6875 
L 18.109375 54.6875 
L 18.109375 46.1875 
Q 20.953125 51.171875 25.484375 53.578125 
Q 30.03125 56 36.53125 56 
Q 37.453125 56 38.578125 55.875 
Q 39.703125 55.765625 41.0625 55.515625 
z
" id="DejaVuSans-114"/>
    </defs>
    <g transform="translate(174.564315 30.839063)scale(0.1 -0.1)">
     <use xlink:href="#DejaVuSans-108"/>
     <use x="27.783203" xlink:href="#DejaVuSans-111"/>
     <use x="88.964844" xlink:href="#DejaVuSans-115"/>
     <use x="141.064453" xlink:href="#DejaVuSans-115"/>
     <use x="193.164062" xlink:href="#DejaVuSans-32"/>
     <use x="224.951172" xlink:href="#DejaVuSans-61"/>
     <use x="308.740234" xlink:href="#DejaVuSans-32"/>
     <use x="340.527344" xlink:href="#DejaVuSans-102"/>
     <use x="375.732422" xlink:href="#DejaVuSans-49"/>
     <use x="439.355469" xlink:href="#DejaVuSans-109"/>
     <use x="536.767578" xlink:href="#DejaVuSans-97"/>
     <use x="598.046875" xlink:href="#DejaVuSans-99"/>
     <use x="653.027344" xlink:href="#DejaVuSans-114"/>
     <use x="694.109375" xlink:href="#DejaVuSans-111"/>
    </g>
   </g>
  </g>
  <g id="axes_2">
   <g id="patch_5">
    <path d="M 411.581323 330.239063 
L 723.28326 330.239063 
L 723.28326 36.839063 
L 411.581323 36.839063 
z
" style="fill:#ffffff;"/>
   </g>
   <g id="PolyCollection_4">
    <defs>
     <path d="M 562.709535 -120.797961 
L 562.709535 -85.602273 
L 572.155048 -86.084293 
L 572.155048 -121.288017 
L 572.155048 -121.288017 
L 562.709535 -120.797961 
z
" id="m4157f9f807" style="stroke:#edd1cb;stroke-opacity:0.2;"/>
    </defs>
    <g clip-path="url(#p182997f4de)">
     <use style="fill:#edd1cb;fill-opacity:0.2;stroke:#edd1cb;stroke-opacity:0.2;" x="0" xlink:href="#m4157f9f807" y="367.795313"/>
    </g>
   </g>
   <g id="PolyCollection_5">
    <defs>
     <path d="M 491.868186 -228.927713 
L 491.868186 -184.734254 
L 501.313699 -200.002337 
L 510.759212 -218.805229 
L 520.204725 -214.298321 
L 529.650239 -196.78886 
L 539.095752 -196.632188 
L 548.541265 -201.291751 
L 557.986778 -200.488374 
L 567.432291 -207.389334 
L 576.877805 -183.292215 
L 586.323318 -182.653533 
L 595.768831 -193.575353 
L 605.214344 -196.953541 
L 614.659858 -164.967309 
L 624.105371 -172.531046 
L 633.550884 -160.155115 
L 642.996397 -136.375326 
L 642.996397 -174.945173 
L 642.996397 -174.945173 
L 633.550884 -199.042292 
L 624.105371 -207.558024 
L 614.659858 -227.96768 
L 605.214344 -212.217582 
L 595.768831 -246.280528 
L 586.323318 -227.011663 
L 576.877805 -223.794171 
L 567.432291 -245.159823 
L 557.986778 -215.756442 
L 548.541265 -226.360954 
L 539.095752 -225.232198 
L 529.650239 -234.551308 
L 520.204725 -255.442986 
L 510.759212 -254.804291 
L 501.313699 -235.99738 
L 491.868186 -228.927713 
z
" id="m7f1569c037" style="stroke:#a9678f;stroke-opacity:0.2;"/>
    </defs>
    <g clip-path="url(#p182997f4de)">
     <use style="fill:#a9678f;fill-opacity:0.2;stroke:#a9678f;stroke-opacity:0.2;" x="0" xlink:href="#m7f1569c037" y="367.795313"/>
    </g>
   </g>
   <g id="PolyCollection_6">
    <defs>
     <path d="M 425.749593 -305.569325 
L 425.749593 -284.838334 
L 435.195106 -279.058078 
L 444.640619 -283.717615 
L 454.086133 -287.409113 
L 463.531646 -288.216516 
L 472.977159 -291.751355 
L 482.422672 -293.518765 
L 491.868186 -281.464172 
L 501.313699 -292.394034 
L 510.759212 -287.24845 
L 520.204725 -282.914264 
L 529.650239 -295.286179 
L 539.095752 -282.59291 
L 548.541265 -300.106401 
L 557.986778 -283.878298 
L 567.432291 -285.959033 
L 576.877805 -283.87831 
L 586.323318 -280.339452 
L 595.768831 -270.855653 
L 605.214344 -274.555166 
L 614.659858 -265.882796 
L 624.105371 -271.176993 
L 633.550884 -263.790008 
L 642.996397 -231.008432 
L 652.44191 -224.746156 
L 661.887424 -224.906842 
L 671.332937 -217.676503 
L 680.77845 -188.112434 
L 690.223963 -130.595069 
L 699.669477 -104.883178 
L 709.11499 -50.892614 
L 709.11499 -81.589427 
L 709.11499 -81.589427 
L 699.669477 -136.861371 
L 690.223963 -160.966522 
L 680.77845 -219.929955 
L 671.332937 -246.762553 
L 661.887424 -256.889046 
L 652.44191 -263.311995 
L 642.996397 -269.096272 
L 633.550884 -278.254705 
L 624.105371 -296.414919 
L 614.659858 -297.543649 
L 605.214344 -297.696283 
L 595.768831 -304.291962 
L 586.323318 -297.535608 
L 576.877805 -301.873806 
L 567.432291 -299.785053 
L 557.986778 -312.638997 
L 548.541265 -312.960337 
L 539.095752 -310.554251 
L 529.650239 -305.247979 
L 520.204725 -303.484578 
L 510.759212 -306.854724 
L 501.313699 -317.619886 
L 491.868186 -305.09132 
L 482.422672 -305.569322 
L 472.977159 -311.036272 
L 463.531646 -307.979437 
L 454.086133 -296.892908 
L 444.640619 -309.429521 
L 435.195106 -306.702072 
L 425.749593 -305.569325 
z
" id="mc62af39331" style="stroke:#2d1e3e;stroke-opacity:0.2;"/>
    </defs>
    <g clip-path="url(#p182997f4de)">
     <use style="fill:#2d1e3e;fill-opacity:0.2;stroke:#2d1e3e;stroke-opacity:0.2;" x="0" xlink:href="#mc62af39331" y="367.795313"/>
    </g>
   </g>
   <g id="matplotlib.axis_3">
    <g id="xtick_8">
     <g id="line2d_21">
      <g>
       <use style="stroke:#000000;stroke-width:0.8;" x="425.749593" xlink:href="#m215e3be674" y="330.239063"/>
      </g>
     </g>
     <g id="text_17">
      <!-- −15 -->
      <g transform="translate(415.197249 344.8375)scale(0.1 -0.1)">
       <use xlink:href="#DejaVuSans-8722"/>
       <use x="83.789062" xlink:href="#DejaVuSans-49"/>
       <use x="147.412109" xlink:href="#DejaVuSans-53"/>
      </g>
     </g>
    </g>
    <g id="xtick_9">
     <g id="line2d_22">
      <g>
       <use style="stroke:#000000;stroke-width:0.8;" x="472.977159" xlink:href="#m215e3be674" y="330.239063"/>
      </g>
     </g>
     <g id="text_18">
      <!-- −10 -->
      <g transform="translate(462.424815 344.8375)scale(0.1 -0.1)">
       <use xlink:href="#DejaVuSans-8722"/>
       <use x="83.789062" xlink:href="#DejaVuSans-49"/>
       <use x="147.412109" xlink:href="#DejaVuSans-48"/>
      </g>
     </g>
    </g>
    <g id="xtick_10">
     <g id="line2d_23">
      <g>
       <use style="stroke:#000000;stroke-width:0.8;" x="520.204725" xlink:href="#m215e3be674" y="330.239063"/>
      </g>
     </g>
     <g id="text_19">
      <!-- −5 -->
      <g transform="translate(512.833632 344.8375)scale(0.1 -0.1)">
       <use xlink:href="#DejaVuSans-8722"/>
       <use x="83.789062" xlink:href="#DejaVuSans-53"/>
      </g>
     </g>
    </g>
    <g id="xtick_11">
     <g id="line2d_24">
      <g>
       <use style="stroke:#000000;stroke-width:0.8;" x="567.432291" xlink:href="#m215e3be674" y="330.239063"/>
      </g>
     </g>
     <g id="text_20">
      <!-- 0 -->
      <g transform="translate(564.251041 344.8375)scale(0.1 -0.1)">
       <use xlink:href="#DejaVuSans-48"/>
      </g>
     </g>
    </g>
    <g id="xtick_12">
     <g id="line2d_25">
      <g>
       <use style="stroke:#000000;stroke-width:0.8;" x="614.659858" xlink:href="#m215e3be674" y="330.239063"/>
      </g>
     </g>
     <g id="text_21">
      <!-- 5 -->
      <g transform="translate(611.478608 344.8375)scale(0.1 -0.1)">
       <use xlink:href="#DejaVuSans-53"/>
      </g>
     </g>
    </g>
    <g id="xtick_13">
     <g id="line2d_26">
      <g>
       <use style="stroke:#000000;stroke-width:0.8;" x="661.887424" xlink:href="#m215e3be674" y="330.239063"/>
      </g>
     </g>
     <g id="text_22">
      <!-- 10 -->
      <g transform="translate(655.524924 344.8375)scale(0.1 -0.1)">
       <use xlink:href="#DejaVuSans-49"/>
       <use x="63.623047" xlink:href="#DejaVuSans-48"/>
      </g>
     </g>
    </g>
    <g id="xtick_14">
     <g id="line2d_27">
      <g>
       <use style="stroke:#000000;stroke-width:0.8;" x="709.11499" xlink:href="#m215e3be674" y="330.239063"/>
      </g>
     </g>
     <g id="text_23">
      <!-- 15 -->
      <g transform="translate(702.75249 344.8375)scale(0.1 -0.1)">
       <use xlink:href="#DejaVuSans-49"/>
       <use x="63.623047" xlink:href="#DejaVuSans-53"/>
      </g>
     </g>
    </g>
    <g id="text_24">
     <!-- spill -->
     <g transform="translate(557.486198 358.515625)scale(0.1 -0.1)">
      <use xlink:href="#DejaVuSans-115"/>
      <use x="52.099609" xlink:href="#DejaVuSans-112"/>
      <use x="115.576172" xlink:href="#DejaVuSans-105"/>
      <use x="143.359375" xlink:href="#DejaVuSans-108"/>
      <use x="171.142578" xlink:href="#DejaVuSans-108"/>
     </g>
    </g>
   </g>
   <g id="matplotlib.axis_4">
    <g id="ytick_7">
     <g id="line2d_28">
      <g>
       <use style="stroke:#000000;stroke-width:0.8;" x="411.581323" xlink:href="#m3b31d4503d" y="320.91152"/>
      </g>
     </g>
     <g id="text_25">
      <!-- 0.35 -->
      <g transform="translate(382.315698 324.710739)scale(0.1 -0.1)">
       <use xlink:href="#DejaVuSans-48"/>
       <use x="63.623047" xlink:href="#DejaVuSans-46"/>
       <use x="95.410156" xlink:href="#DejaVuSans-51"/>
       <use x="159.033203" xlink:href="#DejaVuSans-53"/>
      </g>
     </g>
    </g>
    <g id="ytick_8">
     <g id="line2d_29">
      <g>
       <use style="stroke:#000000;stroke-width:0.8;" x="411.581323" xlink:href="#m3b31d4503d" y="288.294649"/>
      </g>
     </g>
     <g id="text_26">
      <!-- 0.40 -->
      <g transform="translate(382.315698 292.093867)scale(0.1 -0.1)">
       <use xlink:href="#DejaVuSans-48"/>
       <use x="63.623047" xlink:href="#DejaVuSans-46"/>
       <use x="95.410156" xlink:href="#DejaVuSans-52"/>
       <use x="159.033203" xlink:href="#DejaVuSans-48"/>
      </g>
     </g>
    </g>
    <g id="ytick_9">
     <g id="line2d_30">
      <g>
       <use style="stroke:#000000;stroke-width:0.8;" x="411.581323" xlink:href="#m3b31d4503d" y="255.677777"/>
      </g>
     </g>
     <g id="text_27">
      <!-- 0.45 -->
      <g transform="translate(382.315698 259.476996)scale(0.1 -0.1)">
       <use xlink:href="#DejaVuSans-48"/>
       <use x="63.623047" xlink:href="#DejaVuSans-46"/>
       <use x="95.410156" xlink:href="#DejaVuSans-52"/>
       <use x="159.033203" xlink:href="#DejaVuSans-53"/>
      </g>
     </g>
    </g>
    <g id="ytick_10">
     <g id="line2d_31">
      <g>
       <use style="stroke:#000000;stroke-width:0.8;" x="411.581323" xlink:href="#m3b31d4503d" y="223.060906"/>
      </g>
     </g>
     <g id="text_28">
      <!-- 0.50 -->
      <g transform="translate(382.315698 226.860124)scale(0.1 -0.1)">
       <use xlink:href="#DejaVuSans-48"/>
       <use x="63.623047" xlink:href="#DejaVuSans-46"/>
       <use x="95.410156" xlink:href="#DejaVuSans-53"/>
       <use x="159.033203" xlink:href="#DejaVuSans-48"/>
      </g>
     </g>
    </g>
    <g id="ytick_11">
     <g id="line2d_32">
      <g>
       <use style="stroke:#000000;stroke-width:0.8;" x="411.581323" xlink:href="#m3b31d4503d" y="190.444034"/>
      </g>
     </g>
     <g id="text_29">
      <!-- 0.55 -->
      <g transform="translate(382.315698 194.243253)scale(0.1 -0.1)">
       <use xlink:href="#DejaVuSans-48"/>
       <use x="63.623047" xlink:href="#DejaVuSans-46"/>
       <use x="95.410156" xlink:href="#DejaVuSans-53"/>
       <use x="159.033203" xlink:href="#DejaVuSans-53"/>
      </g>
     </g>
    </g>
    <g id="ytick_12">
     <g id="line2d_33">
      <g>
       <use style="stroke:#000000;stroke-width:0.8;" x="411.581323" xlink:href="#m3b31d4503d" y="157.827162"/>
      </g>
     </g>
     <g id="text_30">
      <!-- 0.60 -->
      <g transform="translate(382.315698 161.626381)scale(0.1 -0.1)">
       <use xlink:href="#DejaVuSans-48"/>
       <use x="63.623047" xlink:href="#DejaVuSans-46"/>
       <use x="95.410156" xlink:href="#DejaVuSans-54"/>
       <use x="159.033203" xlink:href="#DejaVuSans-48"/>
      </g>
     </g>
    </g>
    <g id="ytick_13">
     <g id="line2d_34">
      <g>
       <use style="stroke:#000000;stroke-width:0.8;" x="411.581323" xlink:href="#m3b31d4503d" y="125.210291"/>
      </g>
     </g>
     <g id="text_31">
      <!-- 0.65 -->
      <g transform="translate(382.315698 129.00951)scale(0.1 -0.1)">
       <use xlink:href="#DejaVuSans-48"/>
       <use x="63.623047" xlink:href="#DejaVuSans-46"/>
       <use x="95.410156" xlink:href="#DejaVuSans-54"/>
       <use x="159.033203" xlink:href="#DejaVuSans-53"/>
      </g>
     </g>
    </g>
    <g id="ytick_14">
     <g id="line2d_35">
      <g>
       <use style="stroke:#000000;stroke-width:0.8;" x="411.581323" xlink:href="#m3b31d4503d" y="92.593419"/>
      </g>
     </g>
     <g id="text_32">
      <!-- 0.70 -->
      <g transform="translate(382.315698 96.392638)scale(0.1 -0.1)">
       <use xlink:href="#DejaVuSans-48"/>
       <use x="63.623047" xlink:href="#DejaVuSans-46"/>
       <use x="95.410156" xlink:href="#DejaVuSans-55"/>
       <use x="159.033203" xlink:href="#DejaVuSans-48"/>
      </g>
     </g>
    </g>
    <g id="ytick_15">
     <g id="line2d_36">
      <g>
       <use style="stroke:#000000;stroke-width:0.8;" x="411.581323" xlink:href="#m3b31d4503d" y="59.976548"/>
      </g>
     </g>
     <g id="text_33">
      <!-- 0.75 -->
      <g transform="translate(382.315698 63.775766)scale(0.1 -0.1)">
       <use xlink:href="#DejaVuSans-48"/>
       <use x="63.623047" xlink:href="#DejaVuSans-46"/>
       <use x="95.410156" xlink:href="#DejaVuSans-55"/>
       <use x="159.033203" xlink:href="#DejaVuSans-53"/>
      </g>
     </g>
    </g>
   </g>
   <g id="line2d_37">
    <path clip-path="url(#p182997f4de)" d="M 562.709535 264.354185 
L 572.155048 264.354185 
" style="fill:none;stroke:#edd1cb;stroke-linecap:square;stroke-width:1.5;"/>
   </g>
   <g id="line2d_38">
    <path clip-path="url(#p182997f4de)" d="M 491.868186 161.522674 
L 501.313699 146.901311 
L 510.759212 130.673221 
L 520.204725 131.958609 
L 529.650239 150.59682 
L 539.095752 156.220419 
L 548.541265 153.167607 
L 557.986778 159.594578 
L 567.432291 141.759736 
L 576.877805 164.896827 
L 586.323318 162.326045 
L 595.768831 150.114799 
L 605.214344 163.290088 
L 614.659858 170.19908 
L 624.105371 178.232796 
L 633.550884 187.069883 
L 642.996397 212.617082 
" style="fill:none;stroke:#a9678f;stroke-linecap:square;stroke-width:1.5;"/>
   </g>
   <g id="line2d_39">
    <path clip-path="url(#p182997f4de)" d="M 425.749593 72.830485 
L 435.195106 74.758579 
L 444.640619 70.902402 
L 454.086133 75.561955 
L 463.531646 69.938346 
L 472.977159 65.600137 
L 482.422672 68.331607 
L 491.868186 73.794533 
L 501.313699 61.42262 
L 510.759212 70.420368 
L 520.204725 74.597902 
L 529.650239 67.849581 
L 539.095752 70.741721 
L 548.541265 61.904638 
L 557.986778 69.295654 
L 567.432291 74.276555 
L 576.877805 74.276558 
L 586.323318 78.29341 
L 595.768831 80.06083 
L 605.214344 81.506902 
L 614.659858 86.487793 
L 624.105371 83.595667 
L 633.550884 97.252967 
L 642.996397 117.819277 
L 652.44191 124.888942 
L 661.887424 125.692312 
L 671.332937 136.296812 
L 680.77845 165.700201 
L 690.223963 221.936189 
L 699.669477 243.787882 
L 709.11499 301.309263 
" style="fill:none;stroke:#2d1e3e;stroke-linecap:square;stroke-width:1.5;"/>
   </g>
   <g id="patch_6">
    <path d="M 411.581323 330.239062 
L 411.581323 36.839063 
" style="fill:none;stroke:#000000;stroke-linecap:square;stroke-linejoin:miter;stroke-width:0.8;"/>
   </g>
   <g id="patch_7">
    <path d="M 411.581323 330.239063 
L 723.28326 330.239063 
" style="fill:none;stroke:#000000;stroke-linecap:square;stroke-linejoin:miter;stroke-width:0.8;"/>
   </g>
   <g id="text_34">
    <!-- loss = f1micro -->
    <g transform="translate(531.343229 30.839063)scale(0.1 -0.1)">
     <use xlink:href="#DejaVuSans-108"/>
     <use x="27.783203" xlink:href="#DejaVuSans-111"/>
     <use x="88.964844" xlink:href="#DejaVuSans-115"/>
     <use x="141.064453" xlink:href="#DejaVuSans-115"/>
     <use x="193.164062" xlink:href="#DejaVuSans-32"/>
     <use x="224.951172" xlink:href="#DejaVuSans-61"/>
     <use x="308.740234" xlink:href="#DejaVuSans-32"/>
     <use x="340.527344" xlink:href="#DejaVuSans-102"/>
     <use x="375.732422" xlink:href="#DejaVuSans-49"/>
     <use x="439.355469" xlink:href="#DejaVuSans-109"/>
     <use x="536.767578" xlink:href="#DejaVuSans-105"/>
     <use x="564.550781" xlink:href="#DejaVuSans-99"/>
     <use x="619.53125" xlink:href="#DejaVuSans-114"/>
     <use x="660.613281" xlink:href="#DejaVuSans-111"/>
    </g>
   </g>
  </g>
  <g id="axes_3">
   <g id="patch_8">
    <path d="M 766.685237 330.239063 
L 1078.387173 330.239063 
L 1078.387173 36.839063 
L 766.685237 36.839063 
z
" style="fill:#ffffff;"/>
   </g>
   <g id="PolyCollection_7">
    <defs>
     <path d="M 917.813448 -147.708557 
L 917.813448 -124.083239 
L 927.258961 -123.559824 
L 927.258961 -148.36498 
L 927.258961 -148.36498 
L 917.813448 -147.708557 
z
" id="m01a3cfd972" style="stroke:#edd1cb;stroke-opacity:0.2;"/>
    </defs>
    <g clip-path="url(#p0586bf7ce3)">
     <use style="fill:#edd1cb;fill-opacity:0.2;stroke:#edd1cb;stroke-opacity:0.2;" x="0" xlink:href="#m01a3cfd972" y="367.795313"/>
    </g>
   </g>
   <g id="PolyCollection_8">
    <defs>
     <path d="M 846.972099 -116.195187 
L 846.972099 -96.386718 
L 856.417612 -82.794834 
L 865.863126 -85.562757 
L 875.308639 -87.030853 
L 884.754152 -85.947612 
L 894.199665 -89.69284 
L 903.645178 -98.109675 
L 913.090692 -97.106141 
L 922.536205 -95.545832 
L 931.981718 -105.93975 
L 941.427231 -101.040392 
L 950.872745 -112.86118 
L 960.318258 -112.688868 
L 969.763771 -116.645201 
L 979.209284 -116.487483 
L 988.654797 -113.164802 
L 998.100311 -146.387446 
L 998.100311 -187.328099 
L 998.100311 -187.328099 
L 988.654797 -142.932098 
L 979.209284 -149.914755 
L 969.763771 -160.052513 
L 960.318258 -147.973562 
L 950.872745 -152.286137 
L 941.427231 -123.429141 
L 931.981718 -141.639405 
L 922.536205 -111.319866 
L 913.090692 -123.632505 
L 903.645178 -129.993876 
L 894.199665 -99.501149 
L 884.754152 -106.871827 
L 875.308639 -120.868145 
L 865.863126 -101.239443 
L 856.417612 -106.783649 
L 846.972099 -116.195187 
z
" id="mca73f04006" style="stroke:#a9678f;stroke-opacity:0.2;"/>
    </defs>
    <g clip-path="url(#p0586bf7ce3)">
     <use style="fill:#a9678f;fill-opacity:0.2;stroke:#a9678f;stroke-opacity:0.2;" x="0" xlink:href="#mca73f04006" y="367.795313"/>
    </g>
   </g>
   <g id="PolyCollection_9">
    <defs>
     <path d="M 780.853506 -317.619886 
L 780.853506 -265.463043 
L 790.29902 -127.632484 
L 799.744533 -84.719849 
L 809.190046 -61.164204 
L 818.635559 -55.358427 
L 828.081073 -54.561817 
L 837.526586 -50.892614 
L 846.972099 -58.752581 
L 856.417612 -57.659755 
L 865.863126 -54.414807 
L 875.308639 -66.860863 
L 884.754152 -54.844391 
L 894.199665 -56.359468 
L 903.645178 -60.425943 
L 913.090692 -67.961014 
L 922.536205 -61.686878 
L 931.981718 -71.458992 
L 941.427231 -71.39053 
L 950.872745 -73.402008 
L 960.318258 -79.618344 
L 969.763771 -76.586537 
L 979.209284 -82.751838 
L 988.654797 -90.078227 
L 998.100311 -102.495469 
L 1007.545824 -111.310141 
L 1016.991337 -121.256409 
L 1026.43685 -118.158499 
L 1035.882364 -132.005125 
L 1045.327877 -163.908214 
L 1054.77339 -175.213451 
L 1064.218903 -200.969249 
L 1064.218903 -227.925901 
L 1064.218903 -227.925901 
L 1054.77339 -191.465905 
L 1045.327877 -184.323885 
L 1035.882364 -170.575596 
L 1026.43685 -147.668941 
L 1016.991337 -135.104782 
L 1007.545824 -123.667804 
L 998.100311 -136.542085 
L 988.654797 -113.918821 
L 979.209284 -116.947814 
L 969.763771 -87.347596 
L 960.318258 -102.589057 
L 950.872745 -107.930199 
L 941.427231 -107.515819 
L 931.981718 -98.554883 
L 922.536205 -88.607057 
L 913.090692 -92.193284 
L 903.645178 -89.401649 
L 894.199665 -76.616851 
L 884.754152 -73.213112 
L 875.308639 -99.568303 
L 865.863126 -98.991903 
L 856.417612 -100.834186 
L 846.972099 -77.862946 
L 837.526586 -73.633735 
L 828.081073 -62.96763 
L 818.635559 -72.153588 
L 809.190046 -90.029058 
L 799.744533 -116.774475 
L 790.29902 -135.579968 
L 780.853506 -317.619886 
z
" id="md74072f68b" style="stroke:#2d1e3e;stroke-opacity:0.2;"/>
    </defs>
    <g clip-path="url(#p0586bf7ce3)">
     <use style="fill:#2d1e3e;fill-opacity:0.2;stroke:#2d1e3e;stroke-opacity:0.2;" x="0" xlink:href="#md74072f68b" y="367.795313"/>
    </g>
   </g>
   <g id="matplotlib.axis_5">
    <g id="xtick_15">
     <g id="line2d_40">
      <g>
       <use style="stroke:#000000;stroke-width:0.8;" x="780.853506" xlink:href="#m215e3be674" y="330.239063"/>
      </g>
     </g>
     <g id="text_35">
      <!-- −15 -->
      <g transform="translate(770.301163 344.8375)scale(0.1 -0.1)">
       <use xlink:href="#DejaVuSans-8722"/>
       <use x="83.789062" xlink:href="#DejaVuSans-49"/>
       <use x="147.412109" xlink:href="#DejaVuSans-53"/>
      </g>
     </g>
    </g>
    <g id="xtick_16">
     <g id="line2d_41">
      <g>
       <use style="stroke:#000000;stroke-width:0.8;" x="828.081073" xlink:href="#m215e3be674" y="330.239063"/>
      </g>
     </g>
     <g id="text_36">
      <!-- −10 -->
      <g transform="translate(817.528729 344.8375)scale(0.1 -0.1)">
       <use xlink:href="#DejaVuSans-8722"/>
       <use x="83.789062" xlink:href="#DejaVuSans-49"/>
       <use x="147.412109" xlink:href="#DejaVuSans-48"/>
      </g>
     </g>
    </g>
    <g id="xtick_17">
     <g id="line2d_42">
      <g>
       <use style="stroke:#000000;stroke-width:0.8;" x="875.308639" xlink:href="#m215e3be674" y="330.239063"/>
      </g>
     </g>
     <g id="text_37">
      <!-- −5 -->
      <g transform="translate(867.937545 344.8375)scale(0.1 -0.1)">
       <use xlink:href="#DejaVuSans-8722"/>
       <use x="83.789062" xlink:href="#DejaVuSans-53"/>
      </g>
     </g>
    </g>
    <g id="xtick_18">
     <g id="line2d_43">
      <g>
       <use style="stroke:#000000;stroke-width:0.8;" x="922.536205" xlink:href="#m215e3be674" y="330.239063"/>
      </g>
     </g>
     <g id="text_38">
      <!-- 0 -->
      <g transform="translate(919.354955 344.8375)scale(0.1 -0.1)">
       <use xlink:href="#DejaVuSans-48"/>
      </g>
     </g>
    </g>
    <g id="xtick_19">
     <g id="line2d_44">
      <g>
       <use style="stroke:#000000;stroke-width:0.8;" x="969.763771" xlink:href="#m215e3be674" y="330.239063"/>
      </g>
     </g>
     <g id="text_39">
      <!-- 5 -->
      <g transform="translate(966.582521 344.8375)scale(0.1 -0.1)">
       <use xlink:href="#DejaVuSans-53"/>
      </g>
     </g>
    </g>
    <g id="xtick_20">
     <g id="line2d_45">
      <g>
       <use style="stroke:#000000;stroke-width:0.8;" x="1016.991337" xlink:href="#m215e3be674" y="330.239063"/>
      </g>
     </g>
     <g id="text_40">
      <!-- 10 -->
      <g transform="translate(1010.628837 344.8375)scale(0.1 -0.1)">
       <use xlink:href="#DejaVuSans-49"/>
       <use x="63.623047" xlink:href="#DejaVuSans-48"/>
      </g>
     </g>
    </g>
    <g id="xtick_21">
     <g id="line2d_46">
      <g>
       <use style="stroke:#000000;stroke-width:0.8;" x="1064.218903" xlink:href="#m215e3be674" y="330.239063"/>
      </g>
     </g>
     <g id="text_41">
      <!-- 15 -->
      <g transform="translate(1057.856403 344.8375)scale(0.1 -0.1)">
       <use xlink:href="#DejaVuSans-49"/>
       <use x="63.623047" xlink:href="#DejaVuSans-53"/>
      </g>
     </g>
    </g>
    <g id="text_42">
     <!-- spill -->
     <g transform="translate(912.590111 358.515625)scale(0.1 -0.1)">
      <use xlink:href="#DejaVuSans-115"/>
      <use x="52.099609" xlink:href="#DejaVuSans-112"/>
      <use x="115.576172" xlink:href="#DejaVuSans-105"/>
      <use x="143.359375" xlink:href="#DejaVuSans-108"/>
      <use x="171.142578" xlink:href="#DejaVuSans-108"/>
     </g>
    </g>
   </g>
   <g id="matplotlib.axis_6">
    <g id="ytick_16">
     <g id="line2d_47">
      <g>
       <use style="stroke:#000000;stroke-width:0.8;" x="766.685237" xlink:href="#m3b31d4503d" y="297.648196"/>
      </g>
     </g>
     <g id="text_43">
      <!-- 0.6 -->
      <g transform="translate(743.782112 301.447415)scale(0.1 -0.1)">
       <use xlink:href="#DejaVuSans-48"/>
       <use x="63.623047" xlink:href="#DejaVuSans-46"/>
       <use x="95.410156" xlink:href="#DejaVuSans-54"/>
      </g>
     </g>
    </g>
    <g id="ytick_17">
     <g id="line2d_48">
      <g>
       <use style="stroke:#000000;stroke-width:0.8;" x="766.685237" xlink:href="#m3b31d4503d" y="233.739429"/>
      </g>
     </g>
     <g id="text_44">
      <!-- 0.8 -->
      <defs>
       <path d="M 31.78125 34.625 
Q 24.75 34.625 20.71875 30.859375 
Q 16.703125 27.09375 16.703125 20.515625 
Q 16.703125 13.921875 20.71875 10.15625 
Q 24.75 6.390625 31.78125 6.390625 
Q 38.8125 6.390625 42.859375 10.171875 
Q 46.921875 13.96875 46.921875 20.515625 
Q 46.921875 27.09375 42.890625 30.859375 
Q 38.875 34.625 31.78125 34.625 
z
M 21.921875 38.8125 
Q 15.578125 40.375 12.03125 44.71875 
Q 8.5 49.078125 8.5 55.328125 
Q 8.5 64.0625 14.71875 69.140625 
Q 20.953125 74.21875 31.78125 74.21875 
Q 42.671875 74.21875 48.875 69.140625 
Q 55.078125 64.0625 55.078125 55.328125 
Q 55.078125 49.078125 51.53125 44.71875 
Q 48 40.375 41.703125 38.8125 
Q 48.828125 37.15625 52.796875 32.3125 
Q 56.78125 27.484375 56.78125 20.515625 
Q 56.78125 9.90625 50.3125 4.234375 
Q 43.84375 -1.421875 31.78125 -1.421875 
Q 19.734375 -1.421875 13.25 4.234375 
Q 6.78125 9.90625 6.78125 20.515625 
Q 6.78125 27.484375 10.78125 32.3125 
Q 14.796875 37.15625 21.921875 38.8125 
z
M 18.3125 54.390625 
Q 18.3125 48.734375 21.84375 45.5625 
Q 25.390625 42.390625 31.78125 42.390625 
Q 38.140625 42.390625 41.71875 45.5625 
Q 45.3125 48.734375 45.3125 54.390625 
Q 45.3125 60.0625 41.71875 63.234375 
Q 38.140625 66.40625 31.78125 66.40625 
Q 25.390625 66.40625 21.84375 63.234375 
Q 18.3125 60.0625 18.3125 54.390625 
z
" id="DejaVuSans-56"/>
      </defs>
      <g transform="translate(743.782112 237.538647)scale(0.1 -0.1)">
       <use xlink:href="#DejaVuSans-48"/>
       <use x="63.623047" xlink:href="#DejaVuSans-46"/>
       <use x="95.410156" xlink:href="#DejaVuSans-56"/>
      </g>
     </g>
    </g>
    <g id="ytick_18">
     <g id="line2d_49">
      <g>
       <use style="stroke:#000000;stroke-width:0.8;" x="766.685237" xlink:href="#m3b31d4503d" y="169.830661"/>
      </g>
     </g>
     <g id="text_45">
      <!-- 1.0 -->
      <g transform="translate(743.782112 173.62988)scale(0.1 -0.1)">
       <use xlink:href="#DejaVuSans-49"/>
       <use x="63.623047" xlink:href="#DejaVuSans-46"/>
       <use x="95.410156" xlink:href="#DejaVuSans-48"/>
      </g>
     </g>
    </g>
    <g id="ytick_19">
     <g id="line2d_50">
      <g>
       <use style="stroke:#000000;stroke-width:0.8;" x="766.685237" xlink:href="#m3b31d4503d" y="105.921894"/>
      </g>
     </g>
     <g id="text_46">
      <!-- 1.2 -->
      <g transform="translate(743.782112 109.721112)scale(0.1 -0.1)">
       <use xlink:href="#DejaVuSans-49"/>
       <use x="63.623047" xlink:href="#DejaVuSans-46"/>
       <use x="95.410156" xlink:href="#DejaVuSans-50"/>
      </g>
     </g>
    </g>
    <g id="ytick_20">
     <g id="line2d_51">
      <g>
       <use style="stroke:#000000;stroke-width:0.8;" x="766.685237" xlink:href="#m3b31d4503d" y="42.013126"/>
      </g>
     </g>
     <g id="text_47">
      <!-- 1.4 -->
      <g transform="translate(743.782112 45.812345)scale(0.1 -0.1)">
       <use xlink:href="#DejaVuSans-49"/>
       <use x="63.623047" xlink:href="#DejaVuSans-46"/>
       <use x="95.410156" xlink:href="#DejaVuSans-52"/>
      </g>
     </g>
    </g>
   </g>
   <g id="line2d_52">
    <path clip-path="url(#p0586bf7ce3)" d="M 917.813448 232.788941 
L 927.258961 232.788941 
" style="fill:none;stroke:#edd1cb;stroke-linecap:square;stroke-width:1.5;"/>
   </g>
   <g id="line2d_53">
    <path clip-path="url(#p0586bf7ce3)" d="M 846.972099 261.903557 
L 856.417612 274.430163 
L 865.863126 274.354441 
L 875.308639 264.045764 
L 884.754152 272.679562 
L 894.199665 273.18567 
L 903.645178 256.729268 
L 913.090692 258.413041 
L 922.536205 263.930296 
L 931.981718 246.000662 
L 941.427231 255.679631 
L 950.872745 236.071797 
L 960.318258 238.835666 
L 969.763771 230.164296 
L 979.209284 235.254854 
L 988.654797 240.303886 
L 998.100311 201.733239 
" style="fill:none;stroke:#a9678f;stroke-linecap:square;stroke-width:1.5;"/>
   </g>
   <g id="line2d_54">
    <path clip-path="url(#p0586bf7ce3)" d="M 780.853506 76.360973 
L 790.29902 236.014266 
L 799.744533 268.070474 
L 809.190046 293.180297 
L 818.635559 304.458914 
L 828.081073 309.129484 
L 837.526586 306.936157 
L 846.972099 300.182803 
L 856.417612 292.232184 
L 865.863126 294.13284 
L 875.308639 288.266063 
L 884.754152 304.400456 
L 894.199665 301.678402 
L 903.645178 294.158225 
L 913.090692 287.868555 
L 922.536205 293.878329 
L 931.981718 283.206928 
L 941.427231 279.612023 
L 950.872745 278.067818 
L 960.318258 277.557409 
L 969.763771 285.70805 
L 979.209284 269.338374 
L 988.654797 267.349171 
L 998.100311 246.953094 
L 1007.545824 250.962069 
L 1016.991337 239.568823 
L 1026.43685 234.334974 
L 1035.882364 218.113 
L 1045.327877 193.964381 
L 1054.77339 185.284412 
L 1064.218903 153.230082 
" style="fill:none;stroke:#2d1e3e;stroke-linecap:square;stroke-width:1.5;"/>
   </g>
   <g id="patch_9">
    <path d="M 766.685237 330.239063 
L 766.685237 36.839063 
" style="fill:none;stroke:#000000;stroke-linecap:square;stroke-linejoin:miter;stroke-width:0.8;"/>
   </g>
   <g id="patch_10">
    <path d="M 766.685237 330.239063 
L 1078.387173 330.239063 
" style="fill:none;stroke:#000000;stroke-linecap:square;stroke-linejoin:miter;stroke-width:0.8;"/>
   </g>
   <g id="text_48">
    <!-- loss = total loss -->
    <g transform="translate(882.830736 30.839063)scale(0.1 -0.1)">
     <use xlink:href="#DejaVuSans-108"/>
     <use x="27.783203" xlink:href="#DejaVuSans-111"/>
     <use x="88.964844" xlink:href="#DejaVuSans-115"/>
     <use x="141.064453" xlink:href="#DejaVuSans-115"/>
     <use x="193.164062" xlink:href="#DejaVuSans-32"/>
     <use x="224.951172" xlink:href="#DejaVuSans-61"/>
     <use x="308.740234" xlink:href="#DejaVuSans-32"/>
     <use x="340.527344" xlink:href="#DejaVuSans-116"/>
     <use x="379.736328" xlink:href="#DejaVuSans-111"/>
     <use x="440.917969" xlink:href="#DejaVuSans-116"/>
     <use x="480.126953" xlink:href="#DejaVuSans-97"/>
     <use x="541.40625" xlink:href="#DejaVuSans-108"/>
     <use x="569.189453" xlink:href="#DejaVuSans-32"/>
     <use x="600.976562" xlink:href="#DejaVuSans-108"/>
     <use x="628.759766" xlink:href="#DejaVuSans-111"/>
     <use x="689.941406" xlink:href="#DejaVuSans-115"/>
     <use x="742.041016" xlink:href="#DejaVuSans-115"/>
    </g>
   </g>
  </g>
  <g id="axes_4">
   <g id="patch_11">
    <path d="M 1121.78915 330.239063 
L 1433.491087 330.239063 
L 1433.491087 36.839063 
L 1121.78915 36.839063 
z
" style="fill:#ffffff;"/>
   </g>
   <g id="PolyCollection_10">
    <defs>
     <path d="M 1272.917362 -76.627201 
L 1272.917362 -61.51492 
L 1282.362875 -61.01567 
L 1282.362875 -76.444133 
L 1282.362875 -76.444133 
L 1272.917362 -76.627201 
z
" id="m1a62705774" style="stroke:#edd1cb;stroke-opacity:0.2;"/>
    </defs>
    <g clip-path="url(#pb48bac411d)">
     <use style="fill:#edd1cb;fill-opacity:0.2;stroke:#edd1cb;stroke-opacity:0.2;" x="0" xlink:href="#m1a62705774" y="367.795313"/>
    </g>
   </g>
   <g id="PolyCollection_11">
    <defs>
     <path d="M 1202.076013 -70.524813 
L 1202.076013 -62.479634 
L 1211.521526 -51.282247 
L 1220.967039 -53.856337 
L 1230.412552 -54.657011 
L 1239.858065 -51.261504 
L 1249.303579 -50.892614 
L 1258.749092 -57.685256 
L 1268.194605 -54.324079 
L 1277.640118 -54.394191 
L 1287.085632 -59.284112 
L 1296.531145 -54.140664 
L 1305.976658 -64.188942 
L 1315.422171 -60.212779 
L 1324.867684 -62.640924 
L 1334.313198 -59.157399 
L 1343.758711 -52.423364 
L 1353.204224 -70.125771 
L 1353.204224 -104.65756 
L 1353.204224 -104.65756 
L 1343.758711 -73.1664 
L 1334.313198 -83.931712 
L 1324.867684 -93.192165 
L 1315.422171 -88.781822 
L 1305.976658 -99.677825 
L 1296.531145 -72.980231 
L 1287.085632 -87.006571 
L 1277.640118 -64.558029 
L 1268.194605 -75.939133 
L 1258.749092 -82.8388 
L 1249.303579 -57.50968 
L 1239.858065 -62.557352 
L 1230.412552 -81.559275 
L 1220.967039 -65.69677 
L 1211.521526 -65.869063 
L 1202.076013 -70.524813 
z
" id="m29d4b821e8" style="stroke:#a9678f;stroke-opacity:0.2;"/>
    </defs>
    <g clip-path="url(#pb48bac411d)">
     <use style="fill:#a9678f;fill-opacity:0.2;stroke:#a9678f;stroke-opacity:0.2;" x="0" xlink:href="#m29d4b821e8" y="367.795313"/>
    </g>
   </g>
   <g id="PolyCollection_12">
    <defs>
     <path d="M 1135.95742 -317.619886 
L 1135.95742 -266.394187 
L 1145.402933 -133.088239 
L 1154.848446 -90.934059 
L 1164.29396 -67.847058 
L 1173.739473 -60.951395 
L 1183.184986 -61.210253 
L 1192.630499 -56.369233 
L 1202.076013 -61.209154 
L 1211.521526 -62.857838 
L 1220.967039 -59.142219 
L 1230.412552 -66.460277 
L 1239.858065 -57.352714 
L 1249.303579 -57.791328 
L 1258.749092 -64.967067 
L 1268.194605 -66.913961 
L 1277.640118 -61.554063 
L 1287.085632 -66.164526 
L 1296.531145 -64.817861 
L 1305.976658 -65.583662 
L 1315.422171 -67.418263 
L 1324.867684 -60.886849 
L 1334.313198 -67.934266 
L 1343.758711 -69.74437 
L 1353.204224 -75.592536 
L 1362.649737 -81.507171 
L 1372.095251 -80.427328 
L 1381.540764 -69.822264 
L 1390.986277 -65.74178 
L 1400.43179 -84.110561 
L 1409.877303 -76.446528 
L 1419.322817 -84.910458 
L 1419.322817 -113.149228 
L 1419.322817 -113.149228 
L 1409.877303 -90.043962 
L 1400.43179 -104.82387 
L 1390.986277 -105.084198 
L 1381.540764 -98.670078 
L 1372.095251 -95.734536 
L 1362.649737 -91.988754 
L 1353.204224 -104.790812 
L 1343.758711 -93.34903 
L 1334.313198 -103.105184 
L 1324.867684 -72.729552 
L 1315.422171 -90.105971 
L 1305.976658 -96.785976 
L 1296.531145 -97.624977 
L 1287.085632 -92.123706 
L 1277.640118 -85.066199 
L 1268.194605 -89.882188 
L 1258.749092 -94.210695 
L 1249.303579 -74.787684 
L 1239.858065 -72.280184 
L 1230.412552 -100.120765 
L 1220.967039 -99.968582 
L 1211.521526 -103.944547 
L 1202.076013 -80.421639 
L 1192.630499 -79.860581 
L 1183.184986 -69.16444 
L 1173.739473 -76.658473 
L 1164.29396 -94.462843 
L 1154.848446 -119.568358 
L 1145.402933 -142.276791 
L 1135.95742 -317.619886 
z
" id="m358389bbd7" style="stroke:#2d1e3e;stroke-opacity:0.2;"/>
    </defs>
    <g clip-path="url(#pb48bac411d)">
     <use style="fill:#2d1e3e;fill-opacity:0.2;stroke:#2d1e3e;stroke-opacity:0.2;" x="0" xlink:href="#m358389bbd7" y="367.795313"/>
    </g>
   </g>
   <g id="matplotlib.axis_7">
    <g id="xtick_22">
     <g id="line2d_55">
      <g>
       <use style="stroke:#000000;stroke-width:0.8;" x="1135.95742" xlink:href="#m215e3be674" y="330.239063"/>
      </g>
     </g>
     <g id="text_49">
      <!-- −15 -->
      <g transform="translate(1125.405076 344.8375)scale(0.1 -0.1)">
       <use xlink:href="#DejaVuSans-8722"/>
       <use x="83.789062" xlink:href="#DejaVuSans-49"/>
       <use x="147.412109" xlink:href="#DejaVuSans-53"/>
      </g>
     </g>
    </g>
    <g id="xtick_23">
     <g id="line2d_56">
      <g>
       <use style="stroke:#000000;stroke-width:0.8;" x="1183.184986" xlink:href="#m215e3be674" y="330.239063"/>
      </g>
     </g>
     <g id="text_50">
      <!-- −10 -->
      <g transform="translate(1172.632642 344.8375)scale(0.1 -0.1)">
       <use xlink:href="#DejaVuSans-8722"/>
       <use x="83.789062" xlink:href="#DejaVuSans-49"/>
       <use x="147.412109" xlink:href="#DejaVuSans-48"/>
      </g>
     </g>
    </g>
    <g id="xtick_24">
     <g id="line2d_57">
      <g>
       <use style="stroke:#000000;stroke-width:0.8;" x="1230.412552" xlink:href="#m215e3be674" y="330.239063"/>
      </g>
     </g>
     <g id="text_51">
      <!-- −5 -->
      <g transform="translate(1223.041458 344.8375)scale(0.1 -0.1)">
       <use xlink:href="#DejaVuSans-8722"/>
       <use x="83.789062" xlink:href="#DejaVuSans-53"/>
      </g>
     </g>
    </g>
    <g id="xtick_25">
     <g id="line2d_58">
      <g>
       <use style="stroke:#000000;stroke-width:0.8;" x="1277.640118" xlink:href="#m215e3be674" y="330.239063"/>
      </g>
     </g>
     <g id="text_52">
      <!-- 0 -->
      <g transform="translate(1274.458868 344.8375)scale(0.1 -0.1)">
       <use xlink:href="#DejaVuSans-48"/>
      </g>
     </g>
    </g>
    <g id="xtick_26">
     <g id="line2d_59">
      <g>
       <use style="stroke:#000000;stroke-width:0.8;" x="1324.867684" xlink:href="#m215e3be674" y="330.239063"/>
      </g>
     </g>
     <g id="text_53">
      <!-- 5 -->
      <g transform="translate(1321.686434 344.8375)scale(0.1 -0.1)">
       <use xlink:href="#DejaVuSans-53"/>
      </g>
     </g>
    </g>
    <g id="xtick_27">
     <g id="line2d_60">
      <g>
       <use style="stroke:#000000;stroke-width:0.8;" x="1372.095251" xlink:href="#m215e3be674" y="330.239063"/>
      </g>
     </g>
     <g id="text_54">
      <!-- 10 -->
      <g transform="translate(1365.732751 344.8375)scale(0.1 -0.1)">
       <use xlink:href="#DejaVuSans-49"/>
       <use x="63.623047" xlink:href="#DejaVuSans-48"/>
      </g>
     </g>
    </g>
    <g id="xtick_28">
     <g id="line2d_61">
      <g>
       <use style="stroke:#000000;stroke-width:0.8;" x="1419.322817" xlink:href="#m215e3be674" y="330.239063"/>
      </g>
     </g>
     <g id="text_55">
      <!-- 15 -->
      <g transform="translate(1412.960317 344.8375)scale(0.1 -0.1)">
       <use xlink:href="#DejaVuSans-49"/>
       <use x="63.623047" xlink:href="#DejaVuSans-53"/>
      </g>
     </g>
    </g>
    <g id="text_56">
     <!-- spill -->
     <g transform="translate(1267.694025 358.515625)scale(0.1 -0.1)">
      <use xlink:href="#DejaVuSans-115"/>
      <use x="52.099609" xlink:href="#DejaVuSans-112"/>
      <use x="115.576172" xlink:href="#DejaVuSans-105"/>
      <use x="143.359375" xlink:href="#DejaVuSans-108"/>
      <use x="171.142578" xlink:href="#DejaVuSans-108"/>
     </g>
    </g>
   </g>
   <g id="matplotlib.axis_8">
    <g id="ytick_21">
     <g id="line2d_62">
      <g>
       <use style="stroke:#000000;stroke-width:0.8;" x="1121.78915" xlink:href="#m3b31d4503d" y="292.636551"/>
      </g>
     </g>
     <g id="text_57">
      <!-- 0.2 -->
      <g transform="translate(1098.886025 296.43577)scale(0.1 -0.1)">
       <use xlink:href="#DejaVuSans-48"/>
       <use x="63.623047" xlink:href="#DejaVuSans-46"/>
       <use x="95.410156" xlink:href="#DejaVuSans-50"/>
      </g>
     </g>
    </g>
    <g id="ytick_22">
     <g id="line2d_63">
      <g>
       <use style="stroke:#000000;stroke-width:0.8;" x="1121.78915" xlink:href="#m3b31d4503d" y="230.787163"/>
      </g>
     </g>
     <g id="text_58">
      <!-- 0.4 -->
      <g transform="translate(1098.886025 234.586382)scale(0.1 -0.1)">
       <use xlink:href="#DejaVuSans-48"/>
       <use x="63.623047" xlink:href="#DejaVuSans-46"/>
       <use x="95.410156" xlink:href="#DejaVuSans-52"/>
      </g>
     </g>
    </g>
    <g id="ytick_23">
     <g id="line2d_64">
      <g>
       <use style="stroke:#000000;stroke-width:0.8;" x="1121.78915" xlink:href="#m3b31d4503d" y="168.937775"/>
      </g>
     </g>
     <g id="text_59">
      <!-- 0.6 -->
      <g transform="translate(1098.886025 172.736994)scale(0.1 -0.1)">
       <use xlink:href="#DejaVuSans-48"/>
       <use x="63.623047" xlink:href="#DejaVuSans-46"/>
       <use x="95.410156" xlink:href="#DejaVuSans-54"/>
      </g>
     </g>
    </g>
    <g id="ytick_24">
     <g id="line2d_65">
      <g>
       <use style="stroke:#000000;stroke-width:0.8;" x="1121.78915" xlink:href="#m3b31d4503d" y="107.088387"/>
      </g>
     </g>
     <g id="text_60">
      <!-- 0.8 -->
      <g transform="translate(1098.886025 110.887606)scale(0.1 -0.1)">
       <use xlink:href="#DejaVuSans-48"/>
       <use x="63.623047" xlink:href="#DejaVuSans-46"/>
       <use x="95.410156" xlink:href="#DejaVuSans-56"/>
      </g>
     </g>
    </g>
    <g id="ytick_25">
     <g id="line2d_66">
      <g>
       <use style="stroke:#000000;stroke-width:0.8;" x="1121.78915" xlink:href="#m3b31d4503d" y="45.238999"/>
      </g>
     </g>
     <g id="text_61">
      <!-- 1.0 -->
      <g transform="translate(1098.886025 49.038218)scale(0.1 -0.1)">
       <use xlink:href="#DejaVuSans-49"/>
       <use x="63.623047" xlink:href="#DejaVuSans-46"/>
       <use x="95.410156" xlink:href="#DejaVuSans-48"/>
      </g>
     </g>
    </g>
   </g>
   <g id="line2d_67">
    <path clip-path="url(#pb48bac411d)" d="M 1272.917362 299.404179 
L 1282.362875 299.404179 
" style="fill:none;stroke:#edd1cb;stroke-linecap:square;stroke-width:1.5;"/>
   </g>
   <g id="line2d_68">
    <path clip-path="url(#pb48bac411d)" d="M 1202.076013 300.991661 
L 1211.521526 310.10072 
L 1220.967039 308.277962 
L 1230.412552 300.714923 
L 1239.858065 311.00057 
L 1249.303579 313.473186 
L 1258.749092 300.084649 
L 1268.194605 303.792125 
L 1277.640118 308.138712 
L 1287.085632 296.249221 
L 1296.531145 305.026559 
L 1305.976658 288.756871 
L 1315.422171 294.500315 
L 1324.867684 290.6163 
L 1334.313198 297.363295 
L 1343.758711 305.684843 
L 1353.204224 280.678401 
" style="fill:none;stroke:#a9678f;stroke-linecap:square;stroke-width:1.5;"/>
   </g>
   <g id="line2d_69">
    <path clip-path="url(#pb48bac411d)" d="M 1135.95742 75.832625 
L 1145.402933 229.6121 
L 1154.848446 263.517996 
L 1164.29396 287.388597 
L 1173.739473 299.398122 
L 1183.184986 302.907932 
L 1192.630499 301.269915 
L 1202.076013 298.180498 
L 1211.521526 288.878436 
L 1220.967039 290.237966 
L 1230.412552 286.739019 
L 1239.858065 303.659043 
L 1249.303579 302.024247 
L 1258.749092 290.025977 
L 1268.194605 289.168507 
L 1277.640118 295.571 
L 1287.085632 289.147157 
L 1296.531145 287.33248 
L 1305.976658 287.685981 
L 1315.422171 290.413532 
L 1324.867684 300.986357 
L 1334.313198 283.634041 
L 1343.758711 287.792318 
L 1353.204224 276.924767 
L 1362.649737 280.797041 
L 1372.095251 279.515531 
L 1381.540764 283.516908 
L 1390.986277 283.395152 
L 1400.43179 273.949118 
L 1409.877303 284.794816 
L 1419.322817 268.643422 
" style="fill:none;stroke:#2d1e3e;stroke-linecap:square;stroke-width:1.5;"/>
   </g>
   <g id="patch_12">
    <path d="M 1121.78915 330.239062 
L 1121.78915 36.839063 
" style="fill:none;stroke:#000000;stroke-linecap:square;stroke-linejoin:miter;stroke-width:0.8;"/>
   </g>
   <g id="patch_13">
    <path d="M 1121.78915 330.239063 
L 1433.491087 330.239063 
" style="fill:none;stroke:#000000;stroke-linecap:square;stroke-linejoin:miter;stroke-width:0.8;"/>
   </g>
   <g id="text_62">
    <!-- loss = adj -->
    <defs>
     <path d="M 45.40625 46.390625 
L 45.40625 75.984375 
L 54.390625 75.984375 
L 54.390625 0 
L 45.40625 0 
L 45.40625 8.203125 
Q 42.578125 3.328125 38.25 0.953125 
Q 33.9375 -1.421875 27.875 -1.421875 
Q 17.96875 -1.421875 11.734375 6.484375 
Q 5.515625 14.40625 5.515625 27.296875 
Q 5.515625 40.1875 11.734375 48.09375 
Q 17.96875 56 27.875 56 
Q 33.9375 56 38.25 53.625 
Q 42.578125 51.265625 45.40625 46.390625 
z
M 14.796875 27.296875 
Q 14.796875 17.390625 18.875 11.75 
Q 22.953125 6.109375 30.078125 6.109375 
Q 37.203125 6.109375 41.296875 11.75 
Q 45.40625 17.390625 45.40625 27.296875 
Q 45.40625 37.203125 41.296875 42.84375 
Q 37.203125 48.484375 30.078125 48.484375 
Q 22.953125 48.484375 18.875 42.84375 
Q 14.796875 37.203125 14.796875 27.296875 
z
" id="DejaVuSans-100"/>
     <path d="M 9.421875 54.6875 
L 18.40625 54.6875 
L 18.40625 -0.984375 
Q 18.40625 -11.421875 14.421875 -16.109375 
Q 10.453125 -20.796875 1.609375 -20.796875 
L -1.8125 -20.796875 
L -1.8125 -13.1875 
L 0.59375 -13.1875 
Q 5.71875 -13.1875 7.5625 -10.8125 
Q 9.421875 -8.453125 9.421875 -0.984375 
z
M 9.421875 75.984375 
L 18.40625 75.984375 
L 18.40625 64.59375 
L 9.421875 64.59375 
z
" id="DejaVuSans-106"/>
    </defs>
    <g transform="translate(1252.986993 30.839063)scale(0.1 -0.1)">
     <use xlink:href="#DejaVuSans-108"/>
     <use x="27.783203" xlink:href="#DejaVuSans-111"/>
     <use x="88.964844" xlink:href="#DejaVuSans-115"/>
     <use x="141.064453" xlink:href="#DejaVuSans-115"/>
     <use x="193.164062" xlink:href="#DejaVuSans-32"/>
     <use x="224.951172" xlink:href="#DejaVuSans-61"/>
     <use x="308.740234" xlink:href="#DejaVuSans-32"/>
     <use x="340.527344" xlink:href="#DejaVuSans-97"/>
     <use x="401.806641" xlink:href="#DejaVuSans-100"/>
     <use x="465.283203" xlink:href="#DejaVuSans-106"/>
    </g>
   </g>
  </g>
  <g id="axes_5">
   <g id="patch_14">
    <path d="M 1476.893064 330.239063 
L 1788.595 330.239063 
L 1788.595 36.839063 
L 1476.893064 36.839063 
z
" style="fill:#ffffff;"/>
   </g>
   <g id="PolyCollection_13">
    <defs>
     <path d="M 1628.021275 -218.542735 
L 1628.021275 -200.524316 
L 1637.466788 -200.856752 
L 1637.466788 -219.422458 
L 1637.466788 -219.422458 
L 1628.021275 -218.542735 
z
" id="m775f4f6d20" style="stroke:#edd1cb;stroke-opacity:0.2;"/>
    </defs>
    <g clip-path="url(#p8298744309)">
     <use style="fill:#edd1cb;fill-opacity:0.2;stroke:#edd1cb;stroke-opacity:0.2;" x="0" xlink:href="#m775f4f6d20" y="367.795313"/>
    </g>
   </g>
   <g id="PolyCollection_14">
    <defs>
     <path d="M 1557.179926 -166.677807 
L 1557.179926 -139.597071 
L 1566.625439 -135.792179 
L 1576.070952 -135.883991 
L 1585.516466 -136.73202 
L 1594.961979 -142.625937 
L 1604.407492 -149.178699 
L 1613.853005 -154.850103 
L 1623.298519 -157.249667 
L 1632.744032 -155.697955 
L 1642.189545 -165.432255 
L 1651.635058 -165.85375 
L 1661.080571 -169.577163 
L 1670.526085 -176.99345 
L 1679.971598 -182.036533 
L 1689.417111 -189.153582 
L 1698.862624 -198.982247 
L 1708.308138 -225.416181 
L 1708.308138 -244.137489 
L 1708.308138 -244.137489 
L 1698.862624 -215.274106 
L 1689.417111 -209.951933 
L 1679.971598 -211.784865 
L 1670.526085 -193.357539 
L 1661.080571 -190.479621 
L 1651.635058 -180.968836 
L 1642.189545 -188.750986 
L 1632.744032 -171.296407 
L 1623.298519 -174.693748 
L 1613.853005 -169.96492 
L 1604.407492 -164.378371 
L 1594.961979 -164.011025 
L 1585.516466 -160.123335 
L 1576.070952 -148.199988 
L 1566.625439 -161.917048 
L 1557.179926 -166.677807 
z
" id="m15f068c852" style="stroke:#a9678f;stroke-opacity:0.2;"/>
    </defs>
    <g clip-path="url(#p8298744309)">
     <use style="fill:#a9678f;fill-opacity:0.2;stroke:#a9678f;stroke-opacity:0.2;" x="0" xlink:href="#m15f068c852" y="367.795313"/>
    </g>
   </g>
   <g id="PolyCollection_15">
    <defs>
     <path d="M 1491.061333 -64.757237 
L 1491.061333 -50.892614 
L 1500.506847 -51.327265 
L 1509.95236 -58.268476 
L 1519.397873 -55.027117 
L 1528.843386 -55.922192 
L 1538.2889 -55.119832 
L 1547.734413 -54.407474 
L 1557.179926 -64.27868 
L 1566.625439 -57.426136 
L 1576.070952 -58.407313 
L 1585.516466 -62.292305 
L 1594.961979 -66.508872 
L 1604.407492 -70.177088 
L 1613.853005 -57.982971 
L 1623.298519 -71.548417 
L 1632.744032 -70.724297 
L 1642.189545 -79.306249 
L 1651.635058 -80.837524 
L 1661.080571 -83.762359 
L 1670.526085 -94.825429 
L 1679.971598 -95.448698 
L 1689.417111 -95.717006 
L 1698.862624 -108.56064 
L 1708.308138 -120.317764 
L 1717.753651 -126.704879 
L 1727.199164 -144.522096 
L 1736.644677 -167.022861 
L 1746.09019 -196.068791 
L 1755.535704 -227.00751 
L 1764.981217 -280.348325 
L 1774.42673 -316.345736 
L 1774.42673 -317.619886 
L 1774.42673 -317.619886 
L 1764.981217 -287.091986 
L 1755.535704 -253.726395 
L 1746.09019 -222.048574 
L 1736.644677 -182.774446 
L 1727.199164 -162.865677 
L 1717.753651 -139.768221 
L 1708.308138 -148.065408 
L 1698.862624 -120.069239 
L 1689.417111 -106.144742 
L 1679.971598 -113.77868 
L 1670.526085 -102.902347 
L 1661.080571 -101.644742 
L 1651.635058 -95.968544 
L 1642.189545 -89.310004 
L 1632.744032 -81.526889 
L 1623.298519 -77.890836 
L 1613.853005 -69.570091 
L 1604.407492 -77.55451 
L 1594.961979 -78.079167 
L 1585.516466 -76.918344 
L 1576.070952 -69.939752 
L 1566.625439 -79.921588 
L 1557.179926 -74.456659 
L 1547.734413 -68.363912 
L 1538.2889 -67.621593 
L 1528.843386 -70.101501 
L 1519.397873 -67.758873 
L 1509.95236 -64.609664 
L 1500.506847 -59.900386 
L 1491.061333 -64.757237 
z
" id="m6399cd6418" style="stroke:#2d1e3e;stroke-opacity:0.2;"/>
    </defs>
    <g clip-path="url(#p8298744309)">
     <use style="fill:#2d1e3e;fill-opacity:0.2;stroke:#2d1e3e;stroke-opacity:0.2;" x="0" xlink:href="#m6399cd6418" y="367.795313"/>
    </g>
   </g>
   <g id="matplotlib.axis_9">
    <g id="xtick_29">
     <g id="line2d_70">
      <g>
       <use style="stroke:#000000;stroke-width:0.8;" x="1491.061333" xlink:href="#m215e3be674" y="330.239063"/>
      </g>
     </g>
     <g id="text_63">
      <!-- −15 -->
      <g transform="translate(1480.50899 344.8375)scale(0.1 -0.1)">
       <use xlink:href="#DejaVuSans-8722"/>
       <use x="83.789062" xlink:href="#DejaVuSans-49"/>
       <use x="147.412109" xlink:href="#DejaVuSans-53"/>
      </g>
     </g>
    </g>
    <g id="xtick_30">
     <g id="line2d_71">
      <g>
       <use style="stroke:#000000;stroke-width:0.8;" x="1538.2889" xlink:href="#m215e3be674" y="330.239063"/>
      </g>
     </g>
     <g id="text_64">
      <!-- −10 -->
      <g transform="translate(1527.736556 344.8375)scale(0.1 -0.1)">
       <use xlink:href="#DejaVuSans-8722"/>
       <use x="83.789062" xlink:href="#DejaVuSans-49"/>
       <use x="147.412109" xlink:href="#DejaVuSans-48"/>
      </g>
     </g>
    </g>
    <g id="xtick_31">
     <g id="line2d_72">
      <g>
       <use style="stroke:#000000;stroke-width:0.8;" x="1585.516466" xlink:href="#m215e3be674" y="330.239063"/>
      </g>
     </g>
     <g id="text_65">
      <!-- −5 -->
      <g transform="translate(1578.145372 344.8375)scale(0.1 -0.1)">
       <use xlink:href="#DejaVuSans-8722"/>
       <use x="83.789062" xlink:href="#DejaVuSans-53"/>
      </g>
     </g>
    </g>
    <g id="xtick_32">
     <g id="line2d_73">
      <g>
       <use style="stroke:#000000;stroke-width:0.8;" x="1632.744032" xlink:href="#m215e3be674" y="330.239063"/>
      </g>
     </g>
     <g id="text_66">
      <!-- 0 -->
      <g transform="translate(1629.562782 344.8375)scale(0.1 -0.1)">
       <use xlink:href="#DejaVuSans-48"/>
      </g>
     </g>
    </g>
    <g id="xtick_33">
     <g id="line2d_74">
      <g>
       <use style="stroke:#000000;stroke-width:0.8;" x="1679.971598" xlink:href="#m215e3be674" y="330.239063"/>
      </g>
     </g>
     <g id="text_67">
      <!-- 5 -->
      <g transform="translate(1676.790348 344.8375)scale(0.1 -0.1)">
       <use xlink:href="#DejaVuSans-53"/>
      </g>
     </g>
    </g>
    <g id="xtick_34">
     <g id="line2d_75">
      <g>
       <use style="stroke:#000000;stroke-width:0.8;" x="1727.199164" xlink:href="#m215e3be674" y="330.239063"/>
      </g>
     </g>
     <g id="text_68">
      <!-- 10 -->
      <g transform="translate(1720.836664 344.8375)scale(0.1 -0.1)">
       <use xlink:href="#DejaVuSans-49"/>
       <use x="63.623047" xlink:href="#DejaVuSans-48"/>
      </g>
     </g>
    </g>
    <g id="xtick_35">
     <g id="line2d_76">
      <g>
       <use style="stroke:#000000;stroke-width:0.8;" x="1774.42673" xlink:href="#m215e3be674" y="330.239063"/>
      </g>
     </g>
     <g id="text_69">
      <!-- 15 -->
      <g transform="translate(1768.06423 344.8375)scale(0.1 -0.1)">
       <use xlink:href="#DejaVuSans-49"/>
       <use x="63.623047" xlink:href="#DejaVuSans-53"/>
      </g>
     </g>
    </g>
    <g id="text_70">
     <!-- spill -->
     <g transform="translate(1622.797938 358.515625)scale(0.1 -0.1)">
      <use xlink:href="#DejaVuSans-115"/>
      <use x="52.099609" xlink:href="#DejaVuSans-112"/>
      <use x="115.576172" xlink:href="#DejaVuSans-105"/>
      <use x="143.359375" xlink:href="#DejaVuSans-108"/>
      <use x="171.142578" xlink:href="#DejaVuSans-108"/>
     </g>
    </g>
   </g>
   <g id="matplotlib.axis_10">
    <g id="ytick_26">
     <g id="line2d_77">
      <g>
       <use style="stroke:#000000;stroke-width:0.8;" x="1476.893064" xlink:href="#m3b31d4503d" y="286.927326"/>
      </g>
     </g>
     <g id="text_71">
      <!-- 0.4 -->
      <g transform="translate(1453.989939 290.726544)scale(0.1 -0.1)">
       <use xlink:href="#DejaVuSans-48"/>
       <use x="63.623047" xlink:href="#DejaVuSans-46"/>
       <use x="95.410156" xlink:href="#DejaVuSans-52"/>
      </g>
     </g>
    </g>
    <g id="ytick_27">
     <g id="line2d_78">
      <g>
       <use style="stroke:#000000;stroke-width:0.8;" x="1476.893064" xlink:href="#m3b31d4503d" y="222.934549"/>
      </g>
     </g>
     <g id="text_72">
      <!-- 0.5 -->
      <g transform="translate(1453.989939 226.733767)scale(0.1 -0.1)">
       <use xlink:href="#DejaVuSans-48"/>
       <use x="63.623047" xlink:href="#DejaVuSans-46"/>
       <use x="95.410156" xlink:href="#DejaVuSans-53"/>
      </g>
     </g>
    </g>
    <g id="ytick_28">
     <g id="line2d_79">
      <g>
       <use style="stroke:#000000;stroke-width:0.8;" x="1476.893064" xlink:href="#m3b31d4503d" y="158.941771"/>
      </g>
     </g>
     <g id="text_73">
      <!-- 0.6 -->
      <g transform="translate(1453.989939 162.74099)scale(0.1 -0.1)">
       <use xlink:href="#DejaVuSans-48"/>
       <use x="63.623047" xlink:href="#DejaVuSans-46"/>
       <use x="95.410156" xlink:href="#DejaVuSans-54"/>
      </g>
     </g>
    </g>
    <g id="ytick_29">
     <g id="line2d_80">
      <g>
       <use style="stroke:#000000;stroke-width:0.8;" x="1476.893064" xlink:href="#m3b31d4503d" y="94.948994"/>
      </g>
     </g>
     <g id="text_74">
      <!-- 0.7 -->
      <g transform="translate(1453.989939 98.748213)scale(0.1 -0.1)">
       <use xlink:href="#DejaVuSans-48"/>
       <use x="63.623047" xlink:href="#DejaVuSans-46"/>
       <use x="95.410156" xlink:href="#DejaVuSans-55"/>
      </g>
     </g>
    </g>
   </g>
   <g id="line2d_81">
    <path clip-path="url(#p8298744309)" d="M 1628.021275 158.644855 
L 1637.466788 158.644855 
" style="fill:none;stroke:#edd1cb;stroke-linecap:square;stroke-width:1.5;"/>
   </g>
   <g id="line2d_82">
    <path clip-path="url(#p8298744309)" d="M 1557.179926 214.45298 
L 1566.625439 221.132596 
L 1576.070952 225.486232 
L 1585.516466 220.144175 
L 1594.961979 215.951664 
L 1604.407492 211.615846 
L 1613.853005 206.352631 
L 1623.298519 201.73436 
L 1632.744032 204.248523 
L 1642.189545 192.133555 
L 1651.635058 194.260307 
L 1661.080571 188.197409 
L 1670.526085 182.24355 
L 1679.971598 171.506184 
L 1689.417111 168.254974 
L 1698.862624 161.089924 
L 1708.308138 133.354406 
" style="fill:none;stroke:#a9678f;stroke-linecap:square;stroke-width:1.5;"/>
   </g>
   <g id="line2d_83">
    <path clip-path="url(#p8298744309)" d="M 1491.061333 310.33129 
L 1500.506847 312.241375 
L 1509.95236 306.190428 
L 1519.397873 307.128912 
L 1528.843386 304.854783 
L 1538.2889 307.001518 
L 1547.734413 306.070922 
L 1557.179926 298.563049 
L 1566.625439 302.186193 
L 1576.070952 303.326231 
L 1585.516466 298.67198 
L 1594.961979 295.878398 
L 1604.407492 293.789294 
L 1613.853005 304.03406 
L 1623.298519 292.919317 
L 1632.744032 291.684123 
L 1642.189545 283.394818 
L 1651.635058 279.514155 
L 1661.080571 275.718981 
L 1670.526085 268.81413 
L 1679.971598 263.261532 
L 1689.417111 266.849031 
L 1698.862624 253.850967 
L 1708.308138 233.973582 
L 1717.753651 234.233506 
L 1727.199164 212.742739 
L 1736.644677 192.986407 
L 1746.09019 158.715149 
L 1755.535704 127.64076 
L 1764.981217 83.996163 
L 1774.42673 50.734998 
" style="fill:none;stroke:#2d1e3e;stroke-linecap:square;stroke-width:1.5;"/>
   </g>
   <g id="patch_15">
    <path d="M 1476.893064 330.239063 
L 1476.893064 36.839063 
" style="fill:none;stroke:#000000;stroke-linecap:square;stroke-linejoin:miter;stroke-width:0.8;"/>
   </g>
   <g id="patch_16">
    <path d="M 1476.893064 330.239063 
L 1788.595 330.239063 
" style="fill:none;stroke:#000000;stroke-linecap:square;stroke-linejoin:miter;stroke-width:0.8;"/>
   </g>
   <g id="text_75">
    <!-- loss = feat -->
    <defs>
     <path d="M 56.203125 29.59375 
L 56.203125 25.203125 
L 14.890625 25.203125 
Q 15.484375 15.921875 20.484375 11.0625 
Q 25.484375 6.203125 34.421875 6.203125 
Q 39.59375 6.203125 44.453125 7.46875 
Q 49.3125 8.734375 54.109375 11.28125 
L 54.109375 2.78125 
Q 49.265625 0.734375 44.1875 -0.34375 
Q 39.109375 -1.421875 33.890625 -1.421875 
Q 20.796875 -1.421875 13.15625 6.1875 
Q 5.515625 13.8125 5.515625 26.8125 
Q 5.515625 40.234375 12.765625 48.109375 
Q 20.015625 56 32.328125 56 
Q 43.359375 56 49.78125 48.890625 
Q 56.203125 41.796875 56.203125 29.59375 
z
M 47.21875 32.234375 
Q 47.125 39.59375 43.09375 43.984375 
Q 39.0625 48.390625 32.421875 48.390625 
Q 24.90625 48.390625 20.390625 44.140625 
Q 15.875 39.890625 15.1875 32.171875 
z
" id="DejaVuSans-101"/>
    </defs>
    <g transform="translate(1605.857313 30.839063)scale(0.1 -0.1)">
     <use xlink:href="#DejaVuSans-108"/>
     <use x="27.783203" xlink:href="#DejaVuSans-111"/>
     <use x="88.964844" xlink:href="#DejaVuSans-115"/>
     <use x="141.064453" xlink:href="#DejaVuSans-115"/>
     <use x="193.164062" xlink:href="#DejaVuSans-32"/>
     <use x="224.951172" xlink:href="#DejaVuSans-61"/>
     <use x="308.740234" xlink:href="#DejaVuSans-32"/>
     <use x="340.527344" xlink:href="#DejaVuSans-102"/>
     <use x="375.732422" xlink:href="#DejaVuSans-101"/>
     <use x="437.255859" xlink:href="#DejaVuSans-97"/>
     <use x="498.535156" xlink:href="#DejaVuSans-116"/>
    </g>
   </g>
  </g>
  <g id="text_76">
   <g id="patch_17">
    <path d="M 3.2 20.878125 
L 85.6 20.878125 
L 85.6 3.2 
L 3.2 3.2 
z
" style="fill:none;stroke:#8b0000;stroke-linejoin:miter;"/>
   </g>
   <!-- dataset = cora -->
   <g style="fill:#8b0000;" transform="translate(7.2 14.798437)scale(0.1 -0.1)">
    <use xlink:href="#DejaVuSans-100"/>
    <use x="63.476562" xlink:href="#DejaVuSans-97"/>
    <use x="124.755859" xlink:href="#DejaVuSans-116"/>
    <use x="163.964844" xlink:href="#DejaVuSans-97"/>
    <use x="225.244141" xlink:href="#DejaVuSans-115"/>
    <use x="277.34375" xlink:href="#DejaVuSans-101"/>
    <use x="338.867188" xlink:href="#DejaVuSans-116"/>
    <use x="378.076172" xlink:href="#DejaVuSans-32"/>
    <use x="409.863281" xlink:href="#DejaVuSans-61"/>
    <use x="493.652344" xlink:href="#DejaVuSans-32"/>
    <use x="525.439453" xlink:href="#DejaVuSans-99"/>
    <use x="580.419922" xlink:href="#DejaVuSans-111"/>
    <use x="641.601562" xlink:href="#DejaVuSans-114"/>
    <use x="682.714844" xlink:href="#DejaVuSans-97"/>
   </g>
  </g>
  <g id="legend_1">
   <g id="line2d_84">
    <path d="M 1808.45625 161.129688 
L 1828.45625 161.129688 
" style="fill:none;"/>
   </g>
   <g id="line2d_85"/>
   <g id="text_77">
    <!-- dimξ -->
    <defs>
     <path d="M 35.640625 6.203125 
Q 42.09375 6.15625 45.953125 2.484375 
Q 50.046875 -1.375 50.046875 -7.234375 
Q 50.046875 -12.84375 46.4375 -16.75 
Q 42.53125 -21 34.578125 -21 
Q 34.578125 -17.328125 34.578125 -13.625 
Q 37.9375 -13.875 39.984375 -11.71875 
Q 41.546875 -10.015625 41.546875 -8.203125 
Q 41.546875 -5.609375 39.984375 -3.46875 
Q 38.484375 -1.421875 35.640625 -1.421875 
Q 5.21875 -1.421875 5.21875 19.921875 
Q 5.21875 34.578125 21.484375 38.875 
Q 7.8125 40.625 7.8125 53.328125 
Q 7.8125 62.9375 18.5625 66.9375 
L 8.40625 66.9375 
L 8.40625 75.984375 
L 46.921875 75.984375 
L 46.921875 66.9375 
Q 16.21875 66.9375 16.21875 52.734375 
Q 16.21875 43.40625 42 42.96875 
L 42 34.671875 
Q 14.15625 35.75 14.265625 19.921875 
Q 14.3125 6.6875 35.640625 6.203125 
z
" id="DejaVuSans-958"/>
    </defs>
    <g transform="translate(1836.45625 164.629688)scale(0.1 -0.1)">
     <use xlink:href="#DejaVuSans-100"/>
     <use x="63.476562" xlink:href="#DejaVuSans-105"/>
     <use x="91.259766" xlink:href="#DejaVuSans-109"/>
     <use x="188.671875" xlink:href="#DejaVuSans-958"/>
    </g>
   </g>
   <g id="line2d_86">
    <path d="M 1808.45625 175.828125 
L 1828.45625 175.828125 
" style="fill:none;stroke:#edd1cb;stroke-linecap:square;stroke-width:1.5;"/>
   </g>
   <g id="line2d_87"/>
   <g id="text_78">
    <!-- 16 -->
    <g transform="translate(1836.45625 179.328125)scale(0.1 -0.1)">
     <use xlink:href="#DejaVuSans-49"/>
     <use x="63.623047" xlink:href="#DejaVuSans-54"/>
    </g>
   </g>
   <g id="line2d_88">
    <path d="M 1808.45625 190.50625 
L 1828.45625 190.50625 
" style="fill:none;stroke:#a9678f;stroke-linecap:square;stroke-width:1.5;"/>
   </g>
   <g id="line2d_89"/>
   <g id="text_79">
    <!-- 24 -->
    <g transform="translate(1836.45625 194.00625)scale(0.1 -0.1)">
     <use xlink:href="#DejaVuSans-50"/>
     <use x="63.623047" xlink:href="#DejaVuSans-52"/>
    </g>
   </g>
   <g id="line2d_90">
    <path d="M 1808.45625 205.184375 
L 1828.45625 205.184375 
" style="fill:none;stroke:#2d1e3e;stroke-linecap:square;stroke-width:1.5;"/>
   </g>
   <g id="line2d_91"/>
   <g id="text_80">
    <!-- 32 -->
    <g transform="translate(1836.45625 208.684375)scale(0.1 -0.1)">
     <use xlink:href="#DejaVuSans-51"/>
     <use x="63.623047" xlink:href="#DejaVuSans-50"/>
    </g>
   </g>
  </g>
 </g>
 <defs>
  <clipPath id="pf2b42feab8">
   <rect height="293.4" width="311.701936" x="56.47741" y="36.839063"/>
  </clipPath>
  <clipPath id="p182997f4de">
   <rect height="293.4" width="311.701936" x="411.581323" y="36.839063"/>
  </clipPath>
  <clipPath id="p0586bf7ce3">
   <rect height="293.4" width="311.701936" x="766.685237" y="36.839063"/>
  </clipPath>
  <clipPath id="pb48bac411d">
   <rect height="293.4" width="311.701936" x="1121.78915" y="36.839063"/>
  </clipPath>
  <clipPath id="p8298744309">
   <rect height="293.4" width="311.701936" x="1476.893064" y="36.839063"/>
  </clipPath>
 </defs>
</svg>
