<?xml version="1.0" encoding="utf-8" standalone="no"?>
<!DOCTYPE svg PUBLIC "-//W3C//DTD SVG 1.1//EN"
  "http://www.w3.org/Graphics/SVG/1.1/DTD/svg11.dtd">
<!-- Created with matplotlib (https://matplotlib.org/) -->
<svg height="367.795313pt" version="1.1" viewBox="0 0 1869.9 367.795313" width="1869.9pt" xmlns="http://www.w3.org/2000/svg" xmlns:xlink="http://www.w3.org/1999/xlink">
 <defs>
  <style type="text/css">
*{stroke-linecap:butt;stroke-linejoin:round;}
  </style>
 </defs>
 <g id="figure_1">
  <g id="patch_1">
   <path d="M 0 367.795313 
L 1869.9 367.795313 
L 1869.9 0 
L 0 0 
z
" style="fill:#ffffff;"/>
  </g>
  <g id="axes_1">
   <g id="patch_2">
    <path d="M 63.066681 330.239063 
L 373.45551 330.239063 
L 373.45551 36.839063 
L 63.066681 36.839063 
z
" style="fill:#ffffff;"/>
   </g>
   <g id="PolyCollection_1">
    <defs>
     <path d="M 213.558234 -217.420899 
L 213.558234 -153.925374 
L 222.963956 -155.759362 
L 222.963956 -213.588463 
L 222.963956 -213.588463 
L 213.558234 -217.420899 
z
" id="m5002dc38e5" style="stroke:#edd1cb;stroke-opacity:0.2;"/>
    </defs>
    <g clip-path="url(#p411d81d051)">
     <use style="fill:#edd1cb;fill-opacity:0.2;stroke:#edd1cb;stroke-opacity:0.2;" x="0" xlink:href="#m5002dc38e5" y="367.795313"/>
    </g>
   </g>
   <g id="PolyCollection_2">
    <defs>
     <path d="M 143.015318 -244.777459 
L 143.015318 -196.770614 
L 152.42104 -209.071632 
L 161.826763 -201.414653 
L 171.232485 -226.034271 
L 180.638207 -218.670114 
L 190.043929 -213.270652 
L 199.449651 -217.154317 
L 208.855373 -225.550092 
L 218.261095 -206.400735 
L 227.666817 -177.742833 
L 237.072539 -182.508225 
L 246.478261 -195.783867 
L 255.883984 -184.885919 
L 265.289706 -172.736506 
L 274.695428 -181.283138 
L 284.10115 -184.210737 
L 293.506872 -170.868063 
L 293.506872 -233.842762 
L 293.506872 -233.842762 
L 284.10115 -228.55544 
L 274.695428 -213.630824 
L 265.289706 -233.603697 
L 255.883984 -231.047365 
L 246.478261 -250.38896 
L 237.072539 -242.654569 
L 227.666817 -246.368009 
L 218.261095 -251.230117 
L 208.855373 -264.624717 
L 199.449651 -251.494143 
L 190.043929 -261.579043 
L 180.638207 -264.569258 
L 171.232485 -260.682615 
L 161.826763 -244.544778 
L 152.42104 -237.976887 
L 143.015318 -244.777459 
z
" id="mc89f7f3f59" style="stroke:#a9678f;stroke-opacity:0.2;"/>
    </defs>
    <g clip-path="url(#p411d81d051)">
     <use style="fill:#a9678f;fill-opacity:0.2;stroke:#a9678f;stroke-opacity:0.2;" x="0" xlink:href="#mc89f7f3f59" y="367.795313"/>
    </g>
   </g>
   <g id="PolyCollection_3">
    <defs>
     <path d="M 77.175264 -306.98328 
L 77.175264 -258.286231 
L 86.580986 -276.518077 
L 95.986708 -273.469057 
L 105.39243 -285.03707 
L 114.798152 -273.963331 
L 124.203874 -278.777018 
L 133.609596 -277.241801 
L 143.015318 -285.151923 
L 152.42104 -285.969088 
L 161.826763 -287.874951 
L 171.232485 -259.066897 
L 180.638207 -279.442553 
L 190.043929 -300.311375 
L 199.449651 -293.302732 
L 208.855373 -280.82602 
L 218.261095 -275.66302 
L 227.666817 -285.555939 
L 237.072539 -266.835988 
L 246.478261 -257.235509 
L 255.883984 -261.550125 
L 265.289706 -271.381167 
L 274.695428 -275.43492 
L 284.10115 -262.03934 
L 293.506872 -236.282411 
L 302.912594 -246.422714 
L 312.318316 -234.725663 
L 321.724038 -186.4457 
L 331.12976 -155.139687 
L 340.535482 -139.870289 
L 349.941205 -70.219798 
L 359.346927 -50.892614 
L 359.346927 -95.532115 
L 359.346927 -95.532115 
L 349.941205 -134.916358 
L 340.535482 -184.323589 
L 331.12976 -214.553681 
L 321.724038 -237.039526 
L 312.318316 -259.942957 
L 302.912594 -277.306714 
L 293.506872 -260.854413 
L 284.10115 -286.315167 
L 274.695428 -301.00625 
L 265.289706 -290.824725 
L 255.883984 -303.098946 
L 246.478261 -295.165004 
L 237.072539 -292.085371 
L 227.666817 -303.031508 
L 218.261095 -312.580975 
L 208.855373 -310.781563 
L 199.449651 -304.946781 
L 190.043929 -316.506186 
L 180.638207 -313.459852 
L 171.232485 -309.718693 
L 161.826763 -312.281201 
L 152.42104 -305.920129 
L 143.015318 -302.249617 
L 133.609596 -313.409543 
L 124.203874 -310.729065 
L 114.798152 -317.619886 
L 105.39243 -311.029129 
L 95.986708 -299.548143 
L 86.580986 -298.285008 
L 77.175264 -306.98328 
z
" id="m621e7834be" style="stroke:#2d1e3e;stroke-opacity:0.2;"/>
    </defs>
    <g clip-path="url(#p411d81d051)">
     <use style="fill:#2d1e3e;fill-opacity:0.2;stroke:#2d1e3e;stroke-opacity:0.2;" x="0" xlink:href="#m621e7834be" y="367.795313"/>
    </g>
   </g>
   <g id="matplotlib.axis_1">
    <g id="xtick_1">
     <g id="line2d_1">
      <defs>
       <path d="M 0 0 
L 0 3.5 
" id="md40de89b41" style="stroke:#000000;stroke-width:0.8;"/>
      </defs>
      <g>
       <use style="stroke:#000000;stroke-width:0.8;" x="77.175264" xlink:href="#md40de89b41" y="330.239063"/>
      </g>
     </g>
     <g id="text_1">
      <!-- −15 -->
      <defs>
       <path d="M 10.59375 35.5 
L 73.1875 35.5 
L 73.1875 27.203125 
L 10.59375 27.203125 
z
" id="DejaVuSans-8722"/>
       <path d="M 12.40625 8.296875 
L 28.515625 8.296875 
L 28.515625 63.921875 
L 10.984375 60.40625 
L 10.984375 69.390625 
L 28.421875 72.90625 
L 38.28125 72.90625 
L 38.28125 8.296875 
L 54.390625 8.296875 
L 54.390625 0 
L 12.40625 0 
z
" id="DejaVuSans-49"/>
       <path d="M 10.796875 72.90625 
L 49.515625 72.90625 
L 49.515625 64.59375 
L 19.828125 64.59375 
L 19.828125 46.734375 
Q 21.96875 47.46875 24.109375 47.828125 
Q 26.265625 48.1875 28.421875 48.1875 
Q 40.625 48.1875 47.75 41.5 
Q 54.890625 34.8125 54.890625 23.390625 
Q 54.890625 11.625 47.5625 5.09375 
Q 40.234375 -1.421875 26.90625 -1.421875 
Q 22.3125 -1.421875 17.546875 -0.640625 
Q 12.796875 0.140625 7.71875 1.703125 
L 7.71875 11.625 
Q 12.109375 9.234375 16.796875 8.0625 
Q 21.484375 6.890625 26.703125 6.890625 
Q 35.15625 6.890625 40.078125 11.328125 
Q 45.015625 15.765625 45.015625 23.390625 
Q 45.015625 31 40.078125 35.4375 
Q 35.15625 39.890625 26.703125 39.890625 
Q 22.75 39.890625 18.8125 39.015625 
Q 14.890625 38.140625 10.796875 36.28125 
z
" id="DejaVuSans-53"/>
      </defs>
      <g transform="translate(66.62292 344.8375)scale(0.1 -0.1)">
       <use xlink:href="#DejaVuSans-8722"/>
       <use x="83.789062" xlink:href="#DejaVuSans-49"/>
       <use x="147.412109" xlink:href="#DejaVuSans-53"/>
      </g>
     </g>
    </g>
    <g id="xtick_2">
     <g id="line2d_2">
      <g>
       <use style="stroke:#000000;stroke-width:0.8;" x="124.203874" xlink:href="#md40de89b41" y="330.239063"/>
      </g>
     </g>
     <g id="text_2">
      <!-- −10 -->
      <defs>
       <path d="M 31.78125 66.40625 
Q 24.171875 66.40625 20.328125 58.90625 
Q 16.5 51.421875 16.5 36.375 
Q 16.5 21.390625 20.328125 13.890625 
Q 24.171875 6.390625 31.78125 6.390625 
Q 39.453125 6.390625 43.28125 13.890625 
Q 47.125 21.390625 47.125 36.375 
Q 47.125 51.421875 43.28125 58.90625 
Q 39.453125 66.40625 31.78125 66.40625 
z
M 31.78125 74.21875 
Q 44.046875 74.21875 50.515625 64.515625 
Q 56.984375 54.828125 56.984375 36.375 
Q 56.984375 17.96875 50.515625 8.265625 
Q 44.046875 -1.421875 31.78125 -1.421875 
Q 19.53125 -1.421875 13.0625 8.265625 
Q 6.59375 17.96875 6.59375 36.375 
Q 6.59375 54.828125 13.0625 64.515625 
Q 19.53125 74.21875 31.78125 74.21875 
z
" id="DejaVuSans-48"/>
      </defs>
      <g transform="translate(113.65153 344.8375)scale(0.1 -0.1)">
       <use xlink:href="#DejaVuSans-8722"/>
       <use x="83.789062" xlink:href="#DejaVuSans-49"/>
       <use x="147.412109" xlink:href="#DejaVuSans-48"/>
      </g>
     </g>
    </g>
    <g id="xtick_3">
     <g id="line2d_3">
      <g>
       <use style="stroke:#000000;stroke-width:0.8;" x="171.232485" xlink:href="#md40de89b41" y="330.239063"/>
      </g>
     </g>
     <g id="text_3">
      <!-- −5 -->
      <g transform="translate(163.861391 344.8375)scale(0.1 -0.1)">
       <use xlink:href="#DejaVuSans-8722"/>
       <use x="83.789062" xlink:href="#DejaVuSans-53"/>
      </g>
     </g>
    </g>
    <g id="xtick_4">
     <g id="line2d_4">
      <g>
       <use style="stroke:#000000;stroke-width:0.8;" x="218.261095" xlink:href="#md40de89b41" y="330.239063"/>
      </g>
     </g>
     <g id="text_4">
      <!-- 0 -->
      <g transform="translate(215.079845 344.8375)scale(0.1 -0.1)">
       <use xlink:href="#DejaVuSans-48"/>
      </g>
     </g>
    </g>
    <g id="xtick_5">
     <g id="line2d_5">
      <g>
       <use style="stroke:#000000;stroke-width:0.8;" x="265.289706" xlink:href="#md40de89b41" y="330.239063"/>
      </g>
     </g>
     <g id="text_5">
      <!-- 5 -->
      <g transform="translate(262.108456 344.8375)scale(0.1 -0.1)">
       <use xlink:href="#DejaVuSans-53"/>
      </g>
     </g>
    </g>
    <g id="xtick_6">
     <g id="line2d_6">
      <g>
       <use style="stroke:#000000;stroke-width:0.8;" x="312.318316" xlink:href="#md40de89b41" y="330.239063"/>
      </g>
     </g>
     <g id="text_6">
      <!-- 10 -->
      <g transform="translate(305.955816 344.8375)scale(0.1 -0.1)">
       <use xlink:href="#DejaVuSans-49"/>
       <use x="63.623047" xlink:href="#DejaVuSans-48"/>
      </g>
     </g>
    </g>
    <g id="xtick_7">
     <g id="line2d_7">
      <g>
       <use style="stroke:#000000;stroke-width:0.8;" x="359.346927" xlink:href="#md40de89b41" y="330.239063"/>
      </g>
     </g>
     <g id="text_7">
      <!-- 15 -->
      <g transform="translate(352.984427 344.8375)scale(0.1 -0.1)">
       <use xlink:href="#DejaVuSans-49"/>
       <use x="63.623047" xlink:href="#DejaVuSans-53"/>
      </g>
     </g>
    </g>
    <g id="text_8">
     <!-- spill -->
     <defs>
      <path d="M 44.28125 53.078125 
L 44.28125 44.578125 
Q 40.484375 46.53125 36.375 47.5 
Q 32.28125 48.484375 27.875 48.484375 
Q 21.1875 48.484375 17.84375 46.4375 
Q 14.5 44.390625 14.5 40.28125 
Q 14.5 37.15625 16.890625 35.375 
Q 19.28125 33.59375 26.515625 31.984375 
L 29.59375 31.296875 
Q 39.15625 29.25 43.1875 25.515625 
Q 47.21875 21.78125 47.21875 15.09375 
Q 47.21875 7.46875 41.1875 3.015625 
Q 35.15625 -1.421875 24.609375 -1.421875 
Q 20.21875 -1.421875 15.453125 -0.5625 
Q 10.6875 0.296875 5.421875 2 
L 5.421875 11.28125 
Q 10.40625 8.6875 15.234375 7.390625 
Q 20.0625 6.109375 24.8125 6.109375 
Q 31.15625 6.109375 34.5625 8.28125 
Q 37.984375 10.453125 37.984375 14.40625 
Q 37.984375 18.0625 35.515625 20.015625 
Q 33.0625 21.96875 24.703125 23.78125 
L 21.578125 24.515625 
Q 13.234375 26.265625 9.515625 29.90625 
Q 5.8125 33.546875 5.8125 39.890625 
Q 5.8125 47.609375 11.28125 51.796875 
Q 16.75 56 26.8125 56 
Q 31.78125 56 36.171875 55.265625 
Q 40.578125 54.546875 44.28125 53.078125 
z
" id="DejaVuSans-115"/>
      <path d="M 18.109375 8.203125 
L 18.109375 -20.796875 
L 9.078125 -20.796875 
L 9.078125 54.6875 
L 18.109375 54.6875 
L 18.109375 46.390625 
Q 20.953125 51.265625 25.265625 53.625 
Q 29.59375 56 35.59375 56 
Q 45.5625 56 51.78125 48.09375 
Q 58.015625 40.1875 58.015625 27.296875 
Q 58.015625 14.40625 51.78125 6.484375 
Q 45.5625 -1.421875 35.59375 -1.421875 
Q 29.59375 -1.421875 25.265625 0.953125 
Q 20.953125 3.328125 18.109375 8.203125 
z
M 48.6875 27.296875 
Q 48.6875 37.203125 44.609375 42.84375 
Q 40.53125 48.484375 33.40625 48.484375 
Q 26.265625 48.484375 22.1875 42.84375 
Q 18.109375 37.203125 18.109375 27.296875 
Q 18.109375 17.390625 22.1875 11.75 
Q 26.265625 6.109375 33.40625 6.109375 
Q 40.53125 6.109375 44.609375 11.75 
Q 48.6875 17.390625 48.6875 27.296875 
z
" id="DejaVuSans-112"/>
      <path d="M 9.421875 54.6875 
L 18.40625 54.6875 
L 18.40625 0 
L 9.421875 0 
z
M 9.421875 75.984375 
L 18.40625 75.984375 
L 18.40625 64.59375 
L 9.421875 64.59375 
z
" id="DejaVuSans-105"/>
      <path d="M 9.421875 75.984375 
L 18.40625 75.984375 
L 18.40625 0 
L 9.421875 0 
z
" id="DejaVuSans-108"/>
     </defs>
     <g transform="translate(208.315001 358.515625)scale(0.1 -0.1)">
      <use xlink:href="#DejaVuSans-115"/>
      <use x="52.099609" xlink:href="#DejaVuSans-112"/>
      <use x="115.576172" xlink:href="#DejaVuSans-105"/>
      <use x="143.359375" xlink:href="#DejaVuSans-108"/>
      <use x="171.142578" xlink:href="#DejaVuSans-108"/>
     </g>
    </g>
   </g>
   <g id="matplotlib.axis_2">
    <g id="ytick_1">
     <g id="line2d_8">
      <defs>
       <path d="M 0 0 
L -3.5 0 
" id="m9654e74045" style="stroke:#000000;stroke-width:0.8;"/>
      </defs>
      <g>
       <use style="stroke:#000000;stroke-width:0.8;" x="63.066681" xlink:href="#m9654e74045" y="329.876806"/>
      </g>
     </g>
     <g id="text_9">
      <!-- 0.30 -->
      <defs>
       <path d="M 10.6875 12.40625 
L 21 12.40625 
L 21 0 
L 10.6875 0 
z
" id="DejaVuSans-46"/>
       <path d="M 40.578125 39.3125 
Q 47.65625 37.796875 51.625 33 
Q 55.609375 28.21875 55.609375 21.1875 
Q 55.609375 10.40625 48.1875 4.484375 
Q 40.765625 -1.421875 27.09375 -1.421875 
Q 22.515625 -1.421875 17.65625 -0.515625 
Q 12.796875 0.390625 7.625 2.203125 
L 7.625 11.71875 
Q 11.71875 9.328125 16.59375 8.109375 
Q 21.484375 6.890625 26.8125 6.890625 
Q 36.078125 6.890625 40.9375 10.546875 
Q 45.796875 14.203125 45.796875 21.1875 
Q 45.796875 27.640625 41.28125 31.265625 
Q 36.765625 34.90625 28.71875 34.90625 
L 20.21875 34.90625 
L 20.21875 43.015625 
L 29.109375 43.015625 
Q 36.375 43.015625 40.234375 45.921875 
Q 44.09375 48.828125 44.09375 54.296875 
Q 44.09375 59.90625 40.109375 62.90625 
Q 36.140625 65.921875 28.71875 65.921875 
Q 24.65625 65.921875 20.015625 65.03125 
Q 15.375 64.15625 9.8125 62.3125 
L 9.8125 71.09375 
Q 15.4375 72.65625 20.34375 73.4375 
Q 25.25 74.21875 29.59375 74.21875 
Q 40.828125 74.21875 47.359375 69.109375 
Q 53.90625 64.015625 53.90625 55.328125 
Q 53.90625 49.265625 50.4375 45.09375 
Q 46.96875 40.921875 40.578125 39.3125 
z
" id="DejaVuSans-51"/>
      </defs>
      <g transform="translate(33.801056 333.676025)scale(0.1 -0.1)">
       <use xlink:href="#DejaVuSans-48"/>
       <use x="63.623047" xlink:href="#DejaVuSans-46"/>
       <use x="95.410156" xlink:href="#DejaVuSans-51"/>
       <use x="159.033203" xlink:href="#DejaVuSans-48"/>
      </g>
     </g>
    </g>
    <g id="ytick_2">
     <g id="line2d_9">
      <g>
       <use style="stroke:#000000;stroke-width:0.8;" x="63.066681" xlink:href="#m9654e74045" y="281.005789"/>
      </g>
     </g>
     <g id="text_10">
      <!-- 0.35 -->
      <g transform="translate(33.801056 284.805007)scale(0.1 -0.1)">
       <use xlink:href="#DejaVuSans-48"/>
       <use x="63.623047" xlink:href="#DejaVuSans-46"/>
       <use x="95.410156" xlink:href="#DejaVuSans-51"/>
       <use x="159.033203" xlink:href="#DejaVuSans-53"/>
      </g>
     </g>
    </g>
    <g id="ytick_3">
     <g id="line2d_10">
      <g>
       <use style="stroke:#000000;stroke-width:0.8;" x="63.066681" xlink:href="#m9654e74045" y="232.134771"/>
      </g>
     </g>
     <g id="text_11">
      <!-- 0.40 -->
      <defs>
       <path d="M 37.796875 64.3125 
L 12.890625 25.390625 
L 37.796875 25.390625 
z
M 35.203125 72.90625 
L 47.609375 72.90625 
L 47.609375 25.390625 
L 58.015625 25.390625 
L 58.015625 17.1875 
L 47.609375 17.1875 
L 47.609375 0 
L 37.796875 0 
L 37.796875 17.1875 
L 4.890625 17.1875 
L 4.890625 26.703125 
z
" id="DejaVuSans-52"/>
      </defs>
      <g transform="translate(33.801056 235.93399)scale(0.1 -0.1)">
       <use xlink:href="#DejaVuSans-48"/>
       <use x="63.623047" xlink:href="#DejaVuSans-46"/>
       <use x="95.410156" xlink:href="#DejaVuSans-52"/>
       <use x="159.033203" xlink:href="#DejaVuSans-48"/>
      </g>
     </g>
    </g>
    <g id="ytick_4">
     <g id="line2d_11">
      <g>
       <use style="stroke:#000000;stroke-width:0.8;" x="63.066681" xlink:href="#m9654e74045" y="183.263753"/>
      </g>
     </g>
     <g id="text_12">
      <!-- 0.45 -->
      <g transform="translate(33.801056 187.062972)scale(0.1 -0.1)">
       <use xlink:href="#DejaVuSans-48"/>
       <use x="63.623047" xlink:href="#DejaVuSans-46"/>
       <use x="95.410156" xlink:href="#DejaVuSans-52"/>
       <use x="159.033203" xlink:href="#DejaVuSans-53"/>
      </g>
     </g>
    </g>
    <g id="ytick_5">
     <g id="line2d_12">
      <g>
       <use style="stroke:#000000;stroke-width:0.8;" x="63.066681" xlink:href="#m9654e74045" y="134.392736"/>
      </g>
     </g>
     <g id="text_13">
      <!-- 0.50 -->
      <g transform="translate(33.801056 138.191955)scale(0.1 -0.1)">
       <use xlink:href="#DejaVuSans-48"/>
       <use x="63.623047" xlink:href="#DejaVuSans-46"/>
       <use x="95.410156" xlink:href="#DejaVuSans-53"/>
       <use x="159.033203" xlink:href="#DejaVuSans-48"/>
      </g>
     </g>
    </g>
    <g id="ytick_6">
     <g id="line2d_13">
      <g>
       <use style="stroke:#000000;stroke-width:0.8;" x="63.066681" xlink:href="#m9654e74045" y="85.521718"/>
      </g>
     </g>
     <g id="text_14">
      <!-- 0.55 -->
      <g transform="translate(33.801056 89.320937)scale(0.1 -0.1)">
       <use xlink:href="#DejaVuSans-48"/>
       <use x="63.623047" xlink:href="#DejaVuSans-46"/>
       <use x="95.410156" xlink:href="#DejaVuSans-53"/>
       <use x="159.033203" xlink:href="#DejaVuSans-53"/>
      </g>
     </g>
    </g>
    <g id="ytick_7">
     <g id="line2d_14">
      <g>
       <use style="stroke:#000000;stroke-width:0.8;" x="63.066681" xlink:href="#m9654e74045" y="36.650701"/>
      </g>
     </g>
     <g id="text_15">
      <!-- 0.60 -->
      <defs>
       <path d="M 33.015625 40.375 
Q 26.375 40.375 22.484375 35.828125 
Q 18.609375 31.296875 18.609375 23.390625 
Q 18.609375 15.53125 22.484375 10.953125 
Q 26.375 6.390625 33.015625 6.390625 
Q 39.65625 6.390625 43.53125 10.953125 
Q 47.40625 15.53125 47.40625 23.390625 
Q 47.40625 31.296875 43.53125 35.828125 
Q 39.65625 40.375 33.015625 40.375 
z
M 52.59375 71.296875 
L 52.59375 62.3125 
Q 48.875 64.0625 45.09375 64.984375 
Q 41.3125 65.921875 37.59375 65.921875 
Q 27.828125 65.921875 22.671875 59.328125 
Q 17.53125 52.734375 16.796875 39.40625 
Q 19.671875 43.65625 24.015625 45.921875 
Q 28.375 48.1875 33.59375 48.1875 
Q 44.578125 48.1875 50.953125 41.515625 
Q 57.328125 34.859375 57.328125 23.390625 
Q 57.328125 12.15625 50.6875 5.359375 
Q 44.046875 -1.421875 33.015625 -1.421875 
Q 20.359375 -1.421875 13.671875 8.265625 
Q 6.984375 17.96875 6.984375 36.375 
Q 6.984375 53.65625 15.1875 63.9375 
Q 23.390625 74.21875 37.203125 74.21875 
Q 40.921875 74.21875 44.703125 73.484375 
Q 48.484375 72.75 52.59375 71.296875 
z
" id="DejaVuSans-54"/>
      </defs>
      <g transform="translate(33.801056 40.449919)scale(0.1 -0.1)">
       <use xlink:href="#DejaVuSans-48"/>
       <use x="63.623047" xlink:href="#DejaVuSans-46"/>
       <use x="95.410156" xlink:href="#DejaVuSans-54"/>
       <use x="159.033203" xlink:href="#DejaVuSans-48"/>
      </g>
     </g>
    </g>
    <g id="text_16">
     <!-- last -->
     <defs>
      <path d="M 34.28125 27.484375 
Q 23.390625 27.484375 19.1875 25 
Q 14.984375 22.515625 14.984375 16.5 
Q 14.984375 11.71875 18.140625 8.90625 
Q 21.296875 6.109375 26.703125 6.109375 
Q 34.1875 6.109375 38.703125 11.40625 
Q 43.21875 16.703125 43.21875 25.484375 
L 43.21875 27.484375 
z
M 52.203125 31.203125 
L 52.203125 0 
L 43.21875 0 
L 43.21875 8.296875 
Q 40.140625 3.328125 35.546875 0.953125 
Q 30.953125 -1.421875 24.3125 -1.421875 
Q 15.921875 -1.421875 10.953125 3.296875 
Q 6 8.015625 6 15.921875 
Q 6 25.140625 12.171875 29.828125 
Q 18.359375 34.515625 30.609375 34.515625 
L 43.21875 34.515625 
L 43.21875 35.40625 
Q 43.21875 41.609375 39.140625 45 
Q 35.0625 48.390625 27.6875 48.390625 
Q 23 48.390625 18.546875 47.265625 
Q 14.109375 46.140625 10.015625 43.890625 
L 10.015625 52.203125 
Q 14.9375 54.109375 19.578125 55.046875 
Q 24.21875 56 28.609375 56 
Q 40.484375 56 46.34375 49.84375 
Q 52.203125 43.703125 52.203125 31.203125 
z
" id="DejaVuSans-97"/>
      <path d="M 18.3125 70.21875 
L 18.3125 54.6875 
L 36.8125 54.6875 
L 36.8125 47.703125 
L 18.3125 47.703125 
L 18.3125 18.015625 
Q 18.3125 11.328125 20.140625 9.421875 
Q 21.96875 7.515625 27.59375 7.515625 
L 36.8125 7.515625 
L 36.8125 0 
L 27.59375 0 
Q 17.1875 0 13.234375 3.875 
Q 9.28125 7.765625 9.28125 18.015625 
L 9.28125 47.703125 
L 2.6875 47.703125 
L 2.6875 54.6875 
L 9.28125 54.6875 
L 9.28125 70.21875 
z
" id="DejaVuSans-116"/>
     </defs>
     <g transform="translate(27.721368 192.557031)rotate(-90)scale(0.1 -0.1)">
      <use xlink:href="#DejaVuSans-108"/>
      <use x="27.783203" xlink:href="#DejaVuSans-97"/>
      <use x="89.0625" xlink:href="#DejaVuSans-115"/>
      <use x="141.162109" xlink:href="#DejaVuSans-116"/>
     </g>
    </g>
   </g>
   <g id="line2d_15">
    <path clip-path="url(#p411d81d051)" d="M 213.558234 183.499599 
L 222.963956 183.499599 
" style="fill:none;stroke:#edd1cb;stroke-linecap:square;stroke-width:1.5;"/>
   </g>
   <g id="line2d_16">
    <path clip-path="url(#p411d81d051)" d="M 143.015318 147.131307 
L 152.42104 146.785918 
L 161.826763 144.743077 
L 171.232485 123.076109 
L 180.638207 124.351399 
L 190.043929 131.084328 
L 199.449651 133.99994 
L 208.855373 123.824742 
L 218.261095 136.3308 
L 227.666817 155.808503 
L 237.072539 153.80952 
L 246.478261 142.125469 
L 255.883984 160.327244 
L 265.289706 165.158981 
L 274.695428 170.737071 
L 284.10115 162.983983 
L 293.506872 166.0324 
" style="fill:none;stroke:#a9678f;stroke-linecap:square;stroke-width:1.5;"/>
   </g>
   <g id="line2d_17">
    <path clip-path="url(#p411d81d051)" d="M 77.175264 84.82585 
L 86.580986 80.088225 
L 95.986708 81.773327 
L 105.39243 70.110615 
L 114.798152 71.938199 
L 124.203874 74.06082 
L 133.609596 71.801965 
L 143.015318 74.174649 
L 152.42104 71.809082 
L 161.826763 68.840747 
L 171.232485 78.90322 
L 180.638207 71.649028 
L 190.043929 59.978306 
L 199.449651 68.585926 
L 208.855373 73.007312 
L 218.261095 73.809274 
L 227.666817 73.80296 
L 237.072539 87.238584 
L 246.478261 89.896595 
L 255.883984 84.229162 
L 265.289706 87.251087 
L 274.695428 79.890124 
L 284.10115 93.758445 
L 293.506872 117.733445 
L 302.912594 106.128546 
L 312.318316 120.68324 
L 321.724038 154.270986 
L 331.12976 182.751772 
L 340.535482 204.203817 
L 349.941205 265.342708 
L 359.346927 297.234677 
" style="fill:none;stroke:#2d1e3e;stroke-linecap:square;stroke-width:1.5;"/>
   </g>
   <g id="line2d_18"/>
   <g id="line2d_19"/>
   <g id="line2d_20"/>
   <g id="line2d_21"/>
   <g id="patch_3">
    <path d="M 63.066681 330.239063 
L 63.066681 36.839063 
" style="fill:none;stroke:#000000;stroke-linecap:square;stroke-linejoin:miter;stroke-width:0.8;"/>
   </g>
   <g id="patch_4">
    <path d="M 63.066681 330.239063 
L 373.45551 330.239063 
" style="fill:none;stroke:#000000;stroke-linecap:square;stroke-linejoin:miter;stroke-width:0.8;"/>
   </g>
   <g id="text_17">
    <!-- loss = f1macro -->
    <defs>
     <path d="M 30.609375 48.390625 
Q 23.390625 48.390625 19.1875 42.75 
Q 14.984375 37.109375 14.984375 27.296875 
Q 14.984375 17.484375 19.15625 11.84375 
Q 23.34375 6.203125 30.609375 6.203125 
Q 37.796875 6.203125 41.984375 11.859375 
Q 46.1875 17.53125 46.1875 27.296875 
Q 46.1875 37.015625 41.984375 42.703125 
Q 37.796875 48.390625 30.609375 48.390625 
z
M 30.609375 56 
Q 42.328125 56 49.015625 48.375 
Q 55.71875 40.765625 55.71875 27.296875 
Q 55.71875 13.875 49.015625 6.21875 
Q 42.328125 -1.421875 30.609375 -1.421875 
Q 18.84375 -1.421875 12.171875 6.21875 
Q 5.515625 13.875 5.515625 27.296875 
Q 5.515625 40.765625 12.171875 48.375 
Q 18.84375 56 30.609375 56 
z
" id="DejaVuSans-111"/>
     <path id="DejaVuSans-32"/>
     <path d="M 10.59375 45.40625 
L 73.1875 45.40625 
L 73.1875 37.203125 
L 10.59375 37.203125 
z
M 10.59375 25.484375 
L 73.1875 25.484375 
L 73.1875 17.1875 
L 10.59375 17.1875 
z
" id="DejaVuSans-61"/>
     <path d="M 37.109375 75.984375 
L 37.109375 68.5 
L 28.515625 68.5 
Q 23.6875 68.5 21.796875 66.546875 
Q 19.921875 64.59375 19.921875 59.515625 
L 19.921875 54.6875 
L 34.71875 54.6875 
L 34.71875 47.703125 
L 19.921875 47.703125 
L 19.921875 0 
L 10.890625 0 
L 10.890625 47.703125 
L 2.296875 47.703125 
L 2.296875 54.6875 
L 10.890625 54.6875 
L 10.890625 58.5 
Q 10.890625 67.625 15.140625 71.796875 
Q 19.390625 75.984375 28.609375 75.984375 
z
" id="DejaVuSans-102"/>
     <path d="M 52 44.1875 
Q 55.375 50.25 60.0625 53.125 
Q 64.75 56 71.09375 56 
Q 79.640625 56 84.28125 50.015625 
Q 88.921875 44.046875 88.921875 33.015625 
L 88.921875 0 
L 79.890625 0 
L 79.890625 32.71875 
Q 79.890625 40.578125 77.09375 44.375 
Q 74.3125 48.1875 68.609375 48.1875 
Q 61.625 48.1875 57.5625 43.546875 
Q 53.515625 38.921875 53.515625 30.90625 
L 53.515625 0 
L 44.484375 0 
L 44.484375 32.71875 
Q 44.484375 40.625 41.703125 44.40625 
Q 38.921875 48.1875 33.109375 48.1875 
Q 26.21875 48.1875 22.15625 43.53125 
Q 18.109375 38.875 18.109375 30.90625 
L 18.109375 0 
L 9.078125 0 
L 9.078125 54.6875 
L 18.109375 54.6875 
L 18.109375 46.1875 
Q 21.1875 51.21875 25.484375 53.609375 
Q 29.78125 56 35.6875 56 
Q 41.65625 56 45.828125 52.96875 
Q 50 49.953125 52 44.1875 
z
" id="DejaVuSans-109"/>
     <path d="M 48.78125 52.59375 
L 48.78125 44.1875 
Q 44.96875 46.296875 41.140625 47.34375 
Q 37.3125 48.390625 33.40625 48.390625 
Q 24.65625 48.390625 19.8125 42.84375 
Q 14.984375 37.3125 14.984375 27.296875 
Q 14.984375 17.28125 19.8125 11.734375 
Q 24.65625 6.203125 33.40625 6.203125 
Q 37.3125 6.203125 41.140625 7.25 
Q 44.96875 8.296875 48.78125 10.40625 
L 48.78125 2.09375 
Q 45.015625 0.34375 40.984375 -0.53125 
Q 36.96875 -1.421875 32.421875 -1.421875 
Q 20.0625 -1.421875 12.78125 6.34375 
Q 5.515625 14.109375 5.515625 27.296875 
Q 5.515625 40.671875 12.859375 48.328125 
Q 20.21875 56 33.015625 56 
Q 37.15625 56 41.109375 55.140625 
Q 45.0625 54.296875 48.78125 52.59375 
z
" id="DejaVuSans-99"/>
     <path d="M 41.109375 46.296875 
Q 39.59375 47.171875 37.8125 47.578125 
Q 36.03125 48 33.890625 48 
Q 26.265625 48 22.1875 43.046875 
Q 18.109375 38.09375 18.109375 28.8125 
L 18.109375 0 
L 9.078125 0 
L 9.078125 54.6875 
L 18.109375 54.6875 
L 18.109375 46.1875 
Q 20.953125 51.171875 25.484375 53.578125 
Q 30.03125 56 36.53125 56 
Q 37.453125 56 38.578125 55.875 
Q 39.703125 55.765625 41.0625 55.515625 
z
" id="DejaVuSans-114"/>
    </defs>
    <g transform="translate(180.497033 30.839063)scale(0.1 -0.1)">
     <use xlink:href="#DejaVuSans-108"/>
     <use x="27.783203" xlink:href="#DejaVuSans-111"/>
     <use x="88.964844" xlink:href="#DejaVuSans-115"/>
     <use x="141.064453" xlink:href="#DejaVuSans-115"/>
     <use x="193.164062" xlink:href="#DejaVuSans-32"/>
     <use x="224.951172" xlink:href="#DejaVuSans-61"/>
     <use x="308.740234" xlink:href="#DejaVuSans-32"/>
     <use x="340.527344" xlink:href="#DejaVuSans-102"/>
     <use x="375.732422" xlink:href="#DejaVuSans-49"/>
     <use x="439.355469" xlink:href="#DejaVuSans-109"/>
     <use x="536.767578" xlink:href="#DejaVuSans-97"/>
     <use x="598.046875" xlink:href="#DejaVuSans-99"/>
     <use x="653.027344" xlink:href="#DejaVuSans-114"/>
     <use x="694.109375" xlink:href="#DejaVuSans-111"/>
    </g>
   </g>
  </g>
  <g id="axes_2">
   <g id="patch_5">
    <path d="M 416.851553 330.239063 
L 727.240382 330.239063 
L 727.240382 36.839063 
L 416.851553 36.839063 
z
" style="fill:#ffffff;"/>
   </g>
   <g id="PolyCollection_4">
    <defs>
     <path d="M 567.343107 -214.107098 
L 567.343107 -153.453535 
L 576.748829 -151.92285 
L 576.748829 -211.825406 
L 576.748829 -211.825406 
L 567.343107 -214.107098 
z
" id="mc4a67628fe" style="stroke:#edd1cb;stroke-opacity:0.2;"/>
    </defs>
    <g clip-path="url(#p9c1bcfd4c3)">
     <use style="fill:#edd1cb;fill-opacity:0.2;stroke:#edd1cb;stroke-opacity:0.2;" x="0" xlink:href="#mc4a67628fe" y="367.795313"/>
    </g>
   </g>
   <g id="PolyCollection_5">
    <defs>
     <path d="M 496.800191 -242.429601 
L 496.800191 -198.417525 
L 506.205913 -208.940996 
L 515.611635 -194.385096 
L 525.017357 -222.516287 
L 534.423079 -213.336951 
L 543.828801 -207.984335 
L 553.234524 -213.719619 
L 562.640246 -224.817114 
L 572.045968 -205.688293 
L 581.45169 -185.779768 
L 590.857412 -178.518567 
L 600.263134 -194.590793 
L 609.668856 -189.042062 
L 619.074578 -173.156368 
L 628.4803 -184.249087 
L 637.886022 -186.554685 
L 647.291745 -175.256282 
L 647.291745 -231.145547 
L 647.291745 -231.145547 
L 637.886022 -229.997542 
L 628.4803 -214.111868 
L 619.074578 -238.043226 
L 609.668856 -233.824254 
L 600.263134 -250.65704 
L 590.857412 -239.942231 
L 581.45169 -252.756953 
L 572.045968 -249.504253 
L 562.640246 -263.854465 
L 553.234524 -246.830343 
L 543.828801 -263.285242 
L 534.423079 -263.471791 
L 525.017357 -259.458501 
L 515.611635 -242.616142 
L 506.205913 -238.980752 
L 496.800191 -242.429601 
z
" id="m3ae99accc4" style="stroke:#a9678f;stroke-opacity:0.2;"/>
    </defs>
    <g clip-path="url(#p9c1bcfd4c3)">
     <use style="fill:#a9678f;fill-opacity:0.2;stroke:#a9678f;stroke-opacity:0.2;" x="0" xlink:href="#m3ae99accc4" y="367.795313"/>
    </g>
   </g>
   <g id="PolyCollection_6">
    <defs>
     <path d="M 430.960136 -307.670407 
L 430.960136 -255.048209 
L 440.365858 -276.477845 
L 449.77158 -267.676413 
L 459.177303 -287.388795 
L 468.583025 -273.995251 
L 477.988747 -272.655919 
L 487.394469 -276.099961 
L 496.800191 -285.858112 
L 506.205913 -283.179396 
L 515.611635 -284.705302 
L 525.017357 -269.59453 
L 534.423079 -278.577776 
L 543.828801 -300.399659 
L 553.234524 -291.784739 
L 562.640246 -281.266037 
L 572.045968 -271.498342 
L 581.45169 -282.026594 
L 590.857412 -273.225127 
L 600.263134 -257.540361 
L 609.668856 -262.515115 
L 619.074578 -268.829206 
L 628.4803 -274.947163 
L 637.886022 -259.453751 
L 647.291745 -241.085461 
L 656.697467 -242.037356 
L 666.103189 -232.85801 
L 675.508911 -187.123906 
L 684.914633 -158.806155 
L 694.320355 -132.588343 
L 703.726077 -75.76631 
L 713.131799 -50.892614 
L 713.131799 -90.312631 
L 713.131799 -90.312631 
L 703.726077 -136.620747 
L 694.320355 -177.18401 
L 684.914633 -220.071973 
L 675.508911 -236.302065 
L 666.103189 -262.14198 
L 656.697467 -281.275621 
L 647.291745 -265.581252 
L 637.886022 -284.906208 
L 628.4803 -303.47059 
L 619.074578 -291.406859 
L 609.668856 -307.483869 
L 600.263134 -298.491073 
L 590.857412 -295.042204 
L 581.45169 -296.76905 
L 572.045968 -310.731806 
L 562.640246 -309.583777 
L 553.234524 -305.757062 
L 543.828801 -317.619886 
L 534.423079 -314.749836 
L 525.017357 -312.463388 
L 515.611635 -308.057857 
L 506.205913 -308.053101 
L 496.800191 -306.33106 
L 487.394469 -313.994074 
L 477.988747 -311.114461 
L 468.583025 -314.941179 
L 459.177303 -312.64515 
L 449.77158 -297.720949 
L 440.365858 -302.887009 
L 430.960136 -307.670407 
z
" id="mf1d7e9ea1d" style="stroke:#2d1e3e;stroke-opacity:0.2;"/>
    </defs>
    <g clip-path="url(#p9c1bcfd4c3)">
     <use style="fill:#2d1e3e;fill-opacity:0.2;stroke:#2d1e3e;stroke-opacity:0.2;" x="0" xlink:href="#mf1d7e9ea1d" y="367.795313"/>
    </g>
   </g>
   <g id="matplotlib.axis_3">
    <g id="xtick_8">
     <g id="line2d_22">
      <g>
       <use style="stroke:#000000;stroke-width:0.8;" x="430.960136" xlink:href="#md40de89b41" y="330.239063"/>
      </g>
     </g>
     <g id="text_18">
      <!-- −15 -->
      <g transform="translate(420.407792 344.8375)scale(0.1 -0.1)">
       <use xlink:href="#DejaVuSans-8722"/>
       <use x="83.789062" xlink:href="#DejaVuSans-49"/>
       <use x="147.412109" xlink:href="#DejaVuSans-53"/>
      </g>
     </g>
    </g>
    <g id="xtick_9">
     <g id="line2d_23">
      <g>
       <use style="stroke:#000000;stroke-width:0.8;" x="477.988747" xlink:href="#md40de89b41" y="330.239063"/>
      </g>
     </g>
     <g id="text_19">
      <!-- −10 -->
      <g transform="translate(467.436403 344.8375)scale(0.1 -0.1)">
       <use xlink:href="#DejaVuSans-8722"/>
       <use x="83.789062" xlink:href="#DejaVuSans-49"/>
       <use x="147.412109" xlink:href="#DejaVuSans-48"/>
      </g>
     </g>
    </g>
    <g id="xtick_10">
     <g id="line2d_24">
      <g>
       <use style="stroke:#000000;stroke-width:0.8;" x="525.017357" xlink:href="#md40de89b41" y="330.239063"/>
      </g>
     </g>
     <g id="text_20">
      <!-- −5 -->
      <g transform="translate(517.646263 344.8375)scale(0.1 -0.1)">
       <use xlink:href="#DejaVuSans-8722"/>
       <use x="83.789062" xlink:href="#DejaVuSans-53"/>
      </g>
     </g>
    </g>
    <g id="xtick_11">
     <g id="line2d_25">
      <g>
       <use style="stroke:#000000;stroke-width:0.8;" x="572.045968" xlink:href="#md40de89b41" y="330.239063"/>
      </g>
     </g>
     <g id="text_21">
      <!-- 0 -->
      <g transform="translate(568.864718 344.8375)scale(0.1 -0.1)">
       <use xlink:href="#DejaVuSans-48"/>
      </g>
     </g>
    </g>
    <g id="xtick_12">
     <g id="line2d_26">
      <g>
       <use style="stroke:#000000;stroke-width:0.8;" x="619.074578" xlink:href="#md40de89b41" y="330.239063"/>
      </g>
     </g>
     <g id="text_22">
      <!-- 5 -->
      <g transform="translate(615.893328 344.8375)scale(0.1 -0.1)">
       <use xlink:href="#DejaVuSans-53"/>
      </g>
     </g>
    </g>
    <g id="xtick_13">
     <g id="line2d_27">
      <g>
       <use style="stroke:#000000;stroke-width:0.8;" x="666.103189" xlink:href="#md40de89b41" y="330.239063"/>
      </g>
     </g>
     <g id="text_23">
      <!-- 10 -->
      <g transform="translate(659.740689 344.8375)scale(0.1 -0.1)">
       <use xlink:href="#DejaVuSans-49"/>
       <use x="63.623047" xlink:href="#DejaVuSans-48"/>
      </g>
     </g>
    </g>
    <g id="xtick_14">
     <g id="line2d_28">
      <g>
       <use style="stroke:#000000;stroke-width:0.8;" x="713.131799" xlink:href="#md40de89b41" y="330.239063"/>
      </g>
     </g>
     <g id="text_24">
      <!-- 15 -->
      <g transform="translate(706.769299 344.8375)scale(0.1 -0.1)">
       <use xlink:href="#DejaVuSans-49"/>
       <use x="63.623047" xlink:href="#DejaVuSans-53"/>
      </g>
     </g>
    </g>
    <g id="text_25">
     <!-- spill -->
     <g transform="translate(562.099874 358.515625)scale(0.1 -0.1)">
      <use xlink:href="#DejaVuSans-115"/>
      <use x="52.099609" xlink:href="#DejaVuSans-112"/>
      <use x="115.576172" xlink:href="#DejaVuSans-105"/>
      <use x="143.359375" xlink:href="#DejaVuSans-108"/>
      <use x="171.142578" xlink:href="#DejaVuSans-108"/>
     </g>
    </g>
   </g>
   <g id="matplotlib.axis_4">
    <g id="ytick_8">
     <g id="line2d_29">
      <g>
       <use style="stroke:#000000;stroke-width:0.8;" x="416.851553" xlink:href="#m9654e74045" y="307.713782"/>
      </g>
     </g>
     <g id="text_26">
      <!-- 0.40 -->
      <g transform="translate(387.585928 311.513001)scale(0.1 -0.1)">
       <use xlink:href="#DejaVuSans-48"/>
       <use x="63.623047" xlink:href="#DejaVuSans-46"/>
       <use x="95.410156" xlink:href="#DejaVuSans-52"/>
       <use x="159.033203" xlink:href="#DejaVuSans-48"/>
      </g>
     </g>
    </g>
    <g id="ytick_9">
     <g id="line2d_30">
      <g>
       <use style="stroke:#000000;stroke-width:0.8;" x="416.851553" xlink:href="#m9654e74045" y="260.836443"/>
      </g>
     </g>
     <g id="text_27">
      <!-- 0.45 -->
      <g transform="translate(387.585928 264.635662)scale(0.1 -0.1)">
       <use xlink:href="#DejaVuSans-48"/>
       <use x="63.623047" xlink:href="#DejaVuSans-46"/>
       <use x="95.410156" xlink:href="#DejaVuSans-52"/>
       <use x="159.033203" xlink:href="#DejaVuSans-53"/>
      </g>
     </g>
    </g>
    <g id="ytick_10">
     <g id="line2d_31">
      <g>
       <use style="stroke:#000000;stroke-width:0.8;" x="416.851553" xlink:href="#m9654e74045" y="213.959103"/>
      </g>
     </g>
     <g id="text_28">
      <!-- 0.50 -->
      <g transform="translate(387.585928 217.758322)scale(0.1 -0.1)">
       <use xlink:href="#DejaVuSans-48"/>
       <use x="63.623047" xlink:href="#DejaVuSans-46"/>
       <use x="95.410156" xlink:href="#DejaVuSans-53"/>
       <use x="159.033203" xlink:href="#DejaVuSans-48"/>
      </g>
     </g>
    </g>
    <g id="ytick_11">
     <g id="line2d_32">
      <g>
       <use style="stroke:#000000;stroke-width:0.8;" x="416.851553" xlink:href="#m9654e74045" y="167.081764"/>
      </g>
     </g>
     <g id="text_29">
      <!-- 0.55 -->
      <g transform="translate(387.585928 170.880983)scale(0.1 -0.1)">
       <use xlink:href="#DejaVuSans-48"/>
       <use x="63.623047" xlink:href="#DejaVuSans-46"/>
       <use x="95.410156" xlink:href="#DejaVuSans-53"/>
       <use x="159.033203" xlink:href="#DejaVuSans-53"/>
      </g>
     </g>
    </g>
    <g id="ytick_12">
     <g id="line2d_33">
      <g>
       <use style="stroke:#000000;stroke-width:0.8;" x="416.851553" xlink:href="#m9654e74045" y="120.204424"/>
      </g>
     </g>
     <g id="text_30">
      <!-- 0.60 -->
      <g transform="translate(387.585928 124.003643)scale(0.1 -0.1)">
       <use xlink:href="#DejaVuSans-48"/>
       <use x="63.623047" xlink:href="#DejaVuSans-46"/>
       <use x="95.410156" xlink:href="#DejaVuSans-54"/>
       <use x="159.033203" xlink:href="#DejaVuSans-48"/>
      </g>
     </g>
    </g>
    <g id="ytick_13">
     <g id="line2d_34">
      <g>
       <use style="stroke:#000000;stroke-width:0.8;" x="416.851553" xlink:href="#m9654e74045" y="73.327085"/>
      </g>
     </g>
     <g id="text_31">
      <!-- 0.65 -->
      <g transform="translate(387.585928 77.126304)scale(0.1 -0.1)">
       <use xlink:href="#DejaVuSans-48"/>
       <use x="63.623047" xlink:href="#DejaVuSans-46"/>
       <use x="95.410156" xlink:href="#DejaVuSans-54"/>
       <use x="159.033203" xlink:href="#DejaVuSans-53"/>
      </g>
     </g>
    </g>
   </g>
   <g id="line2d_35">
    <path clip-path="url(#p9c1bcfd4c3)" d="M 567.343107 183.919331 
L 576.748829 183.919331 
" style="fill:none;stroke:#edd1cb;stroke-linecap:square;stroke-width:1.5;"/>
   </g>
   <g id="line2d_36">
    <path clip-path="url(#p9c1bcfd4c3)" d="M 496.800191 146.417468 
L 506.205913 146.034799 
L 515.611635 149.86152 
L 525.017357 125.179168 
L 534.423079 127.857861 
L 543.828801 130.345225 
L 553.234524 137.616 
L 562.640246 122.883123 
L 572.045968 139.146692 
L 581.45169 146.800143 
L 590.857412 156.366946 
L 600.263134 143.930103 
L 609.668856 156.940956 
L 619.074578 161.915689 
L 628.4803 168.99512 
L 637.886022 160.384996 
L 647.291745 163.063707 
" style="fill:none;stroke:#a9678f;stroke-linecap:square;stroke-width:1.5;"/>
   </g>
   <g id="line2d_37">
    <path clip-path="url(#p9c1bcfd4c3)" d="M 430.960136 86.911948 
L 440.365858 77.345147 
L 449.77158 85.189914 
L 459.177303 67.587005 
L 468.583025 72.179079 
L 477.988747 76.579796 
L 487.394469 71.796403 
L 496.800191 71.605057 
L 506.205913 72.561736 
L 515.611635 72.561746 
L 525.017357 75.814457 
L 534.423079 71.796398 
L 543.828801 58.594207 
L 553.234524 69.500357 
L 562.640246 72.944412 
L 572.045968 77.919144 
L 581.45169 77.919154 
L 590.857412 82.702563 
L 600.263134 89.399316 
L 609.668856 80.980522 
L 619.074578 88.059953 
L 628.4803 79.067169 
L 637.886022 95.139388 
L 647.291745 113.699007 
L 656.697467 106.619554 
L 666.103189 119.821761 
L 675.508911 153.688235 
L 684.914633 178.179267 
L 694.320355 210.897721 
L 703.726077 261.219113 
L 713.131799 297.764306 
" style="fill:none;stroke:#2d1e3e;stroke-linecap:square;stroke-width:1.5;"/>
   </g>
   <g id="patch_6">
    <path d="M 416.851553 330.239062 
L 416.851553 36.839063 
" style="fill:none;stroke:#000000;stroke-linecap:square;stroke-linejoin:miter;stroke-width:0.8;"/>
   </g>
   <g id="patch_7">
    <path d="M 416.851553 330.239063 
L 727.240382 330.239063 
" style="fill:none;stroke:#000000;stroke-linecap:square;stroke-linejoin:miter;stroke-width:0.8;"/>
   </g>
   <g id="text_32">
    <!-- loss = f1micro -->
    <g transform="translate(535.956905 30.839063)scale(0.1 -0.1)">
     <use xlink:href="#DejaVuSans-108"/>
     <use x="27.783203" xlink:href="#DejaVuSans-111"/>
     <use x="88.964844" xlink:href="#DejaVuSans-115"/>
     <use x="141.064453" xlink:href="#DejaVuSans-115"/>
     <use x="193.164062" xlink:href="#DejaVuSans-32"/>
     <use x="224.951172" xlink:href="#DejaVuSans-61"/>
     <use x="308.740234" xlink:href="#DejaVuSans-32"/>
     <use x="340.527344" xlink:href="#DejaVuSans-102"/>
     <use x="375.732422" xlink:href="#DejaVuSans-49"/>
     <use x="439.355469" xlink:href="#DejaVuSans-109"/>
     <use x="536.767578" xlink:href="#DejaVuSans-105"/>
     <use x="564.550781" xlink:href="#DejaVuSans-99"/>
     <use x="619.53125" xlink:href="#DejaVuSans-114"/>
     <use x="660.613281" xlink:href="#DejaVuSans-111"/>
    </g>
   </g>
  </g>
  <g id="axes_3">
   <g id="patch_8">
    <path d="M 770.636426 330.239063 
L 1081.025255 330.239063 
L 1081.025255 36.839063 
L 770.636426 36.839063 
z
" style="fill:#ffffff;"/>
   </g>
   <g id="PolyCollection_7">
    <defs>
     <path d="M 921.127979 -157.067513 
L 921.127979 -106.262376 
L 930.533701 -105.551762 
L 930.533701 -155.106609 
L 930.533701 -155.106609 
L 921.127979 -157.067513 
z
" id="m9f8589b083" style="stroke:#edd1cb;stroke-opacity:0.2;"/>
    </defs>
    <g clip-path="url(#p03fd019ab5)">
     <use style="fill:#edd1cb;fill-opacity:0.2;stroke:#edd1cb;stroke-opacity:0.2;" x="0" xlink:href="#m9f8589b083" y="367.795313"/>
    </g>
   </g>
   <g id="PolyCollection_8">
    <defs>
     <path d="M 850.585063 -104.49697 
L 850.585063 -80.626988 
L 859.990786 -76.240569 
L 869.396508 -86.802139 
L 878.80223 -83.258096 
L 888.207952 -85.803502 
L 897.613674 -79.601046 
L 907.019396 -84.875765 
L 916.425118 -88.327447 
L 925.83084 -91.380138 
L 935.236562 -96.341363 
L 944.642284 -99.605054 
L 954.048007 -102.970653 
L 963.453729 -103.518976 
L 972.859451 -138.289689 
L 982.265173 -123.709463 
L 991.670895 -136.672437 
L 1001.076617 -118.290457 
L 1001.076617 -143.656354 
L 1001.076617 -143.656354 
L 991.670895 -230.876997 
L 982.265173 -137.985392 
L 972.859451 -281.758099 
L 963.453729 -124.49656 
L 954.048007 -164.06285 
L 944.642284 -147.085199 
L 935.236562 -171.406959 
L 925.83084 -138.584483 
L 916.425118 -127.214327 
L 907.019396 -176.889083 
L 897.613674 -143.610538 
L 888.207952 -242.00554 
L 878.80223 -133.679357 
L 869.396508 -116.062157 
L 859.990786 -125.95185 
L 850.585063 -104.49697 
z
" id="ma55c3cb72d" style="stroke:#a9678f;stroke-opacity:0.2;"/>
    </defs>
    <g clip-path="url(#p03fd019ab5)">
     <use style="fill:#a9678f;fill-opacity:0.2;stroke:#a9678f;stroke-opacity:0.2;" x="0" xlink:href="#ma55c3cb72d" y="367.795313"/>
    </g>
   </g>
   <g id="PolyCollection_9">
    <defs>
     <path d="M 784.745009 -317.599663 
L 784.745009 -265.713018 
L 794.150731 -110.867375 
L 803.556453 -62.963453 
L 812.962175 -61.454798 
L 822.367897 -59.422645 
L 831.773619 -58.611247 
L 841.179341 -60.728619 
L 850.585063 -59.123177 
L 859.990786 -52.198363 
L 869.396508 -57.977342 
L 878.80223 -50.892614 
L 888.207952 -60.030191 
L 897.613674 -72.675595 
L 907.019396 -56.051838 
L 916.425118 -72.083553 
L 925.83084 -58.188494 
L 935.236562 -67.826926 
L 944.642284 -90.498214 
L 954.048007 -71.067171 
L 963.453729 -73.600064 
L 972.859451 -91.455429 
L 982.265173 -82.633433 
L 991.670895 -98.567479 
L 1001.076617 -140.061701 
L 1010.482339 -100.582412 
L 1019.888061 -128.449168 
L 1029.293783 -120.670914 
L 1038.699505 -140.905273 
L 1048.105228 -176.600041 
L 1057.51095 -188.636559 
L 1066.916672 -199.764339 
L 1066.916672 -255.863147 
L 1066.916672 -255.863147 
L 1057.51095 -277.1448 
L 1048.105228 -208.684651 
L 1038.699505 -188.416024 
L 1029.293783 -173.692049 
L 1019.888061 -255.745922 
L 1010.482339 -128.286742 
L 1001.076617 -240.806861 
L 991.670895 -126.937795 
L 982.265173 -164.81407 
L 972.859451 -287.763312 
L 963.453729 -103.987744 
L 954.048007 -93.710499 
L 944.642284 -317.619886 
L 935.236562 -145.006581 
L 925.83084 -91.633084 
L 916.425118 -104.348516 
L 907.019396 -172.335662 
L 897.613674 -114.46813 
L 888.207952 -97.319573 
L 878.80223 -68.225766 
L 869.396508 -119.64938 
L 859.990786 -86.20915 
L 850.585063 -111.369046 
L 841.179341 -142.410565 
L 831.773619 -91.710187 
L 822.367897 -94.352067 
L 812.962175 -98.335001 
L 803.556453 -183.338462 
L 794.150731 -178.068702 
L 784.745009 -317.599663 
z
" id="m3c4d5211fd" style="stroke:#2d1e3e;stroke-opacity:0.2;"/>
    </defs>
    <g clip-path="url(#p03fd019ab5)">
     <use style="fill:#2d1e3e;fill-opacity:0.2;stroke:#2d1e3e;stroke-opacity:0.2;" x="0" xlink:href="#m3c4d5211fd" y="367.795313"/>
    </g>
   </g>
   <g id="matplotlib.axis_5">
    <g id="xtick_15">
     <g id="line2d_38">
      <g>
       <use style="stroke:#000000;stroke-width:0.8;" x="784.745009" xlink:href="#md40de89b41" y="330.239063"/>
      </g>
     </g>
     <g id="text_33">
      <!-- −15 -->
      <g transform="translate(774.192665 344.8375)scale(0.1 -0.1)">
       <use xlink:href="#DejaVuSans-8722"/>
       <use x="83.789062" xlink:href="#DejaVuSans-49"/>
       <use x="147.412109" xlink:href="#DejaVuSans-53"/>
      </g>
     </g>
    </g>
    <g id="xtick_16">
     <g id="line2d_39">
      <g>
       <use style="stroke:#000000;stroke-width:0.8;" x="831.773619" xlink:href="#md40de89b41" y="330.239063"/>
      </g>
     </g>
     <g id="text_34">
      <!-- −10 -->
      <g transform="translate(821.221276 344.8375)scale(0.1 -0.1)">
       <use xlink:href="#DejaVuSans-8722"/>
       <use x="83.789062" xlink:href="#DejaVuSans-49"/>
       <use x="147.412109" xlink:href="#DejaVuSans-48"/>
      </g>
     </g>
    </g>
    <g id="xtick_17">
     <g id="line2d_40">
      <g>
       <use style="stroke:#000000;stroke-width:0.8;" x="878.80223" xlink:href="#md40de89b41" y="330.239063"/>
      </g>
     </g>
     <g id="text_35">
      <!-- −5 -->
      <g transform="translate(871.431136 344.8375)scale(0.1 -0.1)">
       <use xlink:href="#DejaVuSans-8722"/>
       <use x="83.789062" xlink:href="#DejaVuSans-53"/>
      </g>
     </g>
    </g>
    <g id="xtick_18">
     <g id="line2d_41">
      <g>
       <use style="stroke:#000000;stroke-width:0.8;" x="925.83084" xlink:href="#md40de89b41" y="330.239063"/>
      </g>
     </g>
     <g id="text_36">
      <!-- 0 -->
      <g transform="translate(922.64959 344.8375)scale(0.1 -0.1)">
       <use xlink:href="#DejaVuSans-48"/>
      </g>
     </g>
    </g>
    <g id="xtick_19">
     <g id="line2d_42">
      <g>
       <use style="stroke:#000000;stroke-width:0.8;" x="972.859451" xlink:href="#md40de89b41" y="330.239063"/>
      </g>
     </g>
     <g id="text_37">
      <!-- 5 -->
      <g transform="translate(969.678201 344.8375)scale(0.1 -0.1)">
       <use xlink:href="#DejaVuSans-53"/>
      </g>
     </g>
    </g>
    <g id="xtick_20">
     <g id="line2d_43">
      <g>
       <use style="stroke:#000000;stroke-width:0.8;" x="1019.888061" xlink:href="#md40de89b41" y="330.239063"/>
      </g>
     </g>
     <g id="text_38">
      <!-- 10 -->
      <g transform="translate(1013.525561 344.8375)scale(0.1 -0.1)">
       <use xlink:href="#DejaVuSans-49"/>
       <use x="63.623047" xlink:href="#DejaVuSans-48"/>
      </g>
     </g>
    </g>
    <g id="xtick_21">
     <g id="line2d_44">
      <g>
       <use style="stroke:#000000;stroke-width:0.8;" x="1066.916672" xlink:href="#md40de89b41" y="330.239063"/>
      </g>
     </g>
     <g id="text_39">
      <!-- 15 -->
      <g transform="translate(1060.554172 344.8375)scale(0.1 -0.1)">
       <use xlink:href="#DejaVuSans-49"/>
       <use x="63.623047" xlink:href="#DejaVuSans-53"/>
      </g>
     </g>
    </g>
    <g id="text_40">
     <!-- spill -->
     <g transform="translate(915.884747 358.515625)scale(0.1 -0.1)">
      <use xlink:href="#DejaVuSans-115"/>
      <use x="52.099609" xlink:href="#DejaVuSans-112"/>
      <use x="115.576172" xlink:href="#DejaVuSans-105"/>
      <use x="143.359375" xlink:href="#DejaVuSans-108"/>
      <use x="171.142578" xlink:href="#DejaVuSans-108"/>
     </g>
    </g>
   </g>
   <g id="matplotlib.axis_6">
    <g id="ytick_14">
     <g id="line2d_45">
      <g>
       <use style="stroke:#000000;stroke-width:0.8;" x="770.636426" xlink:href="#m9654e74045" y="308.064444"/>
      </g>
     </g>
     <g id="text_41">
      <!-- 0.5 -->
      <g transform="translate(747.733301 311.863663)scale(0.1 -0.1)">
       <use xlink:href="#DejaVuSans-48"/>
       <use x="63.623047" xlink:href="#DejaVuSans-46"/>
       <use x="95.410156" xlink:href="#DejaVuSans-53"/>
      </g>
     </g>
    </g>
    <g id="ytick_15">
     <g id="line2d_46">
      <g>
       <use style="stroke:#000000;stroke-width:0.8;" x="770.636426" xlink:href="#m9654e74045" y="274.320404"/>
      </g>
     </g>
     <g id="text_42">
      <!-- 0.6 -->
      <g transform="translate(747.733301 278.119623)scale(0.1 -0.1)">
       <use xlink:href="#DejaVuSans-48"/>
       <use x="63.623047" xlink:href="#DejaVuSans-46"/>
       <use x="95.410156" xlink:href="#DejaVuSans-54"/>
      </g>
     </g>
    </g>
    <g id="ytick_16">
     <g id="line2d_47">
      <g>
       <use style="stroke:#000000;stroke-width:0.8;" x="770.636426" xlink:href="#m9654e74045" y="240.576364"/>
      </g>
     </g>
     <g id="text_43">
      <!-- 0.7 -->
      <defs>
       <path d="M 8.203125 72.90625 
L 55.078125 72.90625 
L 55.078125 68.703125 
L 28.609375 0 
L 18.3125 0 
L 43.21875 64.59375 
L 8.203125 64.59375 
z
" id="DejaVuSans-55"/>
      </defs>
      <g transform="translate(747.733301 244.375583)scale(0.1 -0.1)">
       <use xlink:href="#DejaVuSans-48"/>
       <use x="63.623047" xlink:href="#DejaVuSans-46"/>
       <use x="95.410156" xlink:href="#DejaVuSans-55"/>
      </g>
     </g>
    </g>
    <g id="ytick_17">
     <g id="line2d_48">
      <g>
       <use style="stroke:#000000;stroke-width:0.8;" x="770.636426" xlink:href="#m9654e74045" y="206.832324"/>
      </g>
     </g>
     <g id="text_44">
      <!-- 0.8 -->
      <defs>
       <path d="M 31.78125 34.625 
Q 24.75 34.625 20.71875 30.859375 
Q 16.703125 27.09375 16.703125 20.515625 
Q 16.703125 13.921875 20.71875 10.15625 
Q 24.75 6.390625 31.78125 6.390625 
Q 38.8125 6.390625 42.859375 10.171875 
Q 46.921875 13.96875 46.921875 20.515625 
Q 46.921875 27.09375 42.890625 30.859375 
Q 38.875 34.625 31.78125 34.625 
z
M 21.921875 38.8125 
Q 15.578125 40.375 12.03125 44.71875 
Q 8.5 49.078125 8.5 55.328125 
Q 8.5 64.0625 14.71875 69.140625 
Q 20.953125 74.21875 31.78125 74.21875 
Q 42.671875 74.21875 48.875 69.140625 
Q 55.078125 64.0625 55.078125 55.328125 
Q 55.078125 49.078125 51.53125 44.71875 
Q 48 40.375 41.703125 38.8125 
Q 48.828125 37.15625 52.796875 32.3125 
Q 56.78125 27.484375 56.78125 20.515625 
Q 56.78125 9.90625 50.3125 4.234375 
Q 43.84375 -1.421875 31.78125 -1.421875 
Q 19.734375 -1.421875 13.25 4.234375 
Q 6.78125 9.90625 6.78125 20.515625 
Q 6.78125 27.484375 10.78125 32.3125 
Q 14.796875 37.15625 21.921875 38.8125 
z
M 18.3125 54.390625 
Q 18.3125 48.734375 21.84375 45.5625 
Q 25.390625 42.390625 31.78125 42.390625 
Q 38.140625 42.390625 41.71875 45.5625 
Q 45.3125 48.734375 45.3125 54.390625 
Q 45.3125 60.0625 41.71875 63.234375 
Q 38.140625 66.40625 31.78125 66.40625 
Q 25.390625 66.40625 21.84375 63.234375 
Q 18.3125 60.0625 18.3125 54.390625 
z
" id="DejaVuSans-56"/>
      </defs>
      <g transform="translate(747.733301 210.631543)scale(0.1 -0.1)">
       <use xlink:href="#DejaVuSans-48"/>
       <use x="63.623047" xlink:href="#DejaVuSans-46"/>
       <use x="95.410156" xlink:href="#DejaVuSans-56"/>
      </g>
     </g>
    </g>
    <g id="ytick_18">
     <g id="line2d_49">
      <g>
       <use style="stroke:#000000;stroke-width:0.8;" x="770.636426" xlink:href="#m9654e74045" y="173.088284"/>
      </g>
     </g>
     <g id="text_45">
      <!-- 0.9 -->
      <defs>
       <path d="M 10.984375 1.515625 
L 10.984375 10.5 
Q 14.703125 8.734375 18.5 7.8125 
Q 22.3125 6.890625 25.984375 6.890625 
Q 35.75 6.890625 40.890625 13.453125 
Q 46.046875 20.015625 46.78125 33.40625 
Q 43.953125 29.203125 39.59375 26.953125 
Q 35.25 24.703125 29.984375 24.703125 
Q 19.046875 24.703125 12.671875 31.3125 
Q 6.296875 37.9375 6.296875 49.421875 
Q 6.296875 60.640625 12.9375 67.421875 
Q 19.578125 74.21875 30.609375 74.21875 
Q 43.265625 74.21875 49.921875 64.515625 
Q 56.59375 54.828125 56.59375 36.375 
Q 56.59375 19.140625 48.40625 8.859375 
Q 40.234375 -1.421875 26.421875 -1.421875 
Q 22.703125 -1.421875 18.890625 -0.6875 
Q 15.09375 0.046875 10.984375 1.515625 
z
M 30.609375 32.421875 
Q 37.25 32.421875 41.125 36.953125 
Q 45.015625 41.5 45.015625 49.421875 
Q 45.015625 57.28125 41.125 61.84375 
Q 37.25 66.40625 30.609375 66.40625 
Q 23.96875 66.40625 20.09375 61.84375 
Q 16.21875 57.28125 16.21875 49.421875 
Q 16.21875 41.5 20.09375 36.953125 
Q 23.96875 32.421875 30.609375 32.421875 
z
" id="DejaVuSans-57"/>
      </defs>
      <g transform="translate(747.733301 176.887503)scale(0.1 -0.1)">
       <use xlink:href="#DejaVuSans-48"/>
       <use x="63.623047" xlink:href="#DejaVuSans-46"/>
       <use x="95.410156" xlink:href="#DejaVuSans-57"/>
      </g>
     </g>
    </g>
    <g id="ytick_19">
     <g id="line2d_50">
      <g>
       <use style="stroke:#000000;stroke-width:0.8;" x="770.636426" xlink:href="#m9654e74045" y="139.344244"/>
      </g>
     </g>
     <g id="text_46">
      <!-- 1.0 -->
      <g transform="translate(747.733301 143.143463)scale(0.1 -0.1)">
       <use xlink:href="#DejaVuSans-49"/>
       <use x="63.623047" xlink:href="#DejaVuSans-46"/>
       <use x="95.410156" xlink:href="#DejaVuSans-48"/>
      </g>
     </g>
    </g>
    <g id="ytick_20">
     <g id="line2d_51">
      <g>
       <use style="stroke:#000000;stroke-width:0.8;" x="770.636426" xlink:href="#m9654e74045" y="105.600204"/>
      </g>
     </g>
     <g id="text_47">
      <!-- 1.1 -->
      <g transform="translate(747.733301 109.399423)scale(0.1 -0.1)">
       <use xlink:href="#DejaVuSans-49"/>
       <use x="63.623047" xlink:href="#DejaVuSans-46"/>
       <use x="95.410156" xlink:href="#DejaVuSans-49"/>
      </g>
     </g>
    </g>
    <g id="ytick_21">
     <g id="line2d_52">
      <g>
       <use style="stroke:#000000;stroke-width:0.8;" x="770.636426" xlink:href="#m9654e74045" y="71.856164"/>
      </g>
     </g>
     <g id="text_48">
      <!-- 1.2 -->
      <defs>
       <path d="M 19.1875 8.296875 
L 53.609375 8.296875 
L 53.609375 0 
L 7.328125 0 
L 7.328125 8.296875 
Q 12.9375 14.109375 22.625 23.890625 
Q 32.328125 33.6875 34.8125 36.53125 
Q 39.546875 41.84375 41.421875 45.53125 
Q 43.3125 49.21875 43.3125 52.78125 
Q 43.3125 58.59375 39.234375 62.25 
Q 35.15625 65.921875 28.609375 65.921875 
Q 23.96875 65.921875 18.8125 64.3125 
Q 13.671875 62.703125 7.8125 59.421875 
L 7.8125 69.390625 
Q 13.765625 71.78125 18.9375 73 
Q 24.125 74.21875 28.421875 74.21875 
Q 39.75 74.21875 46.484375 68.546875 
Q 53.21875 62.890625 53.21875 53.421875 
Q 53.21875 48.921875 51.53125 44.890625 
Q 49.859375 40.875 45.40625 35.40625 
Q 44.1875 33.984375 37.640625 27.21875 
Q 31.109375 20.453125 19.1875 8.296875 
z
" id="DejaVuSans-50"/>
      </defs>
      <g transform="translate(747.733301 75.655383)scale(0.1 -0.1)">
       <use xlink:href="#DejaVuSans-49"/>
       <use x="63.623047" xlink:href="#DejaVuSans-46"/>
       <use x="95.410156" xlink:href="#DejaVuSans-50"/>
      </g>
     </g>
    </g>
    <g id="ytick_22">
     <g id="line2d_53">
      <g>
       <use style="stroke:#000000;stroke-width:0.8;" x="770.636426" xlink:href="#m9654e74045" y="38.112124"/>
      </g>
     </g>
     <g id="text_49">
      <!-- 1.3 -->
      <g transform="translate(747.733301 41.911343)scale(0.1 -0.1)">
       <use xlink:href="#DejaVuSans-49"/>
       <use x="63.623047" xlink:href="#DejaVuSans-46"/>
       <use x="95.410156" xlink:href="#DejaVuSans-51"/>
      </g>
     </g>
    </g>
   </g>
   <g id="line2d_54">
    <path clip-path="url(#p03fd019ab5)" d="M 921.127979 240.267298 
L 930.533701 240.267298 
" style="fill:none;stroke:#edd1cb;stroke-linecap:square;stroke-width:1.5;"/>
   </g>
   <g id="line2d_55">
    <path clip-path="url(#p03fd019ab5)" d="M 850.585063 276.11098 
L 859.990786 269.548809 
L 869.396508 267.171007 
L 878.80223 262.018084 
L 888.207952 216.880746 
L 897.613674 260.035985 
L 907.019396 244.376194 
L 916.425118 261.977513 
L 925.83084 254.119631 
L 935.236562 238.343021 
L 944.642284 248.523325 
L 954.048007 238.925438 
L 963.453729 254.322556 
L 972.859451 163.93352 
L 982.265173 236.969537 
L 991.670895 192.804593 
L 1001.076617 238.164064 
" style="fill:none;stroke:#a9678f;stroke-linecap:square;stroke-width:1.5;"/>
   </g>
   <g id="line2d_56">
    <path clip-path="url(#p03fd019ab5)" d="M 784.745009 80.577781 
L 794.150731 230.395232 
L 803.556453 260.488822 
L 812.962175 288.948836 
L 822.367897 293.194887 
L 831.773619 292.44215 
L 841.179341 274.177039 
L 850.585063 285.408649 
L 859.990786 299.117091 
L 869.396508 279.53093 
L 878.80223 308.47558 
L 888.207952 292.270658 
L 897.613674 276.757971 
L 907.019396 262.972011 
L 916.425118 279.752958 
L 925.83084 294.775068 
L 935.236562 269.727439 
L 944.642284 189.284592 
L 954.048007 285.893129 
L 963.453729 280.408375 
L 972.859451 198.16297 
L 982.265173 249.692115 
L 991.670895 255.844132 
L 1001.076617 179.910899 
L 1010.482339 253.920587 
L 1019.888061 187.863191 
L 1029.293783 223.991899 
L 1038.699505 203.187102 
L 1048.105228 176.265101 
L 1057.51095 138.550628 
L 1066.916672 142.77059 
" style="fill:none;stroke:#2d1e3e;stroke-linecap:square;stroke-width:1.5;"/>
   </g>
   <g id="patch_9">
    <path d="M 770.636426 330.239063 
L 770.636426 36.839063 
" style="fill:none;stroke:#000000;stroke-linecap:square;stroke-linejoin:miter;stroke-width:0.8;"/>
   </g>
   <g id="patch_10">
    <path d="M 770.636426 330.239063 
L 1081.025255 330.239063 
" style="fill:none;stroke:#000000;stroke-linecap:square;stroke-linejoin:miter;stroke-width:0.8;"/>
   </g>
   <g id="text_50">
    <!-- loss = total loss -->
    <g transform="translate(886.125372 30.839063)scale(0.1 -0.1)">
     <use xlink:href="#DejaVuSans-108"/>
     <use x="27.783203" xlink:href="#DejaVuSans-111"/>
     <use x="88.964844" xlink:href="#DejaVuSans-115"/>
     <use x="141.064453" xlink:href="#DejaVuSans-115"/>
     <use x="193.164062" xlink:href="#DejaVuSans-32"/>
     <use x="224.951172" xlink:href="#DejaVuSans-61"/>
     <use x="308.740234" xlink:href="#DejaVuSans-32"/>
     <use x="340.527344" xlink:href="#DejaVuSans-116"/>
     <use x="379.736328" xlink:href="#DejaVuSans-111"/>
     <use x="440.917969" xlink:href="#DejaVuSans-116"/>
     <use x="480.126953" xlink:href="#DejaVuSans-97"/>
     <use x="541.40625" xlink:href="#DejaVuSans-108"/>
     <use x="569.189453" xlink:href="#DejaVuSans-32"/>
     <use x="600.976562" xlink:href="#DejaVuSans-108"/>
     <use x="628.759766" xlink:href="#DejaVuSans-111"/>
     <use x="689.941406" xlink:href="#DejaVuSans-115"/>
     <use x="742.041016" xlink:href="#DejaVuSans-115"/>
    </g>
   </g>
  </g>
  <g id="axes_4">
   <g id="patch_11">
    <path d="M 1124.421298 330.239063 
L 1434.810127 330.239063 
L 1434.810127 36.839063 
L 1124.421298 36.839063 
z
" style="fill:#ffffff;"/>
   </g>
   <g id="PolyCollection_10">
    <defs>
     <path d="M 1274.912852 -90.017784 
L 1274.912852 -52.256066 
L 1284.318574 -53.297197 
L 1284.318574 -88.304252 
L 1284.318574 -88.304252 
L 1274.912852 -90.017784 
z
" id="macf3666b48" style="stroke:#edd1cb;stroke-opacity:0.2;"/>
    </defs>
    <g clip-path="url(#p2dbc8d8a1c)">
     <use style="fill:#edd1cb;fill-opacity:0.2;stroke:#edd1cb;stroke-opacity:0.2;" x="0" xlink:href="#macf3666b48" y="367.795313"/>
    </g>
   </g>
   <g id="PolyCollection_11">
    <defs>
     <path d="M 1204.369936 -73.137837 
L 1204.369936 -55.227279 
L 1213.775658 -52.374946 
L 1223.18138 -59.615639 
L 1232.587102 -54.65711 
L 1241.992824 -55.772226 
L 1251.398547 -50.892614 
L 1260.804269 -56.926172 
L 1270.209991 -53.177899 
L 1279.615713 -54.296117 
L 1289.021435 -56.103948 
L 1298.427157 -58.570891 
L 1307.832879 -59.758858 
L 1317.238601 -57.612773 
L 1326.644323 -89.824262 
L 1336.050045 -65.7761 
L 1345.455768 -71.709823 
L 1354.86149 -52.361105 
L 1354.86149 -71.175582 
L 1354.86149 -71.175582 
L 1345.455768 -153.847694 
L 1336.050045 -76.927843 
L 1326.644323 -224.39356 
L 1317.238601 -71.997861 
L 1307.832879 -108.952293 
L 1298.427157 -90.155314 
L 1289.021435 -118.055944 
L 1279.615713 -93.343811 
L 1270.209991 -88.460579 
L 1260.804269 -133.045832 
L 1251.398547 -102.098514 
L 1241.992824 -204.046255 
L 1232.587102 -99.581926 
L 1223.18138 -78.52633 
L 1213.775658 -86.953885 
L 1204.369936 -73.137837 
z
" id="m56f51baf58" style="stroke:#a9678f;stroke-opacity:0.2;"/>
    </defs>
    <g clip-path="url(#p2dbc8d8a1c)">
     <use style="fill:#a9678f;fill-opacity:0.2;stroke:#a9678f;stroke-opacity:0.2;" x="0" xlink:href="#m56f51baf58" y="367.795313"/>
    </g>
   </g>
   <g id="PolyCollection_12">
    <defs>
     <path d="M 1138.529881 -317.619886 
L 1138.529881 -270.121088 
L 1147.935603 -112.747318 
L 1157.341326 -71.228645 
L 1166.747048 -67.527026 
L 1176.15277 -61.683031 
L 1185.558492 -68.232173 
L 1194.964214 -61.956207 
L 1204.369936 -63.564419 
L 1213.775658 -54.038533 
L 1223.18138 -59.68261 
L 1232.587102 -54.112542 
L 1241.992824 -62.767942 
L 1251.398547 -73.556115 
L 1260.804269 -58.192279 
L 1270.209991 -72.098367 
L 1279.615713 -55.968598 
L 1289.021435 -66.450649 
L 1298.427157 -86.295004 
L 1307.832879 -66.012156 
L 1317.238601 -62.771245 
L 1326.644323 -79.750592 
L 1336.050045 -68.891033 
L 1345.455768 -81.990772 
L 1354.86149 -116.526946 
L 1364.267212 -79.269359 
L 1373.672934 -97.874276 
L 1383.078656 -70.217785 
L 1392.484378 -86.610523 
L 1401.8901 -93.452778 
L 1411.295822 -88.410644 
L 1420.701544 -81.338278 
L 1420.701544 -135.831205 
L 1420.701544 -135.831205 
L 1411.295822 -175.056299 
L 1401.8901 -132.066173 
L 1392.484378 -120.608301 
L 1383.078656 -113.577576 
L 1373.672934 -205.918482 
L 1364.267212 -94.834922 
L 1354.86149 -209.425851 
L 1345.455768 -109.322245 
L 1336.050045 -147.724157 
L 1326.644323 -264.970615 
L 1317.238601 -91.450397 
L 1307.832879 -83.297249 
L 1298.427157 -306.001564 
L 1289.021435 -132.476135 
L 1279.615713 -88.024886 
L 1270.209991 -102.884974 
L 1260.804269 -170.427769 
L 1251.398547 -114.100807 
L 1241.992824 -90.690562 
L 1232.587102 -69.132759 
L 1223.18138 -125.709716 
L 1213.775658 -87.218316 
L 1204.369936 -117.415036 
L 1194.964214 -148.329935 
L 1185.558492 -98.069726 
L 1176.15277 -99.376315 
L 1166.747048 -101.525477 
L 1157.341326 -192.69594 
L 1147.935603 -177.583264 
L 1138.529881 -317.619886 
z
" id="md83e678ba6" style="stroke:#2d1e3e;stroke-opacity:0.2;"/>
    </defs>
    <g clip-path="url(#p2dbc8d8a1c)">
     <use style="fill:#2d1e3e;fill-opacity:0.2;stroke:#2d1e3e;stroke-opacity:0.2;" x="0" xlink:href="#md83e678ba6" y="367.795313"/>
    </g>
   </g>
   <g id="matplotlib.axis_7">
    <g id="xtick_22">
     <g id="line2d_57">
      <g>
       <use style="stroke:#000000;stroke-width:0.8;" x="1138.529881" xlink:href="#md40de89b41" y="330.239063"/>
      </g>
     </g>
     <g id="text_51">
      <!-- −15 -->
      <g transform="translate(1127.977538 344.8375)scale(0.1 -0.1)">
       <use xlink:href="#DejaVuSans-8722"/>
       <use x="83.789062" xlink:href="#DejaVuSans-49"/>
       <use x="147.412109" xlink:href="#DejaVuSans-53"/>
      </g>
     </g>
    </g>
    <g id="xtick_23">
     <g id="line2d_58">
      <g>
       <use style="stroke:#000000;stroke-width:0.8;" x="1185.558492" xlink:href="#md40de89b41" y="330.239063"/>
      </g>
     </g>
     <g id="text_52">
      <!-- −10 -->
      <g transform="translate(1175.006148 344.8375)scale(0.1 -0.1)">
       <use xlink:href="#DejaVuSans-8722"/>
       <use x="83.789062" xlink:href="#DejaVuSans-49"/>
       <use x="147.412109" xlink:href="#DejaVuSans-48"/>
      </g>
     </g>
    </g>
    <g id="xtick_24">
     <g id="line2d_59">
      <g>
       <use style="stroke:#000000;stroke-width:0.8;" x="1232.587102" xlink:href="#md40de89b41" y="330.239063"/>
      </g>
     </g>
     <g id="text_53">
      <!-- −5 -->
      <g transform="translate(1225.216009 344.8375)scale(0.1 -0.1)">
       <use xlink:href="#DejaVuSans-8722"/>
       <use x="83.789062" xlink:href="#DejaVuSans-53"/>
      </g>
     </g>
    </g>
    <g id="xtick_25">
     <g id="line2d_60">
      <g>
       <use style="stroke:#000000;stroke-width:0.8;" x="1279.615713" xlink:href="#md40de89b41" y="330.239063"/>
      </g>
     </g>
     <g id="text_54">
      <!-- 0 -->
      <g transform="translate(1276.434463 344.8375)scale(0.1 -0.1)">
       <use xlink:href="#DejaVuSans-48"/>
      </g>
     </g>
    </g>
    <g id="xtick_26">
     <g id="line2d_61">
      <g>
       <use style="stroke:#000000;stroke-width:0.8;" x="1326.644323" xlink:href="#md40de89b41" y="330.239063"/>
      </g>
     </g>
     <g id="text_55">
      <!-- 5 -->
      <g transform="translate(1323.463073 344.8375)scale(0.1 -0.1)">
       <use xlink:href="#DejaVuSans-53"/>
      </g>
     </g>
    </g>
    <g id="xtick_27">
     <g id="line2d_62">
      <g>
       <use style="stroke:#000000;stroke-width:0.8;" x="1373.672934" xlink:href="#md40de89b41" y="330.239063"/>
      </g>
     </g>
     <g id="text_56">
      <!-- 10 -->
      <g transform="translate(1367.310434 344.8375)scale(0.1 -0.1)">
       <use xlink:href="#DejaVuSans-49"/>
       <use x="63.623047" xlink:href="#DejaVuSans-48"/>
      </g>
     </g>
    </g>
    <g id="xtick_28">
     <g id="line2d_63">
      <g>
       <use style="stroke:#000000;stroke-width:0.8;" x="1420.701544" xlink:href="#md40de89b41" y="330.239063"/>
      </g>
     </g>
     <g id="text_57">
      <!-- 15 -->
      <g transform="translate(1414.339044 344.8375)scale(0.1 -0.1)">
       <use xlink:href="#DejaVuSans-49"/>
       <use x="63.623047" xlink:href="#DejaVuSans-53"/>
      </g>
     </g>
    </g>
    <g id="text_58">
     <!-- spill -->
     <g transform="translate(1269.669619 358.515625)scale(0.1 -0.1)">
      <use xlink:href="#DejaVuSans-115"/>
      <use x="52.099609" xlink:href="#DejaVuSans-112"/>
      <use x="115.576172" xlink:href="#DejaVuSans-105"/>
      <use x="143.359375" xlink:href="#DejaVuSans-108"/>
      <use x="171.142578" xlink:href="#DejaVuSans-108"/>
     </g>
    </g>
   </g>
   <g id="matplotlib.axis_8">
    <g id="ytick_23">
     <g id="line2d_64">
      <g>
       <use style="stroke:#000000;stroke-width:0.8;" x="1124.421298" xlink:href="#m9654e74045" y="309.979693"/>
      </g>
     </g>
     <g id="text_59">
      <!-- 0.1 -->
      <g transform="translate(1101.518173 313.778911)scale(0.1 -0.1)">
       <use xlink:href="#DejaVuSans-48"/>
       <use x="63.623047" xlink:href="#DejaVuSans-46"/>
       <use x="95.410156" xlink:href="#DejaVuSans-49"/>
      </g>
     </g>
    </g>
    <g id="ytick_24">
     <g id="line2d_65">
      <g>
       <use style="stroke:#000000;stroke-width:0.8;" x="1124.421298" xlink:href="#m9654e74045" y="277.1686"/>
      </g>
     </g>
     <g id="text_60">
      <!-- 0.2 -->
      <g transform="translate(1101.518173 280.967819)scale(0.1 -0.1)">
       <use xlink:href="#DejaVuSans-48"/>
       <use x="63.623047" xlink:href="#DejaVuSans-46"/>
       <use x="95.410156" xlink:href="#DejaVuSans-50"/>
      </g>
     </g>
    </g>
    <g id="ytick_25">
     <g id="line2d_66">
      <g>
       <use style="stroke:#000000;stroke-width:0.8;" x="1124.421298" xlink:href="#m9654e74045" y="244.357508"/>
      </g>
     </g>
     <g id="text_61">
      <!-- 0.3 -->
      <g transform="translate(1101.518173 248.156727)scale(0.1 -0.1)">
       <use xlink:href="#DejaVuSans-48"/>
       <use x="63.623047" xlink:href="#DejaVuSans-46"/>
       <use x="95.410156" xlink:href="#DejaVuSans-51"/>
      </g>
     </g>
    </g>
    <g id="ytick_26">
     <g id="line2d_67">
      <g>
       <use style="stroke:#000000;stroke-width:0.8;" x="1124.421298" xlink:href="#m9654e74045" y="211.546416"/>
      </g>
     </g>
     <g id="text_62">
      <!-- 0.4 -->
      <g transform="translate(1101.518173 215.345635)scale(0.1 -0.1)">
       <use xlink:href="#DejaVuSans-48"/>
       <use x="63.623047" xlink:href="#DejaVuSans-46"/>
       <use x="95.410156" xlink:href="#DejaVuSans-52"/>
      </g>
     </g>
    </g>
    <g id="ytick_27">
     <g id="line2d_68">
      <g>
       <use style="stroke:#000000;stroke-width:0.8;" x="1124.421298" xlink:href="#m9654e74045" y="178.735323"/>
      </g>
     </g>
     <g id="text_63">
      <!-- 0.5 -->
      <g transform="translate(1101.518173 182.534542)scale(0.1 -0.1)">
       <use xlink:href="#DejaVuSans-48"/>
       <use x="63.623047" xlink:href="#DejaVuSans-46"/>
       <use x="95.410156" xlink:href="#DejaVuSans-53"/>
      </g>
     </g>
    </g>
    <g id="ytick_28">
     <g id="line2d_69">
      <g>
       <use style="stroke:#000000;stroke-width:0.8;" x="1124.421298" xlink:href="#m9654e74045" y="145.924231"/>
      </g>
     </g>
     <g id="text_64">
      <!-- 0.6 -->
      <g transform="translate(1101.518173 149.72345)scale(0.1 -0.1)">
       <use xlink:href="#DejaVuSans-48"/>
       <use x="63.623047" xlink:href="#DejaVuSans-46"/>
       <use x="95.410156" xlink:href="#DejaVuSans-54"/>
      </g>
     </g>
    </g>
    <g id="ytick_29">
     <g id="line2d_70">
      <g>
       <use style="stroke:#000000;stroke-width:0.8;" x="1124.421298" xlink:href="#m9654e74045" y="113.113139"/>
      </g>
     </g>
     <g id="text_65">
      <!-- 0.7 -->
      <g transform="translate(1101.518173 116.912358)scale(0.1 -0.1)">
       <use xlink:href="#DejaVuSans-48"/>
       <use x="63.623047" xlink:href="#DejaVuSans-46"/>
       <use x="95.410156" xlink:href="#DejaVuSans-55"/>
      </g>
     </g>
    </g>
    <g id="ytick_30">
     <g id="line2d_71">
      <g>
       <use style="stroke:#000000;stroke-width:0.8;" x="1124.421298" xlink:href="#m9654e74045" y="80.302047"/>
      </g>
     </g>
     <g id="text_66">
      <!-- 0.8 -->
      <g transform="translate(1101.518173 84.101265)scale(0.1 -0.1)">
       <use xlink:href="#DejaVuSans-48"/>
       <use x="63.623047" xlink:href="#DejaVuSans-46"/>
       <use x="95.410156" xlink:href="#DejaVuSans-56"/>
      </g>
     </g>
    </g>
    <g id="ytick_31">
     <g id="line2d_72">
      <g>
       <use style="stroke:#000000;stroke-width:0.8;" x="1124.421298" xlink:href="#m9654e74045" y="47.490954"/>
      </g>
     </g>
     <g id="text_67">
      <!-- 0.9 -->
      <g transform="translate(1101.518173 51.290173)scale(0.1 -0.1)">
       <use xlink:href="#DejaVuSans-48"/>
       <use x="63.623047" xlink:href="#DejaVuSans-46"/>
       <use x="95.410156" xlink:href="#DejaVuSans-57"/>
      </g>
     </g>
    </g>
   </g>
   <g id="line2d_73">
    <path clip-path="url(#p2dbc8d8a1c)" d="M 1274.912852 299.999873 
L 1284.318574 299.999873 
" style="fill:none;stroke:#edd1cb;stroke-linecap:square;stroke-width:1.5;"/>
   </g>
   <g id="line2d_74">
    <path clip-path="url(#p2dbc8d8a1c)" d="M 1204.369936 303.947645 
L 1213.775658 302.088579 
L 1223.18138 299.216134 
L 1232.587102 294.723763 
L 1241.992824 252.562876 
L 1251.398547 293.655035 
L 1260.804269 279.030252 
L 1270.209991 300.56185 
L 1279.615713 294.73562 
L 1289.021435 283.832973 
L 1298.427157 295.694336 
L 1307.832879 287.315762 
L 1317.238601 303.468444 
L 1326.644323 219.398674 
L 1336.050045 296.865663 
L 1345.455768 263.824339 
L 1354.86149 306.631736 
" style="fill:none;stroke:#a9678f;stroke-linecap:square;stroke-width:1.5;"/>
   </g>
   <g id="line2d_75">
    <path clip-path="url(#p2dbc8d8a1c)" d="M 1138.529881 77.644357 
L 1147.935603 228.790636 
L 1157.341326 252.669684 
L 1166.747048 283.812433 
L 1176.15277 289.082711 
L 1185.558492 285.979905 
L 1194.964214 270.774227 
L 1204.369936 279.282422 
L 1213.775658 298.25979 
L 1223.18138 278.972075 
L 1232.587102 306.012442 
L 1241.992824 292.083378 
L 1251.398547 277.522408 
L 1260.804269 262.65278 
L 1270.209991 281.180386 
L 1279.615713 298.058633 
L 1289.021435 272.934713 
L 1298.427157 198.0963 
L 1307.832879 293.16418 
L 1317.238601 291.982004 
L 1326.644323 212.281703 
L 1336.050045 263.499947 
L 1345.455768 272.457868 
L 1354.86149 209.364189 
L 1364.267212 280.655851 
L 1373.672934 227.047588 
L 1383.078656 277.995469 
L 1392.484378 263.802633 
L 1401.8901 255.131096 
L 1411.295822 241.408712 
L 1420.701544 261.218076 
" style="fill:none;stroke:#2d1e3e;stroke-linecap:square;stroke-width:1.5;"/>
   </g>
   <g id="patch_12">
    <path d="M 1124.421298 330.239063 
L 1124.421298 36.839063 
" style="fill:none;stroke:#000000;stroke-linecap:square;stroke-linejoin:miter;stroke-width:0.8;"/>
   </g>
   <g id="patch_13">
    <path d="M 1124.421298 330.239063 
L 1434.810127 330.239063 
" style="fill:none;stroke:#000000;stroke-linecap:square;stroke-linejoin:miter;stroke-width:0.8;"/>
   </g>
   <g id="text_68">
    <!-- loss = adj -->
    <defs>
     <path d="M 45.40625 46.390625 
L 45.40625 75.984375 
L 54.390625 75.984375 
L 54.390625 0 
L 45.40625 0 
L 45.40625 8.203125 
Q 42.578125 3.328125 38.25 0.953125 
Q 33.9375 -1.421875 27.875 -1.421875 
Q 17.96875 -1.421875 11.734375 6.484375 
Q 5.515625 14.40625 5.515625 27.296875 
Q 5.515625 40.1875 11.734375 48.09375 
Q 17.96875 56 27.875 56 
Q 33.9375 56 38.25 53.625 
Q 42.578125 51.265625 45.40625 46.390625 
z
M 14.796875 27.296875 
Q 14.796875 17.390625 18.875 11.75 
Q 22.953125 6.109375 30.078125 6.109375 
Q 37.203125 6.109375 41.296875 11.75 
Q 45.40625 17.390625 45.40625 27.296875 
Q 45.40625 37.203125 41.296875 42.84375 
Q 37.203125 48.484375 30.078125 48.484375 
Q 22.953125 48.484375 18.875 42.84375 
Q 14.796875 37.203125 14.796875 27.296875 
z
" id="DejaVuSans-100"/>
     <path d="M 9.421875 54.6875 
L 18.40625 54.6875 
L 18.40625 -0.984375 
Q 18.40625 -11.421875 14.421875 -16.109375 
Q 10.453125 -20.796875 1.609375 -20.796875 
L -1.8125 -20.796875 
L -1.8125 -13.1875 
L 0.59375 -13.1875 
Q 5.71875 -13.1875 7.5625 -10.8125 
Q 9.421875 -8.453125 9.421875 -0.984375 
z
M 9.421875 75.984375 
L 18.40625 75.984375 
L 18.40625 64.59375 
L 9.421875 64.59375 
z
" id="DejaVuSans-106"/>
    </defs>
    <g transform="translate(1254.962588 30.839063)scale(0.1 -0.1)">
     <use xlink:href="#DejaVuSans-108"/>
     <use x="27.783203" xlink:href="#DejaVuSans-111"/>
     <use x="88.964844" xlink:href="#DejaVuSans-115"/>
     <use x="141.064453" xlink:href="#DejaVuSans-115"/>
     <use x="193.164062" xlink:href="#DejaVuSans-32"/>
     <use x="224.951172" xlink:href="#DejaVuSans-61"/>
     <use x="308.740234" xlink:href="#DejaVuSans-32"/>
     <use x="340.527344" xlink:href="#DejaVuSans-97"/>
     <use x="401.806641" xlink:href="#DejaVuSans-100"/>
     <use x="465.283203" xlink:href="#DejaVuSans-106"/>
    </g>
   </g>
  </g>
  <g id="axes_5">
   <g id="patch_14">
    <path d="M 1478.206171 330.239063 
L 1788.595 330.239063 
L 1788.595 36.839063 
L 1478.206171 36.839063 
z
" style="fill:#ffffff;"/>
   </g>
   <g id="PolyCollection_13">
    <defs>
     <path d="M 1628.697724 -202.566654 
L 1628.697724 -175.21839 
L 1638.103446 -175.853999 
L 1638.103446 -203.472489 
L 1638.103446 -203.472489 
L 1628.697724 -202.566654 
z
" id="m552afe843f" style="stroke:#edd1cb;stroke-opacity:0.2;"/>
    </defs>
    <g clip-path="url(#pd851ca0ec9)">
     <use style="fill:#edd1cb;fill-opacity:0.2;stroke:#edd1cb;stroke-opacity:0.2;" x="0" xlink:href="#m552afe843f" y="367.795313"/>
    </g>
   </g>
   <g id="PolyCollection_14">
    <defs>
     <path d="M 1558.154809 -134.886784 
L 1558.154809 -119.289696 
L 1567.560531 -120.025117 
L 1576.966253 -123.669089 
L 1586.371975 -122.566328 
L 1595.777697 -124.879931 
L 1605.183419 -124.97047 
L 1614.589141 -126.233083 
L 1623.994863 -140.063898 
L 1633.400585 -140.810409 
L 1642.806307 -146.789314 
L 1652.21203 -152.556384 
L 1661.617752 -154.819501 
L 1671.023474 -160.650157 
L 1680.429196 -164.112453 
L 1689.834918 -181.509846 
L 1699.24064 -199.75842 
L 1708.646362 -200.008977 
L 1708.646362 -215.803606 
L 1708.646362 -215.803606 
L 1699.24064 -220.45187 
L 1689.834918 -198.324794 
L 1680.429196 -188.827591 
L 1671.023474 -177.633364 
L 1661.617752 -178.011968 
L 1652.21203 -177.514856 
L 1642.806307 -180.78794 
L 1633.400585 -160.579147 
L 1623.994863 -153.979556 
L 1614.589141 -151.677844 
L 1605.183419 -152.781359 
L 1595.777697 -155.333904 
L 1586.371975 -149.520507 
L 1576.966253 -146.235663 
L 1567.560531 -154.687469 
L 1558.154809 -134.886784 
z
" id="m912c0fb343" style="stroke:#a9678f;stroke-opacity:0.2;"/>
    </defs>
    <g clip-path="url(#pd851ca0ec9)">
     <use style="fill:#a9678f;fill-opacity:0.2;stroke:#a9678f;stroke-opacity:0.2;" x="0" xlink:href="#m912c0fb343" y="367.795313"/>
    </g>
   </g>
   <g id="PolyCollection_15">
    <defs>
     <path d="M 1492.314754 -64.286918 
L 1492.314754 -52.265145 
L 1501.720476 -59.390197 
L 1511.126198 -50.892614 
L 1520.53192 -58.465743 
L 1529.937642 -57.636731 
L 1539.343364 -56.905243 
L 1548.749086 -62.735789 
L 1558.154809 -58.646546 
L 1567.560531 -64.342126 
L 1576.966253 -66.336867 
L 1586.371975 -63.659409 
L 1595.777697 -62.652656 
L 1605.183419 -67.438241 
L 1614.589141 -68.168666 
L 1623.994863 -70.018613 
L 1633.400585 -74.539501 
L 1642.806307 -72.13599 
L 1652.21203 -76.822359 
L 1661.617752 -80.791418 
L 1671.023474 -87.475665 
L 1680.429196 -87.859258 
L 1689.834918 -89.086675 
L 1699.24064 -97.928668 
L 1708.646362 -114.106131 
L 1718.052084 -109.598812 
L 1727.457806 -130.133439 
L 1736.863528 -166.05978 
L 1746.269251 -169.740345 
L 1755.674973 -217.43211 
L 1765.080695 -273.616306 
L 1774.486417 -317.263176 
L 1774.486417 -317.619886 
L 1774.486417 -317.619886 
L 1765.080695 -294.615233 
L 1755.674973 -252.002528 
L 1746.269251 -219.261965 
L 1736.863528 -200.85446 
L 1727.457806 -169.702115 
L 1718.052084 -145.866193 
L 1708.646362 -142.931654 
L 1699.24064 -112.011475 
L 1689.834918 -111.081769 
L 1680.429196 -105.807648 
L 1671.023474 -105.624897 
L 1661.617752 -95.983876 
L 1652.21203 -97.911525 
L 1642.806307 -85.72079 
L 1633.400585 -87.69936 
L 1623.994863 -82.381654 
L 1614.589141 -76.794922 
L 1605.183419 -82.259486 
L 1595.777697 -87.493119 
L 1586.371975 -79.396061 
L 1576.966253 -80.10802 
L 1567.560531 -83.918465 
L 1558.154809 -66.711801 
L 1548.749086 -73.256712 
L 1539.343364 -67.527446 
L 1529.937642 -76.37112 
L 1520.53192 -73.005263 
L 1511.126198 -68.079965 
L 1501.720476 -79.738522 
L 1492.314754 -64.286918 
z
" id="mb3129a37eb" style="stroke:#2d1e3e;stroke-opacity:0.2;"/>
    </defs>
    <g clip-path="url(#pd851ca0ec9)">
     <use style="fill:#2d1e3e;fill-opacity:0.2;stroke:#2d1e3e;stroke-opacity:0.2;" x="0" xlink:href="#mb3129a37eb" y="367.795313"/>
    </g>
   </g>
   <g id="matplotlib.axis_9">
    <g id="xtick_29">
     <g id="line2d_76">
      <g>
       <use style="stroke:#000000;stroke-width:0.8;" x="1492.314754" xlink:href="#md40de89b41" y="330.239063"/>
      </g>
     </g>
     <g id="text_69">
      <!-- −15 -->
      <g transform="translate(1481.76241 344.8375)scale(0.1 -0.1)">
       <use xlink:href="#DejaVuSans-8722"/>
       <use x="83.789062" xlink:href="#DejaVuSans-49"/>
       <use x="147.412109" xlink:href="#DejaVuSans-53"/>
      </g>
     </g>
    </g>
    <g id="xtick_30">
     <g id="line2d_77">
      <g>
       <use style="stroke:#000000;stroke-width:0.8;" x="1539.343364" xlink:href="#md40de89b41" y="330.239063"/>
      </g>
     </g>
     <g id="text_70">
      <!-- −10 -->
      <g transform="translate(1528.791021 344.8375)scale(0.1 -0.1)">
       <use xlink:href="#DejaVuSans-8722"/>
       <use x="83.789062" xlink:href="#DejaVuSans-49"/>
       <use x="147.412109" xlink:href="#DejaVuSans-48"/>
      </g>
     </g>
    </g>
    <g id="xtick_31">
     <g id="line2d_78">
      <g>
       <use style="stroke:#000000;stroke-width:0.8;" x="1586.371975" xlink:href="#md40de89b41" y="330.239063"/>
      </g>
     </g>
     <g id="text_71">
      <!-- −5 -->
      <g transform="translate(1579.000881 344.8375)scale(0.1 -0.1)">
       <use xlink:href="#DejaVuSans-8722"/>
       <use x="83.789062" xlink:href="#DejaVuSans-53"/>
      </g>
     </g>
    </g>
    <g id="xtick_32">
     <g id="line2d_79">
      <g>
       <use style="stroke:#000000;stroke-width:0.8;" x="1633.400585" xlink:href="#md40de89b41" y="330.239063"/>
      </g>
     </g>
     <g id="text_72">
      <!-- 0 -->
      <g transform="translate(1630.219335 344.8375)scale(0.1 -0.1)">
       <use xlink:href="#DejaVuSans-48"/>
      </g>
     </g>
    </g>
    <g id="xtick_33">
     <g id="line2d_80">
      <g>
       <use style="stroke:#000000;stroke-width:0.8;" x="1680.429196" xlink:href="#md40de89b41" y="330.239063"/>
      </g>
     </g>
     <g id="text_73">
      <!-- 5 -->
      <g transform="translate(1677.247946 344.8375)scale(0.1 -0.1)">
       <use xlink:href="#DejaVuSans-53"/>
      </g>
     </g>
    </g>
    <g id="xtick_34">
     <g id="line2d_81">
      <g>
       <use style="stroke:#000000;stroke-width:0.8;" x="1727.457806" xlink:href="#md40de89b41" y="330.239063"/>
      </g>
     </g>
     <g id="text_74">
      <!-- 10 -->
      <g transform="translate(1721.095306 344.8375)scale(0.1 -0.1)">
       <use xlink:href="#DejaVuSans-49"/>
       <use x="63.623047" xlink:href="#DejaVuSans-48"/>
      </g>
     </g>
    </g>
    <g id="xtick_35">
     <g id="line2d_82">
      <g>
       <use style="stroke:#000000;stroke-width:0.8;" x="1774.486417" xlink:href="#md40de89b41" y="330.239063"/>
      </g>
     </g>
     <g id="text_75">
      <!-- 15 -->
      <g transform="translate(1768.123917 344.8375)scale(0.1 -0.1)">
       <use xlink:href="#DejaVuSans-49"/>
       <use x="63.623047" xlink:href="#DejaVuSans-53"/>
      </g>
     </g>
    </g>
    <g id="text_76">
     <!-- spill -->
     <g transform="translate(1623.454492 358.515625)scale(0.1 -0.1)">
      <use xlink:href="#DejaVuSans-115"/>
      <use x="52.099609" xlink:href="#DejaVuSans-112"/>
      <use x="115.576172" xlink:href="#DejaVuSans-105"/>
      <use x="143.359375" xlink:href="#DejaVuSans-108"/>
      <use x="171.142578" xlink:href="#DejaVuSans-108"/>
     </g>
    </g>
   </g>
   <g id="matplotlib.axis_10">
    <g id="ytick_32">
     <g id="line2d_83">
      <g>
       <use style="stroke:#000000;stroke-width:0.8;" x="1478.206171" xlink:href="#m9654e74045" y="329.859756"/>
      </g>
     </g>
     <g id="text_77">
      <!-- 0.3 -->
      <g transform="translate(1455.303046 333.658975)scale(0.1 -0.1)">
       <use xlink:href="#DejaVuSans-48"/>
       <use x="63.623047" xlink:href="#DejaVuSans-46"/>
       <use x="95.410156" xlink:href="#DejaVuSans-51"/>
      </g>
     </g>
    </g>
    <g id="ytick_33">
     <g id="line2d_84">
      <g>
       <use style="stroke:#000000;stroke-width:0.8;" x="1478.206171" xlink:href="#m9654e74045" y="265.683298"/>
      </g>
     </g>
     <g id="text_78">
      <!-- 0.4 -->
      <g transform="translate(1455.303046 269.482516)scale(0.1 -0.1)">
       <use xlink:href="#DejaVuSans-48"/>
       <use x="63.623047" xlink:href="#DejaVuSans-46"/>
       <use x="95.410156" xlink:href="#DejaVuSans-52"/>
      </g>
     </g>
    </g>
    <g id="ytick_34">
     <g id="line2d_85">
      <g>
       <use style="stroke:#000000;stroke-width:0.8;" x="1478.206171" xlink:href="#m9654e74045" y="201.506839"/>
      </g>
     </g>
     <g id="text_79">
      <!-- 0.5 -->
      <g transform="translate(1455.303046 205.306058)scale(0.1 -0.1)">
       <use xlink:href="#DejaVuSans-48"/>
       <use x="63.623047" xlink:href="#DejaVuSans-46"/>
       <use x="95.410156" xlink:href="#DejaVuSans-53"/>
      </g>
     </g>
    </g>
    <g id="ytick_35">
     <g id="line2d_86">
      <g>
       <use style="stroke:#000000;stroke-width:0.8;" x="1478.206171" xlink:href="#m9654e74045" y="137.330381"/>
      </g>
     </g>
     <g id="text_80">
      <!-- 0.6 -->
      <g transform="translate(1455.303046 141.1296)scale(0.1 -0.1)">
       <use xlink:href="#DejaVuSans-48"/>
       <use x="63.623047" xlink:href="#DejaVuSans-46"/>
       <use x="95.410156" xlink:href="#DejaVuSans-54"/>
      </g>
     </g>
    </g>
    <g id="ytick_36">
     <g id="line2d_87">
      <g>
       <use style="stroke:#000000;stroke-width:0.8;" x="1478.206171" xlink:href="#m9654e74045" y="73.153923"/>
      </g>
     </g>
     <g id="text_81">
      <!-- 0.7 -->
      <g transform="translate(1455.303046 76.953141)scale(0.1 -0.1)">
       <use xlink:href="#DejaVuSans-48"/>
       <use x="63.623047" xlink:href="#DejaVuSans-46"/>
       <use x="95.410156" xlink:href="#DejaVuSans-55"/>
      </g>
     </g>
    </g>
   </g>
   <g id="line2d_88">
    <path clip-path="url(#pd851ca0ec9)" d="M 1628.697724 178.995357 
L 1638.103446 178.995357 
" style="fill:none;stroke:#edd1cb;stroke-linecap:square;stroke-width:1.5;"/>
   </g>
   <g id="line2d_89">
    <path clip-path="url(#pd851ca0ec9)" d="M 1558.154809 241.181586 
L 1567.560531 231.756765 
L 1576.966253 232.931034 
L 1586.371975 232.190356 
L 1595.777697 228.436691 
L 1605.183419 229.915905 
L 1614.589141 229.634673 
L 1623.994863 220.378929 
L 1633.400585 217.069229 
L 1642.806307 207.274424 
L 1652.21203 203.483192 
L 1661.617752 201.603517 
L 1671.023474 199.327545 
L 1680.429196 191.697326 
L 1689.834918 178.001166 
L 1699.24064 157.416662 
L 1708.646362 160.337164 
" style="fill:none;stroke:#a9678f;stroke-linecap:square;stroke-width:1.5;"/>
   </g>
   <g id="line2d_90">
    <path clip-path="url(#pd851ca0ec9)" d="M 1492.314754 309.244473 
L 1501.720476 299.0716 
L 1511.126198 309.42694 
L 1520.53192 302.835438 
L 1529.937642 300.772419 
L 1539.343364 305.421353 
L 1548.749086 300.122611 
L 1558.154809 305.200764 
L 1567.560531 294.115191 
L 1576.966253 294.810956 
L 1586.371975 297.134226 
L 1595.777697 293.188273 
L 1605.183419 292.235655 
L 1614.589141 295.498181 
L 1623.994863 291.394167 
L 1633.400585 286.933419 
L 1642.806307 288.435557 
L 1652.21203 281.646022 
L 1661.617752 279.643027 
L 1671.023474 271.353207 
L 1680.429196 270.949376 
L 1689.834918 268.916628 
L 1699.24064 263.048116 
L 1708.646362 240.422208 
L 1718.052084 241.929025 
L 1727.457806 219.650749 
L 1736.863528 185.816446 
L 1746.269251 173.632248 
L 1755.674973 135.214631 
L 1765.080695 84.508407 
L 1774.486417 50.347519 
" style="fill:none;stroke:#2d1e3e;stroke-linecap:square;stroke-width:1.5;"/>
   </g>
   <g id="patch_15">
    <path d="M 1478.206171 330.239063 
L 1478.206171 36.839063 
" style="fill:none;stroke:#000000;stroke-linecap:square;stroke-linejoin:miter;stroke-width:0.8;"/>
   </g>
   <g id="patch_16">
    <path d="M 1478.206171 330.239063 
L 1788.595 330.239063 
" style="fill:none;stroke:#000000;stroke-linecap:square;stroke-linejoin:miter;stroke-width:0.8;"/>
   </g>
   <g id="text_82">
    <!-- loss = feat -->
    <defs>
     <path d="M 56.203125 29.59375 
L 56.203125 25.203125 
L 14.890625 25.203125 
Q 15.484375 15.921875 20.484375 11.0625 
Q 25.484375 6.203125 34.421875 6.203125 
Q 39.59375 6.203125 44.453125 7.46875 
Q 49.3125 8.734375 54.109375 11.28125 
L 54.109375 2.78125 
Q 49.265625 0.734375 44.1875 -0.34375 
Q 39.109375 -1.421875 33.890625 -1.421875 
Q 20.796875 -1.421875 13.15625 6.1875 
Q 5.515625 13.8125 5.515625 26.8125 
Q 5.515625 40.234375 12.765625 48.109375 
Q 20.015625 56 32.328125 56 
Q 43.359375 56 49.78125 48.890625 
Q 56.203125 41.796875 56.203125 29.59375 
z
M 47.21875 32.234375 
Q 47.125 39.59375 43.09375 43.984375 
Q 39.0625 48.390625 32.421875 48.390625 
Q 24.90625 48.390625 20.390625 44.140625 
Q 15.875 39.890625 15.1875 32.171875 
z
" id="DejaVuSans-101"/>
    </defs>
    <g transform="translate(1606.513867 30.839063)scale(0.1 -0.1)">
     <use xlink:href="#DejaVuSans-108"/>
     <use x="27.783203" xlink:href="#DejaVuSans-111"/>
     <use x="88.964844" xlink:href="#DejaVuSans-115"/>
     <use x="141.064453" xlink:href="#DejaVuSans-115"/>
     <use x="193.164062" xlink:href="#DejaVuSans-32"/>
     <use x="224.951172" xlink:href="#DejaVuSans-61"/>
     <use x="308.740234" xlink:href="#DejaVuSans-32"/>
     <use x="340.527344" xlink:href="#DejaVuSans-102"/>
     <use x="375.732422" xlink:href="#DejaVuSans-101"/>
     <use x="437.255859" xlink:href="#DejaVuSans-97"/>
     <use x="498.535156" xlink:href="#DejaVuSans-116"/>
    </g>
   </g>
  </g>
  <g id="text_83">
   <g id="patch_17">
    <path d="M 3.2 20.878125 
L 103.720313 20.878125 
L 103.720313 3.2 
L 3.2 3.2 
z
" style="fill:none;stroke:#8b0000;stroke-linejoin:miter;"/>
   </g>
   <!-- dataset = citeseer -->
   <g style="fill:#8b0000;" transform="translate(7.2 14.798437)scale(0.1 -0.1)">
    <use xlink:href="#DejaVuSans-100"/>
    <use x="63.476562" xlink:href="#DejaVuSans-97"/>
    <use x="124.755859" xlink:href="#DejaVuSans-116"/>
    <use x="163.964844" xlink:href="#DejaVuSans-97"/>
    <use x="225.244141" xlink:href="#DejaVuSans-115"/>
    <use x="277.34375" xlink:href="#DejaVuSans-101"/>
    <use x="338.867188" xlink:href="#DejaVuSans-116"/>
    <use x="378.076172" xlink:href="#DejaVuSans-32"/>
    <use x="409.863281" xlink:href="#DejaVuSans-61"/>
    <use x="493.652344" xlink:href="#DejaVuSans-32"/>
    <use x="525.439453" xlink:href="#DejaVuSans-99"/>
    <use x="580.419922" xlink:href="#DejaVuSans-105"/>
    <use x="608.203125" xlink:href="#DejaVuSans-116"/>
    <use x="647.412109" xlink:href="#DejaVuSans-101"/>
    <use x="708.935547" xlink:href="#DejaVuSans-115"/>
    <use x="761.035156" xlink:href="#DejaVuSans-101"/>
    <use x="822.558594" xlink:href="#DejaVuSans-101"/>
    <use x="884.082031" xlink:href="#DejaVuSans-114"/>
   </g>
  </g>
  <g id="legend_1">
   <g id="line2d_91">
    <path d="M 1808.45625 161.129688 
L 1828.45625 161.129688 
" style="fill:none;"/>
   </g>
   <g id="line2d_92"/>
   <g id="text_84">
    <!-- dimξ -->
    <defs>
     <path d="M 35.640625 6.203125 
Q 42.09375 6.15625 45.953125 2.484375 
Q 50.046875 -1.375 50.046875 -7.234375 
Q 50.046875 -12.84375 46.4375 -16.75 
Q 42.53125 -21 34.578125 -21 
Q 34.578125 -17.328125 34.578125 -13.625 
Q 37.9375 -13.875 39.984375 -11.71875 
Q 41.546875 -10.015625 41.546875 -8.203125 
Q 41.546875 -5.609375 39.984375 -3.46875 
Q 38.484375 -1.421875 35.640625 -1.421875 
Q 5.21875 -1.421875 5.21875 19.921875 
Q 5.21875 34.578125 21.484375 38.875 
Q 7.8125 40.625 7.8125 53.328125 
Q 7.8125 62.9375 18.5625 66.9375 
L 8.40625 66.9375 
L 8.40625 75.984375 
L 46.921875 75.984375 
L 46.921875 66.9375 
Q 16.21875 66.9375 16.21875 52.734375 
Q 16.21875 43.40625 42 42.96875 
L 42 34.671875 
Q 14.15625 35.75 14.265625 19.921875 
Q 14.3125 6.6875 35.640625 6.203125 
z
" id="DejaVuSans-958"/>
    </defs>
    <g transform="translate(1836.45625 164.629688)scale(0.1 -0.1)">
     <use xlink:href="#DejaVuSans-100"/>
     <use x="63.476562" xlink:href="#DejaVuSans-105"/>
     <use x="91.259766" xlink:href="#DejaVuSans-109"/>
     <use x="188.671875" xlink:href="#DejaVuSans-958"/>
    </g>
   </g>
   <g id="line2d_93">
    <path d="M 1808.45625 175.828125 
L 1828.45625 175.828125 
" style="fill:none;stroke:#edd1cb;stroke-linecap:square;stroke-width:1.5;"/>
   </g>
   <g id="line2d_94"/>
   <g id="text_85">
    <!-- 16 -->
    <g transform="translate(1836.45625 179.328125)scale(0.1 -0.1)">
     <use xlink:href="#DejaVuSans-49"/>
     <use x="63.623047" xlink:href="#DejaVuSans-54"/>
    </g>
   </g>
   <g id="line2d_95">
    <path d="M 1808.45625 190.50625 
L 1828.45625 190.50625 
" style="fill:none;stroke:#a9678f;stroke-linecap:square;stroke-width:1.5;"/>
   </g>
   <g id="line2d_96"/>
   <g id="text_86">
    <!-- 24 -->
    <g transform="translate(1836.45625 194.00625)scale(0.1 -0.1)">
     <use xlink:href="#DejaVuSans-50"/>
     <use x="63.623047" xlink:href="#DejaVuSans-52"/>
    </g>
   </g>
   <g id="line2d_97">
    <path d="M 1808.45625 205.184375 
L 1828.45625 205.184375 
" style="fill:none;stroke:#2d1e3e;stroke-linecap:square;stroke-width:1.5;"/>
   </g>
   <g id="line2d_98"/>
   <g id="text_87">
    <!-- 32 -->
    <g transform="translate(1836.45625 208.684375)scale(0.1 -0.1)">
     <use xlink:href="#DejaVuSans-51"/>
     <use x="63.623047" xlink:href="#DejaVuSans-50"/>
    </g>
   </g>
  </g>
 </g>
 <defs>
  <clipPath id="p411d81d051">
   <rect height="293.4" width="310.388829" x="63.066681" y="36.839063"/>
  </clipPath>
  <clipPath id="p9c1bcfd4c3">
   <rect height="293.4" width="310.388829" x="416.851553" y="36.839063"/>
  </clipPath>
  <clipPath id="p03fd019ab5">
   <rect height="293.4" width="310.388829" x="770.636426" y="36.839063"/>
  </clipPath>
  <clipPath id="p2dbc8d8a1c">
   <rect height="293.4" width="310.388829" x="1124.421298" y="36.839063"/>
  </clipPath>
  <clipPath id="pd851ca0ec9">
   <rect height="293.4" width="310.388829" x="1478.206171" y="36.839063"/>
  </clipPath>
 </defs>
</svg>
