<?xml version="1.0" encoding="utf-8" standalone="no"?>
<!DOCTYPE svg PUBLIC "-//W3C//DTD SVG 1.1//EN"
  "http://www.w3.org/Graphics/SVG/1.1/DTD/svg11.dtd">
<!-- Created with matplotlib (https://matplotlib.org/) -->
<svg height="367.795313pt" version="1.1" viewBox="0 0 1869.9 367.795313" width="1869.9pt" xmlns="http://www.w3.org/2000/svg" xmlns:xlink="http://www.w3.org/1999/xlink">
 <defs>
  <style type="text/css">
*{stroke-linecap:butt;stroke-linejoin:round;}
  </style>
 </defs>
 <g id="figure_1">
  <g id="patch_1">
   <path d="M 0 367.795313 
L 1869.9 367.795313 
L 1869.9 0 
L 0 0 
z
" style="fill:#ffffff;"/>
  </g>
  <g id="axes_1">
   <g id="patch_2">
    <path d="M 69.655951 330.239063 
L 378.731709 330.239063 
L 378.731709 36.839063 
L 69.655951 36.839063 
z
" style="fill:#ffffff;"/>
   </g>
   <g id="PolyCollection_1">
    <defs>
     <path d="M 219.510864 -312.611573 
L 219.510864 -296.927348 
L 228.876796 -295.870591 
L 228.876796 -313.149913 
L 228.876796 -313.149913 
L 219.510864 -312.611573 
z
" id="mb080e5d415" style="stroke:#edd1cb;stroke-opacity:0.2;"/>
    </defs>
    <g clip-path="url(#p3b48476c99)">
     <use style="fill:#edd1cb;fill-opacity:0.2;stroke:#edd1cb;stroke-opacity:0.2;" x="0" xlink:href="#mb080e5d415" y="367.795313"/>
    </g>
   </g>
   <g id="PolyCollection_2">
    <defs>
     <path d="M 149.266374 -297.412476 
L 149.266374 -277.781547 
L 158.632306 -294.163844 
L 167.998238 -292.44246 
L 177.36417 -291.815782 
L 186.730102 -286.683096 
L 196.096034 -299.003049 
L 205.461966 -296.660987 
L 214.827898 -286.95491 
L 224.19383 -289.763135 
L 233.559762 -282.846864 
L 242.925694 -291.12765 
L 252.291626 -304.492107 
L 261.657558 -290.577129 
L 271.02349 -296.72153 
L 280.389422 -278.486374 
L 289.755354 -295.37684 
L 299.121286 -284.702783 
L 299.121286 -310.788771 
L 299.121286 -310.788771 
L 289.755354 -310.316534 
L 280.389422 -308.754976 
L 271.02349 -315.473157 
L 261.657558 -307.416333 
L 252.291626 -317.619886 
L 242.925694 -303.493006 
L 233.559762 -306.828454 
L 224.19383 -312.536117 
L 214.827898 -310.11034 
L 205.461966 -311.110063 
L 196.096034 -309.902136 
L 186.730102 -306.167571 
L 177.36417 -308.722298 
L 167.998238 -303.451176 
L 158.632306 -304.807532 
L 149.266374 -297.412476 
z
" id="mc394fbc312" style="stroke:#a9678f;stroke-opacity:0.2;"/>
    </defs>
    <g clip-path="url(#p3b48476c99)">
     <use style="fill:#a9678f;fill-opacity:0.2;stroke:#a9678f;stroke-opacity:0.2;" x="0" xlink:href="#mc394fbc312" y="367.795313"/>
    </g>
   </g>
   <g id="PolyCollection_3">
    <defs>
     <path d="M 83.704849 -103.116594 
L 83.704849 -50.892614 
L 93.070781 -176.03521 
L 102.436714 -232.56611 
L 111.802646 -253.962988 
L 121.168578 -273.608251 
L 130.53451 -280.166944 
L 139.900442 -269.943945 
L 149.266374 -270.370131 
L 158.632306 -283.033939 
L 167.998238 -281.204777 
L 177.36417 -275.815969 
L 186.730102 -278.106758 
L 196.096034 -278.774434 
L 205.461966 -281.197719 
L 214.827898 -273.327954 
L 224.19383 -286.119803 
L 233.559762 -270.930232 
L 242.925694 -285.005279 
L 252.291626 -283.670302 
L 261.657558 -275.880886 
L 271.02349 -279.029884 
L 280.389422 -267.953109 
L 289.755354 -262.164574 
L 299.121286 -282.815145 
L 308.487218 -273.982431 
L 317.85315 -280.203411 
L 327.219082 -275.804463 
L 336.585014 -262.205362 
L 345.950946 -244.21376 
L 355.316878 -271.667694 
L 364.682811 -278.283614 
L 364.682811 -304.360042 
L 364.682811 -304.360042 
L 355.316878 -292.752333 
L 345.950946 -275.674483 
L 336.585014 -291.553461 
L 327.219082 -296.740139 
L 317.85315 -299.673113 
L 308.487218 -296.563596 
L 299.121286 -294.051896 
L 289.755354 -287.03133 
L 280.389422 -297.530758 
L 271.02349 -295.636355 
L 261.657558 -298.559087 
L 252.291626 -293.790464 
L 242.925694 -296.873764 
L 233.559762 -291.600881 
L 224.19383 -298.766398 
L 214.827898 -297.110793 
L 205.461966 -298.974931 
L 196.096034 -296.423336 
L 186.730102 -297.135285 
L 177.36417 -291.342071 
L 167.998238 -295.05951 
L 158.632306 -300.791408 
L 149.266374 -288.073073 
L 139.900442 -298.59921 
L 130.53451 -293.576665 
L 121.168578 -289.653729 
L 111.802646 -274.197687 
L 102.436714 -260.734025 
L 93.070781 -201.880197 
L 83.704849 -103.116594 
z
" id="m1f80db3c19" style="stroke:#2d1e3e;stroke-opacity:0.2;"/>
    </defs>
    <g clip-path="url(#p3b48476c99)">
     <use style="fill:#2d1e3e;fill-opacity:0.2;stroke:#2d1e3e;stroke-opacity:0.2;" x="0" xlink:href="#m1f80db3c19" y="367.795313"/>
    </g>
   </g>
   <g id="matplotlib.axis_1">
    <g id="xtick_1">
     <g id="line2d_1">
      <defs>
       <path d="M 0 0 
L 0 3.5 
" id="m8e89f1de2f" style="stroke:#000000;stroke-width:0.8;"/>
      </defs>
      <g>
       <use style="stroke:#000000;stroke-width:0.8;" x="83.704849" xlink:href="#m8e89f1de2f" y="330.239063"/>
      </g>
     </g>
     <g id="text_1">
      <!-- −15 -->
      <defs>
       <path d="M 10.59375 35.5 
L 73.1875 35.5 
L 73.1875 27.203125 
L 10.59375 27.203125 
z
" id="DejaVuSans-8722"/>
       <path d="M 12.40625 8.296875 
L 28.515625 8.296875 
L 28.515625 63.921875 
L 10.984375 60.40625 
L 10.984375 69.390625 
L 28.421875 72.90625 
L 38.28125 72.90625 
L 38.28125 8.296875 
L 54.390625 8.296875 
L 54.390625 0 
L 12.40625 0 
z
" id="DejaVuSans-49"/>
       <path d="M 10.796875 72.90625 
L 49.515625 72.90625 
L 49.515625 64.59375 
L 19.828125 64.59375 
L 19.828125 46.734375 
Q 21.96875 47.46875 24.109375 47.828125 
Q 26.265625 48.1875 28.421875 48.1875 
Q 40.625 48.1875 47.75 41.5 
Q 54.890625 34.8125 54.890625 23.390625 
Q 54.890625 11.625 47.5625 5.09375 
Q 40.234375 -1.421875 26.90625 -1.421875 
Q 22.3125 -1.421875 17.546875 -0.640625 
Q 12.796875 0.140625 7.71875 1.703125 
L 7.71875 11.625 
Q 12.109375 9.234375 16.796875 8.0625 
Q 21.484375 6.890625 26.703125 6.890625 
Q 35.15625 6.890625 40.078125 11.328125 
Q 45.015625 15.765625 45.015625 23.390625 
Q 45.015625 31 40.078125 35.4375 
Q 35.15625 39.890625 26.703125 39.890625 
Q 22.75 39.890625 18.8125 39.015625 
Q 14.890625 38.140625 10.796875 36.28125 
z
" id="DejaVuSans-53"/>
      </defs>
      <g transform="translate(73.152506 344.8375)scale(0.1 -0.1)">
       <use xlink:href="#DejaVuSans-8722"/>
       <use x="83.789062" xlink:href="#DejaVuSans-49"/>
       <use x="147.412109" xlink:href="#DejaVuSans-53"/>
      </g>
     </g>
    </g>
    <g id="xtick_2">
     <g id="line2d_2">
      <g>
       <use style="stroke:#000000;stroke-width:0.8;" x="130.53451" xlink:href="#m8e89f1de2f" y="330.239063"/>
      </g>
     </g>
     <g id="text_2">
      <!-- −10 -->
      <defs>
       <path d="M 31.78125 66.40625 
Q 24.171875 66.40625 20.328125 58.90625 
Q 16.5 51.421875 16.5 36.375 
Q 16.5 21.390625 20.328125 13.890625 
Q 24.171875 6.390625 31.78125 6.390625 
Q 39.453125 6.390625 43.28125 13.890625 
Q 47.125 21.390625 47.125 36.375 
Q 47.125 51.421875 43.28125 58.90625 
Q 39.453125 66.40625 31.78125 66.40625 
z
M 31.78125 74.21875 
Q 44.046875 74.21875 50.515625 64.515625 
Q 56.984375 54.828125 56.984375 36.375 
Q 56.984375 17.96875 50.515625 8.265625 
Q 44.046875 -1.421875 31.78125 -1.421875 
Q 19.53125 -1.421875 13.0625 8.265625 
Q 6.59375 17.96875 6.59375 36.375 
Q 6.59375 54.828125 13.0625 64.515625 
Q 19.53125 74.21875 31.78125 74.21875 
z
" id="DejaVuSans-48"/>
      </defs>
      <g transform="translate(119.982166 344.8375)scale(0.1 -0.1)">
       <use xlink:href="#DejaVuSans-8722"/>
       <use x="83.789062" xlink:href="#DejaVuSans-49"/>
       <use x="147.412109" xlink:href="#DejaVuSans-48"/>
      </g>
     </g>
    </g>
    <g id="xtick_3">
     <g id="line2d_3">
      <g>
       <use style="stroke:#000000;stroke-width:0.8;" x="177.36417" xlink:href="#m8e89f1de2f" y="330.239063"/>
      </g>
     </g>
     <g id="text_3">
      <!-- −5 -->
      <g transform="translate(169.993076 344.8375)scale(0.1 -0.1)">
       <use xlink:href="#DejaVuSans-8722"/>
       <use x="83.789062" xlink:href="#DejaVuSans-53"/>
      </g>
     </g>
    </g>
    <g id="xtick_4">
     <g id="line2d_4">
      <g>
       <use style="stroke:#000000;stroke-width:0.8;" x="224.19383" xlink:href="#m8e89f1de2f" y="330.239063"/>
      </g>
     </g>
     <g id="text_4">
      <!-- 0 -->
      <g transform="translate(221.01258 344.8375)scale(0.1 -0.1)">
       <use xlink:href="#DejaVuSans-48"/>
      </g>
     </g>
    </g>
    <g id="xtick_5">
     <g id="line2d_5">
      <g>
       <use style="stroke:#000000;stroke-width:0.8;" x="271.02349" xlink:href="#m8e89f1de2f" y="330.239063"/>
      </g>
     </g>
     <g id="text_5">
      <!-- 5 -->
      <g transform="translate(267.84224 344.8375)scale(0.1 -0.1)">
       <use xlink:href="#DejaVuSans-53"/>
      </g>
     </g>
    </g>
    <g id="xtick_6">
     <g id="line2d_6">
      <g>
       <use style="stroke:#000000;stroke-width:0.8;" x="317.85315" xlink:href="#m8e89f1de2f" y="330.239063"/>
      </g>
     </g>
     <g id="text_6">
      <!-- 10 -->
      <g transform="translate(311.49065 344.8375)scale(0.1 -0.1)">
       <use xlink:href="#DejaVuSans-49"/>
       <use x="63.623047" xlink:href="#DejaVuSans-48"/>
      </g>
     </g>
    </g>
    <g id="xtick_7">
     <g id="line2d_7">
      <g>
       <use style="stroke:#000000;stroke-width:0.8;" x="364.682811" xlink:href="#m8e89f1de2f" y="330.239063"/>
      </g>
     </g>
     <g id="text_7">
      <!-- 15 -->
      <g transform="translate(358.320311 344.8375)scale(0.1 -0.1)">
       <use xlink:href="#DejaVuSans-49"/>
       <use x="63.623047" xlink:href="#DejaVuSans-53"/>
      </g>
     </g>
    </g>
    <g id="text_8">
     <!-- spill -->
     <defs>
      <path d="M 44.28125 53.078125 
L 44.28125 44.578125 
Q 40.484375 46.53125 36.375 47.5 
Q 32.28125 48.484375 27.875 48.484375 
Q 21.1875 48.484375 17.84375 46.4375 
Q 14.5 44.390625 14.5 40.28125 
Q 14.5 37.15625 16.890625 35.375 
Q 19.28125 33.59375 26.515625 31.984375 
L 29.59375 31.296875 
Q 39.15625 29.25 43.1875 25.515625 
Q 47.21875 21.78125 47.21875 15.09375 
Q 47.21875 7.46875 41.1875 3.015625 
Q 35.15625 -1.421875 24.609375 -1.421875 
Q 20.21875 -1.421875 15.453125 -0.5625 
Q 10.6875 0.296875 5.421875 2 
L 5.421875 11.28125 
Q 10.40625 8.6875 15.234375 7.390625 
Q 20.0625 6.109375 24.8125 6.109375 
Q 31.15625 6.109375 34.5625 8.28125 
Q 37.984375 10.453125 37.984375 14.40625 
Q 37.984375 18.0625 35.515625 20.015625 
Q 33.0625 21.96875 24.703125 23.78125 
L 21.578125 24.515625 
Q 13.234375 26.265625 9.515625 29.90625 
Q 5.8125 33.546875 5.8125 39.890625 
Q 5.8125 47.609375 11.28125 51.796875 
Q 16.75 56 26.8125 56 
Q 31.78125 56 36.171875 55.265625 
Q 40.578125 54.546875 44.28125 53.078125 
z
" id="DejaVuSans-115"/>
      <path d="M 18.109375 8.203125 
L 18.109375 -20.796875 
L 9.078125 -20.796875 
L 9.078125 54.6875 
L 18.109375 54.6875 
L 18.109375 46.390625 
Q 20.953125 51.265625 25.265625 53.625 
Q 29.59375 56 35.59375 56 
Q 45.5625 56 51.78125 48.09375 
Q 58.015625 40.1875 58.015625 27.296875 
Q 58.015625 14.40625 51.78125 6.484375 
Q 45.5625 -1.421875 35.59375 -1.421875 
Q 29.59375 -1.421875 25.265625 0.953125 
Q 20.953125 3.328125 18.109375 8.203125 
z
M 48.6875 27.296875 
Q 48.6875 37.203125 44.609375 42.84375 
Q 40.53125 48.484375 33.40625 48.484375 
Q 26.265625 48.484375 22.1875 42.84375 
Q 18.109375 37.203125 18.109375 27.296875 
Q 18.109375 17.390625 22.1875 11.75 
Q 26.265625 6.109375 33.40625 6.109375 
Q 40.53125 6.109375 44.609375 11.75 
Q 48.6875 17.390625 48.6875 27.296875 
z
" id="DejaVuSans-112"/>
      <path d="M 9.421875 54.6875 
L 18.40625 54.6875 
L 18.40625 0 
L 9.421875 0 
z
M 9.421875 75.984375 
L 18.40625 75.984375 
L 18.40625 64.59375 
L 9.421875 64.59375 
z
" id="DejaVuSans-105"/>
      <path d="M 9.421875 75.984375 
L 18.40625 75.984375 
L 18.40625 0 
L 9.421875 0 
z
" id="DejaVuSans-108"/>
     </defs>
     <g transform="translate(214.247736 358.515625)scale(0.1 -0.1)">
      <use xlink:href="#DejaVuSans-115"/>
      <use x="52.099609" xlink:href="#DejaVuSans-112"/>
      <use x="115.576172" xlink:href="#DejaVuSans-105"/>
      <use x="143.359375" xlink:href="#DejaVuSans-108"/>
      <use x="171.142578" xlink:href="#DejaVuSans-108"/>
     </g>
    </g>
   </g>
   <g id="matplotlib.axis_2">
    <g id="ytick_1">
     <g id="line2d_8">
      <defs>
       <path d="M 0 0 
L -3.5 0 
" id="m9b5cc2be4d" style="stroke:#000000;stroke-width:0.8;"/>
      </defs>
      <g>
       <use style="stroke:#000000;stroke-width:0.8;" x="69.655951" xlink:href="#m9b5cc2be4d" y="306.606051"/>
      </g>
     </g>
     <g id="text_9">
      <!-- 0.725 -->
      <defs>
       <path d="M 10.6875 12.40625 
L 21 12.40625 
L 21 0 
L 10.6875 0 
z
" id="DejaVuSans-46"/>
       <path d="M 8.203125 72.90625 
L 55.078125 72.90625 
L 55.078125 68.703125 
L 28.609375 0 
L 18.3125 0 
L 43.21875 64.59375 
L 8.203125 64.59375 
z
" id="DejaVuSans-55"/>
       <path d="M 19.1875 8.296875 
L 53.609375 8.296875 
L 53.609375 0 
L 7.328125 0 
L 7.328125 8.296875 
Q 12.9375 14.109375 22.625 23.890625 
Q 32.328125 33.6875 34.8125 36.53125 
Q 39.546875 41.84375 41.421875 45.53125 
Q 43.3125 49.21875 43.3125 52.78125 
Q 43.3125 58.59375 39.234375 62.25 
Q 35.15625 65.921875 28.609375 65.921875 
Q 23.96875 65.921875 18.8125 64.3125 
Q 13.671875 62.703125 7.8125 59.421875 
L 7.8125 69.390625 
Q 13.765625 71.78125 18.9375 73 
Q 24.125 74.21875 28.421875 74.21875 
Q 39.75 74.21875 46.484375 68.546875 
Q 53.21875 62.890625 53.21875 53.421875 
Q 53.21875 48.921875 51.53125 44.890625 
Q 49.859375 40.875 45.40625 35.40625 
Q 44.1875 33.984375 37.640625 27.21875 
Q 31.109375 20.453125 19.1875 8.296875 
z
" id="DejaVuSans-50"/>
      </defs>
      <g transform="translate(34.027826 310.405269)scale(0.1 -0.1)">
       <use xlink:href="#DejaVuSans-48"/>
       <use x="63.623047" xlink:href="#DejaVuSans-46"/>
       <use x="95.410156" xlink:href="#DejaVuSans-55"/>
       <use x="159.033203" xlink:href="#DejaVuSans-50"/>
       <use x="222.65625" xlink:href="#DejaVuSans-53"/>
      </g>
     </g>
    </g>
    <g id="ytick_2">
     <g id="line2d_9">
      <g>
       <use style="stroke:#000000;stroke-width:0.8;" x="69.655951" xlink:href="#m9b5cc2be4d" y="271.885525"/>
      </g>
     </g>
     <g id="text_10">
      <!-- 0.750 -->
      <g transform="translate(34.027826 275.684744)scale(0.1 -0.1)">
       <use xlink:href="#DejaVuSans-48"/>
       <use x="63.623047" xlink:href="#DejaVuSans-46"/>
       <use x="95.410156" xlink:href="#DejaVuSans-55"/>
       <use x="159.033203" xlink:href="#DejaVuSans-53"/>
       <use x="222.65625" xlink:href="#DejaVuSans-48"/>
      </g>
     </g>
    </g>
    <g id="ytick_3">
     <g id="line2d_10">
      <g>
       <use style="stroke:#000000;stroke-width:0.8;" x="69.655951" xlink:href="#m9b5cc2be4d" y="237.164999"/>
      </g>
     </g>
     <g id="text_11">
      <!-- 0.775 -->
      <g transform="translate(34.027826 240.964218)scale(0.1 -0.1)">
       <use xlink:href="#DejaVuSans-48"/>
       <use x="63.623047" xlink:href="#DejaVuSans-46"/>
       <use x="95.410156" xlink:href="#DejaVuSans-55"/>
       <use x="159.033203" xlink:href="#DejaVuSans-55"/>
       <use x="222.65625" xlink:href="#DejaVuSans-53"/>
      </g>
     </g>
    </g>
    <g id="ytick_4">
     <g id="line2d_11">
      <g>
       <use style="stroke:#000000;stroke-width:0.8;" x="69.655951" xlink:href="#m9b5cc2be4d" y="202.444473"/>
      </g>
     </g>
     <g id="text_12">
      <!-- 0.800 -->
      <defs>
       <path d="M 31.78125 34.625 
Q 24.75 34.625 20.71875 30.859375 
Q 16.703125 27.09375 16.703125 20.515625 
Q 16.703125 13.921875 20.71875 10.15625 
Q 24.75 6.390625 31.78125 6.390625 
Q 38.8125 6.390625 42.859375 10.171875 
Q 46.921875 13.96875 46.921875 20.515625 
Q 46.921875 27.09375 42.890625 30.859375 
Q 38.875 34.625 31.78125 34.625 
z
M 21.921875 38.8125 
Q 15.578125 40.375 12.03125 44.71875 
Q 8.5 49.078125 8.5 55.328125 
Q 8.5 64.0625 14.71875 69.140625 
Q 20.953125 74.21875 31.78125 74.21875 
Q 42.671875 74.21875 48.875 69.140625 
Q 55.078125 64.0625 55.078125 55.328125 
Q 55.078125 49.078125 51.53125 44.71875 
Q 48 40.375 41.703125 38.8125 
Q 48.828125 37.15625 52.796875 32.3125 
Q 56.78125 27.484375 56.78125 20.515625 
Q 56.78125 9.90625 50.3125 4.234375 
Q 43.84375 -1.421875 31.78125 -1.421875 
Q 19.734375 -1.421875 13.25 4.234375 
Q 6.78125 9.90625 6.78125 20.515625 
Q 6.78125 27.484375 10.78125 32.3125 
Q 14.796875 37.15625 21.921875 38.8125 
z
M 18.3125 54.390625 
Q 18.3125 48.734375 21.84375 45.5625 
Q 25.390625 42.390625 31.78125 42.390625 
Q 38.140625 42.390625 41.71875 45.5625 
Q 45.3125 48.734375 45.3125 54.390625 
Q 45.3125 60.0625 41.71875 63.234375 
Q 38.140625 66.40625 31.78125 66.40625 
Q 25.390625 66.40625 21.84375 63.234375 
Q 18.3125 60.0625 18.3125 54.390625 
z
" id="DejaVuSans-56"/>
      </defs>
      <g transform="translate(34.027826 206.243692)scale(0.1 -0.1)">
       <use xlink:href="#DejaVuSans-48"/>
       <use x="63.623047" xlink:href="#DejaVuSans-46"/>
       <use x="95.410156" xlink:href="#DejaVuSans-56"/>
       <use x="159.033203" xlink:href="#DejaVuSans-48"/>
       <use x="222.65625" xlink:href="#DejaVuSans-48"/>
      </g>
     </g>
    </g>
    <g id="ytick_5">
     <g id="line2d_12">
      <g>
       <use style="stroke:#000000;stroke-width:0.8;" x="69.655951" xlink:href="#m9b5cc2be4d" y="167.723948"/>
      </g>
     </g>
     <g id="text_13">
      <!-- 0.825 -->
      <g transform="translate(34.027826 171.523167)scale(0.1 -0.1)">
       <use xlink:href="#DejaVuSans-48"/>
       <use x="63.623047" xlink:href="#DejaVuSans-46"/>
       <use x="95.410156" xlink:href="#DejaVuSans-56"/>
       <use x="159.033203" xlink:href="#DejaVuSans-50"/>
       <use x="222.65625" xlink:href="#DejaVuSans-53"/>
      </g>
     </g>
    </g>
    <g id="ytick_6">
     <g id="line2d_13">
      <g>
       <use style="stroke:#000000;stroke-width:0.8;" x="69.655951" xlink:href="#m9b5cc2be4d" y="133.003422"/>
      </g>
     </g>
     <g id="text_14">
      <!-- 0.850 -->
      <g transform="translate(34.027826 136.802641)scale(0.1 -0.1)">
       <use xlink:href="#DejaVuSans-48"/>
       <use x="63.623047" xlink:href="#DejaVuSans-46"/>
       <use x="95.410156" xlink:href="#DejaVuSans-56"/>
       <use x="159.033203" xlink:href="#DejaVuSans-53"/>
       <use x="222.65625" xlink:href="#DejaVuSans-48"/>
      </g>
     </g>
    </g>
    <g id="ytick_7">
     <g id="line2d_14">
      <g>
       <use style="stroke:#000000;stroke-width:0.8;" x="69.655951" xlink:href="#m9b5cc2be4d" y="98.282896"/>
      </g>
     </g>
     <g id="text_15">
      <!-- 0.875 -->
      <g transform="translate(34.027826 102.082115)scale(0.1 -0.1)">
       <use xlink:href="#DejaVuSans-48"/>
       <use x="63.623047" xlink:href="#DejaVuSans-46"/>
       <use x="95.410156" xlink:href="#DejaVuSans-56"/>
       <use x="159.033203" xlink:href="#DejaVuSans-55"/>
       <use x="222.65625" xlink:href="#DejaVuSans-53"/>
      </g>
     </g>
    </g>
    <g id="ytick_8">
     <g id="line2d_15">
      <g>
       <use style="stroke:#000000;stroke-width:0.8;" x="69.655951" xlink:href="#m9b5cc2be4d" y="63.562371"/>
      </g>
     </g>
     <g id="text_16">
      <!-- 0.900 -->
      <defs>
       <path d="M 10.984375 1.515625 
L 10.984375 10.5 
Q 14.703125 8.734375 18.5 7.8125 
Q 22.3125 6.890625 25.984375 6.890625 
Q 35.75 6.890625 40.890625 13.453125 
Q 46.046875 20.015625 46.78125 33.40625 
Q 43.953125 29.203125 39.59375 26.953125 
Q 35.25 24.703125 29.984375 24.703125 
Q 19.046875 24.703125 12.671875 31.3125 
Q 6.296875 37.9375 6.296875 49.421875 
Q 6.296875 60.640625 12.9375 67.421875 
Q 19.578125 74.21875 30.609375 74.21875 
Q 43.265625 74.21875 49.921875 64.515625 
Q 56.59375 54.828125 56.59375 36.375 
Q 56.59375 19.140625 48.40625 8.859375 
Q 40.234375 -1.421875 26.421875 -1.421875 
Q 22.703125 -1.421875 18.890625 -0.6875 
Q 15.09375 0.046875 10.984375 1.515625 
z
M 30.609375 32.421875 
Q 37.25 32.421875 41.125 36.953125 
Q 45.015625 41.5 45.015625 49.421875 
Q 45.015625 57.28125 41.125 61.84375 
Q 37.25 66.40625 30.609375 66.40625 
Q 23.96875 66.40625 20.09375 61.84375 
Q 16.21875 57.28125 16.21875 49.421875 
Q 16.21875 41.5 20.09375 36.953125 
Q 23.96875 32.421875 30.609375 32.421875 
z
" id="DejaVuSans-57"/>
      </defs>
      <g transform="translate(34.027826 67.361589)scale(0.1 -0.1)">
       <use xlink:href="#DejaVuSans-48"/>
       <use x="63.623047" xlink:href="#DejaVuSans-46"/>
       <use x="95.410156" xlink:href="#DejaVuSans-57"/>
       <use x="159.033203" xlink:href="#DejaVuSans-48"/>
       <use x="222.65625" xlink:href="#DejaVuSans-48"/>
      </g>
     </g>
    </g>
    <g id="text_17">
     <!-- last -->
     <defs>
      <path d="M 34.28125 27.484375 
Q 23.390625 27.484375 19.1875 25 
Q 14.984375 22.515625 14.984375 16.5 
Q 14.984375 11.71875 18.140625 8.90625 
Q 21.296875 6.109375 26.703125 6.109375 
Q 34.1875 6.109375 38.703125 11.40625 
Q 43.21875 16.703125 43.21875 25.484375 
L 43.21875 27.484375 
z
M 52.203125 31.203125 
L 52.203125 0 
L 43.21875 0 
L 43.21875 8.296875 
Q 40.140625 3.328125 35.546875 0.953125 
Q 30.953125 -1.421875 24.3125 -1.421875 
Q 15.921875 -1.421875 10.953125 3.296875 
Q 6 8.015625 6 15.921875 
Q 6 25.140625 12.171875 29.828125 
Q 18.359375 34.515625 30.609375 34.515625 
L 43.21875 34.515625 
L 43.21875 35.40625 
Q 43.21875 41.609375 39.140625 45 
Q 35.0625 48.390625 27.6875 48.390625 
Q 23 48.390625 18.546875 47.265625 
Q 14.109375 46.140625 10.015625 43.890625 
L 10.015625 52.203125 
Q 14.9375 54.109375 19.578125 55.046875 
Q 24.21875 56 28.609375 56 
Q 40.484375 56 46.34375 49.84375 
Q 52.203125 43.703125 52.203125 31.203125 
z
" id="DejaVuSans-97"/>
      <path d="M 18.3125 70.21875 
L 18.3125 54.6875 
L 36.8125 54.6875 
L 36.8125 47.703125 
L 18.3125 47.703125 
L 18.3125 18.015625 
Q 18.3125 11.328125 20.140625 9.421875 
Q 21.96875 7.515625 27.59375 7.515625 
L 36.8125 7.515625 
L 36.8125 0 
L 27.59375 0 
Q 17.1875 0 13.234375 3.875 
Q 9.28125 7.765625 9.28125 18.015625 
L 9.28125 47.703125 
L 2.6875 47.703125 
L 2.6875 54.6875 
L 9.28125 54.6875 
L 9.28125 70.21875 
z
" id="DejaVuSans-116"/>
     </defs>
     <g transform="translate(27.948139 192.557031)rotate(-90)scale(0.1 -0.1)">
      <use xlink:href="#DejaVuSans-108"/>
      <use x="27.783203" xlink:href="#DejaVuSans-97"/>
      <use x="89.0625" xlink:href="#DejaVuSans-115"/>
      <use x="141.162109" xlink:href="#DejaVuSans-116"/>
     </g>
    </g>
   </g>
   <g id="line2d_16">
    <path clip-path="url(#p3b48476c99)" d="M 219.510864 62.872464 
L 228.876796 62.872464 
" style="fill:none;stroke:#edd1cb;stroke-linecap:square;stroke-width:1.5;"/>
   </g>
   <g id="line2d_17">
    <path clip-path="url(#p3b48476c99)" d="M 149.266374 80.980567 
L 158.632306 68.647563 
L 167.998238 69.640378 
L 177.36417 67.732148 
L 186.730102 70.432417 
L 196.096034 63.10027 
L 205.461966 64.09123 
L 214.827898 67.141371 
L 224.19383 66.401563 
L 233.559762 73.320745 
L 242.925694 70.614994 
L 252.291626 56.925651 
L 261.657558 68.488504 
L 271.02349 61.2512 
L 280.389422 72.650384 
L 289.755354 65.382548 
L 299.121286 68.97548 
" style="fill:none;stroke:#a9678f;stroke-linecap:square;stroke-width:1.5;"/>
   </g>
   <g id="line2d_18">
    <path clip-path="url(#p3b48476c99)" d="M 83.704849 287.5243 
L 93.070781 178.454135 
L 102.436714 120.763877 
L 111.802646 102.282438 
L 121.168578 85.753086 
L 130.53451 80.696678 
L 139.900442 82.890907 
L 149.266374 88.579934 
L 158.632306 75.892345 
L 167.998238 79.102459 
L 177.36417 84.342011 
L 186.730102 80.878198 
L 196.096034 80.96894 
L 205.461966 78.211136 
L 214.827898 82.945601 
L 224.19383 75.261784 
L 233.559762 85.848475 
L 242.925694 77.047178 
L 252.291626 78.573643 
L 261.657558 80.125516 
L 271.02349 79.583677 
L 280.389422 84.46918 
L 289.755354 92.633542 
L 299.121286 79.653597 
L 308.487218 82.651034 
L 317.85315 77.727179 
L 327.219082 80.587517 
L 336.585014 90.964451 
L 345.950946 107.594439 
L 355.316878 84.907857 
L 364.682811 76.420669 
" style="fill:none;stroke:#2d1e3e;stroke-linecap:square;stroke-width:1.5;"/>
   </g>
   <g id="line2d_19"/>
   <g id="line2d_20"/>
   <g id="line2d_21"/>
   <g id="line2d_22"/>
   <g id="patch_3">
    <path d="M 69.655951 330.239062 
L 69.655951 36.839062 
" style="fill:none;stroke:#000000;stroke-linecap:square;stroke-linejoin:miter;stroke-width:0.8;"/>
   </g>
   <g id="patch_4">
    <path d="M 69.655951 330.239063 
L 378.731709 330.239063 
" style="fill:none;stroke:#000000;stroke-linecap:square;stroke-linejoin:miter;stroke-width:0.8;"/>
   </g>
   <g id="text_18">
    <!-- loss = ap -->
    <defs>
     <path d="M 30.609375 48.390625 
Q 23.390625 48.390625 19.1875 42.75 
Q 14.984375 37.109375 14.984375 27.296875 
Q 14.984375 17.484375 19.15625 11.84375 
Q 23.34375 6.203125 30.609375 6.203125 
Q 37.796875 6.203125 41.984375 11.859375 
Q 46.1875 17.53125 46.1875 27.296875 
Q 46.1875 37.015625 41.984375 42.703125 
Q 37.796875 48.390625 30.609375 48.390625 
z
M 30.609375 56 
Q 42.328125 56 49.015625 48.375 
Q 55.71875 40.765625 55.71875 27.296875 
Q 55.71875 13.875 49.015625 6.21875 
Q 42.328125 -1.421875 30.609375 -1.421875 
Q 18.84375 -1.421875 12.171875 6.21875 
Q 5.515625 13.875 5.515625 27.296875 
Q 5.515625 40.765625 12.171875 48.375 
Q 18.84375 56 30.609375 56 
z
" id="DejaVuSans-111"/>
     <path id="DejaVuSans-32"/>
     <path d="M 10.59375 45.40625 
L 73.1875 45.40625 
L 73.1875 37.203125 
L 10.59375 37.203125 
z
M 10.59375 25.484375 
L 73.1875 25.484375 
L 73.1875 17.1875 
L 10.59375 17.1875 
z
" id="DejaVuSans-61"/>
    </defs>
    <g transform="translate(200.929767 30.839063)scale(0.1 -0.1)">
     <use xlink:href="#DejaVuSans-108"/>
     <use x="27.783203" xlink:href="#DejaVuSans-111"/>
     <use x="88.964844" xlink:href="#DejaVuSans-115"/>
     <use x="141.064453" xlink:href="#DejaVuSans-115"/>
     <use x="193.164062" xlink:href="#DejaVuSans-32"/>
     <use x="224.951172" xlink:href="#DejaVuSans-61"/>
     <use x="308.740234" xlink:href="#DejaVuSans-32"/>
     <use x="340.527344" xlink:href="#DejaVuSans-97"/>
     <use x="401.806641" xlink:href="#DejaVuSans-112"/>
    </g>
   </g>
  </g>
  <g id="axes_2">
   <g id="patch_5">
    <path d="M 422.121774 330.239063 
L 731.197531 330.239063 
L 731.197531 36.839063 
L 422.121774 36.839063 
z
" style="fill:#ffffff;"/>
   </g>
   <g id="PolyCollection_4">
    <defs>
     <path d="M 571.976687 -313.930005 
L 571.976687 -300.584629 
L 581.342619 -301.523875 
L 581.342619 -314.566439 
L 581.342619 -314.566439 
L 571.976687 -313.930005 
z
" id="m4544d6b38e" style="stroke:#edd1cb;stroke-opacity:0.2;"/>
    </defs>
    <g clip-path="url(#p8fb73be90c)">
     <use style="fill:#edd1cb;fill-opacity:0.2;stroke:#edd1cb;stroke-opacity:0.2;" x="0" xlink:href="#m4544d6b38e" y="367.795313"/>
    </g>
   </g>
   <g id="PolyCollection_5">
    <defs>
     <path d="M 501.732197 -303.15932 
L 501.732197 -285.474777 
L 511.098129 -291.182059 
L 520.464061 -292.044954 
L 529.829993 -290.443103 
L 539.195925 -291.098792 
L 548.561857 -299.462507 
L 557.927789 -296.292792 
L 567.293721 -291.946864 
L 576.659653 -289.147769 
L 586.025585 -290.501804 
L 595.391517 -292.334625 
L 604.757449 -304.762385 
L 614.123381 -294.78352 
L 623.489313 -294.035049 
L 632.855245 -287.602587 
L 642.221177 -293.154988 
L 651.587109 -291.284627 
L 651.587109 -309.691346 
L 651.587109 -309.691346 
L 642.221177 -309.140613 
L 632.855245 -310.61172 
L 623.489313 -312.038659 
L 614.123381 -309.188314 
L 604.757449 -317.619886 
L 595.391517 -305.761526 
L 586.025585 -305.831493 
L 576.659653 -313.354779 
L 567.293721 -309.757651 
L 557.927789 -309.520751 
L 548.561857 -312.01163 
L 539.195925 -306.231563 
L 529.829993 -307.226682 
L 520.464061 -303.297365 
L 511.098129 -302.457682 
L 501.732197 -303.15932 
z
" id="mc3abf77ba7" style="stroke:#a9678f;stroke-opacity:0.2;"/>
    </defs>
    <g clip-path="url(#p8fb73be90c)">
     <use style="fill:#a9678f;fill-opacity:0.2;stroke:#a9678f;stroke-opacity:0.2;" x="0" xlink:href="#mc3abf77ba7" y="367.795313"/>
    </g>
   </g>
   <g id="PolyCollection_6">
    <defs>
     <path d="M 436.170672 -128.456056 
L 436.170672 -50.892614 
L 445.536604 -193.625071 
L 454.902536 -244.127698 
L 464.268468 -257.909122 
L 473.6344 -277.459665 
L 483.000332 -280.874523 
L 492.366265 -273.083087 
L 501.732197 -275.560958 
L 511.098129 -285.109453 
L 520.464061 -279.836703 
L 529.829993 -277.497227 
L 539.195925 -280.382303 
L 548.561857 -283.378812 
L 557.927789 -281.932579 
L 567.293721 -280.388033 
L 576.659653 -285.825584 
L 586.025585 -280.052654 
L 595.391517 -287.572646 
L 604.757449 -288.482086 
L 614.123381 -280.827063 
L 623.489313 -282.376142 
L 632.855245 -271.998014 
L 642.221177 -268.485582 
L 651.587109 -284.327856 
L 660.953041 -273.173649 
L 670.318973 -280.037318 
L 679.684905 -281.800917 
L 689.050837 -270.201054 
L 698.416769 -251.239925 
L 707.782701 -272.913852 
L 717.148633 -279.66898 
L 717.148633 -301.285221 
L 717.148633 -301.285221 
L 707.782701 -292.968751 
L 698.416769 -277.288463 
L 689.050837 -294.099249 
L 679.684905 -297.91261 
L 670.318973 -295.687002 
L 660.953041 -296.106016 
L 651.587109 -294.446703 
L 642.221177 -288.400962 
L 632.855245 -294.882399 
L 623.489313 -296.863617 
L 614.123381 -298.588776 
L 604.757449 -298.076188 
L 595.391517 -297.608366 
L 586.025585 -293.827022 
L 576.659653 -297.947135 
L 567.293721 -298.364561 
L 557.927789 -297.641691 
L 548.561857 -296.708285 
L 539.195925 -297.272864 
L 529.829993 -290.844132 
L 520.464061 -290.968725 
L 511.098129 -301.008071 
L 501.732197 -289.315216 
L 492.366265 -297.418507 
L 483.000332 -293.869023 
L 473.6344 -292.910383 
L 464.268468 -275.913437 
L 454.902536 -267.386597 
L 445.536604 -220.820082 
L 436.170672 -128.456056 
z
" id="m999c1e7b79" style="stroke:#2d1e3e;stroke-opacity:0.2;"/>
    </defs>
    <g clip-path="url(#p8fb73be90c)">
     <use style="fill:#2d1e3e;fill-opacity:0.2;stroke:#2d1e3e;stroke-opacity:0.2;" x="0" xlink:href="#m999c1e7b79" y="367.795313"/>
    </g>
   </g>
   <g id="matplotlib.axis_3">
    <g id="xtick_8">
     <g id="line2d_23">
      <g>
       <use style="stroke:#000000;stroke-width:0.8;" x="436.170672" xlink:href="#m8e89f1de2f" y="330.239063"/>
      </g>
     </g>
     <g id="text_19">
      <!-- −15 -->
      <g transform="translate(425.618329 344.8375)scale(0.1 -0.1)">
       <use xlink:href="#DejaVuSans-8722"/>
       <use x="83.789062" xlink:href="#DejaVuSans-49"/>
       <use x="147.412109" xlink:href="#DejaVuSans-53"/>
      </g>
     </g>
    </g>
    <g id="xtick_9">
     <g id="line2d_24">
      <g>
       <use style="stroke:#000000;stroke-width:0.8;" x="483.000332" xlink:href="#m8e89f1de2f" y="330.239063"/>
      </g>
     </g>
     <g id="text_20">
      <!-- −10 -->
      <g transform="translate(472.447989 344.8375)scale(0.1 -0.1)">
       <use xlink:href="#DejaVuSans-8722"/>
       <use x="83.789062" xlink:href="#DejaVuSans-49"/>
       <use x="147.412109" xlink:href="#DejaVuSans-48"/>
      </g>
     </g>
    </g>
    <g id="xtick_10">
     <g id="line2d_25">
      <g>
       <use style="stroke:#000000;stroke-width:0.8;" x="529.829993" xlink:href="#m8e89f1de2f" y="330.239063"/>
      </g>
     </g>
     <g id="text_21">
      <!-- −5 -->
      <g transform="translate(522.458899 344.8375)scale(0.1 -0.1)">
       <use xlink:href="#DejaVuSans-8722"/>
       <use x="83.789062" xlink:href="#DejaVuSans-53"/>
      </g>
     </g>
    </g>
    <g id="xtick_11">
     <g id="line2d_26">
      <g>
       <use style="stroke:#000000;stroke-width:0.8;" x="576.659653" xlink:href="#m8e89f1de2f" y="330.239063"/>
      </g>
     </g>
     <g id="text_22">
      <!-- 0 -->
      <g transform="translate(573.478403 344.8375)scale(0.1 -0.1)">
       <use xlink:href="#DejaVuSans-48"/>
      </g>
     </g>
    </g>
    <g id="xtick_12">
     <g id="line2d_27">
      <g>
       <use style="stroke:#000000;stroke-width:0.8;" x="623.489313" xlink:href="#m8e89f1de2f" y="330.239063"/>
      </g>
     </g>
     <g id="text_23">
      <!-- 5 -->
      <g transform="translate(620.308063 344.8375)scale(0.1 -0.1)">
       <use xlink:href="#DejaVuSans-53"/>
      </g>
     </g>
    </g>
    <g id="xtick_13">
     <g id="line2d_28">
      <g>
       <use style="stroke:#000000;stroke-width:0.8;" x="670.318973" xlink:href="#m8e89f1de2f" y="330.239063"/>
      </g>
     </g>
     <g id="text_24">
      <!-- 10 -->
      <g transform="translate(663.956473 344.8375)scale(0.1 -0.1)">
       <use xlink:href="#DejaVuSans-49"/>
       <use x="63.623047" xlink:href="#DejaVuSans-48"/>
      </g>
     </g>
    </g>
    <g id="xtick_14">
     <g id="line2d_29">
      <g>
       <use style="stroke:#000000;stroke-width:0.8;" x="717.148633" xlink:href="#m8e89f1de2f" y="330.239063"/>
      </g>
     </g>
     <g id="text_25">
      <!-- 15 -->
      <g transform="translate(710.786133 344.8375)scale(0.1 -0.1)">
       <use xlink:href="#DejaVuSans-49"/>
       <use x="63.623047" xlink:href="#DejaVuSans-53"/>
      </g>
     </g>
    </g>
    <g id="text_26">
     <!-- spill -->
     <g transform="translate(566.713559 358.515625)scale(0.1 -0.1)">
      <use xlink:href="#DejaVuSans-115"/>
      <use x="52.099609" xlink:href="#DejaVuSans-112"/>
      <use x="115.576172" xlink:href="#DejaVuSans-105"/>
      <use x="143.359375" xlink:href="#DejaVuSans-108"/>
      <use x="171.142578" xlink:href="#DejaVuSans-108"/>
     </g>
    </g>
   </g>
   <g id="matplotlib.axis_4">
    <g id="ytick_9">
     <g id="line2d_30">
      <g>
       <use style="stroke:#000000;stroke-width:0.8;" x="422.121774" xlink:href="#m9b5cc2be4d" y="298.554699"/>
      </g>
     </g>
     <g id="text_27">
      <!-- 0.70 -->
      <g transform="translate(392.856149 302.353918)scale(0.1 -0.1)">
       <use xlink:href="#DejaVuSans-48"/>
       <use x="63.623047" xlink:href="#DejaVuSans-46"/>
       <use x="95.410156" xlink:href="#DejaVuSans-55"/>
       <use x="159.033203" xlink:href="#DejaVuSans-48"/>
      </g>
     </g>
    </g>
    <g id="ytick_10">
     <g id="line2d_31">
      <g>
       <use style="stroke:#000000;stroke-width:0.8;" x="422.121774" xlink:href="#m9b5cc2be4d" y="236.552933"/>
      </g>
     </g>
     <g id="text_28">
      <!-- 0.75 -->
      <g transform="translate(392.856149 240.352152)scale(0.1 -0.1)">
       <use xlink:href="#DejaVuSans-48"/>
       <use x="63.623047" xlink:href="#DejaVuSans-46"/>
       <use x="95.410156" xlink:href="#DejaVuSans-55"/>
       <use x="159.033203" xlink:href="#DejaVuSans-53"/>
      </g>
     </g>
    </g>
    <g id="ytick_11">
     <g id="line2d_32">
      <g>
       <use style="stroke:#000000;stroke-width:0.8;" x="422.121774" xlink:href="#m9b5cc2be4d" y="174.551167"/>
      </g>
     </g>
     <g id="text_29">
      <!-- 0.80 -->
      <g transform="translate(392.856149 178.350386)scale(0.1 -0.1)">
       <use xlink:href="#DejaVuSans-48"/>
       <use x="63.623047" xlink:href="#DejaVuSans-46"/>
       <use x="95.410156" xlink:href="#DejaVuSans-56"/>
       <use x="159.033203" xlink:href="#DejaVuSans-48"/>
      </g>
     </g>
    </g>
    <g id="ytick_12">
     <g id="line2d_33">
      <g>
       <use style="stroke:#000000;stroke-width:0.8;" x="422.121774" xlink:href="#m9b5cc2be4d" y="112.549401"/>
      </g>
     </g>
     <g id="text_30">
      <!-- 0.85 -->
      <g transform="translate(392.856149 116.348619)scale(0.1 -0.1)">
       <use xlink:href="#DejaVuSans-48"/>
       <use x="63.623047" xlink:href="#DejaVuSans-46"/>
       <use x="95.410156" xlink:href="#DejaVuSans-56"/>
       <use x="159.033203" xlink:href="#DejaVuSans-53"/>
      </g>
     </g>
    </g>
    <g id="ytick_13">
     <g id="line2d_34">
      <g>
       <use style="stroke:#000000;stroke-width:0.8;" x="422.121774" xlink:href="#m9b5cc2be4d" y="50.547634"/>
      </g>
     </g>
     <g id="text_31">
      <!-- 0.90 -->
      <g transform="translate(392.856149 54.346853)scale(0.1 -0.1)">
       <use xlink:href="#DejaVuSans-48"/>
       <use x="63.623047" xlink:href="#DejaVuSans-46"/>
       <use x="95.410156" xlink:href="#DejaVuSans-57"/>
       <use x="159.033203" xlink:href="#DejaVuSans-48"/>
      </g>
     </g>
    </g>
   </g>
   <g id="line2d_35">
    <path clip-path="url(#p8fb73be90c)" d="M 571.976687 60.344428 
L 581.342619 60.344428 
" style="fill:none;stroke:#edd1cb;stroke-linecap:square;stroke-width:1.5;"/>
   </g>
   <g id="line2d_36">
    <path clip-path="url(#p8fb73be90c)" d="M 501.732197 73.669897 
L 511.098129 71.352194 
L 520.464061 69.98062 
L 529.829993 68.888087 
L 539.195925 69.283566 
L 548.561857 61.886722 
L 557.927789 65.162226 
L 567.293721 66.167277 
L 576.659653 66.627885 
L 586.025585 69.858926 
L 595.391517 69.024192 
L 604.757449 56.899512 
L 614.123381 65.895172 
L 623.489313 63.918661 
L 632.855245 68.453065 
L 642.221177 66.882419 
L 651.587109 66.977895 
" style="fill:none;stroke:#a9678f;stroke-linecap:square;stroke-width:1.5;"/>
   </g>
   <g id="line2d_37">
    <path clip-path="url(#p8fb73be90c)" d="M 436.170672 272.003819 
L 445.536604 159.944773 
L 454.902536 112.350227 
L 464.268468 99.458401 
L 473.6344 82.799792 
L 483.000332 80.725434 
L 492.366265 82.011412 
L 501.732197 85.251439 
L 511.098129 74.500795 
L 520.464061 82.568602 
L 529.829993 83.592724 
L 539.195925 80.032925 
L 548.561857 78.180373 
L 557.927789 78.162904 
L 567.293721 78.603041 
L 576.659653 75.786465 
L 586.025585 80.296539 
L 595.391517 75.310608 
L 604.757449 74.29973 
L 614.123381 78.495696 
L 623.489313 77.161498 
L 632.855245 84.180855 
L 642.221177 88.197902 
L 651.587109 78.353676 
L 660.953041 82.636903 
L 670.318973 80.271236 
L 679.684905 77.263298 
L 689.050837 84.49142 
L 698.416769 101.826235 
L 707.782701 85.029037 
L 717.148633 77.295627 
" style="fill:none;stroke:#2d1e3e;stroke-linecap:square;stroke-width:1.5;"/>
   </g>
   <g id="patch_6">
    <path d="M 422.121774 330.239063 
L 422.121774 36.839063 
" style="fill:none;stroke:#000000;stroke-linecap:square;stroke-linejoin:miter;stroke-width:0.8;"/>
   </g>
   <g id="patch_7">
    <path d="M 422.121774 330.239063 
L 731.197531 330.239063 
" style="fill:none;stroke:#000000;stroke-linecap:square;stroke-linejoin:miter;stroke-width:0.8;"/>
   </g>
   <g id="text_32">
    <!-- loss = auc -->
    <defs>
     <path d="M 8.5 21.578125 
L 8.5 54.6875 
L 17.484375 54.6875 
L 17.484375 21.921875 
Q 17.484375 14.15625 20.5 10.265625 
Q 23.53125 6.390625 29.59375 6.390625 
Q 36.859375 6.390625 41.078125 11.03125 
Q 45.3125 15.671875 45.3125 23.6875 
L 45.3125 54.6875 
L 54.296875 54.6875 
L 54.296875 0 
L 45.3125 0 
L 45.3125 8.40625 
Q 42.046875 3.421875 37.71875 1 
Q 33.40625 -1.421875 27.6875 -1.421875 
Q 18.265625 -1.421875 13.375 4.4375 
Q 8.5 10.296875 8.5 21.578125 
z
M 31.109375 56 
z
" id="DejaVuSans-117"/>
     <path d="M 48.78125 52.59375 
L 48.78125 44.1875 
Q 44.96875 46.296875 41.140625 47.34375 
Q 37.3125 48.390625 33.40625 48.390625 
Q 24.65625 48.390625 19.8125 42.84375 
Q 14.984375 37.3125 14.984375 27.296875 
Q 14.984375 17.28125 19.8125 11.734375 
Q 24.65625 6.203125 33.40625 6.203125 
Q 37.3125 6.203125 41.140625 7.25 
Q 44.96875 8.296875 48.78125 10.40625 
L 48.78125 2.09375 
Q 45.015625 0.34375 40.984375 -0.53125 
Q 36.96875 -1.421875 32.421875 -1.421875 
Q 20.0625 -1.421875 12.78125 6.34375 
Q 5.515625 14.109375 5.515625 27.296875 
Q 5.515625 40.671875 12.859375 48.328125 
Q 20.21875 56 33.015625 56 
Q 37.15625 56 41.109375 55.140625 
Q 45.0625 54.296875 48.78125 52.59375 
z
" id="DejaVuSans-99"/>
    </defs>
    <g transform="translate(550.65184 30.839063)scale(0.1 -0.1)">
     <use xlink:href="#DejaVuSans-108"/>
     <use x="27.783203" xlink:href="#DejaVuSans-111"/>
     <use x="88.964844" xlink:href="#DejaVuSans-115"/>
     <use x="141.064453" xlink:href="#DejaVuSans-115"/>
     <use x="193.164062" xlink:href="#DejaVuSans-32"/>
     <use x="224.951172" xlink:href="#DejaVuSans-61"/>
     <use x="308.740234" xlink:href="#DejaVuSans-32"/>
     <use x="340.527344" xlink:href="#DejaVuSans-97"/>
     <use x="401.806641" xlink:href="#DejaVuSans-117"/>
     <use x="465.185547" xlink:href="#DejaVuSans-99"/>
    </g>
   </g>
  </g>
  <g id="axes_3">
   <g id="patch_8">
    <path d="M 774.587597 330.239063 
L 1083.663354 330.239063 
L 1083.663354 36.839063 
L 774.587597 36.839063 
z
" style="fill:#ffffff;"/>
   </g>
   <g id="PolyCollection_7">
    <defs>
     <path d="M 924.44251 -131.098115 
L 924.44251 -107.12908 
L 933.808442 -107.199952 
L 933.808442 -130.758458 
L 933.808442 -130.758458 
L 924.44251 -131.098115 
z
" id="m18f541a86c" style="stroke:#edd1cb;stroke-opacity:0.2;"/>
    </defs>
    <g clip-path="url(#pa2b54b0427)">
     <use style="fill:#edd1cb;fill-opacity:0.2;stroke:#edd1cb;stroke-opacity:0.2;" x="0" xlink:href="#m18f541a86c" y="367.795313"/>
    </g>
   </g>
   <g id="PolyCollection_8">
    <defs>
     <path d="M 854.198019 -115.541368 
L 854.198019 -86.748673 
L 863.563951 -88.835439 
L 872.929883 -85.098261 
L 882.295816 -79.431704 
L 891.661748 -83.802439 
L 901.02768 -81.463949 
L 910.393612 -81.199696 
L 919.759544 -91.709613 
L 929.125476 -87.054388 
L 938.491408 -91.858824 
L 947.85734 -91.577302 
L 957.223272 -88.338916 
L 966.589204 -100.019369 
L 975.955136 -102.318538 
L 985.321068 -104.204254 
L 994.687 -106.8399 
L 1004.052932 -139.804187 
L 1004.052932 -186.758444 
L 1004.052932 -186.758444 
L 994.687 -127.166581 
L 985.321068 -124.265263 
L 975.955136 -134.76539 
L 966.589204 -121.125142 
L 957.223272 -98.291648 
L 947.85734 -104.409789 
L 938.491408 -142.365324 
L 929.125476 -111.203259 
L 919.759544 -116.210205 
L 910.393612 -92.193765 
L 901.02768 -92.867674 
L 891.661748 -140.395735 
L 882.295816 -87.012495 
L 872.929883 -101.23679 
L 863.563951 -174.565559 
L 854.198019 -115.541368 
z
" id="mfe92e57d03" style="stroke:#a9678f;stroke-opacity:0.2;"/>
    </defs>
    <g clip-path="url(#pa2b54b0427)">
     <use style="fill:#a9678f;fill-opacity:0.2;stroke:#a9678f;stroke-opacity:0.2;" x="0" xlink:href="#mfe92e57d03" y="367.795313"/>
    </g>
   </g>
   <g id="PolyCollection_9">
    <defs>
     <path d="M 788.636495 -317.619886 
L 788.636495 -264.874409 
L 798.002427 -132.362088 
L 807.368359 -77.320667 
L 816.734291 -69.643106 
L 826.100223 -50.892614 
L 835.466155 -59.689476 
L 844.832087 -57.279187 
L 854.198019 -57.07401 
L 863.563951 -61.187059 
L 872.929883 -62.266687 
L 882.295816 -59.832393 
L 891.661748 -61.636928 
L 901.02768 -65.57338 
L 910.393612 -56.873601 
L 919.759544 -63.074078 
L 929.125476 -70.107436 
L 938.491408 -72.610986 
L 947.85734 -68.107083 
L 957.223272 -79.484644 
L 966.589204 -76.782322 
L 975.955136 -71.753182 
L 985.321068 -73.106801 
L 994.687 -89.303669 
L 1004.052932 -86.821322 
L 1013.418864 -88.397345 
L 1022.784796 -88.101561 
L 1032.150728 -105.66572 
L 1041.51666 -118.250284 
L 1050.882592 -137.418536 
L 1060.248524 -166.094712 
L 1069.614456 -203.861051 
L 1069.614456 -216.457846 
L 1069.614456 -216.457846 
L 1060.248524 -188.388775 
L 1050.882592 -177.167261 
L 1041.51666 -142.115007 
L 1032.150728 -120.341757 
L 1022.784796 -110.480566 
L 1013.418864 -106.69479 
L 1004.052932 -113.800675 
L 994.687 -120.171071 
L 985.321068 -90.216069 
L 975.955136 -98.295278 
L 966.589204 -89.710316 
L 957.223272 -99.383966 
L 947.85734 -83.449504 
L 938.491408 -88.796455 
L 929.125476 -86.079113 
L 919.759544 -93.483694 
L 910.393612 -74.008383 
L 901.02768 -90.21697 
L 891.661748 -106.771825 
L 882.295816 -69.385377 
L 872.929883 -75.136324 
L 863.563951 -71.260591 
L 854.198019 -82.708013 
L 844.832087 -75.83139 
L 835.466155 -78.87101 
L 826.100223 -64.161488 
L 816.734291 -88.625429 
L 807.368359 -88.878869 
L 798.002427 -135.503886 
L 788.636495 -317.619886 
z
" id="m56efa989c9" style="stroke:#2d1e3e;stroke-opacity:0.2;"/>
    </defs>
    <g clip-path="url(#pa2b54b0427)">
     <use style="fill:#2d1e3e;fill-opacity:0.2;stroke:#2d1e3e;stroke-opacity:0.2;" x="0" xlink:href="#m56efa989c9" y="367.795313"/>
    </g>
   </g>
   <g id="matplotlib.axis_5">
    <g id="xtick_15">
     <g id="line2d_38">
      <g>
       <use style="stroke:#000000;stroke-width:0.8;" x="788.636495" xlink:href="#m8e89f1de2f" y="330.239063"/>
      </g>
     </g>
     <g id="text_33">
      <!-- −15 -->
      <g transform="translate(778.084151 344.8375)scale(0.1 -0.1)">
       <use xlink:href="#DejaVuSans-8722"/>
       <use x="83.789062" xlink:href="#DejaVuSans-49"/>
       <use x="147.412109" xlink:href="#DejaVuSans-53"/>
      </g>
     </g>
    </g>
    <g id="xtick_16">
     <g id="line2d_39">
      <g>
       <use style="stroke:#000000;stroke-width:0.8;" x="835.466155" xlink:href="#m8e89f1de2f" y="330.239063"/>
      </g>
     </g>
     <g id="text_34">
      <!-- −10 -->
      <g transform="translate(824.913812 344.8375)scale(0.1 -0.1)">
       <use xlink:href="#DejaVuSans-8722"/>
       <use x="83.789062" xlink:href="#DejaVuSans-49"/>
       <use x="147.412109" xlink:href="#DejaVuSans-48"/>
      </g>
     </g>
    </g>
    <g id="xtick_17">
     <g id="line2d_40">
      <g>
       <use style="stroke:#000000;stroke-width:0.8;" x="882.295816" xlink:href="#m8e89f1de2f" y="330.239063"/>
      </g>
     </g>
     <g id="text_35">
      <!-- −5 -->
      <g transform="translate(874.924722 344.8375)scale(0.1 -0.1)">
       <use xlink:href="#DejaVuSans-8722"/>
       <use x="83.789062" xlink:href="#DejaVuSans-53"/>
      </g>
     </g>
    </g>
    <g id="xtick_18">
     <g id="line2d_41">
      <g>
       <use style="stroke:#000000;stroke-width:0.8;" x="929.125476" xlink:href="#m8e89f1de2f" y="330.239063"/>
      </g>
     </g>
     <g id="text_36">
      <!-- 0 -->
      <g transform="translate(925.944226 344.8375)scale(0.1 -0.1)">
       <use xlink:href="#DejaVuSans-48"/>
      </g>
     </g>
    </g>
    <g id="xtick_19">
     <g id="line2d_42">
      <g>
       <use style="stroke:#000000;stroke-width:0.8;" x="975.955136" xlink:href="#m8e89f1de2f" y="330.239063"/>
      </g>
     </g>
     <g id="text_37">
      <!-- 5 -->
      <g transform="translate(972.773886 344.8375)scale(0.1 -0.1)">
       <use xlink:href="#DejaVuSans-53"/>
      </g>
     </g>
    </g>
    <g id="xtick_20">
     <g id="line2d_43">
      <g>
       <use style="stroke:#000000;stroke-width:0.8;" x="1022.784796" xlink:href="#m8e89f1de2f" y="330.239063"/>
      </g>
     </g>
     <g id="text_38">
      <!-- 10 -->
      <g transform="translate(1016.422296 344.8375)scale(0.1 -0.1)">
       <use xlink:href="#DejaVuSans-49"/>
       <use x="63.623047" xlink:href="#DejaVuSans-48"/>
      </g>
     </g>
    </g>
    <g id="xtick_21">
     <g id="line2d_44">
      <g>
       <use style="stroke:#000000;stroke-width:0.8;" x="1069.614456" xlink:href="#m8e89f1de2f" y="330.239063"/>
      </g>
     </g>
     <g id="text_39">
      <!-- 15 -->
      <g transform="translate(1063.251956 344.8375)scale(0.1 -0.1)">
       <use xlink:href="#DejaVuSans-49"/>
       <use x="63.623047" xlink:href="#DejaVuSans-53"/>
      </g>
     </g>
    </g>
    <g id="text_40">
     <!-- spill -->
     <g transform="translate(919.179382 358.515625)scale(0.1 -0.1)">
      <use xlink:href="#DejaVuSans-115"/>
      <use x="52.099609" xlink:href="#DejaVuSans-112"/>
      <use x="115.576172" xlink:href="#DejaVuSans-105"/>
      <use x="143.359375" xlink:href="#DejaVuSans-108"/>
      <use x="171.142578" xlink:href="#DejaVuSans-108"/>
     </g>
    </g>
   </g>
   <g id="matplotlib.axis_6">
    <g id="ytick_14">
     <g id="line2d_45">
      <g>
       <use style="stroke:#000000;stroke-width:0.8;" x="774.587597" xlink:href="#m9b5cc2be4d" y="301.57248"/>
      </g>
     </g>
     <g id="text_41">
      <!-- 0.5 -->
      <g transform="translate(751.684472 305.371699)scale(0.1 -0.1)">
       <use xlink:href="#DejaVuSans-48"/>
       <use x="63.623047" xlink:href="#DejaVuSans-46"/>
       <use x="95.410156" xlink:href="#DejaVuSans-53"/>
      </g>
     </g>
    </g>
    <g id="ytick_15">
     <g id="line2d_46">
      <g>
       <use style="stroke:#000000;stroke-width:0.8;" x="774.587597" xlink:href="#m9b5cc2be4d" y="268.432401"/>
      </g>
     </g>
     <g id="text_42">
      <!-- 0.6 -->
      <defs>
       <path d="M 33.015625 40.375 
Q 26.375 40.375 22.484375 35.828125 
Q 18.609375 31.296875 18.609375 23.390625 
Q 18.609375 15.53125 22.484375 10.953125 
Q 26.375 6.390625 33.015625 6.390625 
Q 39.65625 6.390625 43.53125 10.953125 
Q 47.40625 15.53125 47.40625 23.390625 
Q 47.40625 31.296875 43.53125 35.828125 
Q 39.65625 40.375 33.015625 40.375 
z
M 52.59375 71.296875 
L 52.59375 62.3125 
Q 48.875 64.0625 45.09375 64.984375 
Q 41.3125 65.921875 37.59375 65.921875 
Q 27.828125 65.921875 22.671875 59.328125 
Q 17.53125 52.734375 16.796875 39.40625 
Q 19.671875 43.65625 24.015625 45.921875 
Q 28.375 48.1875 33.59375 48.1875 
Q 44.578125 48.1875 50.953125 41.515625 
Q 57.328125 34.859375 57.328125 23.390625 
Q 57.328125 12.15625 50.6875 5.359375 
Q 44.046875 -1.421875 33.015625 -1.421875 
Q 20.359375 -1.421875 13.671875 8.265625 
Q 6.984375 17.96875 6.984375 36.375 
Q 6.984375 53.65625 15.1875 63.9375 
Q 23.390625 74.21875 37.203125 74.21875 
Q 40.921875 74.21875 44.703125 73.484375 
Q 48.484375 72.75 52.59375 71.296875 
z
" id="DejaVuSans-54"/>
      </defs>
      <g transform="translate(751.684472 272.23162)scale(0.1 -0.1)">
       <use xlink:href="#DejaVuSans-48"/>
       <use x="63.623047" xlink:href="#DejaVuSans-46"/>
       <use x="95.410156" xlink:href="#DejaVuSans-54"/>
      </g>
     </g>
    </g>
    <g id="ytick_16">
     <g id="line2d_47">
      <g>
       <use style="stroke:#000000;stroke-width:0.8;" x="774.587597" xlink:href="#m9b5cc2be4d" y="235.292323"/>
      </g>
     </g>
     <g id="text_43">
      <!-- 0.7 -->
      <g transform="translate(751.684472 239.091541)scale(0.1 -0.1)">
       <use xlink:href="#DejaVuSans-48"/>
       <use x="63.623047" xlink:href="#DejaVuSans-46"/>
       <use x="95.410156" xlink:href="#DejaVuSans-55"/>
      </g>
     </g>
    </g>
    <g id="ytick_17">
     <g id="line2d_48">
      <g>
       <use style="stroke:#000000;stroke-width:0.8;" x="774.587597" xlink:href="#m9b5cc2be4d" y="202.152244"/>
      </g>
     </g>
     <g id="text_44">
      <!-- 0.8 -->
      <g transform="translate(751.684472 205.951463)scale(0.1 -0.1)">
       <use xlink:href="#DejaVuSans-48"/>
       <use x="63.623047" xlink:href="#DejaVuSans-46"/>
       <use x="95.410156" xlink:href="#DejaVuSans-56"/>
      </g>
     </g>
    </g>
    <g id="ytick_18">
     <g id="line2d_49">
      <g>
       <use style="stroke:#000000;stroke-width:0.8;" x="774.587597" xlink:href="#m9b5cc2be4d" y="169.012165"/>
      </g>
     </g>
     <g id="text_45">
      <!-- 0.9 -->
      <g transform="translate(751.684472 172.811384)scale(0.1 -0.1)">
       <use xlink:href="#DejaVuSans-48"/>
       <use x="63.623047" xlink:href="#DejaVuSans-46"/>
       <use x="95.410156" xlink:href="#DejaVuSans-57"/>
      </g>
     </g>
    </g>
    <g id="ytick_19">
     <g id="line2d_50">
      <g>
       <use style="stroke:#000000;stroke-width:0.8;" x="774.587597" xlink:href="#m9b5cc2be4d" y="135.872087"/>
      </g>
     </g>
     <g id="text_46">
      <!-- 1.0 -->
      <g transform="translate(751.684472 139.671305)scale(0.1 -0.1)">
       <use xlink:href="#DejaVuSans-49"/>
       <use x="63.623047" xlink:href="#DejaVuSans-46"/>
       <use x="95.410156" xlink:href="#DejaVuSans-48"/>
      </g>
     </g>
    </g>
    <g id="ytick_20">
     <g id="line2d_51">
      <g>
       <use style="stroke:#000000;stroke-width:0.8;" x="774.587597" xlink:href="#m9b5cc2be4d" y="102.732008"/>
      </g>
     </g>
     <g id="text_47">
      <!-- 1.1 -->
      <g transform="translate(751.684472 106.531227)scale(0.1 -0.1)">
       <use xlink:href="#DejaVuSans-49"/>
       <use x="63.623047" xlink:href="#DejaVuSans-46"/>
       <use x="95.410156" xlink:href="#DejaVuSans-49"/>
      </g>
     </g>
    </g>
    <g id="ytick_21">
     <g id="line2d_52">
      <g>
       <use style="stroke:#000000;stroke-width:0.8;" x="774.587597" xlink:href="#m9b5cc2be4d" y="69.591929"/>
      </g>
     </g>
     <g id="text_48">
      <!-- 1.2 -->
      <g transform="translate(751.684472 73.391148)scale(0.1 -0.1)">
       <use xlink:href="#DejaVuSans-49"/>
       <use x="63.623047" xlink:href="#DejaVuSans-46"/>
       <use x="95.410156" xlink:href="#DejaVuSans-50"/>
      </g>
     </g>
    </g>
    <g id="ytick_22">
     <g id="line2d_53">
      <g>
       <use style="stroke:#000000;stroke-width:0.8;" x="774.587597" xlink:href="#m9b5cc2be4d" y="36.451851"/>
      </g>
     </g>
     <g id="text_49">
      <!-- 1.3 -->
      <defs>
       <path d="M 40.578125 39.3125 
Q 47.65625 37.796875 51.625 33 
Q 55.609375 28.21875 55.609375 21.1875 
Q 55.609375 10.40625 48.1875 4.484375 
Q 40.765625 -1.421875 27.09375 -1.421875 
Q 22.515625 -1.421875 17.65625 -0.515625 
Q 12.796875 0.390625 7.625 2.203125 
L 7.625 11.71875 
Q 11.71875 9.328125 16.59375 8.109375 
Q 21.484375 6.890625 26.8125 6.890625 
Q 36.078125 6.890625 40.9375 10.546875 
Q 45.796875 14.203125 45.796875 21.1875 
Q 45.796875 27.640625 41.28125 31.265625 
Q 36.765625 34.90625 28.71875 34.90625 
L 20.21875 34.90625 
L 20.21875 43.015625 
L 29.109375 43.015625 
Q 36.375 43.015625 40.234375 45.921875 
Q 44.09375 48.828125 44.09375 54.296875 
Q 44.09375 59.90625 40.109375 62.90625 
Q 36.140625 65.921875 28.71875 65.921875 
Q 24.65625 65.921875 20.015625 65.03125 
Q 15.375 64.15625 9.8125 62.3125 
L 9.8125 71.09375 
Q 15.4375 72.65625 20.34375 73.4375 
Q 25.25 74.21875 29.59375 74.21875 
Q 40.828125 74.21875 47.359375 69.109375 
Q 53.90625 64.015625 53.90625 55.328125 
Q 53.90625 49.265625 50.4375 45.09375 
Q 46.96875 40.921875 40.578125 39.3125 
z
" id="DejaVuSans-51"/>
      </defs>
      <g transform="translate(751.684472 40.251069)scale(0.1 -0.1)">
       <use xlink:href="#DejaVuSans-49"/>
       <use x="63.623047" xlink:href="#DejaVuSans-46"/>
       <use x="95.410156" xlink:href="#DejaVuSans-51"/>
      </g>
     </g>
    </g>
   </g>
   <g id="line2d_54">
    <path clip-path="url(#pa2b54b0427)" d="M 924.44251 249.903641 
L 933.808442 249.903641 
" style="fill:none;stroke:#edd1cb;stroke-linecap:square;stroke-width:1.5;"/>
   </g>
   <g id="line2d_55">
    <path clip-path="url(#pa2b54b0427)" d="M 854.198019 267.06264 
L 863.563951 245.79387 
L 872.929883 275.080455 
L 882.295816 284.525971 
L 891.661748 262.078867 
L 901.02768 280.469055 
L 910.393612 281.221659 
L 919.759544 263.452095 
L 929.125476 269.307101 
L 938.491408 254.40852 
L 947.85734 269.884412 
L 957.223272 274.865373 
L 966.589204 258.239341 
L 975.955136 252.528418 
L 985.321068 253.804082 
L 994.687 251.157995 
L 1004.052932 207.932734 
" style="fill:none;stroke:#a9678f;stroke-linecap:square;stroke-width:1.5;"/>
   </g>
   <g id="line2d_56">
    <path clip-path="url(#pa2b54b0427)" d="M 788.636495 81.309598 
L 798.002427 233.946999 
L 807.368359 284.850394 
L 816.734291 288.262845 
L 826.100223 310.833868 
L 835.466155 299.005862 
L 844.832087 302.033093 
L 854.198019 299.564698 
L 863.563951 301.509759 
L 872.929883 300.036446 
L 882.295816 303.472765 
L 891.661748 288.269266 
L 901.02768 291.174543 
L 910.393612 302.473029 
L 919.759544 291.229908 
L 929.125476 289.548521 
L 938.491408 287.637405 
L 947.85734 292.623834 
L 957.223272 278.87338 
L 966.589204 284.928221 
L 975.955136 284.160442 
L 985.321068 286.271452 
L 994.687 263.520889 
L 1004.052932 268.874299 
L 1013.418864 271.330513 
L 1022.784796 269.397202 
L 1032.150728 255.265761 
L 1041.51666 238.223946 
L 1050.882592 212.931157 
L 1060.248524 191.270426 
L 1069.614456 158.546452 
" style="fill:none;stroke:#2d1e3e;stroke-linecap:square;stroke-width:1.5;"/>
   </g>
   <g id="patch_9">
    <path d="M 774.587597 330.239063 
L 774.587597 36.839063 
" style="fill:none;stroke:#000000;stroke-linecap:square;stroke-linejoin:miter;stroke-width:0.8;"/>
   </g>
   <g id="patch_10">
    <path d="M 774.587597 330.239063 
L 1083.663354 330.239063 
" style="fill:none;stroke:#000000;stroke-linecap:square;stroke-linejoin:miter;stroke-width:0.8;"/>
   </g>
   <g id="text_50">
    <!-- loss = total loss -->
    <g transform="translate(889.420007 30.839063)scale(0.1 -0.1)">
     <use xlink:href="#DejaVuSans-108"/>
     <use x="27.783203" xlink:href="#DejaVuSans-111"/>
     <use x="88.964844" xlink:href="#DejaVuSans-115"/>
     <use x="141.064453" xlink:href="#DejaVuSans-115"/>
     <use x="193.164062" xlink:href="#DejaVuSans-32"/>
     <use x="224.951172" xlink:href="#DejaVuSans-61"/>
     <use x="308.740234" xlink:href="#DejaVuSans-32"/>
     <use x="340.527344" xlink:href="#DejaVuSans-116"/>
     <use x="379.736328" xlink:href="#DejaVuSans-111"/>
     <use x="440.917969" xlink:href="#DejaVuSans-116"/>
     <use x="480.126953" xlink:href="#DejaVuSans-97"/>
     <use x="541.40625" xlink:href="#DejaVuSans-108"/>
     <use x="569.189453" xlink:href="#DejaVuSans-32"/>
     <use x="600.976562" xlink:href="#DejaVuSans-108"/>
     <use x="628.759766" xlink:href="#DejaVuSans-111"/>
     <use x="689.941406" xlink:href="#DejaVuSans-115"/>
     <use x="742.041016" xlink:href="#DejaVuSans-115"/>
    </g>
   </g>
  </g>
  <g id="axes_4">
   <g id="patch_11">
    <path d="M 1127.05342 330.239063 
L 1436.129177 330.239063 
L 1436.129177 36.839063 
L 1127.05342 36.839063 
z
" style="fill:#ffffff;"/>
   </g>
   <g id="PolyCollection_10">
    <defs>
     <path d="M 1276.908333 -73.286374 
L 1276.908333 -54.206069 
L 1286.274265 -55.290502 
L 1286.274265 -73.975615 
L 1286.274265 -73.975615 
L 1276.908333 -73.286374 
z
" id="m9cf772e4df" style="stroke:#edd1cb;stroke-opacity:0.2;"/>
    </defs>
    <g clip-path="url(#peb8f8ade3e)">
     <use style="fill:#edd1cb;fill-opacity:0.2;stroke:#edd1cb;stroke-opacity:0.2;" x="0" xlink:href="#m9cf772e4df" y="367.795313"/>
    </g>
   </g>
   <g id="PolyCollection_11">
    <defs>
     <path d="M 1206.663842 -86.760609 
L 1206.663842 -60.608225 
L 1216.029774 -59.871048 
L 1225.395706 -59.02674 
L 1234.761638 -53.300749 
L 1244.12757 -56.00352 
L 1253.493502 -54.190438 
L 1262.859434 -51.302634 
L 1272.225367 -59.826698 
L 1281.591299 -54.713162 
L 1290.957231 -57.027497 
L 1300.323163 -55.351545 
L 1309.689095 -50.892614 
L 1319.055027 -58.71641 
L 1328.420959 -56.58177 
L 1337.786891 -55.767031 
L 1347.152823 -54.032805 
L 1356.518755 -76.556463 
L 1356.518755 -120.068533 
L 1356.518755 -120.068533 
L 1347.152823 -70.064186 
L 1337.786891 -73.858985 
L 1328.420959 -87.549721 
L 1319.055027 -78.867191 
L 1309.689095 -57.443087 
L 1300.323163 -64.27827 
L 1290.957231 -100.519007 
L 1281.591299 -73.716899 
L 1272.225367 -77.3705 
L 1262.859434 -58.854205 
L 1253.493502 -60.949736 
L 1244.12757 -108.763972 
L 1234.761638 -59.255252 
L 1225.395706 -72.111672 
L 1216.029774 -146.321312 
L 1206.663842 -86.760609 
z
" id="m66424f4014" style="stroke:#a9678f;stroke-opacity:0.2;"/>
    </defs>
    <g clip-path="url(#peb8f8ade3e)">
     <use style="fill:#a9678f;fill-opacity:0.2;stroke:#a9678f;stroke-opacity:0.2;" x="0" xlink:href="#m66424f4014" y="367.795313"/>
    </g>
   </g>
   <g id="PolyCollection_12">
    <defs>
     <path d="M 1141.102318 -317.619886 
L 1141.102318 -266.643846 
L 1150.46825 -135.864245 
L 1159.834182 -81.718465 
L 1169.200114 -70.843252 
L 1178.566046 -54.09307 
L 1187.931978 -62.688949 
L 1197.29791 -58.169491 
L 1206.663842 -59.136715 
L 1216.029774 -60.898902 
L 1225.395706 -60.699058 
L 1234.761638 -59.427514 
L 1244.12757 -61.448224 
L 1253.493502 -63.228353 
L 1262.859434 -55.074142 
L 1272.225367 -59.513536 
L 1281.591299 -64.753855 
L 1290.957231 -66.121741 
L 1300.323163 -61.172453 
L 1309.689095 -68.821866 
L 1319.055027 -66.510506 
L 1328.420959 -61.034122 
L 1337.786891 -58.798226 
L 1347.152823 -72.827347 
L 1356.518755 -67.343813 
L 1365.884687 -64.783131 
L 1375.250619 -61.350255 
L 1384.616551 -67.172932 
L 1393.982483 -72.65597 
L 1403.348415 -72.081851 
L 1412.714347 -66.361173 
L 1422.080279 -67.607168 
L 1422.080279 -78.393038 
L 1422.080279 -78.393038 
L 1412.714347 -87.962279 
L 1403.348415 -109.981973 
L 1393.982483 -93.897643 
L 1384.616551 -81.485192 
L 1375.250619 -81.76963 
L 1365.884687 -80.788211 
L 1356.518755 -96.063673 
L 1347.152823 -103.11619 
L 1337.786891 -75.91619 
L 1328.420959 -87.159773 
L 1319.055027 -80.364849 
L 1309.689095 -89.740181 
L 1300.323163 -77.780409 
L 1290.957231 -82.264566 
L 1281.591299 -81.702435 
L 1272.225367 -87.712805 
L 1262.859434 -72.314855 
L 1253.493502 -86.56683 
L 1244.12757 -102.961709 
L 1234.761638 -68.572645 
L 1225.395706 -74.059019 
L 1216.029774 -70.737814 
L 1206.663842 -80.726167 
L 1197.29791 -76.410605 
L 1187.931978 -82.085933 
L 1178.566046 -66.823442 
L 1169.200114 -91.769366 
L 1159.834182 -91.168328 
L 1150.46825 -138.568429 
L 1141.102318 -317.619886 
z
" id="m51e9b4c191" style="stroke:#2d1e3e;stroke-opacity:0.2;"/>
    </defs>
    <g clip-path="url(#peb8f8ade3e)">
     <use style="fill:#2d1e3e;fill-opacity:0.2;stroke:#2d1e3e;stroke-opacity:0.2;" x="0" xlink:href="#m51e9b4c191" y="367.795313"/>
    </g>
   </g>
   <g id="matplotlib.axis_7">
    <g id="xtick_22">
     <g id="line2d_57">
      <g>
       <use style="stroke:#000000;stroke-width:0.8;" x="1141.102318" xlink:href="#m8e89f1de2f" y="330.239063"/>
      </g>
     </g>
     <g id="text_51">
      <!-- −15 -->
      <g transform="translate(1130.549974 344.8375)scale(0.1 -0.1)">
       <use xlink:href="#DejaVuSans-8722"/>
       <use x="83.789062" xlink:href="#DejaVuSans-49"/>
       <use x="147.412109" xlink:href="#DejaVuSans-53"/>
      </g>
     </g>
    </g>
    <g id="xtick_23">
     <g id="line2d_58">
      <g>
       <use style="stroke:#000000;stroke-width:0.8;" x="1187.931978" xlink:href="#m8e89f1de2f" y="330.239063"/>
      </g>
     </g>
     <g id="text_52">
      <!-- −10 -->
      <g transform="translate(1177.379634 344.8375)scale(0.1 -0.1)">
       <use xlink:href="#DejaVuSans-8722"/>
       <use x="83.789062" xlink:href="#DejaVuSans-49"/>
       <use x="147.412109" xlink:href="#DejaVuSans-48"/>
      </g>
     </g>
    </g>
    <g id="xtick_24">
     <g id="line2d_59">
      <g>
       <use style="stroke:#000000;stroke-width:0.8;" x="1234.761638" xlink:href="#m8e89f1de2f" y="330.239063"/>
      </g>
     </g>
     <g id="text_53">
      <!-- −5 -->
      <g transform="translate(1227.390545 344.8375)scale(0.1 -0.1)">
       <use xlink:href="#DejaVuSans-8722"/>
       <use x="83.789062" xlink:href="#DejaVuSans-53"/>
      </g>
     </g>
    </g>
    <g id="xtick_25">
     <g id="line2d_60">
      <g>
       <use style="stroke:#000000;stroke-width:0.8;" x="1281.591299" xlink:href="#m8e89f1de2f" y="330.239063"/>
      </g>
     </g>
     <g id="text_54">
      <!-- 0 -->
      <g transform="translate(1278.410049 344.8375)scale(0.1 -0.1)">
       <use xlink:href="#DejaVuSans-48"/>
      </g>
     </g>
    </g>
    <g id="xtick_26">
     <g id="line2d_61">
      <g>
       <use style="stroke:#000000;stroke-width:0.8;" x="1328.420959" xlink:href="#m8e89f1de2f" y="330.239063"/>
      </g>
     </g>
     <g id="text_55">
      <!-- 5 -->
      <g transform="translate(1325.239709 344.8375)scale(0.1 -0.1)">
       <use xlink:href="#DejaVuSans-53"/>
      </g>
     </g>
    </g>
    <g id="xtick_27">
     <g id="line2d_62">
      <g>
       <use style="stroke:#000000;stroke-width:0.8;" x="1375.250619" xlink:href="#m8e89f1de2f" y="330.239063"/>
      </g>
     </g>
     <g id="text_56">
      <!-- 10 -->
      <g transform="translate(1368.888119 344.8375)scale(0.1 -0.1)">
       <use xlink:href="#DejaVuSans-49"/>
       <use x="63.623047" xlink:href="#DejaVuSans-48"/>
      </g>
     </g>
    </g>
    <g id="xtick_28">
     <g id="line2d_63">
      <g>
       <use style="stroke:#000000;stroke-width:0.8;" x="1422.080279" xlink:href="#m8e89f1de2f" y="330.239063"/>
      </g>
     </g>
     <g id="text_57">
      <!-- 15 -->
      <g transform="translate(1415.717779 344.8375)scale(0.1 -0.1)">
       <use xlink:href="#DejaVuSans-49"/>
       <use x="63.623047" xlink:href="#DejaVuSans-53"/>
      </g>
     </g>
    </g>
    <g id="text_58">
     <!-- spill -->
     <g transform="translate(1271.645205 358.515625)scale(0.1 -0.1)">
      <use xlink:href="#DejaVuSans-115"/>
      <use x="52.099609" xlink:href="#DejaVuSans-112"/>
      <use x="115.576172" xlink:href="#DejaVuSans-105"/>
      <use x="143.359375" xlink:href="#DejaVuSans-108"/>
      <use x="171.142578" xlink:href="#DejaVuSans-108"/>
     </g>
    </g>
   </g>
   <g id="matplotlib.axis_8">
    <g id="ytick_23">
     <g id="line2d_64">
      <g>
       <use style="stroke:#000000;stroke-width:0.8;" x="1127.05342" xlink:href="#m9b5cc2be4d" y="315.030106"/>
      </g>
     </g>
     <g id="text_59">
      <!-- 0.1 -->
      <g transform="translate(1104.150295 318.829325)scale(0.1 -0.1)">
       <use xlink:href="#DejaVuSans-48"/>
       <use x="63.623047" xlink:href="#DejaVuSans-46"/>
       <use x="95.410156" xlink:href="#DejaVuSans-49"/>
      </g>
     </g>
    </g>
    <g id="ytick_24">
     <g id="line2d_65">
      <g>
       <use style="stroke:#000000;stroke-width:0.8;" x="1127.05342" xlink:href="#m9b5cc2be4d" y="282.413904"/>
      </g>
     </g>
     <g id="text_60">
      <!-- 0.2 -->
      <g transform="translate(1104.150295 286.213123)scale(0.1 -0.1)">
       <use xlink:href="#DejaVuSans-48"/>
       <use x="63.623047" xlink:href="#DejaVuSans-46"/>
       <use x="95.410156" xlink:href="#DejaVuSans-50"/>
      </g>
     </g>
    </g>
    <g id="ytick_25">
     <g id="line2d_66">
      <g>
       <use style="stroke:#000000;stroke-width:0.8;" x="1127.05342" xlink:href="#m9b5cc2be4d" y="249.797702"/>
      </g>
     </g>
     <g id="text_61">
      <!-- 0.3 -->
      <g transform="translate(1104.150295 253.596921)scale(0.1 -0.1)">
       <use xlink:href="#DejaVuSans-48"/>
       <use x="63.623047" xlink:href="#DejaVuSans-46"/>
       <use x="95.410156" xlink:href="#DejaVuSans-51"/>
      </g>
     </g>
    </g>
    <g id="ytick_26">
     <g id="line2d_67">
      <g>
       <use style="stroke:#000000;stroke-width:0.8;" x="1127.05342" xlink:href="#m9b5cc2be4d" y="217.1815"/>
      </g>
     </g>
     <g id="text_62">
      <!-- 0.4 -->
      <defs>
       <path d="M 37.796875 64.3125 
L 12.890625 25.390625 
L 37.796875 25.390625 
z
M 35.203125 72.90625 
L 47.609375 72.90625 
L 47.609375 25.390625 
L 58.015625 25.390625 
L 58.015625 17.1875 
L 47.609375 17.1875 
L 47.609375 0 
L 37.796875 0 
L 37.796875 17.1875 
L 4.890625 17.1875 
L 4.890625 26.703125 
z
" id="DejaVuSans-52"/>
      </defs>
      <g transform="translate(1104.150295 220.980719)scale(0.1 -0.1)">
       <use xlink:href="#DejaVuSans-48"/>
       <use x="63.623047" xlink:href="#DejaVuSans-46"/>
       <use x="95.410156" xlink:href="#DejaVuSans-52"/>
      </g>
     </g>
    </g>
    <g id="ytick_27">
     <g id="line2d_68">
      <g>
       <use style="stroke:#000000;stroke-width:0.8;" x="1127.05342" xlink:href="#m9b5cc2be4d" y="184.565298"/>
      </g>
     </g>
     <g id="text_63">
      <!-- 0.5 -->
      <g transform="translate(1104.150295 188.364517)scale(0.1 -0.1)">
       <use xlink:href="#DejaVuSans-48"/>
       <use x="63.623047" xlink:href="#DejaVuSans-46"/>
       <use x="95.410156" xlink:href="#DejaVuSans-53"/>
      </g>
     </g>
    </g>
    <g id="ytick_28">
     <g id="line2d_69">
      <g>
       <use style="stroke:#000000;stroke-width:0.8;" x="1127.05342" xlink:href="#m9b5cc2be4d" y="151.949096"/>
      </g>
     </g>
     <g id="text_64">
      <!-- 0.6 -->
      <g transform="translate(1104.150295 155.748315)scale(0.1 -0.1)">
       <use xlink:href="#DejaVuSans-48"/>
       <use x="63.623047" xlink:href="#DejaVuSans-46"/>
       <use x="95.410156" xlink:href="#DejaVuSans-54"/>
      </g>
     </g>
    </g>
    <g id="ytick_29">
     <g id="line2d_70">
      <g>
       <use style="stroke:#000000;stroke-width:0.8;" x="1127.05342" xlink:href="#m9b5cc2be4d" y="119.332894"/>
      </g>
     </g>
     <g id="text_65">
      <!-- 0.7 -->
      <g transform="translate(1104.150295 123.132113)scale(0.1 -0.1)">
       <use xlink:href="#DejaVuSans-48"/>
       <use x="63.623047" xlink:href="#DejaVuSans-46"/>
       <use x="95.410156" xlink:href="#DejaVuSans-55"/>
      </g>
     </g>
    </g>
    <g id="ytick_30">
     <g id="line2d_71">
      <g>
       <use style="stroke:#000000;stroke-width:0.8;" x="1127.05342" xlink:href="#m9b5cc2be4d" y="86.716692"/>
      </g>
     </g>
     <g id="text_66">
      <!-- 0.8 -->
      <g transform="translate(1104.150295 90.515911)scale(0.1 -0.1)">
       <use xlink:href="#DejaVuSans-48"/>
       <use x="63.623047" xlink:href="#DejaVuSans-46"/>
       <use x="95.410156" xlink:href="#DejaVuSans-56"/>
      </g>
     </g>
    </g>
    <g id="ytick_31">
     <g id="line2d_72">
      <g>
       <use style="stroke:#000000;stroke-width:0.8;" x="1127.05342" xlink:href="#m9b5cc2be4d" y="54.10049"/>
      </g>
     </g>
     <g id="text_67">
      <!-- 0.9 -->
      <g transform="translate(1104.150295 57.899709)scale(0.1 -0.1)">
       <use xlink:href="#DejaVuSans-48"/>
       <use x="63.623047" xlink:href="#DejaVuSans-46"/>
       <use x="95.410156" xlink:href="#DejaVuSans-57"/>
      </g>
     </g>
    </g>
   </g>
   <g id="line2d_73">
    <path clip-path="url(#peb8f8ade3e)" d="M 1276.908333 304.776821 
L 1286.274265 304.776821 
" style="fill:none;stroke:#edd1cb;stroke-linecap:square;stroke-width:1.5;"/>
   </g>
   <g id="line2d_74">
    <path clip-path="url(#peb8f8ade3e)" d="M 1206.663842 295.112285 
L 1216.029774 274.949549 
L 1225.395706 303.219164 
L 1234.761638 311.636776 
L 1244.12757 291.050861 
L 1253.493502 310.198898 
L 1262.859434 312.746333 
L 1272.225367 298.574157 
L 1281.591299 304.225421 
L 1290.957231 291.446934 
L 1300.323163 308.003794 
L 1309.689095 313.886525 
L 1319.055027 299.790152 
L 1328.420959 298.023345 
L 1337.786891 303.475427 
L 1347.152823 306.017415 
L 1356.518755 272.707341 
" style="fill:none;stroke:#a9678f;stroke-linecap:square;stroke-width:1.5;"/>
   </g>
   <g id="line2d_75">
    <path clip-path="url(#peb8f8ade3e)" d="M 1141.102318 79.604039 
L 1150.46825 230.552387 
L 1159.834182 281.845752 
L 1169.200114 286.45433 
L 1178.566046 307.323421 
L 1187.931978 296.932816 
L 1197.29791 301.463477 
L 1206.663842 298.870929 
L 1216.029774 302.327852 
L 1225.395706 301.435451 
L 1234.761638 304.024776 
L 1244.12757 290.861385 
L 1253.493502 294.379772 
L 1262.859434 304.545465 
L 1272.225367 296.257592 
L 1281.591299 294.705986 
L 1290.957231 293.46284 
L 1300.323163 299.350472 
L 1309.689095 289.238251 
L 1319.055027 294.877852 
L 1328.420959 295.327808 
L 1337.786891 300.556446 
L 1347.152823 280.561754 
L 1356.518755 287.297236 
L 1365.884687 295.549016 
L 1375.250619 297.171786 
L 1384.616551 293.7962 
L 1393.982483 284.323717 
L 1403.348415 278.616004 
L 1412.714347 291.430933 
L 1422.080279 295.566391 
" style="fill:none;stroke:#2d1e3e;stroke-linecap:square;stroke-width:1.5;"/>
   </g>
   <g id="patch_12">
    <path d="M 1127.05342 330.239063 
L 1127.05342 36.839063 
" style="fill:none;stroke:#000000;stroke-linecap:square;stroke-linejoin:miter;stroke-width:0.8;"/>
   </g>
   <g id="patch_13">
    <path d="M 1127.05342 330.239063 
L 1436.129177 330.239063 
" style="fill:none;stroke:#000000;stroke-linecap:square;stroke-linejoin:miter;stroke-width:0.8;"/>
   </g>
   <g id="text_68">
    <!-- loss = adj -->
    <defs>
     <path d="M 45.40625 46.390625 
L 45.40625 75.984375 
L 54.390625 75.984375 
L 54.390625 0 
L 45.40625 0 
L 45.40625 8.203125 
Q 42.578125 3.328125 38.25 0.953125 
Q 33.9375 -1.421875 27.875 -1.421875 
Q 17.96875 -1.421875 11.734375 6.484375 
Q 5.515625 14.40625 5.515625 27.296875 
Q 5.515625 40.1875 11.734375 48.09375 
Q 17.96875 56 27.875 56 
Q 33.9375 56 38.25 53.625 
Q 42.578125 51.265625 45.40625 46.390625 
z
M 14.796875 27.296875 
Q 14.796875 17.390625 18.875 11.75 
Q 22.953125 6.109375 30.078125 6.109375 
Q 37.203125 6.109375 41.296875 11.75 
Q 45.40625 17.390625 45.40625 27.296875 
Q 45.40625 37.203125 41.296875 42.84375 
Q 37.203125 48.484375 30.078125 48.484375 
Q 22.953125 48.484375 18.875 42.84375 
Q 14.796875 37.203125 14.796875 27.296875 
z
" id="DejaVuSans-100"/>
     <path d="M 9.421875 54.6875 
L 18.40625 54.6875 
L 18.40625 -0.984375 
Q 18.40625 -11.421875 14.421875 -16.109375 
Q 10.453125 -20.796875 1.609375 -20.796875 
L -1.8125 -20.796875 
L -1.8125 -13.1875 
L 0.59375 -13.1875 
Q 5.71875 -13.1875 7.5625 -10.8125 
Q 9.421875 -8.453125 9.421875 -0.984375 
z
M 9.421875 75.984375 
L 18.40625 75.984375 
L 18.40625 64.59375 
L 9.421875 64.59375 
z
" id="DejaVuSans-106"/>
    </defs>
    <g transform="translate(1256.938174 30.839063)scale(0.1 -0.1)">
     <use xlink:href="#DejaVuSans-108"/>
     <use x="27.783203" xlink:href="#DejaVuSans-111"/>
     <use x="88.964844" xlink:href="#DejaVuSans-115"/>
     <use x="141.064453" xlink:href="#DejaVuSans-115"/>
     <use x="193.164062" xlink:href="#DejaVuSans-32"/>
     <use x="224.951172" xlink:href="#DejaVuSans-61"/>
     <use x="308.740234" xlink:href="#DejaVuSans-32"/>
     <use x="340.527344" xlink:href="#DejaVuSans-97"/>
     <use x="401.806641" xlink:href="#DejaVuSans-100"/>
     <use x="465.283203" xlink:href="#DejaVuSans-106"/>
    </g>
   </g>
  </g>
  <g id="axes_5">
   <g id="patch_14">
    <path d="M 1479.519243 330.239063 
L 1788.595 330.239063 
L 1788.595 36.839063 
L 1479.519243 36.839063 
z
" style="fill:#ffffff;"/>
   </g>
   <g id="PolyCollection_13">
    <defs>
     <path d="M 1629.374155 -162.964595 
L 1629.374155 -152.709697 
L 1638.740087 -152.67788 
L 1638.740087 -162.965554 
L 1638.740087 -162.965554 
L 1629.374155 -162.964595 
z
" id="m67f493288a" style="stroke:#edd1cb;stroke-opacity:0.2;"/>
    </defs>
    <g clip-path="url(#p20be8b8bd6)">
     <use style="fill:#edd1cb;fill-opacity:0.2;stroke:#edd1cb;stroke-opacity:0.2;" x="0" xlink:href="#m67f493288a" y="367.795313"/>
    </g>
   </g>
   <g id="PolyCollection_14">
    <defs>
     <path d="M 1559.129665 -115.770683 
L 1559.129665 -107.190855 
L 1568.495597 -106.935543 
L 1577.861529 -107.065502 
L 1587.227461 -106.650776 
L 1596.593393 -107.965072 
L 1605.959325 -108.728865 
L 1615.325257 -113.051697 
L 1624.691189 -117.724908 
L 1634.057121 -117.369413 
L 1643.423053 -120.134577 
L 1652.788985 -123.724155 
L 1662.154918 -126.048633 
L 1671.52085 -130.905802 
L 1680.886782 -136.924482 
L 1690.252714 -145.028933 
L 1699.618646 -153.399053 
L 1708.984578 -167.61053 
L 1708.984578 -180.657472 
L 1708.984578 -180.657472 
L 1699.618646 -162.636321 
L 1690.252714 -152.383574 
L 1680.886782 -144.766422 
L 1671.52085 -137.56044 
L 1662.154918 -133.76571 
L 1652.788985 -132.88745 
L 1643.423053 -132.442839 
L 1634.057121 -127.364272 
L 1624.691189 -128.460241 
L 1615.325257 -120.673504 
L 1605.959325 -118.879169 
L 1596.593393 -116.535974 
L 1587.227461 -111.764967 
L 1577.861529 -114.715938 
L 1568.495597 -117.8128 
L 1559.129665 -115.770683 
z
" id="m294b8222ef" style="stroke:#a9678f;stroke-opacity:0.2;"/>
    </defs>
    <g clip-path="url(#p20be8b8bd6)">
     <use style="fill:#a9678f;fill-opacity:0.2;stroke:#a9678f;stroke-opacity:0.2;" x="0" xlink:href="#m294b8222ef" y="367.795313"/>
    </g>
   </g>
   <g id="PolyCollection_15">
    <defs>
     <path d="M 1493.568141 -55.638704 
L 1493.568141 -50.892614 
L 1502.934073 -52.097279 
L 1512.300005 -54.098745 
L 1521.665937 -56.818223 
L 1531.031869 -53.666815 
L 1540.397801 -55.480919 
L 1549.763733 -58.035459 
L 1559.129665 -56.88921 
L 1568.495597 -58.671667 
L 1577.861529 -61.773291 
L 1587.227461 -59.524176 
L 1596.593393 -61.918192 
L 1605.959325 -64.545858 
L 1615.325257 -62.39043 
L 1624.691189 -66.590536 
L 1634.057121 -67.34761 
L 1643.423053 -68.716443 
L 1652.788985 -70.887094 
L 1662.154918 -74.958218 
L 1671.52085 -75.708874 
L 1680.886782 -78.366705 
L 1690.252714 -84.363495 
L 1699.618646 -87.824524 
L 1708.984578 -90.5591 
L 1718.35051 -97.255632 
L 1727.716442 -106.975948 
L 1737.082374 -124.398687 
L 1746.448306 -138.501158 
L 1755.814238 -173.975985 
L 1765.18017 -241.090788 
L 1774.546102 -312.249874 
L 1774.546102 -317.619886 
L 1774.546102 -317.619886 
L 1765.18017 -249.874536 
L 1755.814238 -183.83388 
L 1746.448306 -148.155173 
L 1737.082374 -136.161289 
L 1727.716442 -114.144403 
L 1718.35051 -109.803008 
L 1708.984578 -96.078609 
L 1699.618646 -93.660007 
L 1690.252714 -88.45877 
L 1680.886782 -83.672733 
L 1671.52085 -82.046749 
L 1662.154918 -83.058536 
L 1652.788985 -76.083478 
L 1643.423053 -74.559463 
L 1634.057121 -73.577603 
L 1624.691189 -73.844308 
L 1615.325257 -67.814953 
L 1605.959325 -69.66305 
L 1596.593393 -71.004252 
L 1587.227461 -66.236483 
L 1577.861529 -66.765793 
L 1568.495597 -67.856859 
L 1559.129665 -63.693082 
L 1549.763733 -63.982004 
L 1540.397801 -60.548008 
L 1531.031869 -58.105564 
L 1521.665937 -59.784454 
L 1512.300005 -59.070491 
L 1502.934073 -56.223196 
L 1493.568141 -55.638704 
z
" id="mcb5ae1bbf0" style="stroke:#2d1e3e;stroke-opacity:0.2;"/>
    </defs>
    <g clip-path="url(#p20be8b8bd6)">
     <use style="fill:#2d1e3e;fill-opacity:0.2;stroke:#2d1e3e;stroke-opacity:0.2;" x="0" xlink:href="#mcb5ae1bbf0" y="367.795313"/>
    </g>
   </g>
   <g id="matplotlib.axis_9">
    <g id="xtick_29">
     <g id="line2d_76">
      <g>
       <use style="stroke:#000000;stroke-width:0.8;" x="1493.568141" xlink:href="#m8e89f1de2f" y="330.239063"/>
      </g>
     </g>
     <g id="text_69">
      <!-- −15 -->
      <g transform="translate(1483.015797 344.8375)scale(0.1 -0.1)">
       <use xlink:href="#DejaVuSans-8722"/>
       <use x="83.789062" xlink:href="#DejaVuSans-49"/>
       <use x="147.412109" xlink:href="#DejaVuSans-53"/>
      </g>
     </g>
    </g>
    <g id="xtick_30">
     <g id="line2d_77">
      <g>
       <use style="stroke:#000000;stroke-width:0.8;" x="1540.397801" xlink:href="#m8e89f1de2f" y="330.239063"/>
      </g>
     </g>
     <g id="text_70">
      <!-- −10 -->
      <g transform="translate(1529.845457 344.8375)scale(0.1 -0.1)">
       <use xlink:href="#DejaVuSans-8722"/>
       <use x="83.789062" xlink:href="#DejaVuSans-49"/>
       <use x="147.412109" xlink:href="#DejaVuSans-48"/>
      </g>
     </g>
    </g>
    <g id="xtick_31">
     <g id="line2d_78">
      <g>
       <use style="stroke:#000000;stroke-width:0.8;" x="1587.227461" xlink:href="#m8e89f1de2f" y="330.239063"/>
      </g>
     </g>
     <g id="text_71">
      <!-- −5 -->
      <g transform="translate(1579.856367 344.8375)scale(0.1 -0.1)">
       <use xlink:href="#DejaVuSans-8722"/>
       <use x="83.789062" xlink:href="#DejaVuSans-53"/>
      </g>
     </g>
    </g>
    <g id="xtick_32">
     <g id="line2d_79">
      <g>
       <use style="stroke:#000000;stroke-width:0.8;" x="1634.057121" xlink:href="#m8e89f1de2f" y="330.239063"/>
      </g>
     </g>
     <g id="text_72">
      <!-- 0 -->
      <g transform="translate(1630.875871 344.8375)scale(0.1 -0.1)">
       <use xlink:href="#DejaVuSans-48"/>
      </g>
     </g>
    </g>
    <g id="xtick_33">
     <g id="line2d_80">
      <g>
       <use style="stroke:#000000;stroke-width:0.8;" x="1680.886782" xlink:href="#m8e89f1de2f" y="330.239063"/>
      </g>
     </g>
     <g id="text_73">
      <!-- 5 -->
      <g transform="translate(1677.705532 344.8375)scale(0.1 -0.1)">
       <use xlink:href="#DejaVuSans-53"/>
      </g>
     </g>
    </g>
    <g id="xtick_34">
     <g id="line2d_81">
      <g>
       <use style="stroke:#000000;stroke-width:0.8;" x="1727.716442" xlink:href="#m8e89f1de2f" y="330.239063"/>
      </g>
     </g>
     <g id="text_74">
      <!-- 10 -->
      <g transform="translate(1721.353942 344.8375)scale(0.1 -0.1)">
       <use xlink:href="#DejaVuSans-49"/>
       <use x="63.623047" xlink:href="#DejaVuSans-48"/>
      </g>
     </g>
    </g>
    <g id="xtick_35">
     <g id="line2d_82">
      <g>
       <use style="stroke:#000000;stroke-width:0.8;" x="1774.546102" xlink:href="#m8e89f1de2f" y="330.239063"/>
      </g>
     </g>
     <g id="text_75">
      <!-- 15 -->
      <g transform="translate(1768.183602 344.8375)scale(0.1 -0.1)">
       <use xlink:href="#DejaVuSans-49"/>
       <use x="63.623047" xlink:href="#DejaVuSans-53"/>
      </g>
     </g>
    </g>
    <g id="text_76">
     <!-- spill -->
     <g transform="translate(1624.111028 358.515625)scale(0.1 -0.1)">
      <use xlink:href="#DejaVuSans-115"/>
      <use x="52.099609" xlink:href="#DejaVuSans-112"/>
      <use x="115.576172" xlink:href="#DejaVuSans-105"/>
      <use x="143.359375" xlink:href="#DejaVuSans-108"/>
      <use x="171.142578" xlink:href="#DejaVuSans-108"/>
     </g>
    </g>
   </g>
   <g id="matplotlib.axis_10">
    <g id="ytick_32">
     <g id="line2d_83">
      <g>
       <use style="stroke:#000000;stroke-width:0.8;" x="1479.519243" xlink:href="#m9b5cc2be4d" y="324.01264"/>
      </g>
     </g>
     <g id="text_77">
      <!-- 0.3 -->
      <g transform="translate(1456.616118 327.811858)scale(0.1 -0.1)">
       <use xlink:href="#DejaVuSans-48"/>
       <use x="63.623047" xlink:href="#DejaVuSans-46"/>
       <use x="95.410156" xlink:href="#DejaVuSans-51"/>
      </g>
     </g>
    </g>
    <g id="ytick_33">
     <g id="line2d_84">
      <g>
       <use style="stroke:#000000;stroke-width:0.8;" x="1479.519243" xlink:href="#m9b5cc2be4d" y="265.665608"/>
      </g>
     </g>
     <g id="text_78">
      <!-- 0.4 -->
      <g transform="translate(1456.616118 269.464826)scale(0.1 -0.1)">
       <use xlink:href="#DejaVuSans-48"/>
       <use x="63.623047" xlink:href="#DejaVuSans-46"/>
       <use x="95.410156" xlink:href="#DejaVuSans-52"/>
      </g>
     </g>
    </g>
    <g id="ytick_34">
     <g id="line2d_85">
      <g>
       <use style="stroke:#000000;stroke-width:0.8;" x="1479.519243" xlink:href="#m9b5cc2be4d" y="207.318576"/>
      </g>
     </g>
     <g id="text_79">
      <!-- 0.5 -->
      <g transform="translate(1456.616118 211.117794)scale(0.1 -0.1)">
       <use xlink:href="#DejaVuSans-48"/>
       <use x="63.623047" xlink:href="#DejaVuSans-46"/>
       <use x="95.410156" xlink:href="#DejaVuSans-53"/>
      </g>
     </g>
    </g>
    <g id="ytick_35">
     <g id="line2d_86">
      <g>
       <use style="stroke:#000000;stroke-width:0.8;" x="1479.519243" xlink:href="#m9b5cc2be4d" y="148.971543"/>
      </g>
     </g>
     <g id="text_80">
      <!-- 0.6 -->
      <g transform="translate(1456.616118 152.770762)scale(0.1 -0.1)">
       <use xlink:href="#DejaVuSans-48"/>
       <use x="63.623047" xlink:href="#DejaVuSans-46"/>
       <use x="95.410156" xlink:href="#DejaVuSans-54"/>
      </g>
     </g>
    </g>
    <g id="ytick_36">
     <g id="line2d_87">
      <g>
       <use style="stroke:#000000;stroke-width:0.8;" x="1479.519243" xlink:href="#m9b5cc2be4d" y="90.624511"/>
      </g>
     </g>
     <g id="text_81">
      <!-- 0.7 -->
      <g transform="translate(1456.616118 94.42373)scale(0.1 -0.1)">
       <use xlink:href="#DejaVuSans-48"/>
       <use x="63.623047" xlink:href="#DejaVuSans-46"/>
       <use x="95.410156" xlink:href="#DejaVuSans-55"/>
      </g>
     </g>
    </g>
   </g>
   <g id="line2d_88">
    <path clip-path="url(#p20be8b8bd6)" d="M 1629.374155 210.00009 
L 1638.740087 210.00009 
" style="fill:none;stroke:#edd1cb;stroke-linecap:square;stroke-width:1.5;"/>
   </g>
   <g id="line2d_89">
    <path clip-path="url(#p20be8b8bd6)" d="M 1559.129665 256.870895 
L 1568.495597 255.621912 
L 1577.861529 256.863046 
L 1587.227461 258.617871 
L 1596.593393 255.872851 
L 1605.959325 254.027357 
L 1615.325257 250.967711 
L 1624.691189 244.767672 
L 1634.057121 245.087808 
L 1643.423053 241.836777 
L 1652.788985 239.373707 
L 1662.154918 237.955703 
L 1671.52085 233.871437 
L 1680.886782 226.953715 
L 1690.252714 219.307079 
L 1699.618646 210.289123 
L 1708.984578 193.086279 
" style="fill:none;stroke:#a9678f;stroke-linecap:square;stroke-width:1.5;"/>
   </g>
   <g id="line2d_90">
    <path clip-path="url(#p20be8b8bd6)" d="M 1493.568141 314.715111 
L 1502.934073 313.699591 
L 1512.300005 311.55411 
L 1521.665937 309.440573 
L 1531.031869 311.954112 
L 1540.397801 309.703995 
L 1549.763733 306.890275 
L 1559.129665 307.264367 
L 1568.495597 304.493593 
L 1577.861529 303.543606 
L 1587.227461 305.069076 
L 1596.593393 301.80586 
L 1605.959325 300.682111 
L 1615.325257 302.477017 
L 1624.691189 297.422059 
L 1634.057121 297.291452 
L 1643.423053 296.240006 
L 1652.788985 294.581451 
L 1662.154918 288.571911 
L 1671.52085 289.02056 
L 1680.886782 286.876602 
L 1690.252714 281.184265 
L 1699.618646 277.176047 
L 1708.984578 274.371328 
L 1718.35051 263.993439 
L 1727.716442 257.554217 
L 1737.082374 238.200316 
L 1746.448306 224.847683 
L 1755.814238 189.130897 
L 1765.18017 122.564328 
L 1774.546102 52.130724 
" style="fill:none;stroke:#2d1e3e;stroke-linecap:square;stroke-width:1.5;"/>
   </g>
   <g id="patch_15">
    <path d="M 1479.519243 330.239063 
L 1479.519243 36.839062 
" style="fill:none;stroke:#000000;stroke-linecap:square;stroke-linejoin:miter;stroke-width:0.8;"/>
   </g>
   <g id="patch_16">
    <path d="M 1479.519243 330.239063 
L 1788.595 330.239063 
" style="fill:none;stroke:#000000;stroke-linecap:square;stroke-linejoin:miter;stroke-width:0.8;"/>
   </g>
   <g id="text_82">
    <!-- loss = feat -->
    <defs>
     <path d="M 37.109375 75.984375 
L 37.109375 68.5 
L 28.515625 68.5 
Q 23.6875 68.5 21.796875 66.546875 
Q 19.921875 64.59375 19.921875 59.515625 
L 19.921875 54.6875 
L 34.71875 54.6875 
L 34.71875 47.703125 
L 19.921875 47.703125 
L 19.921875 0 
L 10.890625 0 
L 10.890625 47.703125 
L 2.296875 47.703125 
L 2.296875 54.6875 
L 10.890625 54.6875 
L 10.890625 58.5 
Q 10.890625 67.625 15.140625 71.796875 
Q 19.390625 75.984375 28.609375 75.984375 
z
" id="DejaVuSans-102"/>
     <path d="M 56.203125 29.59375 
L 56.203125 25.203125 
L 14.890625 25.203125 
Q 15.484375 15.921875 20.484375 11.0625 
Q 25.484375 6.203125 34.421875 6.203125 
Q 39.59375 6.203125 44.453125 7.46875 
Q 49.3125 8.734375 54.109375 11.28125 
L 54.109375 2.78125 
Q 49.265625 0.734375 44.1875 -0.34375 
Q 39.109375 -1.421875 33.890625 -1.421875 
Q 20.796875 -1.421875 13.15625 6.1875 
Q 5.515625 13.8125 5.515625 26.8125 
Q 5.515625 40.234375 12.765625 48.109375 
Q 20.015625 56 32.328125 56 
Q 43.359375 56 49.78125 48.890625 
Q 56.203125 41.796875 56.203125 29.59375 
z
M 47.21875 32.234375 
Q 47.125 39.59375 43.09375 43.984375 
Q 39.0625 48.390625 32.421875 48.390625 
Q 24.90625 48.390625 20.390625 44.140625 
Q 15.875 39.890625 15.1875 32.171875 
z
" id="DejaVuSans-101"/>
    </defs>
    <g transform="translate(1607.170403 30.839063)scale(0.1 -0.1)">
     <use xlink:href="#DejaVuSans-108"/>
     <use x="27.783203" xlink:href="#DejaVuSans-111"/>
     <use x="88.964844" xlink:href="#DejaVuSans-115"/>
     <use x="141.064453" xlink:href="#DejaVuSans-115"/>
     <use x="193.164062" xlink:href="#DejaVuSans-32"/>
     <use x="224.951172" xlink:href="#DejaVuSans-61"/>
     <use x="308.740234" xlink:href="#DejaVuSans-32"/>
     <use x="340.527344" xlink:href="#DejaVuSans-102"/>
     <use x="375.732422" xlink:href="#DejaVuSans-101"/>
     <use x="437.255859" xlink:href="#DejaVuSans-97"/>
     <use x="498.535156" xlink:href="#DejaVuSans-116"/>
    </g>
   </g>
  </g>
  <g id="text_83">
   <g id="patch_17">
    <path d="M 3.2 20.878125 
L 85.6 20.878125 
L 85.6 3.2 
L 3.2 3.2 
z
" style="fill:none;stroke:#8b0000;stroke-linejoin:miter;"/>
   </g>
   <!-- dataset = cora -->
   <defs>
    <path d="M 41.109375 46.296875 
Q 39.59375 47.171875 37.8125 47.578125 
Q 36.03125 48 33.890625 48 
Q 26.265625 48 22.1875 43.046875 
Q 18.109375 38.09375 18.109375 28.8125 
L 18.109375 0 
L 9.078125 0 
L 9.078125 54.6875 
L 18.109375 54.6875 
L 18.109375 46.1875 
Q 20.953125 51.171875 25.484375 53.578125 
Q 30.03125 56 36.53125 56 
Q 37.453125 56 38.578125 55.875 
Q 39.703125 55.765625 41.0625 55.515625 
z
" id="DejaVuSans-114"/>
   </defs>
   <g style="fill:#8b0000;" transform="translate(7.2 14.798437)scale(0.1 -0.1)">
    <use xlink:href="#DejaVuSans-100"/>
    <use x="63.476562" xlink:href="#DejaVuSans-97"/>
    <use x="124.755859" xlink:href="#DejaVuSans-116"/>
    <use x="163.964844" xlink:href="#DejaVuSans-97"/>
    <use x="225.244141" xlink:href="#DejaVuSans-115"/>
    <use x="277.34375" xlink:href="#DejaVuSans-101"/>
    <use x="338.867188" xlink:href="#DejaVuSans-116"/>
    <use x="378.076172" xlink:href="#DejaVuSans-32"/>
    <use x="409.863281" xlink:href="#DejaVuSans-61"/>
    <use x="493.652344" xlink:href="#DejaVuSans-32"/>
    <use x="525.439453" xlink:href="#DejaVuSans-99"/>
    <use x="580.419922" xlink:href="#DejaVuSans-111"/>
    <use x="641.601562" xlink:href="#DejaVuSans-114"/>
    <use x="682.714844" xlink:href="#DejaVuSans-97"/>
   </g>
  </g>
  <g id="legend_1">
   <g id="line2d_91">
    <path d="M 1808.45625 161.129688 
L 1828.45625 161.129688 
" style="fill:none;"/>
   </g>
   <g id="line2d_92"/>
   <g id="text_84">
    <!-- dimξ -->
    <defs>
     <path d="M 52 44.1875 
Q 55.375 50.25 60.0625 53.125 
Q 64.75 56 71.09375 56 
Q 79.640625 56 84.28125 50.015625 
Q 88.921875 44.046875 88.921875 33.015625 
L 88.921875 0 
L 79.890625 0 
L 79.890625 32.71875 
Q 79.890625 40.578125 77.09375 44.375 
Q 74.3125 48.1875 68.609375 48.1875 
Q 61.625 48.1875 57.5625 43.546875 
Q 53.515625 38.921875 53.515625 30.90625 
L 53.515625 0 
L 44.484375 0 
L 44.484375 32.71875 
Q 44.484375 40.625 41.703125 44.40625 
Q 38.921875 48.1875 33.109375 48.1875 
Q 26.21875 48.1875 22.15625 43.53125 
Q 18.109375 38.875 18.109375 30.90625 
L 18.109375 0 
L 9.078125 0 
L 9.078125 54.6875 
L 18.109375 54.6875 
L 18.109375 46.1875 
Q 21.1875 51.21875 25.484375 53.609375 
Q 29.78125 56 35.6875 56 
Q 41.65625 56 45.828125 52.96875 
Q 50 49.953125 52 44.1875 
z
" id="DejaVuSans-109"/>
     <path d="M 35.640625 6.203125 
Q 42.09375 6.15625 45.953125 2.484375 
Q 50.046875 -1.375 50.046875 -7.234375 
Q 50.046875 -12.84375 46.4375 -16.75 
Q 42.53125 -21 34.578125 -21 
Q 34.578125 -17.328125 34.578125 -13.625 
Q 37.9375 -13.875 39.984375 -11.71875 
Q 41.546875 -10.015625 41.546875 -8.203125 
Q 41.546875 -5.609375 39.984375 -3.46875 
Q 38.484375 -1.421875 35.640625 -1.421875 
Q 5.21875 -1.421875 5.21875 19.921875 
Q 5.21875 34.578125 21.484375 38.875 
Q 7.8125 40.625 7.8125 53.328125 
Q 7.8125 62.9375 18.5625 66.9375 
L 8.40625 66.9375 
L 8.40625 75.984375 
L 46.921875 75.984375 
L 46.921875 66.9375 
Q 16.21875 66.9375 16.21875 52.734375 
Q 16.21875 43.40625 42 42.96875 
L 42 34.671875 
Q 14.15625 35.75 14.265625 19.921875 
Q 14.3125 6.6875 35.640625 6.203125 
z
" id="DejaVuSans-958"/>
    </defs>
    <g transform="translate(1836.45625 164.629688)scale(0.1 -0.1)">
     <use xlink:href="#DejaVuSans-100"/>
     <use x="63.476562" xlink:href="#DejaVuSans-105"/>
     <use x="91.259766" xlink:href="#DejaVuSans-109"/>
     <use x="188.671875" xlink:href="#DejaVuSans-958"/>
    </g>
   </g>
   <g id="line2d_93">
    <path d="M 1808.45625 175.828125 
L 1828.45625 175.828125 
" style="fill:none;stroke:#edd1cb;stroke-linecap:square;stroke-width:1.5;"/>
   </g>
   <g id="line2d_94"/>
   <g id="text_85">
    <!-- 16 -->
    <g transform="translate(1836.45625 179.328125)scale(0.1 -0.1)">
     <use xlink:href="#DejaVuSans-49"/>
     <use x="63.623047" xlink:href="#DejaVuSans-54"/>
    </g>
   </g>
   <g id="line2d_95">
    <path d="M 1808.45625 190.50625 
L 1828.45625 190.50625 
" style="fill:none;stroke:#a9678f;stroke-linecap:square;stroke-width:1.5;"/>
   </g>
   <g id="line2d_96"/>
   <g id="text_86">
    <!-- 24 -->
    <g transform="translate(1836.45625 194.00625)scale(0.1 -0.1)">
     <use xlink:href="#DejaVuSans-50"/>
     <use x="63.623047" xlink:href="#DejaVuSans-52"/>
    </g>
   </g>
   <g id="line2d_97">
    <path d="M 1808.45625 205.184375 
L 1828.45625 205.184375 
" style="fill:none;stroke:#2d1e3e;stroke-linecap:square;stroke-width:1.5;"/>
   </g>
   <g id="line2d_98"/>
   <g id="text_87">
    <!-- 32 -->
    <g transform="translate(1836.45625 208.684375)scale(0.1 -0.1)">
     <use xlink:href="#DejaVuSans-51"/>
     <use x="63.623047" xlink:href="#DejaVuSans-50"/>
    </g>
   </g>
  </g>
 </g>
 <defs>
  <clipPath id="p3b48476c99">
   <rect height="293.4" width="309.075757" x="69.655951" y="36.839063"/>
  </clipPath>
  <clipPath id="p8fb73be90c">
   <rect height="293.4" width="309.075757" x="422.121774" y="36.839063"/>
  </clipPath>
  <clipPath id="pa2b54b0427">
   <rect height="293.4" width="309.075757" x="774.587597" y="36.839063"/>
  </clipPath>
  <clipPath id="peb8f8ade3e">
   <rect height="293.4" width="309.075757" x="1127.05342" y="36.839063"/>
  </clipPath>
  <clipPath id="p20be8b8bd6">
   <rect height="293.4" width="309.075757" x="1479.519243" y="36.839063"/>
  </clipPath>
 </defs>
</svg>
