<?xml version="1.0" encoding="utf-8" standalone="no"?>
<!DOCTYPE svg PUBLIC "-//W3C//DTD SVG 1.1//EN"
  "http://www.w3.org/Graphics/SVG/1.1/DTD/svg11.dtd">
<!-- Created with matplotlib (https://matplotlib.org/) -->
<svg height="367.795313pt" version="1.1" viewBox="0 0 1869.9 367.795313" width="1869.9pt" xmlns="http://www.w3.org/2000/svg" xmlns:xlink="http://www.w3.org/1999/xlink">
 <defs>
  <style type="text/css">
*{stroke-linecap:butt;stroke-linejoin:round;}
  </style>
 </defs>
 <g id="figure_1">
  <g id="patch_1">
   <path d="M 0 367.795313 
L 1869.9 367.795313 
L 1869.9 0 
L 0 0 
z
" style="fill:#ffffff;"/>
  </g>
  <g id="axes_1">
   <g id="patch_2">
    <path d="M 63.066681 330.239063 
L 368.373539 330.239063 
L 368.373539 36.839063 
L 63.066681 36.839063 
z
" style="fill:#ffffff;"/>
   </g>
   <g id="PolyCollection_1">
    <defs>
     <path d="M 211.094248 -243.334771 
L 211.094248 -206.203681 
L 220.345971 -206.681735 
L 220.345971 -243.730557 
L 220.345971 -243.730557 
L 211.094248 -243.334771 
z
" id="m9c63fe1937" style="stroke:#edd1cb;stroke-opacity:0.2;"/>
    </defs>
    <g clip-path="url(#p0ede662862)">
     <use style="fill:#edd1cb;fill-opacity:0.2;stroke:#edd1cb;stroke-opacity:0.2;" x="0" xlink:href="#m9c63fe1937" y="367.795313"/>
    </g>
   </g>
   <g id="PolyCollection_2">
    <defs>
     <path d="M 141.706326 -262.71913 
L 141.706326 -220.185769 
L 150.958049 -225.40793 
L 160.209772 -231.555557 
L 169.461495 -251.255586 
L 178.713218 -230.780665 
L 187.964941 -254.468389 
L 197.216664 -229.807148 
L 206.468387 -232.584441 
L 215.72011 -254.600988 
L 224.971833 -256.192755 
L 234.223556 -245.853294 
L 243.475279 -267.333027 
L 252.727002 -265.025477 
L 261.978725 -268.248769 
L 271.230448 -257.939569 
L 280.482171 -259.757238 
L 289.733894 -265.42141 
L 289.733894 -289.058446 
L 289.733894 -289.058446 
L 280.482171 -291.963069 
L 271.230448 -283.567238 
L 261.978725 -287.474302 
L 252.727002 -286.104612 
L 243.475279 -293.970356 
L 234.223556 -267.524232 
L 224.971833 -284.013767 
L 215.72011 -279.881363 
L 206.468387 -271.541079 
L 197.216664 -262.522945 
L 187.964941 -283.793812 
L 178.713218 -260.11021 
L 169.461495 -274.141183 
L 160.209772 -280.48729 
L 150.958049 -260.265898 
L 141.706326 -262.71913 
z
" id="m54291c9324" style="stroke:#a9678f;stroke-opacity:0.2;"/>
    </defs>
    <g clip-path="url(#p0ede662862)">
     <use style="fill:#a9678f;fill-opacity:0.2;stroke:#a9678f;stroke-opacity:0.2;" x="0" xlink:href="#m54291c9324" y="367.795313"/>
    </g>
   </g>
   <g id="PolyCollection_3">
    <defs>
     <path d="M 76.944265 -170.026741 
L 76.944265 -50.892614 
L 86.195988 -118.877754 
L 95.447711 -170.021051 
L 104.699434 -195.709616 
L 113.951157 -226.59607 
L 123.20288 -218.686582 
L 132.454603 -240.271815 
L 141.706326 -252.133417 
L 150.958049 -247.110803 
L 160.209772 -237.226058 
L 169.461495 -269.662013 
L 178.713218 -268.549391 
L 187.964941 -272.945576 
L 197.216664 -272.941194 
L 206.468387 -269.911008 
L 215.72011 -282.715573 
L 224.971833 -275.560934 
L 234.223556 -272.848906 
L 243.475279 -273.651209 
L 252.727002 -276.277319 
L 261.978725 -275.074149 
L 271.230448 -293.521629 
L 280.482171 -288.368687 
L 289.733894 -290.210628 
L 298.985617 -261.348327 
L 308.23734 -279.043922 
L 317.489063 -282.808032 
L 326.740786 -291.009937 
L 335.992509 -276.400223 
L 345.244232 -282.080137 
L 354.495955 -266.124948 
L 354.495955 -291.004277 
L 354.495955 -291.004277 
L 345.244232 -305.778413 
L 335.992509 -301.578129 
L 326.740786 -305.282272 
L 317.489063 -303.527427 
L 308.23734 -308.273389 
L 298.985617 -297.245859 
L 289.733894 -307.984892 
L 280.482171 -309.457845 
L 271.230448 -312.023318 
L 261.978725 -310.324238 
L 252.727002 -307.176 
L 243.475279 -317.619886 
L 234.223556 -300.029232 
L 224.971833 -301.006838 
L 215.72011 -306.069581 
L 206.468387 -300.031135 
L 197.216664 -304.450567 
L 187.964941 -298.692573 
L 178.713218 -293.880223 
L 169.461495 -286.803774 
L 160.209772 -288.652561 
L 150.958049 -285.51452 
L 141.706326 -289.920971 
L 132.454603 -269.644898 
L 123.20288 -259.903943 
L 113.951157 -262.490074 
L 104.699434 -246.293749 
L 95.447711 -234.950854 
L 86.195988 -208.143942 
L 76.944265 -170.026741 
z
" id="m1c36996abd" style="stroke:#2d1e3e;stroke-opacity:0.2;"/>
    </defs>
    <g clip-path="url(#p0ede662862)">
     <use style="fill:#2d1e3e;fill-opacity:0.2;stroke:#2d1e3e;stroke-opacity:0.2;" x="0" xlink:href="#m1c36996abd" y="367.795313"/>
    </g>
   </g>
   <g id="matplotlib.axis_1">
    <g id="xtick_1">
     <g id="line2d_1">
      <defs>
       <path d="M 0 0 
L 0 3.5 
" id="med90b633b7" style="stroke:#000000;stroke-width:0.8;"/>
      </defs>
      <g>
       <use style="stroke:#000000;stroke-width:0.8;" x="76.944265" xlink:href="#med90b633b7" y="330.239063"/>
      </g>
     </g>
     <g id="text_1">
      <!-- −15 -->
      <defs>
       <path d="M 10.59375 35.5 
L 73.1875 35.5 
L 73.1875 27.203125 
L 10.59375 27.203125 
z
" id="DejaVuSans-8722"/>
       <path d="M 12.40625 8.296875 
L 28.515625 8.296875 
L 28.515625 63.921875 
L 10.984375 60.40625 
L 10.984375 69.390625 
L 28.421875 72.90625 
L 38.28125 72.90625 
L 38.28125 8.296875 
L 54.390625 8.296875 
L 54.390625 0 
L 12.40625 0 
z
" id="DejaVuSans-49"/>
       <path d="M 10.796875 72.90625 
L 49.515625 72.90625 
L 49.515625 64.59375 
L 19.828125 64.59375 
L 19.828125 46.734375 
Q 21.96875 47.46875 24.109375 47.828125 
Q 26.265625 48.1875 28.421875 48.1875 
Q 40.625 48.1875 47.75 41.5 
Q 54.890625 34.8125 54.890625 23.390625 
Q 54.890625 11.625 47.5625 5.09375 
Q 40.234375 -1.421875 26.90625 -1.421875 
Q 22.3125 -1.421875 17.546875 -0.640625 
Q 12.796875 0.140625 7.71875 1.703125 
L 7.71875 11.625 
Q 12.109375 9.234375 16.796875 8.0625 
Q 21.484375 6.890625 26.703125 6.890625 
Q 35.15625 6.890625 40.078125 11.328125 
Q 45.015625 15.765625 45.015625 23.390625 
Q 45.015625 31 40.078125 35.4375 
Q 35.15625 39.890625 26.703125 39.890625 
Q 22.75 39.890625 18.8125 39.015625 
Q 14.890625 38.140625 10.796875 36.28125 
z
" id="DejaVuSans-53"/>
      </defs>
      <g transform="translate(66.391921 344.8375)scale(0.1 -0.1)">
       <use xlink:href="#DejaVuSans-8722"/>
       <use x="83.789062" xlink:href="#DejaVuSans-49"/>
       <use x="147.412109" xlink:href="#DejaVuSans-53"/>
      </g>
     </g>
    </g>
    <g id="xtick_2">
     <g id="line2d_2">
      <g>
       <use style="stroke:#000000;stroke-width:0.8;" x="123.20288" xlink:href="#med90b633b7" y="330.239063"/>
      </g>
     </g>
     <g id="text_2">
      <!-- −10 -->
      <defs>
       <path d="M 31.78125 66.40625 
Q 24.171875 66.40625 20.328125 58.90625 
Q 16.5 51.421875 16.5 36.375 
Q 16.5 21.390625 20.328125 13.890625 
Q 24.171875 6.390625 31.78125 6.390625 
Q 39.453125 6.390625 43.28125 13.890625 
Q 47.125 21.390625 47.125 36.375 
Q 47.125 51.421875 43.28125 58.90625 
Q 39.453125 66.40625 31.78125 66.40625 
z
M 31.78125 74.21875 
Q 44.046875 74.21875 50.515625 64.515625 
Q 56.984375 54.828125 56.984375 36.375 
Q 56.984375 17.96875 50.515625 8.265625 
Q 44.046875 -1.421875 31.78125 -1.421875 
Q 19.53125 -1.421875 13.0625 8.265625 
Q 6.59375 17.96875 6.59375 36.375 
Q 6.59375 54.828125 13.0625 64.515625 
Q 19.53125 74.21875 31.78125 74.21875 
z
" id="DejaVuSans-48"/>
      </defs>
      <g transform="translate(112.650536 344.8375)scale(0.1 -0.1)">
       <use xlink:href="#DejaVuSans-8722"/>
       <use x="83.789062" xlink:href="#DejaVuSans-49"/>
       <use x="147.412109" xlink:href="#DejaVuSans-48"/>
      </g>
     </g>
    </g>
    <g id="xtick_3">
     <g id="line2d_3">
      <g>
       <use style="stroke:#000000;stroke-width:0.8;" x="169.461495" xlink:href="#med90b633b7" y="330.239063"/>
      </g>
     </g>
     <g id="text_3">
      <!-- −5 -->
      <g transform="translate(162.090401 344.8375)scale(0.1 -0.1)">
       <use xlink:href="#DejaVuSans-8722"/>
       <use x="83.789062" xlink:href="#DejaVuSans-53"/>
      </g>
     </g>
    </g>
    <g id="xtick_4">
     <g id="line2d_4">
      <g>
       <use style="stroke:#000000;stroke-width:0.8;" x="215.72011" xlink:href="#med90b633b7" y="330.239063"/>
      </g>
     </g>
     <g id="text_4">
      <!-- 0 -->
      <g transform="translate(212.53886 344.8375)scale(0.1 -0.1)">
       <use xlink:href="#DejaVuSans-48"/>
      </g>
     </g>
    </g>
    <g id="xtick_5">
     <g id="line2d_5">
      <g>
       <use style="stroke:#000000;stroke-width:0.8;" x="261.978725" xlink:href="#med90b633b7" y="330.239063"/>
      </g>
     </g>
     <g id="text_5">
      <!-- 5 -->
      <g transform="translate(258.797475 344.8375)scale(0.1 -0.1)">
       <use xlink:href="#DejaVuSans-53"/>
      </g>
     </g>
    </g>
    <g id="xtick_6">
     <g id="line2d_6">
      <g>
       <use style="stroke:#000000;stroke-width:0.8;" x="308.23734" xlink:href="#med90b633b7" y="330.239063"/>
      </g>
     </g>
     <g id="text_6">
      <!-- 10 -->
      <g transform="translate(301.87484 344.8375)scale(0.1 -0.1)">
       <use xlink:href="#DejaVuSans-49"/>
       <use x="63.623047" xlink:href="#DejaVuSans-48"/>
      </g>
     </g>
    </g>
    <g id="xtick_7">
     <g id="line2d_7">
      <g>
       <use style="stroke:#000000;stroke-width:0.8;" x="354.495955" xlink:href="#med90b633b7" y="330.239063"/>
      </g>
     </g>
     <g id="text_7">
      <!-- 15 -->
      <g transform="translate(348.133455 344.8375)scale(0.1 -0.1)">
       <use xlink:href="#DejaVuSans-49"/>
       <use x="63.623047" xlink:href="#DejaVuSans-53"/>
      </g>
     </g>
    </g>
    <g id="text_8">
     <!-- spill -->
     <defs>
      <path d="M 44.28125 53.078125 
L 44.28125 44.578125 
Q 40.484375 46.53125 36.375 47.5 
Q 32.28125 48.484375 27.875 48.484375 
Q 21.1875 48.484375 17.84375 46.4375 
Q 14.5 44.390625 14.5 40.28125 
Q 14.5 37.15625 16.890625 35.375 
Q 19.28125 33.59375 26.515625 31.984375 
L 29.59375 31.296875 
Q 39.15625 29.25 43.1875 25.515625 
Q 47.21875 21.78125 47.21875 15.09375 
Q 47.21875 7.46875 41.1875 3.015625 
Q 35.15625 -1.421875 24.609375 -1.421875 
Q 20.21875 -1.421875 15.453125 -0.5625 
Q 10.6875 0.296875 5.421875 2 
L 5.421875 11.28125 
Q 10.40625 8.6875 15.234375 7.390625 
Q 20.0625 6.109375 24.8125 6.109375 
Q 31.15625 6.109375 34.5625 8.28125 
Q 37.984375 10.453125 37.984375 14.40625 
Q 37.984375 18.0625 35.515625 20.015625 
Q 33.0625 21.96875 24.703125 23.78125 
L 21.578125 24.515625 
Q 13.234375 26.265625 9.515625 29.90625 
Q 5.8125 33.546875 5.8125 39.890625 
Q 5.8125 47.609375 11.28125 51.796875 
Q 16.75 56 26.8125 56 
Q 31.78125 56 36.171875 55.265625 
Q 40.578125 54.546875 44.28125 53.078125 
z
" id="DejaVuSans-115"/>
      <path d="M 18.109375 8.203125 
L 18.109375 -20.796875 
L 9.078125 -20.796875 
L 9.078125 54.6875 
L 18.109375 54.6875 
L 18.109375 46.390625 
Q 20.953125 51.265625 25.265625 53.625 
Q 29.59375 56 35.59375 56 
Q 45.5625 56 51.78125 48.09375 
Q 58.015625 40.1875 58.015625 27.296875 
Q 58.015625 14.40625 51.78125 6.484375 
Q 45.5625 -1.421875 35.59375 -1.421875 
Q 29.59375 -1.421875 25.265625 0.953125 
Q 20.953125 3.328125 18.109375 8.203125 
z
M 48.6875 27.296875 
Q 48.6875 37.203125 44.609375 42.84375 
Q 40.53125 48.484375 33.40625 48.484375 
Q 26.265625 48.484375 22.1875 42.84375 
Q 18.109375 37.203125 18.109375 27.296875 
Q 18.109375 17.390625 22.1875 11.75 
Q 26.265625 6.109375 33.40625 6.109375 
Q 40.53125 6.109375 44.609375 11.75 
Q 48.6875 17.390625 48.6875 27.296875 
z
" id="DejaVuSans-112"/>
      <path d="M 9.421875 54.6875 
L 18.40625 54.6875 
L 18.40625 0 
L 9.421875 0 
z
M 9.421875 75.984375 
L 18.40625 75.984375 
L 18.40625 64.59375 
L 9.421875 64.59375 
z
" id="DejaVuSans-105"/>
      <path d="M 9.421875 75.984375 
L 18.40625 75.984375 
L 18.40625 0 
L 9.421875 0 
z
" id="DejaVuSans-108"/>
     </defs>
     <g transform="translate(205.774016 358.515625)scale(0.1 -0.1)">
      <use xlink:href="#DejaVuSans-115"/>
      <use x="52.099609" xlink:href="#DejaVuSans-112"/>
      <use x="115.576172" xlink:href="#DejaVuSans-105"/>
      <use x="143.359375" xlink:href="#DejaVuSans-108"/>
      <use x="171.142578" xlink:href="#DejaVuSans-108"/>
     </g>
    </g>
   </g>
   <g id="matplotlib.axis_2">
    <g id="ytick_1">
     <g id="line2d_8">
      <defs>
       <path d="M 0 0 
L -3.5 0 
" id="mac0bfab51e" style="stroke:#000000;stroke-width:0.8;"/>
      </defs>
      <g>
       <use style="stroke:#000000;stroke-width:0.8;" x="63.066681" xlink:href="#mac0bfab51e" y="320.034381"/>
      </g>
     </g>
     <g id="text_9">
      <!-- 0.55 -->
      <defs>
       <path d="M 10.6875 12.40625 
L 21 12.40625 
L 21 0 
L 10.6875 0 
z
" id="DejaVuSans-46"/>
      </defs>
      <g transform="translate(33.801056 323.8336)scale(0.1 -0.1)">
       <use xlink:href="#DejaVuSans-48"/>
       <use x="63.623047" xlink:href="#DejaVuSans-46"/>
       <use x="95.410156" xlink:href="#DejaVuSans-53"/>
       <use x="159.033203" xlink:href="#DejaVuSans-53"/>
      </g>
     </g>
    </g>
    <g id="ytick_2">
     <g id="line2d_9">
      <g>
       <use style="stroke:#000000;stroke-width:0.8;" x="63.066681" xlink:href="#mac0bfab51e" y="259.445961"/>
      </g>
     </g>
     <g id="text_10">
      <!-- 0.60 -->
      <defs>
       <path d="M 33.015625 40.375 
Q 26.375 40.375 22.484375 35.828125 
Q 18.609375 31.296875 18.609375 23.390625 
Q 18.609375 15.53125 22.484375 10.953125 
Q 26.375 6.390625 33.015625 6.390625 
Q 39.65625 6.390625 43.53125 10.953125 
Q 47.40625 15.53125 47.40625 23.390625 
Q 47.40625 31.296875 43.53125 35.828125 
Q 39.65625 40.375 33.015625 40.375 
z
M 52.59375 71.296875 
L 52.59375 62.3125 
Q 48.875 64.0625 45.09375 64.984375 
Q 41.3125 65.921875 37.59375 65.921875 
Q 27.828125 65.921875 22.671875 59.328125 
Q 17.53125 52.734375 16.796875 39.40625 
Q 19.671875 43.65625 24.015625 45.921875 
Q 28.375 48.1875 33.59375 48.1875 
Q 44.578125 48.1875 50.953125 41.515625 
Q 57.328125 34.859375 57.328125 23.390625 
Q 57.328125 12.15625 50.6875 5.359375 
Q 44.046875 -1.421875 33.015625 -1.421875 
Q 20.359375 -1.421875 13.671875 8.265625 
Q 6.984375 17.96875 6.984375 36.375 
Q 6.984375 53.65625 15.1875 63.9375 
Q 23.390625 74.21875 37.203125 74.21875 
Q 40.921875 74.21875 44.703125 73.484375 
Q 48.484375 72.75 52.59375 71.296875 
z
" id="DejaVuSans-54"/>
      </defs>
      <g transform="translate(33.801056 263.24518)scale(0.1 -0.1)">
       <use xlink:href="#DejaVuSans-48"/>
       <use x="63.623047" xlink:href="#DejaVuSans-46"/>
       <use x="95.410156" xlink:href="#DejaVuSans-54"/>
       <use x="159.033203" xlink:href="#DejaVuSans-48"/>
      </g>
     </g>
    </g>
    <g id="ytick_3">
     <g id="line2d_10">
      <g>
       <use style="stroke:#000000;stroke-width:0.8;" x="63.066681" xlink:href="#mac0bfab51e" y="198.857541"/>
      </g>
     </g>
     <g id="text_11">
      <!-- 0.65 -->
      <g transform="translate(33.801056 202.65676)scale(0.1 -0.1)">
       <use xlink:href="#DejaVuSans-48"/>
       <use x="63.623047" xlink:href="#DejaVuSans-46"/>
       <use x="95.410156" xlink:href="#DejaVuSans-54"/>
       <use x="159.033203" xlink:href="#DejaVuSans-53"/>
      </g>
     </g>
    </g>
    <g id="ytick_4">
     <g id="line2d_11">
      <g>
       <use style="stroke:#000000;stroke-width:0.8;" x="63.066681" xlink:href="#mac0bfab51e" y="138.269122"/>
      </g>
     </g>
     <g id="text_12">
      <!-- 0.70 -->
      <defs>
       <path d="M 8.203125 72.90625 
L 55.078125 72.90625 
L 55.078125 68.703125 
L 28.609375 0 
L 18.3125 0 
L 43.21875 64.59375 
L 8.203125 64.59375 
z
" id="DejaVuSans-55"/>
      </defs>
      <g transform="translate(33.801056 142.068341)scale(0.1 -0.1)">
       <use xlink:href="#DejaVuSans-48"/>
       <use x="63.623047" xlink:href="#DejaVuSans-46"/>
       <use x="95.410156" xlink:href="#DejaVuSans-55"/>
       <use x="159.033203" xlink:href="#DejaVuSans-48"/>
      </g>
     </g>
    </g>
    <g id="ytick_5">
     <g id="line2d_12">
      <g>
       <use style="stroke:#000000;stroke-width:0.8;" x="63.066681" xlink:href="#mac0bfab51e" y="77.680702"/>
      </g>
     </g>
     <g id="text_13">
      <!-- 0.75 -->
      <g transform="translate(33.801056 81.479921)scale(0.1 -0.1)">
       <use xlink:href="#DejaVuSans-48"/>
       <use x="63.623047" xlink:href="#DejaVuSans-46"/>
       <use x="95.410156" xlink:href="#DejaVuSans-55"/>
       <use x="159.033203" xlink:href="#DejaVuSans-53"/>
      </g>
     </g>
    </g>
    <g id="text_14">
     <!-- last -->
     <defs>
      <path d="M 34.28125 27.484375 
Q 23.390625 27.484375 19.1875 25 
Q 14.984375 22.515625 14.984375 16.5 
Q 14.984375 11.71875 18.140625 8.90625 
Q 21.296875 6.109375 26.703125 6.109375 
Q 34.1875 6.109375 38.703125 11.40625 
Q 43.21875 16.703125 43.21875 25.484375 
L 43.21875 27.484375 
z
M 52.203125 31.203125 
L 52.203125 0 
L 43.21875 0 
L 43.21875 8.296875 
Q 40.140625 3.328125 35.546875 0.953125 
Q 30.953125 -1.421875 24.3125 -1.421875 
Q 15.921875 -1.421875 10.953125 3.296875 
Q 6 8.015625 6 15.921875 
Q 6 25.140625 12.171875 29.828125 
Q 18.359375 34.515625 30.609375 34.515625 
L 43.21875 34.515625 
L 43.21875 35.40625 
Q 43.21875 41.609375 39.140625 45 
Q 35.0625 48.390625 27.6875 48.390625 
Q 23 48.390625 18.546875 47.265625 
Q 14.109375 46.140625 10.015625 43.890625 
L 10.015625 52.203125 
Q 14.9375 54.109375 19.578125 55.046875 
Q 24.21875 56 28.609375 56 
Q 40.484375 56 46.34375 49.84375 
Q 52.203125 43.703125 52.203125 31.203125 
z
" id="DejaVuSans-97"/>
      <path d="M 18.3125 70.21875 
L 18.3125 54.6875 
L 36.8125 54.6875 
L 36.8125 47.703125 
L 18.3125 47.703125 
L 18.3125 18.015625 
Q 18.3125 11.328125 20.140625 9.421875 
Q 21.96875 7.515625 27.59375 7.515625 
L 36.8125 7.515625 
L 36.8125 0 
L 27.59375 0 
Q 17.1875 0 13.234375 3.875 
Q 9.28125 7.765625 9.28125 18.015625 
L 9.28125 47.703125 
L 2.6875 47.703125 
L 2.6875 54.6875 
L 9.28125 54.6875 
L 9.28125 70.21875 
z
" id="DejaVuSans-116"/>
     </defs>
     <g transform="translate(27.721368 192.557031)rotate(-90)scale(0.1 -0.1)">
      <use xlink:href="#DejaVuSans-108"/>
      <use x="27.783203" xlink:href="#DejaVuSans-97"/>
      <use x="89.0625" xlink:href="#DejaVuSans-115"/>
      <use x="141.162109" xlink:href="#DejaVuSans-116"/>
     </g>
    </g>
   </g>
   <g id="line2d_13">
    <path clip-path="url(#p0ede662862)" d="M 211.094248 143.704005 
L 220.345971 143.704005 
" style="fill:none;stroke:#edd1cb;stroke-linecap:square;stroke-width:1.5;"/>
   </g>
   <g id="line2d_14">
    <path clip-path="url(#p0ede662862)" d="M 141.706326 125.806966 
L 150.958049 124.600002 
L 160.209772 111.060039 
L 169.461495 106.027819 
L 178.713218 121.913051 
L 187.964941 99.72684 
L 197.216664 120.205522 
L 206.468387 114.74334 
L 215.72011 100.262549 
L 224.971833 97.418124 
L 234.223556 109.623508 
L 243.475279 86.651445 
L 252.727002 92.632705 
L 261.978725 89.741719 
L 271.230448 96.339852 
L 280.482171 93.171141 
L 289.733894 90.313194 
" style="fill:none;stroke:#a9678f;stroke-linecap:square;stroke-width:1.5;"/>
   </g>
   <g id="line2d_15">
    <path clip-path="url(#p0ede662862)" d="M 76.944265 256.758121 
L 86.195988 199.819888 
L 95.447711 163.283091 
L 104.699434 148.969418 
L 113.951157 123.303798 
L 123.20288 127.999631 
L 132.454603 113.260975 
L 141.706326 96.144491 
L 150.958049 100.399875 
L 160.209772 102.36053 
L 169.461495 88.246898 
L 178.713218 85.519957 
L 187.964941 82.687054 
L 197.216664 81.478302 
L 206.468387 81.264171 
L 215.72011 73.590734 
L 224.971833 79.209006 
L 234.223556 80.466876 
L 243.475279 70.77927 
L 252.727002 75.696208 
L 261.978725 73.424214 
L 271.230448 65.061756 
L 280.482171 69.179694 
L 289.733894 68.48679 
L 298.985617 87.289119 
L 308.23734 74.762571 
L 317.489063 74.564276 
L 326.740786 68.704325 
L 335.992509 79.189703 
L 345.244232 74.506211 
L 354.495955 89.14716 
" style="fill:none;stroke:#2d1e3e;stroke-linecap:square;stroke-width:1.5;"/>
   </g>
   <g id="line2d_16"/>
   <g id="line2d_17"/>
   <g id="line2d_18"/>
   <g id="line2d_19"/>
   <g id="patch_3">
    <path d="M 63.066681 330.239063 
L 63.066681 36.839063 
" style="fill:none;stroke:#000000;stroke-linecap:square;stroke-linejoin:miter;stroke-width:0.8;"/>
   </g>
   <g id="patch_4">
    <path d="M 63.066681 330.239063 
L 368.373539 330.239063 
" style="fill:none;stroke:#000000;stroke-linecap:square;stroke-linejoin:miter;stroke-width:0.8;"/>
   </g>
   <g id="text_15">
    <!-- loss = f1macro -->
    <defs>
     <path d="M 30.609375 48.390625 
Q 23.390625 48.390625 19.1875 42.75 
Q 14.984375 37.109375 14.984375 27.296875 
Q 14.984375 17.484375 19.15625 11.84375 
Q 23.34375 6.203125 30.609375 6.203125 
Q 37.796875 6.203125 41.984375 11.859375 
Q 46.1875 17.53125 46.1875 27.296875 
Q 46.1875 37.015625 41.984375 42.703125 
Q 37.796875 48.390625 30.609375 48.390625 
z
M 30.609375 56 
Q 42.328125 56 49.015625 48.375 
Q 55.71875 40.765625 55.71875 27.296875 
Q 55.71875 13.875 49.015625 6.21875 
Q 42.328125 -1.421875 30.609375 -1.421875 
Q 18.84375 -1.421875 12.171875 6.21875 
Q 5.515625 13.875 5.515625 27.296875 
Q 5.515625 40.765625 12.171875 48.375 
Q 18.84375 56 30.609375 56 
z
" id="DejaVuSans-111"/>
     <path id="DejaVuSans-32"/>
     <path d="M 10.59375 45.40625 
L 73.1875 45.40625 
L 73.1875 37.203125 
L 10.59375 37.203125 
z
M 10.59375 25.484375 
L 73.1875 25.484375 
L 73.1875 17.1875 
L 10.59375 17.1875 
z
" id="DejaVuSans-61"/>
     <path d="M 37.109375 75.984375 
L 37.109375 68.5 
L 28.515625 68.5 
Q 23.6875 68.5 21.796875 66.546875 
Q 19.921875 64.59375 19.921875 59.515625 
L 19.921875 54.6875 
L 34.71875 54.6875 
L 34.71875 47.703125 
L 19.921875 47.703125 
L 19.921875 0 
L 10.890625 0 
L 10.890625 47.703125 
L 2.296875 47.703125 
L 2.296875 54.6875 
L 10.890625 54.6875 
L 10.890625 58.5 
Q 10.890625 67.625 15.140625 71.796875 
Q 19.390625 75.984375 28.609375 75.984375 
z
" id="DejaVuSans-102"/>
     <path d="M 52 44.1875 
Q 55.375 50.25 60.0625 53.125 
Q 64.75 56 71.09375 56 
Q 79.640625 56 84.28125 50.015625 
Q 88.921875 44.046875 88.921875 33.015625 
L 88.921875 0 
L 79.890625 0 
L 79.890625 32.71875 
Q 79.890625 40.578125 77.09375 44.375 
Q 74.3125 48.1875 68.609375 48.1875 
Q 61.625 48.1875 57.5625 43.546875 
Q 53.515625 38.921875 53.515625 30.90625 
L 53.515625 0 
L 44.484375 0 
L 44.484375 32.71875 
Q 44.484375 40.625 41.703125 44.40625 
Q 38.921875 48.1875 33.109375 48.1875 
Q 26.21875 48.1875 22.15625 43.53125 
Q 18.109375 38.875 18.109375 30.90625 
L 18.109375 0 
L 9.078125 0 
L 9.078125 54.6875 
L 18.109375 54.6875 
L 18.109375 46.1875 
Q 21.1875 51.21875 25.484375 53.609375 
Q 29.78125 56 35.6875 56 
Q 41.65625 56 45.828125 52.96875 
Q 50 49.953125 52 44.1875 
z
" id="DejaVuSans-109"/>
     <path d="M 48.78125 52.59375 
L 48.78125 44.1875 
Q 44.96875 46.296875 41.140625 47.34375 
Q 37.3125 48.390625 33.40625 48.390625 
Q 24.65625 48.390625 19.8125 42.84375 
Q 14.984375 37.3125 14.984375 27.296875 
Q 14.984375 17.28125 19.8125 11.734375 
Q 24.65625 6.203125 33.40625 6.203125 
Q 37.3125 6.203125 41.140625 7.25 
Q 44.96875 8.296875 48.78125 10.40625 
L 48.78125 2.09375 
Q 45.015625 0.34375 40.984375 -0.53125 
Q 36.96875 -1.421875 32.421875 -1.421875 
Q 20.0625 -1.421875 12.78125 6.34375 
Q 5.515625 14.109375 5.515625 27.296875 
Q 5.515625 40.671875 12.859375 48.328125 
Q 20.21875 56 33.015625 56 
Q 37.15625 56 41.109375 55.140625 
Q 45.0625 54.296875 48.78125 52.59375 
z
" id="DejaVuSans-99"/>
     <path d="M 41.109375 46.296875 
Q 39.59375 47.171875 37.8125 47.578125 
Q 36.03125 48 33.890625 48 
Q 26.265625 48 22.1875 43.046875 
Q 18.109375 38.09375 18.109375 28.8125 
L 18.109375 0 
L 9.078125 0 
L 9.078125 54.6875 
L 18.109375 54.6875 
L 18.109375 46.1875 
Q 20.953125 51.171875 25.484375 53.578125 
Q 30.03125 56 36.53125 56 
Q 37.453125 56 38.578125 55.875 
Q 39.703125 55.765625 41.0625 55.515625 
z
" id="DejaVuSans-114"/>
    </defs>
    <g transform="translate(177.956047 30.839063)scale(0.1 -0.1)">
     <use xlink:href="#DejaVuSans-108"/>
     <use x="27.783203" xlink:href="#DejaVuSans-111"/>
     <use x="88.964844" xlink:href="#DejaVuSans-115"/>
     <use x="141.064453" xlink:href="#DejaVuSans-115"/>
     <use x="193.164062" xlink:href="#DejaVuSans-32"/>
     <use x="224.951172" xlink:href="#DejaVuSans-61"/>
     <use x="308.740234" xlink:href="#DejaVuSans-32"/>
     <use x="340.527344" xlink:href="#DejaVuSans-102"/>
     <use x="375.732422" xlink:href="#DejaVuSans-49"/>
     <use x="439.355469" xlink:href="#DejaVuSans-109"/>
     <use x="536.767578" xlink:href="#DejaVuSans-97"/>
     <use x="598.046875" xlink:href="#DejaVuSans-99"/>
     <use x="653.027344" xlink:href="#DejaVuSans-114"/>
     <use x="694.109375" xlink:href="#DejaVuSans-111"/>
    </g>
   </g>
  </g>
  <g id="axes_2">
   <g id="patch_5">
    <path d="M 418.122046 330.239063 
L 723.428904 330.239063 
L 723.428904 36.839063 
L 418.122046 36.839063 
z
" style="fill:#ffffff;"/>
   </g>
   <g id="PolyCollection_4">
    <defs>
     <path d="M 566.149614 -223.764354 
L 566.149614 -176.967961 
L 575.401337 -177.170968 
L 575.401337 -220.974186 
L 575.401337 -220.974186 
L 566.149614 -223.764354 
z
" id="m8400a7f709" style="stroke:#edd1cb;stroke-opacity:0.2;"/>
    </defs>
    <g clip-path="url(#p09c34ddff1)">
     <use style="fill:#edd1cb;fill-opacity:0.2;stroke:#edd1cb;stroke-opacity:0.2;" x="0" xlink:href="#m8400a7f709" y="367.795313"/>
    </g>
   </g>
   <g id="PolyCollection_5">
    <defs>
     <path d="M 496.761691 -245.84363 
L 496.761691 -192.801913 
L 506.013414 -197.523306 
L 515.265137 -209.59388 
L 524.51686 -230.968891 
L 533.768583 -203.714018 
L 543.020306 -238.378988 
L 552.272029 -204.26977 
L 561.523752 -209.798156 
L 570.775475 -236.195279 
L 580.027198 -240.151522 
L 589.278921 -224.309985 
L 598.530644 -256.245656 
L 607.782367 -254.667169 
L 617.03409 -257.664217 
L 626.285813 -239.291305 
L 635.537536 -243.297017 
L 644.789259 -252.133304 
L 644.789259 -284.624721 
L 644.789259 -284.624721 
L 635.537536 -286.550823 
L 626.285813 -274.164312 
L 617.03409 -279.190242 
L 607.782367 -282.031161 
L 598.530644 -289.03778 
L 589.278921 -253.455442 
L 580.027198 -277.869342 
L 570.775475 -269.648455 
L 561.523752 -258.128601 
L 552.272029 -252.343921 
L 543.020306 -274.269643 
L 533.768583 -244.62425 
L 524.51686 -263.766081 
L 515.265137 -271.586029 
L 506.013414 -242.544577 
L 496.761691 -245.84363 
z
" id="m3eb05f2dab" style="stroke:#a9678f;stroke-opacity:0.2;"/>
    </defs>
    <g clip-path="url(#p09c34ddff1)">
     <use style="fill:#a9678f;fill-opacity:0.2;stroke:#a9678f;stroke-opacity:0.2;" x="0" xlink:href="#m3eb05f2dab" y="367.795313"/>
    </g>
   </g>
   <g id="PolyCollection_6">
    <defs>
     <path d="M 431.99963 -154.792258 
L 431.99963 -50.892614 
L 441.251353 -104.630895 
L 450.503076 -142.901902 
L 459.754799 -165.448073 
L 469.006522 -198.131098 
L 478.258245 -188.286072 
L 487.509968 -215.795997 
L 496.761691 -233.680444 
L 506.013414 -230.408066 
L 515.265137 -214.058929 
L 524.51686 -257.199816 
L 533.768583 -255.329536 
L 543.020306 -263.250935 
L 552.272029 -260.25647 
L 561.523752 -259.444397 
L 570.775475 -274.619833 
L 580.027198 -267.917765 
L 589.278921 -260.253903 
L 598.530644 -258.63237 
L 607.782367 -267.81245 
L 617.03409 -263.758493 
L 626.285813 -288.981925 
L 635.537536 -281.623874 
L 644.789259 -284.313841 
L 654.040982 -247.768425 
L 663.292705 -268.934105 
L 672.544428 -277.766561 
L 681.796151 -285.681674 
L 691.047874 -267.869604 
L 700.299597 -273.349734 
L 709.55132 -252.54188 
L 709.55132 -286.39603 
L 709.55132 -286.39603 
L 700.299597 -307.357405 
L 691.047874 -300.253132 
L 681.796151 -304.621759 
L 672.544428 -304.871706 
L 663.292705 -307.362479 
L 654.040982 -295.7893 
L 644.789259 -307.91441 
L 635.537536 -313.197909 
L 626.285813 -314.160973 
L 617.03409 -312.892103 
L 607.782367 -310.401359 
L 598.530644 -317.619886 
L 589.278921 -298.323209 
L 580.027198 -298.937323 
L 570.775475 -305.376712 
L 561.523752 -298.021209 
L 552.272029 -301.793499 
L 543.020306 -298.169638 
L 533.768583 -290.151808 
L 524.51686 -281.471617 
L 515.265137 -286.903555 
L 506.013414 -284.570147 
L 496.761691 -285.128452 
L 487.509968 -255.037674 
L 478.258245 -240.922992 
L 469.006522 -249.043638 
L 459.754799 -222.260774 
L 450.503076 -207.627158 
L 441.251353 -183.751224 
L 431.99963 -154.792258 
z
" id="m01377af7ed" style="stroke:#2d1e3e;stroke-opacity:0.2;"/>
    </defs>
    <g clip-path="url(#p09c34ddff1)">
     <use style="fill:#2d1e3e;fill-opacity:0.2;stroke:#2d1e3e;stroke-opacity:0.2;" x="0" xlink:href="#m01377af7ed" y="367.795313"/>
    </g>
   </g>
   <g id="matplotlib.axis_3">
    <g id="xtick_8">
     <g id="line2d_20">
      <g>
       <use style="stroke:#000000;stroke-width:0.8;" x="431.99963" xlink:href="#med90b633b7" y="330.239063"/>
      </g>
     </g>
     <g id="text_16">
      <!-- −15 -->
      <g transform="translate(421.447286 344.8375)scale(0.1 -0.1)">
       <use xlink:href="#DejaVuSans-8722"/>
       <use x="83.789062" xlink:href="#DejaVuSans-49"/>
       <use x="147.412109" xlink:href="#DejaVuSans-53"/>
      </g>
     </g>
    </g>
    <g id="xtick_9">
     <g id="line2d_21">
      <g>
       <use style="stroke:#000000;stroke-width:0.8;" x="478.258245" xlink:href="#med90b633b7" y="330.239063"/>
      </g>
     </g>
     <g id="text_17">
      <!-- −10 -->
      <g transform="translate(467.705901 344.8375)scale(0.1 -0.1)">
       <use xlink:href="#DejaVuSans-8722"/>
       <use x="83.789062" xlink:href="#DejaVuSans-49"/>
       <use x="147.412109" xlink:href="#DejaVuSans-48"/>
      </g>
     </g>
    </g>
    <g id="xtick_10">
     <g id="line2d_22">
      <g>
       <use style="stroke:#000000;stroke-width:0.8;" x="524.51686" xlink:href="#med90b633b7" y="330.239063"/>
      </g>
     </g>
     <g id="text_18">
      <!-- −5 -->
      <g transform="translate(517.145766 344.8375)scale(0.1 -0.1)">
       <use xlink:href="#DejaVuSans-8722"/>
       <use x="83.789062" xlink:href="#DejaVuSans-53"/>
      </g>
     </g>
    </g>
    <g id="xtick_11">
     <g id="line2d_23">
      <g>
       <use style="stroke:#000000;stroke-width:0.8;" x="570.775475" xlink:href="#med90b633b7" y="330.239063"/>
      </g>
     </g>
     <g id="text_19">
      <!-- 0 -->
      <g transform="translate(567.594225 344.8375)scale(0.1 -0.1)">
       <use xlink:href="#DejaVuSans-48"/>
      </g>
     </g>
    </g>
    <g id="xtick_12">
     <g id="line2d_24">
      <g>
       <use style="stroke:#000000;stroke-width:0.8;" x="617.03409" xlink:href="#med90b633b7" y="330.239063"/>
      </g>
     </g>
     <g id="text_20">
      <!-- 5 -->
      <g transform="translate(613.85284 344.8375)scale(0.1 -0.1)">
       <use xlink:href="#DejaVuSans-53"/>
      </g>
     </g>
    </g>
    <g id="xtick_13">
     <g id="line2d_25">
      <g>
       <use style="stroke:#000000;stroke-width:0.8;" x="663.292705" xlink:href="#med90b633b7" y="330.239063"/>
      </g>
     </g>
     <g id="text_21">
      <!-- 10 -->
      <g transform="translate(656.930205 344.8375)scale(0.1 -0.1)">
       <use xlink:href="#DejaVuSans-49"/>
       <use x="63.623047" xlink:href="#DejaVuSans-48"/>
      </g>
     </g>
    </g>
    <g id="xtick_14">
     <g id="line2d_26">
      <g>
       <use style="stroke:#000000;stroke-width:0.8;" x="709.55132" xlink:href="#med90b633b7" y="330.239063"/>
      </g>
     </g>
     <g id="text_22">
      <!-- 15 -->
      <g transform="translate(703.18882 344.8375)scale(0.1 -0.1)">
       <use xlink:href="#DejaVuSans-49"/>
       <use x="63.623047" xlink:href="#DejaVuSans-53"/>
      </g>
     </g>
    </g>
    <g id="text_23">
     <!-- spill -->
     <g transform="translate(560.829381 358.515625)scale(0.1 -0.1)">
      <use xlink:href="#DejaVuSans-115"/>
      <use x="52.099609" xlink:href="#DejaVuSans-112"/>
      <use x="115.576172" xlink:href="#DejaVuSans-105"/>
      <use x="143.359375" xlink:href="#DejaVuSans-108"/>
      <use x="171.142578" xlink:href="#DejaVuSans-108"/>
     </g>
    </g>
   </g>
   <g id="matplotlib.axis_4">
    <g id="ytick_6">
     <g id="line2d_27">
      <g>
       <use style="stroke:#000000;stroke-width:0.8;" x="418.122046" xlink:href="#mac0bfab51e" y="308.118464"/>
      </g>
     </g>
     <g id="text_24">
      <!-- 0.600 -->
      <g transform="translate(382.493921 311.917682)scale(0.1 -0.1)">
       <use xlink:href="#DejaVuSans-48"/>
       <use x="63.623047" xlink:href="#DejaVuSans-46"/>
       <use x="95.410156" xlink:href="#DejaVuSans-54"/>
       <use x="159.033203" xlink:href="#DejaVuSans-48"/>
       <use x="222.65625" xlink:href="#DejaVuSans-48"/>
      </g>
     </g>
    </g>
    <g id="ytick_7">
     <g id="line2d_28">
      <g>
       <use style="stroke:#000000;stroke-width:0.8;" x="418.122046" xlink:href="#mac0bfab51e" y="270.585916"/>
      </g>
     </g>
     <g id="text_25">
      <!-- 0.625 -->
      <defs>
       <path d="M 19.1875 8.296875 
L 53.609375 8.296875 
L 53.609375 0 
L 7.328125 0 
L 7.328125 8.296875 
Q 12.9375 14.109375 22.625 23.890625 
Q 32.328125 33.6875 34.8125 36.53125 
Q 39.546875 41.84375 41.421875 45.53125 
Q 43.3125 49.21875 43.3125 52.78125 
Q 43.3125 58.59375 39.234375 62.25 
Q 35.15625 65.921875 28.609375 65.921875 
Q 23.96875 65.921875 18.8125 64.3125 
Q 13.671875 62.703125 7.8125 59.421875 
L 7.8125 69.390625 
Q 13.765625 71.78125 18.9375 73 
Q 24.125 74.21875 28.421875 74.21875 
Q 39.75 74.21875 46.484375 68.546875 
Q 53.21875 62.890625 53.21875 53.421875 
Q 53.21875 48.921875 51.53125 44.890625 
Q 49.859375 40.875 45.40625 35.40625 
Q 44.1875 33.984375 37.640625 27.21875 
Q 31.109375 20.453125 19.1875 8.296875 
z
" id="DejaVuSans-50"/>
      </defs>
      <g transform="translate(382.493921 274.385135)scale(0.1 -0.1)">
       <use xlink:href="#DejaVuSans-48"/>
       <use x="63.623047" xlink:href="#DejaVuSans-46"/>
       <use x="95.410156" xlink:href="#DejaVuSans-54"/>
       <use x="159.033203" xlink:href="#DejaVuSans-50"/>
       <use x="222.65625" xlink:href="#DejaVuSans-53"/>
      </g>
     </g>
    </g>
    <g id="ytick_8">
     <g id="line2d_29">
      <g>
       <use style="stroke:#000000;stroke-width:0.8;" x="418.122046" xlink:href="#mac0bfab51e" y="233.053369"/>
      </g>
     </g>
     <g id="text_26">
      <!-- 0.650 -->
      <g transform="translate(382.493921 236.852588)scale(0.1 -0.1)">
       <use xlink:href="#DejaVuSans-48"/>
       <use x="63.623047" xlink:href="#DejaVuSans-46"/>
       <use x="95.410156" xlink:href="#DejaVuSans-54"/>
       <use x="159.033203" xlink:href="#DejaVuSans-53"/>
       <use x="222.65625" xlink:href="#DejaVuSans-48"/>
      </g>
     </g>
    </g>
    <g id="ytick_9">
     <g id="line2d_30">
      <g>
       <use style="stroke:#000000;stroke-width:0.8;" x="418.122046" xlink:href="#mac0bfab51e" y="195.520822"/>
      </g>
     </g>
     <g id="text_27">
      <!-- 0.675 -->
      <g transform="translate(382.493921 199.32004)scale(0.1 -0.1)">
       <use xlink:href="#DejaVuSans-48"/>
       <use x="63.623047" xlink:href="#DejaVuSans-46"/>
       <use x="95.410156" xlink:href="#DejaVuSans-54"/>
       <use x="159.033203" xlink:href="#DejaVuSans-55"/>
       <use x="222.65625" xlink:href="#DejaVuSans-53"/>
      </g>
     </g>
    </g>
    <g id="ytick_10">
     <g id="line2d_31">
      <g>
       <use style="stroke:#000000;stroke-width:0.8;" x="418.122046" xlink:href="#mac0bfab51e" y="157.988274"/>
      </g>
     </g>
     <g id="text_28">
      <!-- 0.700 -->
      <g transform="translate(382.493921 161.787493)scale(0.1 -0.1)">
       <use xlink:href="#DejaVuSans-48"/>
       <use x="63.623047" xlink:href="#DejaVuSans-46"/>
       <use x="95.410156" xlink:href="#DejaVuSans-55"/>
       <use x="159.033203" xlink:href="#DejaVuSans-48"/>
       <use x="222.65625" xlink:href="#DejaVuSans-48"/>
      </g>
     </g>
    </g>
    <g id="ytick_11">
     <g id="line2d_32">
      <g>
       <use style="stroke:#000000;stroke-width:0.8;" x="418.122046" xlink:href="#mac0bfab51e" y="120.455727"/>
      </g>
     </g>
     <g id="text_29">
      <!-- 0.725 -->
      <g transform="translate(382.493921 124.254946)scale(0.1 -0.1)">
       <use xlink:href="#DejaVuSans-48"/>
       <use x="63.623047" xlink:href="#DejaVuSans-46"/>
       <use x="95.410156" xlink:href="#DejaVuSans-55"/>
       <use x="159.033203" xlink:href="#DejaVuSans-50"/>
       <use x="222.65625" xlink:href="#DejaVuSans-53"/>
      </g>
     </g>
    </g>
    <g id="ytick_12">
     <g id="line2d_33">
      <g>
       <use style="stroke:#000000;stroke-width:0.8;" x="418.122046" xlink:href="#mac0bfab51e" y="82.923179"/>
      </g>
     </g>
     <g id="text_30">
      <!-- 0.750 -->
      <g transform="translate(382.493921 86.722398)scale(0.1 -0.1)">
       <use xlink:href="#DejaVuSans-48"/>
       <use x="63.623047" xlink:href="#DejaVuSans-46"/>
       <use x="95.410156" xlink:href="#DejaVuSans-55"/>
       <use x="159.033203" xlink:href="#DejaVuSans-53"/>
       <use x="222.65625" xlink:href="#DejaVuSans-48"/>
      </g>
     </g>
    </g>
    <g id="ytick_13">
     <g id="line2d_34">
      <g>
       <use style="stroke:#000000;stroke-width:0.8;" x="418.122046" xlink:href="#mac0bfab51e" y="45.390632"/>
      </g>
     </g>
     <g id="text_31">
      <!-- 0.775 -->
      <g transform="translate(382.493921 49.189851)scale(0.1 -0.1)">
       <use xlink:href="#DejaVuSans-48"/>
       <use x="63.623047" xlink:href="#DejaVuSans-46"/>
       <use x="95.410156" xlink:href="#DejaVuSans-55"/>
       <use x="159.033203" xlink:href="#DejaVuSans-55"/>
       <use x="222.65625" xlink:href="#DejaVuSans-53"/>
      </g>
     </g>
    </g>
   </g>
   <g id="line2d_35">
    <path clip-path="url(#p09c34ddff1)" d="M 566.149614 169.306409 
L 575.401337 169.306409 
" style="fill:none;stroke:#edd1cb;stroke-linecap:square;stroke-width:1.5;"/>
   </g>
   <g id="line2d_36">
    <path clip-path="url(#p09c34ddff1)" d="M 496.761691 148.040511 
L 506.013414 146.467147 
L 515.265137 127.840418 
L 524.51686 121.597709 
L 533.768583 142.863605 
L 543.020306 112.005185 
L 552.272029 140.630427 
L 561.523752 133.880145 
L 570.775475 115.253466 
L 580.027198 108.553935 
L 589.278921 127.99268 
L 598.530644 95.81467 
L 607.782367 101.143856 
L 617.03409 100.433281 
L 626.285813 110.178045 
L 635.537536 105.35642 
L 644.789259 98.403132 
" style="fill:none;stroke:#a9678f;stroke-linecap:square;stroke-width:1.5;"/>
   </g>
   <g id="line2d_37">
    <path clip-path="url(#p09c34ddff1)" d="M 431.99963 267.769081 
L 441.251353 221.532225 
L 450.503076 191.079852 
L 459.754799 175.701413 
L 469.006522 143.675658 
L 478.258245 152.608369 
L 487.509968 131.494726 
L 496.761691 109.873515 
L 506.013414 111.446896 
L 515.265137 117.994174 
L 524.51686 96.677501 
L 533.768583 93.835274 
L 543.020306 88.049346 
L 552.272029 88.252345 
L 561.523752 88.049325 
L 570.775475 78.15232 
L 580.027198 84.141268 
L 589.278921 86.475959 
L 598.530644 75.614581 
L 607.782367 79.471916 
L 617.03409 77.187996 
L 626.285813 66.022119 
L 635.537536 69.879418 
L 644.789259 71.40204 
L 654.040982 94.647361 
L 663.292705 79.522665 
L 672.544428 76.832728 
L 681.796151 71.452783 
L 691.047874 84.648795 
L 700.299597 78.964363 
L 709.55132 97.388044 
" style="fill:none;stroke:#2d1e3e;stroke-linecap:square;stroke-width:1.5;"/>
   </g>
   <g id="patch_6">
    <path d="M 418.122046 330.239063 
L 418.122046 36.839063 
" style="fill:none;stroke:#000000;stroke-linecap:square;stroke-linejoin:miter;stroke-width:0.8;"/>
   </g>
   <g id="patch_7">
    <path d="M 418.122046 330.239063 
L 723.428904 330.239063 
" style="fill:none;stroke:#000000;stroke-linecap:square;stroke-linejoin:miter;stroke-width:0.8;"/>
   </g>
   <g id="text_32">
    <!-- loss = f1micro -->
    <g transform="translate(534.686413 30.839063)scale(0.1 -0.1)">
     <use xlink:href="#DejaVuSans-108"/>
     <use x="27.783203" xlink:href="#DejaVuSans-111"/>
     <use x="88.964844" xlink:href="#DejaVuSans-115"/>
     <use x="141.064453" xlink:href="#DejaVuSans-115"/>
     <use x="193.164062" xlink:href="#DejaVuSans-32"/>
     <use x="224.951172" xlink:href="#DejaVuSans-61"/>
     <use x="308.740234" xlink:href="#DejaVuSans-32"/>
     <use x="340.527344" xlink:href="#DejaVuSans-102"/>
     <use x="375.732422" xlink:href="#DejaVuSans-49"/>
     <use x="439.355469" xlink:href="#DejaVuSans-109"/>
     <use x="536.767578" xlink:href="#DejaVuSans-105"/>
     <use x="564.550781" xlink:href="#DejaVuSans-99"/>
     <use x="619.53125" xlink:href="#DejaVuSans-114"/>
     <use x="660.613281" xlink:href="#DejaVuSans-111"/>
    </g>
   </g>
  </g>
  <g id="axes_3">
   <g id="patch_8">
    <path d="M 773.177411 330.239063 
L 1078.48427 330.239063 
L 1078.48427 36.839063 
L 773.177411 36.839063 
z
" style="fill:#ffffff;"/>
   </g>
   <g id="PolyCollection_7">
    <defs>
     <path d="M 921.204979 -137.442265 
L 921.204979 -115.908746 
L 930.456702 -115.345098 
L 930.456702 -137.031966 
L 930.456702 -137.031966 
L 921.204979 -137.442265 
z
" id="m21a0956df1" style="stroke:#edd1cb;stroke-opacity:0.2;"/>
    </defs>
    <g clip-path="url(#p0ae0ab9885)">
     <use style="fill:#edd1cb;fill-opacity:0.2;stroke:#edd1cb;stroke-opacity:0.2;" x="0" xlink:href="#m21a0956df1" y="367.795313"/>
    </g>
   </g>
   <g id="PolyCollection_8">
    <defs>
     <path d="M 851.817056 -125.095126 
L 851.817056 -97.593744 
L 861.068779 -105.284237 
L 870.320502 -88.080419 
L 879.572225 -83.077617 
L 888.823948 -83.293024 
L 898.075671 -79.210189 
L 907.327394 -92.389236 
L 916.579117 -85.586131 
L 925.83084 -83.296157 
L 935.082563 -95.826965 
L 944.334286 -101.080307 
L 953.586009 -98.329307 
L 962.837732 -105.108361 
L 972.089455 -104.936464 
L 981.341178 -114.803446 
L 990.592901 -124.295418 
L 999.844624 -129.562383 
L 999.844624 -149.303307 
L 999.844624 -149.303307 
L 990.592901 -150.953256 
L 981.341178 -135.458094 
L 972.089455 -138.840642 
L 962.837732 -129.288271 
L 953.586009 -114.978546 
L 944.334286 -136.102487 
L 935.082563 -119.910501 
L 925.83084 -111.544112 
L 916.579117 -122.895519 
L 907.327394 -123.390407 
L 898.075671 -96.116383 
L 888.823948 -117.696864 
L 879.572225 -103.574103 
L 870.320502 -114.753892 
L 861.068779 -126.103706 
L 851.817056 -125.095126 
z
" id="m6f4742039b" style="stroke:#a9678f;stroke-opacity:0.2;"/>
    </defs>
    <g clip-path="url(#p0ae0ab9885)">
     <use style="fill:#a9678f;fill-opacity:0.2;stroke:#a9678f;stroke-opacity:0.2;" x="0" xlink:href="#m6f4742039b" y="367.795313"/>
    </g>
   </g>
   <g id="PolyCollection_9">
    <defs>
     <path d="M 787.054995 -128.614226 
L 787.054995 -111.368072 
L 796.306718 -82.452642 
L 805.558441 -70.58719 
L 814.810164 -61.136451 
L 824.061887 -58.286557 
L 833.31361 -52.304433 
L 842.565333 -50.892614 
L 851.817056 -55.410207 
L 861.068779 -52.621535 
L 870.320502 -53.350082 
L 879.572225 -56.278202 
L 888.823948 -62.847985 
L 898.075671 -64.986833 
L 907.327394 -67.014988 
L 916.579117 -73.149975 
L 925.83084 -68.372838 
L 935.082563 -73.703744 
L 944.334286 -82.923349 
L 953.586009 -84.888112 
L 962.837732 -91.022047 
L 972.089455 -100.609185 
L 981.341178 -107.276716 
L 990.592901 -107.602101 
L 999.844624 -125.326584 
L 1009.096347 -134.912587 
L 1018.34807 -143.326814 
L 1027.599793 -146.449725 
L 1036.851516 -176.219046 
L 1046.103239 -199.863253 
L 1055.354962 -236.699344 
L 1064.606685 -272.260725 
L 1064.606685 -317.619886 
L 1064.606685 -317.619886 
L 1055.354962 -262.540394 
L 1046.103239 -236.672577 
L 1036.851516 -201.50475 
L 1027.599793 -206.045885 
L 1018.34807 -211.421781 
L 1009.096347 -162.971096 
L 999.844624 -160.877717 
L 990.592901 -128.391802 
L 981.341178 -118.665685 
L 972.089455 -121.462704 
L 962.837732 -124.820531 
L 953.586009 -107.615165 
L 944.334286 -106.050302 
L 935.082563 -90.073111 
L 925.83084 -92.978573 
L 916.579117 -98.381384 
L 907.327394 -80.982836 
L 898.075671 -85.616518 
L 888.823948 -87.718904 
L 879.572225 -62.51292 
L 870.320502 -99.399833 
L 861.068779 -76.989074 
L 851.817056 -75.642023 
L 842.565333 -65.550575 
L 833.31361 -55.737448 
L 824.061887 -70.756741 
L 814.810164 -66.677315 
L 805.558441 -83.721876 
L 796.306718 -108.426355 
L 787.054995 -128.614226 
z
" id="ma129644d4e" style="stroke:#2d1e3e;stroke-opacity:0.2;"/>
    </defs>
    <g clip-path="url(#p0ae0ab9885)">
     <use style="fill:#2d1e3e;fill-opacity:0.2;stroke:#2d1e3e;stroke-opacity:0.2;" x="0" xlink:href="#ma129644d4e" y="367.795313"/>
    </g>
   </g>
   <g id="matplotlib.axis_5">
    <g id="xtick_15">
     <g id="line2d_38">
      <g>
       <use style="stroke:#000000;stroke-width:0.8;" x="787.054995" xlink:href="#med90b633b7" y="330.239063"/>
      </g>
     </g>
     <g id="text_33">
      <!-- −15 -->
      <g transform="translate(776.502652 344.8375)scale(0.1 -0.1)">
       <use xlink:href="#DejaVuSans-8722"/>
       <use x="83.789062" xlink:href="#DejaVuSans-49"/>
       <use x="147.412109" xlink:href="#DejaVuSans-53"/>
      </g>
     </g>
    </g>
    <g id="xtick_16">
     <g id="line2d_39">
      <g>
       <use style="stroke:#000000;stroke-width:0.8;" x="833.31361" xlink:href="#med90b633b7" y="330.239063"/>
      </g>
     </g>
     <g id="text_34">
      <!-- −10 -->
      <g transform="translate(822.761267 344.8375)scale(0.1 -0.1)">
       <use xlink:href="#DejaVuSans-8722"/>
       <use x="83.789062" xlink:href="#DejaVuSans-49"/>
       <use x="147.412109" xlink:href="#DejaVuSans-48"/>
      </g>
     </g>
    </g>
    <g id="xtick_17">
     <g id="line2d_40">
      <g>
       <use style="stroke:#000000;stroke-width:0.8;" x="879.572225" xlink:href="#med90b633b7" y="330.239063"/>
      </g>
     </g>
     <g id="text_35">
      <!-- −5 -->
      <g transform="translate(872.201132 344.8375)scale(0.1 -0.1)">
       <use xlink:href="#DejaVuSans-8722"/>
       <use x="83.789062" xlink:href="#DejaVuSans-53"/>
      </g>
     </g>
    </g>
    <g id="xtick_18">
     <g id="line2d_41">
      <g>
       <use style="stroke:#000000;stroke-width:0.8;" x="925.83084" xlink:href="#med90b633b7" y="330.239063"/>
      </g>
     </g>
     <g id="text_36">
      <!-- 0 -->
      <g transform="translate(922.64959 344.8375)scale(0.1 -0.1)">
       <use xlink:href="#DejaVuSans-48"/>
      </g>
     </g>
    </g>
    <g id="xtick_19">
     <g id="line2d_42">
      <g>
       <use style="stroke:#000000;stroke-width:0.8;" x="972.089455" xlink:href="#med90b633b7" y="330.239063"/>
      </g>
     </g>
     <g id="text_37">
      <!-- 5 -->
      <g transform="translate(968.908205 344.8375)scale(0.1 -0.1)">
       <use xlink:href="#DejaVuSans-53"/>
      </g>
     </g>
    </g>
    <g id="xtick_20">
     <g id="line2d_43">
      <g>
       <use style="stroke:#000000;stroke-width:0.8;" x="1018.34807" xlink:href="#med90b633b7" y="330.239063"/>
      </g>
     </g>
     <g id="text_38">
      <!-- 10 -->
      <g transform="translate(1011.98557 344.8375)scale(0.1 -0.1)">
       <use xlink:href="#DejaVuSans-49"/>
       <use x="63.623047" xlink:href="#DejaVuSans-48"/>
      </g>
     </g>
    </g>
    <g id="xtick_21">
     <g id="line2d_44">
      <g>
       <use style="stroke:#000000;stroke-width:0.8;" x="1064.606685" xlink:href="#med90b633b7" y="330.239063"/>
      </g>
     </g>
     <g id="text_39">
      <!-- 15 -->
      <g transform="translate(1058.244185 344.8375)scale(0.1 -0.1)">
       <use xlink:href="#DejaVuSans-49"/>
       <use x="63.623047" xlink:href="#DejaVuSans-53"/>
      </g>
     </g>
    </g>
    <g id="text_40">
     <!-- spill -->
     <g transform="translate(915.884747 358.515625)scale(0.1 -0.1)">
      <use xlink:href="#DejaVuSans-115"/>
      <use x="52.099609" xlink:href="#DejaVuSans-112"/>
      <use x="115.576172" xlink:href="#DejaVuSans-105"/>
      <use x="143.359375" xlink:href="#DejaVuSans-108"/>
      <use x="171.142578" xlink:href="#DejaVuSans-108"/>
     </g>
    </g>
   </g>
   <g id="matplotlib.axis_6">
    <g id="ytick_14">
     <g id="line2d_45">
      <g>
       <use style="stroke:#000000;stroke-width:0.8;" x="773.177411" xlink:href="#mac0bfab51e" y="295.160539"/>
      </g>
     </g>
     <g id="text_41">
      <!-- −2.0 -->
      <g transform="translate(741.894598 298.959758)scale(0.1 -0.1)">
       <use xlink:href="#DejaVuSans-8722"/>
       <use x="83.789062" xlink:href="#DejaVuSans-50"/>
       <use x="147.412109" xlink:href="#DejaVuSans-46"/>
       <use x="179.199219" xlink:href="#DejaVuSans-48"/>
      </g>
     </g>
    </g>
    <g id="ytick_15">
     <g id="line2d_46">
      <g>
       <use style="stroke:#000000;stroke-width:0.8;" x="773.177411" xlink:href="#mac0bfab51e" y="243.669124"/>
      </g>
     </g>
     <g id="text_42">
      <!-- −1.5 -->
      <g transform="translate(741.894598 247.468343)scale(0.1 -0.1)">
       <use xlink:href="#DejaVuSans-8722"/>
       <use x="83.789062" xlink:href="#DejaVuSans-49"/>
       <use x="147.412109" xlink:href="#DejaVuSans-46"/>
       <use x="179.199219" xlink:href="#DejaVuSans-53"/>
      </g>
     </g>
    </g>
    <g id="ytick_16">
     <g id="line2d_47">
      <g>
       <use style="stroke:#000000;stroke-width:0.8;" x="773.177411" xlink:href="#mac0bfab51e" y="192.17771"/>
      </g>
     </g>
     <g id="text_43">
      <!-- −1.0 -->
      <g transform="translate(741.894598 195.976929)scale(0.1 -0.1)">
       <use xlink:href="#DejaVuSans-8722"/>
       <use x="83.789062" xlink:href="#DejaVuSans-49"/>
       <use x="147.412109" xlink:href="#DejaVuSans-46"/>
       <use x="179.199219" xlink:href="#DejaVuSans-48"/>
      </g>
     </g>
    </g>
    <g id="ytick_17">
     <g id="line2d_48">
      <g>
       <use style="stroke:#000000;stroke-width:0.8;" x="773.177411" xlink:href="#mac0bfab51e" y="140.686295"/>
      </g>
     </g>
     <g id="text_44">
      <!-- −0.5 -->
      <g transform="translate(741.894598 144.485514)scale(0.1 -0.1)">
       <use xlink:href="#DejaVuSans-8722"/>
       <use x="83.789062" xlink:href="#DejaVuSans-48"/>
       <use x="147.412109" xlink:href="#DejaVuSans-46"/>
       <use x="179.199219" xlink:href="#DejaVuSans-53"/>
      </g>
     </g>
    </g>
    <g id="ytick_18">
     <g id="line2d_49">
      <g>
       <use style="stroke:#000000;stroke-width:0.8;" x="773.177411" xlink:href="#mac0bfab51e" y="89.194881"/>
      </g>
     </g>
     <g id="text_45">
      <!-- 0.0 -->
      <g transform="translate(750.274286 92.9941)scale(0.1 -0.1)">
       <use xlink:href="#DejaVuSans-48"/>
       <use x="63.623047" xlink:href="#DejaVuSans-46"/>
       <use x="95.410156" xlink:href="#DejaVuSans-48"/>
      </g>
     </g>
    </g>
    <g id="ytick_19">
     <g id="line2d_50">
      <g>
       <use style="stroke:#000000;stroke-width:0.8;" x="773.177411" xlink:href="#mac0bfab51e" y="37.703466"/>
      </g>
     </g>
     <g id="text_46">
      <!-- 0.5 -->
      <g transform="translate(750.274286 41.502685)scale(0.1 -0.1)">
       <use xlink:href="#DejaVuSans-48"/>
       <use x="63.623047" xlink:href="#DejaVuSans-46"/>
       <use x="95.410156" xlink:href="#DejaVuSans-53"/>
      </g>
     </g>
    </g>
   </g>
   <g id="line2d_51">
    <path clip-path="url(#p0ae0ab9885)" d="M 921.204979 241.89054 
L 930.456702 241.89054 
" style="fill:none;stroke:#edd1cb;stroke-linecap:square;stroke-width:1.5;"/>
   </g>
   <g id="line2d_52">
    <path clip-path="url(#p0ae0ab9885)" d="M 851.817056 257.636448 
L 861.068779 250.537338 
L 870.320502 267.471842 
L 879.572225 274.616319 
L 888.823948 269.02341 
L 898.075671 280.634073 
L 907.327394 260.288761 
L 916.579117 266.164215 
L 925.83084 270.573062 
L 935.082563 260.235382 
L 944.334286 250.108688 
L 953.586009 261.387827 
L 962.837732 250.396216 
L 972.089455 248.057923 
L 981.341178 243.476459 
L 990.592901 230.003779 
L 999.844624 227.901302 
" style="fill:none;stroke:#a9678f;stroke-linecap:square;stroke-width:1.5;"/>
   </g>
   <g id="line2d_53">
    <path clip-path="url(#p0ae0ab9885)" d="M 787.054995 248.151142 
L 796.306718 275.828325 
L 805.558441 291.441775 
L 814.810164 304.274726 
L 824.061887 303.954505 
L 833.31361 313.706825 
L 842.565333 310.401518 
L 851.817056 302.991907 
L 861.068779 305.785811 
L 870.320502 297.695381 
L 879.572225 308.613823 
L 888.823948 293.754141 
L 898.075671 293.249107 
L 907.327394 293.909994 
L 916.579117 283.392709 
L 925.83084 288.282738 
L 935.082563 286.551127 
L 944.334286 273.925894 
L 953.586009 271.461485 
L 962.837732 262.803998 
L 972.089455 258.022313 
L 981.341178 254.878423 
L 990.592901 250.50026 
L 999.844624 225.906662 
L 1009.096347 219.730762 
L 1018.34807 192.375526 
L 1027.599793 193.65328 
L 1036.851516 178.921093 
L 1046.103239 149.448463 
L 1055.354962 119.885414 
L 1064.606685 73.458181 
" style="fill:none;stroke:#2d1e3e;stroke-linecap:square;stroke-width:1.5;"/>
   </g>
   <g id="patch_9">
    <path d="M 773.177411 330.239062 
L 773.177411 36.839063 
" style="fill:none;stroke:#000000;stroke-linecap:square;stroke-linejoin:miter;stroke-width:0.8;"/>
   </g>
   <g id="patch_10">
    <path d="M 773.177411 330.239063 
L 1078.48427 330.239063 
" style="fill:none;stroke:#000000;stroke-linecap:square;stroke-linejoin:miter;stroke-width:0.8;"/>
   </g>
   <g id="text_47">
    <!-- loss = total loss -->
    <g transform="translate(886.125372 30.839063)scale(0.1 -0.1)">
     <use xlink:href="#DejaVuSans-108"/>
     <use x="27.783203" xlink:href="#DejaVuSans-111"/>
     <use x="88.964844" xlink:href="#DejaVuSans-115"/>
     <use x="141.064453" xlink:href="#DejaVuSans-115"/>
     <use x="193.164062" xlink:href="#DejaVuSans-32"/>
     <use x="224.951172" xlink:href="#DejaVuSans-61"/>
     <use x="308.740234" xlink:href="#DejaVuSans-32"/>
     <use x="340.527344" xlink:href="#DejaVuSans-116"/>
     <use x="379.736328" xlink:href="#DejaVuSans-111"/>
     <use x="440.917969" xlink:href="#DejaVuSans-116"/>
     <use x="480.126953" xlink:href="#DejaVuSans-97"/>
     <use x="541.40625" xlink:href="#DejaVuSans-108"/>
     <use x="569.189453" xlink:href="#DejaVuSans-32"/>
     <use x="600.976562" xlink:href="#DejaVuSans-108"/>
     <use x="628.759766" xlink:href="#DejaVuSans-111"/>
     <use x="689.941406" xlink:href="#DejaVuSans-115"/>
     <use x="742.041016" xlink:href="#DejaVuSans-115"/>
    </g>
   </g>
  </g>
  <g id="axes_4">
   <g id="patch_11">
    <path d="M 1128.232776 330.239063 
L 1433.539635 330.239063 
L 1433.539635 36.839063 
L 1128.232776 36.839063 
z
" style="fill:#ffffff;"/>
   </g>
   <g id="PolyCollection_10">
    <defs>
     <path d="M 1276.260344 -232.616865 
L 1276.260344 -220.275936 
L 1285.512067 -220.334338 
L 1285.512067 -232.435499 
L 1285.512067 -232.435499 
L 1276.260344 -232.616865 
z
" id="m19b061271c" style="stroke:#edd1cb;stroke-opacity:0.2;"/>
    </defs>
    <g clip-path="url(#p4321767c9b)">
     <use style="fill:#edd1cb;fill-opacity:0.2;stroke:#edd1cb;stroke-opacity:0.2;" x="0" xlink:href="#m19b061271c" y="367.795313"/>
    </g>
   </g>
   <g id="PolyCollection_11">
    <defs>
     <path d="M 1206.872422 -186.480807 
L 1206.872422 -171.845336 
L 1216.124145 -169.152425 
L 1225.375868 -148.334089 
L 1234.627591 -135.954353 
L 1243.879314 -127.97432 
L 1253.131037 -118.665376 
L 1262.382759 -118.863959 
L 1271.634482 -115.742374 
L 1280.886205 -111.064835 
L 1290.137928 -117.309623 
L 1299.389651 -114.07768 
L 1308.641374 -118.968574 
L 1317.893097 -117.460935 
L 1327.14482 -117.690427 
L 1336.396543 -124.305818 
L 1345.648266 -123.017424 
L 1354.899989 -126.47604 
L 1354.899989 -136.007069 
L 1354.899989 -136.007069 
L 1345.648266 -136.402635 
L 1336.396543 -142.275647 
L 1327.14482 -126.642144 
L 1317.893097 -127.848773 
L 1308.641374 -130.446421 
L 1299.389651 -130.190263 
L 1290.137928 -126.92348 
L 1280.886205 -127.422919 
L 1271.634482 -126.059939 
L 1262.382759 -128.514633 
L 1253.131037 -135.175996 
L 1243.879314 -138.858767 
L 1234.627591 -146.328834 
L 1225.375868 -160.317295 
L 1216.124145 -187.305624 
L 1206.872422 -186.480807 
z
" id="m602ee5975c" style="stroke:#a9678f;stroke-opacity:0.2;"/>
    </defs>
    <g clip-path="url(#p4321767c9b)">
     <use style="fill:#a9678f;fill-opacity:0.2;stroke:#a9678f;stroke-opacity:0.2;" x="0" xlink:href="#m602ee5975c" y="367.795313"/>
    </g>
   </g>
   <g id="PolyCollection_12">
    <defs>
     <path d="M 1142.110361 -317.619886 
L 1142.110361 -275.591763 
L 1151.362084 -189.422901 
L 1160.613807 -144.950581 
L 1169.86553 -107.79736 
L 1179.117253 -86.039358 
L 1188.368976 -72.416999 
L 1197.620699 -61.140457 
L 1206.872422 -59.533455 
L 1216.124145 -55.107886 
L 1225.375868 -50.892614 
L 1234.627591 -57.656732 
L 1243.879314 -53.509619 
L 1253.131037 -56.832149 
L 1262.382759 -51.812135 
L 1271.634482 -58.05202 
L 1280.886205 -58.6217 
L 1290.137928 -56.161589 
L 1299.389651 -58.899018 
L 1308.641374 -61.163136 
L 1317.893097 -63.820565 
L 1327.14482 -57.870075 
L 1336.396543 -59.474224 
L 1345.648266 -60.965133 
L 1354.899989 -62.25945 
L 1364.151712 -63.254832 
L 1373.403435 -62.514924 
L 1382.655158 -65.276604 
L 1391.906881 -63.958098 
L 1401.158604 -66.146794 
L 1410.410327 -61.562134 
L 1419.66205 -71.634445 
L 1419.66205 -97.176901 
L 1419.66205 -97.176901 
L 1410.410327 -91.271905 
L 1401.158604 -85.57766 
L 1391.906881 -78.166269 
L 1382.655158 -76.616734 
L 1373.403435 -80.173878 
L 1364.151712 -85.013843 
L 1354.899989 -73.543912 
L 1345.648266 -70.234081 
L 1336.396543 -66.923042 
L 1327.14482 -75.663416 
L 1317.893097 -85.260762 
L 1308.641374 -70.666309 
L 1299.389651 -71.024793 
L 1290.137928 -67.891959 
L 1280.886205 -69.603392 
L 1271.634482 -72.495983 
L 1262.382759 -62.470138 
L 1253.131037 -82.241747 
L 1243.879314 -61.694708 
L 1234.627591 -69.603159 
L 1225.375868 -59.762843 
L 1216.124145 -75.033955 
L 1206.872422 -68.65748 
L 1197.620699 -79.790195 
L 1188.368976 -83.255376 
L 1179.117253 -97.006593 
L 1169.86553 -113.561024 
L 1160.613807 -152.717896 
L 1151.362084 -196.838296 
L 1142.110361 -317.619886 
z
" id="m487f96830d" style="stroke:#2d1e3e;stroke-opacity:0.2;"/>
    </defs>
    <g clip-path="url(#p4321767c9b)">
     <use style="fill:#2d1e3e;fill-opacity:0.2;stroke:#2d1e3e;stroke-opacity:0.2;" x="0" xlink:href="#m487f96830d" y="367.795313"/>
    </g>
   </g>
   <g id="matplotlib.axis_7">
    <g id="xtick_22">
     <g id="line2d_54">
      <g>
       <use style="stroke:#000000;stroke-width:0.8;" x="1142.110361" xlink:href="#med90b633b7" y="330.239063"/>
      </g>
     </g>
     <g id="text_48">
      <!-- −15 -->
      <g transform="translate(1131.558017 344.8375)scale(0.1 -0.1)">
       <use xlink:href="#DejaVuSans-8722"/>
       <use x="83.789062" xlink:href="#DejaVuSans-49"/>
       <use x="147.412109" xlink:href="#DejaVuSans-53"/>
      </g>
     </g>
    </g>
    <g id="xtick_23">
     <g id="line2d_55">
      <g>
       <use style="stroke:#000000;stroke-width:0.8;" x="1188.368976" xlink:href="#med90b633b7" y="330.239063"/>
      </g>
     </g>
     <g id="text_49">
      <!-- −10 -->
      <g transform="translate(1177.816632 344.8375)scale(0.1 -0.1)">
       <use xlink:href="#DejaVuSans-8722"/>
       <use x="83.789062" xlink:href="#DejaVuSans-49"/>
       <use x="147.412109" xlink:href="#DejaVuSans-48"/>
      </g>
     </g>
    </g>
    <g id="xtick_24">
     <g id="line2d_56">
      <g>
       <use style="stroke:#000000;stroke-width:0.8;" x="1234.627591" xlink:href="#med90b633b7" y="330.239063"/>
      </g>
     </g>
     <g id="text_50">
      <!-- −5 -->
      <g transform="translate(1227.256497 344.8375)scale(0.1 -0.1)">
       <use xlink:href="#DejaVuSans-8722"/>
       <use x="83.789062" xlink:href="#DejaVuSans-53"/>
      </g>
     </g>
    </g>
    <g id="xtick_25">
     <g id="line2d_57">
      <g>
       <use style="stroke:#000000;stroke-width:0.8;" x="1280.886205" xlink:href="#med90b633b7" y="330.239063"/>
      </g>
     </g>
     <g id="text_51">
      <!-- 0 -->
      <g transform="translate(1277.704955 344.8375)scale(0.1 -0.1)">
       <use xlink:href="#DejaVuSans-48"/>
      </g>
     </g>
    </g>
    <g id="xtick_26">
     <g id="line2d_58">
      <g>
       <use style="stroke:#000000;stroke-width:0.8;" x="1327.14482" xlink:href="#med90b633b7" y="330.239063"/>
      </g>
     </g>
     <g id="text_52">
      <!-- 5 -->
      <g transform="translate(1323.96357 344.8375)scale(0.1 -0.1)">
       <use xlink:href="#DejaVuSans-53"/>
      </g>
     </g>
    </g>
    <g id="xtick_27">
     <g id="line2d_59">
      <g>
       <use style="stroke:#000000;stroke-width:0.8;" x="1373.403435" xlink:href="#med90b633b7" y="330.239063"/>
      </g>
     </g>
     <g id="text_53">
      <!-- 10 -->
      <g transform="translate(1367.040935 344.8375)scale(0.1 -0.1)">
       <use xlink:href="#DejaVuSans-49"/>
       <use x="63.623047" xlink:href="#DejaVuSans-48"/>
      </g>
     </g>
    </g>
    <g id="xtick_28">
     <g id="line2d_60">
      <g>
       <use style="stroke:#000000;stroke-width:0.8;" x="1419.66205" xlink:href="#med90b633b7" y="330.239063"/>
      </g>
     </g>
     <g id="text_54">
      <!-- 15 -->
      <g transform="translate(1413.29955 344.8375)scale(0.1 -0.1)">
       <use xlink:href="#DejaVuSans-49"/>
       <use x="63.623047" xlink:href="#DejaVuSans-53"/>
      </g>
     </g>
    </g>
    <g id="text_55">
     <!-- spill -->
     <g transform="translate(1270.940112 358.515625)scale(0.1 -0.1)">
      <use xlink:href="#DejaVuSans-115"/>
      <use x="52.099609" xlink:href="#DejaVuSans-112"/>
      <use x="115.576172" xlink:href="#DejaVuSans-105"/>
      <use x="143.359375" xlink:href="#DejaVuSans-108"/>
      <use x="171.142578" xlink:href="#DejaVuSans-108"/>
     </g>
    </g>
   </g>
   <g id="matplotlib.axis_8">
    <g id="ytick_20">
     <g id="line2d_61">
      <g>
       <use style="stroke:#000000;stroke-width:0.8;" x="1128.232776" xlink:href="#mac0bfab51e" y="323.226161"/>
      </g>
     </g>
     <g id="text_56">
      <!-- 0.3 -->
      <defs>
       <path d="M 40.578125 39.3125 
Q 47.65625 37.796875 51.625 33 
Q 55.609375 28.21875 55.609375 21.1875 
Q 55.609375 10.40625 48.1875 4.484375 
Q 40.765625 -1.421875 27.09375 -1.421875 
Q 22.515625 -1.421875 17.65625 -0.515625 
Q 12.796875 0.390625 7.625 2.203125 
L 7.625 11.71875 
Q 11.71875 9.328125 16.59375 8.109375 
Q 21.484375 6.890625 26.8125 6.890625 
Q 36.078125 6.890625 40.9375 10.546875 
Q 45.796875 14.203125 45.796875 21.1875 
Q 45.796875 27.640625 41.28125 31.265625 
Q 36.765625 34.90625 28.71875 34.90625 
L 20.21875 34.90625 
L 20.21875 43.015625 
L 29.109375 43.015625 
Q 36.375 43.015625 40.234375 45.921875 
Q 44.09375 48.828125 44.09375 54.296875 
Q 44.09375 59.90625 40.109375 62.90625 
Q 36.140625 65.921875 28.71875 65.921875 
Q 24.65625 65.921875 20.015625 65.03125 
Q 15.375 64.15625 9.8125 62.3125 
L 9.8125 71.09375 
Q 15.4375 72.65625 20.34375 73.4375 
Q 25.25 74.21875 29.59375 74.21875 
Q 40.828125 74.21875 47.359375 69.109375 
Q 53.90625 64.015625 53.90625 55.328125 
Q 53.90625 49.265625 50.4375 45.09375 
Q 46.96875 40.921875 40.578125 39.3125 
z
" id="DejaVuSans-51"/>
      </defs>
      <g transform="translate(1105.329651 327.025379)scale(0.1 -0.1)">
       <use xlink:href="#DejaVuSans-48"/>
       <use x="63.623047" xlink:href="#DejaVuSans-46"/>
       <use x="95.410156" xlink:href="#DejaVuSans-51"/>
      </g>
     </g>
    </g>
    <g id="ytick_21">
     <g id="line2d_62">
      <g>
       <use style="stroke:#000000;stroke-width:0.8;" x="1128.232776" xlink:href="#mac0bfab51e" y="284.143244"/>
      </g>
     </g>
     <g id="text_57">
      <!-- 0.4 -->
      <defs>
       <path d="M 37.796875 64.3125 
L 12.890625 25.390625 
L 37.796875 25.390625 
z
M 35.203125 72.90625 
L 47.609375 72.90625 
L 47.609375 25.390625 
L 58.015625 25.390625 
L 58.015625 17.1875 
L 47.609375 17.1875 
L 47.609375 0 
L 37.796875 0 
L 37.796875 17.1875 
L 4.890625 17.1875 
L 4.890625 26.703125 
z
" id="DejaVuSans-52"/>
      </defs>
      <g transform="translate(1105.329651 287.942463)scale(0.1 -0.1)">
       <use xlink:href="#DejaVuSans-48"/>
       <use x="63.623047" xlink:href="#DejaVuSans-46"/>
       <use x="95.410156" xlink:href="#DejaVuSans-52"/>
      </g>
     </g>
    </g>
    <g id="ytick_22">
     <g id="line2d_63">
      <g>
       <use style="stroke:#000000;stroke-width:0.8;" x="1128.232776" xlink:href="#mac0bfab51e" y="245.060328"/>
      </g>
     </g>
     <g id="text_58">
      <!-- 0.5 -->
      <g transform="translate(1105.329651 248.859547)scale(0.1 -0.1)">
       <use xlink:href="#DejaVuSans-48"/>
       <use x="63.623047" xlink:href="#DejaVuSans-46"/>
       <use x="95.410156" xlink:href="#DejaVuSans-53"/>
      </g>
     </g>
    </g>
    <g id="ytick_23">
     <g id="line2d_64">
      <g>
       <use style="stroke:#000000;stroke-width:0.8;" x="1128.232776" xlink:href="#mac0bfab51e" y="205.977412"/>
      </g>
     </g>
     <g id="text_59">
      <!-- 0.6 -->
      <g transform="translate(1105.329651 209.77663)scale(0.1 -0.1)">
       <use xlink:href="#DejaVuSans-48"/>
       <use x="63.623047" xlink:href="#DejaVuSans-46"/>
       <use x="95.410156" xlink:href="#DejaVuSans-54"/>
      </g>
     </g>
    </g>
    <g id="ytick_24">
     <g id="line2d_65">
      <g>
       <use style="stroke:#000000;stroke-width:0.8;" x="1128.232776" xlink:href="#mac0bfab51e" y="166.894495"/>
      </g>
     </g>
     <g id="text_60">
      <!-- 0.7 -->
      <g transform="translate(1105.329651 170.693714)scale(0.1 -0.1)">
       <use xlink:href="#DejaVuSans-48"/>
       <use x="63.623047" xlink:href="#DejaVuSans-46"/>
       <use x="95.410156" xlink:href="#DejaVuSans-55"/>
      </g>
     </g>
    </g>
    <g id="ytick_25">
     <g id="line2d_66">
      <g>
       <use style="stroke:#000000;stroke-width:0.8;" x="1128.232776" xlink:href="#mac0bfab51e" y="127.811579"/>
      </g>
     </g>
     <g id="text_61">
      <!-- 0.8 -->
      <defs>
       <path d="M 31.78125 34.625 
Q 24.75 34.625 20.71875 30.859375 
Q 16.703125 27.09375 16.703125 20.515625 
Q 16.703125 13.921875 20.71875 10.15625 
Q 24.75 6.390625 31.78125 6.390625 
Q 38.8125 6.390625 42.859375 10.171875 
Q 46.921875 13.96875 46.921875 20.515625 
Q 46.921875 27.09375 42.890625 30.859375 
Q 38.875 34.625 31.78125 34.625 
z
M 21.921875 38.8125 
Q 15.578125 40.375 12.03125 44.71875 
Q 8.5 49.078125 8.5 55.328125 
Q 8.5 64.0625 14.71875 69.140625 
Q 20.953125 74.21875 31.78125 74.21875 
Q 42.671875 74.21875 48.875 69.140625 
Q 55.078125 64.0625 55.078125 55.328125 
Q 55.078125 49.078125 51.53125 44.71875 
Q 48 40.375 41.703125 38.8125 
Q 48.828125 37.15625 52.796875 32.3125 
Q 56.78125 27.484375 56.78125 20.515625 
Q 56.78125 9.90625 50.3125 4.234375 
Q 43.84375 -1.421875 31.78125 -1.421875 
Q 19.734375 -1.421875 13.25 4.234375 
Q 6.78125 9.90625 6.78125 20.515625 
Q 6.78125 27.484375 10.78125 32.3125 
Q 14.796875 37.15625 21.921875 38.8125 
z
M 18.3125 54.390625 
Q 18.3125 48.734375 21.84375 45.5625 
Q 25.390625 42.390625 31.78125 42.390625 
Q 38.140625 42.390625 41.71875 45.5625 
Q 45.3125 48.734375 45.3125 54.390625 
Q 45.3125 60.0625 41.71875 63.234375 
Q 38.140625 66.40625 31.78125 66.40625 
Q 25.390625 66.40625 21.84375 63.234375 
Q 18.3125 60.0625 18.3125 54.390625 
z
" id="DejaVuSans-56"/>
      </defs>
      <g transform="translate(1105.329651 131.610798)scale(0.1 -0.1)">
       <use xlink:href="#DejaVuSans-48"/>
       <use x="63.623047" xlink:href="#DejaVuSans-46"/>
       <use x="95.410156" xlink:href="#DejaVuSans-56"/>
      </g>
     </g>
    </g>
    <g id="ytick_26">
     <g id="line2d_67">
      <g>
       <use style="stroke:#000000;stroke-width:0.8;" x="1128.232776" xlink:href="#mac0bfab51e" y="88.728663"/>
      </g>
     </g>
     <g id="text_62">
      <!-- 0.9 -->
      <defs>
       <path d="M 10.984375 1.515625 
L 10.984375 10.5 
Q 14.703125 8.734375 18.5 7.8125 
Q 22.3125 6.890625 25.984375 6.890625 
Q 35.75 6.890625 40.890625 13.453125 
Q 46.046875 20.015625 46.78125 33.40625 
Q 43.953125 29.203125 39.59375 26.953125 
Q 35.25 24.703125 29.984375 24.703125 
Q 19.046875 24.703125 12.671875 31.3125 
Q 6.296875 37.9375 6.296875 49.421875 
Q 6.296875 60.640625 12.9375 67.421875 
Q 19.578125 74.21875 30.609375 74.21875 
Q 43.265625 74.21875 49.921875 64.515625 
Q 56.59375 54.828125 56.59375 36.375 
Q 56.59375 19.140625 48.40625 8.859375 
Q 40.234375 -1.421875 26.421875 -1.421875 
Q 22.703125 -1.421875 18.890625 -0.6875 
Q 15.09375 0.046875 10.984375 1.515625 
z
M 30.609375 32.421875 
Q 37.25 32.421875 41.125 36.953125 
Q 45.015625 41.5 45.015625 49.421875 
Q 45.015625 57.28125 41.125 61.84375 
Q 37.25 66.40625 30.609375 66.40625 
Q 23.96875 66.40625 20.09375 61.84375 
Q 16.21875 57.28125 16.21875 49.421875 
Q 16.21875 41.5 20.09375 36.953125 
Q 23.96875 32.421875 30.609375 32.421875 
z
" id="DejaVuSans-57"/>
      </defs>
      <g transform="translate(1105.329651 92.527882)scale(0.1 -0.1)">
       <use xlink:href="#DejaVuSans-48"/>
       <use x="63.623047" xlink:href="#DejaVuSans-46"/>
       <use x="95.410156" xlink:href="#DejaVuSans-57"/>
      </g>
     </g>
    </g>
    <g id="ytick_27">
     <g id="line2d_68">
      <g>
       <use style="stroke:#000000;stroke-width:0.8;" x="1128.232776" xlink:href="#mac0bfab51e" y="49.645747"/>
      </g>
     </g>
     <g id="text_63">
      <!-- 1.0 -->
      <g transform="translate(1105.329651 53.444965)scale(0.1 -0.1)">
       <use xlink:href="#DejaVuSans-49"/>
       <use x="63.623047" xlink:href="#DejaVuSans-46"/>
       <use x="95.410156" xlink:href="#DejaVuSans-48"/>
      </g>
     </g>
    </g>
   </g>
   <g id="line2d_69">
    <path clip-path="url(#p4321767c9b)" d="M 1276.260344 141.478335 
L 1285.512067 141.478335 
" style="fill:none;stroke:#edd1cb;stroke-linecap:square;stroke-width:1.5;"/>
   </g>
   <g id="line2d_70">
    <path clip-path="url(#p4321767c9b)" d="M 1206.872422 188.486882 
L 1216.124145 189.683683 
L 1225.375868 213.718182 
L 1234.627591 226.470601 
L 1243.879314 234.717989 
L 1253.131037 240.505265 
L 1262.382759 243.775213 
L 1271.634482 247.505631 
L 1280.886205 248.683897 
L 1290.137928 246.239129 
L 1299.389651 246.240564 
L 1308.641374 243.465485 
L 1317.893097 245.495715 
L 1327.14482 245.97488 
L 1336.396543 234.474377 
L 1345.648266 238.226813 
L 1354.899989 236.867365 
" style="fill:none;stroke:#a9678f;stroke-linecap:square;stroke-width:1.5;"/>
   </g>
   <g id="line2d_71">
    <path clip-path="url(#p4321767c9b)" d="M 1142.110361 70.894439 
L 1151.362084 174.82646 
L 1160.613807 218.957127 
L 1169.86553 257.148659 
L 1179.117253 276.417657 
L 1188.368976 290.087512 
L 1197.620699 297.466431 
L 1206.872422 303.448589 
L 1216.124145 304.350694 
L 1225.375868 312.731585 
L 1234.627591 304.650523 
L 1243.879314 310.403483 
L 1253.131037 300.103913 
L 1262.382759 310.674189 
L 1271.634482 302.392132 
L 1280.886205 303.553709 
L 1290.137928 306.163634 
L 1299.389651 303.452834 
L 1308.641374 301.571921 
L 1317.893097 293.156788 
L 1327.14482 301.460687 
L 1336.396543 304.24853 
L 1345.648266 302.507455 
L 1354.899989 299.699774 
L 1364.151712 295.267975 
L 1373.403435 296.699158 
L 1382.655158 296.966688 
L 1391.906881 296.652434 
L 1401.158604 292.218972 
L 1410.410327 293.298826 
L 1419.66205 284.600484 
" style="fill:none;stroke:#2d1e3e;stroke-linecap:square;stroke-width:1.5;"/>
   </g>
   <g id="patch_12">
    <path d="M 1128.232776 330.239062 
L 1128.232776 36.839063 
" style="fill:none;stroke:#000000;stroke-linecap:square;stroke-linejoin:miter;stroke-width:0.8;"/>
   </g>
   <g id="patch_13">
    <path d="M 1128.232776 330.239063 
L 1433.539635 330.239063 
" style="fill:none;stroke:#000000;stroke-linecap:square;stroke-linejoin:miter;stroke-width:0.8;"/>
   </g>
   <g id="text_64">
    <!-- loss = adj -->
    <defs>
     <path d="M 45.40625 46.390625 
L 45.40625 75.984375 
L 54.390625 75.984375 
L 54.390625 0 
L 45.40625 0 
L 45.40625 8.203125 
Q 42.578125 3.328125 38.25 0.953125 
Q 33.9375 -1.421875 27.875 -1.421875 
Q 17.96875 -1.421875 11.734375 6.484375 
Q 5.515625 14.40625 5.515625 27.296875 
Q 5.515625 40.1875 11.734375 48.09375 
Q 17.96875 56 27.875 56 
Q 33.9375 56 38.25 53.625 
Q 42.578125 51.265625 45.40625 46.390625 
z
M 14.796875 27.296875 
Q 14.796875 17.390625 18.875 11.75 
Q 22.953125 6.109375 30.078125 6.109375 
Q 37.203125 6.109375 41.296875 11.75 
Q 45.40625 17.390625 45.40625 27.296875 
Q 45.40625 37.203125 41.296875 42.84375 
Q 37.203125 48.484375 30.078125 48.484375 
Q 22.953125 48.484375 18.875 42.84375 
Q 14.796875 37.203125 14.796875 27.296875 
z
" id="DejaVuSans-100"/>
     <path d="M 9.421875 54.6875 
L 18.40625 54.6875 
L 18.40625 -0.984375 
Q 18.40625 -11.421875 14.421875 -16.109375 
Q 10.453125 -20.796875 1.609375 -20.796875 
L -1.8125 -20.796875 
L -1.8125 -13.1875 
L 0.59375 -13.1875 
Q 5.71875 -13.1875 7.5625 -10.8125 
Q 9.421875 -8.453125 9.421875 -0.984375 
z
M 9.421875 75.984375 
L 18.40625 75.984375 
L 18.40625 64.59375 
L 9.421875 64.59375 
z
" id="DejaVuSans-106"/>
    </defs>
    <g transform="translate(1256.23308 30.839063)scale(0.1 -0.1)">
     <use xlink:href="#DejaVuSans-108"/>
     <use x="27.783203" xlink:href="#DejaVuSans-111"/>
     <use x="88.964844" xlink:href="#DejaVuSans-115"/>
     <use x="141.064453" xlink:href="#DejaVuSans-115"/>
     <use x="193.164062" xlink:href="#DejaVuSans-32"/>
     <use x="224.951172" xlink:href="#DejaVuSans-61"/>
     <use x="308.740234" xlink:href="#DejaVuSans-32"/>
     <use x="340.527344" xlink:href="#DejaVuSans-97"/>
     <use x="401.806641" xlink:href="#DejaVuSans-100"/>
     <use x="465.283203" xlink:href="#DejaVuSans-106"/>
    </g>
   </g>
  </g>
  <g id="axes_5">
   <g id="patch_14">
    <path d="M 1483.288141 330.239063 
L 1788.595 330.239063 
L 1788.595 36.839063 
L 1483.288141 36.839063 
z
" style="fill:#ffffff;"/>
   </g>
   <g id="PolyCollection_13">
    <defs>
     <path d="M 1631.315709 -95.056584 
L 1631.315709 -76.022493 
L 1640.567432 -76.052397 
L 1640.567432 -94.410474 
L 1640.567432 -94.410474 
L 1631.315709 -95.056584 
z
" id="m9ad5f3d0f9" style="stroke:#edd1cb;stroke-opacity:0.2;"/>
    </defs>
    <g clip-path="url(#pab57ee2aed)">
     <use style="fill:#edd1cb;fill-opacity:0.2;stroke:#edd1cb;stroke-opacity:0.2;" x="0" xlink:href="#m9ad5f3d0f9" y="367.795313"/>
    </g>
   </g>
   <g id="PolyCollection_14">
    <defs>
     <path d="M 1561.927787 -94.951515 
L 1561.927787 -69.261491 
L 1571.17951 -78.783657 
L 1580.431233 -65.805677 
L 1589.682956 -64.634243 
L 1598.934679 -67.404147 
L 1608.186402 -64.555673 
L 1617.438125 -77.401483 
L 1626.689848 -73.371138 
L 1635.941571 -72.201117 
L 1645.193294 -82.266945 
L 1654.445017 -87.204747 
L 1663.69674 -83.769459 
L 1672.948463 -89.751446 
L 1682.200186 -90.859481 
L 1691.451909 -98.100398 
L 1700.703632 -108.677859 
L 1709.955355 -114.217338 
L 1709.955355 -133.683409 
L 1709.955355 -133.683409 
L 1700.703632 -135.092986 
L 1691.451909 -117.105344 
L 1682.200186 -123.026106 
L 1672.948463 -115.951359 
L 1663.69674 -100.317594 
L 1654.445017 -121.26142 
L 1645.193294 -105.077276 
L 1635.941571 -97.069376 
L 1626.689848 -107.558395 
L 1617.438125 -109.496244 
L 1608.186402 -81.011335 
L 1598.934679 -99.494067 
L 1589.682956 -84.321862 
L 1580.431233 -93.730869 
L 1571.17951 -97.558534 
L 1561.927787 -94.951515 
z
" id="mb466e809d9" style="stroke:#a9678f;stroke-opacity:0.2;"/>
    </defs>
    <g clip-path="url(#pab57ee2aed)">
     <use style="fill:#a9678f;fill-opacity:0.2;stroke:#a9678f;stroke-opacity:0.2;" x="0" xlink:href="#mb466e809d9" y="367.795313"/>
    </g>
   </g>
   <g id="PolyCollection_15">
    <defs>
     <path d="M 1497.165726 -69.214135 
L 1497.165726 -52.736463 
L 1506.417449 -50.892614 
L 1515.669172 -50.902082 
L 1524.920895 -51.00354 
L 1534.172618 -53.914151 
L 1543.424341 -51.360001 
L 1552.676064 -53.728143 
L 1561.927787 -58.125277 
L 1571.17951 -55.934785 
L 1580.431233 -58.268946 
L 1589.682956 -59.059371 
L 1598.934679 -65.951435 
L 1608.186402 -66.759409 
L 1617.438125 -70.797167 
L 1626.689848 -75.309278 
L 1635.941571 -69.69988 
L 1645.193294 -75.34778 
L 1654.445017 -84.866601 
L 1663.69674 -85.546745 
L 1672.948463 -90.052274 
L 1682.200186 -101.586765 
L 1691.451909 -109.320986 
L 1700.703632 -108.357393 
L 1709.955355 -125.308388 
L 1719.207078 -135.371061 
L 1728.458801 -144.633572 
L 1737.710524 -146.699376 
L 1746.962247 -175.977274 
L 1756.21397 -199.155683 
L 1765.465693 -236.415662 
L 1774.717416 -266.925456 
L 1774.717416 -317.619886 
L 1774.717416 -317.619886 
L 1765.465693 -262.065071 
L 1756.21397 -234.941881 
L 1746.962247 -201.633578 
L 1737.710524 -207.8581 
L 1728.458801 -214.156485 
L 1719.207078 -162.723133 
L 1709.955355 -164.260944 
L 1700.703632 -129.461429 
L 1691.451909 -120.690042 
L 1682.200186 -122.583811 
L 1672.948463 -119.077025 
L 1663.69674 -108.432871 
L 1654.445017 -107.483573 
L 1645.193294 -93.376393 
L 1635.941571 -96.635241 
L 1626.689848 -99.157492 
L 1617.438125 -85.792476 
L 1608.186402 -85.736375 
L 1598.934679 -92.463208 
L 1589.682956 -63.958846 
L 1580.431233 -103.533396 
L 1571.17951 -79.53499 
L 1561.927787 -77.547803 
L 1552.676064 -63.234041 
L 1543.424341 -53.933667 
L 1534.172618 -64.792165 
L 1524.920895 -56.591509 
L 1515.669172 -63.281955 
L 1506.417449 -75.437767 
L 1497.165726 -69.214135 
z
" id="mf6c22a3685" style="stroke:#2d1e3e;stroke-opacity:0.2;"/>
    </defs>
    <g clip-path="url(#pab57ee2aed)">
     <use style="fill:#2d1e3e;fill-opacity:0.2;stroke:#2d1e3e;stroke-opacity:0.2;" x="0" xlink:href="#mf6c22a3685" y="367.795313"/>
    </g>
   </g>
   <g id="matplotlib.axis_9">
    <g id="xtick_29">
     <g id="line2d_72">
      <g>
       <use style="stroke:#000000;stroke-width:0.8;" x="1497.165726" xlink:href="#med90b633b7" y="330.239063"/>
      </g>
     </g>
     <g id="text_65">
      <!-- −15 -->
      <g transform="translate(1486.613382 344.8375)scale(0.1 -0.1)">
       <use xlink:href="#DejaVuSans-8722"/>
       <use x="83.789062" xlink:href="#DejaVuSans-49"/>
       <use x="147.412109" xlink:href="#DejaVuSans-53"/>
      </g>
     </g>
    </g>
    <g id="xtick_30">
     <g id="line2d_73">
      <g>
       <use style="stroke:#000000;stroke-width:0.8;" x="1543.424341" xlink:href="#med90b633b7" y="330.239063"/>
      </g>
     </g>
     <g id="text_66">
      <!-- −10 -->
      <g transform="translate(1532.871997 344.8375)scale(0.1 -0.1)">
       <use xlink:href="#DejaVuSans-8722"/>
       <use x="83.789062" xlink:href="#DejaVuSans-49"/>
       <use x="147.412109" xlink:href="#DejaVuSans-48"/>
      </g>
     </g>
    </g>
    <g id="xtick_31">
     <g id="line2d_74">
      <g>
       <use style="stroke:#000000;stroke-width:0.8;" x="1589.682956" xlink:href="#med90b633b7" y="330.239063"/>
      </g>
     </g>
     <g id="text_67">
      <!-- −5 -->
      <g transform="translate(1582.311862 344.8375)scale(0.1 -0.1)">
       <use xlink:href="#DejaVuSans-8722"/>
       <use x="83.789062" xlink:href="#DejaVuSans-53"/>
      </g>
     </g>
    </g>
    <g id="xtick_32">
     <g id="line2d_75">
      <g>
       <use style="stroke:#000000;stroke-width:0.8;" x="1635.941571" xlink:href="#med90b633b7" y="330.239063"/>
      </g>
     </g>
     <g id="text_68">
      <!-- 0 -->
      <g transform="translate(1632.760321 344.8375)scale(0.1 -0.1)">
       <use xlink:href="#DejaVuSans-48"/>
      </g>
     </g>
    </g>
    <g id="xtick_33">
     <g id="line2d_76">
      <g>
       <use style="stroke:#000000;stroke-width:0.8;" x="1682.200186" xlink:href="#med90b633b7" y="330.239063"/>
      </g>
     </g>
     <g id="text_69">
      <!-- 5 -->
      <g transform="translate(1679.018936 344.8375)scale(0.1 -0.1)">
       <use xlink:href="#DejaVuSans-53"/>
      </g>
     </g>
    </g>
    <g id="xtick_34">
     <g id="line2d_77">
      <g>
       <use style="stroke:#000000;stroke-width:0.8;" x="1728.458801" xlink:href="#med90b633b7" y="330.239063"/>
      </g>
     </g>
     <g id="text_70">
      <!-- 10 -->
      <g transform="translate(1722.096301 344.8375)scale(0.1 -0.1)">
       <use xlink:href="#DejaVuSans-49"/>
       <use x="63.623047" xlink:href="#DejaVuSans-48"/>
      </g>
     </g>
    </g>
    <g id="xtick_35">
     <g id="line2d_78">
      <g>
       <use style="stroke:#000000;stroke-width:0.8;" x="1774.717416" xlink:href="#med90b633b7" y="330.239063"/>
      </g>
     </g>
     <g id="text_71">
      <!-- 15 -->
      <g transform="translate(1768.354916 344.8375)scale(0.1 -0.1)">
       <use xlink:href="#DejaVuSans-49"/>
       <use x="63.623047" xlink:href="#DejaVuSans-53"/>
      </g>
     </g>
    </g>
    <g id="text_72">
     <!-- spill -->
     <g transform="translate(1625.995477 358.515625)scale(0.1 -0.1)">
      <use xlink:href="#DejaVuSans-115"/>
      <use x="52.099609" xlink:href="#DejaVuSans-112"/>
      <use x="115.576172" xlink:href="#DejaVuSans-105"/>
      <use x="143.359375" xlink:href="#DejaVuSans-108"/>
      <use x="171.142578" xlink:href="#DejaVuSans-108"/>
     </g>
    </g>
   </g>
   <g id="matplotlib.axis_10">
    <g id="ytick_28">
     <g id="line2d_79">
      <g>
       <use style="stroke:#000000;stroke-width:0.8;" x="1483.288141" xlink:href="#mac0bfab51e" y="306.543223"/>
      </g>
     </g>
     <g id="text_73">
      <!-- −2.5 -->
      <g transform="translate(1452.005329 310.342442)scale(0.1 -0.1)">
       <use xlink:href="#DejaVuSans-8722"/>
       <use x="83.789062" xlink:href="#DejaVuSans-50"/>
       <use x="147.412109" xlink:href="#DejaVuSans-46"/>
       <use x="179.199219" xlink:href="#DejaVuSans-53"/>
      </g>
     </g>
    </g>
    <g id="ytick_29">
     <g id="line2d_80">
      <g>
       <use style="stroke:#000000;stroke-width:0.8;" x="1483.288141" xlink:href="#mac0bfab51e" y="254.670508"/>
      </g>
     </g>
     <g id="text_74">
      <!-- −2.0 -->
      <g transform="translate(1452.005329 258.469727)scale(0.1 -0.1)">
       <use xlink:href="#DejaVuSans-8722"/>
       <use x="83.789062" xlink:href="#DejaVuSans-50"/>
       <use x="147.412109" xlink:href="#DejaVuSans-46"/>
       <use x="179.199219" xlink:href="#DejaVuSans-48"/>
      </g>
     </g>
    </g>
    <g id="ytick_30">
     <g id="line2d_81">
      <g>
       <use style="stroke:#000000;stroke-width:0.8;" x="1483.288141" xlink:href="#mac0bfab51e" y="202.797794"/>
      </g>
     </g>
     <g id="text_75">
      <!-- −1.5 -->
      <g transform="translate(1452.005329 206.597012)scale(0.1 -0.1)">
       <use xlink:href="#DejaVuSans-8722"/>
       <use x="83.789062" xlink:href="#DejaVuSans-49"/>
       <use x="147.412109" xlink:href="#DejaVuSans-46"/>
       <use x="179.199219" xlink:href="#DejaVuSans-53"/>
      </g>
     </g>
    </g>
    <g id="ytick_31">
     <g id="line2d_82">
      <g>
       <use style="stroke:#000000;stroke-width:0.8;" x="1483.288141" xlink:href="#mac0bfab51e" y="150.925079"/>
      </g>
     </g>
     <g id="text_76">
      <!-- −1.0 -->
      <g transform="translate(1452.005329 154.724298)scale(0.1 -0.1)">
       <use xlink:href="#DejaVuSans-8722"/>
       <use x="83.789062" xlink:href="#DejaVuSans-49"/>
       <use x="147.412109" xlink:href="#DejaVuSans-46"/>
       <use x="179.199219" xlink:href="#DejaVuSans-48"/>
      </g>
     </g>
    </g>
    <g id="ytick_32">
     <g id="line2d_83">
      <g>
       <use style="stroke:#000000;stroke-width:0.8;" x="1483.288141" xlink:href="#mac0bfab51e" y="99.052364"/>
      </g>
     </g>
     <g id="text_77">
      <!-- −0.5 -->
      <g transform="translate(1452.005329 102.851583)scale(0.1 -0.1)">
       <use xlink:href="#DejaVuSans-8722"/>
       <use x="83.789062" xlink:href="#DejaVuSans-48"/>
       <use x="147.412109" xlink:href="#DejaVuSans-46"/>
       <use x="179.199219" xlink:href="#DejaVuSans-53"/>
      </g>
     </g>
    </g>
    <g id="ytick_33">
     <g id="line2d_84">
      <g>
       <use style="stroke:#000000;stroke-width:0.8;" x="1483.288141" xlink:href="#mac0bfab51e" y="47.17965"/>
      </g>
     </g>
     <g id="text_78">
      <!-- 0.0 -->
      <g transform="translate(1460.385016 50.978868)scale(0.1 -0.1)">
       <use xlink:href="#DejaVuSans-48"/>
       <use x="63.623047" xlink:href="#DejaVuSans-46"/>
       <use x="95.410156" xlink:href="#DejaVuSans-48"/>
      </g>
     </g>
    </g>
   </g>
   <g id="line2d_85">
    <path clip-path="url(#pab57ee2aed)" d="M 1631.315709 282.986215 
L 1640.567432 282.986215 
" style="fill:none;stroke:#edd1cb;stroke-linecap:square;stroke-width:1.5;"/>
   </g>
   <g id="line2d_86">
    <path clip-path="url(#pab57ee2aed)" d="M 1561.927787 286.214293 
L 1571.17951 278.732547 
L 1580.431233 289.461811 
L 1589.682956 293.25963 
L 1598.934679 285.456971 
L 1608.186402 295.663474 
L 1617.438125 274.272837 
L 1626.689848 279.231335 
L 1635.941571 283.372615 
L 1645.193294 273.632902 
L 1654.445017 263.541812 
L 1663.69674 275.764094 
L 1672.948463 264.113336 
L 1682.200186 261.663831 
L 1691.451909 260.19216 
L 1700.703632 245.692854 
L 1709.955355 244.085854 
" style="fill:none;stroke:#a9678f;stroke-linecap:square;stroke-width:1.5;"/>
   </g>
   <g id="line2d_87">
    <path clip-path="url(#pab57ee2aed)" d="M 1497.165726 307.285617 
L 1506.417449 307.624544 
L 1515.669172 311.640454 
L 1524.920895 314.442579 
L 1534.172618 309.031786 
L 1543.424341 315.248604 
L 1552.676064 310.001398 
L 1561.927787 301.016017 
L 1571.17951 303.591786 
L 1580.431233 293.286698 
L 1589.682956 306.416448 
L 1598.934679 289.975445 
L 1608.186402 292.273139 
L 1617.438125 290.131973 
L 1626.689848 281.704881 
L 1635.941571 286.453583 
L 1645.193294 284.111084 
L 1654.445017 272.078927 
L 1663.69674 270.229947 
L 1672.948463 263.656647 
L 1682.200186 256.779619 
L 1691.451909 253.025705 
L 1700.703632 249.123735 
L 1709.955355 224.931056 
L 1719.207078 220.140408 
L 1728.458801 191.826685 
L 1737.710524 193.249502 
L 1746.962247 178.81816 
L 1756.21397 150.167486 
L 1765.465693 120.35049 
L 1774.717416 75.695656 
" style="fill:none;stroke:#2d1e3e;stroke-linecap:square;stroke-width:1.5;"/>
   </g>
   <g id="patch_15">
    <path d="M 1483.288141 330.239063 
L 1483.288141 36.839063 
" style="fill:none;stroke:#000000;stroke-linecap:square;stroke-linejoin:miter;stroke-width:0.8;"/>
   </g>
   <g id="patch_16">
    <path d="M 1483.288141 330.239063 
L 1788.595 330.239063 
" style="fill:none;stroke:#000000;stroke-linecap:square;stroke-linejoin:miter;stroke-width:0.8;"/>
   </g>
   <g id="text_79">
    <!-- loss = feat -->
    <defs>
     <path d="M 56.203125 29.59375 
L 56.203125 25.203125 
L 14.890625 25.203125 
Q 15.484375 15.921875 20.484375 11.0625 
Q 25.484375 6.203125 34.421875 6.203125 
Q 39.59375 6.203125 44.453125 7.46875 
Q 49.3125 8.734375 54.109375 11.28125 
L 54.109375 2.78125 
Q 49.265625 0.734375 44.1875 -0.34375 
Q 39.109375 -1.421875 33.890625 -1.421875 
Q 20.796875 -1.421875 13.15625 6.1875 
Q 5.515625 13.8125 5.515625 26.8125 
Q 5.515625 40.234375 12.765625 48.109375 
Q 20.015625 56 32.328125 56 
Q 43.359375 56 49.78125 48.890625 
Q 56.203125 41.796875 56.203125 29.59375 
z
M 47.21875 32.234375 
Q 47.125 39.59375 43.09375 43.984375 
Q 39.0625 48.390625 32.421875 48.390625 
Q 24.90625 48.390625 20.390625 44.140625 
Q 15.875 39.890625 15.1875 32.171875 
z
" id="DejaVuSans-101"/>
    </defs>
    <g transform="translate(1609.054852 30.839063)scale(0.1 -0.1)">
     <use xlink:href="#DejaVuSans-108"/>
     <use x="27.783203" xlink:href="#DejaVuSans-111"/>
     <use x="88.964844" xlink:href="#DejaVuSans-115"/>
     <use x="141.064453" xlink:href="#DejaVuSans-115"/>
     <use x="193.164062" xlink:href="#DejaVuSans-32"/>
     <use x="224.951172" xlink:href="#DejaVuSans-61"/>
     <use x="308.740234" xlink:href="#DejaVuSans-32"/>
     <use x="340.527344" xlink:href="#DejaVuSans-102"/>
     <use x="375.732422" xlink:href="#DejaVuSans-101"/>
     <use x="437.255859" xlink:href="#DejaVuSans-97"/>
     <use x="498.535156" xlink:href="#DejaVuSans-116"/>
    </g>
   </g>
  </g>
  <g id="text_80">
   <g id="patch_17">
    <path d="M 3.2 20.878125 
L 105.020313 20.878125 
L 105.020313 3.2 
L 3.2 3.2 
z
" style="fill:none;stroke:#8b0000;stroke-linejoin:miter;"/>
   </g>
   <!-- dataset = pubmed -->
   <defs>
    <path d="M 8.5 21.578125 
L 8.5 54.6875 
L 17.484375 54.6875 
L 17.484375 21.921875 
Q 17.484375 14.15625 20.5 10.265625 
Q 23.53125 6.390625 29.59375 6.390625 
Q 36.859375 6.390625 41.078125 11.03125 
Q 45.3125 15.671875 45.3125 23.6875 
L 45.3125 54.6875 
L 54.296875 54.6875 
L 54.296875 0 
L 45.3125 0 
L 45.3125 8.40625 
Q 42.046875 3.421875 37.71875 1 
Q 33.40625 -1.421875 27.6875 -1.421875 
Q 18.265625 -1.421875 13.375 4.4375 
Q 8.5 10.296875 8.5 21.578125 
z
M 31.109375 56 
z
" id="DejaVuSans-117"/>
    <path d="M 48.6875 27.296875 
Q 48.6875 37.203125 44.609375 42.84375 
Q 40.53125 48.484375 33.40625 48.484375 
Q 26.265625 48.484375 22.1875 42.84375 
Q 18.109375 37.203125 18.109375 27.296875 
Q 18.109375 17.390625 22.1875 11.75 
Q 26.265625 6.109375 33.40625 6.109375 
Q 40.53125 6.109375 44.609375 11.75 
Q 48.6875 17.390625 48.6875 27.296875 
z
M 18.109375 46.390625 
Q 20.953125 51.265625 25.265625 53.625 
Q 29.59375 56 35.59375 56 
Q 45.5625 56 51.78125 48.09375 
Q 58.015625 40.1875 58.015625 27.296875 
Q 58.015625 14.40625 51.78125 6.484375 
Q 45.5625 -1.421875 35.59375 -1.421875 
Q 29.59375 -1.421875 25.265625 0.953125 
Q 20.953125 3.328125 18.109375 8.203125 
L 18.109375 0 
L 9.078125 0 
L 9.078125 75.984375 
L 18.109375 75.984375 
z
" id="DejaVuSans-98"/>
   </defs>
   <g style="fill:#8b0000;" transform="translate(7.2 14.798437)scale(0.1 -0.1)">
    <use xlink:href="#DejaVuSans-100"/>
    <use x="63.476562" xlink:href="#DejaVuSans-97"/>
    <use x="124.755859" xlink:href="#DejaVuSans-116"/>
    <use x="163.964844" xlink:href="#DejaVuSans-97"/>
    <use x="225.244141" xlink:href="#DejaVuSans-115"/>
    <use x="277.34375" xlink:href="#DejaVuSans-101"/>
    <use x="338.867188" xlink:href="#DejaVuSans-116"/>
    <use x="378.076172" xlink:href="#DejaVuSans-32"/>
    <use x="409.863281" xlink:href="#DejaVuSans-61"/>
    <use x="493.652344" xlink:href="#DejaVuSans-32"/>
    <use x="525.439453" xlink:href="#DejaVuSans-112"/>
    <use x="588.916016" xlink:href="#DejaVuSans-117"/>
    <use x="652.294922" xlink:href="#DejaVuSans-98"/>
    <use x="715.771484" xlink:href="#DejaVuSans-109"/>
    <use x="813.183594" xlink:href="#DejaVuSans-101"/>
    <use x="874.707031" xlink:href="#DejaVuSans-100"/>
   </g>
  </g>
  <g id="legend_1">
   <g id="line2d_88">
    <path d="M 1808.45625 161.129688 
L 1828.45625 161.129688 
" style="fill:none;"/>
   </g>
   <g id="line2d_89"/>
   <g id="text_81">
    <!-- dimξ -->
    <defs>
     <path d="M 35.640625 6.203125 
Q 42.09375 6.15625 45.953125 2.484375 
Q 50.046875 -1.375 50.046875 -7.234375 
Q 50.046875 -12.84375 46.4375 -16.75 
Q 42.53125 -21 34.578125 -21 
Q 34.578125 -17.328125 34.578125 -13.625 
Q 37.9375 -13.875 39.984375 -11.71875 
Q 41.546875 -10.015625 41.546875 -8.203125 
Q 41.546875 -5.609375 39.984375 -3.46875 
Q 38.484375 -1.421875 35.640625 -1.421875 
Q 5.21875 -1.421875 5.21875 19.921875 
Q 5.21875 34.578125 21.484375 38.875 
Q 7.8125 40.625 7.8125 53.328125 
Q 7.8125 62.9375 18.5625 66.9375 
L 8.40625 66.9375 
L 8.40625 75.984375 
L 46.921875 75.984375 
L 46.921875 66.9375 
Q 16.21875 66.9375 16.21875 52.734375 
Q 16.21875 43.40625 42 42.96875 
L 42 34.671875 
Q 14.15625 35.75 14.265625 19.921875 
Q 14.3125 6.6875 35.640625 6.203125 
z
" id="DejaVuSans-958"/>
    </defs>
    <g transform="translate(1836.45625 164.629688)scale(0.1 -0.1)">
     <use xlink:href="#DejaVuSans-100"/>
     <use x="63.476562" xlink:href="#DejaVuSans-105"/>
     <use x="91.259766" xlink:href="#DejaVuSans-109"/>
     <use x="188.671875" xlink:href="#DejaVuSans-958"/>
    </g>
   </g>
   <g id="line2d_90">
    <path d="M 1808.45625 175.828125 
L 1828.45625 175.828125 
" style="fill:none;stroke:#edd1cb;stroke-linecap:square;stroke-width:1.5;"/>
   </g>
   <g id="line2d_91"/>
   <g id="text_82">
    <!-- 16 -->
    <g transform="translate(1836.45625 179.328125)scale(0.1 -0.1)">
     <use xlink:href="#DejaVuSans-49"/>
     <use x="63.623047" xlink:href="#DejaVuSans-54"/>
    </g>
   </g>
   <g id="line2d_92">
    <path d="M 1808.45625 190.50625 
L 1828.45625 190.50625 
" style="fill:none;stroke:#a9678f;stroke-linecap:square;stroke-width:1.5;"/>
   </g>
   <g id="line2d_93"/>
   <g id="text_83">
    <!-- 24 -->
    <g transform="translate(1836.45625 194.00625)scale(0.1 -0.1)">
     <use xlink:href="#DejaVuSans-50"/>
     <use x="63.623047" xlink:href="#DejaVuSans-52"/>
    </g>
   </g>
   <g id="line2d_94">
    <path d="M 1808.45625 205.184375 
L 1828.45625 205.184375 
" style="fill:none;stroke:#2d1e3e;stroke-linecap:square;stroke-width:1.5;"/>
   </g>
   <g id="line2d_95"/>
   <g id="text_84">
    <!-- 32 -->
    <g transform="translate(1836.45625 208.684375)scale(0.1 -0.1)">
     <use xlink:href="#DejaVuSans-51"/>
     <use x="63.623047" xlink:href="#DejaVuSans-50"/>
    </g>
   </g>
  </g>
 </g>
 <defs>
  <clipPath id="p0ede662862">
   <rect height="293.4" width="305.306859" x="63.066681" y="36.839063"/>
  </clipPath>
  <clipPath id="p09c34ddff1">
   <rect height="293.4" width="305.306859" x="418.122046" y="36.839063"/>
  </clipPath>
  <clipPath id="p0ae0ab9885">
   <rect height="293.4" width="305.306859" x="773.177411" y="36.839063"/>
  </clipPath>
  <clipPath id="p4321767c9b">
   <rect height="293.4" width="305.306859" x="1128.232776" y="36.839063"/>
  </clipPath>
  <clipPath id="pab57ee2aed">
   <rect height="293.4" width="305.306859" x="1483.288141" y="36.839063"/>
  </clipPath>
 </defs>
</svg>
