<?xml version="1.0" encoding="utf-8" standalone="no"?>
<!DOCTYPE svg PUBLIC "-//W3C//DTD SVG 1.1//EN"
  "http://www.w3.org/Graphics/SVG/1.1/DTD/svg11.dtd">
<!-- Created with matplotlib (https://matplotlib.org/) -->
<svg height="367.795313pt" version="1.1" viewBox="0 0 1869.9 367.795313" width="1869.9pt" xmlns="http://www.w3.org/2000/svg" xmlns:xlink="http://www.w3.org/1999/xlink">
 <defs>
  <style type="text/css">
*{stroke-linecap:butt;stroke-linejoin:round;}
  </style>
 </defs>
 <g id="figure_1">
  <g id="patch_1">
   <path d="M 0 367.795313 
L 1869.9 367.795313 
L 1869.9 0 
L 0 0 
z
" style="fill:#ffffff;"/>
  </g>
  <g id="axes_1">
   <g id="patch_2">
    <path d="M 63.066681 330.239063 
L 371.76152 330.239063 
L 371.76152 36.839063 
L 63.066681 36.839063 
z
" style="fill:#ffffff;"/>
   </g>
   <g id="PolyCollection_1">
    <defs>
     <path d="M 212.736906 -307.114333 
L 212.736906 -289.904621 
L 222.091295 -290.261502 
L 222.091295 -306.835001 
L 222.091295 -306.835001 
L 212.736906 -307.114333 
z
" id="mdcf677ce19" style="stroke:#edd1cb;stroke-opacity:0.2;"/>
    </defs>
    <g clip-path="url(#p4bfde9fd93)">
     <use style="fill:#edd1cb;fill-opacity:0.2;stroke:#edd1cb;stroke-opacity:0.2;" x="0" xlink:href="#mdcf677ce19" y="367.795313"/>
    </g>
   </g>
   <g id="PolyCollection_2">
    <defs>
     <path d="M 142.578988 -309.319765 
L 142.578988 -295.548165 
L 151.933377 -288.02444 
L 161.287766 -289.494404 
L 170.642155 -281.672159 
L 179.996544 -291.663284 
L 189.350933 -291.990109 
L 198.705322 -287.643792 
L 208.059711 -296.95151 
L 217.4141 -305.982224 
L 226.768489 -297.423563 
L 236.122878 -293.253561 
L 245.477267 -306.272978 
L 254.831656 -298.455354 
L 264.186045 -292.44557 
L 273.540434 -296.349701 
L 282.894824 -291.052571 
L 292.249213 -298.885598 
L 292.249213 -308.800291 
L 292.249213 -308.800291 
L 282.894824 -310.889902 
L 273.540434 -315.088116 
L 264.186045 -310.979971 
L 254.831656 -312.938794 
L 245.477267 -314.636586 
L 236.122878 -309.751717 
L 226.768489 -305.874433 
L 217.4141 -317.619886 
L 208.059711 -307.693339 
L 198.705322 -312.394323 
L 189.350933 -308.64038 
L 179.996544 -303.235591 
L 170.642155 -298.678263 
L 161.287766 -302.477306 
L 151.933377 -303.083878 
L 142.578988 -309.319765 
z
" id="m207ffbbcb3" style="stroke:#a9678f;stroke-opacity:0.2;"/>
    </defs>
    <g clip-path="url(#p4bfde9fd93)">
     <use style="fill:#a9678f;fill-opacity:0.2;stroke:#a9678f;stroke-opacity:0.2;" x="0" xlink:href="#m207ffbbcb3" y="367.795313"/>
    </g>
   </g>
   <g id="PolyCollection_3">
    <defs>
     <path d="M 77.098264 -77.745637 
L 77.098264 -50.892614 
L 86.452653 -206.818679 
L 95.807042 -231.950752 
L 105.161431 -240.131886 
L 114.51582 -259.936095 
L 123.870209 -263.238751 
L 133.224599 -258.244393 
L 142.578988 -266.547578 
L 151.933377 -261.292467 
L 161.287766 -270.128097 
L 170.642155 -276.135693 
L 179.996544 -274.006006 
L 189.350933 -275.231099 
L 198.705322 -277.532992 
L 208.059711 -283.837157 
L 217.4141 -269.075966 
L 226.768489 -278.187399 
L 236.122878 -279.498226 
L 245.477267 -275.376147 
L 254.831656 -282.662936 
L 264.186045 -275.018553 
L 273.540434 -282.83897 
L 282.894824 -291.966296 
L 292.249213 -280.176474 
L 301.603602 -291.110631 
L 310.957991 -282.280633 
L 320.31238 -284.326674 
L 329.666769 -272.739443 
L 339.021158 -280.066389 
L 348.375547 -280.353189 
L 357.729936 -279.600653 
L 357.729936 -302.889595 
L 357.729936 -302.889595 
L 348.375547 -295.308231 
L 339.021158 -291.55407 
L 329.666769 -299.024775 
L 320.31238 -294.543793 
L 310.957991 -302.967277 
L 301.603602 -302.176927 
L 292.249213 -306.79355 
L 282.894824 -303.925475 
L 273.540434 -295.915997 
L 264.186045 -291.708158 
L 254.831656 -295.10656 
L 245.477267 -295.493336 
L 236.122878 -295.059071 
L 226.768489 -289.667069 
L 217.4141 -287.874832 
L 208.059711 -296.874548 
L 198.705322 -287.493781 
L 189.350933 -291.471226 
L 179.996544 -292.08206 
L 170.642155 -291.350338 
L 161.287766 -282.61844 
L 151.933377 -273.190863 
L 142.578988 -282.849449 
L 133.224599 -277.523354 
L 123.870209 -280.626539 
L 114.51582 -272.421985 
L 105.161431 -259.760495 
L 95.807042 -249.399011 
L 86.452653 -223.716031 
L 77.098264 -77.745637 
z
" id="mdb8e9c3043" style="stroke:#2d1e3e;stroke-opacity:0.2;"/>
    </defs>
    <g clip-path="url(#p4bfde9fd93)">
     <use style="fill:#2d1e3e;fill-opacity:0.2;stroke:#2d1e3e;stroke-opacity:0.2;" x="0" xlink:href="#mdb8e9c3043" y="367.795313"/>
    </g>
   </g>
   <g id="matplotlib.axis_1">
    <g id="xtick_1">
     <g id="line2d_1">
      <defs>
       <path d="M 0 0 
L 0 3.5 
" id="m7679115a8a" style="stroke:#000000;stroke-width:0.8;"/>
      </defs>
      <g>
       <use style="stroke:#000000;stroke-width:0.8;" x="77.098264" xlink:href="#m7679115a8a" y="330.239063"/>
      </g>
     </g>
     <g id="text_1">
      <!-- −15 -->
      <defs>
       <path d="M 10.59375 35.5 
L 73.1875 35.5 
L 73.1875 27.203125 
L 10.59375 27.203125 
z
" id="DejaVuSans-8722"/>
       <path d="M 12.40625 8.296875 
L 28.515625 8.296875 
L 28.515625 63.921875 
L 10.984375 60.40625 
L 10.984375 69.390625 
L 28.421875 72.90625 
L 38.28125 72.90625 
L 38.28125 8.296875 
L 54.390625 8.296875 
L 54.390625 0 
L 12.40625 0 
z
" id="DejaVuSans-49"/>
       <path d="M 10.796875 72.90625 
L 49.515625 72.90625 
L 49.515625 64.59375 
L 19.828125 64.59375 
L 19.828125 46.734375 
Q 21.96875 47.46875 24.109375 47.828125 
Q 26.265625 48.1875 28.421875 48.1875 
Q 40.625 48.1875 47.75 41.5 
Q 54.890625 34.8125 54.890625 23.390625 
Q 54.890625 11.625 47.5625 5.09375 
Q 40.234375 -1.421875 26.90625 -1.421875 
Q 22.3125 -1.421875 17.546875 -0.640625 
Q 12.796875 0.140625 7.71875 1.703125 
L 7.71875 11.625 
Q 12.109375 9.234375 16.796875 8.0625 
Q 21.484375 6.890625 26.703125 6.890625 
Q 35.15625 6.890625 40.078125 11.328125 
Q 45.015625 15.765625 45.015625 23.390625 
Q 45.015625 31 40.078125 35.4375 
Q 35.15625 39.890625 26.703125 39.890625 
Q 22.75 39.890625 18.8125 39.015625 
Q 14.890625 38.140625 10.796875 36.28125 
z
" id="DejaVuSans-53"/>
      </defs>
      <g transform="translate(66.54592 344.8375)scale(0.1 -0.1)">
       <use xlink:href="#DejaVuSans-8722"/>
       <use x="83.789062" xlink:href="#DejaVuSans-49"/>
       <use x="147.412109" xlink:href="#DejaVuSans-53"/>
      </g>
     </g>
    </g>
    <g id="xtick_2">
     <g id="line2d_2">
      <g>
       <use style="stroke:#000000;stroke-width:0.8;" x="123.870209" xlink:href="#m7679115a8a" y="330.239063"/>
      </g>
     </g>
     <g id="text_2">
      <!-- −10 -->
      <defs>
       <path d="M 31.78125 66.40625 
Q 24.171875 66.40625 20.328125 58.90625 
Q 16.5 51.421875 16.5 36.375 
Q 16.5 21.390625 20.328125 13.890625 
Q 24.171875 6.390625 31.78125 6.390625 
Q 39.453125 6.390625 43.28125 13.890625 
Q 47.125 21.390625 47.125 36.375 
Q 47.125 51.421875 43.28125 58.90625 
Q 39.453125 66.40625 31.78125 66.40625 
z
M 31.78125 74.21875 
Q 44.046875 74.21875 50.515625 64.515625 
Q 56.984375 54.828125 56.984375 36.375 
Q 56.984375 17.96875 50.515625 8.265625 
Q 44.046875 -1.421875 31.78125 -1.421875 
Q 19.53125 -1.421875 13.0625 8.265625 
Q 6.59375 17.96875 6.59375 36.375 
Q 6.59375 54.828125 13.0625 64.515625 
Q 19.53125 74.21875 31.78125 74.21875 
z
" id="DejaVuSans-48"/>
      </defs>
      <g transform="translate(113.317866 344.8375)scale(0.1 -0.1)">
       <use xlink:href="#DejaVuSans-8722"/>
       <use x="83.789062" xlink:href="#DejaVuSans-49"/>
       <use x="147.412109" xlink:href="#DejaVuSans-48"/>
      </g>
     </g>
    </g>
    <g id="xtick_3">
     <g id="line2d_3">
      <g>
       <use style="stroke:#000000;stroke-width:0.8;" x="170.642155" xlink:href="#m7679115a8a" y="330.239063"/>
      </g>
     </g>
     <g id="text_3">
      <!-- −5 -->
      <g transform="translate(163.271061 344.8375)scale(0.1 -0.1)">
       <use xlink:href="#DejaVuSans-8722"/>
       <use x="83.789062" xlink:href="#DejaVuSans-53"/>
      </g>
     </g>
    </g>
    <g id="xtick_4">
     <g id="line2d_4">
      <g>
       <use style="stroke:#000000;stroke-width:0.8;" x="217.4141" xlink:href="#m7679115a8a" y="330.239063"/>
      </g>
     </g>
     <g id="text_4">
      <!-- 0 -->
      <g transform="translate(214.23285 344.8375)scale(0.1 -0.1)">
       <use xlink:href="#DejaVuSans-48"/>
      </g>
     </g>
    </g>
    <g id="xtick_5">
     <g id="line2d_5">
      <g>
       <use style="stroke:#000000;stroke-width:0.8;" x="264.186045" xlink:href="#m7679115a8a" y="330.239063"/>
      </g>
     </g>
     <g id="text_5">
      <!-- 5 -->
      <g transform="translate(261.004795 344.8375)scale(0.1 -0.1)">
       <use xlink:href="#DejaVuSans-53"/>
      </g>
     </g>
    </g>
    <g id="xtick_6">
     <g id="line2d_6">
      <g>
       <use style="stroke:#000000;stroke-width:0.8;" x="310.957991" xlink:href="#m7679115a8a" y="330.239063"/>
      </g>
     </g>
     <g id="text_6">
      <!-- 10 -->
      <g transform="translate(304.595491 344.8375)scale(0.1 -0.1)">
       <use xlink:href="#DejaVuSans-49"/>
       <use x="63.623047" xlink:href="#DejaVuSans-48"/>
      </g>
     </g>
    </g>
    <g id="xtick_7">
     <g id="line2d_7">
      <g>
       <use style="stroke:#000000;stroke-width:0.8;" x="357.729936" xlink:href="#m7679115a8a" y="330.239063"/>
      </g>
     </g>
     <g id="text_7">
      <!-- 15 -->
      <g transform="translate(351.367436 344.8375)scale(0.1 -0.1)">
       <use xlink:href="#DejaVuSans-49"/>
       <use x="63.623047" xlink:href="#DejaVuSans-53"/>
      </g>
     </g>
    </g>
    <g id="text_8">
     <!-- spill -->
     <defs>
      <path d="M 44.28125 53.078125 
L 44.28125 44.578125 
Q 40.484375 46.53125 36.375 47.5 
Q 32.28125 48.484375 27.875 48.484375 
Q 21.1875 48.484375 17.84375 46.4375 
Q 14.5 44.390625 14.5 40.28125 
Q 14.5 37.15625 16.890625 35.375 
Q 19.28125 33.59375 26.515625 31.984375 
L 29.59375 31.296875 
Q 39.15625 29.25 43.1875 25.515625 
Q 47.21875 21.78125 47.21875 15.09375 
Q 47.21875 7.46875 41.1875 3.015625 
Q 35.15625 -1.421875 24.609375 -1.421875 
Q 20.21875 -1.421875 15.453125 -0.5625 
Q 10.6875 0.296875 5.421875 2 
L 5.421875 11.28125 
Q 10.40625 8.6875 15.234375 7.390625 
Q 20.0625 6.109375 24.8125 6.109375 
Q 31.15625 6.109375 34.5625 8.28125 
Q 37.984375 10.453125 37.984375 14.40625 
Q 37.984375 18.0625 35.515625 20.015625 
Q 33.0625 21.96875 24.703125 23.78125 
L 21.578125 24.515625 
Q 13.234375 26.265625 9.515625 29.90625 
Q 5.8125 33.546875 5.8125 39.890625 
Q 5.8125 47.609375 11.28125 51.796875 
Q 16.75 56 26.8125 56 
Q 31.78125 56 36.171875 55.265625 
Q 40.578125 54.546875 44.28125 53.078125 
z
" id="DejaVuSans-115"/>
      <path d="M 18.109375 8.203125 
L 18.109375 -20.796875 
L 9.078125 -20.796875 
L 9.078125 54.6875 
L 18.109375 54.6875 
L 18.109375 46.390625 
Q 20.953125 51.265625 25.265625 53.625 
Q 29.59375 56 35.59375 56 
Q 45.5625 56 51.78125 48.09375 
Q 58.015625 40.1875 58.015625 27.296875 
Q 58.015625 14.40625 51.78125 6.484375 
Q 45.5625 -1.421875 35.59375 -1.421875 
Q 29.59375 -1.421875 25.265625 0.953125 
Q 20.953125 3.328125 18.109375 8.203125 
z
M 48.6875 27.296875 
Q 48.6875 37.203125 44.609375 42.84375 
Q 40.53125 48.484375 33.40625 48.484375 
Q 26.265625 48.484375 22.1875 42.84375 
Q 18.109375 37.203125 18.109375 27.296875 
Q 18.109375 17.390625 22.1875 11.75 
Q 26.265625 6.109375 33.40625 6.109375 
Q 40.53125 6.109375 44.609375 11.75 
Q 48.6875 17.390625 48.6875 27.296875 
z
" id="DejaVuSans-112"/>
      <path d="M 9.421875 54.6875 
L 18.40625 54.6875 
L 18.40625 0 
L 9.421875 0 
z
M 9.421875 75.984375 
L 18.40625 75.984375 
L 18.40625 64.59375 
L 9.421875 64.59375 
z
" id="DejaVuSans-105"/>
      <path d="M 9.421875 75.984375 
L 18.40625 75.984375 
L 18.40625 0 
L 9.421875 0 
z
" id="DejaVuSans-108"/>
     </defs>
     <g transform="translate(207.468006 358.515625)scale(0.1 -0.1)">
      <use xlink:href="#DejaVuSans-115"/>
      <use x="52.099609" xlink:href="#DejaVuSans-112"/>
      <use x="115.576172" xlink:href="#DejaVuSans-105"/>
      <use x="143.359375" xlink:href="#DejaVuSans-108"/>
      <use x="171.142578" xlink:href="#DejaVuSans-108"/>
     </g>
    </g>
   </g>
   <g id="matplotlib.axis_2">
    <g id="ytick_1">
     <g id="line2d_8">
      <defs>
       <path d="M 0 0 
L -3.5 0 
" id="m46cb13775b" style="stroke:#000000;stroke-width:0.8;"/>
      </defs>
      <g>
       <use style="stroke:#000000;stroke-width:0.8;" x="63.066681" xlink:href="#m46cb13775b" y="283.387768"/>
      </g>
     </g>
     <g id="text_9">
      <!-- 0.86 -->
      <defs>
       <path d="M 10.6875 12.40625 
L 21 12.40625 
L 21 0 
L 10.6875 0 
z
" id="DejaVuSans-46"/>
       <path d="M 31.78125 34.625 
Q 24.75 34.625 20.71875 30.859375 
Q 16.703125 27.09375 16.703125 20.515625 
Q 16.703125 13.921875 20.71875 10.15625 
Q 24.75 6.390625 31.78125 6.390625 
Q 38.8125 6.390625 42.859375 10.171875 
Q 46.921875 13.96875 46.921875 20.515625 
Q 46.921875 27.09375 42.890625 30.859375 
Q 38.875 34.625 31.78125 34.625 
z
M 21.921875 38.8125 
Q 15.578125 40.375 12.03125 44.71875 
Q 8.5 49.078125 8.5 55.328125 
Q 8.5 64.0625 14.71875 69.140625 
Q 20.953125 74.21875 31.78125 74.21875 
Q 42.671875 74.21875 48.875 69.140625 
Q 55.078125 64.0625 55.078125 55.328125 
Q 55.078125 49.078125 51.53125 44.71875 
Q 48 40.375 41.703125 38.8125 
Q 48.828125 37.15625 52.796875 32.3125 
Q 56.78125 27.484375 56.78125 20.515625 
Q 56.78125 9.90625 50.3125 4.234375 
Q 43.84375 -1.421875 31.78125 -1.421875 
Q 19.734375 -1.421875 13.25 4.234375 
Q 6.78125 9.90625 6.78125 20.515625 
Q 6.78125 27.484375 10.78125 32.3125 
Q 14.796875 37.15625 21.921875 38.8125 
z
M 18.3125 54.390625 
Q 18.3125 48.734375 21.84375 45.5625 
Q 25.390625 42.390625 31.78125 42.390625 
Q 38.140625 42.390625 41.71875 45.5625 
Q 45.3125 48.734375 45.3125 54.390625 
Q 45.3125 60.0625 41.71875 63.234375 
Q 38.140625 66.40625 31.78125 66.40625 
Q 25.390625 66.40625 21.84375 63.234375 
Q 18.3125 60.0625 18.3125 54.390625 
z
" id="DejaVuSans-56"/>
       <path d="M 33.015625 40.375 
Q 26.375 40.375 22.484375 35.828125 
Q 18.609375 31.296875 18.609375 23.390625 
Q 18.609375 15.53125 22.484375 10.953125 
Q 26.375 6.390625 33.015625 6.390625 
Q 39.65625 6.390625 43.53125 10.953125 
Q 47.40625 15.53125 47.40625 23.390625 
Q 47.40625 31.296875 43.53125 35.828125 
Q 39.65625 40.375 33.015625 40.375 
z
M 52.59375 71.296875 
L 52.59375 62.3125 
Q 48.875 64.0625 45.09375 64.984375 
Q 41.3125 65.921875 37.59375 65.921875 
Q 27.828125 65.921875 22.671875 59.328125 
Q 17.53125 52.734375 16.796875 39.40625 
Q 19.671875 43.65625 24.015625 45.921875 
Q 28.375 48.1875 33.59375 48.1875 
Q 44.578125 48.1875 50.953125 41.515625 
Q 57.328125 34.859375 57.328125 23.390625 
Q 57.328125 12.15625 50.6875 5.359375 
Q 44.046875 -1.421875 33.015625 -1.421875 
Q 20.359375 -1.421875 13.671875 8.265625 
Q 6.984375 17.96875 6.984375 36.375 
Q 6.984375 53.65625 15.1875 63.9375 
Q 23.390625 74.21875 37.203125 74.21875 
Q 40.921875 74.21875 44.703125 73.484375 
Q 48.484375 72.75 52.59375 71.296875 
z
" id="DejaVuSans-54"/>
      </defs>
      <g transform="translate(33.801056 287.186987)scale(0.1 -0.1)">
       <use xlink:href="#DejaVuSans-48"/>
       <use x="63.623047" xlink:href="#DejaVuSans-46"/>
       <use x="95.410156" xlink:href="#DejaVuSans-56"/>
       <use x="159.033203" xlink:href="#DejaVuSans-54"/>
      </g>
     </g>
    </g>
    <g id="ytick_2">
     <g id="line2d_9">
      <g>
       <use style="stroke:#000000;stroke-width:0.8;" x="63.066681" xlink:href="#m46cb13775b" y="224.364235"/>
      </g>
     </g>
     <g id="text_10">
      <!-- 0.88 -->
      <g transform="translate(33.801056 228.163454)scale(0.1 -0.1)">
       <use xlink:href="#DejaVuSans-48"/>
       <use x="63.623047" xlink:href="#DejaVuSans-46"/>
       <use x="95.410156" xlink:href="#DejaVuSans-56"/>
       <use x="159.033203" xlink:href="#DejaVuSans-56"/>
      </g>
     </g>
    </g>
    <g id="ytick_3">
     <g id="line2d_10">
      <g>
       <use style="stroke:#000000;stroke-width:0.8;" x="63.066681" xlink:href="#m46cb13775b" y="165.340702"/>
      </g>
     </g>
     <g id="text_11">
      <!-- 0.90 -->
      <defs>
       <path d="M 10.984375 1.515625 
L 10.984375 10.5 
Q 14.703125 8.734375 18.5 7.8125 
Q 22.3125 6.890625 25.984375 6.890625 
Q 35.75 6.890625 40.890625 13.453125 
Q 46.046875 20.015625 46.78125 33.40625 
Q 43.953125 29.203125 39.59375 26.953125 
Q 35.25 24.703125 29.984375 24.703125 
Q 19.046875 24.703125 12.671875 31.3125 
Q 6.296875 37.9375 6.296875 49.421875 
Q 6.296875 60.640625 12.9375 67.421875 
Q 19.578125 74.21875 30.609375 74.21875 
Q 43.265625 74.21875 49.921875 64.515625 
Q 56.59375 54.828125 56.59375 36.375 
Q 56.59375 19.140625 48.40625 8.859375 
Q 40.234375 -1.421875 26.421875 -1.421875 
Q 22.703125 -1.421875 18.890625 -0.6875 
Q 15.09375 0.046875 10.984375 1.515625 
z
M 30.609375 32.421875 
Q 37.25 32.421875 41.125 36.953125 
Q 45.015625 41.5 45.015625 49.421875 
Q 45.015625 57.28125 41.125 61.84375 
Q 37.25 66.40625 30.609375 66.40625 
Q 23.96875 66.40625 20.09375 61.84375 
Q 16.21875 57.28125 16.21875 49.421875 
Q 16.21875 41.5 20.09375 36.953125 
Q 23.96875 32.421875 30.609375 32.421875 
z
" id="DejaVuSans-57"/>
      </defs>
      <g transform="translate(33.801056 169.139921)scale(0.1 -0.1)">
       <use xlink:href="#DejaVuSans-48"/>
       <use x="63.623047" xlink:href="#DejaVuSans-46"/>
       <use x="95.410156" xlink:href="#DejaVuSans-57"/>
       <use x="159.033203" xlink:href="#DejaVuSans-48"/>
      </g>
     </g>
    </g>
    <g id="ytick_4">
     <g id="line2d_11">
      <g>
       <use style="stroke:#000000;stroke-width:0.8;" x="63.066681" xlink:href="#m46cb13775b" y="106.317169"/>
      </g>
     </g>
     <g id="text_12">
      <!-- 0.92 -->
      <defs>
       <path d="M 19.1875 8.296875 
L 53.609375 8.296875 
L 53.609375 0 
L 7.328125 0 
L 7.328125 8.296875 
Q 12.9375 14.109375 22.625 23.890625 
Q 32.328125 33.6875 34.8125 36.53125 
Q 39.546875 41.84375 41.421875 45.53125 
Q 43.3125 49.21875 43.3125 52.78125 
Q 43.3125 58.59375 39.234375 62.25 
Q 35.15625 65.921875 28.609375 65.921875 
Q 23.96875 65.921875 18.8125 64.3125 
Q 13.671875 62.703125 7.8125 59.421875 
L 7.8125 69.390625 
Q 13.765625 71.78125 18.9375 73 
Q 24.125 74.21875 28.421875 74.21875 
Q 39.75 74.21875 46.484375 68.546875 
Q 53.21875 62.890625 53.21875 53.421875 
Q 53.21875 48.921875 51.53125 44.890625 
Q 49.859375 40.875 45.40625 35.40625 
Q 44.1875 33.984375 37.640625 27.21875 
Q 31.109375 20.453125 19.1875 8.296875 
z
" id="DejaVuSans-50"/>
      </defs>
      <g transform="translate(33.801056 110.116388)scale(0.1 -0.1)">
       <use xlink:href="#DejaVuSans-48"/>
       <use x="63.623047" xlink:href="#DejaVuSans-46"/>
       <use x="95.410156" xlink:href="#DejaVuSans-57"/>
       <use x="159.033203" xlink:href="#DejaVuSans-50"/>
      </g>
     </g>
    </g>
    <g id="ytick_5">
     <g id="line2d_12">
      <g>
       <use style="stroke:#000000;stroke-width:0.8;" x="63.066681" xlink:href="#m46cb13775b" y="47.293636"/>
      </g>
     </g>
     <g id="text_13">
      <!-- 0.94 -->
      <defs>
       <path d="M 37.796875 64.3125 
L 12.890625 25.390625 
L 37.796875 25.390625 
z
M 35.203125 72.90625 
L 47.609375 72.90625 
L 47.609375 25.390625 
L 58.015625 25.390625 
L 58.015625 17.1875 
L 47.609375 17.1875 
L 47.609375 0 
L 37.796875 0 
L 37.796875 17.1875 
L 4.890625 17.1875 
L 4.890625 26.703125 
z
" id="DejaVuSans-52"/>
      </defs>
      <g transform="translate(33.801056 51.092855)scale(0.1 -0.1)">
       <use xlink:href="#DejaVuSans-48"/>
       <use x="63.623047" xlink:href="#DejaVuSans-46"/>
       <use x="95.410156" xlink:href="#DejaVuSans-57"/>
       <use x="159.033203" xlink:href="#DejaVuSans-52"/>
      </g>
     </g>
    </g>
    <g id="text_14">
     <!-- last -->
     <defs>
      <path d="M 34.28125 27.484375 
Q 23.390625 27.484375 19.1875 25 
Q 14.984375 22.515625 14.984375 16.5 
Q 14.984375 11.71875 18.140625 8.90625 
Q 21.296875 6.109375 26.703125 6.109375 
Q 34.1875 6.109375 38.703125 11.40625 
Q 43.21875 16.703125 43.21875 25.484375 
L 43.21875 27.484375 
z
M 52.203125 31.203125 
L 52.203125 0 
L 43.21875 0 
L 43.21875 8.296875 
Q 40.140625 3.328125 35.546875 0.953125 
Q 30.953125 -1.421875 24.3125 -1.421875 
Q 15.921875 -1.421875 10.953125 3.296875 
Q 6 8.015625 6 15.921875 
Q 6 25.140625 12.171875 29.828125 
Q 18.359375 34.515625 30.609375 34.515625 
L 43.21875 34.515625 
L 43.21875 35.40625 
Q 43.21875 41.609375 39.140625 45 
Q 35.0625 48.390625 27.6875 48.390625 
Q 23 48.390625 18.546875 47.265625 
Q 14.109375 46.140625 10.015625 43.890625 
L 10.015625 52.203125 
Q 14.9375 54.109375 19.578125 55.046875 
Q 24.21875 56 28.609375 56 
Q 40.484375 56 46.34375 49.84375 
Q 52.203125 43.703125 52.203125 31.203125 
z
" id="DejaVuSans-97"/>
      <path d="M 18.3125 70.21875 
L 18.3125 54.6875 
L 36.8125 54.6875 
L 36.8125 47.703125 
L 18.3125 47.703125 
L 18.3125 18.015625 
Q 18.3125 11.328125 20.140625 9.421875 
Q 21.96875 7.515625 27.59375 7.515625 
L 36.8125 7.515625 
L 36.8125 0 
L 27.59375 0 
Q 17.1875 0 13.234375 3.875 
Q 9.28125 7.765625 9.28125 18.015625 
L 9.28125 47.703125 
L 2.6875 47.703125 
L 2.6875 54.6875 
L 9.28125 54.6875 
L 9.28125 70.21875 
z
" id="DejaVuSans-116"/>
     </defs>
     <g transform="translate(27.721368 192.557031)rotate(-90)scale(0.1 -0.1)">
      <use xlink:href="#DejaVuSans-108"/>
      <use x="27.783203" xlink:href="#DejaVuSans-97"/>
      <use x="89.0625" xlink:href="#DejaVuSans-115"/>
      <use x="141.162109" xlink:href="#DejaVuSans-116"/>
     </g>
    </g>
   </g>
   <g id="line2d_13">
    <path clip-path="url(#p4bfde9fd93)" d="M 212.736906 69.229307 
L 222.091295 69.229307 
" style="fill:none;stroke:#edd1cb;stroke-linecap:square;stroke-width:1.5;"/>
   </g>
   <g id="line2d_14">
    <path clip-path="url(#p4bfde9fd93)" d="M 142.578988 65.274173 
L 151.933377 72.495472 
L 161.287766 71.60903 
L 170.642155 77.563303 
L 179.996544 70.126757 
L 189.350933 67.462293 
L 198.705322 65.511816 
L 208.059711 65.505114 
L 217.4141 56.394578 
L 226.768489 65.734846 
L 236.122878 65.894091 
L 245.477267 57.197965 
L 254.831656 61.912402 
L 264.186045 64.797814 
L 273.540434 62.16373 
L 282.894824 66.178587 
L 292.249213 63.598276 
" style="fill:none;stroke:#a9678f;stroke-linecap:square;stroke-width:1.5;"/>
   </g>
   <g id="line2d_15">
    <path clip-path="url(#p4bfde9fd93)" d="M 77.098264 302.951747 
L 86.452653 152.620659 
L 95.807042 127.234926 
L 105.161431 116.737508 
L 114.51582 101.702382 
L 123.870209 96.27196 
L 133.224599 99.974728 
L 142.578988 92.444225 
L 151.933377 100.675635 
L 161.287766 92.069257 
L 170.642155 84.986115 
L 179.996544 84.679236 
L 189.350933 84.086012 
L 198.705322 85.308206 
L 208.059711 77.1745 
L 217.4141 88.38801 
L 226.768489 83.738691 
L 236.122878 80.892039 
L 245.477267 80.129372 
L 254.831656 78.930749 
L 264.186045 84.407256 
L 273.540434 78.951646 
L 282.894824 69.73742 
L 292.249213 74.462458 
L 301.603602 70.523652 
L 310.957991 75.702557 
L 320.31238 78.038283 
L 329.666769 81.388288 
L 339.021158 81.754322 
L 348.375547 80.512936 
L 357.729936 75.102246 
" style="fill:none;stroke:#2d1e3e;stroke-linecap:square;stroke-width:1.5;"/>
   </g>
   <g id="line2d_16"/>
   <g id="line2d_17"/>
   <g id="line2d_18"/>
   <g id="line2d_19"/>
   <g id="patch_3">
    <path d="M 63.066681 330.239062 
L 63.066681 36.839063 
" style="fill:none;stroke:#000000;stroke-linecap:square;stroke-linejoin:miter;stroke-width:0.8;"/>
   </g>
   <g id="patch_4">
    <path d="M 63.066681 330.239063 
L 371.76152 330.239063 
" style="fill:none;stroke:#000000;stroke-linecap:square;stroke-linejoin:miter;stroke-width:0.8;"/>
   </g>
   <g id="text_15">
    <!-- loss = ap -->
    <defs>
     <path d="M 30.609375 48.390625 
Q 23.390625 48.390625 19.1875 42.75 
Q 14.984375 37.109375 14.984375 27.296875 
Q 14.984375 17.484375 19.15625 11.84375 
Q 23.34375 6.203125 30.609375 6.203125 
Q 37.796875 6.203125 41.984375 11.859375 
Q 46.1875 17.53125 46.1875 27.296875 
Q 46.1875 37.015625 41.984375 42.703125 
Q 37.796875 48.390625 30.609375 48.390625 
z
M 30.609375 56 
Q 42.328125 56 49.015625 48.375 
Q 55.71875 40.765625 55.71875 27.296875 
Q 55.71875 13.875 49.015625 6.21875 
Q 42.328125 -1.421875 30.609375 -1.421875 
Q 18.84375 -1.421875 12.171875 6.21875 
Q 5.515625 13.875 5.515625 27.296875 
Q 5.515625 40.765625 12.171875 48.375 
Q 18.84375 56 30.609375 56 
z
" id="DejaVuSans-111"/>
     <path id="DejaVuSans-32"/>
     <path d="M 10.59375 45.40625 
L 73.1875 45.40625 
L 73.1875 37.203125 
L 10.59375 37.203125 
z
M 10.59375 25.484375 
L 73.1875 25.484375 
L 73.1875 17.1875 
L 10.59375 17.1875 
z
" id="DejaVuSans-61"/>
    </defs>
    <g transform="translate(194.150038 30.839063)scale(0.1 -0.1)">
     <use xlink:href="#DejaVuSans-108"/>
     <use x="27.783203" xlink:href="#DejaVuSans-111"/>
     <use x="88.964844" xlink:href="#DejaVuSans-115"/>
     <use x="141.064453" xlink:href="#DejaVuSans-115"/>
     <use x="193.164062" xlink:href="#DejaVuSans-32"/>
     <use x="224.951172" xlink:href="#DejaVuSans-61"/>
     <use x="308.740234" xlink:href="#DejaVuSans-32"/>
     <use x="340.527344" xlink:href="#DejaVuSans-97"/>
     <use x="401.806641" xlink:href="#DejaVuSans-112"/>
    </g>
   </g>
  </g>
  <g id="axes_2">
   <g id="patch_5">
    <path d="M 417.275051 330.239063 
L 725.96989 330.239063 
L 725.96989 36.839063 
L 417.275051 36.839063 
z
" style="fill:#ffffff;"/>
   </g>
   <g id="PolyCollection_4">
    <defs>
     <path d="M 566.945276 -316.856523 
L 566.945276 -302.835434 
L 576.299665 -303.790528 
L 576.299665 -317.619886 
L 576.299665 -317.619886 
L 566.945276 -316.856523 
z
" id="md884f94d59" style="stroke:#edd1cb;stroke-opacity:0.2;"/>
    </defs>
    <g clip-path="url(#pc8eedec99a)">
     <use style="fill:#edd1cb;fill-opacity:0.2;stroke:#edd1cb;stroke-opacity:0.2;" x="0" xlink:href="#md884f94d59" y="367.795313"/>
    </g>
   </g>
   <g id="PolyCollection_5">
    <defs>
     <path d="M 496.787358 -307.914083 
L 496.787358 -292.813286 
L 506.141747 -280.702442 
L 515.496136 -281.976526 
L 524.850525 -275.158143 
L 534.204914 -278.23824 
L 543.559303 -282.025786 
L 552.913692 -281.909426 
L 562.268081 -289.954318 
L 571.62247 -296.277526 
L 580.976859 -286.206139 
L 590.331248 -285.583902 
L 599.685637 -297.18251 
L 609.040026 -287.524637 
L 618.394415 -281.628296 
L 627.748805 -288.095475 
L 637.103194 -280.365904 
L 646.457583 -290.427478 
L 646.457583 -301.728449 
L 646.457583 -301.728449 
L 637.103194 -304.124676 
L 627.748805 -307.628449 
L 618.394415 -300.479478 
L 609.040026 -303.974221 
L 599.685637 -308.730097 
L 590.331248 -304.16831 
L 580.976859 -297.967412 
L 571.62247 -310.302563 
L 562.268081 -301.010016 
L 552.913692 -306.043539 
L 543.559303 -301.405851 
L 534.204914 -295.3439 
L 524.850525 -291.090169 
L 515.496136 -294.464008 
L 506.141747 -298.162952 
L 496.787358 -307.914083 
z
" id="ma6ec8421bf" style="stroke:#a9678f;stroke-opacity:0.2;"/>
    </defs>
    <g clip-path="url(#pc8eedec99a)">
     <use style="fill:#a9678f;fill-opacity:0.2;stroke:#a9678f;stroke-opacity:0.2;" x="0" xlink:href="#ma6ec8421bf" y="367.795313"/>
    </g>
   </g>
   <g id="PolyCollection_6">
    <defs>
     <path d="M 431.306634 -79.330699 
L 431.306634 -50.892614 
L 440.661023 -190.452196 
L 450.015412 -204.652349 
L 459.369801 -217.028487 
L 468.72419 -236.636642 
L 478.07858 -241.148227 
L 487.432969 -231.060157 
L 496.787358 -247.091465 
L 506.141747 -236.168508 
L 515.496136 -247.237297 
L 524.850525 -253.264341 
L 534.204914 -253.541148 
L 543.559303 -255.342623 
L 552.913692 -255.950524 
L 562.268081 -264.452288 
L 571.62247 -246.960628 
L 580.976859 -255.36458 
L 590.331248 -258.141941 
L 599.685637 -258.647896 
L 609.040026 -263.762252 
L 618.394415 -252.532224 
L 627.748805 -262.950816 
L 637.103194 -273.7998 
L 646.457583 -259.440994 
L 655.811972 -271.37042 
L 665.166361 -264.516987 
L 674.52075 -264.239156 
L 683.875139 -252.841162 
L 693.229528 -259.422439 
L 702.583917 -260.71774 
L 711.938306 -262.225736 
L 711.938306 -288.073134 
L 711.938306 -288.073134 
L 702.583917 -279.154548 
L 693.229528 -274.621228 
L 683.875139 -285.102223 
L 674.52075 -276.636021 
L 665.166361 -285.654162 
L 655.811972 -284.009067 
L 646.457583 -291.278224 
L 637.103194 -287.34982 
L 627.748805 -277.194573 
L 618.394415 -273.755192 
L 609.040026 -277.506413 
L 599.685637 -279.262898 
L 590.331248 -279.79446 
L 580.976859 -272.098081 
L 571.62247 -267.644784 
L 562.268081 -280.851654 
L 552.913692 -266.193464 
L 543.559303 -271.242569 
L 534.204914 -273.464771 
L 524.850525 -270.464526 
L 515.496136 -261.457993 
L 506.141747 -251.732173 
L 496.787358 -265.251173 
L 487.432969 -256.206136 
L 478.07858 -261.483868 
L 468.72419 -255.003907 
L 459.369801 -240.106086 
L 450.015412 -228.226713 
L 440.661023 -210.944487 
L 431.306634 -79.330699 
z
" id="m2c13004e94" style="stroke:#2d1e3e;stroke-opacity:0.2;"/>
    </defs>
    <g clip-path="url(#pc8eedec99a)">
     <use style="fill:#2d1e3e;fill-opacity:0.2;stroke:#2d1e3e;stroke-opacity:0.2;" x="0" xlink:href="#m2c13004e94" y="367.795313"/>
    </g>
   </g>
   <g id="matplotlib.axis_3">
    <g id="xtick_8">
     <g id="line2d_20">
      <g>
       <use style="stroke:#000000;stroke-width:0.8;" x="431.306634" xlink:href="#m7679115a8a" y="330.239063"/>
      </g>
     </g>
     <g id="text_16">
      <!-- −15 -->
      <g transform="translate(420.75429 344.8375)scale(0.1 -0.1)">
       <use xlink:href="#DejaVuSans-8722"/>
       <use x="83.789062" xlink:href="#DejaVuSans-49"/>
       <use x="147.412109" xlink:href="#DejaVuSans-53"/>
      </g>
     </g>
    </g>
    <g id="xtick_9">
     <g id="line2d_21">
      <g>
       <use style="stroke:#000000;stroke-width:0.8;" x="478.07858" xlink:href="#m7679115a8a" y="330.239063"/>
      </g>
     </g>
     <g id="text_17">
      <!-- −10 -->
      <g transform="translate(467.526236 344.8375)scale(0.1 -0.1)">
       <use xlink:href="#DejaVuSans-8722"/>
       <use x="83.789062" xlink:href="#DejaVuSans-49"/>
       <use x="147.412109" xlink:href="#DejaVuSans-48"/>
      </g>
     </g>
    </g>
    <g id="xtick_10">
     <g id="line2d_22">
      <g>
       <use style="stroke:#000000;stroke-width:0.8;" x="524.850525" xlink:href="#m7679115a8a" y="330.239063"/>
      </g>
     </g>
     <g id="text_18">
      <!-- −5 -->
      <g transform="translate(517.479431 344.8375)scale(0.1 -0.1)">
       <use xlink:href="#DejaVuSans-8722"/>
       <use x="83.789062" xlink:href="#DejaVuSans-53"/>
      </g>
     </g>
    </g>
    <g id="xtick_11">
     <g id="line2d_23">
      <g>
       <use style="stroke:#000000;stroke-width:0.8;" x="571.62247" xlink:href="#m7679115a8a" y="330.239063"/>
      </g>
     </g>
     <g id="text_19">
      <!-- 0 -->
      <g transform="translate(568.44122 344.8375)scale(0.1 -0.1)">
       <use xlink:href="#DejaVuSans-48"/>
      </g>
     </g>
    </g>
    <g id="xtick_12">
     <g id="line2d_24">
      <g>
       <use style="stroke:#000000;stroke-width:0.8;" x="618.394415" xlink:href="#m7679115a8a" y="330.239063"/>
      </g>
     </g>
     <g id="text_20">
      <!-- 5 -->
      <g transform="translate(615.213165 344.8375)scale(0.1 -0.1)">
       <use xlink:href="#DejaVuSans-53"/>
      </g>
     </g>
    </g>
    <g id="xtick_13">
     <g id="line2d_25">
      <g>
       <use style="stroke:#000000;stroke-width:0.8;" x="665.166361" xlink:href="#m7679115a8a" y="330.239063"/>
      </g>
     </g>
     <g id="text_21">
      <!-- 10 -->
      <g transform="translate(658.803861 344.8375)scale(0.1 -0.1)">
       <use xlink:href="#DejaVuSans-49"/>
       <use x="63.623047" xlink:href="#DejaVuSans-48"/>
      </g>
     </g>
    </g>
    <g id="xtick_14">
     <g id="line2d_26">
      <g>
       <use style="stroke:#000000;stroke-width:0.8;" x="711.938306" xlink:href="#m7679115a8a" y="330.239063"/>
      </g>
     </g>
     <g id="text_22">
      <!-- 15 -->
      <g transform="translate(705.575806 344.8375)scale(0.1 -0.1)">
       <use xlink:href="#DejaVuSans-49"/>
       <use x="63.623047" xlink:href="#DejaVuSans-53"/>
      </g>
     </g>
    </g>
    <g id="text_23">
     <!-- spill -->
     <g transform="translate(561.676376 358.515625)scale(0.1 -0.1)">
      <use xlink:href="#DejaVuSans-115"/>
      <use x="52.099609" xlink:href="#DejaVuSans-112"/>
      <use x="115.576172" xlink:href="#DejaVuSans-105"/>
      <use x="143.359375" xlink:href="#DejaVuSans-108"/>
      <use x="171.142578" xlink:href="#DejaVuSans-108"/>
     </g>
    </g>
   </g>
   <g id="matplotlib.axis_4">
    <g id="ytick_6">
     <g id="line2d_27">
      <g>
       <use style="stroke:#000000;stroke-width:0.8;" x="417.275051" xlink:href="#m46cb13775b" y="292.600306"/>
      </g>
     </g>
     <g id="text_24">
      <!-- 0.84 -->
      <g transform="translate(388.009426 296.399525)scale(0.1 -0.1)">
       <use xlink:href="#DejaVuSans-48"/>
       <use x="63.623047" xlink:href="#DejaVuSans-46"/>
       <use x="95.410156" xlink:href="#DejaVuSans-56"/>
       <use x="159.033203" xlink:href="#DejaVuSans-52"/>
      </g>
     </g>
    </g>
    <g id="ytick_7">
     <g id="line2d_28">
      <g>
       <use style="stroke:#000000;stroke-width:0.8;" x="417.275051" xlink:href="#m46cb13775b" y="238.619023"/>
      </g>
     </g>
     <g id="text_25">
      <!-- 0.86 -->
      <g transform="translate(388.009426 242.418242)scale(0.1 -0.1)">
       <use xlink:href="#DejaVuSans-48"/>
       <use x="63.623047" xlink:href="#DejaVuSans-46"/>
       <use x="95.410156" xlink:href="#DejaVuSans-56"/>
       <use x="159.033203" xlink:href="#DejaVuSans-54"/>
      </g>
     </g>
    </g>
    <g id="ytick_8">
     <g id="line2d_29">
      <g>
       <use style="stroke:#000000;stroke-width:0.8;" x="417.275051" xlink:href="#m46cb13775b" y="184.63774"/>
      </g>
     </g>
     <g id="text_26">
      <!-- 0.88 -->
      <g transform="translate(388.009426 188.436959)scale(0.1 -0.1)">
       <use xlink:href="#DejaVuSans-48"/>
       <use x="63.623047" xlink:href="#DejaVuSans-46"/>
       <use x="95.410156" xlink:href="#DejaVuSans-56"/>
       <use x="159.033203" xlink:href="#DejaVuSans-56"/>
      </g>
     </g>
    </g>
    <g id="ytick_9">
     <g id="line2d_30">
      <g>
       <use style="stroke:#000000;stroke-width:0.8;" x="417.275051" xlink:href="#m46cb13775b" y="130.656457"/>
      </g>
     </g>
     <g id="text_27">
      <!-- 0.90 -->
      <g transform="translate(388.009426 134.455676)scale(0.1 -0.1)">
       <use xlink:href="#DejaVuSans-48"/>
       <use x="63.623047" xlink:href="#DejaVuSans-46"/>
       <use x="95.410156" xlink:href="#DejaVuSans-57"/>
       <use x="159.033203" xlink:href="#DejaVuSans-48"/>
      </g>
     </g>
    </g>
    <g id="ytick_10">
     <g id="line2d_31">
      <g>
       <use style="stroke:#000000;stroke-width:0.8;" x="417.275051" xlink:href="#m46cb13775b" y="76.675174"/>
      </g>
     </g>
     <g id="text_28">
      <!-- 0.92 -->
      <g transform="translate(388.009426 80.474393)scale(0.1 -0.1)">
       <use xlink:href="#DejaVuSans-48"/>
       <use x="63.623047" xlink:href="#DejaVuSans-46"/>
       <use x="95.410156" xlink:href="#DejaVuSans-57"/>
       <use x="159.033203" xlink:href="#DejaVuSans-50"/>
      </g>
     </g>
    </g>
   </g>
   <g id="line2d_32">
    <path clip-path="url(#pc8eedec99a)" d="M 566.945276 57.872907 
L 576.299665 57.872907 
" style="fill:none;stroke:#edd1cb;stroke-linecap:square;stroke-width:1.5;"/>
   </g>
   <g id="line2d_33">
    <path clip-path="url(#pc8eedec99a)" d="M 496.787358 67.472496 
L 506.141747 79.245396 
L 515.496136 79.086647 
L 524.850525 84.991968 
L 534.204914 80.091428 
L 543.559303 75.803171 
L 552.913692 72.644259 
L 562.268081 72.577401 
L 571.62247 64.636144 
L 580.976859 75.304009 
L 590.331248 72.629477 
L 599.685637 64.381522 
L 609.040026 71.88779 
L 618.394415 75.922005 
L 627.748805 70.119298 
L 637.103194 75.008475 
L 646.457583 71.608013 
" style="fill:none;stroke:#a9678f;stroke-linecap:square;stroke-width:1.5;"/>
   </g>
   <g id="line2d_34">
    <path clip-path="url(#pc8eedec99a)" d="M 431.306634 302.969282 
L 440.661023 166.839431 
L 450.015412 151.273002 
L 459.369801 138.288093 
L 468.72419 121.717748 
L 478.07858 116.626179 
L 487.432969 124.138117 
L 496.787358 111.537666 
L 506.141747 123.54018 
L 515.496136 113.928467 
L 524.850525 105.94554 
L 534.204914 103.847346 
L 543.559303 104.001101 
L 552.913692 106.645223 
L 562.268081 94.879868 
L 571.62247 110.122954 
L 580.976859 103.822626 
L 590.331248 98.445753 
L 599.685637 96.923672 
L 609.040026 97.225217 
L 618.394415 104.70587 
L 627.748805 97.979827 
L 637.103194 87.067605 
L 646.457583 91.914565 
L 655.811972 89.709886 
L 665.166361 92.870037 
L 674.52075 96.660891 
L 683.875139 98.744315 
L 693.229528 101.406993 
L 702.583917 98.426084 
L 711.938306 91.300936 
" style="fill:none;stroke:#2d1e3e;stroke-linecap:square;stroke-width:1.5;"/>
   </g>
   <g id="patch_6">
    <path d="M 417.275051 330.239062 
L 417.275051 36.839062 
" style="fill:none;stroke:#000000;stroke-linecap:square;stroke-linejoin:miter;stroke-width:0.8;"/>
   </g>
   <g id="patch_7">
    <path d="M 417.275051 330.239063 
L 725.96989 330.239063 
" style="fill:none;stroke:#000000;stroke-linecap:square;stroke-linejoin:miter;stroke-width:0.8;"/>
   </g>
   <g id="text_29">
    <!-- loss = auc -->
    <defs>
     <path d="M 8.5 21.578125 
L 8.5 54.6875 
L 17.484375 54.6875 
L 17.484375 21.921875 
Q 17.484375 14.15625 20.5 10.265625 
Q 23.53125 6.390625 29.59375 6.390625 
Q 36.859375 6.390625 41.078125 11.03125 
Q 45.3125 15.671875 45.3125 23.6875 
L 45.3125 54.6875 
L 54.296875 54.6875 
L 54.296875 0 
L 45.3125 0 
L 45.3125 8.40625 
Q 42.046875 3.421875 37.71875 1 
Q 33.40625 -1.421875 27.6875 -1.421875 
Q 18.265625 -1.421875 13.375 4.4375 
Q 8.5 10.296875 8.5 21.578125 
z
M 31.109375 56 
z
" id="DejaVuSans-117"/>
     <path d="M 48.78125 52.59375 
L 48.78125 44.1875 
Q 44.96875 46.296875 41.140625 47.34375 
Q 37.3125 48.390625 33.40625 48.390625 
Q 24.65625 48.390625 19.8125 42.84375 
Q 14.984375 37.3125 14.984375 27.296875 
Q 14.984375 17.28125 19.8125 11.734375 
Q 24.65625 6.203125 33.40625 6.203125 
Q 37.3125 6.203125 41.140625 7.25 
Q 44.96875 8.296875 48.78125 10.40625 
L 48.78125 2.09375 
Q 45.015625 0.34375 40.984375 -0.53125 
Q 36.96875 -1.421875 32.421875 -1.421875 
Q 20.0625 -1.421875 12.78125 6.34375 
Q 5.515625 14.109375 5.515625 27.296875 
Q 5.515625 40.671875 12.859375 48.328125 
Q 20.21875 56 33.015625 56 
Q 37.15625 56 41.109375 55.140625 
Q 45.0625 54.296875 48.78125 52.59375 
z
" id="DejaVuSans-99"/>
    </defs>
    <g transform="translate(545.614658 30.839063)scale(0.1 -0.1)">
     <use xlink:href="#DejaVuSans-108"/>
     <use x="27.783203" xlink:href="#DejaVuSans-111"/>
     <use x="88.964844" xlink:href="#DejaVuSans-115"/>
     <use x="141.064453" xlink:href="#DejaVuSans-115"/>
     <use x="193.164062" xlink:href="#DejaVuSans-32"/>
     <use x="224.951172" xlink:href="#DejaVuSans-61"/>
     <use x="308.740234" xlink:href="#DejaVuSans-32"/>
     <use x="340.527344" xlink:href="#DejaVuSans-97"/>
     <use x="401.806641" xlink:href="#DejaVuSans-117"/>
     <use x="465.185547" xlink:href="#DejaVuSans-99"/>
    </g>
   </g>
  </g>
  <g id="axes_3">
   <g id="patch_8">
    <path d="M 771.483421 330.239063 
L 1080.17826 330.239063 
L 1080.17826 36.839063 
L 771.483421 36.839063 
z
" style="fill:#ffffff;"/>
   </g>
   <g id="PolyCollection_7">
    <defs>
     <path d="M 921.153646 -124.320486 
L 921.153646 -98.083895 
L 930.508035 -99.675072 
L 930.508035 -125.726187 
L 930.508035 -125.726187 
L 921.153646 -124.320486 
z
" id="md0a1d253b9" style="stroke:#edd1cb;stroke-opacity:0.2;"/>
    </defs>
    <g clip-path="url(#p3471224e22)">
     <use style="fill:#edd1cb;fill-opacity:0.2;stroke:#edd1cb;stroke-opacity:0.2;" x="0" xlink:href="#md0a1d253b9" y="367.795313"/>
    </g>
   </g>
   <g id="PolyCollection_8">
    <defs>
     <path d="M 850.995728 -92.057963 
L 850.995728 -82.955643 
L 860.350117 -83.213428 
L 869.704506 -83.144949 
L 879.058895 -65.797635 
L 888.413284 -69.922232 
L 897.767673 -70.407798 
L 907.122062 -72.520864 
L 916.476451 -77.521564 
L 925.83084 -86.860636 
L 935.185229 -79.799525 
L 944.539618 -75.985201 
L 953.894007 -78.050173 
L 963.248397 -93.128043 
L 972.602786 -74.993837 
L 981.957175 -88.465477 
L 991.311564 -87.194068 
L 1000.665953 -94.488994 
L 1000.665953 -115.247377 
L 1000.665953 -115.247377 
L 991.311564 -114.281649 
L 981.957175 -106.637954 
L 972.602786 -102.261104 
L 963.248397 -131.458865 
L 953.894007 -100.395006 
L 944.539618 -93.332777 
L 935.185229 -111.025463 
L 925.83084 -118.933866 
L 916.476451 -118.153934 
L 907.122062 -100.344355 
L 897.767673 -90.974317 
L 888.413284 -95.623657 
L 879.058895 -83.40014 
L 869.704506 -97.061886 
L 860.350117 -98.298204 
L 850.995728 -92.057963 
z
" id="me8d63dfc04" style="stroke:#a9678f;stroke-opacity:0.2;"/>
    </defs>
    <g clip-path="url(#p3471224e22)">
     <use style="fill:#a9678f;fill-opacity:0.2;stroke:#a9678f;stroke-opacity:0.2;" x="0" xlink:href="#me8d63dfc04" y="367.795313"/>
    </g>
   </g>
   <g id="PolyCollection_9">
    <defs>
     <path d="M 785.515004 -125.0736 
L 785.515004 -109.635323 
L 794.869393 -81.58886 
L 804.223782 -73.897265 
L 813.578172 -57.857847 
L 822.932561 -59.057518 
L 832.28695 -64.496372 
L 841.641339 -50.892614 
L 850.995728 -53.511186 
L 860.350117 -65.088298 
L 869.704506 -63.454753 
L 879.058895 -65.000525 
L 888.413284 -70.595856 
L 897.767673 -53.755981 
L 907.122062 -58.41199 
L 916.476451 -63.742502 
L 925.83084 -72.333563 
L 935.185229 -74.992279 
L 944.539618 -71.969855 
L 953.894007 -78.387473 
L 963.248397 -84.67252 
L 972.602786 -84.366246 
L 981.957175 -87.984124 
L 991.311564 -90.197934 
L 1000.665953 -99.434188 
L 1010.020342 -107.589818 
L 1019.374731 -128.877053 
L 1028.72912 -146.648119 
L 1038.083509 -137.806455 
L 1047.437898 -166.517455 
L 1056.792287 -206.62176 
L 1066.146676 -272.376582 
L 1066.146676 -317.619886 
L 1066.146676 -317.619886 
L 1056.792287 -239.732342 
L 1047.437898 -204.89742 
L 1038.083509 -168.805516 
L 1028.72912 -190.731536 
L 1019.374731 -147.944321 
L 1010.020342 -131.666333 
L 1000.665953 -113.286425 
L 991.311564 -129.67137 
L 981.957175 -109.895815 
L 972.602786 -131.291782 
L 963.248397 -104.473049 
L 953.894007 -93.146148 
L 944.539618 -97.062418 
L 935.185229 -86.50408 
L 925.83084 -92.388848 
L 916.476451 -76.419998 
L 907.122062 -78.646899 
L 897.767673 -66.32351 
L 888.413284 -94.916502 
L 879.058895 -77.334077 
L 869.704506 -76.659409 
L 860.350117 -79.323575 
L 850.995728 -77.409186 
L 841.641339 -63.32944 
L 832.28695 -86.991855 
L 822.932561 -79.270914 
L 813.578172 -78.590602 
L 804.223782 -93.594078 
L 794.869393 -102.118508 
L 785.515004 -125.0736 
z
" id="m3ee80d4782" style="stroke:#2d1e3e;stroke-opacity:0.2;"/>
    </defs>
    <g clip-path="url(#p3471224e22)">
     <use style="fill:#2d1e3e;fill-opacity:0.2;stroke:#2d1e3e;stroke-opacity:0.2;" x="0" xlink:href="#m3ee80d4782" y="367.795313"/>
    </g>
   </g>
   <g id="matplotlib.axis_5">
    <g id="xtick_15">
     <g id="line2d_35">
      <g>
       <use style="stroke:#000000;stroke-width:0.8;" x="785.515004" xlink:href="#m7679115a8a" y="330.239063"/>
      </g>
     </g>
     <g id="text_30">
      <!-- −15 -->
      <g transform="translate(774.962661 344.8375)scale(0.1 -0.1)">
       <use xlink:href="#DejaVuSans-8722"/>
       <use x="83.789062" xlink:href="#DejaVuSans-49"/>
       <use x="147.412109" xlink:href="#DejaVuSans-53"/>
      </g>
     </g>
    </g>
    <g id="xtick_16">
     <g id="line2d_36">
      <g>
       <use style="stroke:#000000;stroke-width:0.8;" x="832.28695" xlink:href="#m7679115a8a" y="330.239063"/>
      </g>
     </g>
     <g id="text_31">
      <!-- −10 -->
      <g transform="translate(821.734606 344.8375)scale(0.1 -0.1)">
       <use xlink:href="#DejaVuSans-8722"/>
       <use x="83.789062" xlink:href="#DejaVuSans-49"/>
       <use x="147.412109" xlink:href="#DejaVuSans-48"/>
      </g>
     </g>
    </g>
    <g id="xtick_17">
     <g id="line2d_37">
      <g>
       <use style="stroke:#000000;stroke-width:0.8;" x="879.058895" xlink:href="#m7679115a8a" y="330.239063"/>
      </g>
     </g>
     <g id="text_32">
      <!-- −5 -->
      <g transform="translate(871.687801 344.8375)scale(0.1 -0.1)">
       <use xlink:href="#DejaVuSans-8722"/>
       <use x="83.789062" xlink:href="#DejaVuSans-53"/>
      </g>
     </g>
    </g>
    <g id="xtick_18">
     <g id="line2d_38">
      <g>
       <use style="stroke:#000000;stroke-width:0.8;" x="925.83084" xlink:href="#m7679115a8a" y="330.239063"/>
      </g>
     </g>
     <g id="text_33">
      <!-- 0 -->
      <g transform="translate(922.64959 344.8375)scale(0.1 -0.1)">
       <use xlink:href="#DejaVuSans-48"/>
      </g>
     </g>
    </g>
    <g id="xtick_19">
     <g id="line2d_39">
      <g>
       <use style="stroke:#000000;stroke-width:0.8;" x="972.602786" xlink:href="#m7679115a8a" y="330.239063"/>
      </g>
     </g>
     <g id="text_34">
      <!-- 5 -->
      <g transform="translate(969.421536 344.8375)scale(0.1 -0.1)">
       <use xlink:href="#DejaVuSans-53"/>
      </g>
     </g>
    </g>
    <g id="xtick_20">
     <g id="line2d_40">
      <g>
       <use style="stroke:#000000;stroke-width:0.8;" x="1019.374731" xlink:href="#m7679115a8a" y="330.239063"/>
      </g>
     </g>
     <g id="text_35">
      <!-- 10 -->
      <g transform="translate(1013.012231 344.8375)scale(0.1 -0.1)">
       <use xlink:href="#DejaVuSans-49"/>
       <use x="63.623047" xlink:href="#DejaVuSans-48"/>
      </g>
     </g>
    </g>
    <g id="xtick_21">
     <g id="line2d_41">
      <g>
       <use style="stroke:#000000;stroke-width:0.8;" x="1066.146676" xlink:href="#m7679115a8a" y="330.239063"/>
      </g>
     </g>
     <g id="text_36">
      <!-- 15 -->
      <g transform="translate(1059.784176 344.8375)scale(0.1 -0.1)">
       <use xlink:href="#DejaVuSans-49"/>
       <use x="63.623047" xlink:href="#DejaVuSans-53"/>
      </g>
     </g>
    </g>
    <g id="text_37">
     <!-- spill -->
     <g transform="translate(915.884747 358.515625)scale(0.1 -0.1)">
      <use xlink:href="#DejaVuSans-115"/>
      <use x="52.099609" xlink:href="#DejaVuSans-112"/>
      <use x="115.576172" xlink:href="#DejaVuSans-105"/>
      <use x="143.359375" xlink:href="#DejaVuSans-108"/>
      <use x="171.142578" xlink:href="#DejaVuSans-108"/>
     </g>
    </g>
   </g>
   <g id="matplotlib.axis_6">
    <g id="ytick_11">
     <g id="line2d_42">
      <g>
       <use style="stroke:#000000;stroke-width:0.8;" x="771.483421" xlink:href="#m46cb13775b" y="287.522223"/>
      </g>
     </g>
     <g id="text_38">
      <!-- −2.0 -->
      <g transform="translate(740.200608 291.321441)scale(0.1 -0.1)">
       <use xlink:href="#DejaVuSans-8722"/>
       <use x="83.789062" xlink:href="#DejaVuSans-50"/>
       <use x="147.412109" xlink:href="#DejaVuSans-46"/>
       <use x="179.199219" xlink:href="#DejaVuSans-48"/>
      </g>
     </g>
    </g>
    <g id="ytick_12">
     <g id="line2d_43">
      <g>
       <use style="stroke:#000000;stroke-width:0.8;" x="771.483421" xlink:href="#m46cb13775b" y="240.324536"/>
      </g>
     </g>
     <g id="text_39">
      <!-- −1.5 -->
      <g transform="translate(740.200608 244.123755)scale(0.1 -0.1)">
       <use xlink:href="#DejaVuSans-8722"/>
       <use x="83.789062" xlink:href="#DejaVuSans-49"/>
       <use x="147.412109" xlink:href="#DejaVuSans-46"/>
       <use x="179.199219" xlink:href="#DejaVuSans-53"/>
      </g>
     </g>
    </g>
    <g id="ytick_13">
     <g id="line2d_44">
      <g>
       <use style="stroke:#000000;stroke-width:0.8;" x="771.483421" xlink:href="#m46cb13775b" y="193.12685"/>
      </g>
     </g>
     <g id="text_40">
      <!-- −1.0 -->
      <g transform="translate(740.200608 196.926068)scale(0.1 -0.1)">
       <use xlink:href="#DejaVuSans-8722"/>
       <use x="83.789062" xlink:href="#DejaVuSans-49"/>
       <use x="147.412109" xlink:href="#DejaVuSans-46"/>
       <use x="179.199219" xlink:href="#DejaVuSans-48"/>
      </g>
     </g>
    </g>
    <g id="ytick_14">
     <g id="line2d_45">
      <g>
       <use style="stroke:#000000;stroke-width:0.8;" x="771.483421" xlink:href="#m46cb13775b" y="145.929163"/>
      </g>
     </g>
     <g id="text_41">
      <!-- −0.5 -->
      <g transform="translate(740.200608 149.728382)scale(0.1 -0.1)">
       <use xlink:href="#DejaVuSans-8722"/>
       <use x="83.789062" xlink:href="#DejaVuSans-48"/>
       <use x="147.412109" xlink:href="#DejaVuSans-46"/>
       <use x="179.199219" xlink:href="#DejaVuSans-53"/>
      </g>
     </g>
    </g>
    <g id="ytick_15">
     <g id="line2d_46">
      <g>
       <use style="stroke:#000000;stroke-width:0.8;" x="771.483421" xlink:href="#m46cb13775b" y="98.731477"/>
      </g>
     </g>
     <g id="text_42">
      <!-- 0.0 -->
      <g transform="translate(748.580296 102.530695)scale(0.1 -0.1)">
       <use xlink:href="#DejaVuSans-48"/>
       <use x="63.623047" xlink:href="#DejaVuSans-46"/>
       <use x="95.410156" xlink:href="#DejaVuSans-48"/>
      </g>
     </g>
    </g>
    <g id="ytick_16">
     <g id="line2d_47">
      <g>
       <use style="stroke:#000000;stroke-width:0.8;" x="771.483421" xlink:href="#m46cb13775b" y="51.53379"/>
      </g>
     </g>
     <g id="text_43">
      <!-- 0.5 -->
      <g transform="translate(748.580296 55.333009)scale(0.1 -0.1)">
       <use xlink:href="#DejaVuSans-48"/>
       <use x="63.623047" xlink:href="#DejaVuSans-46"/>
       <use x="95.410156" xlink:href="#DejaVuSans-53"/>
      </g>
     </g>
    </g>
   </g>
   <g id="line2d_48">
    <path clip-path="url(#p3471224e22)" d="M 921.153646 256.388607 
L 930.508035 256.388607 
" style="fill:none;stroke:#edd1cb;stroke-linecap:square;stroke-width:1.5;"/>
   </g>
   <g id="line2d_49">
    <path clip-path="url(#p3471224e22)" d="M 850.995728 280.634489 
L 860.350117 277.430889 
L 869.704506 278.316315 
L 879.058895 293.596971 
L 888.413284 286.561222 
L 897.767673 288.281336 
L 907.122062 282.805347 
L 916.476451 271.57873 
L 925.83084 265.897993 
L 935.185229 273.042862 
L 944.539618 282.945841 
L 953.894007 279.392501 
L 963.248397 257.513953 
L 972.602786 280.400369 
L 981.957175 269.301228 
L 991.311564 266.664251 
L 1000.665953 264.011478 
" style="fill:none;stroke:#a9678f;stroke-linecap:square;stroke-width:1.5;"/>
   </g>
   <g id="line2d_50">
    <path clip-path="url(#p3471224e22)" d="M 785.515004 250.555641 
L 794.869393 276.652762 
L 804.223782 284.605553 
L 813.578172 300.536557 
L 822.932561 298.413895 
L 832.28695 292.523621 
L 841.641339 310.918367 
L 850.995728 304.246305 
L 860.350117 296.475887 
L 869.704506 297.992299 
L 879.058895 296.735489 
L 888.413284 286.93948 
L 897.767673 308.15073 
L 907.122062 300.158075 
L 916.476451 297.612911 
L 925.83084 286.351995 
L 935.185229 287.279758 
L 944.539618 282.840212 
L 953.894007 282.927068 
L 963.248397 273.592028 
L 972.602786 263.78327 
L 981.957175 269.345146 
L 991.311564 260.862934 
L 1000.665953 262.075346 
L 1010.020342 248.034995 
L 1019.374731 230.043733 
L 1028.72912 200.510561 
L 1038.083509 213.919163 
L 1047.437898 183.534116 
L 1056.792287 144.891202 
L 1066.146676 73.503497 
" style="fill:none;stroke:#2d1e3e;stroke-linecap:square;stroke-width:1.5;"/>
   </g>
   <g id="patch_9">
    <path d="M 771.483421 330.239063 
L 771.483421 36.839063 
" style="fill:none;stroke:#000000;stroke-linecap:square;stroke-linejoin:miter;stroke-width:0.8;"/>
   </g>
   <g id="patch_10">
    <path d="M 771.483421 330.239063 
L 1080.17826 330.239063 
" style="fill:none;stroke:#000000;stroke-linecap:square;stroke-linejoin:miter;stroke-width:0.8;"/>
   </g>
   <g id="text_44">
    <!-- loss = total loss -->
    <g transform="translate(886.125372 30.839063)scale(0.1 -0.1)">
     <use xlink:href="#DejaVuSans-108"/>
     <use x="27.783203" xlink:href="#DejaVuSans-111"/>
     <use x="88.964844" xlink:href="#DejaVuSans-115"/>
     <use x="141.064453" xlink:href="#DejaVuSans-115"/>
     <use x="193.164062" xlink:href="#DejaVuSans-32"/>
     <use x="224.951172" xlink:href="#DejaVuSans-61"/>
     <use x="308.740234" xlink:href="#DejaVuSans-32"/>
     <use x="340.527344" xlink:href="#DejaVuSans-116"/>
     <use x="379.736328" xlink:href="#DejaVuSans-111"/>
     <use x="440.917969" xlink:href="#DejaVuSans-116"/>
     <use x="480.126953" xlink:href="#DejaVuSans-97"/>
     <use x="541.40625" xlink:href="#DejaVuSans-108"/>
     <use x="569.189453" xlink:href="#DejaVuSans-32"/>
     <use x="600.976562" xlink:href="#DejaVuSans-108"/>
     <use x="628.759766" xlink:href="#DejaVuSans-111"/>
     <use x="689.941406" xlink:href="#DejaVuSans-115"/>
     <use x="742.041016" xlink:href="#DejaVuSans-115"/>
    </g>
   </g>
  </g>
  <g id="axes_4">
   <g id="patch_11">
    <path d="M 1125.691791 330.239063 
L 1434.38663 330.239063 
L 1434.38663 36.839063 
L 1125.691791 36.839063 
z
" style="fill:#ffffff;"/>
   </g>
   <g id="PolyCollection_10">
    <defs>
     <path d="M 1275.362016 -173.896513 
L 1275.362016 -151.129968 
L 1284.716405 -150.649617 
L 1284.716405 -174.222603 
L 1284.716405 -174.222603 
L 1275.362016 -173.896513 
z
" id="m9a10bcdda7" style="stroke:#edd1cb;stroke-opacity:0.2;"/>
    </defs>
    <g clip-path="url(#p0bb2da5a14)">
     <use style="fill:#edd1cb;fill-opacity:0.2;stroke:#edd1cb;stroke-opacity:0.2;" x="0" xlink:href="#m9a10bcdda7" y="367.795313"/>
    </g>
   </g>
   <g id="PolyCollection_11">
    <defs>
     <path d="M 1205.204098 -136.609501 
L 1205.204098 -123.154495 
L 1214.558487 -126.128496 
L 1223.912876 -118.762334 
L 1233.267265 -108.509448 
L 1242.621654 -95.594287 
L 1251.976043 -91.60801 
L 1261.330432 -89.225925 
L 1270.684821 -98.706901 
L 1280.03921 -88.635269 
L 1289.393599 -90.852532 
L 1298.747988 -91.900019 
L 1308.102378 -87.075259 
L 1317.456767 -84.684523 
L 1326.811156 -83.632999 
L 1336.165545 -87.606488 
L 1345.519934 -86.173493 
L 1354.874323 -85.397057 
L 1354.874323 -98.727301 
L 1354.874323 -98.727301 
L 1345.519934 -101.790596 
L 1336.165545 -98.263491 
L 1326.811156 -96.232739 
L 1317.456767 -100.250452 
L 1308.102378 -98.051556 
L 1298.747988 -110.857609 
L 1289.393599 -96.709195 
L 1280.03921 -97.493745 
L 1270.684821 -113.099055 
L 1261.330432 -119.948242 
L 1251.976043 -101.447825 
L 1242.621654 -109.344738 
L 1233.267265 -123.049048 
L 1223.912876 -127.247896 
L 1214.558487 -136.649964 
L 1205.204098 -136.609501 
z
" id="m1795424d17" style="stroke:#a9678f;stroke-opacity:0.2;"/>
    </defs>
    <g clip-path="url(#p0bb2da5a14)">
     <use style="fill:#a9678f;fill-opacity:0.2;stroke:#a9678f;stroke-opacity:0.2;" x="0" xlink:href="#m1795424d17" y="367.795313"/>
    </g>
   </g>
   <g id="PolyCollection_12">
    <defs>
     <path d="M 1139.723374 -317.619886 
L 1139.723374 -312.836026 
L 1149.077763 -177.189169 
L 1158.432153 -116.588668 
L 1167.786542 -77.442367 
L 1177.140931 -61.367634 
L 1186.49532 -60.831479 
L 1195.849709 -51.756128 
L 1205.204098 -59.046695 
L 1214.558487 -54.447461 
L 1223.912876 -57.714923 
L 1233.267265 -54.497742 
L 1242.621654 -56.800767 
L 1251.976043 -52.622684 
L 1261.330432 -53.620496 
L 1270.684821 -58.541538 
L 1280.03921 -56.583406 
L 1289.393599 -51.079167 
L 1298.747988 -54.434657 
L 1308.102378 -58.121275 
L 1317.456767 -53.111554 
L 1326.811156 -52.047074 
L 1336.165545 -53.825472 
L 1345.519934 -52.768545 
L 1354.874323 -55.422633 
L 1364.228712 -53.274747 
L 1373.583101 -53.401114 
L 1382.93749 -50.892614 
L 1392.291879 -60.125258 
L 1401.646268 -54.88546 
L 1411.000657 -59.432149 
L 1420.355046 -62.03409 
L 1420.355046 -81.431978 
L 1420.355046 -81.431978 
L 1411.000657 -79.231323 
L 1401.646268 -64.36651 
L 1392.291879 -83.199022 
L 1382.93749 -65.711094 
L 1373.583101 -72.460457 
L 1364.228712 -59.329798 
L 1354.874323 -71.606015 
L 1345.519934 -62.451559 
L 1336.165545 -67.513105 
L 1326.811156 -72.793836 
L 1317.456767 -67.775094 
L 1308.102378 -92.009109 
L 1298.747988 -67.052282 
L 1289.393599 -73.319017 
L 1280.03921 -71.299092 
L 1270.684821 -73.942841 
L 1261.330432 -61.75388 
L 1251.976043 -66.138462 
L 1242.621654 -70.661163 
L 1233.267265 -61.880813 
L 1223.912876 -68.279319 
L 1214.558487 -63.594808 
L 1205.204098 -68.611208 
L 1195.849709 -59.148069 
L 1186.49532 -70.758288 
L 1177.140931 -71.124901 
L 1167.786542 -84.875473 
L 1158.432153 -119.882113 
L 1149.077763 -183.574517 
L 1139.723374 -317.619886 
z
" id="m8b02a39f08" style="stroke:#2d1e3e;stroke-opacity:0.2;"/>
    </defs>
    <g clip-path="url(#p0bb2da5a14)">
     <use style="fill:#2d1e3e;fill-opacity:0.2;stroke:#2d1e3e;stroke-opacity:0.2;" x="0" xlink:href="#m8b02a39f08" y="367.795313"/>
    </g>
   </g>
   <g id="matplotlib.axis_7">
    <g id="xtick_22">
     <g id="line2d_51">
      <g>
       <use style="stroke:#000000;stroke-width:0.8;" x="1139.723374" xlink:href="#m7679115a8a" y="330.239063"/>
      </g>
     </g>
     <g id="text_45">
      <!-- −15 -->
      <g transform="translate(1129.171031 344.8375)scale(0.1 -0.1)">
       <use xlink:href="#DejaVuSans-8722"/>
       <use x="83.789062" xlink:href="#DejaVuSans-49"/>
       <use x="147.412109" xlink:href="#DejaVuSans-53"/>
      </g>
     </g>
    </g>
    <g id="xtick_23">
     <g id="line2d_52">
      <g>
       <use style="stroke:#000000;stroke-width:0.8;" x="1186.49532" xlink:href="#m7679115a8a" y="330.239063"/>
      </g>
     </g>
     <g id="text_46">
      <!-- −10 -->
      <g transform="translate(1175.942976 344.8375)scale(0.1 -0.1)">
       <use xlink:href="#DejaVuSans-8722"/>
       <use x="83.789062" xlink:href="#DejaVuSans-49"/>
       <use x="147.412109" xlink:href="#DejaVuSans-48"/>
      </g>
     </g>
    </g>
    <g id="xtick_24">
     <g id="line2d_53">
      <g>
       <use style="stroke:#000000;stroke-width:0.8;" x="1233.267265" xlink:href="#m7679115a8a" y="330.239063"/>
      </g>
     </g>
     <g id="text_47">
      <!-- −5 -->
      <g transform="translate(1225.896171 344.8375)scale(0.1 -0.1)">
       <use xlink:href="#DejaVuSans-8722"/>
       <use x="83.789062" xlink:href="#DejaVuSans-53"/>
      </g>
     </g>
    </g>
    <g id="xtick_25">
     <g id="line2d_54">
      <g>
       <use style="stroke:#000000;stroke-width:0.8;" x="1280.03921" xlink:href="#m7679115a8a" y="330.239063"/>
      </g>
     </g>
     <g id="text_48">
      <!-- 0 -->
      <g transform="translate(1276.85796 344.8375)scale(0.1 -0.1)">
       <use xlink:href="#DejaVuSans-48"/>
      </g>
     </g>
    </g>
    <g id="xtick_26">
     <g id="line2d_55">
      <g>
       <use style="stroke:#000000;stroke-width:0.8;" x="1326.811156" xlink:href="#m7679115a8a" y="330.239063"/>
      </g>
     </g>
     <g id="text_49">
      <!-- 5 -->
      <g transform="translate(1323.629906 344.8375)scale(0.1 -0.1)">
       <use xlink:href="#DejaVuSans-53"/>
      </g>
     </g>
    </g>
    <g id="xtick_27">
     <g id="line2d_56">
      <g>
       <use style="stroke:#000000;stroke-width:0.8;" x="1373.583101" xlink:href="#m7679115a8a" y="330.239063"/>
      </g>
     </g>
     <g id="text_50">
      <!-- 10 -->
      <g transform="translate(1367.220601 344.8375)scale(0.1 -0.1)">
       <use xlink:href="#DejaVuSans-49"/>
       <use x="63.623047" xlink:href="#DejaVuSans-48"/>
      </g>
     </g>
    </g>
    <g id="xtick_28">
     <g id="line2d_57">
      <g>
       <use style="stroke:#000000;stroke-width:0.8;" x="1420.355046" xlink:href="#m7679115a8a" y="330.239063"/>
      </g>
     </g>
     <g id="text_51">
      <!-- 15 -->
      <g transform="translate(1413.992546 344.8375)scale(0.1 -0.1)">
       <use xlink:href="#DejaVuSans-49"/>
       <use x="63.623047" xlink:href="#DejaVuSans-53"/>
      </g>
     </g>
    </g>
    <g id="text_52">
     <!-- spill -->
     <g transform="translate(1270.093117 358.515625)scale(0.1 -0.1)">
      <use xlink:href="#DejaVuSans-115"/>
      <use x="52.099609" xlink:href="#DejaVuSans-112"/>
      <use x="115.576172" xlink:href="#DejaVuSans-105"/>
      <use x="143.359375" xlink:href="#DejaVuSans-108"/>
      <use x="171.142578" xlink:href="#DejaVuSans-108"/>
     </g>
    </g>
   </g>
   <g id="matplotlib.axis_8">
    <g id="ytick_17">
     <g id="line2d_58">
      <g>
       <use style="stroke:#000000;stroke-width:0.8;" x="1125.691791" xlink:href="#m46cb13775b" y="300.6847"/>
      </g>
     </g>
     <g id="text_53">
      <!-- 0.2 -->
      <g transform="translate(1102.788666 304.483919)scale(0.1 -0.1)">
       <use xlink:href="#DejaVuSans-48"/>
       <use x="63.623047" xlink:href="#DejaVuSans-46"/>
       <use x="95.410156" xlink:href="#DejaVuSans-50"/>
      </g>
     </g>
    </g>
    <g id="ytick_18">
     <g id="line2d_59">
      <g>
       <use style="stroke:#000000;stroke-width:0.8;" x="1125.691791" xlink:href="#m46cb13775b" y="254.811473"/>
      </g>
     </g>
     <g id="text_54">
      <!-- 0.3 -->
      <defs>
       <path d="M 40.578125 39.3125 
Q 47.65625 37.796875 51.625 33 
Q 55.609375 28.21875 55.609375 21.1875 
Q 55.609375 10.40625 48.1875 4.484375 
Q 40.765625 -1.421875 27.09375 -1.421875 
Q 22.515625 -1.421875 17.65625 -0.515625 
Q 12.796875 0.390625 7.625 2.203125 
L 7.625 11.71875 
Q 11.71875 9.328125 16.59375 8.109375 
Q 21.484375 6.890625 26.8125 6.890625 
Q 36.078125 6.890625 40.9375 10.546875 
Q 45.796875 14.203125 45.796875 21.1875 
Q 45.796875 27.640625 41.28125 31.265625 
Q 36.765625 34.90625 28.71875 34.90625 
L 20.21875 34.90625 
L 20.21875 43.015625 
L 29.109375 43.015625 
Q 36.375 43.015625 40.234375 45.921875 
Q 44.09375 48.828125 44.09375 54.296875 
Q 44.09375 59.90625 40.109375 62.90625 
Q 36.140625 65.921875 28.71875 65.921875 
Q 24.65625 65.921875 20.015625 65.03125 
Q 15.375 64.15625 9.8125 62.3125 
L 9.8125 71.09375 
Q 15.4375 72.65625 20.34375 73.4375 
Q 25.25 74.21875 29.59375 74.21875 
Q 40.828125 74.21875 47.359375 69.109375 
Q 53.90625 64.015625 53.90625 55.328125 
Q 53.90625 49.265625 50.4375 45.09375 
Q 46.96875 40.921875 40.578125 39.3125 
z
" id="DejaVuSans-51"/>
      </defs>
      <g transform="translate(1102.788666 258.610692)scale(0.1 -0.1)">
       <use xlink:href="#DejaVuSans-48"/>
       <use x="63.623047" xlink:href="#DejaVuSans-46"/>
       <use x="95.410156" xlink:href="#DejaVuSans-51"/>
      </g>
     </g>
    </g>
    <g id="ytick_19">
     <g id="line2d_60">
      <g>
       <use style="stroke:#000000;stroke-width:0.8;" x="1125.691791" xlink:href="#m46cb13775b" y="208.938247"/>
      </g>
     </g>
     <g id="text_55">
      <!-- 0.4 -->
      <g transform="translate(1102.788666 212.737466)scale(0.1 -0.1)">
       <use xlink:href="#DejaVuSans-48"/>
       <use x="63.623047" xlink:href="#DejaVuSans-46"/>
       <use x="95.410156" xlink:href="#DejaVuSans-52"/>
      </g>
     </g>
    </g>
    <g id="ytick_20">
     <g id="line2d_61">
      <g>
       <use style="stroke:#000000;stroke-width:0.8;" x="1125.691791" xlink:href="#m46cb13775b" y="163.06502"/>
      </g>
     </g>
     <g id="text_56">
      <!-- 0.5 -->
      <g transform="translate(1102.788666 166.864239)scale(0.1 -0.1)">
       <use xlink:href="#DejaVuSans-48"/>
       <use x="63.623047" xlink:href="#DejaVuSans-46"/>
       <use x="95.410156" xlink:href="#DejaVuSans-53"/>
      </g>
     </g>
    </g>
    <g id="ytick_21">
     <g id="line2d_62">
      <g>
       <use style="stroke:#000000;stroke-width:0.8;" x="1125.691791" xlink:href="#m46cb13775b" y="117.191794"/>
      </g>
     </g>
     <g id="text_57">
      <!-- 0.6 -->
      <g transform="translate(1102.788666 120.991012)scale(0.1 -0.1)">
       <use xlink:href="#DejaVuSans-48"/>
       <use x="63.623047" xlink:href="#DejaVuSans-46"/>
       <use x="95.410156" xlink:href="#DejaVuSans-54"/>
      </g>
     </g>
    </g>
    <g id="ytick_22">
     <g id="line2d_63">
      <g>
       <use style="stroke:#000000;stroke-width:0.8;" x="1125.691791" xlink:href="#m46cb13775b" y="71.318567"/>
      </g>
     </g>
     <g id="text_58">
      <!-- 0.7 -->
      <defs>
       <path d="M 8.203125 72.90625 
L 55.078125 72.90625 
L 55.078125 68.703125 
L 28.609375 0 
L 18.3125 0 
L 43.21875 64.59375 
L 8.203125 64.59375 
z
" id="DejaVuSans-55"/>
      </defs>
      <g transform="translate(1102.788666 75.117786)scale(0.1 -0.1)">
       <use xlink:href="#DejaVuSans-48"/>
       <use x="63.623047" xlink:href="#DejaVuSans-46"/>
       <use x="95.410156" xlink:href="#DejaVuSans-55"/>
      </g>
     </g>
    </g>
   </g>
   <g id="line2d_64">
    <path clip-path="url(#p0bb2da5a14)" d="M 1275.362016 205.726293 
L 1284.716405 205.726293 
" style="fill:none;stroke:#edd1cb;stroke-linecap:square;stroke-width:1.5;"/>
   </g>
   <g id="line2d_65">
    <path clip-path="url(#p0bb2da5a14)" d="M 1205.204098 237.919618 
L 1214.558487 235.969107 
L 1223.912876 244.896114 
L 1233.267265 251.753282 
L 1242.621654 265.667838 
L 1251.976043 271.099014 
L 1261.330432 266.303662 
L 1270.684821 261.839433 
L 1280.03921 274.62953 
L 1289.393599 273.899801 
L 1298.747988 266.811587 
L 1308.102378 275.581064 
L 1317.456767 275.871155 
L 1326.811156 278.496025 
L 1336.165545 274.658971 
L 1345.519934 273.217833 
L 1354.874323 275.796912 
" style="fill:none;stroke:#a9678f;stroke-linecap:square;stroke-width:1.5;"/>
   </g>
   <g id="line2d_66">
    <path clip-path="url(#p0bb2da5a14)" d="M 1139.723374 52.631636 
L 1149.077763 187.319229 
L 1158.432153 249.496026 
L 1167.786542 286.809277 
L 1177.140931 301.649166 
L 1186.49532 301.87037 
L 1195.849709 312.74578 
L 1205.204098 303.858586 
L 1214.558487 309.158907 
L 1223.912876 304.963856 
L 1233.267265 309.567916 
L 1242.621654 303.964955 
L 1251.976043 309.876334 
L 1261.330432 309.930797 
L 1270.684821 302.041698 
L 1280.03921 304.222943 
L 1289.393599 306.919343 
L 1298.747988 307.392407 
L 1308.102378 295.977792 
L 1317.456767 307.69248 
L 1326.811156 306.617572 
L 1336.165545 307.24026 
L 1345.519934 310.184834 
L 1354.874323 304.990234 
L 1364.228712 311.723584 
L 1373.583101 305.371908 
L 1382.93749 310.771936 
L 1392.291879 296.395464 
L 1401.646268 308.345242 
L 1411.000657 299.656395 
L 1420.355046 297.454271 
" style="fill:none;stroke:#2d1e3e;stroke-linecap:square;stroke-width:1.5;"/>
   </g>
   <g id="patch_12">
    <path d="M 1125.691791 330.239063 
L 1125.691791 36.839063 
" style="fill:none;stroke:#000000;stroke-linecap:square;stroke-linejoin:miter;stroke-width:0.8;"/>
   </g>
   <g id="patch_13">
    <path d="M 1125.691791 330.239063 
L 1434.38663 330.239063 
" style="fill:none;stroke:#000000;stroke-linecap:square;stroke-linejoin:miter;stroke-width:0.8;"/>
   </g>
   <g id="text_59">
    <!-- loss = adj -->
    <defs>
     <path d="M 45.40625 46.390625 
L 45.40625 75.984375 
L 54.390625 75.984375 
L 54.390625 0 
L 45.40625 0 
L 45.40625 8.203125 
Q 42.578125 3.328125 38.25 0.953125 
Q 33.9375 -1.421875 27.875 -1.421875 
Q 17.96875 -1.421875 11.734375 6.484375 
Q 5.515625 14.40625 5.515625 27.296875 
Q 5.515625 40.1875 11.734375 48.09375 
Q 17.96875 56 27.875 56 
Q 33.9375 56 38.25 53.625 
Q 42.578125 51.265625 45.40625 46.390625 
z
M 14.796875 27.296875 
Q 14.796875 17.390625 18.875 11.75 
Q 22.953125 6.109375 30.078125 6.109375 
Q 37.203125 6.109375 41.296875 11.75 
Q 45.40625 17.390625 45.40625 27.296875 
Q 45.40625 37.203125 41.296875 42.84375 
Q 37.203125 48.484375 30.078125 48.484375 
Q 22.953125 48.484375 18.875 42.84375 
Q 14.796875 37.203125 14.796875 27.296875 
z
" id="DejaVuSans-100"/>
     <path d="M 9.421875 54.6875 
L 18.40625 54.6875 
L 18.40625 -0.984375 
Q 18.40625 -11.421875 14.421875 -16.109375 
Q 10.453125 -20.796875 1.609375 -20.796875 
L -1.8125 -20.796875 
L -1.8125 -13.1875 
L 0.59375 -13.1875 
Q 5.71875 -13.1875 7.5625 -10.8125 
Q 9.421875 -8.453125 9.421875 -0.984375 
z
M 9.421875 75.984375 
L 18.40625 75.984375 
L 18.40625 64.59375 
L 9.421875 64.59375 
z
" id="DejaVuSans-106"/>
    </defs>
    <g transform="translate(1255.386085 30.839063)scale(0.1 -0.1)">
     <use xlink:href="#DejaVuSans-108"/>
     <use x="27.783203" xlink:href="#DejaVuSans-111"/>
     <use x="88.964844" xlink:href="#DejaVuSans-115"/>
     <use x="141.064453" xlink:href="#DejaVuSans-115"/>
     <use x="193.164062" xlink:href="#DejaVuSans-32"/>
     <use x="224.951172" xlink:href="#DejaVuSans-61"/>
     <use x="308.740234" xlink:href="#DejaVuSans-32"/>
     <use x="340.527344" xlink:href="#DejaVuSans-97"/>
     <use x="401.806641" xlink:href="#DejaVuSans-100"/>
     <use x="465.283203" xlink:href="#DejaVuSans-106"/>
    </g>
   </g>
  </g>
  <g id="axes_5">
   <g id="patch_14">
    <path d="M 1479.900161 330.239063 
L 1788.595 330.239063 
L 1788.595 36.839063 
L 1479.900161 36.839063 
z
" style="fill:#ffffff;"/>
   </g>
   <g id="PolyCollection_13">
    <defs>
     <path d="M 1629.570386 -100.736081 
L 1629.570386 -77.545035 
L 1638.924775 -77.892764 
L 1638.924775 -100.870243 
L 1638.924775 -100.870243 
L 1629.570386 -100.736081 
z
" id="m3caf4f163c" style="stroke:#edd1cb;stroke-opacity:0.2;"/>
    </defs>
    <g clip-path="url(#p0c3acef416)">
     <use style="fill:#edd1cb;fill-opacity:0.2;stroke:#edd1cb;stroke-opacity:0.2;" x="0" xlink:href="#m3caf4f163c" y="367.795313"/>
    </g>
   </g>
   <g id="PolyCollection_14">
    <defs>
     <path d="M 1559.412468 -76.204799 
L 1559.412468 -66.344754 
L 1568.766857 -67.04617 
L 1578.121246 -69.039846 
L 1587.475635 -52.515232 
L 1596.830024 -57.817918 
L 1606.184413 -61.279632 
L 1615.538802 -63.13381 
L 1624.893191 -66.865062 
L 1634.24758 -78.302947 
L 1643.60197 -71.514295 
L 1652.956359 -67.065923 
L 1662.310748 -70.411042 
L 1671.665137 -83.377429 
L 1681.019526 -68.268105 
L 1690.373915 -80.458263 
L 1699.728304 -80.059866 
L 1709.082693 -86.11116 
L 1709.082693 -106.75494 
L 1709.082693 -106.75494 
L 1699.728304 -103.042369 
L 1690.373915 -96.891432 
L 1681.019526 -92.797047 
L 1671.665137 -122.880234 
L 1662.310748 -91.251431 
L 1652.956359 -82.527366 
L 1643.60197 -100.688992 
L 1634.24758 -111.279067 
L 1624.893191 -108.473655 
L 1615.538802 -89.413709 
L 1606.184413 -82.277467 
L 1596.830024 -85.406213 
L 1587.475635 -70.069596 
L 1578.121246 -81.983263 
L 1568.766857 -81.63403 
L 1559.412468 -76.204799 
z
" id="mbe04c8aea6" style="stroke:#a9678f;stroke-opacity:0.2;"/>
    </defs>
    <g clip-path="url(#p0c3acef416)">
     <use style="fill:#a9678f;fill-opacity:0.2;stroke:#a9678f;stroke-opacity:0.2;" x="0" xlink:href="#mbe04c8aea6" y="367.795313"/>
    </g>
   </g>
   <g id="PolyCollection_15">
    <defs>
     <path d="M 1493.931745 -71.247033 
L 1493.931745 -56.027068 
L 1503.286134 -55.41003 
L 1512.640523 -60.701671 
L 1521.994912 -52.451995 
L 1531.349301 -57.049359 
L 1540.70369 -62.243862 
L 1550.058079 -50.892614 
L 1559.412468 -51.91233 
L 1568.766857 -63.608728 
L 1578.121246 -61.498589 
L 1587.475635 -63.361242 
L 1596.830024 -67.794251 
L 1606.184413 -52.315906 
L 1615.538802 -58.156108 
L 1624.893191 -61.54823 
L 1634.24758 -70.297264 
L 1643.60197 -73.83289 
L 1652.956359 -71.765834 
L 1662.310748 -75.974712 
L 1671.665137 -83.265061 
L 1681.019526 -81.690742 
L 1690.373915 -85.809959 
L 1699.728304 -89.246276 
L 1709.082693 -96.994391 
L 1718.437082 -106.564536 
L 1727.791471 -127.562162 
L 1737.14586 -147.152489 
L 1746.500249 -132.934491 
L 1755.854638 -165.134107 
L 1765.209027 -204.713895 
L 1774.563416 -266.546625 
L 1774.563416 -317.619886 
L 1774.563416 -317.619886 
L 1765.209027 -239.07965 
L 1755.854638 -203.088892 
L 1746.500249 -165.311596 
L 1737.14586 -192.831694 
L 1727.791471 -145.108617 
L 1718.437082 -131.551297 
L 1709.082693 -110.706442 
L 1699.728304 -127.639226 
L 1690.373915 -109.100968 
L 1681.019526 -128.89841 
L 1671.665137 -102.577955 
L 1662.310748 -85.945384 
L 1652.956359 -95.145915 
L 1643.60197 -83.834528 
L 1634.24758 -88.769448 
L 1624.893191 -73.362242 
L 1615.538802 -77.073688 
L 1606.184413 -66.712652 
L 1596.830024 -92.702491 
L 1587.475635 -75.961708 
L 1578.121246 -75.568619 
L 1568.766857 -77.716499 
L 1559.412468 -74.950633 
L 1550.058079 -63.128107 
L 1540.70369 -83.878689 
L 1531.349301 -76.777467 
L 1521.994912 -72.978956 
L 1512.640523 -79.847517 
L 1503.286134 -75.337245 
L 1493.931745 -71.247033 
z
" id="m70e7b81e94" style="stroke:#2d1e3e;stroke-opacity:0.2;"/>
    </defs>
    <g clip-path="url(#p0c3acef416)">
     <use style="fill:#2d1e3e;fill-opacity:0.2;stroke:#2d1e3e;stroke-opacity:0.2;" x="0" xlink:href="#m70e7b81e94" y="367.795313"/>
    </g>
   </g>
   <g id="matplotlib.axis_9">
    <g id="xtick_29">
     <g id="line2d_67">
      <g>
       <use style="stroke:#000000;stroke-width:0.8;" x="1493.931745" xlink:href="#m7679115a8a" y="330.239063"/>
      </g>
     </g>
     <g id="text_60">
      <!-- −15 -->
      <g transform="translate(1483.379401 344.8375)scale(0.1 -0.1)">
       <use xlink:href="#DejaVuSans-8722"/>
       <use x="83.789062" xlink:href="#DejaVuSans-49"/>
       <use x="147.412109" xlink:href="#DejaVuSans-53"/>
      </g>
     </g>
    </g>
    <g id="xtick_30">
     <g id="line2d_68">
      <g>
       <use style="stroke:#000000;stroke-width:0.8;" x="1540.70369" xlink:href="#m7679115a8a" y="330.239063"/>
      </g>
     </g>
     <g id="text_61">
      <!-- −10 -->
      <g transform="translate(1530.151346 344.8375)scale(0.1 -0.1)">
       <use xlink:href="#DejaVuSans-8722"/>
       <use x="83.789062" xlink:href="#DejaVuSans-49"/>
       <use x="147.412109" xlink:href="#DejaVuSans-48"/>
      </g>
     </g>
    </g>
    <g id="xtick_31">
     <g id="line2d_69">
      <g>
       <use style="stroke:#000000;stroke-width:0.8;" x="1587.475635" xlink:href="#m7679115a8a" y="330.239063"/>
      </g>
     </g>
     <g id="text_62">
      <!-- −5 -->
      <g transform="translate(1580.104541 344.8375)scale(0.1 -0.1)">
       <use xlink:href="#DejaVuSans-8722"/>
       <use x="83.789062" xlink:href="#DejaVuSans-53"/>
      </g>
     </g>
    </g>
    <g id="xtick_32">
     <g id="line2d_70">
      <g>
       <use style="stroke:#000000;stroke-width:0.8;" x="1634.24758" xlink:href="#m7679115a8a" y="330.239063"/>
      </g>
     </g>
     <g id="text_63">
      <!-- 0 -->
      <g transform="translate(1631.06633 344.8375)scale(0.1 -0.1)">
       <use xlink:href="#DejaVuSans-48"/>
      </g>
     </g>
    </g>
    <g id="xtick_33">
     <g id="line2d_71">
      <g>
       <use style="stroke:#000000;stroke-width:0.8;" x="1681.019526" xlink:href="#m7679115a8a" y="330.239063"/>
      </g>
     </g>
     <g id="text_64">
      <!-- 5 -->
      <g transform="translate(1677.838276 344.8375)scale(0.1 -0.1)">
       <use xlink:href="#DejaVuSans-53"/>
      </g>
     </g>
    </g>
    <g id="xtick_34">
     <g id="line2d_72">
      <g>
       <use style="stroke:#000000;stroke-width:0.8;" x="1727.791471" xlink:href="#m7679115a8a" y="330.239063"/>
      </g>
     </g>
     <g id="text_65">
      <!-- 10 -->
      <g transform="translate(1721.428971 344.8375)scale(0.1 -0.1)">
       <use xlink:href="#DejaVuSans-49"/>
       <use x="63.623047" xlink:href="#DejaVuSans-48"/>
      </g>
     </g>
    </g>
    <g id="xtick_35">
     <g id="line2d_73">
      <g>
       <use style="stroke:#000000;stroke-width:0.8;" x="1774.563416" xlink:href="#m7679115a8a" y="330.239063"/>
      </g>
     </g>
     <g id="text_66">
      <!-- 15 -->
      <g transform="translate(1768.200916 344.8375)scale(0.1 -0.1)">
       <use xlink:href="#DejaVuSans-49"/>
       <use x="63.623047" xlink:href="#DejaVuSans-53"/>
      </g>
     </g>
    </g>
    <g id="text_67">
     <!-- spill -->
     <g transform="translate(1624.301487 358.515625)scale(0.1 -0.1)">
      <use xlink:href="#DejaVuSans-115"/>
      <use x="52.099609" xlink:href="#DejaVuSans-112"/>
      <use x="115.576172" xlink:href="#DejaVuSans-105"/>
      <use x="143.359375" xlink:href="#DejaVuSans-108"/>
      <use x="171.142578" xlink:href="#DejaVuSans-108"/>
     </g>
    </g>
   </g>
   <g id="matplotlib.axis_10">
    <g id="ytick_23">
     <g id="line2d_74">
      <g>
       <use style="stroke:#000000;stroke-width:0.8;" x="1479.900161" xlink:href="#m46cb13775b" y="316.716467"/>
      </g>
     </g>
     <g id="text_68">
      <!-- −2.5 -->
      <g transform="translate(1448.617348 320.515685)scale(0.1 -0.1)">
       <use xlink:href="#DejaVuSans-8722"/>
       <use x="83.789062" xlink:href="#DejaVuSans-50"/>
       <use x="147.412109" xlink:href="#DejaVuSans-46"/>
       <use x="179.199219" xlink:href="#DejaVuSans-53"/>
      </g>
     </g>
    </g>
    <g id="ytick_24">
     <g id="line2d_75">
      <g>
       <use style="stroke:#000000;stroke-width:0.8;" x="1479.900161" xlink:href="#m46cb13775b" y="269.186162"/>
      </g>
     </g>
     <g id="text_69">
      <!-- −2.0 -->
      <g transform="translate(1448.617348 272.985381)scale(0.1 -0.1)">
       <use xlink:href="#DejaVuSans-8722"/>
       <use x="83.789062" xlink:href="#DejaVuSans-50"/>
       <use x="147.412109" xlink:href="#DejaVuSans-46"/>
       <use x="179.199219" xlink:href="#DejaVuSans-48"/>
      </g>
     </g>
    </g>
    <g id="ytick_25">
     <g id="line2d_76">
      <g>
       <use style="stroke:#000000;stroke-width:0.8;" x="1479.900161" xlink:href="#m46cb13775b" y="221.655858"/>
      </g>
     </g>
     <g id="text_70">
      <!-- −1.5 -->
      <g transform="translate(1448.617348 225.455077)scale(0.1 -0.1)">
       <use xlink:href="#DejaVuSans-8722"/>
       <use x="83.789062" xlink:href="#DejaVuSans-49"/>
       <use x="147.412109" xlink:href="#DejaVuSans-46"/>
       <use x="179.199219" xlink:href="#DejaVuSans-53"/>
      </g>
     </g>
    </g>
    <g id="ytick_26">
     <g id="line2d_77">
      <g>
       <use style="stroke:#000000;stroke-width:0.8;" x="1479.900161" xlink:href="#m46cb13775b" y="174.125554"/>
      </g>
     </g>
     <g id="text_71">
      <!-- −1.0 -->
      <g transform="translate(1448.617348 177.924773)scale(0.1 -0.1)">
       <use xlink:href="#DejaVuSans-8722"/>
       <use x="83.789062" xlink:href="#DejaVuSans-49"/>
       <use x="147.412109" xlink:href="#DejaVuSans-46"/>
       <use x="179.199219" xlink:href="#DejaVuSans-48"/>
      </g>
     </g>
    </g>
    <g id="ytick_27">
     <g id="line2d_78">
      <g>
       <use style="stroke:#000000;stroke-width:0.8;" x="1479.900161" xlink:href="#m46cb13775b" y="126.595249"/>
      </g>
     </g>
     <g id="text_72">
      <!-- −0.5 -->
      <g transform="translate(1448.617348 130.394468)scale(0.1 -0.1)">
       <use xlink:href="#DejaVuSans-8722"/>
       <use x="83.789062" xlink:href="#DejaVuSans-48"/>
       <use x="147.412109" xlink:href="#DejaVuSans-46"/>
       <use x="179.199219" xlink:href="#DejaVuSans-53"/>
      </g>
     </g>
    </g>
    <g id="ytick_28">
     <g id="line2d_79">
      <g>
       <use style="stroke:#000000;stroke-width:0.8;" x="1479.900161" xlink:href="#m46cb13775b" y="79.064945"/>
      </g>
     </g>
     <g id="text_73">
      <!-- 0.0 -->
      <g transform="translate(1456.997036 82.864164)scale(0.1 -0.1)">
       <use xlink:href="#DejaVuSans-48"/>
       <use x="63.623047" xlink:href="#DejaVuSans-46"/>
       <use x="95.410156" xlink:href="#DejaVuSans-48"/>
      </g>
     </g>
    </g>
   </g>
   <g id="line2d_80">
    <path clip-path="url(#p0c3acef416)" d="M 1629.570386 279.386499 
L 1638.924775 279.386499 
" style="fill:none;stroke:#edd1cb;stroke-linecap:square;stroke-width:1.5;"/>
   </g>
   <g id="line2d_81">
    <path clip-path="url(#p0c3acef416)" d="M 1559.412468 296.856555 
L 1568.766857 294.023337 
L 1578.121246 292.940285 
L 1587.475635 306.920191 
L 1596.830024 296.964079 
L 1606.184413 297.595001 
L 1615.538802 293.083881 
L 1624.893191 282.741409 
L 1634.24758 274.358954 
L 1643.60197 281.717786 
L 1652.956359 293.238865 
L 1662.310748 287.837516 
L 1671.665137 265.759225 
L 1681.019526 288.293091 
L 1690.373915 278.037757 
L 1699.728304 275.558824 
L 1709.082693 272.669636 
" style="fill:none;stroke:#a9678f;stroke-linecap:square;stroke-width:1.5;"/>
   </g>
   <g id="line2d_82">
    <path clip-path="url(#p0c3acef416)" d="M 1493.931745 304.160009 
L 1503.286134 302.595232 
L 1512.640523 297.766234 
L 1521.994912 306.136952 
L 1531.349301 301.002783 
L 1540.70369 294.967895 
L 1550.058079 311.248093 
L 1559.412468 306.322297 
L 1568.766857 297.549313 
L 1578.121246 299.994654 
L 1587.475635 297.797604 
L 1596.830024 289.070497 
L 1606.184413 309.235898 
L 1615.538802 301.20589 
L 1624.893191 300.311488 
L 1634.24758 288.567181 
L 1643.60197 288.938286 
L 1652.956359 284.448061 
L 1662.310748 287.024119 
L 1671.665137 275.17569 
L 1681.019526 265.47423 
L 1690.373915 271.054774 
L 1699.728304 262.00875 
L 1709.082693 264.463782 
L 1718.437082 248.885021 
L 1727.791471 232.132509 
L 1737.14586 200.681886 
L 1746.500249 217.700716 
L 1755.854638 184.527572 
L 1765.209027 147.098202 
L 1774.563416 75.150266 
" style="fill:none;stroke:#2d1e3e;stroke-linecap:square;stroke-width:1.5;"/>
   </g>
   <g id="patch_15">
    <path d="M 1479.900161 330.239063 
L 1479.900161 36.839063 
" style="fill:none;stroke:#000000;stroke-linecap:square;stroke-linejoin:miter;stroke-width:0.8;"/>
   </g>
   <g id="patch_16">
    <path d="M 1479.900161 330.239063 
L 1788.595 330.239063 
" style="fill:none;stroke:#000000;stroke-linecap:square;stroke-linejoin:miter;stroke-width:0.8;"/>
   </g>
   <g id="text_74">
    <!-- loss = feat -->
    <defs>
     <path d="M 37.109375 75.984375 
L 37.109375 68.5 
L 28.515625 68.5 
Q 23.6875 68.5 21.796875 66.546875 
Q 19.921875 64.59375 19.921875 59.515625 
L 19.921875 54.6875 
L 34.71875 54.6875 
L 34.71875 47.703125 
L 19.921875 47.703125 
L 19.921875 0 
L 10.890625 0 
L 10.890625 47.703125 
L 2.296875 47.703125 
L 2.296875 54.6875 
L 10.890625 54.6875 
L 10.890625 58.5 
Q 10.890625 67.625 15.140625 71.796875 
Q 19.390625 75.984375 28.609375 75.984375 
z
" id="DejaVuSans-102"/>
     <path d="M 56.203125 29.59375 
L 56.203125 25.203125 
L 14.890625 25.203125 
Q 15.484375 15.921875 20.484375 11.0625 
Q 25.484375 6.203125 34.421875 6.203125 
Q 39.59375 6.203125 44.453125 7.46875 
Q 49.3125 8.734375 54.109375 11.28125 
L 54.109375 2.78125 
Q 49.265625 0.734375 44.1875 -0.34375 
Q 39.109375 -1.421875 33.890625 -1.421875 
Q 20.796875 -1.421875 13.15625 6.1875 
Q 5.515625 13.8125 5.515625 26.8125 
Q 5.515625 40.234375 12.765625 48.109375 
Q 20.015625 56 32.328125 56 
Q 43.359375 56 49.78125 48.890625 
Q 56.203125 41.796875 56.203125 29.59375 
z
M 47.21875 32.234375 
Q 47.125 39.59375 43.09375 43.984375 
Q 39.0625 48.390625 32.421875 48.390625 
Q 24.90625 48.390625 20.390625 44.140625 
Q 15.875 39.890625 15.1875 32.171875 
z
" id="DejaVuSans-101"/>
    </defs>
    <g transform="translate(1607.360862 30.839063)scale(0.1 -0.1)">
     <use xlink:href="#DejaVuSans-108"/>
     <use x="27.783203" xlink:href="#DejaVuSans-111"/>
     <use x="88.964844" xlink:href="#DejaVuSans-115"/>
     <use x="141.064453" xlink:href="#DejaVuSans-115"/>
     <use x="193.164062" xlink:href="#DejaVuSans-32"/>
     <use x="224.951172" xlink:href="#DejaVuSans-61"/>
     <use x="308.740234" xlink:href="#DejaVuSans-32"/>
     <use x="340.527344" xlink:href="#DejaVuSans-102"/>
     <use x="375.732422" xlink:href="#DejaVuSans-101"/>
     <use x="437.255859" xlink:href="#DejaVuSans-97"/>
     <use x="498.535156" xlink:href="#DejaVuSans-116"/>
    </g>
   </g>
  </g>
  <g id="text_75">
   <g id="patch_17">
    <path d="M 3.2 20.878125 
L 105.020313 20.878125 
L 105.020313 3.2 
L 3.2 3.2 
z
" style="fill:none;stroke:#8b0000;stroke-linejoin:miter;"/>
   </g>
   <!-- dataset = pubmed -->
   <defs>
    <path d="M 48.6875 27.296875 
Q 48.6875 37.203125 44.609375 42.84375 
Q 40.53125 48.484375 33.40625 48.484375 
Q 26.265625 48.484375 22.1875 42.84375 
Q 18.109375 37.203125 18.109375 27.296875 
Q 18.109375 17.390625 22.1875 11.75 
Q 26.265625 6.109375 33.40625 6.109375 
Q 40.53125 6.109375 44.609375 11.75 
Q 48.6875 17.390625 48.6875 27.296875 
z
M 18.109375 46.390625 
Q 20.953125 51.265625 25.265625 53.625 
Q 29.59375 56 35.59375 56 
Q 45.5625 56 51.78125 48.09375 
Q 58.015625 40.1875 58.015625 27.296875 
Q 58.015625 14.40625 51.78125 6.484375 
Q 45.5625 -1.421875 35.59375 -1.421875 
Q 29.59375 -1.421875 25.265625 0.953125 
Q 20.953125 3.328125 18.109375 8.203125 
L 18.109375 0 
L 9.078125 0 
L 9.078125 75.984375 
L 18.109375 75.984375 
z
" id="DejaVuSans-98"/>
    <path d="M 52 44.1875 
Q 55.375 50.25 60.0625 53.125 
Q 64.75 56 71.09375 56 
Q 79.640625 56 84.28125 50.015625 
Q 88.921875 44.046875 88.921875 33.015625 
L 88.921875 0 
L 79.890625 0 
L 79.890625 32.71875 
Q 79.890625 40.578125 77.09375 44.375 
Q 74.3125 48.1875 68.609375 48.1875 
Q 61.625 48.1875 57.5625 43.546875 
Q 53.515625 38.921875 53.515625 30.90625 
L 53.515625 0 
L 44.484375 0 
L 44.484375 32.71875 
Q 44.484375 40.625 41.703125 44.40625 
Q 38.921875 48.1875 33.109375 48.1875 
Q 26.21875 48.1875 22.15625 43.53125 
Q 18.109375 38.875 18.109375 30.90625 
L 18.109375 0 
L 9.078125 0 
L 9.078125 54.6875 
L 18.109375 54.6875 
L 18.109375 46.1875 
Q 21.1875 51.21875 25.484375 53.609375 
Q 29.78125 56 35.6875 56 
Q 41.65625 56 45.828125 52.96875 
Q 50 49.953125 52 44.1875 
z
" id="DejaVuSans-109"/>
   </defs>
   <g style="fill:#8b0000;" transform="translate(7.2 14.798437)scale(0.1 -0.1)">
    <use xlink:href="#DejaVuSans-100"/>
    <use x="63.476562" xlink:href="#DejaVuSans-97"/>
    <use x="124.755859" xlink:href="#DejaVuSans-116"/>
    <use x="163.964844" xlink:href="#DejaVuSans-97"/>
    <use x="225.244141" xlink:href="#DejaVuSans-115"/>
    <use x="277.34375" xlink:href="#DejaVuSans-101"/>
    <use x="338.867188" xlink:href="#DejaVuSans-116"/>
    <use x="378.076172" xlink:href="#DejaVuSans-32"/>
    <use x="409.863281" xlink:href="#DejaVuSans-61"/>
    <use x="493.652344" xlink:href="#DejaVuSans-32"/>
    <use x="525.439453" xlink:href="#DejaVuSans-112"/>
    <use x="588.916016" xlink:href="#DejaVuSans-117"/>
    <use x="652.294922" xlink:href="#DejaVuSans-98"/>
    <use x="715.771484" xlink:href="#DejaVuSans-109"/>
    <use x="813.183594" xlink:href="#DejaVuSans-101"/>
    <use x="874.707031" xlink:href="#DejaVuSans-100"/>
   </g>
  </g>
  <g id="legend_1">
   <g id="line2d_83">
    <path d="M 1808.45625 161.129688 
L 1828.45625 161.129688 
" style="fill:none;"/>
   </g>
   <g id="line2d_84"/>
   <g id="text_76">
    <!-- dimξ -->
    <defs>
     <path d="M 35.640625 6.203125 
Q 42.09375 6.15625 45.953125 2.484375 
Q 50.046875 -1.375 50.046875 -7.234375 
Q 50.046875 -12.84375 46.4375 -16.75 
Q 42.53125 -21 34.578125 -21 
Q 34.578125 -17.328125 34.578125 -13.625 
Q 37.9375 -13.875 39.984375 -11.71875 
Q 41.546875 -10.015625 41.546875 -8.203125 
Q 41.546875 -5.609375 39.984375 -3.46875 
Q 38.484375 -1.421875 35.640625 -1.421875 
Q 5.21875 -1.421875 5.21875 19.921875 
Q 5.21875 34.578125 21.484375 38.875 
Q 7.8125 40.625 7.8125 53.328125 
Q 7.8125 62.9375 18.5625 66.9375 
L 8.40625 66.9375 
L 8.40625 75.984375 
L 46.921875 75.984375 
L 46.921875 66.9375 
Q 16.21875 66.9375 16.21875 52.734375 
Q 16.21875 43.40625 42 42.96875 
L 42 34.671875 
Q 14.15625 35.75 14.265625 19.921875 
Q 14.3125 6.6875 35.640625 6.203125 
z
" id="DejaVuSans-958"/>
    </defs>
    <g transform="translate(1836.45625 164.629688)scale(0.1 -0.1)">
     <use xlink:href="#DejaVuSans-100"/>
     <use x="63.476562" xlink:href="#DejaVuSans-105"/>
     <use x="91.259766" xlink:href="#DejaVuSans-109"/>
     <use x="188.671875" xlink:href="#DejaVuSans-958"/>
    </g>
   </g>
   <g id="line2d_85">
    <path d="M 1808.45625 175.828125 
L 1828.45625 175.828125 
" style="fill:none;stroke:#edd1cb;stroke-linecap:square;stroke-width:1.5;"/>
   </g>
   <g id="line2d_86"/>
   <g id="text_77">
    <!-- 16 -->
    <g transform="translate(1836.45625 179.328125)scale(0.1 -0.1)">
     <use xlink:href="#DejaVuSans-49"/>
     <use x="63.623047" xlink:href="#DejaVuSans-54"/>
    </g>
   </g>
   <g id="line2d_87">
    <path d="M 1808.45625 190.50625 
L 1828.45625 190.50625 
" style="fill:none;stroke:#a9678f;stroke-linecap:square;stroke-width:1.5;"/>
   </g>
   <g id="line2d_88"/>
   <g id="text_78">
    <!-- 24 -->
    <g transform="translate(1836.45625 194.00625)scale(0.1 -0.1)">
     <use xlink:href="#DejaVuSans-50"/>
     <use x="63.623047" xlink:href="#DejaVuSans-52"/>
    </g>
   </g>
   <g id="line2d_89">
    <path d="M 1808.45625 205.184375 
L 1828.45625 205.184375 
" style="fill:none;stroke:#2d1e3e;stroke-linecap:square;stroke-width:1.5;"/>
   </g>
   <g id="line2d_90"/>
   <g id="text_79">
    <!-- 32 -->
    <g transform="translate(1836.45625 208.684375)scale(0.1 -0.1)">
     <use xlink:href="#DejaVuSans-51"/>
     <use x="63.623047" xlink:href="#DejaVuSans-50"/>
    </g>
   </g>
  </g>
 </g>
 <defs>
  <clipPath id="p4bfde9fd93">
   <rect height="293.4" width="308.694839" x="63.066681" y="36.839063"/>
  </clipPath>
  <clipPath id="pc8eedec99a">
   <rect height="293.4" width="308.694839" x="417.275051" y="36.839063"/>
  </clipPath>
  <clipPath id="p3471224e22">
   <rect height="293.4" width="308.694839" x="771.483421" y="36.839063"/>
  </clipPath>
  <clipPath id="p0bb2da5a14">
   <rect height="293.4" width="308.694839" x="1125.691791" y="36.839063"/>
  </clipPath>
  <clipPath id="p0c3acef416">
   <rect height="293.4" width="308.694839" x="1479.900161" y="36.839063"/>
  </clipPath>
 </defs>
</svg>
