<?xml version="1.0" encoding="utf-8" standalone="no"?>
<!DOCTYPE svg PUBLIC "-//W3C//DTD SVG 1.1//EN"
  "http://www.w3.org/Graphics/SVG/1.1/DTD/svg11.dtd">
<!-- Created with matplotlib (https://matplotlib.org/) -->
<svg height="351.754687pt" version="1.1" viewBox="0 0 1876.604579 351.754687" width="1876.604579pt" xmlns="http://www.w3.org/2000/svg" xmlns:xlink="http://www.w3.org/1999/xlink">
 <defs>
  <style type="text/css">
*{stroke-linecap:butt;stroke-linejoin:round;}
  </style>
 </defs>
 <g id="figure_1">
  <g id="patch_1">
   <path d="M 0 351.754687 
L 1876.604579 351.754687 
L 1876.604579 0 
L 0 0 
z
" style="fill:#ffffff;"/>
  </g>
  <g id="axes_1">
   <g id="patch_2">
    <path d="M 44.059375 314.198437 
L 375.930933 314.198437 
L 375.930933 20.798437 
L 44.059375 20.798437 
z
" style="fill:#ffffff;"/>
   </g>
   <g id="PolyCollection_1">
    <defs>
     <path d="M 59.144446 -220.681918 
L 59.144446 -220.358656 
L 75.905636 -206.542056 
L 92.666825 -193.350776 
L 109.428015 -180.176313 
L 126.189205 -168.699169 
L 142.950395 -159.067248 
L 159.711585 -151.895908 
L 176.472775 -145.528869 
L 193.233964 -139.417075 
L 209.995154 -133.941272 
L 226.756344 -129.195689 
L 243.517534 -126.161332 
L 260.278724 -122.182592 
L 277.039913 -120.145587 
L 293.801103 -119.537156 
L 310.562293 -120.841801 
L 327.323483 -123.102062 
L 344.084673 -164.490407 
L 360.845863 -257.281668 
L 360.845863 -260.040204 
L 360.845863 -260.040204 
L 344.084673 -167.780696 
L 327.323483 -125.175491 
L 310.562293 -123.671748 
L 293.801103 -121.648755 
L 277.039913 -122.436278 
L 260.278724 -124.129311 
L 243.517534 -127.874799 
L 226.756344 -130.245002 
L 209.995154 -135.437903 
L 193.233964 -140.424151 
L 176.472775 -146.666729 
L 159.711585 -153.237656 
L 142.950395 -160.25944 
L 126.189205 -170.032288 
L 109.428015 -181.116966 
L 92.666825 -194.081187 
L 75.905636 -206.958001 
L 59.144446 -220.681918 
z
" id="m2076d6cd9c" style="stroke:#1f77b4;stroke-opacity:0.2;"/>
    </defs>
    <g clip-path="url(#p1706040ef2)">
     <use style="fill:#1f77b4;fill-opacity:0.2;stroke:#1f77b4;stroke-opacity:0.2;" x="0" xlink:href="#m2076d6cd9c" y="351.754687"/>
    </g>
   </g>
   <g id="PolyCollection_2">
    <defs>
     <path d="M 59.144446 -219.214549 
L 59.144446 -218.907115 
L 75.905636 -204.878231 
L 92.666825 -191.555905 
L 109.428015 -178.047524 
L 126.189205 -166.435236 
L 142.950395 -156.744543 
L 159.711585 -149.625084 
L 176.472775 -143.256234 
L 193.233964 -137.135455 
L 209.995154 -131.600839 
L 226.756344 -126.828613 
L 243.517534 -123.805484 
L 260.278724 -119.656317 
L 277.039913 -117.477932 
L 293.801103 -116.374498 
L 310.562293 -116.475888 
L 327.323483 -114.19694 
L 344.084673 -113.11413 
L 360.845863 -114.043227 
L 360.845863 -117.079095 
L 360.845863 -117.079095 
L 344.084673 -116.352045 
L 327.323483 -116.265196 
L 310.562293 -119.618347 
L 293.801103 -118.450397 
L 277.039913 -119.802162 
L 260.278724 -121.54883 
L 243.517534 -125.424223 
L 226.756344 -127.894088 
L 209.995154 -133.078229 
L 193.233964 -138.162041 
L 176.472775 -144.367218 
L 159.711585 -151.031696 
L 142.950395 -157.97918 
L 126.189205 -167.786966 
L 109.428015 -179.068731 
L 92.666825 -192.286782 
L 75.905636 -205.301549 
L 59.144446 -219.214549 
z
" id="mabd9f5d2ae" style="stroke:#ff7f0e;stroke-opacity:0.2;"/>
    </defs>
    <g clip-path="url(#p1706040ef2)">
     <use style="fill:#ff7f0e;fill-opacity:0.2;stroke:#ff7f0e;stroke-opacity:0.2;" x="0" xlink:href="#mabd9f5d2ae" y="351.754687"/>
    </g>
   </g>
   <g id="PolyCollection_3">
    <defs>
     <path d="M 59.144446 -50.899519 
L 59.144446 -50.892614 
L 75.905636 -50.895968 
L 92.666825 -50.896877 
L 109.428015 -50.896493 
L 126.189205 -50.897816 
L 142.950395 -50.89787 
L 159.711585 -50.901123 
L 176.472775 -50.899447 
L 193.233964 -50.904776 
L 209.995154 -50.907043 
L 226.756344 -50.908789 
L 243.517534 -50.918014 
L 260.278724 -50.933332 
L 277.039913 -50.953384 
L 293.801103 -50.997115 
L 310.562293 -51.11206 
L 327.323483 -52.515526 
L 344.084673 -91.99539 
L 360.845863 -191.307297 
L 360.845863 -191.571048 
L 360.845863 -191.571048 
L 344.084673 -93.630487 
L 327.323483 -52.682965 
L 310.562293 -51.228366 
L 293.801103 -51.009134 
L 277.039913 -50.958716 
L 260.278724 -50.937488 
L 243.517534 -50.921512 
L 226.756344 -50.911425 
L 209.995154 -50.912949 
L 193.233964 -50.910683 
L 176.472775 -50.903926 
L 159.711585 -50.904668 
L 142.950395 -50.902934 
L 126.189205 -50.903789 
L 109.428015 -50.901177 
L 92.666825 -50.903646 
L 75.905636 -50.900745 
L 59.144446 -50.899519 
z
" id="m37a4c551df" style="stroke:#2ca02c;stroke-opacity:0.2;"/>
    </defs>
    <g clip-path="url(#p1706040ef2)">
     <use style="fill:#2ca02c;fill-opacity:0.2;stroke:#2ca02c;stroke-opacity:0.2;" x="0" xlink:href="#m37a4c551df" y="351.754687"/>
    </g>
   </g>
   <g id="matplotlib.axis_1">
    <g id="xtick_1">
     <g id="line2d_1">
      <defs>
       <path d="M 0 0 
L 0 3.5 
" id="m019310dd5a" style="stroke:#000000;stroke-width:0.8;"/>
      </defs>
      <g>
       <use style="stroke:#000000;stroke-width:0.8;" x="84.286231" xlink:href="#m019310dd5a" y="314.198437"/>
      </g>
     </g>
     <g id="text_1">
      <!-- −7.5 -->
      <defs>
       <path d="M 10.59375 35.5 
L 73.1875 35.5 
L 73.1875 27.203125 
L 10.59375 27.203125 
z
" id="DejaVuSans-8722"/>
       <path d="M 8.203125 72.90625 
L 55.078125 72.90625 
L 55.078125 68.703125 
L 28.609375 0 
L 18.3125 0 
L 43.21875 64.59375 
L 8.203125 64.59375 
z
" id="DejaVuSans-55"/>
       <path d="M 10.6875 12.40625 
L 21 12.40625 
L 21 0 
L 10.6875 0 
z
" id="DejaVuSans-46"/>
       <path d="M 10.796875 72.90625 
L 49.515625 72.90625 
L 49.515625 64.59375 
L 19.828125 64.59375 
L 19.828125 46.734375 
Q 21.96875 47.46875 24.109375 47.828125 
Q 26.265625 48.1875 28.421875 48.1875 
Q 40.625 48.1875 47.75 41.5 
Q 54.890625 34.8125 54.890625 23.390625 
Q 54.890625 11.625 47.5625 5.09375 
Q 40.234375 -1.421875 26.90625 -1.421875 
Q 22.3125 -1.421875 17.546875 -0.640625 
Q 12.796875 0.140625 7.71875 1.703125 
L 7.71875 11.625 
Q 12.109375 9.234375 16.796875 8.0625 
Q 21.484375 6.890625 26.703125 6.890625 
Q 35.15625 6.890625 40.078125 11.328125 
Q 45.015625 15.765625 45.015625 23.390625 
Q 45.015625 31 40.078125 35.4375 
Q 35.15625 39.890625 26.703125 39.890625 
Q 22.75 39.890625 18.8125 39.015625 
Q 14.890625 38.140625 10.796875 36.28125 
z
" id="DejaVuSans-53"/>
      </defs>
      <g transform="translate(72.144824 328.796875)scale(0.1 -0.1)">
       <use xlink:href="#DejaVuSans-8722"/>
       <use x="83.789062" xlink:href="#DejaVuSans-55"/>
       <use x="147.412109" xlink:href="#DejaVuSans-46"/>
       <use x="179.199219" xlink:href="#DejaVuSans-53"/>
      </g>
     </g>
    </g>
    <g id="xtick_2">
     <g id="line2d_2">
      <g>
       <use style="stroke:#000000;stroke-width:0.8;" x="126.189205" xlink:href="#m019310dd5a" y="314.198437"/>
      </g>
     </g>
     <g id="text_2">
      <!-- −5.0 -->
      <defs>
       <path d="M 31.78125 66.40625 
Q 24.171875 66.40625 20.328125 58.90625 
Q 16.5 51.421875 16.5 36.375 
Q 16.5 21.390625 20.328125 13.890625 
Q 24.171875 6.390625 31.78125 6.390625 
Q 39.453125 6.390625 43.28125 13.890625 
Q 47.125 21.390625 47.125 36.375 
Q 47.125 51.421875 43.28125 58.90625 
Q 39.453125 66.40625 31.78125 66.40625 
z
M 31.78125 74.21875 
Q 44.046875 74.21875 50.515625 64.515625 
Q 56.984375 54.828125 56.984375 36.375 
Q 56.984375 17.96875 50.515625 8.265625 
Q 44.046875 -1.421875 31.78125 -1.421875 
Q 19.53125 -1.421875 13.0625 8.265625 
Q 6.59375 17.96875 6.59375 36.375 
Q 6.59375 54.828125 13.0625 64.515625 
Q 19.53125 74.21875 31.78125 74.21875 
z
" id="DejaVuSans-48"/>
      </defs>
      <g transform="translate(114.047799 328.796875)scale(0.1 -0.1)">
       <use xlink:href="#DejaVuSans-8722"/>
       <use x="83.789062" xlink:href="#DejaVuSans-53"/>
       <use x="147.412109" xlink:href="#DejaVuSans-46"/>
       <use x="179.199219" xlink:href="#DejaVuSans-48"/>
      </g>
     </g>
    </g>
    <g id="xtick_3">
     <g id="line2d_3">
      <g>
       <use style="stroke:#000000;stroke-width:0.8;" x="168.09218" xlink:href="#m019310dd5a" y="314.198437"/>
      </g>
     </g>
     <g id="text_3">
      <!-- −2.5 -->
      <defs>
       <path d="M 19.1875 8.296875 
L 53.609375 8.296875 
L 53.609375 0 
L 7.328125 0 
L 7.328125 8.296875 
Q 12.9375 14.109375 22.625 23.890625 
Q 32.328125 33.6875 34.8125 36.53125 
Q 39.546875 41.84375 41.421875 45.53125 
Q 43.3125 49.21875 43.3125 52.78125 
Q 43.3125 58.59375 39.234375 62.25 
Q 35.15625 65.921875 28.609375 65.921875 
Q 23.96875 65.921875 18.8125 64.3125 
Q 13.671875 62.703125 7.8125 59.421875 
L 7.8125 69.390625 
Q 13.765625 71.78125 18.9375 73 
Q 24.125 74.21875 28.421875 74.21875 
Q 39.75 74.21875 46.484375 68.546875 
Q 53.21875 62.890625 53.21875 53.421875 
Q 53.21875 48.921875 51.53125 44.890625 
Q 49.859375 40.875 45.40625 35.40625 
Q 44.1875 33.984375 37.640625 27.21875 
Q 31.109375 20.453125 19.1875 8.296875 
z
" id="DejaVuSans-50"/>
      </defs>
      <g transform="translate(155.950773 328.796875)scale(0.1 -0.1)">
       <use xlink:href="#DejaVuSans-8722"/>
       <use x="83.789062" xlink:href="#DejaVuSans-50"/>
       <use x="147.412109" xlink:href="#DejaVuSans-46"/>
       <use x="179.199219" xlink:href="#DejaVuSans-53"/>
      </g>
     </g>
    </g>
    <g id="xtick_4">
     <g id="line2d_4">
      <g>
       <use style="stroke:#000000;stroke-width:0.8;" x="209.995154" xlink:href="#m019310dd5a" y="314.198437"/>
      </g>
     </g>
     <g id="text_4">
      <!-- 0.0 -->
      <g transform="translate(202.043592 328.796875)scale(0.1 -0.1)">
       <use xlink:href="#DejaVuSans-48"/>
       <use x="63.623047" xlink:href="#DejaVuSans-46"/>
       <use x="95.410156" xlink:href="#DejaVuSans-48"/>
      </g>
     </g>
    </g>
    <g id="xtick_5">
     <g id="line2d_5">
      <g>
       <use style="stroke:#000000;stroke-width:0.8;" x="251.898129" xlink:href="#m019310dd5a" y="314.198437"/>
      </g>
     </g>
     <g id="text_5">
      <!-- 2.5 -->
      <g transform="translate(243.946566 328.796875)scale(0.1 -0.1)">
       <use xlink:href="#DejaVuSans-50"/>
       <use x="63.623047" xlink:href="#DejaVuSans-46"/>
       <use x="95.410156" xlink:href="#DejaVuSans-53"/>
      </g>
     </g>
    </g>
    <g id="xtick_6">
     <g id="line2d_6">
      <g>
       <use style="stroke:#000000;stroke-width:0.8;" x="293.801103" xlink:href="#m019310dd5a" y="314.198437"/>
      </g>
     </g>
     <g id="text_6">
      <!-- 5.0 -->
      <g transform="translate(285.849541 328.796875)scale(0.1 -0.1)">
       <use xlink:href="#DejaVuSans-53"/>
       <use x="63.623047" xlink:href="#DejaVuSans-46"/>
       <use x="95.410156" xlink:href="#DejaVuSans-48"/>
      </g>
     </g>
    </g>
    <g id="xtick_7">
     <g id="line2d_7">
      <g>
       <use style="stroke:#000000;stroke-width:0.8;" x="335.704078" xlink:href="#m019310dd5a" y="314.198437"/>
      </g>
     </g>
     <g id="text_7">
      <!-- 7.5 -->
      <g transform="translate(327.752515 328.796875)scale(0.1 -0.1)">
       <use xlink:href="#DejaVuSans-55"/>
       <use x="63.623047" xlink:href="#DejaVuSans-46"/>
       <use x="95.410156" xlink:href="#DejaVuSans-53"/>
      </g>
     </g>
    </g>
    <g id="text_8">
     <!-- spill -->
     <defs>
      <path d="M 44.28125 53.078125 
L 44.28125 44.578125 
Q 40.484375 46.53125 36.375 47.5 
Q 32.28125 48.484375 27.875 48.484375 
Q 21.1875 48.484375 17.84375 46.4375 
Q 14.5 44.390625 14.5 40.28125 
Q 14.5 37.15625 16.890625 35.375 
Q 19.28125 33.59375 26.515625 31.984375 
L 29.59375 31.296875 
Q 39.15625 29.25 43.1875 25.515625 
Q 47.21875 21.78125 47.21875 15.09375 
Q 47.21875 7.46875 41.1875 3.015625 
Q 35.15625 -1.421875 24.609375 -1.421875 
Q 20.21875 -1.421875 15.453125 -0.5625 
Q 10.6875 0.296875 5.421875 2 
L 5.421875 11.28125 
Q 10.40625 8.6875 15.234375 7.390625 
Q 20.0625 6.109375 24.8125 6.109375 
Q 31.15625 6.109375 34.5625 8.28125 
Q 37.984375 10.453125 37.984375 14.40625 
Q 37.984375 18.0625 35.515625 20.015625 
Q 33.0625 21.96875 24.703125 23.78125 
L 21.578125 24.515625 
Q 13.234375 26.265625 9.515625 29.90625 
Q 5.8125 33.546875 5.8125 39.890625 
Q 5.8125 47.609375 11.28125 51.796875 
Q 16.75 56 26.8125 56 
Q 31.78125 56 36.171875 55.265625 
Q 40.578125 54.546875 44.28125 53.078125 
z
" id="DejaVuSans-115"/>
      <path d="M 18.109375 8.203125 
L 18.109375 -20.796875 
L 9.078125 -20.796875 
L 9.078125 54.6875 
L 18.109375 54.6875 
L 18.109375 46.390625 
Q 20.953125 51.265625 25.265625 53.625 
Q 29.59375 56 35.59375 56 
Q 45.5625 56 51.78125 48.09375 
Q 58.015625 40.1875 58.015625 27.296875 
Q 58.015625 14.40625 51.78125 6.484375 
Q 45.5625 -1.421875 35.59375 -1.421875 
Q 29.59375 -1.421875 25.265625 0.953125 
Q 20.953125 3.328125 18.109375 8.203125 
z
M 48.6875 27.296875 
Q 48.6875 37.203125 44.609375 42.84375 
Q 40.53125 48.484375 33.40625 48.484375 
Q 26.265625 48.484375 22.1875 42.84375 
Q 18.109375 37.203125 18.109375 27.296875 
Q 18.109375 17.390625 22.1875 11.75 
Q 26.265625 6.109375 33.40625 6.109375 
Q 40.53125 6.109375 44.609375 11.75 
Q 48.6875 17.390625 48.6875 27.296875 
z
" id="DejaVuSans-112"/>
      <path d="M 9.421875 54.6875 
L 18.40625 54.6875 
L 18.40625 0 
L 9.421875 0 
z
M 9.421875 75.984375 
L 18.40625 75.984375 
L 18.40625 64.59375 
L 9.421875 64.59375 
z
" id="DejaVuSans-105"/>
      <path d="M 9.421875 75.984375 
L 18.40625 75.984375 
L 18.40625 0 
L 9.421875 0 
z
" id="DejaVuSans-108"/>
     </defs>
     <g transform="translate(200.04906 342.475)scale(0.1 -0.1)">
      <use xlink:href="#DejaVuSans-115"/>
      <use x="52.099609" xlink:href="#DejaVuSans-112"/>
      <use x="115.576172" xlink:href="#DejaVuSans-105"/>
      <use x="143.359375" xlink:href="#DejaVuSans-108"/>
      <use x="171.142578" xlink:href="#DejaVuSans-108"/>
     </g>
    </g>
   </g>
   <g id="matplotlib.axis_2">
    <g id="ytick_1">
     <g id="line2d_8">
      <defs>
       <path d="M 0 0 
L -3.5 0 
" id="mb3690bc41f" style="stroke:#000000;stroke-width:0.8;"/>
      </defs>
      <g>
       <use style="stroke:#000000;stroke-width:0.8;" x="44.059375" xlink:href="#mb3690bc41f" y="300.963408"/>
      </g>
     </g>
     <g id="text_9">
      <!-- 0.0 -->
      <g transform="translate(21.15625 304.762627)scale(0.1 -0.1)">
       <use xlink:href="#DejaVuSans-48"/>
       <use x="63.623047" xlink:href="#DejaVuSans-46"/>
       <use x="95.410156" xlink:href="#DejaVuSans-48"/>
      </g>
     </g>
    </g>
    <g id="ytick_2">
     <g id="line2d_9">
      <g>
       <use style="stroke:#000000;stroke-width:0.8;" x="44.059375" xlink:href="#mb3690bc41f" y="265.579072"/>
      </g>
     </g>
     <g id="text_10">
      <!-- 0.2 -->
      <g transform="translate(21.15625 269.37829)scale(0.1 -0.1)">
       <use xlink:href="#DejaVuSans-48"/>
       <use x="63.623047" xlink:href="#DejaVuSans-46"/>
       <use x="95.410156" xlink:href="#DejaVuSans-50"/>
      </g>
     </g>
    </g>
    <g id="ytick_3">
     <g id="line2d_10">
      <g>
       <use style="stroke:#000000;stroke-width:0.8;" x="44.059375" xlink:href="#mb3690bc41f" y="230.194736"/>
      </g>
     </g>
     <g id="text_11">
      <!-- 0.4 -->
      <defs>
       <path d="M 37.796875 64.3125 
L 12.890625 25.390625 
L 37.796875 25.390625 
z
M 35.203125 72.90625 
L 47.609375 72.90625 
L 47.609375 25.390625 
L 58.015625 25.390625 
L 58.015625 17.1875 
L 47.609375 17.1875 
L 47.609375 0 
L 37.796875 0 
L 37.796875 17.1875 
L 4.890625 17.1875 
L 4.890625 26.703125 
z
" id="DejaVuSans-52"/>
      </defs>
      <g transform="translate(21.15625 233.993954)scale(0.1 -0.1)">
       <use xlink:href="#DejaVuSans-48"/>
       <use x="63.623047" xlink:href="#DejaVuSans-46"/>
       <use x="95.410156" xlink:href="#DejaVuSans-52"/>
      </g>
     </g>
    </g>
    <g id="ytick_4">
     <g id="line2d_11">
      <g>
       <use style="stroke:#000000;stroke-width:0.8;" x="44.059375" xlink:href="#mb3690bc41f" y="194.810399"/>
      </g>
     </g>
     <g id="text_12">
      <!-- 0.6 -->
      <defs>
       <path d="M 33.015625 40.375 
Q 26.375 40.375 22.484375 35.828125 
Q 18.609375 31.296875 18.609375 23.390625 
Q 18.609375 15.53125 22.484375 10.953125 
Q 26.375 6.390625 33.015625 6.390625 
Q 39.65625 6.390625 43.53125 10.953125 
Q 47.40625 15.53125 47.40625 23.390625 
Q 47.40625 31.296875 43.53125 35.828125 
Q 39.65625 40.375 33.015625 40.375 
z
M 52.59375 71.296875 
L 52.59375 62.3125 
Q 48.875 64.0625 45.09375 64.984375 
Q 41.3125 65.921875 37.59375 65.921875 
Q 27.828125 65.921875 22.671875 59.328125 
Q 17.53125 52.734375 16.796875 39.40625 
Q 19.671875 43.65625 24.015625 45.921875 
Q 28.375 48.1875 33.59375 48.1875 
Q 44.578125 48.1875 50.953125 41.515625 
Q 57.328125 34.859375 57.328125 23.390625 
Q 57.328125 12.15625 50.6875 5.359375 
Q 44.046875 -1.421875 33.015625 -1.421875 
Q 20.359375 -1.421875 13.671875 8.265625 
Q 6.984375 17.96875 6.984375 36.375 
Q 6.984375 53.65625 15.1875 63.9375 
Q 23.390625 74.21875 37.203125 74.21875 
Q 40.921875 74.21875 44.703125 73.484375 
Q 48.484375 72.75 52.59375 71.296875 
z
" id="DejaVuSans-54"/>
      </defs>
      <g transform="translate(21.15625 198.609618)scale(0.1 -0.1)">
       <use xlink:href="#DejaVuSans-48"/>
       <use x="63.623047" xlink:href="#DejaVuSans-46"/>
       <use x="95.410156" xlink:href="#DejaVuSans-54"/>
      </g>
     </g>
    </g>
    <g id="ytick_5">
     <g id="line2d_12">
      <g>
       <use style="stroke:#000000;stroke-width:0.8;" x="44.059375" xlink:href="#mb3690bc41f" y="159.426063"/>
      </g>
     </g>
     <g id="text_13">
      <!-- 0.8 -->
      <defs>
       <path d="M 31.78125 34.625 
Q 24.75 34.625 20.71875 30.859375 
Q 16.703125 27.09375 16.703125 20.515625 
Q 16.703125 13.921875 20.71875 10.15625 
Q 24.75 6.390625 31.78125 6.390625 
Q 38.8125 6.390625 42.859375 10.171875 
Q 46.921875 13.96875 46.921875 20.515625 
Q 46.921875 27.09375 42.890625 30.859375 
Q 38.875 34.625 31.78125 34.625 
z
M 21.921875 38.8125 
Q 15.578125 40.375 12.03125 44.71875 
Q 8.5 49.078125 8.5 55.328125 
Q 8.5 64.0625 14.71875 69.140625 
Q 20.953125 74.21875 31.78125 74.21875 
Q 42.671875 74.21875 48.875 69.140625 
Q 55.078125 64.0625 55.078125 55.328125 
Q 55.078125 49.078125 51.53125 44.71875 
Q 48 40.375 41.703125 38.8125 
Q 48.828125 37.15625 52.796875 32.3125 
Q 56.78125 27.484375 56.78125 20.515625 
Q 56.78125 9.90625 50.3125 4.234375 
Q 43.84375 -1.421875 31.78125 -1.421875 
Q 19.734375 -1.421875 13.25 4.234375 
Q 6.78125 9.90625 6.78125 20.515625 
Q 6.78125 27.484375 10.78125 32.3125 
Q 14.796875 37.15625 21.921875 38.8125 
z
M 18.3125 54.390625 
Q 18.3125 48.734375 21.84375 45.5625 
Q 25.390625 42.390625 31.78125 42.390625 
Q 38.140625 42.390625 41.71875 45.5625 
Q 45.3125 48.734375 45.3125 54.390625 
Q 45.3125 60.0625 41.71875 63.234375 
Q 38.140625 66.40625 31.78125 66.40625 
Q 25.390625 66.40625 21.84375 63.234375 
Q 18.3125 60.0625 18.3125 54.390625 
z
" id="DejaVuSans-56"/>
      </defs>
      <g transform="translate(21.15625 163.225282)scale(0.1 -0.1)">
       <use xlink:href="#DejaVuSans-48"/>
       <use x="63.623047" xlink:href="#DejaVuSans-46"/>
       <use x="95.410156" xlink:href="#DejaVuSans-56"/>
      </g>
     </g>
    </g>
    <g id="ytick_6">
     <g id="line2d_13">
      <g>
       <use style="stroke:#000000;stroke-width:0.8;" x="44.059375" xlink:href="#mb3690bc41f" y="124.041727"/>
      </g>
     </g>
     <g id="text_14">
      <!-- 1.0 -->
      <defs>
       <path d="M 12.40625 8.296875 
L 28.515625 8.296875 
L 28.515625 63.921875 
L 10.984375 60.40625 
L 10.984375 69.390625 
L 28.421875 72.90625 
L 38.28125 72.90625 
L 38.28125 8.296875 
L 54.390625 8.296875 
L 54.390625 0 
L 12.40625 0 
z
" id="DejaVuSans-49"/>
      </defs>
      <g transform="translate(21.15625 127.840946)scale(0.1 -0.1)">
       <use xlink:href="#DejaVuSans-49"/>
       <use x="63.623047" xlink:href="#DejaVuSans-46"/>
       <use x="95.410156" xlink:href="#DejaVuSans-48"/>
      </g>
     </g>
    </g>
    <g id="ytick_7">
     <g id="line2d_14">
      <g>
       <use style="stroke:#000000;stroke-width:0.8;" x="44.059375" xlink:href="#mb3690bc41f" y="88.657391"/>
      </g>
     </g>
     <g id="text_15">
      <!-- 1.2 -->
      <g transform="translate(21.15625 92.45661)scale(0.1 -0.1)">
       <use xlink:href="#DejaVuSans-49"/>
       <use x="63.623047" xlink:href="#DejaVuSans-46"/>
       <use x="95.410156" xlink:href="#DejaVuSans-50"/>
      </g>
     </g>
    </g>
    <g id="ytick_8">
     <g id="line2d_15">
      <g>
       <use style="stroke:#000000;stroke-width:0.8;" x="44.059375" xlink:href="#mb3690bc41f" y="53.273055"/>
      </g>
     </g>
     <g id="text_16">
      <!-- 1.4 -->
      <g transform="translate(21.15625 57.072273)scale(0.1 -0.1)">
       <use xlink:href="#DejaVuSans-49"/>
       <use x="63.623047" xlink:href="#DejaVuSans-46"/>
       <use x="95.410156" xlink:href="#DejaVuSans-52"/>
      </g>
     </g>
    </g>
    <g id="text_17">
     <!-- best_total -->
     <defs>
      <path d="M 48.6875 27.296875 
Q 48.6875 37.203125 44.609375 42.84375 
Q 40.53125 48.484375 33.40625 48.484375 
Q 26.265625 48.484375 22.1875 42.84375 
Q 18.109375 37.203125 18.109375 27.296875 
Q 18.109375 17.390625 22.1875 11.75 
Q 26.265625 6.109375 33.40625 6.109375 
Q 40.53125 6.109375 44.609375 11.75 
Q 48.6875 17.390625 48.6875 27.296875 
z
M 18.109375 46.390625 
Q 20.953125 51.265625 25.265625 53.625 
Q 29.59375 56 35.59375 56 
Q 45.5625 56 51.78125 48.09375 
Q 58.015625 40.1875 58.015625 27.296875 
Q 58.015625 14.40625 51.78125 6.484375 
Q 45.5625 -1.421875 35.59375 -1.421875 
Q 29.59375 -1.421875 25.265625 0.953125 
Q 20.953125 3.328125 18.109375 8.203125 
L 18.109375 0 
L 9.078125 0 
L 9.078125 75.984375 
L 18.109375 75.984375 
z
" id="DejaVuSans-98"/>
      <path d="M 56.203125 29.59375 
L 56.203125 25.203125 
L 14.890625 25.203125 
Q 15.484375 15.921875 20.484375 11.0625 
Q 25.484375 6.203125 34.421875 6.203125 
Q 39.59375 6.203125 44.453125 7.46875 
Q 49.3125 8.734375 54.109375 11.28125 
L 54.109375 2.78125 
Q 49.265625 0.734375 44.1875 -0.34375 
Q 39.109375 -1.421875 33.890625 -1.421875 
Q 20.796875 -1.421875 13.15625 6.1875 
Q 5.515625 13.8125 5.515625 26.8125 
Q 5.515625 40.234375 12.765625 48.109375 
Q 20.015625 56 32.328125 56 
Q 43.359375 56 49.78125 48.890625 
Q 56.203125 41.796875 56.203125 29.59375 
z
M 47.21875 32.234375 
Q 47.125 39.59375 43.09375 43.984375 
Q 39.0625 48.390625 32.421875 48.390625 
Q 24.90625 48.390625 20.390625 44.140625 
Q 15.875 39.890625 15.1875 32.171875 
z
" id="DejaVuSans-101"/>
      <path d="M 18.3125 70.21875 
L 18.3125 54.6875 
L 36.8125 54.6875 
L 36.8125 47.703125 
L 18.3125 47.703125 
L 18.3125 18.015625 
Q 18.3125 11.328125 20.140625 9.421875 
Q 21.96875 7.515625 27.59375 7.515625 
L 36.8125 7.515625 
L 36.8125 0 
L 27.59375 0 
Q 17.1875 0 13.234375 3.875 
Q 9.28125 7.765625 9.28125 18.015625 
L 9.28125 47.703125 
L 2.6875 47.703125 
L 2.6875 54.6875 
L 9.28125 54.6875 
L 9.28125 70.21875 
z
" id="DejaVuSans-116"/>
      <path d="M 50.984375 -16.609375 
L 50.984375 -23.578125 
L -0.984375 -23.578125 
L -0.984375 -16.609375 
z
" id="DejaVuSans-95"/>
      <path d="M 30.609375 48.390625 
Q 23.390625 48.390625 19.1875 42.75 
Q 14.984375 37.109375 14.984375 27.296875 
Q 14.984375 17.484375 19.15625 11.84375 
Q 23.34375 6.203125 30.609375 6.203125 
Q 37.796875 6.203125 41.984375 11.859375 
Q 46.1875 17.53125 46.1875 27.296875 
Q 46.1875 37.015625 41.984375 42.703125 
Q 37.796875 48.390625 30.609375 48.390625 
z
M 30.609375 56 
Q 42.328125 56 49.015625 48.375 
Q 55.71875 40.765625 55.71875 27.296875 
Q 55.71875 13.875 49.015625 6.21875 
Q 42.328125 -1.421875 30.609375 -1.421875 
Q 18.84375 -1.421875 12.171875 6.21875 
Q 5.515625 13.875 5.515625 27.296875 
Q 5.515625 40.765625 12.171875 48.375 
Q 18.84375 56 30.609375 56 
z
" id="DejaVuSans-111"/>
      <path d="M 34.28125 27.484375 
Q 23.390625 27.484375 19.1875 25 
Q 14.984375 22.515625 14.984375 16.5 
Q 14.984375 11.71875 18.140625 8.90625 
Q 21.296875 6.109375 26.703125 6.109375 
Q 34.1875 6.109375 38.703125 11.40625 
Q 43.21875 16.703125 43.21875 25.484375 
L 43.21875 27.484375 
z
M 52.203125 31.203125 
L 52.203125 0 
L 43.21875 0 
L 43.21875 8.296875 
Q 40.140625 3.328125 35.546875 0.953125 
Q 30.953125 -1.421875 24.3125 -1.421875 
Q 15.921875 -1.421875 10.953125 3.296875 
Q 6 8.015625 6 15.921875 
Q 6 25.140625 12.171875 29.828125 
Q 18.359375 34.515625 30.609375 34.515625 
L 43.21875 34.515625 
L 43.21875 35.40625 
Q 43.21875 41.609375 39.140625 45 
Q 35.0625 48.390625 27.6875 48.390625 
Q 23 48.390625 18.546875 47.265625 
Q 14.109375 46.140625 10.015625 43.890625 
L 10.015625 52.203125 
Q 14.9375 54.109375 19.578125 55.046875 
Q 24.21875 56 28.609375 56 
Q 40.484375 56 46.34375 49.84375 
Q 52.203125 43.703125 52.203125 31.203125 
z
" id="DejaVuSans-97"/>
     </defs>
     <g transform="translate(14.798437 192.246875)rotate(-90)scale(0.1 -0.1)">
      <use xlink:href="#DejaVuSans-98"/>
      <use x="63.476562" xlink:href="#DejaVuSans-101"/>
      <use x="125" xlink:href="#DejaVuSans-115"/>
      <use x="177.099609" xlink:href="#DejaVuSans-116"/>
      <use x="216.308594" xlink:href="#DejaVuSans-95"/>
      <use x="266.308594" xlink:href="#DejaVuSans-116"/>
      <use x="305.517578" xlink:href="#DejaVuSans-111"/>
      <use x="366.699219" xlink:href="#DejaVuSans-116"/>
      <use x="405.908203" xlink:href="#DejaVuSans-97"/>
      <use x="467.1875" xlink:href="#DejaVuSans-108"/>
     </g>
    </g>
   </g>
   <g id="line2d_16">
    <path clip-path="url(#p1706040ef2)" d="M 59.144446 131.242524 
L 75.905636 144.987704 
L 92.666825 158.038461 
L 109.428015 171.116796 
L 126.189205 182.371174 
L 142.950395 192.068892 
L 159.711585 199.174995 
L 176.472775 205.686544 
L 193.233964 211.79279 
L 209.995154 217.078378 
L 226.756344 222.059205 
L 243.517534 224.713969 
L 260.278724 228.628841 
L 277.039913 230.414177 
L 293.801103 231.203725 
L 310.562293 229.50939 
L 327.323483 227.67277 
L 344.084673 185.662095 
L 360.845863 93.086941 
" style="fill:none;stroke:#1f77b4;stroke-linecap:square;stroke-width:1.5;"/>
   </g>
   <g id="line2d_17">
    <path clip-path="url(#p1706040ef2)" d="M 59.144446 132.698358 
L 75.905636 146.649157 
L 92.666825 159.83198 
L 109.428015 173.238616 
L 126.189205 184.665224 
L 142.950395 194.37392 
L 159.711585 201.434828 
L 176.472775 207.929207 
L 193.233964 214.068004 
L 209.995154 219.400349 
L 226.756344 224.391066 
L 243.517534 227.141101 
L 260.278724 231.192404 
L 277.039913 233.157971 
L 293.801103 234.357149 
L 310.562293 233.734049 
L 327.323483 236.497628 
L 344.084673 237.14678 
L 360.845863 236.180218 
" style="fill:none;stroke:#ff7f0e;stroke-linecap:square;stroke-width:1.5;"/>
   </g>
   <g id="line2d_18">
    <path clip-path="url(#p1706040ef2)" d="M 59.144446 300.858638 
L 75.905636 300.856222 
L 92.666825 300.854403 
L 109.428015 300.855839 
L 126.189205 300.854027 
L 142.950395 300.854219 
L 159.711585 300.851731 
L 176.472775 300.852954 
L 193.233964 300.847049 
L 209.995154 300.844794 
L 226.756344 300.844545 
L 243.517534 300.834973 
L 260.278724 300.819235 
L 277.039913 300.798758 
L 293.801103 300.750899 
L 310.562293 300.59897 
L 327.323483 299.156634 
L 344.084673 258.946874 
L 360.845863 160.313453 
" style="fill:none;stroke:#2ca02c;stroke-linecap:square;stroke-width:1.5;"/>
   </g>
   <g id="line2d_19"/>
   <g id="line2d_20"/>
   <g id="line2d_21"/>
   <g id="line2d_22"/>
   <g id="patch_3">
    <path d="M 44.059375 314.198437 
L 44.059375 20.798437 
" style="fill:none;stroke:#000000;stroke-linecap:square;stroke-linejoin:miter;stroke-width:0.8;"/>
   </g>
   <g id="patch_4">
    <path d="M 44.059375 314.198437 
L 375.930933 314.198437 
" style="fill:none;stroke:#000000;stroke-linecap:square;stroke-linejoin:miter;stroke-width:0.8;"/>
   </g>
   <g id="text_18">
    <!-- feature_type = colors -->
    <defs>
     <path d="M 37.109375 75.984375 
L 37.109375 68.5 
L 28.515625 68.5 
Q 23.6875 68.5 21.796875 66.546875 
Q 19.921875 64.59375 19.921875 59.515625 
L 19.921875 54.6875 
L 34.71875 54.6875 
L 34.71875 47.703125 
L 19.921875 47.703125 
L 19.921875 0 
L 10.890625 0 
L 10.890625 47.703125 
L 2.296875 47.703125 
L 2.296875 54.6875 
L 10.890625 54.6875 
L 10.890625 58.5 
Q 10.890625 67.625 15.140625 71.796875 
Q 19.390625 75.984375 28.609375 75.984375 
z
" id="DejaVuSans-102"/>
     <path d="M 8.5 21.578125 
L 8.5 54.6875 
L 17.484375 54.6875 
L 17.484375 21.921875 
Q 17.484375 14.15625 20.5 10.265625 
Q 23.53125 6.390625 29.59375 6.390625 
Q 36.859375 6.390625 41.078125 11.03125 
Q 45.3125 15.671875 45.3125 23.6875 
L 45.3125 54.6875 
L 54.296875 54.6875 
L 54.296875 0 
L 45.3125 0 
L 45.3125 8.40625 
Q 42.046875 3.421875 37.71875 1 
Q 33.40625 -1.421875 27.6875 -1.421875 
Q 18.265625 -1.421875 13.375 4.4375 
Q 8.5 10.296875 8.5 21.578125 
z
M 31.109375 56 
z
" id="DejaVuSans-117"/>
     <path d="M 41.109375 46.296875 
Q 39.59375 47.171875 37.8125 47.578125 
Q 36.03125 48 33.890625 48 
Q 26.265625 48 22.1875 43.046875 
Q 18.109375 38.09375 18.109375 28.8125 
L 18.109375 0 
L 9.078125 0 
L 9.078125 54.6875 
L 18.109375 54.6875 
L 18.109375 46.1875 
Q 20.953125 51.171875 25.484375 53.578125 
Q 30.03125 56 36.53125 56 
Q 37.453125 56 38.578125 55.875 
Q 39.703125 55.765625 41.0625 55.515625 
z
" id="DejaVuSans-114"/>
     <path d="M 32.171875 -5.078125 
Q 28.375 -14.84375 24.75 -17.8125 
Q 21.140625 -20.796875 15.09375 -20.796875 
L 7.90625 -20.796875 
L 7.90625 -13.28125 
L 13.1875 -13.28125 
Q 16.890625 -13.28125 18.9375 -11.515625 
Q 21 -9.765625 23.484375 -3.21875 
L 25.09375 0.875 
L 2.984375 54.6875 
L 12.5 54.6875 
L 29.59375 11.921875 
L 46.6875 54.6875 
L 56.203125 54.6875 
z
" id="DejaVuSans-121"/>
     <path id="DejaVuSans-32"/>
     <path d="M 10.59375 45.40625 
L 73.1875 45.40625 
L 73.1875 37.203125 
L 10.59375 37.203125 
z
M 10.59375 25.484375 
L 73.1875 25.484375 
L 73.1875 17.1875 
L 10.59375 17.1875 
z
" id="DejaVuSans-61"/>
     <path d="M 48.78125 52.59375 
L 48.78125 44.1875 
Q 44.96875 46.296875 41.140625 47.34375 
Q 37.3125 48.390625 33.40625 48.390625 
Q 24.65625 48.390625 19.8125 42.84375 
Q 14.984375 37.3125 14.984375 27.296875 
Q 14.984375 17.28125 19.8125 11.734375 
Q 24.65625 6.203125 33.40625 6.203125 
Q 37.3125 6.203125 41.140625 7.25 
Q 44.96875 8.296875 48.78125 10.40625 
L 48.78125 2.09375 
Q 45.015625 0.34375 40.984375 -0.53125 
Q 36.96875 -1.421875 32.421875 -1.421875 
Q 20.0625 -1.421875 12.78125 6.34375 
Q 5.515625 14.109375 5.515625 27.296875 
Q 5.515625 40.671875 12.859375 48.328125 
Q 20.21875 56 33.015625 56 
Q 37.15625 56 41.109375 55.140625 
Q 45.0625 54.296875 48.78125 52.59375 
z
" id="DejaVuSans-99"/>
    </defs>
    <g transform="translate(155.879529 14.798437)scale(0.1 -0.1)">
     <use xlink:href="#DejaVuSans-102"/>
     <use x="35.205078" xlink:href="#DejaVuSans-101"/>
     <use x="96.728516" xlink:href="#DejaVuSans-97"/>
     <use x="158.007812" xlink:href="#DejaVuSans-116"/>
     <use x="197.216797" xlink:href="#DejaVuSans-117"/>
     <use x="260.595703" xlink:href="#DejaVuSans-114"/>
     <use x="301.677734" xlink:href="#DejaVuSans-101"/>
     <use x="363.201172" xlink:href="#DejaVuSans-95"/>
     <use x="413.201172" xlink:href="#DejaVuSans-116"/>
     <use x="452.410156" xlink:href="#DejaVuSans-121"/>
     <use x="511.589844" xlink:href="#DejaVuSans-112"/>
     <use x="575.066406" xlink:href="#DejaVuSans-101"/>
     <use x="636.589844" xlink:href="#DejaVuSans-32"/>
     <use x="668.376953" xlink:href="#DejaVuSans-61"/>
     <use x="752.166016" xlink:href="#DejaVuSans-32"/>
     <use x="783.953125" xlink:href="#DejaVuSans-99"/>
     <use x="838.933594" xlink:href="#DejaVuSans-111"/>
     <use x="900.115234" xlink:href="#DejaVuSans-108"/>
     <use x="927.898438" xlink:href="#DejaVuSans-111"/>
     <use x="989.080078" xlink:href="#DejaVuSans-114"/>
     <use x="1030.193359" xlink:href="#DejaVuSans-115"/>
    </g>
   </g>
  </g>
  <g id="axes_2">
   <g id="patch_5">
    <path d="M 393.662161 314.198437 
L 725.53372 314.198437 
L 725.53372 20.798437 
L 393.662161 20.798437 
z
" style="fill:#ffffff;"/>
   </g>
   <g id="PolyCollection_4">
    <defs>
     <path d="M 408.747232 -234.503865 
L 408.747232 -233.917732 
L 425.508422 -217.898315 
L 442.269612 -202.286001 
L 459.030802 -188.171538 
L 475.791992 -175.657997 
L 492.553181 -165.196088 
L 509.314371 -156.997613 
L 526.075561 -149.027468 
L 542.836751 -142.855773 
L 559.597941 -136.86349 
L 576.35913 -133.785249 
L 593.12032 -132.17601 
L 609.88151 -132.53536 
L 626.6427 -133.2973 
L 643.40389 -136.690202 
L 660.16508 -141.902095 
L 676.926269 -157.31627 
L 693.687459 -210.834416 
L 710.448649 -261.78207 
L 710.448649 -264.58466 
L 710.448649 -264.58466 
L 693.687459 -214.536388 
L 676.926269 -162.115763 
L 660.16508 -145.187452 
L 643.40389 -140.267956 
L 626.6427 -135.769823 
L 609.88151 -134.609142 
L 593.12032 -134.489577 
L 576.35913 -136.005584 
L 559.597941 -139.288436 
L 542.836751 -145.247632 
L 526.075561 -150.957396 
L 509.314371 -158.299522 
L 492.553181 -166.679399 
L 475.791992 -177.144194 
L 459.030802 -189.427196 
L 442.269612 -203.348951 
L 425.508422 -218.955556 
L 408.747232 -234.503865 
z
" id="m6a9c2e99c0" style="stroke:#1f77b4;stroke-opacity:0.2;"/>
    </defs>
    <g clip-path="url(#pbec36cc7c1)">
     <use style="fill:#1f77b4;fill-opacity:0.2;stroke:#1f77b4;stroke-opacity:0.2;" x="0" xlink:href="#m6a9c2e99c0" y="351.754687"/>
    </g>
   </g>
   <g id="PolyCollection_5">
    <defs>
     <path d="M 408.747232 -218.738824 
L 408.747232 -218.486586 
L 425.508422 -201.914551 
L 442.269612 -186.081263 
L 459.030802 -171.479423 
L 475.791992 -158.74945 
L 492.553181 -147.608161 
L 509.314371 -139.00536 
L 526.075561 -130.227054 
L 542.836751 -123.500635 
L 559.597941 -116.209516 
L 576.35913 -112.410162 
L 593.12032 -108.868779 
L 609.88151 -106.603696 
L 626.6427 -104.833057 
L 643.40389 -103.663672 
L 660.16508 -102.870155 
L 676.926269 -100.301478 
L 693.687459 -101.230922 
L 710.448649 -99.841569 
L 710.448649 -102.761315 
L 710.448649 -102.761315 
L 693.687459 -104.48535 
L 676.926269 -104.924393 
L 660.16508 -105.749598 
L 643.40389 -107.145084 
L 626.6427 -107.110599 
L 609.88151 -108.635783 
L 593.12032 -110.885966 
L 576.35913 -114.261447 
L 559.597941 -118.369891 
L 542.836751 -125.298927 
L 526.075561 -131.934586 
L 509.314371 -140.215996 
L 492.553181 -148.758655 
L 475.791992 -160.022761 
L 459.030802 -172.382376 
L 442.269612 -186.863016 
L 425.508422 -202.631666 
L 408.747232 -218.738824 
z
" id="m0c32b7310d" style="stroke:#ff7f0e;stroke-opacity:0.2;"/>
    </defs>
    <g clip-path="url(#pbec36cc7c1)">
     <use style="fill:#ff7f0e;fill-opacity:0.2;stroke:#ff7f0e;stroke-opacity:0.2;" x="0" xlink:href="#m0c32b7310d" y="351.754687"/>
    </g>
   </g>
   <g id="PolyCollection_6">
    <defs>
     <path d="M 408.747232 -57.540033 
L 408.747232 -57.081802 
L 425.508422 -57.285205 
L 442.269612 -57.479144 
L 459.030802 -57.743481 
L 475.791992 -57.759758 
L 492.553181 -58.378375 
L 509.314371 -58.646868 
L 526.075561 -59.489561 
L 542.836751 -60.307293 
L 559.597941 -61.289578 
L 576.35913 -62.102465 
L 593.12032 -63.843107 
L 609.88151 -66.09007 
L 626.6427 -68.382322 
L 643.40389 -72.275865 
L 660.16508 -77.958247 
L 676.926269 -95.435024 
L 693.687459 -152.200145 
L 710.448649 -210.519481 
L 710.448649 -210.968529 
L 710.448649 -210.968529 
L 693.687459 -153.457827 
L 676.926269 -96.435859 
L 660.16508 -79.02054 
L 643.40389 -73.373917 
L 626.6427 -69.355202 
L 609.88151 -66.938467 
L 593.12032 -64.46181 
L 576.35913 -62.802112 
L 559.597941 -62.032814 
L 542.836751 -60.878083 
L 526.075561 -60.202322 
L 509.314371 -59.424512 
L 492.553181 -59.022793 
L 475.791992 -58.321489 
L 459.030802 -58.40756 
L 442.269612 -57.996043 
L 425.508422 -57.929153 
L 408.747232 -57.540033 
z
" id="mf95c0b5aa8" style="stroke:#2ca02c;stroke-opacity:0.2;"/>
    </defs>
    <g clip-path="url(#pbec36cc7c1)">
     <use style="fill:#2ca02c;fill-opacity:0.2;stroke:#2ca02c;stroke-opacity:0.2;" x="0" xlink:href="#mf95c0b5aa8" y="351.754687"/>
    </g>
   </g>
   <g id="matplotlib.axis_3">
    <g id="xtick_8">
     <g id="line2d_23">
      <g>
       <use style="stroke:#000000;stroke-width:0.8;" x="433.889017" xlink:href="#m019310dd5a" y="314.198437"/>
      </g>
     </g>
     <g id="text_19">
      <!-- −7.5 -->
      <g transform="translate(421.747611 328.796875)scale(0.1 -0.1)">
       <use xlink:href="#DejaVuSans-8722"/>
       <use x="83.789062" xlink:href="#DejaVuSans-55"/>
       <use x="147.412109" xlink:href="#DejaVuSans-46"/>
       <use x="179.199219" xlink:href="#DejaVuSans-53"/>
      </g>
     </g>
    </g>
    <g id="xtick_9">
     <g id="line2d_24">
      <g>
       <use style="stroke:#000000;stroke-width:0.8;" x="475.791992" xlink:href="#m019310dd5a" y="314.198437"/>
      </g>
     </g>
     <g id="text_20">
      <!-- −5.0 -->
      <g transform="translate(463.650585 328.796875)scale(0.1 -0.1)">
       <use xlink:href="#DejaVuSans-8722"/>
       <use x="83.789062" xlink:href="#DejaVuSans-53"/>
       <use x="147.412109" xlink:href="#DejaVuSans-46"/>
       <use x="179.199219" xlink:href="#DejaVuSans-48"/>
      </g>
     </g>
    </g>
    <g id="xtick_10">
     <g id="line2d_25">
      <g>
       <use style="stroke:#000000;stroke-width:0.8;" x="517.694966" xlink:href="#m019310dd5a" y="314.198437"/>
      </g>
     </g>
     <g id="text_21">
      <!-- −2.5 -->
      <g transform="translate(505.55356 328.796875)scale(0.1 -0.1)">
       <use xlink:href="#DejaVuSans-8722"/>
       <use x="83.789062" xlink:href="#DejaVuSans-50"/>
       <use x="147.412109" xlink:href="#DejaVuSans-46"/>
       <use x="179.199219" xlink:href="#DejaVuSans-53"/>
      </g>
     </g>
    </g>
    <g id="xtick_11">
     <g id="line2d_26">
      <g>
       <use style="stroke:#000000;stroke-width:0.8;" x="559.597941" xlink:href="#m019310dd5a" y="314.198437"/>
      </g>
     </g>
     <g id="text_22">
      <!-- 0.0 -->
      <g transform="translate(551.646378 328.796875)scale(0.1 -0.1)">
       <use xlink:href="#DejaVuSans-48"/>
       <use x="63.623047" xlink:href="#DejaVuSans-46"/>
       <use x="95.410156" xlink:href="#DejaVuSans-48"/>
      </g>
     </g>
    </g>
    <g id="xtick_12">
     <g id="line2d_27">
      <g>
       <use style="stroke:#000000;stroke-width:0.8;" x="601.500915" xlink:href="#m019310dd5a" y="314.198437"/>
      </g>
     </g>
     <g id="text_23">
      <!-- 2.5 -->
      <g transform="translate(593.549353 328.796875)scale(0.1 -0.1)">
       <use xlink:href="#DejaVuSans-50"/>
       <use x="63.623047" xlink:href="#DejaVuSans-46"/>
       <use x="95.410156" xlink:href="#DejaVuSans-53"/>
      </g>
     </g>
    </g>
    <g id="xtick_13">
     <g id="line2d_28">
      <g>
       <use style="stroke:#000000;stroke-width:0.8;" x="643.40389" xlink:href="#m019310dd5a" y="314.198437"/>
      </g>
     </g>
     <g id="text_24">
      <!-- 5.0 -->
      <g transform="translate(635.452327 328.796875)scale(0.1 -0.1)">
       <use xlink:href="#DejaVuSans-53"/>
       <use x="63.623047" xlink:href="#DejaVuSans-46"/>
       <use x="95.410156" xlink:href="#DejaVuSans-48"/>
      </g>
     </g>
    </g>
    <g id="xtick_14">
     <g id="line2d_29">
      <g>
       <use style="stroke:#000000;stroke-width:0.8;" x="685.306864" xlink:href="#m019310dd5a" y="314.198437"/>
      </g>
     </g>
     <g id="text_25">
      <!-- 7.5 -->
      <g transform="translate(677.355302 328.796875)scale(0.1 -0.1)">
       <use xlink:href="#DejaVuSans-55"/>
       <use x="63.623047" xlink:href="#DejaVuSans-46"/>
       <use x="95.410156" xlink:href="#DejaVuSans-53"/>
      </g>
     </g>
    </g>
    <g id="text_26">
     <!-- spill -->
     <g transform="translate(549.651847 342.475)scale(0.1 -0.1)">
      <use xlink:href="#DejaVuSans-115"/>
      <use x="52.099609" xlink:href="#DejaVuSans-112"/>
      <use x="115.576172" xlink:href="#DejaVuSans-105"/>
      <use x="143.359375" xlink:href="#DejaVuSans-108"/>
      <use x="171.142578" xlink:href="#DejaVuSans-108"/>
     </g>
    </g>
   </g>
   <g id="matplotlib.axis_4">
    <g id="ytick_9">
     <g id="line2d_30">
      <g>
       <use style="stroke:#000000;stroke-width:0.8;" x="393.662161" xlink:href="#mb3690bc41f" y="300.963408"/>
      </g>
     </g>
    </g>
    <g id="ytick_10">
     <g id="line2d_31">
      <g>
       <use style="stroke:#000000;stroke-width:0.8;" x="393.662161" xlink:href="#mb3690bc41f" y="265.579072"/>
      </g>
     </g>
    </g>
    <g id="ytick_11">
     <g id="line2d_32">
      <g>
       <use style="stroke:#000000;stroke-width:0.8;" x="393.662161" xlink:href="#mb3690bc41f" y="230.194736"/>
      </g>
     </g>
    </g>
    <g id="ytick_12">
     <g id="line2d_33">
      <g>
       <use style="stroke:#000000;stroke-width:0.8;" x="393.662161" xlink:href="#mb3690bc41f" y="194.810399"/>
      </g>
     </g>
    </g>
    <g id="ytick_13">
     <g id="line2d_34">
      <g>
       <use style="stroke:#000000;stroke-width:0.8;" x="393.662161" xlink:href="#mb3690bc41f" y="159.426063"/>
      </g>
     </g>
    </g>
    <g id="ytick_14">
     <g id="line2d_35">
      <g>
       <use style="stroke:#000000;stroke-width:0.8;" x="393.662161" xlink:href="#mb3690bc41f" y="124.041727"/>
      </g>
     </g>
    </g>
    <g id="ytick_15">
     <g id="line2d_36">
      <g>
       <use style="stroke:#000000;stroke-width:0.8;" x="393.662161" xlink:href="#mb3690bc41f" y="88.657391"/>
      </g>
     </g>
    </g>
    <g id="ytick_16">
     <g id="line2d_37">
      <g>
       <use style="stroke:#000000;stroke-width:0.8;" x="393.662161" xlink:href="#mb3690bc41f" y="53.273055"/>
      </g>
     </g>
    </g>
   </g>
   <g id="line2d_38">
    <path clip-path="url(#pbec36cc7c1)" d="M 408.747232 117.55827 
L 425.508422 133.331569 
L 442.269612 148.929975 
L 459.030802 162.931212 
L 475.791992 175.324775 
L 492.553181 185.78117 
L 509.314371 194.099946 
L 526.075561 201.739822 
L 542.836751 207.740401 
L 559.597941 213.693615 
L 576.35913 216.83855 
L 593.12032 218.404016 
L 609.88151 218.164789 
L 626.6427 217.2754 
L 643.40389 213.290385 
L 660.16508 208.219183 
L 676.926269 192.278442 
L 693.687459 139.198076 
L 710.448649 88.590403 
" style="fill:none;stroke:#1f77b4;stroke-linecap:square;stroke-width:1.5;"/>
   </g>
   <g id="line2d_39">
    <path clip-path="url(#pbec36cc7c1)" d="M 408.747232 133.143498 
L 425.508422 149.490425 
L 442.269612 165.280673 
L 459.030802 179.796872 
L 475.791992 192.32972 
L 492.553181 203.539092 
L 509.314371 212.140889 
L 526.075561 220.67278 
L 542.836751 227.361657 
L 559.597941 234.508176 
L 576.35913 238.45569 
L 593.12032 241.87952 
L 609.88151 244.161499 
L 626.6427 245.828523 
L 643.40389 246.398529 
L 660.16508 247.525993 
L 676.926269 249.267941 
L 693.687459 248.903946 
L 710.448649 250.44234 
" style="fill:none;stroke:#ff7f0e;stroke-linecap:square;stroke-width:1.5;"/>
   </g>
   <g id="line2d_40">
    <path clip-path="url(#pbec36cc7c1)" d="M 408.747232 294.441861 
L 425.508422 294.148977 
L 442.269612 294.030786 
L 459.030802 293.688508 
L 475.791992 293.72462 
L 492.553181 293.070128 
L 509.314371 292.772274 
L 526.075561 291.920624 
L 542.836751 291.174007 
L 559.597941 290.117412 
L 576.35913 289.321504 
L 593.12032 287.609157 
L 609.88151 285.251481 
L 626.6427 282.894425 
L 643.40389 278.899672 
L 660.16508 273.288137 
L 676.926269 255.810093 
L 693.687459 198.895233 
L 710.448649 141.013351 
" style="fill:none;stroke:#2ca02c;stroke-linecap:square;stroke-width:1.5;"/>
   </g>
   <g id="patch_6">
    <path d="M 393.662161 314.198437 
L 393.662161 20.798437 
" style="fill:none;stroke:#000000;stroke-linecap:square;stroke-linejoin:miter;stroke-width:0.8;"/>
   </g>
   <g id="patch_7">
    <path d="M 393.662161 314.198437 
L 725.53372 314.198437 
" style="fill:none;stroke:#000000;stroke-linecap:square;stroke-linejoin:miter;stroke-width:0.8;"/>
   </g>
   <g id="text_27">
    <!-- feature_type = sbm -->
    <defs>
     <path d="M 52 44.1875 
Q 55.375 50.25 60.0625 53.125 
Q 64.75 56 71.09375 56 
Q 79.640625 56 84.28125 50.015625 
Q 88.921875 44.046875 88.921875 33.015625 
L 88.921875 0 
L 79.890625 0 
L 79.890625 32.71875 
Q 79.890625 40.578125 77.09375 44.375 
Q 74.3125 48.1875 68.609375 48.1875 
Q 61.625 48.1875 57.5625 43.546875 
Q 53.515625 38.921875 53.515625 30.90625 
L 53.515625 0 
L 44.484375 0 
L 44.484375 32.71875 
Q 44.484375 40.625 41.703125 44.40625 
Q 38.921875 48.1875 33.109375 48.1875 
Q 26.21875 48.1875 22.15625 43.53125 
Q 18.109375 38.875 18.109375 30.90625 
L 18.109375 0 
L 9.078125 0 
L 9.078125 54.6875 
L 18.109375 54.6875 
L 18.109375 46.1875 
Q 21.1875 51.21875 25.484375 53.609375 
Q 29.78125 56 35.6875 56 
Q 41.65625 56 45.828125 52.96875 
Q 50 49.953125 52 44.1875 
z
" id="DejaVuSans-109"/>
    </defs>
    <g transform="translate(509.750284 14.798437)scale(0.1 -0.1)">
     <use xlink:href="#DejaVuSans-102"/>
     <use x="35.205078" xlink:href="#DejaVuSans-101"/>
     <use x="96.728516" xlink:href="#DejaVuSans-97"/>
     <use x="158.007812" xlink:href="#DejaVuSans-116"/>
     <use x="197.216797" xlink:href="#DejaVuSans-117"/>
     <use x="260.595703" xlink:href="#DejaVuSans-114"/>
     <use x="301.677734" xlink:href="#DejaVuSans-101"/>
     <use x="363.201172" xlink:href="#DejaVuSans-95"/>
     <use x="413.201172" xlink:href="#DejaVuSans-116"/>
     <use x="452.410156" xlink:href="#DejaVuSans-121"/>
     <use x="511.589844" xlink:href="#DejaVuSans-112"/>
     <use x="575.066406" xlink:href="#DejaVuSans-101"/>
     <use x="636.589844" xlink:href="#DejaVuSans-32"/>
     <use x="668.376953" xlink:href="#DejaVuSans-61"/>
     <use x="752.166016" xlink:href="#DejaVuSans-32"/>
     <use x="783.953125" xlink:href="#DejaVuSans-115"/>
     <use x="836.052734" xlink:href="#DejaVuSans-98"/>
     <use x="899.529297" xlink:href="#DejaVuSans-109"/>
    </g>
   </g>
  </g>
  <g id="axes_3">
   <g id="patch_8">
    <path d="M 743.264948 314.198437 
L 1075.136506 314.198437 
L 1075.136506 20.798437 
L 743.264948 20.798437 
z
" style="fill:#ffffff;"/>
   </g>
   <g id="PolyCollection_7">
    <defs>
     <path d="M 758.350019 -294.484962 
L 758.350019 -290.809906 
L 775.111208 -286.403389 
L 791.872398 -280.134619 
L 808.633588 -275.820069 
L 825.394778 -274.209867 
L 842.155968 -272.654746 
L 858.917158 -272.694781 
L 875.678347 -272.53085 
L 892.439537 -274.536829 
L 909.200727 -274.972876 
L 925.961917 -274.477256 
L 942.723107 -273.141484 
L 959.484296 -272.762476 
L 976.245486 -274.789264 
L 993.006676 -274.55646 
L 1009.767866 -280.987455 
L 1026.529056 -289.994876 
L 1043.290246 -299.818544 
L 1060.051435 -307.510552 
L 1060.051435 -311.693945 
L 1060.051435 -311.693945 
L 1043.290246 -304.34876 
L 1026.529056 -293.802321 
L 1009.767866 -284.510741 
L 993.006676 -279.322758 
L 976.245486 -279.443599 
L 959.484296 -276.433579 
L 942.723107 -276.859609 
L 925.961917 -278.377191 
L 909.200727 -278.392701 
L 892.439537 -278.644658 
L 875.678347 -277.315136 
L 858.917158 -277.065915 
L 842.155968 -276.536564 
L 825.394778 -277.403856 
L 808.633588 -279.277905 
L 791.872398 -284.561295 
L 775.111208 -289.704791 
L 758.350019 -294.484962 
z
" id="ma5f3ec519e" style="stroke:#1f77b4;stroke-opacity:0.2;"/>
    </defs>
    <g clip-path="url(#p0fd7b5deaa)">
     <use style="fill:#1f77b4;fill-opacity:0.2;stroke:#1f77b4;stroke-opacity:0.2;" x="0" xlink:href="#ma5f3ec519e" y="351.754687"/>
    </g>
   </g>
   <g id="PolyCollection_8">
    <defs>
     <path d="M 758.350019 -227.585053 
L 758.350019 -227.371376 
L 775.111208 -220.325004 
L 791.872398 -215.271717 
L 808.633588 -210.334671 
L 825.394778 -208.104565 
L 842.155968 -207.716877 
L 858.917158 -205.994098 
L 875.678347 -206.849337 
L 892.439537 -208.356937 
L 909.200727 -208.030805 
L 925.961917 -207.084037 
L 942.723107 -208.173961 
L 959.484296 -206.65202 
L 976.245486 -208.108488 
L 993.006676 -208.197927 
L 1009.767866 -208.778034 
L 1026.529056 -208.657589 
L 1043.290246 -209.377309 
L 1060.051435 -209.251997 
L 1060.051435 -212.993671 
L 1060.051435 -212.993671 
L 1043.290246 -212.171095 
L 1026.529056 -211.966111 
L 1009.767866 -211.816309 
L 993.006676 -211.595411 
L 976.245486 -212.233547 
L 959.484296 -209.071114 
L 942.723107 -211.206543 
L 925.961917 -210.587608 
L 909.200727 -211.401314 
L 892.439537 -211.106802 
L 875.678347 -209.649791 
L 858.917158 -208.63945 
L 842.155968 -210.487154 
L 825.394778 -210.709903 
L 808.633588 -211.763688 
L 791.872398 -216.703511 
L 775.111208 -220.741679 
L 758.350019 -227.585053 
z
" id="ma8a48b806a" style="stroke:#ff7f0e;stroke-opacity:0.2;"/>
    </defs>
    <g clip-path="url(#p0fd7b5deaa)">
     <use style="fill:#ff7f0e;fill-opacity:0.2;stroke:#ff7f0e;stroke-opacity:0.2;" x="0" xlink:href="#ma8a48b806a" y="351.754687"/>
    </g>
   </g>
   <g id="PolyCollection_9">
    <defs>
     <path d="M 758.350019 -116.553942 
L 758.350019 -112.742779 
L 775.111208 -115.326025 
L 791.872398 -113.575506 
L 808.633588 -114.141484 
L 825.394778 -114.017533 
L 842.155968 -113.42008 
L 858.917158 -114.802337 
L 875.678347 -114.025261 
L 892.439537 -114.51106 
L 909.200727 -114.745211 
L 925.961917 -115.183354 
L 942.723107 -113.141976 
L 959.484296 -114.569058 
L 976.245486 -115.035832 
L 993.006676 -114.761234 
L 1009.767866 -120.392981 
L 1026.529056 -129.121465 
L 1043.290246 -138.914509 
L 1060.051435 -146.692621 
L 1060.051435 -150.261967 
L 1060.051435 -150.261967 
L 1043.290246 -143.012106 
L 1026.529056 -133.312947 
L 1009.767866 -123.869304 
L 993.006676 -118.112708 
L 976.245486 -117.63142 
L 959.484296 -117.546981 
L 942.723107 -115.967763 
L 925.961917 -118.796058 
L 909.200727 -117.991538 
L 892.439537 -118.284412 
L 875.678347 -117.939806 
L 858.917158 -119.075074 
L 842.155968 -116.451876 
L 825.394778 -117.311081 
L 808.633588 -118.087442 
L 791.872398 -118.219208 
L 775.111208 -118.609263 
L 758.350019 -116.553942 
z
" id="mee921e5817" style="stroke:#2ca02c;stroke-opacity:0.2;"/>
    </defs>
    <g clip-path="url(#p0fd7b5deaa)">
     <use style="fill:#2ca02c;fill-opacity:0.2;stroke:#2ca02c;stroke-opacity:0.2;" x="0" xlink:href="#mee921e5817" y="351.754687"/>
    </g>
   </g>
   <g id="matplotlib.axis_5">
    <g id="xtick_15">
     <g id="line2d_41">
      <g>
       <use style="stroke:#000000;stroke-width:0.8;" x="783.491803" xlink:href="#m019310dd5a" y="314.198437"/>
      </g>
     </g>
     <g id="text_28">
      <!-- −7.5 -->
      <g transform="translate(771.350397 328.796875)scale(0.1 -0.1)">
       <use xlink:href="#DejaVuSans-8722"/>
       <use x="83.789062" xlink:href="#DejaVuSans-55"/>
       <use x="147.412109" xlink:href="#DejaVuSans-46"/>
       <use x="179.199219" xlink:href="#DejaVuSans-53"/>
      </g>
     </g>
    </g>
    <g id="xtick_16">
     <g id="line2d_42">
      <g>
       <use style="stroke:#000000;stroke-width:0.8;" x="825.394778" xlink:href="#m019310dd5a" y="314.198437"/>
      </g>
     </g>
     <g id="text_29">
      <!-- −5.0 -->
      <g transform="translate(813.253372 328.796875)scale(0.1 -0.1)">
       <use xlink:href="#DejaVuSans-8722"/>
       <use x="83.789062" xlink:href="#DejaVuSans-53"/>
       <use x="147.412109" xlink:href="#DejaVuSans-46"/>
       <use x="179.199219" xlink:href="#DejaVuSans-48"/>
      </g>
     </g>
    </g>
    <g id="xtick_17">
     <g id="line2d_43">
      <g>
       <use style="stroke:#000000;stroke-width:0.8;" x="867.297752" xlink:href="#m019310dd5a" y="314.198437"/>
      </g>
     </g>
     <g id="text_30">
      <!-- −2.5 -->
      <g transform="translate(855.156346 328.796875)scale(0.1 -0.1)">
       <use xlink:href="#DejaVuSans-8722"/>
       <use x="83.789062" xlink:href="#DejaVuSans-50"/>
       <use x="147.412109" xlink:href="#DejaVuSans-46"/>
       <use x="179.199219" xlink:href="#DejaVuSans-53"/>
      </g>
     </g>
    </g>
    <g id="xtick_18">
     <g id="line2d_44">
      <g>
       <use style="stroke:#000000;stroke-width:0.8;" x="909.200727" xlink:href="#m019310dd5a" y="314.198437"/>
      </g>
     </g>
     <g id="text_31">
      <!-- 0.0 -->
      <g transform="translate(901.249164 328.796875)scale(0.1 -0.1)">
       <use xlink:href="#DejaVuSans-48"/>
       <use x="63.623047" xlink:href="#DejaVuSans-46"/>
       <use x="95.410156" xlink:href="#DejaVuSans-48"/>
      </g>
     </g>
    </g>
    <g id="xtick_19">
     <g id="line2d_45">
      <g>
       <use style="stroke:#000000;stroke-width:0.8;" x="951.103702" xlink:href="#m019310dd5a" y="314.198437"/>
      </g>
     </g>
     <g id="text_32">
      <!-- 2.5 -->
      <g transform="translate(943.152139 328.796875)scale(0.1 -0.1)">
       <use xlink:href="#DejaVuSans-50"/>
       <use x="63.623047" xlink:href="#DejaVuSans-46"/>
       <use x="95.410156" xlink:href="#DejaVuSans-53"/>
      </g>
     </g>
    </g>
    <g id="xtick_20">
     <g id="line2d_46">
      <g>
       <use style="stroke:#000000;stroke-width:0.8;" x="993.006676" xlink:href="#m019310dd5a" y="314.198437"/>
      </g>
     </g>
     <g id="text_33">
      <!-- 5.0 -->
      <g transform="translate(985.055114 328.796875)scale(0.1 -0.1)">
       <use xlink:href="#DejaVuSans-53"/>
       <use x="63.623047" xlink:href="#DejaVuSans-46"/>
       <use x="95.410156" xlink:href="#DejaVuSans-48"/>
      </g>
     </g>
    </g>
    <g id="xtick_21">
     <g id="line2d_47">
      <g>
       <use style="stroke:#000000;stroke-width:0.8;" x="1034.909651" xlink:href="#m019310dd5a" y="314.198437"/>
      </g>
     </g>
     <g id="text_34">
      <!-- 7.5 -->
      <g transform="translate(1026.958088 328.796875)scale(0.1 -0.1)">
       <use xlink:href="#DejaVuSans-55"/>
       <use x="63.623047" xlink:href="#DejaVuSans-46"/>
       <use x="95.410156" xlink:href="#DejaVuSans-53"/>
      </g>
     </g>
    </g>
    <g id="text_35">
     <!-- spill -->
     <g transform="translate(899.254633 342.475)scale(0.1 -0.1)">
      <use xlink:href="#DejaVuSans-115"/>
      <use x="52.099609" xlink:href="#DejaVuSans-112"/>
      <use x="115.576172" xlink:href="#DejaVuSans-105"/>
      <use x="143.359375" xlink:href="#DejaVuSans-108"/>
      <use x="171.142578" xlink:href="#DejaVuSans-108"/>
     </g>
    </g>
   </g>
   <g id="matplotlib.axis_6">
    <g id="ytick_17">
     <g id="line2d_48">
      <g>
       <use style="stroke:#000000;stroke-width:0.8;" x="743.264948" xlink:href="#mb3690bc41f" y="300.963408"/>
      </g>
     </g>
    </g>
    <g id="ytick_18">
     <g id="line2d_49">
      <g>
       <use style="stroke:#000000;stroke-width:0.8;" x="743.264948" xlink:href="#mb3690bc41f" y="265.579072"/>
      </g>
     </g>
    </g>
    <g id="ytick_19">
     <g id="line2d_50">
      <g>
       <use style="stroke:#000000;stroke-width:0.8;" x="743.264948" xlink:href="#mb3690bc41f" y="230.194736"/>
      </g>
     </g>
    </g>
    <g id="ytick_20">
     <g id="line2d_51">
      <g>
       <use style="stroke:#000000;stroke-width:0.8;" x="743.264948" xlink:href="#mb3690bc41f" y="194.810399"/>
      </g>
     </g>
    </g>
    <g id="ytick_21">
     <g id="line2d_52">
      <g>
       <use style="stroke:#000000;stroke-width:0.8;" x="743.264948" xlink:href="#mb3690bc41f" y="159.426063"/>
      </g>
     </g>
    </g>
    <g id="ytick_22">
     <g id="line2d_53">
      <g>
       <use style="stroke:#000000;stroke-width:0.8;" x="743.264948" xlink:href="#mb3690bc41f" y="124.041727"/>
      </g>
     </g>
    </g>
    <g id="ytick_23">
     <g id="line2d_54">
      <g>
       <use style="stroke:#000000;stroke-width:0.8;" x="743.264948" xlink:href="#mb3690bc41f" y="88.657391"/>
      </g>
     </g>
    </g>
    <g id="ytick_24">
     <g id="line2d_55">
      <g>
       <use style="stroke:#000000;stroke-width:0.8;" x="743.264948" xlink:href="#mb3690bc41f" y="53.273055"/>
      </g>
     </g>
    </g>
   </g>
   <g id="line2d_56">
    <path clip-path="url(#p0fd7b5deaa)" d="M 758.350019 59.199317 
L 775.111208 63.660277 
L 791.872398 69.358657 
L 808.633588 74.18085 
L 825.394778 75.958433 
L 842.155968 77.072099 
L 858.917158 76.775927 
L 875.678347 76.691704 
L 892.439537 75.009099 
L 909.200727 75.096754 
L 925.961917 75.388359 
L 942.723107 76.870032 
L 959.484296 77.13095 
L 976.245486 74.711663 
L 993.006676 74.908727 
L 1009.767866 68.954723 
L 1026.529056 59.913036 
L 1043.290246 49.830889 
L 1060.051435 42.204589 
" style="fill:none;stroke:#1f77b4;stroke-linecap:square;stroke-width:1.5;"/>
   </g>
   <g id="line2d_57">
    <path clip-path="url(#p0fd7b5deaa)" d="M 758.350019 124.276048 
L 775.111208 131.218117 
L 791.872398 135.748914 
L 808.633588 140.816395 
L 825.394778 142.301924 
L 842.155968 142.701693 
L 858.917158 144.479738 
L 875.678347 143.461106 
L 892.439537 141.987856 
L 909.200727 142.08415 
L 925.961917 142.924306 
L 942.723107 142.095038 
L 959.484296 143.829572 
L 976.245486 141.735404 
L 993.006676 141.890138 
L 1009.767866 141.571724 
L 1026.529056 141.528604 
L 1043.290246 141.034142 
L 1060.051435 140.662566 
" style="fill:none;stroke:#ff7f0e;stroke-linecap:square;stroke-width:1.5;"/>
   </g>
   <g id="line2d_58">
    <path clip-path="url(#p0fd7b5deaa)" d="M 758.350019 237.129668 
L 775.111208 234.693988 
L 791.872398 235.957866 
L 808.633588 235.815644 
L 825.394778 236.12917 
L 842.155968 236.819604 
L 858.917158 234.800264 
L 875.678347 235.686413 
L 892.439537 235.432992 
L 909.200727 235.446386 
L 925.961917 234.905867 
L 942.723107 237.189573 
L 959.484296 235.727249 
L 976.245486 235.342748 
L 993.006676 235.384477 
L 1009.767866 229.642428 
L 1026.529056 220.467189 
L 1043.290246 210.666417 
L 1060.051435 203.264176 
" style="fill:none;stroke:#2ca02c;stroke-linecap:square;stroke-width:1.5;"/>
   </g>
   <g id="patch_9">
    <path d="M 743.264948 314.198437 
L 743.264948 20.798437 
" style="fill:none;stroke:#000000;stroke-linecap:square;stroke-linejoin:miter;stroke-width:0.8;"/>
   </g>
   <g id="patch_10">
    <path d="M 743.264948 314.198437 
L 1075.136506 314.198437 
" style="fill:none;stroke:#000000;stroke-linecap:square;stroke-linejoin:miter;stroke-width:0.8;"/>
   </g>
   <g id="text_36">
    <!-- feature_type = lowrank5 -->
    <defs>
     <path d="M 4.203125 54.6875 
L 13.1875 54.6875 
L 24.421875 12.015625 
L 35.59375 54.6875 
L 46.1875 54.6875 
L 57.421875 12.015625 
L 68.609375 54.6875 
L 77.59375 54.6875 
L 63.28125 0 
L 52.6875 0 
L 40.921875 44.828125 
L 29.109375 0 
L 18.5 0 
z
" id="DejaVuSans-119"/>
     <path d="M 54.890625 33.015625 
L 54.890625 0 
L 45.90625 0 
L 45.90625 32.71875 
Q 45.90625 40.484375 42.875 44.328125 
Q 39.84375 48.1875 33.796875 48.1875 
Q 26.515625 48.1875 22.3125 43.546875 
Q 18.109375 38.921875 18.109375 30.90625 
L 18.109375 0 
L 9.078125 0 
L 9.078125 54.6875 
L 18.109375 54.6875 
L 18.109375 46.1875 
Q 21.34375 51.125 25.703125 53.5625 
Q 30.078125 56 35.796875 56 
Q 45.21875 56 50.046875 50.171875 
Q 54.890625 44.34375 54.890625 33.015625 
z
" id="DejaVuSans-110"/>
     <path d="M 9.078125 75.984375 
L 18.109375 75.984375 
L 18.109375 31.109375 
L 44.921875 54.6875 
L 56.390625 54.6875 
L 27.390625 29.109375 
L 57.625 0 
L 45.90625 0 
L 18.109375 26.703125 
L 18.109375 0 
L 9.078125 0 
z
" id="DejaVuSans-107"/>
    </defs>
    <g transform="translate(847.099946 14.798437)scale(0.1 -0.1)">
     <use xlink:href="#DejaVuSans-102"/>
     <use x="35.205078" xlink:href="#DejaVuSans-101"/>
     <use x="96.728516" xlink:href="#DejaVuSans-97"/>
     <use x="158.007812" xlink:href="#DejaVuSans-116"/>
     <use x="197.216797" xlink:href="#DejaVuSans-117"/>
     <use x="260.595703" xlink:href="#DejaVuSans-114"/>
     <use x="301.677734" xlink:href="#DejaVuSans-101"/>
     <use x="363.201172" xlink:href="#DejaVuSans-95"/>
     <use x="413.201172" xlink:href="#DejaVuSans-116"/>
     <use x="452.410156" xlink:href="#DejaVuSans-121"/>
     <use x="511.589844" xlink:href="#DejaVuSans-112"/>
     <use x="575.066406" xlink:href="#DejaVuSans-101"/>
     <use x="636.589844" xlink:href="#DejaVuSans-32"/>
     <use x="668.376953" xlink:href="#DejaVuSans-61"/>
     <use x="752.166016" xlink:href="#DejaVuSans-32"/>
     <use x="783.953125" xlink:href="#DejaVuSans-108"/>
     <use x="811.736328" xlink:href="#DejaVuSans-111"/>
     <use x="872.917969" xlink:href="#DejaVuSans-119"/>
     <use x="954.705078" xlink:href="#DejaVuSans-114"/>
     <use x="995.818359" xlink:href="#DejaVuSans-97"/>
     <use x="1057.097656" xlink:href="#DejaVuSans-110"/>
     <use x="1120.476562" xlink:href="#DejaVuSans-107"/>
     <use x="1178.386719" xlink:href="#DejaVuSans-53"/>
    </g>
   </g>
  </g>
  <g id="axes_4">
   <g id="patch_11">
    <path d="M 1092.867734 314.198437 
L 1424.739293 314.198437 
L 1424.739293 20.798437 
L 1092.867734 20.798437 
z
" style="fill:#ffffff;"/>
   </g>
   <g id="PolyCollection_10">
    <defs>
     <path d="M 1107.952805 -309.633373 
L 1107.952805 -304.515152 
L 1124.713995 -299.210313 
L 1141.475185 -294.224277 
L 1158.236374 -290.532277 
L 1174.997564 -287.300799 
L 1191.758754 -286.053452 
L 1208.519944 -287.225817 
L 1225.281134 -285.089194 
L 1242.042324 -286.142567 
L 1258.803513 -287.841449 
L 1275.564703 -286.979361 
L 1292.325893 -286.589871 
L 1309.087083 -288.254537 
L 1325.848273 -290.245883 
L 1342.609462 -293.666607 
L 1359.370652 -298.168432 
L 1376.131842 -303.205439 
L 1392.893032 -307.348611 
L 1409.654222 -311.240198 
L 1409.654222 -317.619886 
L 1409.654222 -317.619886 
L 1392.893032 -312.990962 
L 1376.131842 -309.147811 
L 1359.370652 -304.655922 
L 1342.609462 -298.961425 
L 1325.848273 -294.204483 
L 1309.087083 -290.751065 
L 1292.325893 -291.575269 
L 1275.564703 -289.957339 
L 1258.803513 -290.75097 
L 1242.042324 -290.22499 
L 1225.281134 -288.770921 
L 1208.519944 -291.177751 
L 1191.758754 -290.802558 
L 1174.997564 -291.215405 
L 1158.236374 -294.739432 
L 1141.475185 -298.094245 
L 1124.713995 -304.003703 
L 1107.952805 -309.633373 
z
" id="m75184ac823" style="stroke:#1f77b4;stroke-opacity:0.2;"/>
    </defs>
    <g clip-path="url(#p62e3773142)">
     <use style="fill:#1f77b4;fill-opacity:0.2;stroke:#1f77b4;stroke-opacity:0.2;" x="0" xlink:href="#m75184ac823" y="351.754687"/>
    </g>
   </g>
   <g id="PolyCollection_11">
    <defs>
     <path d="M 1107.952805 -227.587147 
L 1107.952805 -227.318816 
L 1124.713995 -220.278591 
L 1141.475185 -215.220594 
L 1158.236374 -210.299156 
L 1174.997564 -207.369894 
L 1191.758754 -205.461617 
L 1208.519944 -205.09891 
L 1225.281134 -202.978481 
L 1242.042324 -205.111647 
L 1258.803513 -205.286841 
L 1275.564703 -205.414617 
L 1292.325893 -206.371021 
L 1309.087083 -204.99105 
L 1325.848273 -206.750209 
L 1342.609462 -206.921025 
L 1359.370652 -205.544193 
L 1376.131842 -207.019306 
L 1392.893032 -208.053184 
L 1409.654222 -209.172598 
L 1409.654222 -212.407279 
L 1409.654222 -212.407279 
L 1392.893032 -211.320504 
L 1376.131842 -211.530061 
L 1359.370652 -208.6352 
L 1342.609462 -210.723865 
L 1325.848273 -209.61487 
L 1309.087083 -208.042152 
L 1292.325893 -210.286094 
L 1275.564703 -209.380249 
L 1258.803513 -208.728152 
L 1242.042324 -208.220103 
L 1225.281134 -206.396789 
L 1208.519944 -209.303708 
L 1191.758754 -209.386701 
L 1174.997564 -209.985391 
L 1158.236374 -211.176058 
L 1141.475185 -216.968918 
L 1124.713995 -220.861825 
L 1107.952805 -227.587147 
z
" id="m819f94604b" style="stroke:#ff7f0e;stroke-opacity:0.2;"/>
    </defs>
    <g clip-path="url(#p62e3773142)">
     <use style="fill:#ff7f0e;fill-opacity:0.2;stroke:#ff7f0e;stroke-opacity:0.2;" x="0" xlink:href="#m819f94604b" y="351.754687"/>
    </g>
   </g>
   <g id="PolyCollection_12">
    <defs>
     <path d="M 1107.952805 -131.835615 
L 1107.952805 -126.445109 
L 1124.713995 -128.127992 
L 1141.475185 -127.971301 
L 1158.236374 -128.764373 
L 1174.997564 -128.002676 
L 1191.758754 -127.984655 
L 1208.519944 -128.973667 
L 1225.281134 -129.814626 
L 1242.042324 -128.973411 
L 1258.803513 -129.799524 
L 1275.564703 -129.233394 
L 1292.325893 -128.488574 
L 1309.087083 -130.409675 
L 1325.848273 -131.77936 
L 1342.609462 -134.817822 
L 1359.370652 -141.041508 
L 1376.131842 -143.076233 
L 1392.893032 -147.36834 
L 1409.654222 -150.363634 
L 1409.654222 -156.852349 
L 1409.654222 -156.852349 
L 1392.893032 -153.607078 
L 1376.131842 -149.654505 
L 1359.370652 -146.605233 
L 1342.609462 -139.152416 
L 1325.848273 -135.451457 
L 1309.087083 -134.535651 
L 1292.325893 -131.889294 
L 1275.564703 -131.900085 
L 1258.803513 -133.431225 
L 1242.042324 -132.90419 
L 1225.281134 -133.81003 
L 1208.519944 -133.019162 
L 1191.758754 -133.309145 
L 1174.997564 -131.735029 
L 1158.236374 -133.329525 
L 1141.475185 -130.955704 
L 1124.713995 -132.934727 
L 1107.952805 -131.835615 
z
" id="mb626a9122f" style="stroke:#2ca02c;stroke-opacity:0.2;"/>
    </defs>
    <g clip-path="url(#p62e3773142)">
     <use style="fill:#2ca02c;fill-opacity:0.2;stroke:#2ca02c;stroke-opacity:0.2;" x="0" xlink:href="#mb626a9122f" y="351.754687"/>
    </g>
   </g>
   <g id="matplotlib.axis_7">
    <g id="xtick_22">
     <g id="line2d_59">
      <g>
       <use style="stroke:#000000;stroke-width:0.8;" x="1133.09459" xlink:href="#m019310dd5a" y="314.198437"/>
      </g>
     </g>
     <g id="text_37">
      <!-- −7.5 -->
      <g transform="translate(1120.953183 328.796875)scale(0.1 -0.1)">
       <use xlink:href="#DejaVuSans-8722"/>
       <use x="83.789062" xlink:href="#DejaVuSans-55"/>
       <use x="147.412109" xlink:href="#DejaVuSans-46"/>
       <use x="179.199219" xlink:href="#DejaVuSans-53"/>
      </g>
     </g>
    </g>
    <g id="xtick_23">
     <g id="line2d_60">
      <g>
       <use style="stroke:#000000;stroke-width:0.8;" x="1174.997564" xlink:href="#m019310dd5a" y="314.198437"/>
      </g>
     </g>
     <g id="text_38">
      <!-- −5.0 -->
      <g transform="translate(1162.856158 328.796875)scale(0.1 -0.1)">
       <use xlink:href="#DejaVuSans-8722"/>
       <use x="83.789062" xlink:href="#DejaVuSans-53"/>
       <use x="147.412109" xlink:href="#DejaVuSans-46"/>
       <use x="179.199219" xlink:href="#DejaVuSans-48"/>
      </g>
     </g>
    </g>
    <g id="xtick_24">
     <g id="line2d_61">
      <g>
       <use style="stroke:#000000;stroke-width:0.8;" x="1216.900539" xlink:href="#m019310dd5a" y="314.198437"/>
      </g>
     </g>
     <g id="text_39">
      <!-- −2.5 -->
      <g transform="translate(1204.759133 328.796875)scale(0.1 -0.1)">
       <use xlink:href="#DejaVuSans-8722"/>
       <use x="83.789062" xlink:href="#DejaVuSans-50"/>
       <use x="147.412109" xlink:href="#DejaVuSans-46"/>
       <use x="179.199219" xlink:href="#DejaVuSans-53"/>
      </g>
     </g>
    </g>
    <g id="xtick_25">
     <g id="line2d_62">
      <g>
       <use style="stroke:#000000;stroke-width:0.8;" x="1258.803513" xlink:href="#m019310dd5a" y="314.198437"/>
      </g>
     </g>
     <g id="text_40">
      <!-- 0.0 -->
      <g transform="translate(1250.851951 328.796875)scale(0.1 -0.1)">
       <use xlink:href="#DejaVuSans-48"/>
       <use x="63.623047" xlink:href="#DejaVuSans-46"/>
       <use x="95.410156" xlink:href="#DejaVuSans-48"/>
      </g>
     </g>
    </g>
    <g id="xtick_26">
     <g id="line2d_63">
      <g>
       <use style="stroke:#000000;stroke-width:0.8;" x="1300.706488" xlink:href="#m019310dd5a" y="314.198437"/>
      </g>
     </g>
     <g id="text_41">
      <!-- 2.5 -->
      <g transform="translate(1292.754925 328.796875)scale(0.1 -0.1)">
       <use xlink:href="#DejaVuSans-50"/>
       <use x="63.623047" xlink:href="#DejaVuSans-46"/>
       <use x="95.410156" xlink:href="#DejaVuSans-53"/>
      </g>
     </g>
    </g>
    <g id="xtick_27">
     <g id="line2d_64">
      <g>
       <use style="stroke:#000000;stroke-width:0.8;" x="1342.609462" xlink:href="#m019310dd5a" y="314.198437"/>
      </g>
     </g>
     <g id="text_42">
      <!-- 5.0 -->
      <g transform="translate(1334.6579 328.796875)scale(0.1 -0.1)">
       <use xlink:href="#DejaVuSans-53"/>
       <use x="63.623047" xlink:href="#DejaVuSans-46"/>
       <use x="95.410156" xlink:href="#DejaVuSans-48"/>
      </g>
     </g>
    </g>
    <g id="xtick_28">
     <g id="line2d_65">
      <g>
       <use style="stroke:#000000;stroke-width:0.8;" x="1384.512437" xlink:href="#m019310dd5a" y="314.198437"/>
      </g>
     </g>
     <g id="text_43">
      <!-- 7.5 -->
      <g transform="translate(1376.560875 328.796875)scale(0.1 -0.1)">
       <use xlink:href="#DejaVuSans-55"/>
       <use x="63.623047" xlink:href="#DejaVuSans-46"/>
       <use x="95.410156" xlink:href="#DejaVuSans-53"/>
      </g>
     </g>
    </g>
    <g id="text_44">
     <!-- spill -->
     <g transform="translate(1248.85742 342.475)scale(0.1 -0.1)">
      <use xlink:href="#DejaVuSans-115"/>
      <use x="52.099609" xlink:href="#DejaVuSans-112"/>
      <use x="115.576172" xlink:href="#DejaVuSans-105"/>
      <use x="143.359375" xlink:href="#DejaVuSans-108"/>
      <use x="171.142578" xlink:href="#DejaVuSans-108"/>
     </g>
    </g>
   </g>
   <g id="matplotlib.axis_8">
    <g id="ytick_25">
     <g id="line2d_66">
      <g>
       <use style="stroke:#000000;stroke-width:0.8;" x="1092.867734" xlink:href="#mb3690bc41f" y="300.963408"/>
      </g>
     </g>
    </g>
    <g id="ytick_26">
     <g id="line2d_67">
      <g>
       <use style="stroke:#000000;stroke-width:0.8;" x="1092.867734" xlink:href="#mb3690bc41f" y="265.579072"/>
      </g>
     </g>
    </g>
    <g id="ytick_27">
     <g id="line2d_68">
      <g>
       <use style="stroke:#000000;stroke-width:0.8;" x="1092.867734" xlink:href="#mb3690bc41f" y="230.194736"/>
      </g>
     </g>
    </g>
    <g id="ytick_28">
     <g id="line2d_69">
      <g>
       <use style="stroke:#000000;stroke-width:0.8;" x="1092.867734" xlink:href="#mb3690bc41f" y="194.810399"/>
      </g>
     </g>
    </g>
    <g id="ytick_29">
     <g id="line2d_70">
      <g>
       <use style="stroke:#000000;stroke-width:0.8;" x="1092.867734" xlink:href="#mb3690bc41f" y="159.426063"/>
      </g>
     </g>
    </g>
    <g id="ytick_30">
     <g id="line2d_71">
      <g>
       <use style="stroke:#000000;stroke-width:0.8;" x="1092.867734" xlink:href="#mb3690bc41f" y="124.041727"/>
      </g>
     </g>
    </g>
    <g id="ytick_31">
     <g id="line2d_72">
      <g>
       <use style="stroke:#000000;stroke-width:0.8;" x="1092.867734" xlink:href="#mb3690bc41f" y="88.657391"/>
      </g>
     </g>
    </g>
    <g id="ytick_32">
     <g id="line2d_73">
      <g>
       <use style="stroke:#000000;stroke-width:0.8;" x="1092.867734" xlink:href="#mb3690bc41f" y="53.273055"/>
      </g>
     </g>
    </g>
   </g>
   <g id="line2d_74">
    <path clip-path="url(#p62e3773142)" d="M 1107.952805 44.792597 
L 1124.713995 50.081031 
L 1141.475185 55.622475 
L 1158.236374 59.154226 
L 1174.997564 62.47213 
L 1191.758754 63.122431 
L 1208.519944 62.652757 
L 1225.281134 64.780434 
L 1242.042324 63.5931 
L 1258.803513 62.446849 
L 1275.564703 63.265788 
L 1292.325893 62.597368 
L 1309.087083 62.187767 
L 1325.848273 59.578786 
L 1342.609462 55.517351 
L 1359.370652 50.480148 
L 1376.131842 45.74144 
L 1392.893032 41.544549 
L 1409.654222 37.32989 
" style="fill:none;stroke:#1f77b4;stroke-linecap:square;stroke-width:1.5;"/>
   </g>
   <g id="line2d_75">
    <path clip-path="url(#p62e3773142)" d="M 1107.952805 124.30445 
L 1124.713995 131.168069 
L 1141.475185 135.680057 
L 1158.236374 140.972626 
L 1174.997564 143.124435 
L 1191.758754 144.38437 
L 1208.519944 144.519468 
L 1225.281134 147.1368 
L 1242.042324 145.109855 
L 1258.803513 144.698741 
L 1275.564703 144.363351 
L 1292.325893 143.406823 
L 1309.087083 145.343151 
L 1325.848273 143.611376 
L 1342.609462 142.949234 
L 1359.370652 144.670041 
L 1376.131842 142.616702 
L 1392.893032 142.160282 
L 1409.654222 140.944406 
" style="fill:none;stroke:#ff7f0e;stroke-linecap:square;stroke-width:1.5;"/>
   </g>
   <g id="line2d_76">
    <path clip-path="url(#p62e3773142)" d="M 1107.952805 222.643454 
L 1124.713995 221.166824 
L 1141.475185 222.25245 
L 1158.236374 220.597876 
L 1174.997564 221.798097 
L 1191.758754 221.158346 
L 1208.519944 220.578281 
L 1225.281134 220.092473 
L 1242.042324 220.922047 
L 1258.803513 220.148045 
L 1275.564703 221.271911 
L 1292.325893 221.532645 
L 1309.087083 219.157374 
L 1325.848273 218.212143 
L 1342.609462 214.734703 
L 1359.370652 207.943873 
L 1376.131842 205.118086 
L 1392.893032 201.231527 
L 1409.654222 198.094356 
" style="fill:none;stroke:#2ca02c;stroke-linecap:square;stroke-width:1.5;"/>
   </g>
   <g id="patch_12">
    <path d="M 1092.867734 314.198437 
L 1092.867734 20.798437 
" style="fill:none;stroke:#000000;stroke-linecap:square;stroke-linejoin:miter;stroke-width:0.8;"/>
   </g>
   <g id="patch_13">
    <path d="M 1092.867734 314.198437 
L 1424.739293 314.198437 
" style="fill:none;stroke:#000000;stroke-linecap:square;stroke-linejoin:miter;stroke-width:0.8;"/>
   </g>
   <g id="text_45">
    <!-- feature_type = lowrank8 -->
    <g transform="translate(1196.702732 14.798437)scale(0.1 -0.1)">
     <use xlink:href="#DejaVuSans-102"/>
     <use x="35.205078" xlink:href="#DejaVuSans-101"/>
     <use x="96.728516" xlink:href="#DejaVuSans-97"/>
     <use x="158.007812" xlink:href="#DejaVuSans-116"/>
     <use x="197.216797" xlink:href="#DejaVuSans-117"/>
     <use x="260.595703" xlink:href="#DejaVuSans-114"/>
     <use x="301.677734" xlink:href="#DejaVuSans-101"/>
     <use x="363.201172" xlink:href="#DejaVuSans-95"/>
     <use x="413.201172" xlink:href="#DejaVuSans-116"/>
     <use x="452.410156" xlink:href="#DejaVuSans-121"/>
     <use x="511.589844" xlink:href="#DejaVuSans-112"/>
     <use x="575.066406" xlink:href="#DejaVuSans-101"/>
     <use x="636.589844" xlink:href="#DejaVuSans-32"/>
     <use x="668.376953" xlink:href="#DejaVuSans-61"/>
     <use x="752.166016" xlink:href="#DejaVuSans-32"/>
     <use x="783.953125" xlink:href="#DejaVuSans-108"/>
     <use x="811.736328" xlink:href="#DejaVuSans-111"/>
     <use x="872.917969" xlink:href="#DejaVuSans-119"/>
     <use x="954.705078" xlink:href="#DejaVuSans-114"/>
     <use x="995.818359" xlink:href="#DejaVuSans-97"/>
     <use x="1057.097656" xlink:href="#DejaVuSans-110"/>
     <use x="1120.476562" xlink:href="#DejaVuSans-107"/>
     <use x="1178.386719" xlink:href="#DejaVuSans-56"/>
    </g>
   </g>
  </g>
  <g id="axes_5">
   <g id="patch_14">
    <path d="M 1442.470521 314.198437 
L 1774.342079 314.198437 
L 1774.342079 20.798437 
L 1442.470521 20.798437 
z
" style="fill:#ffffff;"/>
   </g>
   <g id="PolyCollection_13">
    <defs>
     <path d="M 1457.555591 -304.60525 
L 1457.555591 -300.135946 
L 1474.316781 -295.370814 
L 1491.077971 -289.256207 
L 1507.839161 -283.637229 
L 1524.600351 -282.620768 
L 1541.36154 -279.727174 
L 1558.12273 -278.787361 
L 1574.88392 -281.37563 
L 1591.64511 -279.240656 
L 1608.4063 -281.427164 
L 1625.16749 -282.20519 
L 1641.928679 -281.494169 
L 1658.689869 -281.233384 
L 1675.451059 -283.698001 
L 1692.212249 -286.282744 
L 1708.973439 -288.173399 
L 1725.734629 -291.721155 
L 1742.495818 -290.487648 
L 1759.257008 -290.721002 
L 1759.257008 -297.699895 
L 1759.257008 -297.699895 
L 1742.495818 -296.142779 
L 1725.734629 -297.64648 
L 1708.973439 -292.766394 
L 1692.212249 -290.933429 
L 1675.451059 -290.446078 
L 1658.689869 -286.990154 
L 1641.928679 -286.264989 
L 1625.16749 -287.477438 
L 1608.4063 -285.101318 
L 1591.64511 -282.835178 
L 1574.88392 -284.749515 
L 1558.12273 -282.913809 
L 1541.36154 -284.295283 
L 1524.600351 -285.43138 
L 1507.839161 -287.773468 
L 1491.077971 -292.475246 
L 1474.316781 -298.397819 
L 1457.555591 -304.60525 
z
" id="m65b2b391e1" style="stroke:#1f77b4;stroke-opacity:0.2;"/>
    </defs>
    <g clip-path="url(#p8db5412396)">
     <use style="fill:#1f77b4;fill-opacity:0.2;stroke:#1f77b4;stroke-opacity:0.2;" x="0" xlink:href="#m65b2b391e1" y="351.754687"/>
    </g>
   </g>
   <g id="PolyCollection_14">
    <defs>
     <path d="M 1457.555591 -227.459486 
L 1457.555591 -227.240664 
L 1474.316781 -219.925374 
L 1491.077971 -215.160229 
L 1507.839161 -210.825028 
L 1524.600351 -206.706661 
L 1541.36154 -204.475609 
L 1558.12273 -202.497782 
L 1574.88392 -204.232692 
L 1591.64511 -203.624874 
L 1608.4063 -204.825552 
L 1625.16749 -203.42515 
L 1641.928679 -203.64499 
L 1658.689869 -203.272141 
L 1675.451059 -205.198698 
L 1692.212249 -204.35755 
L 1708.973439 -204.848667 
L 1725.734629 -204.600268 
L 1742.495818 -205.920792 
L 1759.257008 -206.109485 
L 1759.257008 -211.706511 
L 1759.257008 -211.706511 
L 1742.495818 -210.819131 
L 1725.734629 -209.78472 
L 1708.973439 -209.563701 
L 1692.212249 -208.280741 
L 1675.451059 -209.787312 
L 1658.689869 -207.847749 
L 1641.928679 -207.873922 
L 1625.16749 -208.53785 
L 1608.4063 -209.753283 
L 1591.64511 -207.323172 
L 1574.88392 -207.755285 
L 1558.12273 -206.328649 
L 1541.36154 -208.118302 
L 1524.600351 -209.594095 
L 1507.839161 -211.632281 
L 1491.077971 -216.621413 
L 1474.316781 -220.622207 
L 1457.555591 -227.459486 
z
" id="m9908957730" style="stroke:#ff7f0e;stroke-opacity:0.2;"/>
    </defs>
    <g clip-path="url(#p8db5412396)">
     <use style="fill:#ff7f0e;fill-opacity:0.2;stroke:#ff7f0e;stroke-opacity:0.2;" x="0" xlink:href="#m9908957730" y="351.754687"/>
    </g>
   </g>
   <g id="PolyCollection_15">
    <defs>
     <path d="M 1457.555591 -127.176037 
L 1457.555591 -122.495694 
L 1474.316781 -124.479704 
L 1491.077971 -122.705078 
L 1507.839161 -121.751353 
L 1524.600351 -123.320318 
L 1541.36154 -123.431516 
L 1558.12273 -123.296124 
L 1574.88392 -124.959467 
L 1591.64511 -122.998183 
L 1608.4063 -122.945166 
L 1625.16749 -126.634692 
L 1641.928679 -125.5392 
L 1658.689869 -125.684089 
L 1675.451059 -126.03012 
L 1692.212249 -129.276389 
L 1708.973439 -131.12731 
L 1725.734629 -134.039049 
L 1742.495818 -132.558771 
L 1759.257008 -132.484271 
L 1759.257008 -138.978462 
L 1759.257008 -138.978462 
L 1742.495818 -137.110546 
L 1725.734629 -140.870231 
L 1708.973439 -135.054455 
L 1692.212249 -134.680969 
L 1675.451059 -132.419755 
L 1658.689869 -130.689775 
L 1641.928679 -129.962117 
L 1625.16749 -130.615848 
L 1608.4063 -127.762534 
L 1591.64511 -127.242242 
L 1574.88392 -128.100715 
L 1558.12273 -128.042603 
L 1541.36154 -127.004175 
L 1524.600351 -127.541287 
L 1507.839161 -125.918953 
L 1491.077971 -126.387552 
L 1474.316781 -127.860705 
L 1457.555591 -127.176037 
z
" id="m655a009378" style="stroke:#2ca02c;stroke-opacity:0.2;"/>
    </defs>
    <g clip-path="url(#p8db5412396)">
     <use style="fill:#2ca02c;fill-opacity:0.2;stroke:#2ca02c;stroke-opacity:0.2;" x="0" xlink:href="#m655a009378" y="351.754687"/>
    </g>
   </g>
   <g id="matplotlib.axis_9">
    <g id="xtick_29">
     <g id="line2d_77">
      <g>
       <use style="stroke:#000000;stroke-width:0.8;" x="1482.697376" xlink:href="#m019310dd5a" y="314.198437"/>
      </g>
     </g>
     <g id="text_46">
      <!-- −7.5 -->
      <g transform="translate(1470.55597 328.796875)scale(0.1 -0.1)">
       <use xlink:href="#DejaVuSans-8722"/>
       <use x="83.789062" xlink:href="#DejaVuSans-55"/>
       <use x="147.412109" xlink:href="#DejaVuSans-46"/>
       <use x="179.199219" xlink:href="#DejaVuSans-53"/>
      </g>
     </g>
    </g>
    <g id="xtick_30">
     <g id="line2d_78">
      <g>
       <use style="stroke:#000000;stroke-width:0.8;" x="1524.600351" xlink:href="#m019310dd5a" y="314.198437"/>
      </g>
     </g>
     <g id="text_47">
      <!-- −5.0 -->
      <g transform="translate(1512.458944 328.796875)scale(0.1 -0.1)">
       <use xlink:href="#DejaVuSans-8722"/>
       <use x="83.789062" xlink:href="#DejaVuSans-53"/>
       <use x="147.412109" xlink:href="#DejaVuSans-46"/>
       <use x="179.199219" xlink:href="#DejaVuSans-48"/>
      </g>
     </g>
    </g>
    <g id="xtick_31">
     <g id="line2d_79">
      <g>
       <use style="stroke:#000000;stroke-width:0.8;" x="1566.503325" xlink:href="#m019310dd5a" y="314.198437"/>
      </g>
     </g>
     <g id="text_48">
      <!-- −2.5 -->
      <g transform="translate(1554.361919 328.796875)scale(0.1 -0.1)">
       <use xlink:href="#DejaVuSans-8722"/>
       <use x="83.789062" xlink:href="#DejaVuSans-50"/>
       <use x="147.412109" xlink:href="#DejaVuSans-46"/>
       <use x="179.199219" xlink:href="#DejaVuSans-53"/>
      </g>
     </g>
    </g>
    <g id="xtick_32">
     <g id="line2d_80">
      <g>
       <use style="stroke:#000000;stroke-width:0.8;" x="1608.4063" xlink:href="#m019310dd5a" y="314.198437"/>
      </g>
     </g>
     <g id="text_49">
      <!-- 0.0 -->
      <g transform="translate(1600.454737 328.796875)scale(0.1 -0.1)">
       <use xlink:href="#DejaVuSans-48"/>
       <use x="63.623047" xlink:href="#DejaVuSans-46"/>
       <use x="95.410156" xlink:href="#DejaVuSans-48"/>
      </g>
     </g>
    </g>
    <g id="xtick_33">
     <g id="line2d_81">
      <g>
       <use style="stroke:#000000;stroke-width:0.8;" x="1650.309274" xlink:href="#m019310dd5a" y="314.198437"/>
      </g>
     </g>
     <g id="text_50">
      <!-- 2.5 -->
      <g transform="translate(1642.357712 328.796875)scale(0.1 -0.1)">
       <use xlink:href="#DejaVuSans-50"/>
       <use x="63.623047" xlink:href="#DejaVuSans-46"/>
       <use x="95.410156" xlink:href="#DejaVuSans-53"/>
      </g>
     </g>
    </g>
    <g id="xtick_34">
     <g id="line2d_82">
      <g>
       <use style="stroke:#000000;stroke-width:0.8;" x="1692.212249" xlink:href="#m019310dd5a" y="314.198437"/>
      </g>
     </g>
     <g id="text_51">
      <!-- 5.0 -->
      <g transform="translate(1684.260686 328.796875)scale(0.1 -0.1)">
       <use xlink:href="#DejaVuSans-53"/>
       <use x="63.623047" xlink:href="#DejaVuSans-46"/>
       <use x="95.410156" xlink:href="#DejaVuSans-48"/>
      </g>
     </g>
    </g>
    <g id="xtick_35">
     <g id="line2d_83">
      <g>
       <use style="stroke:#000000;stroke-width:0.8;" x="1734.115223" xlink:href="#m019310dd5a" y="314.198437"/>
      </g>
     </g>
     <g id="text_52">
      <!-- 7.5 -->
      <g transform="translate(1726.163661 328.796875)scale(0.1 -0.1)">
       <use xlink:href="#DejaVuSans-55"/>
       <use x="63.623047" xlink:href="#DejaVuSans-46"/>
       <use x="95.410156" xlink:href="#DejaVuSans-53"/>
      </g>
     </g>
    </g>
    <g id="text_53">
     <!-- spill -->
     <g transform="translate(1598.460206 342.475)scale(0.1 -0.1)">
      <use xlink:href="#DejaVuSans-115"/>
      <use x="52.099609" xlink:href="#DejaVuSans-112"/>
      <use x="115.576172" xlink:href="#DejaVuSans-105"/>
      <use x="143.359375" xlink:href="#DejaVuSans-108"/>
      <use x="171.142578" xlink:href="#DejaVuSans-108"/>
     </g>
    </g>
   </g>
   <g id="matplotlib.axis_10">
    <g id="ytick_33">
     <g id="line2d_84">
      <g>
       <use style="stroke:#000000;stroke-width:0.8;" x="1442.470521" xlink:href="#mb3690bc41f" y="300.963408"/>
      </g>
     </g>
    </g>
    <g id="ytick_34">
     <g id="line2d_85">
      <g>
       <use style="stroke:#000000;stroke-width:0.8;" x="1442.470521" xlink:href="#mb3690bc41f" y="265.579072"/>
      </g>
     </g>
    </g>
    <g id="ytick_35">
     <g id="line2d_86">
      <g>
       <use style="stroke:#000000;stroke-width:0.8;" x="1442.470521" xlink:href="#mb3690bc41f" y="230.194736"/>
      </g>
     </g>
    </g>
    <g id="ytick_36">
     <g id="line2d_87">
      <g>
       <use style="stroke:#000000;stroke-width:0.8;" x="1442.470521" xlink:href="#mb3690bc41f" y="194.810399"/>
      </g>
     </g>
    </g>
    <g id="ytick_37">
     <g id="line2d_88">
      <g>
       <use style="stroke:#000000;stroke-width:0.8;" x="1442.470521" xlink:href="#mb3690bc41f" y="159.426063"/>
      </g>
     </g>
    </g>
    <g id="ytick_38">
     <g id="line2d_89">
      <g>
       <use style="stroke:#000000;stroke-width:0.8;" x="1442.470521" xlink:href="#mb3690bc41f" y="124.041727"/>
      </g>
     </g>
    </g>
    <g id="ytick_39">
     <g id="line2d_90">
      <g>
       <use style="stroke:#000000;stroke-width:0.8;" x="1442.470521" xlink:href="#mb3690bc41f" y="88.657391"/>
      </g>
     </g>
    </g>
    <g id="ytick_40">
     <g id="line2d_91">
      <g>
       <use style="stroke:#000000;stroke-width:0.8;" x="1442.470521" xlink:href="#mb3690bc41f" y="53.273055"/>
      </g>
     </g>
    </g>
   </g>
   <g id="line2d_92">
    <path clip-path="url(#p8db5412396)" d="M 1457.555591 49.502172 
L 1474.316781 54.899938 
L 1491.077971 60.799927 
L 1507.839161 66.016231 
L 1524.600351 67.602469 
L 1541.36154 69.602092 
L 1558.12273 71.129718 
L 1574.88392 68.731055 
L 1591.64511 70.574381 
L 1608.4063 68.519779 
L 1625.16749 66.829782 
L 1641.928679 67.814649 
L 1658.689869 67.738775 
L 1675.451059 64.709769 
L 1692.212249 63.135297 
L 1708.973439 61.19028 
L 1725.734629 57.063227 
L 1742.495818 58.350207 
L 1759.257008 57.372242 
" style="fill:none;stroke:#1f77b4;stroke-linecap:square;stroke-width:1.5;"/>
   </g>
   <g id="line2d_93">
    <path clip-path="url(#p8db5412396)" d="M 1457.555591 124.401314 
L 1474.316781 131.479298 
L 1491.077971 135.807153 
L 1507.839161 140.511679 
L 1524.600351 143.648151 
L 1541.36154 145.466862 
L 1558.12273 147.442202 
L 1574.88392 145.811178 
L 1591.64511 146.220808 
L 1608.4063 144.320579 
L 1625.16749 145.911256 
L 1641.928679 145.931924 
L 1658.689869 146.295021 
L 1675.451059 144.198352 
L 1692.212249 145.39422 
L 1708.973439 144.654024 
L 1725.734629 144.560925 
L 1742.495818 143.328664 
L 1759.257008 142.937039 
" style="fill:none;stroke:#ff7f0e;stroke-linecap:square;stroke-width:1.5;"/>
   </g>
   <g id="line2d_94">
    <path clip-path="url(#p8db5412396)" d="M 1457.555591 227.14256 
L 1474.316781 225.544716 
L 1491.077971 227.226424 
L 1507.839161 227.78363 
L 1524.600351 226.290844 
L 1541.36154 226.486013 
L 1558.12273 226.034009 
L 1574.88392 225.269 
L 1591.64511 226.666031 
L 1608.4063 226.478504 
L 1625.16749 223.200124 
L 1641.928679 224.139514 
L 1658.689869 223.636199 
L 1675.451059 222.629103 
L 1692.212249 219.806348 
L 1708.973439 218.534407 
L 1725.734629 214.439679 
L 1742.495818 216.837541 
L 1759.257008 216.200269 
" style="fill:none;stroke:#2ca02c;stroke-linecap:square;stroke-width:1.5;"/>
   </g>
   <g id="patch_15">
    <path d="M 1442.470521 314.198437 
L 1442.470521 20.798437 
" style="fill:none;stroke:#000000;stroke-linecap:square;stroke-linejoin:miter;stroke-width:0.8;"/>
   </g>
   <g id="patch_16">
    <path d="M 1442.470521 314.198437 
L 1774.342079 314.198437 
" style="fill:none;stroke:#000000;stroke-linecap:square;stroke-linejoin:miter;stroke-width:0.8;"/>
   </g>
   <g id="text_54">
    <!-- feature_type = lowrank12 -->
    <g transform="translate(1543.124269 14.798437)scale(0.1 -0.1)">
     <use xlink:href="#DejaVuSans-102"/>
     <use x="35.205078" xlink:href="#DejaVuSans-101"/>
     <use x="96.728516" xlink:href="#DejaVuSans-97"/>
     <use x="158.007812" xlink:href="#DejaVuSans-116"/>
     <use x="197.216797" xlink:href="#DejaVuSans-117"/>
     <use x="260.595703" xlink:href="#DejaVuSans-114"/>
     <use x="301.677734" xlink:href="#DejaVuSans-101"/>
     <use x="363.201172" xlink:href="#DejaVuSans-95"/>
     <use x="413.201172" xlink:href="#DejaVuSans-116"/>
     <use x="452.410156" xlink:href="#DejaVuSans-121"/>
     <use x="511.589844" xlink:href="#DejaVuSans-112"/>
     <use x="575.066406" xlink:href="#DejaVuSans-101"/>
     <use x="636.589844" xlink:href="#DejaVuSans-32"/>
     <use x="668.376953" xlink:href="#DejaVuSans-61"/>
     <use x="752.166016" xlink:href="#DejaVuSans-32"/>
     <use x="783.953125" xlink:href="#DejaVuSans-108"/>
     <use x="811.736328" xlink:href="#DejaVuSans-111"/>
     <use x="872.917969" xlink:href="#DejaVuSans-119"/>
     <use x="954.705078" xlink:href="#DejaVuSans-114"/>
     <use x="995.818359" xlink:href="#DejaVuSans-97"/>
     <use x="1057.097656" xlink:href="#DejaVuSans-110"/>
     <use x="1120.476562" xlink:href="#DejaVuSans-107"/>
     <use x="1178.386719" xlink:href="#DejaVuSans-49"/>
     <use x="1242.009766" xlink:href="#DejaVuSans-50"/>
    </g>
   </g>
  </g>
  <g id="legend_1">
   <g id="line2d_95">
    <path d="M 1794.245204 153.119531 
L 1814.245204 153.119531 
" style="fill:none;"/>
   </g>
   <g id="line2d_96"/>
   <g id="text_55">
    <!-- loss -->
    <g transform="translate(1822.245204 156.619531)scale(0.1 -0.1)">
     <use xlink:href="#DejaVuSans-108"/>
     <use x="27.783203" xlink:href="#DejaVuSans-111"/>
     <use x="88.964844" xlink:href="#DejaVuSans-115"/>
     <use x="141.064453" xlink:href="#DejaVuSans-115"/>
    </g>
   </g>
   <g id="line2d_97">
    <path d="M 1794.245204 167.797656 
L 1814.245204 167.797656 
" style="fill:none;stroke:#1f77b4;stroke-linecap:square;stroke-width:1.5;"/>
   </g>
   <g id="line2d_98"/>
   <g id="text_56">
    <!-- total loss -->
    <g transform="translate(1822.245204 171.297656)scale(0.1 -0.1)">
     <use xlink:href="#DejaVuSans-116"/>
     <use x="39.208984" xlink:href="#DejaVuSans-111"/>
     <use x="100.390625" xlink:href="#DejaVuSans-116"/>
     <use x="139.599609" xlink:href="#DejaVuSans-97"/>
     <use x="200.878906" xlink:href="#DejaVuSans-108"/>
     <use x="228.662109" xlink:href="#DejaVuSans-32"/>
     <use x="260.449219" xlink:href="#DejaVuSans-108"/>
     <use x="288.232422" xlink:href="#DejaVuSans-111"/>
     <use x="349.414062" xlink:href="#DejaVuSans-115"/>
     <use x="401.513672" xlink:href="#DejaVuSans-115"/>
    </g>
   </g>
   <g id="line2d_99">
    <path d="M 1794.245204 182.475781 
L 1814.245204 182.475781 
" style="fill:none;stroke:#ff7f0e;stroke-linecap:square;stroke-width:1.5;"/>
   </g>
   <g id="line2d_100"/>
   <g id="text_57">
    <!-- adj -->
    <defs>
     <path d="M 45.40625 46.390625 
L 45.40625 75.984375 
L 54.390625 75.984375 
L 54.390625 0 
L 45.40625 0 
L 45.40625 8.203125 
Q 42.578125 3.328125 38.25 0.953125 
Q 33.9375 -1.421875 27.875 -1.421875 
Q 17.96875 -1.421875 11.734375 6.484375 
Q 5.515625 14.40625 5.515625 27.296875 
Q 5.515625 40.1875 11.734375 48.09375 
Q 17.96875 56 27.875 56 
Q 33.9375 56 38.25 53.625 
Q 42.578125 51.265625 45.40625 46.390625 
z
M 14.796875 27.296875 
Q 14.796875 17.390625 18.875 11.75 
Q 22.953125 6.109375 30.078125 6.109375 
Q 37.203125 6.109375 41.296875 11.75 
Q 45.40625 17.390625 45.40625 27.296875 
Q 45.40625 37.203125 41.296875 42.84375 
Q 37.203125 48.484375 30.078125 48.484375 
Q 22.953125 48.484375 18.875 42.84375 
Q 14.796875 37.203125 14.796875 27.296875 
z
" id="DejaVuSans-100"/>
     <path d="M 9.421875 54.6875 
L 18.40625 54.6875 
L 18.40625 -0.984375 
Q 18.40625 -11.421875 14.421875 -16.109375 
Q 10.453125 -20.796875 1.609375 -20.796875 
L -1.8125 -20.796875 
L -1.8125 -13.1875 
L 0.59375 -13.1875 
Q 5.71875 -13.1875 7.5625 -10.8125 
Q 9.421875 -8.453125 9.421875 -0.984375 
z
M 9.421875 75.984375 
L 18.40625 75.984375 
L 18.40625 64.59375 
L 9.421875 64.59375 
z
" id="DejaVuSans-106"/>
    </defs>
    <g transform="translate(1822.245204 185.975781)scale(0.1 -0.1)">
     <use xlink:href="#DejaVuSans-97"/>
     <use x="61.279297" xlink:href="#DejaVuSans-100"/>
     <use x="124.755859" xlink:href="#DejaVuSans-106"/>
    </g>
   </g>
   <g id="line2d_101">
    <path d="M 1794.245204 197.153906 
L 1814.245204 197.153906 
" style="fill:none;stroke:#2ca02c;stroke-linecap:square;stroke-width:1.5;"/>
   </g>
   <g id="line2d_102"/>
   <g id="text_58">
    <!-- feat -->
    <g transform="translate(1822.245204 200.653906)scale(0.1 -0.1)">
     <use xlink:href="#DejaVuSans-102"/>
     <use x="35.205078" xlink:href="#DejaVuSans-101"/>
     <use x="96.728516" xlink:href="#DejaVuSans-97"/>
     <use x="158.007812" xlink:href="#DejaVuSans-116"/>
    </g>
   </g>
  </g>
 </g>
 <defs>
  <clipPath id="p1706040ef2">
   <rect height="293.4" width="331.871558" x="44.059375" y="20.798437"/>
  </clipPath>
  <clipPath id="pbec36cc7c1">
   <rect height="293.4" width="331.871558" x="393.662161" y="20.798437"/>
  </clipPath>
  <clipPath id="p0fd7b5deaa">
   <rect height="293.4" width="331.871558" x="743.264948" y="20.798437"/>
  </clipPath>
  <clipPath id="p62e3773142">
   <rect height="293.4" width="331.871558" x="1092.867734" y="20.798437"/>
  </clipPath>
  <clipPath id="p8db5412396">
   <rect height="293.4" width="331.871558" x="1442.470521" y="20.798437"/>
  </clipPath>
 </defs>
</svg>
