<?xml version="1.0" encoding="utf-8" standalone="no"?>
<!DOCTYPE svg PUBLIC "-//W3C//DTD SVG 1.1//EN"
  "http://www.w3.org/Graphics/SVG/1.1/DTD/svg11.dtd">
<!-- Created with matplotlib (https://matplotlib.org/) -->
<svg height="351.754687pt" version="1.1" viewBox="0 0 1876.604579 351.754687" width="1876.604579pt" xmlns="http://www.w3.org/2000/svg" xmlns:xlink="http://www.w3.org/1999/xlink">
 <defs>
  <style type="text/css">
*{stroke-linecap:butt;stroke-linejoin:round;}
  </style>
 </defs>
 <g id="figure_1">
  <g id="patch_1">
   <path d="M 0 351.754687 
L 1876.604579 351.754687 
L 1876.604579 0 
L 0 0 
z
" style="fill:#ffffff;"/>
  </g>
  <g id="axes_1">
   <g id="patch_2">
    <path d="M 44.059375 314.198437 
L 375.930933 314.198437 
L 375.930933 20.798437 
L 44.059375 20.798437 
z
" style="fill:#ffffff;"/>
   </g>
   <g id="PolyCollection_1">
    <defs>
     <path d="M 59.144446 -192.529691 
L 59.144446 -191.768353 
L 84.286231 -178.30882 
L 109.428015 -169.1921 
L 134.5698 -159.358254 
L 159.711585 -152.625337 
L 184.853369 -145.172712 
L 209.995154 -139.427526 
L 235.136939 -134.071177 
L 260.278724 -130.987194 
L 285.420508 -128.531729 
L 310.562293 -127.804214 
L 335.704078 -129.041194 
L 360.845863 -130.710895 
L 360.845863 -133.429472 
L 360.845863 -133.429472 
L 335.704078 -132.669603 
L 310.562293 -130.628192 
L 285.420508 -130.970739 
L 260.278724 -132.807012 
L 235.136939 -135.587217 
L 209.995154 -140.845951 
L 184.853369 -146.472209 
L 159.711585 -154.09209 
L 134.5698 -161.460081 
L 109.428015 -170.369136 
L 84.286231 -179.918508 
L 59.144446 -192.529691 
z
" id="ma87abc29bf" style="stroke:#1f77b4;stroke-opacity:0.2;"/>
    </defs>
    <g clip-path="url(#p704c83aac6)">
     <use style="fill:#1f77b4;fill-opacity:0.2;stroke:#1f77b4;stroke-opacity:0.2;" x="0" xlink:href="#ma87abc29bf" y="351.754687"/>
    </g>
   </g>
   <g id="PolyCollection_2">
    <defs>
     <path d="M 59.144446 -190.077726 
L 59.144446 -189.194767 
L 84.286231 -175.531982 
L 109.428015 -166.439646 
L 134.5698 -156.567123 
L 159.711585 -149.86481 
L 184.853369 -142.260379 
L 209.995154 -136.43949 
L 235.136939 -130.912808 
L 260.278724 -127.570988 
L 285.420508 -124.762399 
L 310.562293 -123.523503 
L 335.704078 -124.044869 
L 360.845863 -124.43951 
L 360.845863 -127.089981 
L 360.845863 -127.089981 
L 335.704078 -128.021255 
L 310.562293 -126.229159 
L 285.420508 -127.277017 
L 260.278724 -129.484272 
L 235.136939 -132.520454 
L 209.995154 -137.837104 
L 184.853369 -143.638392 
L 159.711585 -151.475407 
L 134.5698 -158.650798 
L 109.428015 -167.670239 
L 84.286231 -177.279079 
L 59.144446 -190.077726 
z
" id="m8399ea1eae" style="stroke:#ff7f0e;stroke-opacity:0.2;"/>
    </defs>
    <g clip-path="url(#p704c83aac6)">
     <use style="fill:#ff7f0e;fill-opacity:0.2;stroke:#ff7f0e;stroke-opacity:0.2;" x="0" xlink:href="#m8399ea1eae" y="351.754687"/>
    </g>
   </g>
   <g id="PolyCollection_3">
    <defs>
     <path d="M 59.144446 -50.899129 
L 59.144446 -50.892614 
L 84.286231 -50.895295 
L 109.428015 -50.897883 
L 134.5698 -50.902846 
L 159.711585 -50.909298 
L 184.853369 -50.922171 
L 209.995154 -50.943464 
L 235.136939 -50.96983 
L 260.278724 -51.013191 
L 285.420508 -51.070669 
L 310.562293 -51.143926 
L 335.704078 -51.288517 
L 360.845863 -51.534767 
L 360.845863 -51.590691 
L 360.845863 -51.590691 
L 335.704078 -51.318702 
L 310.562293 -51.180591 
L 285.420508 -51.083747 
L 260.278724 -51.023793 
L 235.136939 -50.976436 
L 209.995154 -50.949073 
L 184.853369 -50.929116 
L 159.711585 -50.916484 
L 134.5698 -50.912409 
L 109.428015 -50.905624 
L 84.286231 -50.902599 
L 59.144446 -50.899129 
z
" id="ma49dea25b1" style="stroke:#2ca02c;stroke-opacity:0.2;"/>
    </defs>
    <g clip-path="url(#p704c83aac6)">
     <use style="fill:#2ca02c;fill-opacity:0.2;stroke:#2ca02c;stroke-opacity:0.2;" x="0" xlink:href="#ma49dea25b1" y="351.754687"/>
    </g>
   </g>
   <g id="matplotlib.axis_1">
    <g id="xtick_1">
     <g id="line2d_1">
      <defs>
       <path d="M 0 0 
L 0 3.5 
" id="mc257b0d4bd" style="stroke:#000000;stroke-width:0.8;"/>
      </defs>
      <g>
       <use style="stroke:#000000;stroke-width:0.8;" x="59.144446" xlink:href="#mc257b0d4bd" y="314.198437"/>
      </g>
     </g>
     <g id="text_1">
      <!-- −6 -->
      <defs>
       <path d="M 10.59375 35.5 
L 73.1875 35.5 
L 73.1875 27.203125 
L 10.59375 27.203125 
z
" id="DejaVuSans-8722"/>
       <path d="M 33.015625 40.375 
Q 26.375 40.375 22.484375 35.828125 
Q 18.609375 31.296875 18.609375 23.390625 
Q 18.609375 15.53125 22.484375 10.953125 
Q 26.375 6.390625 33.015625 6.390625 
Q 39.65625 6.390625 43.53125 10.953125 
Q 47.40625 15.53125 47.40625 23.390625 
Q 47.40625 31.296875 43.53125 35.828125 
Q 39.65625 40.375 33.015625 40.375 
z
M 52.59375 71.296875 
L 52.59375 62.3125 
Q 48.875 64.0625 45.09375 64.984375 
Q 41.3125 65.921875 37.59375 65.921875 
Q 27.828125 65.921875 22.671875 59.328125 
Q 17.53125 52.734375 16.796875 39.40625 
Q 19.671875 43.65625 24.015625 45.921875 
Q 28.375 48.1875 33.59375 48.1875 
Q 44.578125 48.1875 50.953125 41.515625 
Q 57.328125 34.859375 57.328125 23.390625 
Q 57.328125 12.15625 50.6875 5.359375 
Q 44.046875 -1.421875 33.015625 -1.421875 
Q 20.359375 -1.421875 13.671875 8.265625 
Q 6.984375 17.96875 6.984375 36.375 
Q 6.984375 53.65625 15.1875 63.9375 
Q 23.390625 74.21875 37.203125 74.21875 
Q 40.921875 74.21875 44.703125 73.484375 
Q 48.484375 72.75 52.59375 71.296875 
z
" id="DejaVuSans-54"/>
      </defs>
      <g transform="translate(51.773352 328.796875)scale(0.1 -0.1)">
       <use xlink:href="#DejaVuSans-8722"/>
       <use x="83.789062" xlink:href="#DejaVuSans-54"/>
      </g>
     </g>
    </g>
    <g id="xtick_2">
     <g id="line2d_2">
      <g>
       <use style="stroke:#000000;stroke-width:0.8;" x="109.428015" xlink:href="#mc257b0d4bd" y="314.198437"/>
      </g>
     </g>
     <g id="text_2">
      <!-- −4 -->
      <defs>
       <path d="M 37.796875 64.3125 
L 12.890625 25.390625 
L 37.796875 25.390625 
z
M 35.203125 72.90625 
L 47.609375 72.90625 
L 47.609375 25.390625 
L 58.015625 25.390625 
L 58.015625 17.1875 
L 47.609375 17.1875 
L 47.609375 0 
L 37.796875 0 
L 37.796875 17.1875 
L 4.890625 17.1875 
L 4.890625 26.703125 
z
" id="DejaVuSans-52"/>
      </defs>
      <g transform="translate(102.056922 328.796875)scale(0.1 -0.1)">
       <use xlink:href="#DejaVuSans-8722"/>
       <use x="83.789062" xlink:href="#DejaVuSans-52"/>
      </g>
     </g>
    </g>
    <g id="xtick_3">
     <g id="line2d_3">
      <g>
       <use style="stroke:#000000;stroke-width:0.8;" x="159.711585" xlink:href="#mc257b0d4bd" y="314.198437"/>
      </g>
     </g>
     <g id="text_3">
      <!-- −2 -->
      <defs>
       <path d="M 19.1875 8.296875 
L 53.609375 8.296875 
L 53.609375 0 
L 7.328125 0 
L 7.328125 8.296875 
Q 12.9375 14.109375 22.625 23.890625 
Q 32.328125 33.6875 34.8125 36.53125 
Q 39.546875 41.84375 41.421875 45.53125 
Q 43.3125 49.21875 43.3125 52.78125 
Q 43.3125 58.59375 39.234375 62.25 
Q 35.15625 65.921875 28.609375 65.921875 
Q 23.96875 65.921875 18.8125 64.3125 
Q 13.671875 62.703125 7.8125 59.421875 
L 7.8125 69.390625 
Q 13.765625 71.78125 18.9375 73 
Q 24.125 74.21875 28.421875 74.21875 
Q 39.75 74.21875 46.484375 68.546875 
Q 53.21875 62.890625 53.21875 53.421875 
Q 53.21875 48.921875 51.53125 44.890625 
Q 49.859375 40.875 45.40625 35.40625 
Q 44.1875 33.984375 37.640625 27.21875 
Q 31.109375 20.453125 19.1875 8.296875 
z
" id="DejaVuSans-50"/>
      </defs>
      <g transform="translate(152.340491 328.796875)scale(0.1 -0.1)">
       <use xlink:href="#DejaVuSans-8722"/>
       <use x="83.789062" xlink:href="#DejaVuSans-50"/>
      </g>
     </g>
    </g>
    <g id="xtick_4">
     <g id="line2d_4">
      <g>
       <use style="stroke:#000000;stroke-width:0.8;" x="209.995154" xlink:href="#mc257b0d4bd" y="314.198437"/>
      </g>
     </g>
     <g id="text_4">
      <!-- 0 -->
      <defs>
       <path d="M 31.78125 66.40625 
Q 24.171875 66.40625 20.328125 58.90625 
Q 16.5 51.421875 16.5 36.375 
Q 16.5 21.390625 20.328125 13.890625 
Q 24.171875 6.390625 31.78125 6.390625 
Q 39.453125 6.390625 43.28125 13.890625 
Q 47.125 21.390625 47.125 36.375 
Q 47.125 51.421875 43.28125 58.90625 
Q 39.453125 66.40625 31.78125 66.40625 
z
M 31.78125 74.21875 
Q 44.046875 74.21875 50.515625 64.515625 
Q 56.984375 54.828125 56.984375 36.375 
Q 56.984375 17.96875 50.515625 8.265625 
Q 44.046875 -1.421875 31.78125 -1.421875 
Q 19.53125 -1.421875 13.0625 8.265625 
Q 6.59375 17.96875 6.59375 36.375 
Q 6.59375 54.828125 13.0625 64.515625 
Q 19.53125 74.21875 31.78125 74.21875 
z
" id="DejaVuSans-48"/>
      </defs>
      <g transform="translate(206.813904 328.796875)scale(0.1 -0.1)">
       <use xlink:href="#DejaVuSans-48"/>
      </g>
     </g>
    </g>
    <g id="xtick_5">
     <g id="line2d_5">
      <g>
       <use style="stroke:#000000;stroke-width:0.8;" x="260.278724" xlink:href="#mc257b0d4bd" y="314.198437"/>
      </g>
     </g>
     <g id="text_5">
      <!-- 2 -->
      <g transform="translate(257.097474 328.796875)scale(0.1 -0.1)">
       <use xlink:href="#DejaVuSans-50"/>
      </g>
     </g>
    </g>
    <g id="xtick_6">
     <g id="line2d_6">
      <g>
       <use style="stroke:#000000;stroke-width:0.8;" x="310.562293" xlink:href="#mc257b0d4bd" y="314.198437"/>
      </g>
     </g>
     <g id="text_6">
      <!-- 4 -->
      <g transform="translate(307.381043 328.796875)scale(0.1 -0.1)">
       <use xlink:href="#DejaVuSans-52"/>
      </g>
     </g>
    </g>
    <g id="xtick_7">
     <g id="line2d_7">
      <g>
       <use style="stroke:#000000;stroke-width:0.8;" x="360.845863" xlink:href="#mc257b0d4bd" y="314.198437"/>
      </g>
     </g>
     <g id="text_7">
      <!-- 6 -->
      <g transform="translate(357.664613 328.796875)scale(0.1 -0.1)">
       <use xlink:href="#DejaVuSans-54"/>
      </g>
     </g>
    </g>
    <g id="text_8">
     <!-- spill -->
     <defs>
      <path d="M 44.28125 53.078125 
L 44.28125 44.578125 
Q 40.484375 46.53125 36.375 47.5 
Q 32.28125 48.484375 27.875 48.484375 
Q 21.1875 48.484375 17.84375 46.4375 
Q 14.5 44.390625 14.5 40.28125 
Q 14.5 37.15625 16.890625 35.375 
Q 19.28125 33.59375 26.515625 31.984375 
L 29.59375 31.296875 
Q 39.15625 29.25 43.1875 25.515625 
Q 47.21875 21.78125 47.21875 15.09375 
Q 47.21875 7.46875 41.1875 3.015625 
Q 35.15625 -1.421875 24.609375 -1.421875 
Q 20.21875 -1.421875 15.453125 -0.5625 
Q 10.6875 0.296875 5.421875 2 
L 5.421875 11.28125 
Q 10.40625 8.6875 15.234375 7.390625 
Q 20.0625 6.109375 24.8125 6.109375 
Q 31.15625 6.109375 34.5625 8.28125 
Q 37.984375 10.453125 37.984375 14.40625 
Q 37.984375 18.0625 35.515625 20.015625 
Q 33.0625 21.96875 24.703125 23.78125 
L 21.578125 24.515625 
Q 13.234375 26.265625 9.515625 29.90625 
Q 5.8125 33.546875 5.8125 39.890625 
Q 5.8125 47.609375 11.28125 51.796875 
Q 16.75 56 26.8125 56 
Q 31.78125 56 36.171875 55.265625 
Q 40.578125 54.546875 44.28125 53.078125 
z
" id="DejaVuSans-115"/>
      <path d="M 18.109375 8.203125 
L 18.109375 -20.796875 
L 9.078125 -20.796875 
L 9.078125 54.6875 
L 18.109375 54.6875 
L 18.109375 46.390625 
Q 20.953125 51.265625 25.265625 53.625 
Q 29.59375 56 35.59375 56 
Q 45.5625 56 51.78125 48.09375 
Q 58.015625 40.1875 58.015625 27.296875 
Q 58.015625 14.40625 51.78125 6.484375 
Q 45.5625 -1.421875 35.59375 -1.421875 
Q 29.59375 -1.421875 25.265625 0.953125 
Q 20.953125 3.328125 18.109375 8.203125 
z
M 48.6875 27.296875 
Q 48.6875 37.203125 44.609375 42.84375 
Q 40.53125 48.484375 33.40625 48.484375 
Q 26.265625 48.484375 22.1875 42.84375 
Q 18.109375 37.203125 18.109375 27.296875 
Q 18.109375 17.390625 22.1875 11.75 
Q 26.265625 6.109375 33.40625 6.109375 
Q 40.53125 6.109375 44.609375 11.75 
Q 48.6875 17.390625 48.6875 27.296875 
z
" id="DejaVuSans-112"/>
      <path d="M 9.421875 54.6875 
L 18.40625 54.6875 
L 18.40625 0 
L 9.421875 0 
z
M 9.421875 75.984375 
L 18.40625 75.984375 
L 18.40625 64.59375 
L 9.421875 64.59375 
z
" id="DejaVuSans-105"/>
      <path d="M 9.421875 75.984375 
L 18.40625 75.984375 
L 18.40625 0 
L 9.421875 0 
z
" id="DejaVuSans-108"/>
     </defs>
     <g transform="translate(200.04906 342.475)scale(0.1 -0.1)">
      <use xlink:href="#DejaVuSans-115"/>
      <use x="52.099609" xlink:href="#DejaVuSans-112"/>
      <use x="115.576172" xlink:href="#DejaVuSans-105"/>
      <use x="143.359375" xlink:href="#DejaVuSans-108"/>
      <use x="171.142578" xlink:href="#DejaVuSans-108"/>
     </g>
    </g>
   </g>
   <g id="matplotlib.axis_2">
    <g id="ytick_1">
     <g id="line2d_8">
      <defs>
       <path d="M 0 0 
L -3.5 0 
" id="m251710b834" style="stroke:#000000;stroke-width:0.8;"/>
      </defs>
      <g>
       <use style="stroke:#000000;stroke-width:0.8;" x="44.059375" xlink:href="#m251710b834" y="300.998643"/>
      </g>
     </g>
     <g id="text_9">
      <!-- 0.0 -->
      <defs>
       <path d="M 10.6875 12.40625 
L 21 12.40625 
L 21 0 
L 10.6875 0 
z
" id="DejaVuSans-46"/>
      </defs>
      <g transform="translate(21.15625 304.797861)scale(0.1 -0.1)">
       <use xlink:href="#DejaVuSans-48"/>
       <use x="63.623047" xlink:href="#DejaVuSans-46"/>
       <use x="95.410156" xlink:href="#DejaVuSans-48"/>
      </g>
     </g>
    </g>
    <g id="ytick_2">
     <g id="line2d_9">
      <g>
       <use style="stroke:#000000;stroke-width:0.8;" x="44.059375" xlink:href="#m251710b834" y="262.686847"/>
      </g>
     </g>
     <g id="text_10">
      <!-- 0.2 -->
      <g transform="translate(21.15625 266.486066)scale(0.1 -0.1)">
       <use xlink:href="#DejaVuSans-48"/>
       <use x="63.623047" xlink:href="#DejaVuSans-46"/>
       <use x="95.410156" xlink:href="#DejaVuSans-50"/>
      </g>
     </g>
    </g>
    <g id="ytick_3">
     <g id="line2d_10">
      <g>
       <use style="stroke:#000000;stroke-width:0.8;" x="44.059375" xlink:href="#m251710b834" y="224.375051"/>
      </g>
     </g>
     <g id="text_11">
      <!-- 0.4 -->
      <g transform="translate(21.15625 228.17427)scale(0.1 -0.1)">
       <use xlink:href="#DejaVuSans-48"/>
       <use x="63.623047" xlink:href="#DejaVuSans-46"/>
       <use x="95.410156" xlink:href="#DejaVuSans-52"/>
      </g>
     </g>
    </g>
    <g id="ytick_4">
     <g id="line2d_11">
      <g>
       <use style="stroke:#000000;stroke-width:0.8;" x="44.059375" xlink:href="#m251710b834" y="186.063256"/>
      </g>
     </g>
     <g id="text_12">
      <!-- 0.6 -->
      <g transform="translate(21.15625 189.862474)scale(0.1 -0.1)">
       <use xlink:href="#DejaVuSans-48"/>
       <use x="63.623047" xlink:href="#DejaVuSans-46"/>
       <use x="95.410156" xlink:href="#DejaVuSans-54"/>
      </g>
     </g>
    </g>
    <g id="ytick_5">
     <g id="line2d_12">
      <g>
       <use style="stroke:#000000;stroke-width:0.8;" x="44.059375" xlink:href="#m251710b834" y="147.75146"/>
      </g>
     </g>
     <g id="text_13">
      <!-- 0.8 -->
      <defs>
       <path d="M 31.78125 34.625 
Q 24.75 34.625 20.71875 30.859375 
Q 16.703125 27.09375 16.703125 20.515625 
Q 16.703125 13.921875 20.71875 10.15625 
Q 24.75 6.390625 31.78125 6.390625 
Q 38.8125 6.390625 42.859375 10.171875 
Q 46.921875 13.96875 46.921875 20.515625 
Q 46.921875 27.09375 42.890625 30.859375 
Q 38.875 34.625 31.78125 34.625 
z
M 21.921875 38.8125 
Q 15.578125 40.375 12.03125 44.71875 
Q 8.5 49.078125 8.5 55.328125 
Q 8.5 64.0625 14.71875 69.140625 
Q 20.953125 74.21875 31.78125 74.21875 
Q 42.671875 74.21875 48.875 69.140625 
Q 55.078125 64.0625 55.078125 55.328125 
Q 55.078125 49.078125 51.53125 44.71875 
Q 48 40.375 41.703125 38.8125 
Q 48.828125 37.15625 52.796875 32.3125 
Q 56.78125 27.484375 56.78125 20.515625 
Q 56.78125 9.90625 50.3125 4.234375 
Q 43.84375 -1.421875 31.78125 -1.421875 
Q 19.734375 -1.421875 13.25 4.234375 
Q 6.78125 9.90625 6.78125 20.515625 
Q 6.78125 27.484375 10.78125 32.3125 
Q 14.796875 37.15625 21.921875 38.8125 
z
M 18.3125 54.390625 
Q 18.3125 48.734375 21.84375 45.5625 
Q 25.390625 42.390625 31.78125 42.390625 
Q 38.140625 42.390625 41.71875 45.5625 
Q 45.3125 48.734375 45.3125 54.390625 
Q 45.3125 60.0625 41.71875 63.234375 
Q 38.140625 66.40625 31.78125 66.40625 
Q 25.390625 66.40625 21.84375 63.234375 
Q 18.3125 60.0625 18.3125 54.390625 
z
" id="DejaVuSans-56"/>
      </defs>
      <g transform="translate(21.15625 151.550679)scale(0.1 -0.1)">
       <use xlink:href="#DejaVuSans-48"/>
       <use x="63.623047" xlink:href="#DejaVuSans-46"/>
       <use x="95.410156" xlink:href="#DejaVuSans-56"/>
      </g>
     </g>
    </g>
    <g id="ytick_6">
     <g id="line2d_13">
      <g>
       <use style="stroke:#000000;stroke-width:0.8;" x="44.059375" xlink:href="#m251710b834" y="109.439664"/>
      </g>
     </g>
     <g id="text_14">
      <!-- 1.0 -->
      <defs>
       <path d="M 12.40625 8.296875 
L 28.515625 8.296875 
L 28.515625 63.921875 
L 10.984375 60.40625 
L 10.984375 69.390625 
L 28.421875 72.90625 
L 38.28125 72.90625 
L 38.28125 8.296875 
L 54.390625 8.296875 
L 54.390625 0 
L 12.40625 0 
z
" id="DejaVuSans-49"/>
      </defs>
      <g transform="translate(21.15625 113.238883)scale(0.1 -0.1)">
       <use xlink:href="#DejaVuSans-49"/>
       <use x="63.623047" xlink:href="#DejaVuSans-46"/>
       <use x="95.410156" xlink:href="#DejaVuSans-48"/>
      </g>
     </g>
    </g>
    <g id="ytick_7">
     <g id="line2d_14">
      <g>
       <use style="stroke:#000000;stroke-width:0.8;" x="44.059375" xlink:href="#m251710b834" y="71.127869"/>
      </g>
     </g>
     <g id="text_15">
      <!-- 1.2 -->
      <g transform="translate(21.15625 74.927088)scale(0.1 -0.1)">
       <use xlink:href="#DejaVuSans-49"/>
       <use x="63.623047" xlink:href="#DejaVuSans-46"/>
       <use x="95.410156" xlink:href="#DejaVuSans-50"/>
      </g>
     </g>
    </g>
    <g id="ytick_8">
     <g id="line2d_15">
      <g>
       <use style="stroke:#000000;stroke-width:0.8;" x="44.059375" xlink:href="#m251710b834" y="32.816073"/>
      </g>
     </g>
     <g id="text_16">
      <!-- 1.4 -->
      <g transform="translate(21.15625 36.615292)scale(0.1 -0.1)">
       <use xlink:href="#DejaVuSans-49"/>
       <use x="63.623047" xlink:href="#DejaVuSans-46"/>
       <use x="95.410156" xlink:href="#DejaVuSans-52"/>
      </g>
     </g>
    </g>
    <g id="text_17">
     <!-- best_total -->
     <defs>
      <path d="M 48.6875 27.296875 
Q 48.6875 37.203125 44.609375 42.84375 
Q 40.53125 48.484375 33.40625 48.484375 
Q 26.265625 48.484375 22.1875 42.84375 
Q 18.109375 37.203125 18.109375 27.296875 
Q 18.109375 17.390625 22.1875 11.75 
Q 26.265625 6.109375 33.40625 6.109375 
Q 40.53125 6.109375 44.609375 11.75 
Q 48.6875 17.390625 48.6875 27.296875 
z
M 18.109375 46.390625 
Q 20.953125 51.265625 25.265625 53.625 
Q 29.59375 56 35.59375 56 
Q 45.5625 56 51.78125 48.09375 
Q 58.015625 40.1875 58.015625 27.296875 
Q 58.015625 14.40625 51.78125 6.484375 
Q 45.5625 -1.421875 35.59375 -1.421875 
Q 29.59375 -1.421875 25.265625 0.953125 
Q 20.953125 3.328125 18.109375 8.203125 
L 18.109375 0 
L 9.078125 0 
L 9.078125 75.984375 
L 18.109375 75.984375 
z
" id="DejaVuSans-98"/>
      <path d="M 56.203125 29.59375 
L 56.203125 25.203125 
L 14.890625 25.203125 
Q 15.484375 15.921875 20.484375 11.0625 
Q 25.484375 6.203125 34.421875 6.203125 
Q 39.59375 6.203125 44.453125 7.46875 
Q 49.3125 8.734375 54.109375 11.28125 
L 54.109375 2.78125 
Q 49.265625 0.734375 44.1875 -0.34375 
Q 39.109375 -1.421875 33.890625 -1.421875 
Q 20.796875 -1.421875 13.15625 6.1875 
Q 5.515625 13.8125 5.515625 26.8125 
Q 5.515625 40.234375 12.765625 48.109375 
Q 20.015625 56 32.328125 56 
Q 43.359375 56 49.78125 48.890625 
Q 56.203125 41.796875 56.203125 29.59375 
z
M 47.21875 32.234375 
Q 47.125 39.59375 43.09375 43.984375 
Q 39.0625 48.390625 32.421875 48.390625 
Q 24.90625 48.390625 20.390625 44.140625 
Q 15.875 39.890625 15.1875 32.171875 
z
" id="DejaVuSans-101"/>
      <path d="M 18.3125 70.21875 
L 18.3125 54.6875 
L 36.8125 54.6875 
L 36.8125 47.703125 
L 18.3125 47.703125 
L 18.3125 18.015625 
Q 18.3125 11.328125 20.140625 9.421875 
Q 21.96875 7.515625 27.59375 7.515625 
L 36.8125 7.515625 
L 36.8125 0 
L 27.59375 0 
Q 17.1875 0 13.234375 3.875 
Q 9.28125 7.765625 9.28125 18.015625 
L 9.28125 47.703125 
L 2.6875 47.703125 
L 2.6875 54.6875 
L 9.28125 54.6875 
L 9.28125 70.21875 
z
" id="DejaVuSans-116"/>
      <path d="M 50.984375 -16.609375 
L 50.984375 -23.578125 
L -0.984375 -23.578125 
L -0.984375 -16.609375 
z
" id="DejaVuSans-95"/>
      <path d="M 30.609375 48.390625 
Q 23.390625 48.390625 19.1875 42.75 
Q 14.984375 37.109375 14.984375 27.296875 
Q 14.984375 17.484375 19.15625 11.84375 
Q 23.34375 6.203125 30.609375 6.203125 
Q 37.796875 6.203125 41.984375 11.859375 
Q 46.1875 17.53125 46.1875 27.296875 
Q 46.1875 37.015625 41.984375 42.703125 
Q 37.796875 48.390625 30.609375 48.390625 
z
M 30.609375 56 
Q 42.328125 56 49.015625 48.375 
Q 55.71875 40.765625 55.71875 27.296875 
Q 55.71875 13.875 49.015625 6.21875 
Q 42.328125 -1.421875 30.609375 -1.421875 
Q 18.84375 -1.421875 12.171875 6.21875 
Q 5.515625 13.875 5.515625 27.296875 
Q 5.515625 40.765625 12.171875 48.375 
Q 18.84375 56 30.609375 56 
z
" id="DejaVuSans-111"/>
      <path d="M 34.28125 27.484375 
Q 23.390625 27.484375 19.1875 25 
Q 14.984375 22.515625 14.984375 16.5 
Q 14.984375 11.71875 18.140625 8.90625 
Q 21.296875 6.109375 26.703125 6.109375 
Q 34.1875 6.109375 38.703125 11.40625 
Q 43.21875 16.703125 43.21875 25.484375 
L 43.21875 27.484375 
z
M 52.203125 31.203125 
L 52.203125 0 
L 43.21875 0 
L 43.21875 8.296875 
Q 40.140625 3.328125 35.546875 0.953125 
Q 30.953125 -1.421875 24.3125 -1.421875 
Q 15.921875 -1.421875 10.953125 3.296875 
Q 6 8.015625 6 15.921875 
Q 6 25.140625 12.171875 29.828125 
Q 18.359375 34.515625 30.609375 34.515625 
L 43.21875 34.515625 
L 43.21875 35.40625 
Q 43.21875 41.609375 39.140625 45 
Q 35.0625 48.390625 27.6875 48.390625 
Q 23 48.390625 18.546875 47.265625 
Q 14.109375 46.140625 10.015625 43.890625 
L 10.015625 52.203125 
Q 14.9375 54.109375 19.578125 55.046875 
Q 24.21875 56 28.609375 56 
Q 40.484375 56 46.34375 49.84375 
Q 52.203125 43.703125 52.203125 31.203125 
z
" id="DejaVuSans-97"/>
     </defs>
     <g transform="translate(14.798437 192.246875)rotate(-90)scale(0.1 -0.1)">
      <use xlink:href="#DejaVuSans-98"/>
      <use x="63.476562" xlink:href="#DejaVuSans-101"/>
      <use x="125" xlink:href="#DejaVuSans-115"/>
      <use x="177.099609" xlink:href="#DejaVuSans-116"/>
      <use x="216.308594" xlink:href="#DejaVuSans-95"/>
      <use x="266.308594" xlink:href="#DejaVuSans-116"/>
      <use x="305.517578" xlink:href="#DejaVuSans-111"/>
      <use x="366.699219" xlink:href="#DejaVuSans-116"/>
      <use x="405.908203" xlink:href="#DejaVuSans-97"/>
      <use x="467.1875" xlink:href="#DejaVuSans-108"/>
     </g>
    </g>
   </g>
   <g id="line2d_16">
    <path clip-path="url(#p704c83aac6)" d="M 59.144446 159.626738 
L 84.286231 172.664227 
L 109.428015 181.965488 
L 134.5698 191.386751 
L 159.711585 198.402401 
L 184.853369 205.957828 
L 209.995154 211.628777 
L 235.136939 216.942525 
L 260.278724 219.918843 
L 285.420508 221.998513 
L 310.562293 222.578761 
L 335.704078 220.959656 
L 360.845863 219.59825 
" style="fill:none;stroke:#1f77b4;stroke-linecap:square;stroke-width:1.5;"/>
   </g>
   <g id="line2d_17">
    <path clip-path="url(#p704c83aac6)" d="M 59.144446 162.129759 
L 84.286231 175.378087 
L 109.428015 184.673062 
L 134.5698 194.123826 
L 159.711585 201.114981 
L 184.853369 208.786652 
L 209.995154 214.597769 
L 235.136939 220.091813 
L 260.278724 223.347906 
L 285.420508 225.756744 
L 310.562293 226.867273 
L 335.704078 225.869286 
L 360.845863 225.9971 
" style="fill:none;stroke:#ff7f0e;stroke-linecap:square;stroke-width:1.5;"/>
   </g>
   <g id="line2d_18">
    <path clip-path="url(#p704c83aac6)" d="M 59.144446 300.858897 
L 84.286231 300.855914 
L 109.428015 300.853011 
L 134.5698 300.847289 
L 159.711585 300.841806 
L 184.853369 300.828988 
L 209.995154 300.808377 
L 235.136939 300.781356 
L 260.278724 300.736711 
L 285.420508 300.676602 
L 310.562293 300.58864 
L 335.704078 300.451522 
L 360.845863 300.193877 
" style="fill:none;stroke:#2ca02c;stroke-linecap:square;stroke-width:1.5;"/>
   </g>
   <g id="line2d_19"/>
   <g id="line2d_20"/>
   <g id="line2d_21"/>
   <g id="line2d_22"/>
   <g id="patch_3">
    <path d="M 44.059375 314.198437 
L 44.059375 20.798437 
" style="fill:none;stroke:#000000;stroke-linecap:square;stroke-linejoin:miter;stroke-width:0.8;"/>
   </g>
   <g id="patch_4">
    <path d="M 44.059375 314.198437 
L 375.930933 314.198437 
" style="fill:none;stroke:#000000;stroke-linecap:square;stroke-linejoin:miter;stroke-width:0.8;"/>
   </g>
   <g id="text_18">
    <!-- feature_type = colors -->
    <defs>
     <path d="M 37.109375 75.984375 
L 37.109375 68.5 
L 28.515625 68.5 
Q 23.6875 68.5 21.796875 66.546875 
Q 19.921875 64.59375 19.921875 59.515625 
L 19.921875 54.6875 
L 34.71875 54.6875 
L 34.71875 47.703125 
L 19.921875 47.703125 
L 19.921875 0 
L 10.890625 0 
L 10.890625 47.703125 
L 2.296875 47.703125 
L 2.296875 54.6875 
L 10.890625 54.6875 
L 10.890625 58.5 
Q 10.890625 67.625 15.140625 71.796875 
Q 19.390625 75.984375 28.609375 75.984375 
z
" id="DejaVuSans-102"/>
     <path d="M 8.5 21.578125 
L 8.5 54.6875 
L 17.484375 54.6875 
L 17.484375 21.921875 
Q 17.484375 14.15625 20.5 10.265625 
Q 23.53125 6.390625 29.59375 6.390625 
Q 36.859375 6.390625 41.078125 11.03125 
Q 45.3125 15.671875 45.3125 23.6875 
L 45.3125 54.6875 
L 54.296875 54.6875 
L 54.296875 0 
L 45.3125 0 
L 45.3125 8.40625 
Q 42.046875 3.421875 37.71875 1 
Q 33.40625 -1.421875 27.6875 -1.421875 
Q 18.265625 -1.421875 13.375 4.4375 
Q 8.5 10.296875 8.5 21.578125 
z
M 31.109375 56 
z
" id="DejaVuSans-117"/>
     <path d="M 41.109375 46.296875 
Q 39.59375 47.171875 37.8125 47.578125 
Q 36.03125 48 33.890625 48 
Q 26.265625 48 22.1875 43.046875 
Q 18.109375 38.09375 18.109375 28.8125 
L 18.109375 0 
L 9.078125 0 
L 9.078125 54.6875 
L 18.109375 54.6875 
L 18.109375 46.1875 
Q 20.953125 51.171875 25.484375 53.578125 
Q 30.03125 56 36.53125 56 
Q 37.453125 56 38.578125 55.875 
Q 39.703125 55.765625 41.0625 55.515625 
z
" id="DejaVuSans-114"/>
     <path d="M 32.171875 -5.078125 
Q 28.375 -14.84375 24.75 -17.8125 
Q 21.140625 -20.796875 15.09375 -20.796875 
L 7.90625 -20.796875 
L 7.90625 -13.28125 
L 13.1875 -13.28125 
Q 16.890625 -13.28125 18.9375 -11.515625 
Q 21 -9.765625 23.484375 -3.21875 
L 25.09375 0.875 
L 2.984375 54.6875 
L 12.5 54.6875 
L 29.59375 11.921875 
L 46.6875 54.6875 
L 56.203125 54.6875 
z
" id="DejaVuSans-121"/>
     <path id="DejaVuSans-32"/>
     <path d="M 10.59375 45.40625 
L 73.1875 45.40625 
L 73.1875 37.203125 
L 10.59375 37.203125 
z
M 10.59375 25.484375 
L 73.1875 25.484375 
L 73.1875 17.1875 
L 10.59375 17.1875 
z
" id="DejaVuSans-61"/>
     <path d="M 48.78125 52.59375 
L 48.78125 44.1875 
Q 44.96875 46.296875 41.140625 47.34375 
Q 37.3125 48.390625 33.40625 48.390625 
Q 24.65625 48.390625 19.8125 42.84375 
Q 14.984375 37.3125 14.984375 27.296875 
Q 14.984375 17.28125 19.8125 11.734375 
Q 24.65625 6.203125 33.40625 6.203125 
Q 37.3125 6.203125 41.140625 7.25 
Q 44.96875 8.296875 48.78125 10.40625 
L 48.78125 2.09375 
Q 45.015625 0.34375 40.984375 -0.53125 
Q 36.96875 -1.421875 32.421875 -1.421875 
Q 20.0625 -1.421875 12.78125 6.34375 
Q 5.515625 14.109375 5.515625 27.296875 
Q 5.515625 40.671875 12.859375 48.328125 
Q 20.21875 56 33.015625 56 
Q 37.15625 56 41.109375 55.140625 
Q 45.0625 54.296875 48.78125 52.59375 
z
" id="DejaVuSans-99"/>
    </defs>
    <g transform="translate(155.879529 14.798437)scale(0.1 -0.1)">
     <use xlink:href="#DejaVuSans-102"/>
     <use x="35.205078" xlink:href="#DejaVuSans-101"/>
     <use x="96.728516" xlink:href="#DejaVuSans-97"/>
     <use x="158.007812" xlink:href="#DejaVuSans-116"/>
     <use x="197.216797" xlink:href="#DejaVuSans-117"/>
     <use x="260.595703" xlink:href="#DejaVuSans-114"/>
     <use x="301.677734" xlink:href="#DejaVuSans-101"/>
     <use x="363.201172" xlink:href="#DejaVuSans-95"/>
     <use x="413.201172" xlink:href="#DejaVuSans-116"/>
     <use x="452.410156" xlink:href="#DejaVuSans-121"/>
     <use x="511.589844" xlink:href="#DejaVuSans-112"/>
     <use x="575.066406" xlink:href="#DejaVuSans-101"/>
     <use x="636.589844" xlink:href="#DejaVuSans-32"/>
     <use x="668.376953" xlink:href="#DejaVuSans-61"/>
     <use x="752.166016" xlink:href="#DejaVuSans-32"/>
     <use x="783.953125" xlink:href="#DejaVuSans-99"/>
     <use x="838.933594" xlink:href="#DejaVuSans-111"/>
     <use x="900.115234" xlink:href="#DejaVuSans-108"/>
     <use x="927.898438" xlink:href="#DejaVuSans-111"/>
     <use x="989.080078" xlink:href="#DejaVuSans-114"/>
     <use x="1030.193359" xlink:href="#DejaVuSans-115"/>
    </g>
   </g>
  </g>
  <g id="axes_2">
   <g id="patch_5">
    <path d="M 393.662161 314.198437 
L 725.53372 314.198437 
L 725.53372 20.798437 
L 393.662161 20.798437 
z
" style="fill:#ffffff;"/>
   </g>
   <g id="PolyCollection_4">
    <defs>
     <path d="M 408.747232 -208.122845 
L 408.747232 -206.372877 
L 433.889017 -191.727184 
L 459.030802 -182.218882 
L 484.172586 -174.049158 
L 509.314371 -166.924025 
L 534.456156 -161.628215 
L 559.597941 -156.728858 
L 584.739725 -152.856734 
L 609.88151 -150.747888 
L 635.023295 -151.511364 
L 660.16508 -154.802648 
L 685.306864 -157.358966 
L 710.448649 -162.506348 
L 710.448649 -166.540592 
L 710.448649 -166.540592 
L 685.306864 -160.140176 
L 660.16508 -159.158942 
L 635.023295 -156.106883 
L 609.88151 -153.323055 
L 584.739725 -155.089798 
L 559.597941 -158.671497 
L 534.456156 -163.369209 
L 509.314371 -168.869678 
L 484.172586 -175.616512 
L 459.030802 -184.594923 
L 433.889017 -193.794504 
L 408.747232 -208.122845 
z
" id="m9136efd0b0" style="stroke:#1f77b4;stroke-opacity:0.2;"/>
    </defs>
    <g clip-path="url(#p159d922715)">
     <use style="fill:#1f77b4;fill-opacity:0.2;stroke:#1f77b4;stroke-opacity:0.2;" x="0" xlink:href="#m9136efd0b0" y="351.754687"/>
    </g>
   </g>
   <g id="PolyCollection_5">
    <defs>
     <path d="M 408.747232 -185.727987 
L 408.747232 -184.50155 
L 433.889017 -169.321948 
L 459.030802 -158.034888 
L 484.172586 -148.659666 
L 509.314371 -140.321831 
L 534.456156 -133.124653 
L 559.597941 -126.173956 
L 584.739725 -119.853546 
L 609.88151 -114.796522 
L 635.023295 -111.731378 
L 660.16508 -110.300361 
L 685.306864 -107.934776 
L 710.448649 -108.092422 
L 710.448649 -111.031975 
L 710.448649 -111.031975 
L 685.306864 -110.415095 
L 660.16508 -114.256233 
L 635.023295 -115.199375 
L 609.88151 -116.46052 
L 584.739725 -121.606507 
L 559.597941 -127.581139 
L 534.456156 -134.495507 
L 509.314371 -141.805116 
L 484.172586 -149.968952 
L 459.030802 -159.629952 
L 433.889017 -170.706529 
L 408.747232 -185.727987 
z
" id="m961856453d" style="stroke:#ff7f0e;stroke-opacity:0.2;"/>
    </defs>
    <g clip-path="url(#p159d922715)">
     <use style="fill:#ff7f0e;fill-opacity:0.2;stroke:#ff7f0e;stroke-opacity:0.2;" x="0" xlink:href="#m961856453d" y="351.754687"/>
    </g>
   </g>
   <g id="PolyCollection_6">
    <defs>
     <path d="M 408.747232 -62.507997 
L 408.747232 -61.669781 
L 433.889017 -61.967371 
L 459.030802 -63.441216 
L 484.172586 -64.610612 
L 509.314371 -65.877499 
L 534.456156 -67.604697 
L 559.597941 -69.401929 
L 584.739725 -71.82256 
L 609.88151 -74.621543 
L 635.023295 -78.236425 
L 660.16508 -81.968325 
L 685.306864 -86.867926 
L 710.448649 -91.772691 
L 710.448649 -94.00396 
L 710.448649 -94.00396 
L 685.306864 -88.340736 
L 660.16508 -83.551877 
L 635.023295 -79.876424 
L 609.88151 -76.184392 
L 584.739725 -72.798778 
L 559.597941 -70.617185 
L 534.456156 -68.598979 
L 509.314371 -66.747379 
L 484.172586 -65.494083 
L 459.030802 -64.723601 
L 433.889017 -62.862258 
L 408.747232 -62.507997 
z
" id="mf13ee40d42" style="stroke:#2ca02c;stroke-opacity:0.2;"/>
    </defs>
    <g clip-path="url(#p159d922715)">
     <use style="fill:#2ca02c;fill-opacity:0.2;stroke:#2ca02c;stroke-opacity:0.2;" x="0" xlink:href="#mf13ee40d42" y="351.754687"/>
    </g>
   </g>
   <g id="matplotlib.axis_3">
    <g id="xtick_8">
     <g id="line2d_23">
      <g>
       <use style="stroke:#000000;stroke-width:0.8;" x="408.747232" xlink:href="#mc257b0d4bd" y="314.198437"/>
      </g>
     </g>
     <g id="text_19">
      <!-- −6 -->
      <g transform="translate(401.376138 328.796875)scale(0.1 -0.1)">
       <use xlink:href="#DejaVuSans-8722"/>
       <use x="83.789062" xlink:href="#DejaVuSans-54"/>
      </g>
     </g>
    </g>
    <g id="xtick_9">
     <g id="line2d_24">
      <g>
       <use style="stroke:#000000;stroke-width:0.8;" x="459.030802" xlink:href="#mc257b0d4bd" y="314.198437"/>
      </g>
     </g>
     <g id="text_20">
      <!-- −4 -->
      <g transform="translate(451.659708 328.796875)scale(0.1 -0.1)">
       <use xlink:href="#DejaVuSans-8722"/>
       <use x="83.789062" xlink:href="#DejaVuSans-52"/>
      </g>
     </g>
    </g>
    <g id="xtick_10">
     <g id="line2d_25">
      <g>
       <use style="stroke:#000000;stroke-width:0.8;" x="509.314371" xlink:href="#mc257b0d4bd" y="314.198437"/>
      </g>
     </g>
     <g id="text_21">
      <!-- −2 -->
      <g transform="translate(501.943277 328.796875)scale(0.1 -0.1)">
       <use xlink:href="#DejaVuSans-8722"/>
       <use x="83.789062" xlink:href="#DejaVuSans-50"/>
      </g>
     </g>
    </g>
    <g id="xtick_11">
     <g id="line2d_26">
      <g>
       <use style="stroke:#000000;stroke-width:0.8;" x="559.597941" xlink:href="#mc257b0d4bd" y="314.198437"/>
      </g>
     </g>
     <g id="text_22">
      <!-- 0 -->
      <g transform="translate(556.416691 328.796875)scale(0.1 -0.1)">
       <use xlink:href="#DejaVuSans-48"/>
      </g>
     </g>
    </g>
    <g id="xtick_12">
     <g id="line2d_27">
      <g>
       <use style="stroke:#000000;stroke-width:0.8;" x="609.88151" xlink:href="#mc257b0d4bd" y="314.198437"/>
      </g>
     </g>
     <g id="text_23">
      <!-- 2 -->
      <g transform="translate(606.70026 328.796875)scale(0.1 -0.1)">
       <use xlink:href="#DejaVuSans-50"/>
      </g>
     </g>
    </g>
    <g id="xtick_13">
     <g id="line2d_28">
      <g>
       <use style="stroke:#000000;stroke-width:0.8;" x="660.16508" xlink:href="#mc257b0d4bd" y="314.198437"/>
      </g>
     </g>
     <g id="text_24">
      <!-- 4 -->
      <g transform="translate(656.98383 328.796875)scale(0.1 -0.1)">
       <use xlink:href="#DejaVuSans-52"/>
      </g>
     </g>
    </g>
    <g id="xtick_14">
     <g id="line2d_29">
      <g>
       <use style="stroke:#000000;stroke-width:0.8;" x="710.448649" xlink:href="#mc257b0d4bd" y="314.198437"/>
      </g>
     </g>
     <g id="text_25">
      <!-- 6 -->
      <g transform="translate(707.267399 328.796875)scale(0.1 -0.1)">
       <use xlink:href="#DejaVuSans-54"/>
      </g>
     </g>
    </g>
    <g id="text_26">
     <!-- spill -->
     <g transform="translate(549.651847 342.475)scale(0.1 -0.1)">
      <use xlink:href="#DejaVuSans-115"/>
      <use x="52.099609" xlink:href="#DejaVuSans-112"/>
      <use x="115.576172" xlink:href="#DejaVuSans-105"/>
      <use x="143.359375" xlink:href="#DejaVuSans-108"/>
      <use x="171.142578" xlink:href="#DejaVuSans-108"/>
     </g>
    </g>
   </g>
   <g id="matplotlib.axis_4">
    <g id="ytick_9">
     <g id="line2d_30">
      <g>
       <use style="stroke:#000000;stroke-width:0.8;" x="393.662161" xlink:href="#m251710b834" y="300.998643"/>
      </g>
     </g>
    </g>
    <g id="ytick_10">
     <g id="line2d_31">
      <g>
       <use style="stroke:#000000;stroke-width:0.8;" x="393.662161" xlink:href="#m251710b834" y="262.686847"/>
      </g>
     </g>
    </g>
    <g id="ytick_11">
     <g id="line2d_32">
      <g>
       <use style="stroke:#000000;stroke-width:0.8;" x="393.662161" xlink:href="#m251710b834" y="224.375051"/>
      </g>
     </g>
    </g>
    <g id="ytick_12">
     <g id="line2d_33">
      <g>
       <use style="stroke:#000000;stroke-width:0.8;" x="393.662161" xlink:href="#m251710b834" y="186.063256"/>
      </g>
     </g>
    </g>
    <g id="ytick_13">
     <g id="line2d_34">
      <g>
       <use style="stroke:#000000;stroke-width:0.8;" x="393.662161" xlink:href="#m251710b834" y="147.75146"/>
      </g>
     </g>
    </g>
    <g id="ytick_14">
     <g id="line2d_35">
      <g>
       <use style="stroke:#000000;stroke-width:0.8;" x="393.662161" xlink:href="#m251710b834" y="109.439664"/>
      </g>
     </g>
    </g>
    <g id="ytick_15">
     <g id="line2d_36">
      <g>
       <use style="stroke:#000000;stroke-width:0.8;" x="393.662161" xlink:href="#m251710b834" y="71.127869"/>
      </g>
     </g>
    </g>
    <g id="ytick_16">
     <g id="line2d_37">
      <g>
       <use style="stroke:#000000;stroke-width:0.8;" x="393.662161" xlink:href="#m251710b834" y="32.816073"/>
      </g>
     </g>
    </g>
   </g>
   <g id="line2d_38">
    <path clip-path="url(#p159d922715)" d="M 408.747232 144.467394 
L 433.889017 158.965276 
L 459.030802 168.351794 
L 484.172586 176.87842 
L 509.314371 183.788493 
L 534.456156 189.213418 
L 559.597941 194.050973 
L 584.739725 197.778101 
L 609.88151 199.692629 
L 635.023295 197.811855 
L 660.16508 194.974161 
L 685.306864 193.024712 
L 710.448649 187.317887 
" style="fill:none;stroke:#1f77b4;stroke-linecap:square;stroke-width:1.5;"/>
   </g>
   <g id="line2d_39">
    <path clip-path="url(#p159d922715)" d="M 408.747232 166.597894 
L 433.889017 181.733951 
L 459.030802 192.936109 
L 484.172586 202.441183 
L 509.314371 210.66585 
L 534.456156 217.965442 
L 559.597941 224.858016 
L 584.739725 231.046787 
L 609.88151 236.148729 
L 635.023295 238.322353 
L 660.16508 239.452395 
L 685.306864 242.57694 
L 710.448649 242.136929 
" style="fill:none;stroke:#ff7f0e;stroke-linecap:square;stroke-width:1.5;"/>
   </g>
   <g id="line2d_40">
    <path clip-path="url(#p159d922715)" d="M 408.747232 289.684096 
L 433.889017 289.361334 
L 459.030802 287.716117 
L 484.172586 286.698911 
L 509.314371 285.455612 
L 534.456156 283.646569 
L 559.597941 281.799582 
L 584.739725 279.441441 
L 609.88151 276.407174 
L 635.023295 272.724435 
L 660.16508 268.989854 
L 685.306864 264.1393 
L 710.448649 258.905322 
" style="fill:none;stroke:#2ca02c;stroke-linecap:square;stroke-width:1.5;"/>
   </g>
   <g id="patch_6">
    <path d="M 393.662161 314.198437 
L 393.662161 20.798437 
" style="fill:none;stroke:#000000;stroke-linecap:square;stroke-linejoin:miter;stroke-width:0.8;"/>
   </g>
   <g id="patch_7">
    <path d="M 393.662161 314.198437 
L 725.53372 314.198437 
" style="fill:none;stroke:#000000;stroke-linecap:square;stroke-linejoin:miter;stroke-width:0.8;"/>
   </g>
   <g id="text_27">
    <!-- feature_type = sbm -->
    <defs>
     <path d="M 52 44.1875 
Q 55.375 50.25 60.0625 53.125 
Q 64.75 56 71.09375 56 
Q 79.640625 56 84.28125 50.015625 
Q 88.921875 44.046875 88.921875 33.015625 
L 88.921875 0 
L 79.890625 0 
L 79.890625 32.71875 
Q 79.890625 40.578125 77.09375 44.375 
Q 74.3125 48.1875 68.609375 48.1875 
Q 61.625 48.1875 57.5625 43.546875 
Q 53.515625 38.921875 53.515625 30.90625 
L 53.515625 0 
L 44.484375 0 
L 44.484375 32.71875 
Q 44.484375 40.625 41.703125 44.40625 
Q 38.921875 48.1875 33.109375 48.1875 
Q 26.21875 48.1875 22.15625 43.53125 
Q 18.109375 38.875 18.109375 30.90625 
L 18.109375 0 
L 9.078125 0 
L 9.078125 54.6875 
L 18.109375 54.6875 
L 18.109375 46.1875 
Q 21.1875 51.21875 25.484375 53.609375 
Q 29.78125 56 35.6875 56 
Q 41.65625 56 45.828125 52.96875 
Q 50 49.953125 52 44.1875 
z
" id="DejaVuSans-109"/>
    </defs>
    <g transform="translate(509.750284 14.798437)scale(0.1 -0.1)">
     <use xlink:href="#DejaVuSans-102"/>
     <use x="35.205078" xlink:href="#DejaVuSans-101"/>
     <use x="96.728516" xlink:href="#DejaVuSans-97"/>
     <use x="158.007812" xlink:href="#DejaVuSans-116"/>
     <use x="197.216797" xlink:href="#DejaVuSans-117"/>
     <use x="260.595703" xlink:href="#DejaVuSans-114"/>
     <use x="301.677734" xlink:href="#DejaVuSans-101"/>
     <use x="363.201172" xlink:href="#DejaVuSans-95"/>
     <use x="413.201172" xlink:href="#DejaVuSans-116"/>
     <use x="452.410156" xlink:href="#DejaVuSans-121"/>
     <use x="511.589844" xlink:href="#DejaVuSans-112"/>
     <use x="575.066406" xlink:href="#DejaVuSans-101"/>
     <use x="636.589844" xlink:href="#DejaVuSans-32"/>
     <use x="668.376953" xlink:href="#DejaVuSans-61"/>
     <use x="752.166016" xlink:href="#DejaVuSans-32"/>
     <use x="783.953125" xlink:href="#DejaVuSans-115"/>
     <use x="836.052734" xlink:href="#DejaVuSans-98"/>
     <use x="899.529297" xlink:href="#DejaVuSans-109"/>
    </g>
   </g>
  </g>
  <g id="axes_3">
   <g id="patch_8">
    <path d="M 743.264948 314.198437 
L 1075.136506 314.198437 
L 1075.136506 20.798437 
L 743.264948 20.798437 
z
" style="fill:#ffffff;"/>
   </g>
   <g id="PolyCollection_7">
    <defs>
     <path d="M 758.350019 -297.736863 
L 758.350019 -295.028898 
L 783.491803 -290.180518 
L 808.633588 -290.813942 
L 833.775373 -288.316095 
L 858.917158 -289.811957 
L 884.058942 -287.784802 
L 909.200727 -288.545097 
L 934.342512 -288.303482 
L 959.484296 -288.130518 
L 984.626081 -287.982176 
L 1009.767866 -290.102576 
L 1034.909651 -290.692559 
L 1060.051435 -296.941387 
L 1060.051435 -301.196762 
L 1060.051435 -301.196762 
L 1034.909651 -293.772969 
L 1009.767866 -293.597645 
L 984.626081 -291.680896 
L 959.484296 -291.97811 
L 934.342512 -292.507245 
L 909.200727 -291.4339 
L 884.058942 -292.640165 
L 858.917158 -294.356439 
L 833.775373 -292.551539 
L 808.633588 -293.681119 
L 783.491803 -293.781303 
L 758.350019 -297.736863 
z
" id="m4ed44411d7" style="stroke:#1f77b4;stroke-opacity:0.2;"/>
    </defs>
    <g clip-path="url(#p71420395c8)">
     <use style="fill:#1f77b4;fill-opacity:0.2;stroke:#1f77b4;stroke-opacity:0.2;" x="0" xlink:href="#m4ed44411d7" y="351.754687"/>
    </g>
   </g>
   <g id="PolyCollection_8">
    <defs>
     <path d="M 758.350019 -224.815232 
L 758.350019 -224.123757 
L 783.491803 -218.572944 
L 808.633588 -218.772807 
L 833.775373 -217.448912 
L 858.917158 -217.797421 
L 884.058942 -216.420517 
L 909.200727 -217.049903 
L 934.342512 -217.155492 
L 959.484296 -217.760293 
L 984.626081 -217.256047 
L 1009.767866 -218.098529 
L 1034.909651 -218.243828 
L 1060.051435 -217.530517 
L 1060.051435 -219.065323 
L 1060.051435 -219.065323 
L 1034.909651 -220.81769 
L 1009.767866 -219.986471 
L 984.626081 -219.021145 
L 959.484296 -219.9439 
L 934.342512 -219.321012 
L 909.200727 -218.28622 
L 884.058942 -218.7489 
L 858.917158 -220.153416 
L 833.775373 -219.353876 
L 808.633588 -220.412559 
L 783.491803 -220.870429 
L 758.350019 -224.815232 
z
" id="m0f41da5b1d" style="stroke:#ff7f0e;stroke-opacity:0.2;"/>
    </defs>
    <g clip-path="url(#p71420395c8)">
     <use style="fill:#ff7f0e;fill-opacity:0.2;stroke:#ff7f0e;stroke-opacity:0.2;" x="0" xlink:href="#m0f41da5b1d" y="351.754687"/>
    </g>
   </g>
   <g id="PolyCollection_9">
    <defs>
     <path d="M 758.350019 -122.46868 
L 758.350019 -119.689376 
L 783.491803 -119.560484 
L 808.633588 -119.91383 
L 833.775373 -119.171613 
L 858.917158 -119.965021 
L 884.058942 -119.321957 
L 909.200727 -119.756873 
L 934.342512 -119.566514 
L 959.484296 -118.345191 
L 984.626081 -118.959546 
L 1009.767866 -120.211036 
L 1034.909651 -120.41725 
L 1060.051435 -127.970581 
L 1060.051435 -132.201366 
L 1060.051435 -132.201366 
L 1034.909651 -122.986452 
L 1009.767866 -123.696839 
L 984.626081 -122.371349 
L 959.484296 -122.461455 
L 934.342512 -122.964522 
L 909.200727 -122.843802 
L 884.058942 -123.869315 
L 858.917158 -124.447821 
L 833.775373 -123.250992 
L 808.633588 -123.432473 
L 783.491803 -122.777131 
L 758.350019 -122.46868 
z
" id="mbd52dd8982" style="stroke:#2ca02c;stroke-opacity:0.2;"/>
    </defs>
    <g clip-path="url(#p71420395c8)">
     <use style="fill:#2ca02c;fill-opacity:0.2;stroke:#2ca02c;stroke-opacity:0.2;" x="0" xlink:href="#mbd52dd8982" y="351.754687"/>
    </g>
   </g>
   <g id="matplotlib.axis_5">
    <g id="xtick_15">
     <g id="line2d_41">
      <g>
       <use style="stroke:#000000;stroke-width:0.8;" x="758.350019" xlink:href="#mc257b0d4bd" y="314.198437"/>
      </g>
     </g>
     <g id="text_28">
      <!-- −6 -->
      <g transform="translate(750.978925 328.796875)scale(0.1 -0.1)">
       <use xlink:href="#DejaVuSans-8722"/>
       <use x="83.789062" xlink:href="#DejaVuSans-54"/>
      </g>
     </g>
    </g>
    <g id="xtick_16">
     <g id="line2d_42">
      <g>
       <use style="stroke:#000000;stroke-width:0.8;" x="808.633588" xlink:href="#mc257b0d4bd" y="314.198437"/>
      </g>
     </g>
     <g id="text_29">
      <!-- −4 -->
      <g transform="translate(801.262494 328.796875)scale(0.1 -0.1)">
       <use xlink:href="#DejaVuSans-8722"/>
       <use x="83.789062" xlink:href="#DejaVuSans-52"/>
      </g>
     </g>
    </g>
    <g id="xtick_17">
     <g id="line2d_43">
      <g>
       <use style="stroke:#000000;stroke-width:0.8;" x="858.917158" xlink:href="#mc257b0d4bd" y="314.198437"/>
      </g>
     </g>
     <g id="text_30">
      <!-- −2 -->
      <g transform="translate(851.546064 328.796875)scale(0.1 -0.1)">
       <use xlink:href="#DejaVuSans-8722"/>
       <use x="83.789062" xlink:href="#DejaVuSans-50"/>
      </g>
     </g>
    </g>
    <g id="xtick_18">
     <g id="line2d_44">
      <g>
       <use style="stroke:#000000;stroke-width:0.8;" x="909.200727" xlink:href="#mc257b0d4bd" y="314.198437"/>
      </g>
     </g>
     <g id="text_31">
      <!-- 0 -->
      <g transform="translate(906.019477 328.796875)scale(0.1 -0.1)">
       <use xlink:href="#DejaVuSans-48"/>
      </g>
     </g>
    </g>
    <g id="xtick_19">
     <g id="line2d_45">
      <g>
       <use style="stroke:#000000;stroke-width:0.8;" x="959.484296" xlink:href="#mc257b0d4bd" y="314.198437"/>
      </g>
     </g>
     <g id="text_32">
      <!-- 2 -->
      <g transform="translate(956.303046 328.796875)scale(0.1 -0.1)">
       <use xlink:href="#DejaVuSans-50"/>
      </g>
     </g>
    </g>
    <g id="xtick_20">
     <g id="line2d_46">
      <g>
       <use style="stroke:#000000;stroke-width:0.8;" x="1009.767866" xlink:href="#mc257b0d4bd" y="314.198437"/>
      </g>
     </g>
     <g id="text_33">
      <!-- 4 -->
      <g transform="translate(1006.586616 328.796875)scale(0.1 -0.1)">
       <use xlink:href="#DejaVuSans-52"/>
      </g>
     </g>
    </g>
    <g id="xtick_21">
     <g id="line2d_47">
      <g>
       <use style="stroke:#000000;stroke-width:0.8;" x="1060.051435" xlink:href="#mc257b0d4bd" y="314.198437"/>
      </g>
     </g>
     <g id="text_34">
      <!-- 6 -->
      <g transform="translate(1056.870185 328.796875)scale(0.1 -0.1)">
       <use xlink:href="#DejaVuSans-54"/>
      </g>
     </g>
    </g>
    <g id="text_35">
     <!-- spill -->
     <g transform="translate(899.254633 342.475)scale(0.1 -0.1)">
      <use xlink:href="#DejaVuSans-115"/>
      <use x="52.099609" xlink:href="#DejaVuSans-112"/>
      <use x="115.576172" xlink:href="#DejaVuSans-105"/>
      <use x="143.359375" xlink:href="#DejaVuSans-108"/>
      <use x="171.142578" xlink:href="#DejaVuSans-108"/>
     </g>
    </g>
   </g>
   <g id="matplotlib.axis_6">
    <g id="ytick_17">
     <g id="line2d_48">
      <g>
       <use style="stroke:#000000;stroke-width:0.8;" x="743.264948" xlink:href="#m251710b834" y="300.998643"/>
      </g>
     </g>
    </g>
    <g id="ytick_18">
     <g id="line2d_49">
      <g>
       <use style="stroke:#000000;stroke-width:0.8;" x="743.264948" xlink:href="#m251710b834" y="262.686847"/>
      </g>
     </g>
    </g>
    <g id="ytick_19">
     <g id="line2d_50">
      <g>
       <use style="stroke:#000000;stroke-width:0.8;" x="743.264948" xlink:href="#m251710b834" y="224.375051"/>
      </g>
     </g>
    </g>
    <g id="ytick_20">
     <g id="line2d_51">
      <g>
       <use style="stroke:#000000;stroke-width:0.8;" x="743.264948" xlink:href="#m251710b834" y="186.063256"/>
      </g>
     </g>
    </g>
    <g id="ytick_21">
     <g id="line2d_52">
      <g>
       <use style="stroke:#000000;stroke-width:0.8;" x="743.264948" xlink:href="#m251710b834" y="147.75146"/>
      </g>
     </g>
    </g>
    <g id="ytick_22">
     <g id="line2d_53">
      <g>
       <use style="stroke:#000000;stroke-width:0.8;" x="743.264948" xlink:href="#m251710b834" y="109.439664"/>
      </g>
     </g>
    </g>
    <g id="ytick_23">
     <g id="line2d_54">
      <g>
       <use style="stroke:#000000;stroke-width:0.8;" x="743.264948" xlink:href="#m251710b834" y="71.127869"/>
      </g>
     </g>
    </g>
    <g id="ytick_24">
     <g id="line2d_55">
      <g>
       <use style="stroke:#000000;stroke-width:0.8;" x="743.264948" xlink:href="#m251710b834" y="32.816073"/>
      </g>
     </g>
    </g>
   </g>
   <g id="line2d_56">
    <path clip-path="url(#p71420395c8)" d="M 758.350019 55.279284 
L 783.491803 59.778347 
L 808.633588 59.49294 
L 833.775373 61.23574 
L 858.917158 59.719352 
L 884.058942 61.75048 
L 909.200727 61.87287 
L 934.342512 61.384266 
L 959.484296 61.647323 
L 984.626081 62.003747 
L 1009.767866 59.950217 
L 1034.909651 59.631921 
L 1060.051435 52.660293 
" style="fill:none;stroke:#1f77b4;stroke-linecap:square;stroke-width:1.5;"/>
   </g>
   <g id="line2d_57">
    <path clip-path="url(#p71420395c8)" d="M 758.350019 127.28355 
L 783.491803 132.051093 
L 808.633588 132.201763 
L 833.775373 133.364051 
L 858.917158 132.819193 
L 884.058942 134.138721 
L 909.200727 134.105574 
L 934.342512 133.579969 
L 959.484296 132.967775 
L 984.626081 133.654111 
L 1009.767866 132.692554 
L 1034.909651 132.25554 
L 1060.051435 133.375628 
" style="fill:none;stroke:#ff7f0e;stroke-linecap:square;stroke-width:1.5;"/>
   </g>
   <g id="line2d_58">
    <path clip-path="url(#p71420395c8)" d="M 758.350019 230.593658 
L 783.491803 230.39283 
L 808.633588 229.980267 
L 833.775373 230.580786 
L 858.917158 229.595322 
L 884.058942 230.38441 
L 909.200727 230.463177 
L 934.342512 230.493772 
L 959.484296 231.360436 
L 984.626081 231.004408 
L 1009.767866 229.881795 
L 1034.909651 229.995614 
L 1060.051435 221.762255 
" style="fill:none;stroke:#2ca02c;stroke-linecap:square;stroke-width:1.5;"/>
   </g>
   <g id="patch_9">
    <path d="M 743.264948 314.198437 
L 743.264948 20.798437 
" style="fill:none;stroke:#000000;stroke-linecap:square;stroke-linejoin:miter;stroke-width:0.8;"/>
   </g>
   <g id="patch_10">
    <path d="M 743.264948 314.198437 
L 1075.136506 314.198437 
" style="fill:none;stroke:#000000;stroke-linecap:square;stroke-linejoin:miter;stroke-width:0.8;"/>
   </g>
   <g id="text_36">
    <!-- feature_type = lowrank5 -->
    <defs>
     <path d="M 4.203125 54.6875 
L 13.1875 54.6875 
L 24.421875 12.015625 
L 35.59375 54.6875 
L 46.1875 54.6875 
L 57.421875 12.015625 
L 68.609375 54.6875 
L 77.59375 54.6875 
L 63.28125 0 
L 52.6875 0 
L 40.921875 44.828125 
L 29.109375 0 
L 18.5 0 
z
" id="DejaVuSans-119"/>
     <path d="M 54.890625 33.015625 
L 54.890625 0 
L 45.90625 0 
L 45.90625 32.71875 
Q 45.90625 40.484375 42.875 44.328125 
Q 39.84375 48.1875 33.796875 48.1875 
Q 26.515625 48.1875 22.3125 43.546875 
Q 18.109375 38.921875 18.109375 30.90625 
L 18.109375 0 
L 9.078125 0 
L 9.078125 54.6875 
L 18.109375 54.6875 
L 18.109375 46.1875 
Q 21.34375 51.125 25.703125 53.5625 
Q 30.078125 56 35.796875 56 
Q 45.21875 56 50.046875 50.171875 
Q 54.890625 44.34375 54.890625 33.015625 
z
" id="DejaVuSans-110"/>
     <path d="M 9.078125 75.984375 
L 18.109375 75.984375 
L 18.109375 31.109375 
L 44.921875 54.6875 
L 56.390625 54.6875 
L 27.390625 29.109375 
L 57.625 0 
L 45.90625 0 
L 18.109375 26.703125 
L 18.109375 0 
L 9.078125 0 
z
" id="DejaVuSans-107"/>
     <path d="M 10.796875 72.90625 
L 49.515625 72.90625 
L 49.515625 64.59375 
L 19.828125 64.59375 
L 19.828125 46.734375 
Q 21.96875 47.46875 24.109375 47.828125 
Q 26.265625 48.1875 28.421875 48.1875 
Q 40.625 48.1875 47.75 41.5 
Q 54.890625 34.8125 54.890625 23.390625 
Q 54.890625 11.625 47.5625 5.09375 
Q 40.234375 -1.421875 26.90625 -1.421875 
Q 22.3125 -1.421875 17.546875 -0.640625 
Q 12.796875 0.140625 7.71875 1.703125 
L 7.71875 11.625 
Q 12.109375 9.234375 16.796875 8.0625 
Q 21.484375 6.890625 26.703125 6.890625 
Q 35.15625 6.890625 40.078125 11.328125 
Q 45.015625 15.765625 45.015625 23.390625 
Q 45.015625 31 40.078125 35.4375 
Q 35.15625 39.890625 26.703125 39.890625 
Q 22.75 39.890625 18.8125 39.015625 
Q 14.890625 38.140625 10.796875 36.28125 
z
" id="DejaVuSans-53"/>
    </defs>
    <g transform="translate(847.099946 14.798437)scale(0.1 -0.1)">
     <use xlink:href="#DejaVuSans-102"/>
     <use x="35.205078" xlink:href="#DejaVuSans-101"/>
     <use x="96.728516" xlink:href="#DejaVuSans-97"/>
     <use x="158.007812" xlink:href="#DejaVuSans-116"/>
     <use x="197.216797" xlink:href="#DejaVuSans-117"/>
     <use x="260.595703" xlink:href="#DejaVuSans-114"/>
     <use x="301.677734" xlink:href="#DejaVuSans-101"/>
     <use x="363.201172" xlink:href="#DejaVuSans-95"/>
     <use x="413.201172" xlink:href="#DejaVuSans-116"/>
     <use x="452.410156" xlink:href="#DejaVuSans-121"/>
     <use x="511.589844" xlink:href="#DejaVuSans-112"/>
     <use x="575.066406" xlink:href="#DejaVuSans-101"/>
     <use x="636.589844" xlink:href="#DejaVuSans-32"/>
     <use x="668.376953" xlink:href="#DejaVuSans-61"/>
     <use x="752.166016" xlink:href="#DejaVuSans-32"/>
     <use x="783.953125" xlink:href="#DejaVuSans-108"/>
     <use x="811.736328" xlink:href="#DejaVuSans-111"/>
     <use x="872.917969" xlink:href="#DejaVuSans-119"/>
     <use x="954.705078" xlink:href="#DejaVuSans-114"/>
     <use x="995.818359" xlink:href="#DejaVuSans-97"/>
     <use x="1057.097656" xlink:href="#DejaVuSans-110"/>
     <use x="1120.476562" xlink:href="#DejaVuSans-107"/>
     <use x="1178.386719" xlink:href="#DejaVuSans-53"/>
    </g>
   </g>
  </g>
  <g id="axes_4">
   <g id="patch_11">
    <path d="M 1092.867734 314.198437 
L 1424.739293 314.198437 
L 1424.739293 20.798437 
L 1092.867734 20.798437 
z
" style="fill:#ffffff;"/>
   </g>
   <g id="PolyCollection_10">
    <defs>
     <path d="M 1107.952805 -313.661285 
L 1107.952805 -309.816218 
L 1133.09459 -303.803563 
L 1158.236374 -299.947419 
L 1183.378159 -302.248383 
L 1208.519944 -298.045782 
L 1233.661729 -301.783554 
L 1258.803513 -298.257945 
L 1283.945298 -299.669501 
L 1309.087083 -300.337394 
L 1334.228868 -303.357934 
L 1359.370652 -304.526121 
L 1384.512437 -308.678257 
L 1409.654222 -312.136496 
L 1409.654222 -317.619886 
L 1409.654222 -317.619886 
L 1384.512437 -313.715027 
L 1359.370652 -309.593029 
L 1334.228868 -307.844237 
L 1309.087083 -305.399666 
L 1283.945298 -303.495409 
L 1258.803513 -303.742581 
L 1233.661729 -305.236558 
L 1208.519944 -302.218295 
L 1183.378159 -306.878289 
L 1158.236374 -303.880684 
L 1133.09459 -308.441456 
L 1107.952805 -313.661285 
z
" id="mf8d8a0727a" style="stroke:#1f77b4;stroke-opacity:0.2;"/>
    </defs>
    <g clip-path="url(#p188405beb4)">
     <use style="fill:#1f77b4;fill-opacity:0.2;stroke:#1f77b4;stroke-opacity:0.2;" x="0" xlink:href="#mf8d8a0727a" y="351.754687"/>
    </g>
   </g>
   <g id="PolyCollection_11">
    <defs>
     <path d="M 1107.952805 -225.062639 
L 1107.952805 -224.302475 
L 1133.09459 -218.422667 
L 1158.236374 -214.606037 
L 1183.378159 -213.997766 
L 1208.519944 -211.329423 
L 1233.661729 -214.101871 
L 1258.803513 -212.473958 
L 1283.945298 -213.900237 
L 1309.087083 -211.099859 
L 1334.228868 -212.249622 
L 1359.370652 -212.696499 
L 1384.512437 -214.488687 
L 1409.654222 -214.134041 
L 1409.654222 -217.506609 
L 1409.654222 -217.506609 
L 1384.512437 -217.777583 
L 1359.370652 -215.571858 
L 1334.228868 -216.068104 
L 1309.087083 -214.814726 
L 1283.945298 -217.395721 
L 1258.803513 -216.35728 
L 1233.661729 -217.750442 
L 1208.519944 -215.0967 
L 1183.378159 -217.384004 
L 1158.236374 -217.594636 
L 1133.09459 -220.055924 
L 1107.952805 -225.062639 
z
" id="mcd60d4ce3c" style="stroke:#ff7f0e;stroke-opacity:0.2;"/>
    </defs>
    <g clip-path="url(#p188405beb4)">
     <use style="fill:#ff7f0e;fill-opacity:0.2;stroke:#ff7f0e;stroke-opacity:0.2;" x="0" xlink:href="#mcd60d4ce3c" y="351.754687"/>
    </g>
   </g>
   <g id="PolyCollection_12">
    <defs>
     <path d="M 1107.952805 -138.138526 
L 1107.952805 -134.401008 
L 1133.09459 -133.378988 
L 1158.236374 -132.491312 
L 1183.378159 -135.832352 
L 1208.519944 -133.427565 
L 1233.661729 -135.039628 
L 1258.803513 -133.678093 
L 1283.945298 -133.187727 
L 1309.087083 -136.470563 
L 1334.228868 -138.836502 
L 1359.370652 -139.755266 
L 1384.512437 -141.93764 
L 1409.654222 -145.009596 
L 1409.654222 -151.607238 
L 1409.654222 -151.607238 
L 1384.512437 -146.985029 
L 1359.370652 -144.34833 
L 1334.228868 -142.454687 
L 1309.087083 -141.29397 
L 1283.945298 -137.01488 
L 1258.803513 -137.732012 
L 1233.661729 -138.225035 
L 1208.519944 -138.12741 
L 1183.378159 -140.000341 
L 1158.236374 -137.23694 
L 1133.09459 -138.842095 
L 1107.952805 -138.138526 
z
" id="m3735114f32" style="stroke:#2ca02c;stroke-opacity:0.2;"/>
    </defs>
    <g clip-path="url(#p188405beb4)">
     <use style="fill:#2ca02c;fill-opacity:0.2;stroke:#2ca02c;stroke-opacity:0.2;" x="0" xlink:href="#m3735114f32" y="351.754687"/>
    </g>
   </g>
   <g id="matplotlib.axis_7">
    <g id="xtick_22">
     <g id="line2d_59">
      <g>
       <use style="stroke:#000000;stroke-width:0.8;" x="1107.952805" xlink:href="#mc257b0d4bd" y="314.198437"/>
      </g>
     </g>
     <g id="text_37">
      <!-- −6 -->
      <g transform="translate(1100.581711 328.796875)scale(0.1 -0.1)">
       <use xlink:href="#DejaVuSans-8722"/>
       <use x="83.789062" xlink:href="#DejaVuSans-54"/>
      </g>
     </g>
    </g>
    <g id="xtick_23">
     <g id="line2d_60">
      <g>
       <use style="stroke:#000000;stroke-width:0.8;" x="1158.236374" xlink:href="#mc257b0d4bd" y="314.198437"/>
      </g>
     </g>
     <g id="text_38">
      <!-- −4 -->
      <g transform="translate(1150.865281 328.796875)scale(0.1 -0.1)">
       <use xlink:href="#DejaVuSans-8722"/>
       <use x="83.789062" xlink:href="#DejaVuSans-52"/>
      </g>
     </g>
    </g>
    <g id="xtick_24">
     <g id="line2d_61">
      <g>
       <use style="stroke:#000000;stroke-width:0.8;" x="1208.519944" xlink:href="#mc257b0d4bd" y="314.198437"/>
      </g>
     </g>
     <g id="text_39">
      <!-- −2 -->
      <g transform="translate(1201.14885 328.796875)scale(0.1 -0.1)">
       <use xlink:href="#DejaVuSans-8722"/>
       <use x="83.789062" xlink:href="#DejaVuSans-50"/>
      </g>
     </g>
    </g>
    <g id="xtick_25">
     <g id="line2d_62">
      <g>
       <use style="stroke:#000000;stroke-width:0.8;" x="1258.803513" xlink:href="#mc257b0d4bd" y="314.198437"/>
      </g>
     </g>
     <g id="text_40">
      <!-- 0 -->
      <g transform="translate(1255.622263 328.796875)scale(0.1 -0.1)">
       <use xlink:href="#DejaVuSans-48"/>
      </g>
     </g>
    </g>
    <g id="xtick_26">
     <g id="line2d_63">
      <g>
       <use style="stroke:#000000;stroke-width:0.8;" x="1309.087083" xlink:href="#mc257b0d4bd" y="314.198437"/>
      </g>
     </g>
     <g id="text_41">
      <!-- 2 -->
      <g transform="translate(1305.905833 328.796875)scale(0.1 -0.1)">
       <use xlink:href="#DejaVuSans-50"/>
      </g>
     </g>
    </g>
    <g id="xtick_27">
     <g id="line2d_64">
      <g>
       <use style="stroke:#000000;stroke-width:0.8;" x="1359.370652" xlink:href="#mc257b0d4bd" y="314.198437"/>
      </g>
     </g>
     <g id="text_42">
      <!-- 4 -->
      <g transform="translate(1356.189402 328.796875)scale(0.1 -0.1)">
       <use xlink:href="#DejaVuSans-52"/>
      </g>
     </g>
    </g>
    <g id="xtick_28">
     <g id="line2d_65">
      <g>
       <use style="stroke:#000000;stroke-width:0.8;" x="1409.654222" xlink:href="#mc257b0d4bd" y="314.198437"/>
      </g>
     </g>
     <g id="text_43">
      <!-- 6 -->
      <g transform="translate(1406.472972 328.796875)scale(0.1 -0.1)">
       <use xlink:href="#DejaVuSans-54"/>
      </g>
     </g>
    </g>
    <g id="text_44">
     <!-- spill -->
     <g transform="translate(1248.85742 342.475)scale(0.1 -0.1)">
      <use xlink:href="#DejaVuSans-115"/>
      <use x="52.099609" xlink:href="#DejaVuSans-112"/>
      <use x="115.576172" xlink:href="#DejaVuSans-105"/>
      <use x="143.359375" xlink:href="#DejaVuSans-108"/>
      <use x="171.142578" xlink:href="#DejaVuSans-108"/>
     </g>
    </g>
   </g>
   <g id="matplotlib.axis_8">
    <g id="ytick_25">
     <g id="line2d_66">
      <g>
       <use style="stroke:#000000;stroke-width:0.8;" x="1092.867734" xlink:href="#m251710b834" y="300.998643"/>
      </g>
     </g>
    </g>
    <g id="ytick_26">
     <g id="line2d_67">
      <g>
       <use style="stroke:#000000;stroke-width:0.8;" x="1092.867734" xlink:href="#m251710b834" y="262.686847"/>
      </g>
     </g>
    </g>
    <g id="ytick_27">
     <g id="line2d_68">
      <g>
       <use style="stroke:#000000;stroke-width:0.8;" x="1092.867734" xlink:href="#m251710b834" y="224.375051"/>
      </g>
     </g>
    </g>
    <g id="ytick_28">
     <g id="line2d_69">
      <g>
       <use style="stroke:#000000;stroke-width:0.8;" x="1092.867734" xlink:href="#m251710b834" y="186.063256"/>
      </g>
     </g>
    </g>
    <g id="ytick_29">
     <g id="line2d_70">
      <g>
       <use style="stroke:#000000;stroke-width:0.8;" x="1092.867734" xlink:href="#m251710b834" y="147.75146"/>
      </g>
     </g>
    </g>
    <g id="ytick_30">
     <g id="line2d_71">
      <g>
       <use style="stroke:#000000;stroke-width:0.8;" x="1092.867734" xlink:href="#m251710b834" y="109.439664"/>
      </g>
     </g>
    </g>
    <g id="ytick_31">
     <g id="line2d_72">
      <g>
       <use style="stroke:#000000;stroke-width:0.8;" x="1092.867734" xlink:href="#m251710b834" y="71.127869"/>
      </g>
     </g>
    </g>
    <g id="ytick_32">
     <g id="line2d_73">
      <g>
       <use style="stroke:#000000;stroke-width:0.8;" x="1092.867734" xlink:href="#m251710b834" y="32.816073"/>
      </g>
     </g>
    </g>
   </g>
   <g id="line2d_74">
    <path clip-path="url(#p188405beb4)" d="M 1107.952805 39.987738 
L 1133.09459 45.511951 
L 1158.236374 49.852775 
L 1183.378159 47.080856 
L 1208.519944 51.776363 
L 1233.661729 48.287987 
L 1258.803513 50.767867 
L 1283.945298 49.944509 
L 1309.087083 48.925461 
L 1334.228868 46.046827 
L 1359.370652 44.687897 
L 1384.512437 40.550526 
L 1409.654222 36.905024 
" style="fill:none;stroke:#1f77b4;stroke-linecap:square;stroke-width:1.5;"/>
   </g>
   <g id="line2d_75">
    <path clip-path="url(#p188405beb4)" d="M 1107.952805 127.056264 
L 1133.09459 132.600649 
L 1158.236374 135.627813 
L 1183.378159 136.07253 
L 1208.519944 138.610298 
L 1233.661729 135.821254 
L 1258.803513 137.266132 
L 1283.945298 136.051551 
L 1309.087083 138.73473 
L 1334.228868 137.485461 
L 1359.370652 137.570375 
L 1384.512437 135.69312 
L 1409.654222 135.930974 
" style="fill:none;stroke:#ff7f0e;stroke-linecap:square;stroke-width:1.5;"/>
   </g>
   <g id="line2d_76">
    <path clip-path="url(#p188405beb4)" d="M 1107.952805 215.470874 
L 1133.09459 215.556225 
L 1158.236374 216.894067 
L 1183.378159 213.702555 
L 1208.519944 215.878431 
L 1233.661729 215.160438 
L 1258.803513 216.162815 
L 1283.945298 216.547212 
L 1309.087083 212.83382 
L 1334.228868 211.188237 
L 1359.370652 209.649686 
L 1384.512437 207.254336 
L 1409.654222 203.260453 
" style="fill:none;stroke:#2ca02c;stroke-linecap:square;stroke-width:1.5;"/>
   </g>
   <g id="patch_12">
    <path d="M 1092.867734 314.198437 
L 1092.867734 20.798437 
" style="fill:none;stroke:#000000;stroke-linecap:square;stroke-linejoin:miter;stroke-width:0.8;"/>
   </g>
   <g id="patch_13">
    <path d="M 1092.867734 314.198437 
L 1424.739293 314.198437 
" style="fill:none;stroke:#000000;stroke-linecap:square;stroke-linejoin:miter;stroke-width:0.8;"/>
   </g>
   <g id="text_45">
    <!-- feature_type = lowrank8 -->
    <g transform="translate(1196.702732 14.798437)scale(0.1 -0.1)">
     <use xlink:href="#DejaVuSans-102"/>
     <use x="35.205078" xlink:href="#DejaVuSans-101"/>
     <use x="96.728516" xlink:href="#DejaVuSans-97"/>
     <use x="158.007812" xlink:href="#DejaVuSans-116"/>
     <use x="197.216797" xlink:href="#DejaVuSans-117"/>
     <use x="260.595703" xlink:href="#DejaVuSans-114"/>
     <use x="301.677734" xlink:href="#DejaVuSans-101"/>
     <use x="363.201172" xlink:href="#DejaVuSans-95"/>
     <use x="413.201172" xlink:href="#DejaVuSans-116"/>
     <use x="452.410156" xlink:href="#DejaVuSans-121"/>
     <use x="511.589844" xlink:href="#DejaVuSans-112"/>
     <use x="575.066406" xlink:href="#DejaVuSans-101"/>
     <use x="636.589844" xlink:href="#DejaVuSans-32"/>
     <use x="668.376953" xlink:href="#DejaVuSans-61"/>
     <use x="752.166016" xlink:href="#DejaVuSans-32"/>
     <use x="783.953125" xlink:href="#DejaVuSans-108"/>
     <use x="811.736328" xlink:href="#DejaVuSans-111"/>
     <use x="872.917969" xlink:href="#DejaVuSans-119"/>
     <use x="954.705078" xlink:href="#DejaVuSans-114"/>
     <use x="995.818359" xlink:href="#DejaVuSans-97"/>
     <use x="1057.097656" xlink:href="#DejaVuSans-110"/>
     <use x="1120.476562" xlink:href="#DejaVuSans-107"/>
     <use x="1178.386719" xlink:href="#DejaVuSans-56"/>
    </g>
   </g>
  </g>
  <g id="axes_5">
   <g id="patch_14">
    <path d="M 1442.470521 314.198437 
L 1774.342079 314.198437 
L 1774.342079 20.798437 
L 1442.470521 20.798437 
z
" style="fill:#ffffff;"/>
   </g>
   <g id="PolyCollection_13">
    <defs>
     <path d="M 1457.555591 -308.117107 
L 1457.555591 -303.419218 
L 1482.697376 -298.332542 
L 1507.839161 -296.947234 
L 1532.980946 -294.424365 
L 1558.12273 -296.949113 
L 1583.264515 -293.472653 
L 1608.4063 -297.117472 
L 1633.548085 -296.70128 
L 1658.689869 -297.066312 
L 1683.831654 -299.553497 
L 1708.973439 -299.766833 
L 1734.115223 -300.700457 
L 1759.257008 -303.726348 
L 1759.257008 -310.056894 
L 1759.257008 -310.056894 
L 1734.115223 -305.729679 
L 1708.973439 -304.243004 
L 1683.831654 -303.785414 
L 1658.689869 -301.704143 
L 1633.548085 -301.371179 
L 1608.4063 -301.218866 
L 1583.264515 -299.36764 
L 1558.12273 -301.593994 
L 1532.980946 -300.517585 
L 1507.839161 -300.909047 
L 1482.697376 -303.391248 
L 1457.555591 -308.117107 
z
" id="m774bd84f71" style="stroke:#1f77b4;stroke-opacity:0.2;"/>
    </defs>
    <g clip-path="url(#paef1f9d116)">
     <use style="fill:#1f77b4;fill-opacity:0.2;stroke:#1f77b4;stroke-opacity:0.2;" x="0" xlink:href="#m774bd84f71" y="351.754687"/>
    </g>
   </g>
   <g id="PolyCollection_14">
    <defs>
     <path d="M 1457.555591 -224.718007 
L 1457.555591 -223.695103 
L 1482.697376 -218.151908 
L 1507.839161 -215.006718 
L 1532.980946 -211.97097 
L 1558.12273 -214.894832 
L 1583.264515 -210.013513 
L 1608.4063 -210.662212 
L 1633.548085 -211.83532 
L 1658.689869 -212.485476 
L 1683.831654 -212.046023 
L 1708.973439 -212.554645 
L 1734.115223 -213.198306 
L 1759.257008 -213.931818 
L 1759.257008 -217.311195 
L 1759.257008 -217.311195 
L 1734.115223 -216.73671 
L 1708.973439 -216.924754 
L 1683.831654 -216.46114 
L 1658.689869 -215.606241 
L 1633.548085 -216.233323 
L 1608.4063 -215.312596 
L 1583.264515 -215.553979 
L 1558.12273 -219.223392 
L 1532.980946 -216.199573 
L 1507.839161 -217.836982 
L 1482.697376 -219.812118 
L 1457.555591 -224.718007 
z
" id="mc703927d40" style="stroke:#ff7f0e;stroke-opacity:0.2;"/>
    </defs>
    <g clip-path="url(#paef1f9d116)">
     <use style="fill:#ff7f0e;fill-opacity:0.2;stroke:#ff7f0e;stroke-opacity:0.2;" x="0" xlink:href="#mc703927d40" y="351.754687"/>
    </g>
   </g>
   <g id="PolyCollection_15">
    <defs>
     <path d="M 1457.555591 -133.487675 
L 1457.555591 -128.441251 
L 1482.697376 -128.302018 
L 1507.839161 -129.836037 
L 1532.980946 -129.986375 
L 1558.12273 -129.665777 
L 1583.264515 -130.485906 
L 1608.4063 -133.127503 
L 1633.548085 -131.884427 
L 1658.689869 -132.354287 
L 1683.831654 -133.948109 
L 1708.973439 -134.630804 
L 1734.115223 -135.173284 
L 1759.257008 -137.33361 
L 1759.257008 -144.369169 
L 1759.257008 -144.369169 
L 1734.115223 -140.482865 
L 1708.973439 -138.868058 
L 1683.831654 -139.098693 
L 1658.689869 -136.623426 
L 1633.548085 -136.367073 
L 1608.4063 -137.566628 
L 1583.264515 -135.31315 
L 1558.12273 -133.113667 
L 1532.980946 -134.753663 
L 1507.839161 -133.683077 
L 1482.697376 -133.613704 
L 1457.555591 -133.487675 
z
" id="m9a12719490" style="stroke:#2ca02c;stroke-opacity:0.2;"/>
    </defs>
    <g clip-path="url(#paef1f9d116)">
     <use style="fill:#2ca02c;fill-opacity:0.2;stroke:#2ca02c;stroke-opacity:0.2;" x="0" xlink:href="#m9a12719490" y="351.754687"/>
    </g>
   </g>
   <g id="matplotlib.axis_9">
    <g id="xtick_29">
     <g id="line2d_77">
      <g>
       <use style="stroke:#000000;stroke-width:0.8;" x="1457.555591" xlink:href="#mc257b0d4bd" y="314.198437"/>
      </g>
     </g>
     <g id="text_46">
      <!-- −6 -->
      <g transform="translate(1450.184498 328.796875)scale(0.1 -0.1)">
       <use xlink:href="#DejaVuSans-8722"/>
       <use x="83.789062" xlink:href="#DejaVuSans-54"/>
      </g>
     </g>
    </g>
    <g id="xtick_30">
     <g id="line2d_78">
      <g>
       <use style="stroke:#000000;stroke-width:0.8;" x="1507.839161" xlink:href="#mc257b0d4bd" y="314.198437"/>
      </g>
     </g>
     <g id="text_47">
      <!-- −4 -->
      <g transform="translate(1500.468067 328.796875)scale(0.1 -0.1)">
       <use xlink:href="#DejaVuSans-8722"/>
       <use x="83.789062" xlink:href="#DejaVuSans-52"/>
      </g>
     </g>
    </g>
    <g id="xtick_31">
     <g id="line2d_79">
      <g>
       <use style="stroke:#000000;stroke-width:0.8;" x="1558.12273" xlink:href="#mc257b0d4bd" y="314.198437"/>
      </g>
     </g>
     <g id="text_48">
      <!-- −2 -->
      <g transform="translate(1550.751637 328.796875)scale(0.1 -0.1)">
       <use xlink:href="#DejaVuSans-8722"/>
       <use x="83.789062" xlink:href="#DejaVuSans-50"/>
      </g>
     </g>
    </g>
    <g id="xtick_32">
     <g id="line2d_80">
      <g>
       <use style="stroke:#000000;stroke-width:0.8;" x="1608.4063" xlink:href="#mc257b0d4bd" y="314.198437"/>
      </g>
     </g>
     <g id="text_49">
      <!-- 0 -->
      <g transform="translate(1605.22505 328.796875)scale(0.1 -0.1)">
       <use xlink:href="#DejaVuSans-48"/>
      </g>
     </g>
    </g>
    <g id="xtick_33">
     <g id="line2d_81">
      <g>
       <use style="stroke:#000000;stroke-width:0.8;" x="1658.689869" xlink:href="#mc257b0d4bd" y="314.198437"/>
      </g>
     </g>
     <g id="text_50">
      <!-- 2 -->
      <g transform="translate(1655.508619 328.796875)scale(0.1 -0.1)">
       <use xlink:href="#DejaVuSans-50"/>
      </g>
     </g>
    </g>
    <g id="xtick_34">
     <g id="line2d_82">
      <g>
       <use style="stroke:#000000;stroke-width:0.8;" x="1708.973439" xlink:href="#mc257b0d4bd" y="314.198437"/>
      </g>
     </g>
     <g id="text_51">
      <!-- 4 -->
      <g transform="translate(1705.792189 328.796875)scale(0.1 -0.1)">
       <use xlink:href="#DejaVuSans-52"/>
      </g>
     </g>
    </g>
    <g id="xtick_35">
     <g id="line2d_83">
      <g>
       <use style="stroke:#000000;stroke-width:0.8;" x="1759.257008" xlink:href="#mc257b0d4bd" y="314.198437"/>
      </g>
     </g>
     <g id="text_52">
      <!-- 6 -->
      <g transform="translate(1756.075758 328.796875)scale(0.1 -0.1)">
       <use xlink:href="#DejaVuSans-54"/>
      </g>
     </g>
    </g>
    <g id="text_53">
     <!-- spill -->
     <g transform="translate(1598.460206 342.475)scale(0.1 -0.1)">
      <use xlink:href="#DejaVuSans-115"/>
      <use x="52.099609" xlink:href="#DejaVuSans-112"/>
      <use x="115.576172" xlink:href="#DejaVuSans-105"/>
      <use x="143.359375" xlink:href="#DejaVuSans-108"/>
      <use x="171.142578" xlink:href="#DejaVuSans-108"/>
     </g>
    </g>
   </g>
   <g id="matplotlib.axis_10">
    <g id="ytick_33">
     <g id="line2d_84">
      <g>
       <use style="stroke:#000000;stroke-width:0.8;" x="1442.470521" xlink:href="#m251710b834" y="300.998643"/>
      </g>
     </g>
    </g>
    <g id="ytick_34">
     <g id="line2d_85">
      <g>
       <use style="stroke:#000000;stroke-width:0.8;" x="1442.470521" xlink:href="#m251710b834" y="262.686847"/>
      </g>
     </g>
    </g>
    <g id="ytick_35">
     <g id="line2d_86">
      <g>
       <use style="stroke:#000000;stroke-width:0.8;" x="1442.470521" xlink:href="#m251710b834" y="224.375051"/>
      </g>
     </g>
    </g>
    <g id="ytick_36">
     <g id="line2d_87">
      <g>
       <use style="stroke:#000000;stroke-width:0.8;" x="1442.470521" xlink:href="#m251710b834" y="186.063256"/>
      </g>
     </g>
    </g>
    <g id="ytick_37">
     <g id="line2d_88">
      <g>
       <use style="stroke:#000000;stroke-width:0.8;" x="1442.470521" xlink:href="#m251710b834" y="147.75146"/>
      </g>
     </g>
    </g>
    <g id="ytick_38">
     <g id="line2d_89">
      <g>
       <use style="stroke:#000000;stroke-width:0.8;" x="1442.470521" xlink:href="#m251710b834" y="109.439664"/>
      </g>
     </g>
    </g>
    <g id="ytick_39">
     <g id="line2d_90">
      <g>
       <use style="stroke:#000000;stroke-width:0.8;" x="1442.470521" xlink:href="#m251710b834" y="71.127869"/>
      </g>
     </g>
    </g>
    <g id="ytick_40">
     <g id="line2d_91">
      <g>
       <use style="stroke:#000000;stroke-width:0.8;" x="1442.470521" xlink:href="#m251710b834" y="32.816073"/>
      </g>
     </g>
    </g>
   </g>
   <g id="line2d_92">
    <path clip-path="url(#paef1f9d116)" d="M 1457.555591 45.882617 
L 1482.697376 50.967337 
L 1507.839161 52.838197 
L 1532.980946 54.419461 
L 1558.12273 52.541643 
L 1583.264515 55.369862 
L 1608.4063 52.667826 
L 1633.548085 52.76093 
L 1658.689869 52.497299 
L 1683.831654 50.042382 
L 1708.973439 49.689614 
L 1734.115223 48.542561 
L 1759.257008 44.812085 
" style="fill:none;stroke:#1f77b4;stroke-linecap:square;stroke-width:1.5;"/>
   </g>
   <g id="line2d_93">
    <path clip-path="url(#paef1f9d116)" d="M 1457.555591 127.558577 
L 1482.697376 132.7342 
L 1507.839161 135.371625 
L 1532.980946 137.749092 
L 1558.12273 134.733968 
L 1583.264515 138.947497 
L 1608.4063 138.835239 
L 1633.548085 137.676127 
L 1658.689869 137.652003 
L 1683.831654 137.464519 
L 1708.973439 137.080967 
L 1734.115223 136.811002 
L 1759.257008 136.123204 
" style="fill:none;stroke:#ff7f0e;stroke-linecap:square;stroke-width:1.5;"/>
   </g>
   <g id="line2d_94">
    <path clip-path="url(#paef1f9d116)" d="M 1457.555591 220.843603 
L 1482.697376 220.785268 
L 1507.839161 220.06472 
L 1532.980946 219.274207 
L 1558.12273 220.364612 
L 1583.264515 219.0325 
L 1608.4063 216.413307 
L 1633.548085 217.659685 
L 1658.689869 217.347413 
L 1683.831654 215.039443 
L 1708.973439 214.982331 
L 1734.115223 213.993633 
L 1759.257008 210.895749 
" style="fill:none;stroke:#2ca02c;stroke-linecap:square;stroke-width:1.5;"/>
   </g>
   <g id="patch_15">
    <path d="M 1442.470521 314.198437 
L 1442.470521 20.798437 
" style="fill:none;stroke:#000000;stroke-linecap:square;stroke-linejoin:miter;stroke-width:0.8;"/>
   </g>
   <g id="patch_16">
    <path d="M 1442.470521 314.198437 
L 1774.342079 314.198437 
" style="fill:none;stroke:#000000;stroke-linecap:square;stroke-linejoin:miter;stroke-width:0.8;"/>
   </g>
   <g id="text_54">
    <!-- feature_type = lowrank12 -->
    <g transform="translate(1543.124269 14.798437)scale(0.1 -0.1)">
     <use xlink:href="#DejaVuSans-102"/>
     <use x="35.205078" xlink:href="#DejaVuSans-101"/>
     <use x="96.728516" xlink:href="#DejaVuSans-97"/>
     <use x="158.007812" xlink:href="#DejaVuSans-116"/>
     <use x="197.216797" xlink:href="#DejaVuSans-117"/>
     <use x="260.595703" xlink:href="#DejaVuSans-114"/>
     <use x="301.677734" xlink:href="#DejaVuSans-101"/>
     <use x="363.201172" xlink:href="#DejaVuSans-95"/>
     <use x="413.201172" xlink:href="#DejaVuSans-116"/>
     <use x="452.410156" xlink:href="#DejaVuSans-121"/>
     <use x="511.589844" xlink:href="#DejaVuSans-112"/>
     <use x="575.066406" xlink:href="#DejaVuSans-101"/>
     <use x="636.589844" xlink:href="#DejaVuSans-32"/>
     <use x="668.376953" xlink:href="#DejaVuSans-61"/>
     <use x="752.166016" xlink:href="#DejaVuSans-32"/>
     <use x="783.953125" xlink:href="#DejaVuSans-108"/>
     <use x="811.736328" xlink:href="#DejaVuSans-111"/>
     <use x="872.917969" xlink:href="#DejaVuSans-119"/>
     <use x="954.705078" xlink:href="#DejaVuSans-114"/>
     <use x="995.818359" xlink:href="#DejaVuSans-97"/>
     <use x="1057.097656" xlink:href="#DejaVuSans-110"/>
     <use x="1120.476562" xlink:href="#DejaVuSans-107"/>
     <use x="1178.386719" xlink:href="#DejaVuSans-49"/>
     <use x="1242.009766" xlink:href="#DejaVuSans-50"/>
    </g>
   </g>
  </g>
  <g id="legend_1">
   <g id="line2d_95">
    <path d="M 1794.245204 153.119531 
L 1814.245204 153.119531 
" style="fill:none;"/>
   </g>
   <g id="line2d_96"/>
   <g id="text_55">
    <!-- loss -->
    <g transform="translate(1822.245204 156.619531)scale(0.1 -0.1)">
     <use xlink:href="#DejaVuSans-108"/>
     <use x="27.783203" xlink:href="#DejaVuSans-111"/>
     <use x="88.964844" xlink:href="#DejaVuSans-115"/>
     <use x="141.064453" xlink:href="#DejaVuSans-115"/>
    </g>
   </g>
   <g id="line2d_97">
    <path d="M 1794.245204 167.797656 
L 1814.245204 167.797656 
" style="fill:none;stroke:#1f77b4;stroke-linecap:square;stroke-width:1.5;"/>
   </g>
   <g id="line2d_98"/>
   <g id="text_56">
    <!-- total loss -->
    <g transform="translate(1822.245204 171.297656)scale(0.1 -0.1)">
     <use xlink:href="#DejaVuSans-116"/>
     <use x="39.208984" xlink:href="#DejaVuSans-111"/>
     <use x="100.390625" xlink:href="#DejaVuSans-116"/>
     <use x="139.599609" xlink:href="#DejaVuSans-97"/>
     <use x="200.878906" xlink:href="#DejaVuSans-108"/>
     <use x="228.662109" xlink:href="#DejaVuSans-32"/>
     <use x="260.449219" xlink:href="#DejaVuSans-108"/>
     <use x="288.232422" xlink:href="#DejaVuSans-111"/>
     <use x="349.414062" xlink:href="#DejaVuSans-115"/>
     <use x="401.513672" xlink:href="#DejaVuSans-115"/>
    </g>
   </g>
   <g id="line2d_99">
    <path d="M 1794.245204 182.475781 
L 1814.245204 182.475781 
" style="fill:none;stroke:#ff7f0e;stroke-linecap:square;stroke-width:1.5;"/>
   </g>
   <g id="line2d_100"/>
   <g id="text_57">
    <!-- adj -->
    <defs>
     <path d="M 45.40625 46.390625 
L 45.40625 75.984375 
L 54.390625 75.984375 
L 54.390625 0 
L 45.40625 0 
L 45.40625 8.203125 
Q 42.578125 3.328125 38.25 0.953125 
Q 33.9375 -1.421875 27.875 -1.421875 
Q 17.96875 -1.421875 11.734375 6.484375 
Q 5.515625 14.40625 5.515625 27.296875 
Q 5.515625 40.1875 11.734375 48.09375 
Q 17.96875 56 27.875 56 
Q 33.9375 56 38.25 53.625 
Q 42.578125 51.265625 45.40625 46.390625 
z
M 14.796875 27.296875 
Q 14.796875 17.390625 18.875 11.75 
Q 22.953125 6.109375 30.078125 6.109375 
Q 37.203125 6.109375 41.296875 11.75 
Q 45.40625 17.390625 45.40625 27.296875 
Q 45.40625 37.203125 41.296875 42.84375 
Q 37.203125 48.484375 30.078125 48.484375 
Q 22.953125 48.484375 18.875 42.84375 
Q 14.796875 37.203125 14.796875 27.296875 
z
" id="DejaVuSans-100"/>
     <path d="M 9.421875 54.6875 
L 18.40625 54.6875 
L 18.40625 -0.984375 
Q 18.40625 -11.421875 14.421875 -16.109375 
Q 10.453125 -20.796875 1.609375 -20.796875 
L -1.8125 -20.796875 
L -1.8125 -13.1875 
L 0.59375 -13.1875 
Q 5.71875 -13.1875 7.5625 -10.8125 
Q 9.421875 -8.453125 9.421875 -0.984375 
z
M 9.421875 75.984375 
L 18.40625 75.984375 
L 18.40625 64.59375 
L 9.421875 64.59375 
z
" id="DejaVuSans-106"/>
    </defs>
    <g transform="translate(1822.245204 185.975781)scale(0.1 -0.1)">
     <use xlink:href="#DejaVuSans-97"/>
     <use x="61.279297" xlink:href="#DejaVuSans-100"/>
     <use x="124.755859" xlink:href="#DejaVuSans-106"/>
    </g>
   </g>
   <g id="line2d_101">
    <path d="M 1794.245204 197.153906 
L 1814.245204 197.153906 
" style="fill:none;stroke:#2ca02c;stroke-linecap:square;stroke-width:1.5;"/>
   </g>
   <g id="line2d_102"/>
   <g id="text_58">
    <!-- feat -->
    <g transform="translate(1822.245204 200.653906)scale(0.1 -0.1)">
     <use xlink:href="#DejaVuSans-102"/>
     <use x="35.205078" xlink:href="#DejaVuSans-101"/>
     <use x="96.728516" xlink:href="#DejaVuSans-97"/>
     <use x="158.007812" xlink:href="#DejaVuSans-116"/>
    </g>
   </g>
  </g>
 </g>
 <defs>
  <clipPath id="p704c83aac6">
   <rect height="293.4" width="331.871558" x="44.059375" y="20.798437"/>
  </clipPath>
  <clipPath id="p159d922715">
   <rect height="293.4" width="331.871558" x="393.662161" y="20.798437"/>
  </clipPath>
  <clipPath id="p71420395c8">
   <rect height="293.4" width="331.871558" x="743.264948" y="20.798437"/>
  </clipPath>
  <clipPath id="p188405beb4">
   <rect height="293.4" width="331.871558" x="1092.867734" y="20.798437"/>
  </clipPath>
  <clipPath id="paef1f9d116">
   <rect height="293.4" width="331.871558" x="1442.470521" y="20.798437"/>
  </clipPath>
 </defs>
</svg>
